<?xml version="1.0" encoding="utf-8"?>
<!-- Generator: Adobe Illustrator 19.1.0, SVG Export Plug-In . SVG Version: 6.00 Build 0)  -->
<svg version="1.1" id="Layer_1" xmlns="http://www.w3.org/2000/svg" xmlns:xlink="http://www.w3.org/1999/xlink" x="0px" y="0px"
	 width="80px" height="80px" viewBox="0 0 80 80" enable-background="new 0 0 80 80" xml:space="preserve">
<g>
	<path d="M25.5,30.4c-1.1,0.7-2.1,1.3-3.2,1.8c-1.5,0.8-3.2,1.2-4.8,1.1c-0.9,0-1.9-0.2-2.9-0.8c-1.8-1.2-2.4-2.8-2.1-4.9
		c0.2-1.7,1.1-3,2.2-4.3c1-1.1,2.3-2,3.3-3.1c0.5-0.5,1.2-0.6,1.8-1c1-0.6,2-1.3,3-1.9c0.8-0.5,1.9-0.8,2.9-1.2
		c1.5-0.7,2.9-1.6,4.4-2.2c0.9-0.4,1.8-0.9,2.7-1.4c0.5-0.3,0.8-0.7,1-1.2c1-2.2,1.8-4.5,3.1-6.6c0.4-0.8,1.1-1.4,1.8-1.9
		c0.2-0.2,0.4-0.3,0.6-0.2c1.9,0.1,3.7-0.2,5.5,0.7c2.7,1.3,5.6,2.1,8.3,3.3c1.4,0.6,2.9,1.1,4.4,1.5c1.9,0.5,3.4,1.6,5,2.5
		c1.4,0.7,2.7,1.6,4,2.4c1.1,0.8,1.4,1.7,0.9,3c-0.7,1.8-1,3.6-1.3,5.5c-0.4,3.3-0.5,6.6-0.4,10c0.1,2.3-0.2,4.6-0.4,6.9
		c-0.3,3.2-1,6.2-1.4,9.4c-0.2,1.8-0.5,3.6-1,5.4c-0.7,2.4-1.5,4.9-2.8,7.1c-1.1,1.9-2.1,3.8-3.5,5.5c-1.3,1.5-2.6,3.1-4.1,4.4
		c-0.9,0.8-1.6,1.7-2.6,2.5c-1.9,1.5-4,2.6-6.3,3.5c-1.6,0.6-3.2,1.1-4.9,1.3c-0.4,0-0.8,0-1.2-0.1c-0.3-0.1-0.6-0.1-0.8,0.2
		c-0.3,0.5-0.8,0.2-0.9,0c-0.3-0.8-0.9-0.6-1.4-0.6c-0.8,0-1.5-0.2-2.3-0.2c-1.5,0-2.5-1.1-3.9-1.3c-0.9-0.1-1.2-1-1.8-1.5
		c-2.4-2.1-4.2-4.6-4.9-7.8c-0.2-0.9-0.8-1.5-1-2.5c-0.4-2.2-0.7-4.4-0.6-6.6c0.1-1.7,0.1-3.3,0.1-5c0-1.8,0.2-3.5,0.5-5.3
		c0.2-0.9,0.3-1.8,0.4-2.8c0-0.6,0.4-1.2,0.7-1.7c1.1-2.2,1.6-4.5,2.5-6.8C24.5,33.7,24.9,32.2,25.5,30.4z M46.4,27.8
		c-0.4-0.5-0.3-1.1-0.2-1.6c0.4-1.3,0.9-2.5,1.4-3.7c0.4-1.1,1.1-2.1,1.1-3.3c0-0.2,0.4-0.4,0-0.5c-0.3-0.1-0.4,0.1-0.5,0.3
		c-0.4,0.7-0.8,1.4-1,2.1c-1.2,3.6-2.6,7.1-3.6,10.8c-0.5,2-1.3,3.9-1.8,5.8c-1,4-2,8.1-2.8,12.2c-0.5,2.3-1.1,4.5-1.6,6.7
		c-0.9,4.1-2.4,8.1-3.6,12.2c-0.5,2-1.1,4-1.7,6c-0.1,0.4,0,0.8,0.3,0.8c0.4,0,1,0.6,1.3-0.2c0.3-0.9,0.9-1.8,1.1-2.8
		c0.7-2.6,1.7-5,2.5-7.6c0.9-3.2,1.5-6.5,2.1-9.9c0.4-2.7,0.9-5.3,1.4-8c0.3-1.7,0.8-3.3,1.2-5c0.7-2.8,0.8-5.7,1.7-8.5
		c0.6-2,1.2-3.9,2.1-5.9c0,0.5,0.5,0.5,0.3,1c-0.7,1.6-1.1,3.3-1.6,5c-0.3,0.8-0.6,1.7-0.7,2.6c-0.2,2.2-0.6,4.4-1.2,6.6
		c-1,3.8-1.6,7.7-2.4,11.6c-0.4,2.1-0.5,4.2-1.1,6.3c-0.5,2-0.9,4.1-1.6,6c-1,2.7-1.8,5.4-2.5,8.1c-0.1,0.3-0.2,0.7,0.2,0.8
		c0.3,0.1,0.7,0.3,1-0.3c0.4-0.7,0.5-1.6,0.8-2.3c1-2.4,1.8-4.9,2.2-7.5c0.6-3.4,1.3-6.6,2.1-9.9c0.6-2.3,1.1-4.6,1.6-7
		c0.3-1.3,0.4-2.6,0.8-3.9c0.4-1.5,0.5-3,0.9-4.4c1.3-4,2.7-8,3.8-12.1c0.5-1.6,0.9-3.3,1.6-4.9c0.5-1.1,0.9-2.2,1.3-3.3
		c0.1-0.4-0.2-0.5-0.4-0.6c-0.2-0.1-0.5-0.3-0.7,0c-0.6,1-1.2,2-1.7,3.1C47.6,24.3,47,26,46.4,27.8z M43.3,49.7
		c0.7,0,0.9-0.7,1.3-0.9c1.5-0.7,2.8-1.8,4.3-2.6c1.3-0.7,2.7-1.3,3.9-2.1c1.7-1.1,3.5-2.1,5.3-3.1c1.8-1,3.6-2.1,5.3-3.3
		c0.3-0.2,0.3-0.8,0.7-0.6c0.5,0.1,0.4-0.2,0.5-0.4c0-0.4-0.1-0.9,0.1-1.3c0-0.1,0-0.2-0.1-0.3c-0.1-0.1-0.2,0-0.3,0.1
		c-1.6,1-3.3,2-4.9,3c-1.3,0.8-2.5,1.6-3.8,2.3c-1.3,0.7-2.7,1.3-3.9,2.2c-0.8,0.6-1.7,1.2-2.6,1.8c-1.5,1-3.2,1.7-4.2,3.4
		c-0.1,0.2-0.4,0.2-0.6,0.1c-0.2-0.1-0.4-0.3-0.3-0.5c0.2-0.4,0.2-0.9,0.7-1.1c0.9-0.4,1.6-0.9,2.4-1.4c1.1-0.8,2.2-1.6,3.3-2.3
		c0.7-0.5,1.4-1.1,2.3-1.4c1.2-0.6,2.5-1.2,3.6-2c1.2-0.8,2.5-1.6,3.8-2.4c1.5-0.9,3-1.9,4.4-3.1c0.5-0.5,0.2-1,0.4-1.5
		c0-0.1-0.1-0.2-0.3-0.1c-0.8,0.5-1.6,0.8-2.4,1.2c-3.2,1.9-6.5,3.9-9.6,5.9c-1.2,0.8-2.4,1.6-3.7,2.3c-0.6,0.3-1.2,0.8-1.7,1.4
		c-0.6,0.7-1.4,1.6-2.3,1.7c-0.7,0.1-0.7,0.3-0.8,0.7C43.8,46.9,43.9,48.3,43.3,49.7z M20.7,54.2c0,0.8-0.2,1.5-0.1,2.2
		c0,0.2-0.2,0.4,0,0.7c1.1,1.9,2.2,3.8,3.4,5.7c1.2,1.8,2.4,3.6,3.7,5.4c0.8,1.1,1.3,2.4,2.3,3.4c0.7-1.8,1.2-3.6,1.6-5.4
		c-0.9,0.2-1.1,0.1-1.4-0.7c-0.1-0.2-0.2-0.4-0.3-0.6c-0.5-0.8-1.1-1.6-1.5-2.5c-0.6-1.2-1.2-2.3-1.9-3.4c-1.5-2.1-2.4-4.5-3.8-6.6
		c-0.7-1-1-2.1-1.8-3.2c0,1.1-0.4,2.1,0,3c1.1,2.4,2.5,4.6,3.7,6.9c0.8,1.6,2,2.9,2.8,4.5c0.8,1.7,2,3.2,2.9,4.8
		c0.2,0.4,0.2,0.7,0.1,1c-0.1,0.2-0.4,0.3-0.6,0.3c-0.2,0-0.5-0.3-0.4-0.5c0.3-0.9-0.5-1.3-0.8-1.9c-1.2-2.4-2.6-4.7-4-7
		C23.3,58.4,22.4,56.1,20.7,54.2z M47.4,18.2c-0.3,0.1-0.6-0.4-0.9-0.2c-0.2,0.2,0,0.4,0.1,0.7c0.1,0.2-0.1,0.4-0.3,0.5
		c-0.4,0.2-0.5,0.5-0.6,0.9c-0.1,0.5-0.2,1-0.4,1.5c-1.2,2.7-1.7,5.6-2.5,8.4c-0.6,1.9-1,3.8-1.6,5.7c-1.5,5-2.8,10.1-4.5,15.1
		c-1.3,4-2.3,8-3.5,12.1c-0.7,2.6-1.5,5.2-2.2,7.8c-0.3,1.1-0.5,2.3-0.8,3.4c-0.1,0.4-0.3,0.7,0.2,0.9c0.5,0.2,0.7-0.1,0.8-0.5
		c0.7-2.3,1.5-4.6,2.2-7c0.7-2.3,1.3-4.6,2.1-6.8c0.7-2.1,1.1-4.3,1.6-6.4c0.5-1.8,0.9-3.6,1.3-5.5c0.5-2.5,1.2-4.9,1.6-7.4
		c0.4-2.9,1.5-5.6,2.3-8.4c0.6-2,1.2-4.1,1.9-6.1C45.3,24.1,46.3,21.1,47.4,18.2z M63.8,41.4c-2.6,1.3-4.9,3.1-7.4,4.6
		c-3.4,2.1-7.1,3.8-10.4,6.1c-0.7,0.5-1.4,1.2-2.2,1.4c-1.3,0.5-1.8,1.4-2,2.5c-0.1,0.5,0,0.7,0.6,0.6c0.4-0.1,0.5-0.5,0.8-0.6
		c2-0.7,3.9-1.6,5.4-3.1c0.1-0.1,0.3-0.2,0.4-0.2c0.3,0.3,0.5,0,0.8-0.1c1.1-0.4,1.9-1.3,2.8-2c3.3-2.2,6.8-4,9.8-6.6
		C63.2,43.4,64.1,42.8,63.8,41.4z M66.5,14.7c-0.2-0.3,0-0.8-0.5-0.9c-1.2-0.3-2-1.3-3.1-1.9c-1.4-0.8-2.6-2-4.2-2.4
		c-1.4-0.4-2.8-1-4.3-1.4c-1.9-0.5-3.6-1.5-5.4-2.2c-1.6-0.6-3.2-1.1-4.8-1.8c-1.4-0.6-2.7-0.7-4.2-0.6c-0.4,0.1-1,0-1.3,0.5
		C39,4.2,39.2,4,39.4,4.1c0.9,0.6,1.9,1.1,3,1.5c3.2,1.2,6.4,2.2,9.6,3.4c2.2,0.9,4.5,1.7,6.7,2.6c1.9,0.8,3.7,1.6,5.6,2.4
		C64.9,14.4,65.6,15,66.5,14.7z M39.5,67c1-0.7,2.1-1.2,3.1-1.9c1.7-1.2,3.4-2.3,5.2-3.3c1.7-1,3.5-2,5.2-3.1
		c1.4-0.9,2.6-1.9,4.1-2.7c1.4-0.7,2.7-1.5,3.7-2.6c0.5-0.5,1.4-0.8,1.5-1.8c0-0.2,0.3-0.4,0-0.6c-0.2-0.2-0.4,0-0.6,0.1
		c-3,1.6-6,3.3-8.9,5.2c-3.4,2.3-7.1,4.1-10.2,6.8c-0.4,0.3-0.7,0.8-1.2,1C40,64.7,39.6,65.7,39.5,67z M65,23.5
		c-0.1-0.7-0.2-1.3-0.9-1.5c-2.7-0.9-5.2-2.2-8-3c-1.8-0.5-3.6-1.3-5.4-2c-2.6-0.9-5.3-1.8-7.9-2.8c-2.4-0.9-4.8-1.7-7.2-2.5
		c-0.3-0.1-0.7-0.3-1,0.1c-0.2,0.3-0.3,0.7,0,0.9c0.2,0.2,0.6,0.4,1,0.5c4.2,1.7,8.6,2.9,12.8,4.6c2.5,1,5.1,1.7,7.5,2.6
		c2.2,0.8,4.3,1.6,6.6,2.3C63.3,23.1,64.2,23.2,65,23.5z M45.6,40.1c0.2-0.2,0.3-0.5,0.6-0.5c0.9,0,1.6-0.4,2.2-0.9
		c1.8-1.5,3.8-2.6,5.7-4c2.2-1.7,4.8-3.1,7.1-4.7c1.2-0.8,2.4-1.5,3.4-2.6c0.4-0.4,0.3-0.9,0.1-1.3c-0.2-0.4-0.6,0-0.9,0.1
		c-1.2,0.6-2.3,1.3-3.5,2c-1.2,0.8-2.4,1.7-3.7,2.4c-2.4,1.4-4.8,2.8-7,4.4c-1,0.8-1.7,2.3-3.3,2.2c0,0,0,0.1-0.1,0.1
		C46,38.2,45.7,39.1,45.6,40.1z M42.6,53.3c0.4-0.5,0.9-0.7,1.3-0.9c1.4-0.7,2.4-2.1,4.1-2.3c0.2,0,0.4-0.2,0.5-0.3
		c0.4-0.3,0.8-0.6,1.3-0.8c0.9-0.5,1.9-0.9,2.8-1.5c1.1-0.8,2.3-1.5,3.5-2.2c2.2-1.3,4.4-2.8,6.5-4.2c0.6-0.4,0.9-1.1,1.7-1.3
		c0.4-0.1,0.2-0.7,0.1-1.1c0-0.2-0.3-0.2-0.6-0.1c-1.1,0.6-2.1,1.3-3.2,1.8c-2.5,1.3-5,2.8-7.5,4.3c-2.3,1.5-4.8,2.7-7,4.4
		c-0.8,0.6-1.4,1.5-2.3,1.8C42.7,51.4,42.7,52.2,42.6,53.3z M37.7,73.7c0.4-0.2,0.8-0.4,1.1-0.6c2.5-2.1,5.4-3.5,8.2-5.1
		c2.2-1.3,4.4-2.5,6.6-3.7c1.7-1,3.3-2.2,4.8-3.4c0.6-0.5,1.1-1.4,1.3-2.4c-0.2,0.1-0.3,0.1-0.4,0.1c-2.6,1.2-4.9,2.8-7.4,4.2
		c-2.5,1.5-4.9,3.1-7.3,4.7c-0.9,0.6-2,1-2.7,1.8c-0.9,1-2.2,1.5-3.2,2.3C38,72,37.6,72.7,37.7,73.7z M56.7,63.3
		c-0.4-0.1-0.6,0.1-0.8,0.3c-3.3,1.9-6.4,4-9.8,5.7c-3.2,1.7-6.1,4-9.1,6c-0.1,0.1-0.3,0.5,0.1,0.6c0.5,0.2,1,0,1.6,0.2
		c0.1,0,0.2-0.1,0.2-0.2c-0.1-0.5,0.3-0.5,0.6-0.6c0.4-0.2,0.9-0.4,1.3-0.6c1-0.7,2-1.4,3.2-1.9c0.8-0.3,1.7-0.7,2.5-1.2
		c2.3-1.2,4.5-2.5,6.7-3.8c0.2-0.1,0.4-0.3,0.5-0.5c0.4-0.5,0.8-0.9,1.2-1.4C55.6,65,56.5,64.5,56.7,63.3z M39.4,67.5
		c0,0.9-0.2,1.5-0.5,2c-0.1,0.2-0.2,0.3,0,0.5c0.2,0.1,0.4,0,0.5-0.1c0.6-0.4,1.1-0.8,1.7-1.2c1.6-1,3.3-2.1,4.9-3.1
		c1.6-1,3.1-2.2,4.8-3.1c2.9-1.5,5.7-3.4,8.5-5.1c0.4-0.3,1.1-0.3,1.3-0.8c0.2-0.5,0.4-1,0.6-1.5c0.1-0.2,0.2-0.3,0-0.5
		c-0.2-0.1-0.3,0-0.5,0.1c-1.9,1.3-4,2.3-6,3.7c-2.3,1.6-4.7,3.1-7.1,4.5c-2.5,1.4-4.7,3.2-7,4.8C40.2,67.9,39.8,68,39.4,67.5z
		 M21.4,45.3c-0.1,1.1-0.5,2,0,3c1.1,2,2.1,4.1,3.2,6.1c1,1.9,2.3,3.7,3.3,5.6c0.7,1.2,1.5,2.2,2.2,3.4c0.5,0.9,1.3,1.6,1.6,2.6
		c-0.1-1.1,1-2,0.1-3.2c-0.4-0.5-0.8-1.4-1.1-2c-1.4-2.6-3.4-4.9-4.7-7.6c-1-2-2.2-3.9-3.2-5.9C22.5,46.5,22.1,45.8,21.4,45.3z
		 M36.1,51.4c-0.7,0.3-0.9,0-1.1-0.5c-0.5-1.5-1.2-3-1.9-4.4c-1.4-2.8-3-5.5-4.5-8.3c-0.6-1.1-1.3-2.2-1.7-3.5
		c-0.3-0.7-0.7-1.4-1.2-2c-0.8,1.1-0.8,2.2-0.3,3.3c1.5,3.4,3.4,6.6,5.2,9.8c0.8,1.5,1.8,2.9,2.6,4.4c0.6,1.2,1.3,2.3,1.9,3.5
		C35.4,52.9,35.6,52.2,36.1,51.4z M40.8,61c0.4-0.3,0.6-0.6,0.8-0.8c2-0.9,3.6-2.3,5.5-3.4c1.7-1,3.2-2.2,4.8-3.3
		c2.6-1.7,5.3-3.3,8-4.9c1-0.6,2-1.4,2.9-2.2c0.5-0.4,0.6-1.2,0.4-1.4c-0.2-0.3-0.8,0.1-1.1,0.4c-1.1,0.8-2.3,1.5-3.5,2.4
		C57,49,55,49.8,53.3,51.1c-2.3,1.8-4.8,3.3-7.4,4.7c-1,0.6-2.3,0.9-3,1.8c-0.6,0.7-0.9,0.4-1.3-0.1C41.4,58.7,40.8,59.7,40.8,61z
		 M22.4,42c-0.3,0.7-0.9,1.3-0.6,2.1c1.6,3,3.1,6,4.8,8.9c1.4,2.3,2.6,4.7,4.3,6.8c0.6,0.7,0.8,1.8,1.8,2.2c0.1-0.5,0.2-1,0.4-1.5
		c0.1-0.3,0.1-0.4-0.3-0.4c-0.2,0-0.3-0.1-0.3-0.2c-0.2-0.9-0.7-1.6-1.1-2.3C30.6,56,30,54.4,29,52.9c-1.1-1.6-2.3-3.1-3.1-4.9
		C24.9,46,23.7,44,22.4,42z M29.8,23.4c-0.5,1-1.2,1.7-0.6,2.8c0.4,0.7,0.6,1.5,1,2.3c0.8,1.7,1.6,3.5,2.5,5.1c1,1.8,2,3.5,2.8,5.4
		c0.7,1.7,1.8,3.2,2.9,5c0.2-0.9,0.7-1.9,0.4-2.4c-0.4-0.7-0.7-1.4-1.1-2.1c-0.4-0.8-1-1.6-1.2-2.5c-0.1-0.5-0.3-1.1-0.6-1.6
		c-0.9-1.1-1.4-2.4-2.1-3.6c-1-2-1.8-4.1-2.7-6.1C30.7,24.9,30.2,24.2,29.8,23.4z M34.3,56.5c0.4-0.6,0.4-1.1,0.5-1.6
		c0.1-0.4,0.4-0.9-0.5-0.6c-0.1,0-0.4-0.1-0.5-0.3c-0.2-0.9-0.7-1.7-1.1-2.6c-0.4-0.8-0.7-1.6-1.1-2.3c-1-1.7-2-3.4-3-5.2
		c-0.5-0.9-1-1.9-1.5-2.9c-0.8-1.5-1.6-3.1-2.4-4.6c-0.1-0.1-0.4-0.4-0.4-0.2c-0.2,0.7-0.8,1.3-0.5,2.1c1,2.3,2,4.5,3.4,6.7
		c1.8,2.8,3.5,5.7,5.1,8.6C33,54.6,33.6,55.5,34.3,56.5z M44.6,43.5c0.2-0.1,0.3-0.1,0.4-0.2c0.9-0.8,1.8-1.5,2.8-2.1
		c1.8-1.1,3.6-2.1,5.4-3.3c2-1.3,4.1-2.5,6.2-3.8c1.8-1.1,3.5-2.2,5.1-3.5c0.4-0.3,0.3-1,0.1-1.4c-0.2-0.5-0.6,0-0.8,0.1
		c-1.7,0.8-3.3,1.9-4.9,2.9c-1.5,1-3.2,1.9-4.6,3.1c-2.5,2.1-5.3,3.8-8,5.7c-0.7,0.5-1,0.4-1.1-0.6C45,41.6,44.8,42.5,44.6,43.5z
		 M27.1,29.6c-0.4,0.6-0.9,1.2-0.8,1.8c0.8,3.2,2.6,5.9,4,8.7c0.9,1.9,2.2,3.7,3.2,5.5c0.7,1.3,1.4,2.6,2.1,4
		c0.1,0.3,0.1,0.8,0.5,0.8c0.4,0,0.2-0.5,0.4-0.7c0,0,0.1-0.1,0.1-0.2c0.2-0.6,0.6-1.2-0.5-1.4c-0.3-0.1-0.2-0.3-0.2-0.5
		c0.1-0.2,0.1-0.3,0-0.5c-0.9-0.9-1-2.2-1.6-3.3c-1.1-1.9-1.8-3.9-2.9-5.7C29.9,35.4,28.5,32.5,27.1,29.6z M64.6,17.9
		c-1.3-1.1-2.6-1.6-3.9-2.2c-1.2-0.6-2.4-1.1-3.7-1.6c-2.1-0.9-4.2-1.9-6.3-2.8c-3.4-1.4-6.8-2.6-10.2-3.9c-0.9-0.3-1.8-0.7-2.7-1
		c-0.3-0.1-0.7-0.1-0.9,0.3c-0.1,0.3,0,0.5,0.4,0.7c2.5,1,4.9,2.1,7.4,3.1c3.8,1.4,7.5,3,11.1,4.6c2.2,1,4.5,1.7,6.7,2.5
		C63.1,17.6,63.7,18,64.6,17.9z M40.1,37c0.2-0.6,0.3-1.1,0.6-1.6c0.1-0.4,0.1-0.5-0.3-0.6c-0.3-0.1-0.5-0.4-0.5-0.7
		c0.1-0.4-0.1-0.7-0.3-1.1c-0.3-0.6-0.8-1.2-0.9-1.8c-0.5-1.8-1.3-3.6-2.1-5.3c-0.9-2-2-4-2.6-6.1c-0.3-1-0.8-1.9-1.3-2.9
		c-0.9,1.5-1,1.7-0.4,3.3c0.2,0.6,0.4,1.3,0.6,1.9c1.1,2.5,1.8,5.2,3.2,7.5c0.9,1.6,1.8,3.2,2.6,4.9C39.1,35.3,39.3,36.3,40.1,37z
		 M65.7,17.2c0.3-1.1,0.2-1.5-0.6-1.8c-1.8-0.8-3.6-1.7-5.5-2.6c-3-1.3-6-2.3-9-3.5c-1.5-0.6-3-1-4.5-1.5c-1-0.4-1.9-0.8-3-1.1
		c-1.7-0.4-3.2-1.3-4.9-1.7C38,5,37.8,4.9,37.6,5.1c-0.1,0.3,0.1,0.3,0.3,0.4c1.3,0.6,2.7,1.1,4,1.6c2.1,0.8,4.2,1.5,6.3,2.4
		c3.1,1.2,6.1,2.5,9.1,3.9C60.2,14.7,63.1,15.7,65.7,17.2z M37.2,47.3c0.2-0.8,0.5-1.6,0.7-2.4c0-0.2,0.1-0.4-0.1-0.4
		c-0.7-0.1-0.9-0.7-1.1-1.2c-0.6-1.5-1.4-3-2.2-4.5c-0.8-1.6-1.7-3.2-2.5-4.7c-0.4-0.7-0.9-1.3-1.1-2c-0.5-1.8-1.6-3.3-2.3-5
		c-0.1-0.2-0.2-0.4-0.3-0.2c-0.3,0.4-0.7,1-0.6,1.2c0.5,0.7,0.3,1.6,0.6,2.2c0.9,1.9,1.6,3.9,2.8,5.7c1.3,2,2.5,4,3.5,6.2
		c0.7,1.6,1.9,3,2.3,4.8C36.9,47.1,37.1,47.2,37.2,47.3z M63.9,24.7c0-0.2-0.1-0.2-0.3-0.3c-0.9-0.3-1.6,0-2.4,0.5
		c-1.6,0.9-3.1,1.9-4.7,2.7c-2.1,1.1-3.9,2.5-5.7,3.9c-0.7,0.5-1.4,1.3-2.2,1.4c-0.9,0.1-1,0.6-1.2,1.2c-0.1,0.3-0.2,0.7-0.3,1
		c0,0.2-0.3,0.4-0.1,0.5c0.2,0.1,0.4,0,0.7-0.1c1-0.6,1.8-1.5,2.8-2.1c2.2-1.3,4.4-2.5,6.5-3.9c2.2-1.3,4.3-2.8,6.4-4.3
		C63.7,25.1,63.8,24.9,63.9,24.7z M31.3,20c-1.1,1.1-0.9,2.4-0.4,3.6c0.4,1.1,1,2.2,1.4,3.3c0.7,1.5,1,3.2,1.9,4.7
		c1,1.4,1.8,2.9,2.6,4.5c0.2,0.4,0.3,0.8,0.5,1.1c0.8,0.9,1.1,2.1,1.7,3.2c0.3-0.6,0.8-1.4,0.4-1.8c-0.5-0.5-0.5-1.1-0.8-1.7
		c-0.5-1.4-1.1-2.8-1.8-4.1c-0.7-1.5-1.5-2.9-2.2-4.4C33.5,25.7,32.5,22.9,31.3,20z M40.3,63.4c0.9-0.5,1.6-1.2,2.4-1.7
		c2.4-1.6,4.9-3.2,7.4-4.6c1.8-1,3.4-2.2,5.1-3.2c2.1-1.3,4.3-2.4,6.3-3.9c0.6-0.4,1.4-0.7,1.2-1.6c0-0.2,0.2-0.4-0.1-0.4
		c-0.1,0-0.3,0.1-0.5,0.1c-1.8,1.1-3.7,2.3-5.5,3.4c-2.3,1.4-4.6,2.9-6.8,4.4c-2.6,1.8-5.3,3.3-7.7,5.4c-0.4,0.3-1,1-1.8-0.1
		C40.6,62.1,40.2,62.7,40.3,63.4z M33.9,14.4c-0.4,0.5-0.4,0.9-0.3,1.5c0.2,1.3,0.9,2.3,1.2,3.6c0.2,0.8,0.4,1.7,0.8,2.4
		c1.5,2.8,2.7,5.7,3.9,8.6c0.4,1,0.9,2,1.7,2.8c0.4-0.9,0.4-1.8,0.7-2.6c0.1-0.2,0-0.4-0.2-0.3c-0.6,0.1-0.7-0.4-0.8-0.8
		c-0.2-0.7-0.5-1.3-0.9-1.9c-0.8-1.3-1.3-2.7-1.9-4.1C36.8,20.4,35.3,17.4,33.9,14.4z M14.9,24.4c0.1,0.1,0.1,0.1,0.2,0.2
		c1.6-0.9,3.3-1.7,4.9-2.7c1.8-1.1,3.6-2,5.4-3c1.7-1,3.5-1.9,5.3-2.7c0.9-0.4,1.8-0.9,2.3-1.8c0.1-0.2,0.3-0.4,0.1-0.5
		c-0.1-0.1-0.4-0.1-0.6,0c-0.5,0.2-0.9,0.4-1.4,0.6c-2.3,1.1-4.4,2.5-6.8,3.4c-0.4,0.1-0.7-0.1-1,0.3c-0.9,0.9-2.1,1.2-3.1,2
		c-0.8,0.7-1.9,1-2.7,1.8C16.6,22.8,15.7,23.6,14.9,24.4z M20.6,58.9c0,0.5,0,0.8,0.1,1.2c0.2,1.4,0.2,2.9,1,4.2
		c0.6,0.8,1.4,1.6,1.9,2.4c1.5,2.6,3.4,4.9,5.4,7c0.1,0.1,0.3,0.3,0.4,0.1c0.2-0.4,0.4-0.9,0.4-1.3c0-0.4-0.3-0.2-0.6-0.1
		c0,0-0.1-0.1-0.2-0.2c-1-1.7-1.9-3.6-3.1-5.3c-1.4-1.9-2.7-4-3.9-6.1C21.7,60.3,21.3,59.5,20.6,58.9z M65.2,20.9
		c-1.8-0.9-3.7-1.7-5.6-2.4c-2.1-0.8-4.3-1.5-6.4-2.3c-1.5-0.6-3-1.3-4.6-1.8c-3.4-1.2-6.8-2.4-10.1-3.8c-0.8-0.3-1.7-0.7-2.6-0.8
		c-0.4,0-0.6,0.1-0.7,0.5c-0.1,0.3,0.1,0.4,0.4,0.5c2.8,1,5.7,2.2,8.5,3.1c4.9,1.6,9.6,3.4,14.5,5c1.9,0.6,3.8,1.3,5.7,2.1
		C64.6,21,64.9,21.3,65.2,20.9z M23.5,39.5c-0.2,0.3-0.3,0.3-0.3,0.4c-0.2,0.4-0.2,0.8,0,1.4c0.8,1.8,1.9,3.5,2.8,5.3
		c1,2.1,2.4,4.1,3.8,6c0.7,0.9,1.2,2,1.7,3c0.5,0.9,1,1.9,1.8,2.7c0.2,0.2,0.4,0.6,0.6,0.2c0.1-0.2,0.6-0.7,0-0.9
		c-0.3-0.1-0.3-0.3-0.4-0.5c-0.8-1.6-1.7-3.1-2.4-4.7c-0.6-1.3-1.6-2.4-2.2-3.7c-0.6-1.3-1.3-2.5-2.2-3.7c-0.8-1.1-1.4-2.2-1.9-3.4
		c-0.2-0.6-0.6-1.2-1-1.8C23.6,39.8,23.6,39.7,23.5,39.5z M13.6,27c0.1,0.2,0.2,0.1,0.3,0c2.1-0.9,4.1-1.9,6.1-2.9
		c2-1,3.8-2.1,5.9-2.9c1.6-0.6,3-1.9,4.8-2.2c0.2,0,0.3-0.2,0.2-0.4c0-0.3,0.1-0.5,0.3-0.7c0.2-0.3,0.7-0.8,0.4-1.1
		c-0.3-0.3-0.6,0.2-0.9,0.4c-2.7,1.1-5.2,2.6-7.8,4c-1.7,0.9-3.4,1.9-5.1,2.8C16.2,24.8,14.8,25.7,13.6,27z M28.8,23.1
		c-0.3-0.1-0.7,0.1-1,0.2c-1.2,0.5-2.5,1-3.7,1.6c-2.8,1.3-5.6,2.6-8.4,4.1c-0.6,0.3-1.3,0.5-1.8,1.1c-0.3,0.4,0,0.6,0.1,0.8
		c0.2,0.3,0.3,0.1,0.5,0c1.4-0.6,2.7-1.2,4.1-1.8c2.8-1.3,5.7-2.5,8.6-3.9C28,24.7,28.9,24.3,28.8,23.1z M42.2,29.6
		c0,0,0.1-0.1,0.1-0.1c0-0.1,0-0.1,0-0.2c0-0.7,1-1.5-0.3-2c-0.1,0-0.1-0.2-0.2-0.3c-0.1-0.9-0.6-1.6-1-2.3
		c-0.6-1.4-1.3-2.7-1.9-4.1c-0.9-2.2-1.9-4.3-3.1-6.3c-0.2-0.4-0.6-0.6-0.9-0.4c-0.3,0.2,0,0.6,0.1,0.8c0.6,1.4,1.3,2.7,1.9,4.1
		c0.6,1.5,1.2,3,1.8,4.5C39.6,25.6,40.9,27.6,42.2,29.6z M30,20.2c-0.8,0.3-1.7,0.6-2.5,0.9c-3,1.5-6,3-9,4.5
		c-1.7,0.8-3.4,1.7-5.1,2.5c-0.4,0.2-0.3,0.4-0.2,0.6c0.1,0.3,0.3,0.3,0.5,0.2c0.5-0.1,0.9-0.5,1.4-0.7c3.9-1.6,7.7-3.6,11.5-5.5
		c0.6-0.3,1.3-0.7,1.9-0.9C29.7,21.5,30,21.4,30,20.2z M58.7,17.1c-0.1,0-0.1-0.1-0.2-0.1c-1.8-0.8-3.6-1.6-5.4-2.3
		c-1.4-0.5-2.8-1.3-4.2-1.8c-2.6-0.9-5-2.1-7.6-3c-1.4-0.5-2.6-1.5-4.2-1.3c-0.3,0-0.6-0.7-0.8-0.1c-0.2,0.4,0.5,0.4,0.7,0.7
		c0.1,0.2,0.5,0.3,0.7,0.4c2.1,0.8,4.3,1.7,6.5,2.5c2.3,0.9,4.7,1.5,7,2.5C53.5,15.7,56.1,16.3,58.7,17.1z M61.3,23.7
		c-0.3-0.5-0.8-0.5-1.1-0.7c-0.1-0.1-0.3-0.1-0.3,0.1c-0.2,0.9-1.1,0.9-1.7,1.2c-2.7,1.5-5.4,3.2-7.9,4.9c-0.6,0.4-0.8,1.2-1.7,1.2
		c-0.2,0-0.5,0.9-0.3,1.2c0.2,0.4,0.7,0.1,0.9-0.2c0.5-0.6,1.3-0.9,1.9-1.3c2-1.4,4.1-2.7,6.2-3.9C58.7,25.4,60,24.6,61.3,23.7z
		 M26.2,28.6c0.7-0.8,1.1-1.7,1.3-2.7c-0.2,0-0.4,0-0.6,0.1c-3,1.3-6,2.7-9.1,4.1c-0.7,0.3-1.4,0.7-2.1,1c-0.3,0.1-0.6,0.3-0.4,0.7
		c0.1,0.3,0.3,0.4,0.7,0.2c1.2-0.7,2.6-1.1,3.9-1.7c1.8-0.9,3.9-1.4,5.5-2.8c0.1-0.1,0.3,0,0.4,0C26.4,27.7,26.1,28.2,26.2,28.6z
		 M49.8,27c-0.6,0.1-0.4,0.7-0.6,1.1c-0.1,0.2-0.3,0.3,0,0.5c0.2,0.1,0.3-0.1,0.4-0.1c0.8-0.5,1.6-1.2,2.5-1.6
		c2.2-1.1,4.1-2.5,6.2-3.7c0.2-0.1,0.6-0.3,0.5-0.6c-0.2-0.3-0.6-0.4-1-0.4c-0.2,0-0.5,0.2-0.7,0.3c-0.9,0.5-1.9,1-2.7,1.5
		c-1.4,0.9-3,1.6-4,3C50.1,27.2,50,27.2,49.8,27z M42.9,26.7c0.1-0.6,0.6-1.5,0.2-1.7c-0.7-0.3-0.6-0.9-0.9-1.4
		c-1.4-2.4-2.2-5-3.4-7.5c-0.1-0.3-0.3-0.6-0.4-0.9c-0.1-0.6-0.8-0.6-1.1-0.5c-0.4,0.1,0.1,0.4,0.1,0.7c0.1,0.3,0.2,0.7,0.3,1
		c1.3,2.3,1.9,5,3.5,7.2C42,24.5,42.2,25.7,42.9,26.7z M39.7,15.6c0.5,1.9,1.2,3.7,2.1,5.3c0.4,0.9,0.8,1.8,1.5,2.6
		c0.1,0.1,0.3,0.5,0.4,0.2c0.2-0.4,0.7-0.8,0.4-1.3c-0.5-1-1-2-1.6-3c-0.6-1-1.3-2-1.7-3.1C40.5,15.7,40.3,15.6,39.7,15.6z
		 M17.5,32.3c0.5,0.3,0.5,0.3,1.8-0.1c1.2-0.3,2.4-0.6,3.5-1.3c0.9-0.5,1.7-1,2.6-1.4c0.3-0.1,0.6-0.1,0.5-0.5
		c-0.1-0.5-0.5-0.2-0.8-0.1c-0.8,0.3-1.6,0.6-2.3,1C21,30.6,19.3,31.4,17.5,32.3z M50.7,70.2c-3.2,1.7-6.5,3.2-9.5,5.3
		C44.9,74.6,48.1,72.9,50.7,70.2z M50.1,25.6c1.9-1.3,3.8-2.5,5.7-3.7c0.1-0.1,0.4-0.1,0.2-0.4c-0.1-0.2-0.4-0.3-0.5-0.2
		c-0.4,0.6-1.1,0.5-1.7,0.7c-1.1,0.5-1.9,1.4-2.8,2.2C50.7,24.5,49.9,24.6,50.1,25.6z M44.6,21.3c0.3-1,0.3-1-0.2-1.8
		c-0.1-0.2-0.3-0.4-0.4-0.7c-0.2-0.7-1-1-0.9-1.7c0-0.3-0.1-0.6-0.4-0.6c-0.2,0-0.4-0.2-0.5,0c-0.1,0.2,0,0.5,0.1,0.8
		c0.4,0.8,0.9,1.6,1.2,2.5C43.8,20.4,44.1,20.9,44.6,21.3z M23.3,67.7c-0.1,0.1-0.2,0.1-0.2,0.2c0.9,1.7,1.9,3.4,3.6,4.5
		C25.5,70.9,24.4,69.3,23.3,67.7z M51.5,22.4c0.7-0.3,1.2-0.7,1.8-1.1c0.2-0.2,0.7-0.4,0.4-0.6c-0.3-0.2-0.8-0.6-1.2-0.1
		C52.1,21,51.6,21.5,51.5,22.4z M45.1,18.6c0.1-0.4,0.7-0.5,0.4-1c-0.2-0.3-0.6-0.4-0.7-0.2C44.3,17.9,45.1,18.1,45.1,18.6z"/>
</g>
</svg>
