<?xml version="1.0" encoding="utf-8"?>
<!-- Generator: Adobe Illustrator 19.1.0, SVG Export Plug-In . SVG Version: 6.00 Build 0)  -->
<svg version="1.1" id="Layer_1" xmlns="http://www.w3.org/2000/svg" xmlns:xlink="http://www.w3.org/1999/xlink" x="0px" y="0px"
	 width="80px" height="80px" viewBox="0 0 80 80" enable-background="new 0 0 80 80" xml:space="preserve">
<g>
	<path d="M45.2,56.5c1,0.6,2,1.1,2.9,1.8c0.2,0.1,0.7,0.3,1,0.4c2.3,1.3,4.2,2.8,4.8,5.5c0.4,1.7-0.1,3.1-1.6,4
		c-1.5,0.9-3,1.6-4.8,1.7c-0.9,0.1-1.8,0.2-2.7-0.2c-0.2-0.1-0.5-0.2-0.7-0.2c-2.3,0-4.4-0.9-6.5-1.7c-2.4-0.9-4.7-2-7.1-3.1
		c-0.4-0.2-0.7-0.5-1.1-0.8c-0.9-0.8-1.9-1.4-3-2c-1.1-0.6-2.3-1-3.7-0.6c-2.3,0.7-4.6,1.4-7,1.3c-0.9-0.1-1.9-0.1-2.8-0.3
		c-1.1-0.2-1.9-1.2-2.4-2.2c-1.5-2.6-1.8-5.6-2.6-8.4c-0.4-1.6-1.3-3-1.7-4.6C6,45.1,5,43.1,4.6,41C4.4,40,4,39.1,3.8,38.2
		c-0.3-1.3-0.2-2.6-0.3-3.9c-0.1-0.6,0.4-1.2,0.9-1.4c0.7-0.3,1.4-0.5,2.1-0.8c0.8-0.2,1.5-0.5,2.3-0.8c0.8-0.3,1.7-0.6,2.4-1.1
		c1.1-0.8,2.4-1.5,3.5-2.4c1.3-1,2.7-1.9,4-2.9c1.3-1,2.7-1.9,4-2.8c1.3-0.9,2.7-1.8,4-2.7c2.3-1.4,4.7-2.7,7-3.9
		c2.4-1.3,5-2.4,7.6-3.4c0.8-0.3,1.7-0.3,2.3-1c0,0,0.2-0.1,0.3,0c1.6,0.3,2.9-0.6,4.4-0.7c2.8-0.2,5.6-0.7,8.3,0.2
		c2.6,0.9,5.2,1.2,7.8,1.8c1.3,0.3,2.3,1.3,3.4,2c1.4,0.9,2.8,1.8,4.2,2.7c1.4,0.9,2.5,2.1,3.4,3.5c0.6,1,1.3,1.8,1.8,2.9
		c1,2.2,1.2,4.4,1.2,6.8c0,1.9-0.5,3.6-1.2,5.3c-0.6,1.3-1,2.7-1.8,3.8c-0.6,0.9-1,2-1.9,2.7c-1.2,1-2.1,2.2-3.3,3.1
		c-0.8,0.6-1.6,1.1-2.4,1.7c-1.1,0.8-2.2,1.5-3.3,2.1c-1.8,1-3.6,2.1-5.7,2.6c-1.3,0.3-2.5,0.9-3.8,1.4c-1.2,0.5-2.5,1-3.8,1.4
		C49.2,55.1,47.2,55.8,45.2,56.5z M61.6,24.7c-0.5-0.8,0-1.5,0.4-2.1c0.4-0.5,0.9-0.6,1.5-0.1c0.7,0.6,1.1,1.8,2.5,1
		c0.4-0.3,0.7-0.3,0.8-0.9c0-0.5,0.1-1,0.4-1.4c0.7-0.8,1.9-0.5,2.3,0.6c0.3,0.9,0.8,0.8,1.4,0.6c0.3-0.1,0.7-0.2,1-0.3
		c0.2-0.1,0.4-0.2,0.2-0.5c-0.4-0.8-0.1-1.5,0.6-1.9c0.8-0.5,0.4-0.8-0.1-1.1c-1-0.7-2-1.4-3-2.2c-1.1-0.9-2.5-1.6-3.7-2.3
		c-0.9-0.6-1.7-1-2.8-1.2c-1.1-0.2-2.2-0.5-3.3-0.7c-1.3-0.2-2.5-0.7-3.7-1c-1.9-0.5-3.9-0.3-5.9-0.2C47,11.2,44,12,41,13.1
		c-3.7,1.5-7.2,3.5-10.8,5.4c-1.9,1-3.6,2.2-5.4,3.3c-2.1,1.3-4,2.8-6,4.1c-2.6,1.7-5.1,3.6-7.7,5.3c-0.6,0.4-1.2,0.8-1.8,0.9
		c-0.5,0-0.9,0.2-1.3,0.4c-0.2,0.2-0.5,0.4-0.8,0.4c-0.9-0.3-1.4,0.6-2.2,0.8c-0.2,0-0.5,0.4-0.5,0.7c-0.1,0.6-0.2,1.1-0.2,1.7
		c0,0.5,0.1,1,0.4,1.3c0.2,0.2,0.6-0.2,0.9-0.2c0.5,0,1.2-0.1,1.3,0.8C7,38.5,7.1,39,7.8,38.6c0.1-0.1,0.3,0,0.5,0
		c0.5,0.1,0.7-0.1,0.6-0.6c-0.1-0.8,0.6-1.2,1.1-1.4c0.5-0.2,1.2-0.1,1.5,0.7c0.2,0.5,0.6,0.6,1.1,0.5c0.7-0.2,1.4-0.3,1.5-1.2
		c0-0.2,0.3-0.4,0.4-0.6c0.8-0.8,1.5-0.8,2.1,0.2c0.1,0.2,0.2,0.5,0.4,0.4c0.8-0.1,1.7-0.2,2.4-0.5c0.3-0.1,0.1-0.7,0.3-1.1
		c0.1-0.3,0.1-0.6,0.3-0.8c0.4-0.4,0.7-1,1.3-0.8c0.6,0.2,0.9,0.6,1,1.3c0,0.1,0.1,0.3,0.1,0.4c0,0.2,0.1,0.2,0.3,0.2
		c0.9-0.1,1.3-0.6,1.3-1.4c0-0.2,0-0.5,0.1-0.7c0.1-0.5,0.4-0.8,1-0.9c0.5-0.1,0.9,0.1,1.2,0.5c0.2,0.3,0.4,0.6,0.4,1
		c0,0.2,0.1,0.3,0.3,0.4c0.8,0.1,1.5-0.4,1.6-1.1c0-0.3,0.2-0.6,0.2-0.9c0-0.8,0.6-0.9,1.1-0.9c0.6,0,1.1,0.3,1.1,0.9
		c0,1.1,0.5,1,1.3,0.8c0.5-0.1,0.7-0.3,0.7-0.8c0-0.3,0.1-0.6,0.2-0.8c0.2-0.6,0.5-1.2,1.3-1.2c0.8,0,0.9,0.6,1,1.1
		c0.2,0.6,0.5,1,1.3,0.6c0.2-0.1,0.4-0.2,0.7-0.2c0.6-0.1,0.9-0.3,0.9-1.1c0-0.6,0.2-1.4,0.9-1.6c0.7-0.2,1.6-0.1,2,0.7
		c0.4,0.9,0.9,0.3,1.4,0.3c0.6,0,0.5-0.5,0.4-0.9c-0.1-0.8,0.4-1.3,1.1-1.5c0.6-0.1,1.2,0.2,1.4,0.8c0.2,0.5,0.4,0.7,0.9,0.5
		c0.5-0.2,0.9-0.2,0.9-0.9c0.1-0.7,0.4-1.5,1.3-1.7c0.7-0.2,1,0.3,1.3,0.8c0.2,0.5,0.4,0.8,0.9,0.5c0.5-0.3,1.4,0.1,1.3-1
		c0-0.8,0.5-1.5,1.2-1.6c0.7-0.1,1.4,0.3,1.6,1.1c0.1,0.3,0.3,0.3,0.6,0.3c0.8-0.1,0.9-0.6,0.8-1.2c-0.1-0.7,0.1-1.3,0.7-1.5
		c0.4-0.2,1,0.2,1.2,0.6c0.6,1.1,1.4,1.1,2.4,0.6C61.3,24.7,61.4,24.7,61.6,24.7z M10,54.7c-0.2,0.1-0.2,0.2-0.2,0.3
		c0.3,1,0.6,1.9,0.9,2.9c0.3,1,0.5,2.2,1.7,2.7c0.8,0.3,1.5,0.6,2.3,0.8c2.1,0.5,4.2,0.2,6.2-0.3c1-0.2,1.9-0.9,3-0.8
		c0.8,0.1,1.6,0,1.6-1.1c0-0.1,0.1-0.1,0.2-0.2c1.6-2.3,4-3.7,6.6-4.7c3.4-1.3,6.9-1.5,10.4-0.1c1.1,0.4,2.3,0.4,3.4,1.1
		c0.4,0.3,1.3-0.1,1.9-0.4c2.4-1.1,4.9-1.9,7.3-2.9c1.5-0.7,3.2-1,4.8-1.6c3.9-1.5,7.3-3.9,10.6-6.5c1.7-1.3,3.2-2.9,4.3-4.9
		c0.6-1,1-2.2,1.5-3.2c0.9-1.8,1.4-3.6,1.4-5.6c0-0.3-0.1-0.6-0.4-0.8c-0.4-0.3-0.8-0.5-1.3-0.8c-0.3-0.2-0.6-0.5-0.9-0.2
		c-0.4,0.3-0.3,0.7-0.1,1.1c0.2,0.7,0,1.3-0.5,1.7c-0.4,0.4-1,0.3-1.2,0.1c-0.6-0.6-1.5-0.9-1.5-1.9c-0.7,0.3-1.3,0.6-2,0.8
		c-0.6,0.2-0.8,0.5-0.3,1c0.5,0.5,0.4,1.1,0.1,1.5c-0.4,0.5-1,0.5-1.5,0.3c-0.3-0.1-0.5-0.3-0.7-0.5c-0.6-0.8-1.3-0.8-2.2-0.4
		c-0.5,0.3-0.7,0.4-0.4,1c0.3,0.7,0,1.4-0.6,1.8c-0.6,0.4-1.1,0.4-1.7-0.3c-0.2-0.3-0.4-1.1-1.2-0.9c-0.6,0.2-1.2,0.4-1.8,0.6
		c-0.1,0-0.4,0.1-0.3,0.2c0.7,0.4,0,0.9,0.1,1.4c0.1,0.5-0.1,1-0.6,1.1c-0.5,0.1-1.1,0.2-1.4-0.5c-0.5-1-0.8-1.1-2-0.7
		C55,36,54.8,36,54.6,36.1c-1.1,0.4-1.1,0.5-0.7,1.6c0,0.1,0.1,0.1,0.1,0.2c0.2,0.6-0.2,1.2-0.8,1.3c-0.7,0.1-1.1-0.4-1.5-0.7
		c-0.3-0.3-0.3-1.1-1-0.8c-0.5,0.2-1,0.1-1.4,0.6c-0.2,0.2-0.6,0.2-0.4,0.8c0.3,0.7,0.4,1.5-0.4,2c-0.9,0.5-1.5-0.1-2-0.7
		c-0.1-0.1-0.2-0.2-0.3-0.3c-0.1-0.2-0.2-0.3-0.5-0.2c-0.9,0.4-1.8,0.7-2.7,1.1c-0.1,0.1-0.4,0.1-0.2,0.4c0.6,0.7,0.3,1.5,0.3,2.2
		c0,0.3-0.1,0.7-0.6,0.9c-0.4,0.2-0.8-0.1-1-0.3c-0.4-0.6-1-1-1.2-1.7c0-0.3-0.2-0.2-0.4-0.2c-0.6,0.2-1.4,0.4-1.8,0.8
		c-0.2,0.2,0,0.8,0,1.3c0.1,1.2-0.5,2-1.4,2c-0.8,0-1.8-0.9-2.1-1.9c-0.7,0.4-1.6,0.5-2.3,1c0.6,0.7,0.7,2.1,0.1,2.6
		c-0.7,0.6-2.2,0.2-2.5-0.9c-0.3-1-0.7-0.5-1.2-0.3c-0.3,0.2-1,0.2-0.7,0.8c0.3,0.7,0,1.3-0.1,1.9c-0.1,0.7-0.5,0.8-1,0.5
		c-0.7-0.3-1.4-0.6-1.6-1.4c0-0.1,0-0.4-0.2-0.2c-0.6,0.3-1.3,0.5-1.8,0.9c-0.3,0.2,0.1,0.8,0.1,1.2c0,0.5,0.1,1.2-0.4,1.4
		c-0.7,0.3-1.4,0.4-2-0.3c-0.2-0.3-0.5-0.5-0.6-0.9c-0.2-0.4-0.5-0.3-0.7-0.2c-0.5,0.3-1.1,0.2-1.4,0.7c0,0,0.1,0.1,0.1,0.1
		c0.2,0.7,0,1.4-0.1,2.1c0,0.3-0.2,0.6-0.7,0.7c-0.9,0.2-1.4-0.4-1.9-1c-0.5-0.7-1-1-1.8-0.5c-0.4,0.3-1,0.8-1.4,0.8
		c-0.8,0.1-0.4,0.5-0.4,0.7c0.1,0.6,0.1,1.2-0.2,1.8c-0.4,0.7-1,0.8-1.5,0.2C10.5,55.7,10.1,55.3,10,54.7z M36.3,56.3
		c-0.1-0.1-0.2-0.1-0.4-0.1C33.5,57,31,57.7,29,59.4c-1.7,1.3-2,1.7,0,3.1c2,1.4,4.1,2.6,6.3,3.4c2,0.8,3.9,1.7,6.1,2.2
		c1.8,0.4,3.6,0.9,5.4,1c2,0.1,3.8-0.7,5.4-1.7c0.6-0.4,1.2-1.1,1.1-1.9c-0.1-2-1.1-3.5-2.6-4.8c-0.8-0.7-1.9-1-2.8-1.6
		c-1.6-1-3.4-2-5.2-2.5c-1.7-0.5-3.5-1.1-5.4-0.3C37,56.3,36.6,56.3,36.3,56.3z M13,42.4c0,0.1,0.1,0.3,0.1,0.5
		c0.5,1.4,1.1,2.8,1.9,4.1c0.7,1.1,0.7,1.1,1.8,0.6c0.4-0.2,0.3-0.3,0.3-0.7c-0.2-1.1-1.2-1.8-1.4-2.9c-0.2-0.8-0.5-1.4-0.8-2.1
		c-0.2-0.4-0.4-0.8-1.1-0.6C13,41.5,13.2,41.9,13,42.4z M10.4,42.2c-1.1,0-1.4,0.3-1.3,1.5c0.1,1.2,0,2.5,0.6,3.6
		c0,0.1,0.1,0.2,0,0.3c-0.1,0.9,0.5,1.7,0.9,2.4c0.4,0.7,0.9,0,1.3-0.1c0.3-0.1,0.8-0.3,0.5-0.7c-0.8-1.1-1-2.4-1.5-3.6
		C10.5,44.5,10.2,43.4,10.4,42.2z M15.4,41.2c0,0.1,0.1,0.2,0.1,0.3c0.5,1.8,1.4,3.4,2.3,5c0.4,0.7,0.9,0.2,1.4,0.2
		c0.6-0.1,0.4-0.4,0.3-0.8c-0.2-0.7-0.4-1.3-0.7-2c-0.4-1.1-1.4-1.9-1.5-3.2c0-0.3-0.4-0.4-0.7-0.2C16.2,40.8,15.6,40.6,15.4,41.2z
		 M6.2,43.5c0.4,0.4,0.4,0.9,0.6,1.4c0.5,1.9,1.3,3.8,1.9,5.7c0.2,0.8,0.7,0.2,1.1,0.2c0.4,0,0.5-0.4,0.3-0.8
		c-0.3-0.5-0.7-1.1-0.8-1.6c-0.2-1.3-1-2.4-0.9-3.8c0-0.4,0-0.9-0.2-1.4c-0.1-0.2,0.3-0.7-0.4-0.6C7.2,42.8,6.6,42.9,6.2,43.5z
		 M21.8,38.9c-0.4,0.1-0.9,0.2-1.3,0.4c-0.8,0.3-0.9,0.6-0.4,1.3c1.1,1.2,1.3,2.7,1.9,4.1c0.1,0.2,0,0.8,0.5,0.6
		c0.5-0.2,1.2-0.2,1.1-0.9c-0.1-0.7-0.2-1.4-0.5-2.2C22.8,41,22,40.1,21.8,38.9z M28.3,42.9c0.7-0.1,1.3-0.4,1.6-0.7
		c0.3-0.3-0.2-0.7-0.4-1c-0.2-0.4-0.4-0.9-0.5-1.3c-0.3-0.9-0.6-1.8-1.3-2.5c-0.5-0.5-0.7,0.3-1.1,0.1c-0.2-0.1-0.4,0.2-0.3,0.6
		c0.3,1.4,0.7,2.7,1.4,4C27.8,42.3,28.1,42.6,28.3,42.9z M31,36.3c0,0.1,0,0.1,0,0.2c0.4,1.5,1.1,2.9,2,4.2c0.4,0.5,0.8,0,1.3-0.1
		c0.3-0.1,0.4-0.2,0.3-0.5c-0.7-1.2-0.9-2.6-1.4-3.8c-0.1-0.3-0.2-0.7-0.6-0.6c-0.5,0.2-1,0.1-1.4,0.4C31,36.1,31,36.2,31,36.3z
		 M11.3,42.8c-0.1,1.6,0.6,2.9,1.1,4.3c0.2,0.5,0.5,1,0.8,1.4c0.5,0.6,0.9,0.3,1.4,0.1c0.6-0.2,0.1-0.6,0-0.8
		c-0.8-1.8-2.1-3.3-2.4-5.3c0-0.3-0.4-0.7-0.8-0.6c-0.6,0.2,0,0.4,0,0.6C11.3,42.7,11.3,42.7,11.3,42.8z M28.5,36.9
		c0.3,0.3,0.5,0.6,0.6,1c0.3,1.1,0.7,2.2,1.3,3.2c0.3,0.5,0.6,0.9,1.3,0.5c0.6-0.4,0.4-0.8,0.2-1.3c-0.4-1-0.8-1.9-1.3-2.8
		c-0.8-1.5-0.3-1.2-1.9-0.7C28.6,36.8,28.6,36.9,28.5,36.9z M36.1,35.3c0,0.1,0.1,0.3,0.2,0.5c0.4,0.9,0.8,1.8,1.2,2.7
		c0.1,0.3,0.2,0.7,0.5,0.7c0.5-0.1,0.9-0.3,1.4-0.6c0.1-0.1,0-0.3-0.1-0.4c-0.6-1-0.8-2.2-1.2-3.3c-0.1-0.4-0.3-0.6-0.6-0.4
		C36.9,34.7,36.1,34.3,36.1,35.3z M20.8,46c0.3-0.2,0.9-0.2,0.7-0.9c-0.2-0.8-0.7-1.3-0.8-2.1c-0.2-1.2-1-1.9-1.7-2.8
		c-0.3-0.4-0.5-0.4-0.9-0.2c-0.5,0.3-0.1,0.6,0,0.8c0.7,1.5,1.5,3,2,4.6C20.2,45.7,20.3,46,20.8,46z M33.7,35.5
		c0.4,1.4,0.8,2.7,1.4,4c0.4,0.7,0.9,0.4,1.4,0.2c0.6-0.2,0.2-0.6,0.1-0.9c-0.1-0.1-0.1-0.3-0.1-0.4c-0.4-1.1-0.9-2.1-1.4-3.1
		c-0.3-0.6-0.7-0.1-1-0.2C34,35.2,33.8,35.3,33.7,35.5z M43.8,32.9c0,0.1,0,0.1,0.1,0.2c0.5,1,0.8,2.1,1.4,3
		c0.3,0.5,0.8-0.2,1.3-0.2c0.4,0,0.6-0.3,0.4-0.8c-0.3-0.8-0.6-1.6-0.9-2.3c-0.2-0.4-0.4-0.7-0.9-0.4c-0.3,0.2-0.6,0.3-1,0.3
		C44,32.6,43.8,32.6,43.8,32.9z M42.2,37.4c-0.7-1.1-1.3-2.1-1.6-3.3c-0.1-0.3-0.3-0.4-0.6-0.3c-1,0.1-1.2,0.4-1,1.4
		c0.2,0.7,0.4,1.4,0.7,2.1c0.2,0.5,0.7,0.8,1.2,0.7C41.3,37.9,41.7,37.6,42.2,37.4z M42.6,33.1c-0.6,0-1.4,0.1-1.3,0.7
		c0.2,1.1,0.6,2.2,1.6,3c0.4,0.4,0.8,0,1.1-0.1c0.4-0.1,0.3-0.5,0.2-0.8c-0.3-0.8-0.7-1.7-1.2-2.4C43,33.2,42.8,33,42.6,33.1z
		 M47.8,31.5c-1,0-1.3,0.5-1,1.5c0.3,0.7,0.8,1.3,1.2,2c0.3,0.5,0.8,0,1.2-0.1c0.2-0.1,0.4-0.2,0.2-0.5c-0.4-0.8-0.8-1.7-1.2-2.6
		C48.1,31.6,48,31.4,47.8,31.5z M22.8,39.1c0,0,0,0.1,0.1,0.2c0.8,1.4,1.2,2.9,1.6,4.3c0.1,0.2,0.1,0.6,0.4,0.5
		c0.4-0.1,0.8-0.2,1.2-0.4c0.1,0,0.1-0.1,0-0.2c-0.9-1.6-1.8-3.2-2.6-4.9c-0.1-0.2-0.2-0.3-0.4-0.2C22.8,38.5,22.7,38.7,22.8,39.1z
		 M53.1,30.3c0.2,0.3,0.4,0.5,0.6,0.8c0.6,1.6,0.7,1.7,2.2,1.1c0.3-0.1,0.4-0.2,0.2-0.6C55.2,29.7,55.2,29.7,53.1,30.3z M24.2,38.6
		c0.1,0.3,0.1,0.5,0.2,0.6c0.8,1.3,1.5,2.5,2.1,3.8c0.1,0.2,0.2,0.2,0.3,0.2c0.3-0.1,0.2-0.3,0.1-0.5c-0.5-1.4-1.1-2.8-1.5-4.3
		c-0.1-0.3-0.1-0.6-0.7-0.6C24.2,38,24.6,38.6,24.2,38.6z M50.5,34.4c0.1-0.5,0.9-0.1,0.7-0.6c-0.3-0.8-0.3-1.6-0.5-2.4
		C50.6,31,50.4,30.8,50,31c-0.3,0.2-1.2-0.3-0.9,0.7C49.3,32.8,50.1,33.4,50.5,34.4z M61.8,29.9c0.4-0.3,1.3-0.3,1.4-0.8
		c0.1-0.4-0.5-1-0.8-1.4c-0.5,0.5-1.4-0.1-1.7,0.7C60.6,28.7,61.5,29.9,61.8,29.9z M56.2,29.8c0.1,0.4,0.4,0.8,0.6,1.3
		c0.3,0.7,0.7,0.5,1.3,0.3c0.7-0.3,0.2-0.7,0.1-1c-0.1-0.4-0.4-0.8-0.7-1.1c-0.4-0.4-0.7,0.1-1.1,0.1C56.2,29.4,56,29.4,56.2,29.8z
		 M51.5,31c-0.1,0.9,0.4,1.6,0.6,2.3c0.1,0.4,0.5,0.2,0.7,0.1c0.2-0.1,0.7-0.1,0.5-0.5c-0.3-0.7-0.6-1.4-0.9-2
		c-0.1-0.3-0.4-0.2-0.7-0.2C51.5,30.7,51.4,30.8,51.5,31z M58.3,28.9c0,0.7,0.8,1.8,1.2,1.7c0.4-0.1,1,0,1-0.7
		c0-0.4-0.9-1.6-1.2-1.5C59,28.6,58.5,28.5,58.3,28.9z M67.4,26.3c-0.5,0.4-1.2,0.1-1.5,0.6c-0.1,0.1,0.8,1.3,0.9,1.3
		c0.5-0.2,1.1-0.2,1.2-0.8C68.1,27.1,67.6,26.7,67.4,26.3z M65,27c-0.5,0.4-1.4,0.1-1.4,0.5c0,0.5,0.5,1,0.9,1.4
		c0.1,0.1,0.9,0,1-0.5C65.7,27.9,64.9,27.7,65,27z M35.6,44c0.6,0.5,0.8,1.5,1.7,1c0.6-0.3,0.4-1.2,0.1-1.5
		C36.8,43.1,36.3,43.8,35.6,44z M69.6,25.9c-0.4,0-1-0.1-1.1,0.5c0,0.3,0.2,1,0.7,0.9c0.4,0,1-0.2,1.2-0.7
		C70.4,26.4,70.2,25.8,69.6,25.9z M72.2,25.2c0.3,0.3,0.4,0.9,1,0.7c0.6-0.2,1.2-0.5,1.8-0.7c0.1-0.1,0.3-0.2,0.3-0.4
		c-0.1-0.2-0.3-0.2-0.4-0.1C74,25.1,73,24.7,72.2,25.2z M30.9,46.1c0.1,0.1,0.2,0.2,0.2,0.2c0.6,0,0.4,1,0.9,0.8
		c0.5-0.2,0-0.8,0.1-1.2c0-0.2,0.4-0.5,0-0.5C31.7,45.5,31.2,45.7,30.9,46.1z M17.8,52.2c-0.2-0.2,0.2-0.8-0.4-0.9
		c-0.3,0-0.8,0.2-0.8,0.6c0,0.4,0.3,0.8,0.7,0.9C17.7,53,17.7,52.5,17.8,52.2z M42.5,42.7c0-0.6-0.2-1.1-0.8-1.2
		c-0.2,0-0.5,0.1-0.5,0.3c0.3,0.5,0.7,0.9,1.1,1.3C42.4,43.2,42.5,42.8,42.5,42.7z M72.9,21.2c0,0.2,0,0.5,0.4,0.6
		c0.6,0.1,0.5-0.4,0.6-0.7c0.1-0.3-0.1-0.5-0.5-0.6C73,20.4,73,20.7,72.9,21.2z M72.8,29.4c0.2,0.4,0.4,0.8,0.7,0.9
		c0.4,0.1,0.5-0.4,0.5-0.7c0-0.2,0.1-0.8-0.4-0.7C73.4,28.9,73,29,72.8,29.4z M21,35.7c0.3,0,0.7,0,0.6-0.3c-0.1-0.3,0-0.9-0.4-0.9
		c-0.3,0-0.6,0.3-0.6,0.7C20.6,35.4,20.7,35.7,21,35.7z M21.8,50c0.2,0.3,0,0.8,0.5,1c0.2,0.1,0.5,0,0.5-0.2
		c-0.1-0.4,0.1-0.9-0.3-1.1C22.2,49.5,21.9,49.7,21.8,50z M71.3,26.6c0.2-0.2,0.8-0.1,0.7-0.5c-0.1-0.4-0.6-0.5-0.9-0.7
		c0,0-0.4,0.1-0.3,0.4C70.9,26.1,70.9,26.4,71.3,26.6z M40.2,29.6c-0.3,0.1-0.6,0.2-0.7,0.7c0,0.2,0.1,0.4,0.4,0.3
		c0.3-0.1,0.8,0,0.8-0.5C40.8,29.8,40.7,29.5,40.2,29.6z M68.8,22.8c-0.1-0.5-0.2-1.1-0.8-1c-0.4,0.1-0.4,0.8-0.3,1
		C68,23.4,68.4,22.8,68.8,22.8z M77.6,28.5c0.3-0.3,0.1-0.5,0.1-0.7c0-0.3-0.1-0.5-0.5-0.5c-0.3,0-0.6,0.1-0.7,0.3
		c-0.2,0.4,0.3,0.3,0.4,0.5C77.1,28.3,77.4,28.4,77.6,28.5z M27.5,48.9c0-0.5,0.3-1-0.2-1.4c-0.1-0.1-0.6,0.3-0.5,0.3
		C27,48.2,26.8,48.8,27.5,48.9z M63.6,24c-0.5,0-0.1-1.1-0.9-0.7c-0.5,0.2-0.2,0.7-0.1,0.8C62.9,24.5,63.2,24.3,63.6,24z M30,33.3
		c0.4,0,0.6-0.2,0.5-0.5c0-0.3,0-0.7-0.4-0.6c-0.2,0-0.6,0.1-0.5,0.5C29.8,32.8,29.7,33.2,30,33.3z M58,36.3c0.2-0.5,0.4-0.9,0-1.2
		c-0.1-0.1-0.5,0-0.6,0.1C57.2,35.7,57.7,35.9,58,36.3z M25.8,33.1c-0.2,0.1-0.4,0.1-0.4,0.1c-0.1,0.2-0.5,0.4-0.1,0.7
		c0.2,0.1,0.1,0.5,0.5,0.4c0.4-0.2,0-0.4,0.1-0.7C25.8,33.5,25.8,33.3,25.8,33.1z M53.7,26.2c-0.2,0.3,0.1,0.3,0.3,0.3
		c0.3,0,0.5-0.1,0.6-0.4c0-0.3-0.2-0.5-0.5-0.5C53.6,25.7,53.7,26,53.7,26.2z M47.1,39.3c0.2,0.3,0.3,0.7,0.7,0.8
		c0.3,0,0.2-0.2,0.2-0.4C47.9,39.4,48,39,47.6,39C47.3,39,47.2,39.1,47.1,39.3z M63.1,33.1c-0.2,0-0.4,0.1-0.4,0.3
		c0.1,0.3,0.3,0.6,0.5,0.7c0.2,0.1,0.3-0.2,0.3-0.4C63.6,33.4,63.3,33.2,63.1,33.1z M34.6,31c-0.3,0.1-0.3,0.4-0.3,0.6
		c0,0.2,0.1,0.4,0.3,0.4c0.3,0,0.4-0.2,0.4-0.5C35,31.4,34.9,31.1,34.6,31z"/>
	<path d="M46,15.8c0.7,0,1.1,0.3,1.4,0.9c0.2,0.6-0.1,1-0.6,1.2c-0.1,0-0.1,0.1-0.1,0.1c-0.3,1.4-1.2,0.9-1.8,0.5
		c-0.7-0.3-0.9-1.1-0.7-1.8c0.2-0.9,1-0.9,1.7-0.9C45.8,15.9,45.9,15.8,46,15.8z M45.8,16.8c-0.4,0-0.8-0.1-0.8,0.4
		c0,0.3,0,0.9,0.5,0.9c0.2,0,0.7-0.2,0.7-0.5C46.1,17.3,46.4,16.7,45.8,16.8z"/>
	<path d="M51,17c0.8,0.1,1.4,0.9,1.3,1.6c-0.1,0.5-1.4,1.5-1.8,1.4c-0.7-0.1-1.6-1.3-1.5-2.1C49,17.5,50.3,16.9,51,17z M50.7,17.9
		C50.4,18,50.1,18,50,18.4c0,0.3,0.2,0.5,0.5,0.5c0.2,0,0.4-0.2,0.4-0.5C50.9,18.2,51.1,17.9,50.7,17.9z"/>
	<path d="M45.7,21.2c0.1-0.7,0.9-1.3,1.9-1.3c0.7,0,1.1,0.5,1,1.3c-0.1,1-0.8,1.7-1.7,1.7C46.2,22.9,45.6,22.1,45.7,21.2z
		 M46.6,21.5c-0.1,0.2,0,0.5,0.2,0.5c0.5,0,0.5-0.7,0.8-0.9c0,0-0.2-0.3-0.3-0.2C47.1,21,46.7,21,46.6,21.5z"/>
	<path d="M62,41.4c0.5,0,1.4,1.1,1.4,1.6c0,0.4-1.1,1.1-1.7,1c-0.9,0-1.8-0.8-1.7-1.5C60,41.8,60.9,41.3,62,41.4z"/>
	<path d="M56.5,47.3c0.1-0.8,0.9-1.5,1.8-1.4c0.5,0.1,1,0.3,1,1c0,0.8-1.2,1.9-1.9,1.9C56.8,48.8,56.4,48.2,56.5,47.3z"/>
	<path d="M57.2,43.8c-0.1,0.6-1.3,1.4-2.1,1.4c-0.5-0.1-1.2-1-1.1-1.6c0.1-0.5,1.4-1.3,2-1.3C56.9,42.3,57.3,42.8,57.2,43.8z
		 M55.9,43.2c-0.3,0.2-0.8,0.1-0.8,0.6c0,0.3,0.1,0.4,0.4,0.4c0.4,0,0.6-0.3,0.7-0.7C56.3,43.3,56.2,43.2,55.9,43.2z"/>
</g>
</svg>
