<?xml version="1.0" encoding="utf-8"?>
<!-- Generator: Adobe Illustrator 19.1.0, SVG Export Plug-In . SVG Version: 6.00 Build 0)  -->
<svg version="1.1" id="Layer_1" xmlns="http://www.w3.org/2000/svg" xmlns:xlink="http://www.w3.org/1999/xlink" x="0px" y="0px"
	 width="80px" height="80px" viewBox="0 0 80 80" enable-background="new 0 0 80 80" xml:space="preserve">
<g>
	<path d="M22.7,30.3c-1.8,0.5-3.5,0.9-5.2,1c-0.9,0.1-1.7,0.2-2.5,0c-1.2-0.3-2.5-0.3-3.8-0.8c-1.5-0.6-2-1.8-2.6-2.9
		c-0.4-0.6,0.1-1.3,0.2-2c0.5-2.5,2.1-4.1,4.1-5.5c1.1-0.7,2.1-1.7,3.4-2.2c0.2-0.1,0.2-0.2,0.2-0.4c0.1-0.3,0.2-0.7,0.7-0.4
		c0.2,0.1,0.3-0.1,0.5-0.1c2.1-0.8,4.1-1.6,6.3-1.9c0.2,0,0.4-0.1,0.4-0.4c0-0.2,0.2-0.3,0.3-0.2c1.7,0.4,3.3-0.4,4.9-0.4
		c2.2,0,4.2-0.8,6-2.1c0.9-0.6,1.6-1.5,2.2-2.4c1.2-1.9,2.6-3.6,4.1-5.3c0.5-0.5,1.1-0.6,1.7-0.7c1.4-0.3,2.8-0.1,4.2-0.1
		c0.8,0,1.4,0.6,2.1,1c2,1.2,3.7,2.7,5.8,3.9c0.9,0.5,1.7,1.4,2.5,2.1c1.4,1.1,2.7,2.2,4.1,3.2c1.5,1.1,3,2.3,4.6,3.3
		c1,0.6,1.8,1.4,2.5,2.3c0.8,1,0.4,1.9,0.2,3c-0.6,2.4-2,4.4-2.6,6.8c-0.4,1.6-0.8,3.2-1.3,4.8c-0.4,1.1-0.3,2.3-0.6,3.4
		c-0.5,1.4-0.9,2.7-1.3,4.1c-0.7,2.2-1.6,4.4-2.4,6.6c-1,2.8-1.6,5.6-2.8,8.3c-0.8,1.8-1.7,3.6-2.7,5.3c-0.8,1.3-1.6,2.6-2.4,3.9
		c-0.8,1.4-2.1,2.3-3,3.6c-1.4,1.9-3.4,3.1-5.3,4.4c-1.2,0.8-2.6,1.2-3.9,1.8c-0.7,0.4-1.5,0.3-2.2,0.5c-1.5,0.6-3.2,0.7-4.8,1
		c-1.8,0.4-3.5,0-5.2,0.3c-1.8,0.3-3.5-0.3-5.2-0.5c-2.3-0.3-4.4-1.4-6.6-2.1c-0.5-0.1-0.9-0.6-1.3-1c-1.4-1.4-2.8-2.8-3.6-4.7
		c-0.7-1.6-1.2-3.3-1.4-5c-0.3-2.3-0.4-4.6-0.4-6.9c0.1-1.5,0.3-3,0.6-4.4c0.8-3.9,2.5-7.5,4.3-11c1-1.9,2.4-3.6,3.5-5.4
		c0.5-0.8,1.1-1.6,1.5-2.6C21,32.5,21.8,31.5,22.7,30.3z M37.3,12.5c-0.4-0.2-0.7,0.1-0.7,0.4c0,0.8-0.3,1.5-0.4,2.2
		c0,1.9-0.8,3.5-1.8,4.9c-1.3,1.7-2.2,3.7-3.9,5.2c-1,0.9-3.5,3-4.8,3.8c-1.7,1-3.2,2.4-4,4.2c-1.1,2.4-2.6,4.5-4,6.7
		c-1.4,2.2-2.8,4.4-3.6,6.9c-0.1,0.4-0.1,0.8,0.3,1c0.4,0.2,0.7,0.6,1.2,0.7c0.3,0.1,0.3,0.3,0.2,0.6c-0.2,0.4-0.4,0.1-0.5,0
		c-0.4-0.3-0.8-0.6-1.2-0.8c-0.2-0.1-0.4-0.6-0.6-0.2c-0.1,0.2-0.5,0.5,0,0.9c1,0.8,2,1.5,3.1,2.1c2.3,1.4,4.6,2.7,6.7,4.3
		c3,2.3,6.5,4,9.6,6.2c1.9,1.3,4,2.5,5.9,3.8c2.7,1.8,5.3,3.6,8.1,5.2c0.5,0.3,0.8,0.4,1.3-0.1c1.2-1,2-2.3,3-3.4
		c2.3-2.5,3.8-5.5,5.4-8.5c1.5-2.6,2.1-5.5,3-8.3c0.6-1.8,1.2-3.5,1.9-5.2c0.6-1.7,1.2-3.5,1.8-5.2c0.6-2.1,1.4-4.2,1.6-6.4
		c0.1-1,0.9-1.9,1-2.9c0-0.3,0.3-0.7-0.3-0.6c-0.2,0-0.3-0.5-0.3-0.9c0-0.3,0.3-0.2,0.5-0.2c0.4,0.1,0.5,0,0.6-0.4
		c0-0.4,0-0.5-0.5-0.7c-1.3-0.5-2.7-0.9-3.7-1.7c-1.2-0.9-2.5-1.5-3.7-2.3c-1.2-0.7-2.5-1.3-3.6-2c-2.1-1.3-4.1-2.8-6.2-4.2
		c-1.3-0.9-2.4-1.9-3.8-2.6c-1.5-0.7-2.9-1.8-4.3-2.7c-0.7-0.5-1.4-0.9-2.1-1.5c-0.2-0.2-0.4-0.3-0.6-0.1c-0.2,0.2-0.6,0.4-0.5,0.8
		c0.1,0.3,0.4,0.2,0.6,0.3c0.8,0.3,1.6,0.7,2.2,1.3c0.1,0.1,0.6,0.3,0.3,0.6c-0.2,0.2-0.4-0.1-0.6-0.2C39.1,13,38.3,12.5,37.3,12.5z
		 M39,75c0.4,0,0.6,0,0.7-0.2c0.1-0.2-0.1-0.3-0.2-0.4c-0.5-0.5-0.9-1.1-1.4-1.6c-0.9-0.8-1.8-1.5-2.7-2.2c-1-0.8-1.9-1.6-3-2.3
		c-1.1-0.7-2.2-1.3-3.3-2c-2.4-1.7-4.6-3.6-7.1-5.2c-3.2-2-6.4-3.7-9.8-5.2c-0.3-0.1-0.6-0.4-0.7,0.1c-0.1,0.3-0.3,0.8,0.3,1.1
		c0.7,0.3,1.4,0.7,2.1,1c3.2,1.4,6.1,3.3,9.1,5.1c2.3,1.3,4.4,3,6.4,4.7c2.3,2,4.6,3.8,6.9,5.7C37.2,74.1,38.2,74.6,39,75z
		 M11.9,53.7c-0.2,0.7-0.2,1.2,0.7,1.2c0.1,0,0.3,0,0.3,0.1c0.8,0.9,1.9,1.3,3,1.7c2.9,1.3,5.6,3,8.2,4.7c2.2,1.4,4.1,3.4,6.4,4.6
		c2.8,1.5,5.1,3.6,7.5,5.5c1,0.8,2,1.4,2.8,2.5c0.3,0.4,1.7,0.4,1.9-0.1c0-0.1,0-0.2,0-0.2c-0.8,0-0.9-0.8-1.3-1.2
		c-1.3-1.1-2.9-1.8-4.3-2.9c-0.5-0.4-1-0.8-1.5-1.2c-1.7-1.3-3.5-2.3-5.2-3.5c-1.7-1.2-3.5-2.5-5.2-3.7c-0.4-0.3-0.8-0.4-1.2-0.7
		C22.4,59.3,20.8,58,19,57C16.8,55.7,14.4,54.5,11.9,53.7z M44.9,72.7c-1.2-0.7-2.2-1.6-3.3-2.3c-2.3-1.6-4.5-3.4-6.9-4.9
		c-1.7-1.2-3.5-2.4-5.2-3.6c-1.3-0.9-2.5-1.8-3.8-2.5c-1.3-0.7-2.5-1.7-3.8-2.4c-2-1.1-4.1-2.1-6-3.5c-0.9-0.7-2-1.1-3-1.6
		c-0.3-0.2-0.5-0.1-0.6,0.2c-0.1,0.2-0.3,0.4,0,0.6c0.4,0.2,0.9,0.5,1.3,0.7c1,0.5,2,0.8,2.9,1.3c2.1,1.3,4.3,2.5,6.4,4
		c2.1,1.5,4.4,2.8,6.5,4.4c1.9,1.4,4,2.6,6,3.9c1.3,0.8,2.4,2,3.7,2.8c0.4,0.2,0.9,0.1,1.2,0.5c0.6,0.9,1.7,1.3,2.6,2
		C43.3,72.7,44,73.6,44.9,72.7z M11.5,58.7c-0.2,0.8,0.5,0.1,0.6,0.3c0.4,0.9,1.3,0.7,1.9,1.2c2.1,1.5,4.5,2.3,6.6,3.7
		c1.3,0.9,2.7,1.7,4,2.5c0.8,0.5,1.6,1.1,2.5,1.6c1.6,0.9,3,2,4.4,3.2c1.6,1.4,3.2,2.7,4.8,4.2c0.3,0.2,0.5,0.4,0.7,0.1
		c0.2-0.3-0.1-0.6-0.3-0.7c-1.7-1-2.9-2.7-4.5-3.8c-0.7-0.5-1.5-1-2.1-1.6c-1.5-1.5-3.1-2.9-4.8-4c-0.6-0.4-1-1.1-1.6-1.2
		c-1.7-0.3-2.9-1.7-4.4-2.4c-1.4-0.6-2.7-1.6-4.1-2.4c-0.9-0.5-2-0.8-3-1.1C11.8,58.1,11.4,58.1,11.5,58.7z M35.3,75.9
		c-1.5-1-2.4-2.3-3.7-3.3c-0.8-0.6-1.5-1.4-2.4-2.1c-2.4-1.9-5-3.3-7.5-4.9c-2.5-1.6-5-3.1-7.6-4.4c-0.6-0.3-1.2-0.8-2-0.8
		c-0.3,0-0.6,0.1-0.6,0.5c0,0.2-0.2,0.5,0.3,0.6c0.5,0.1,1,0.3,1.5,0.6c1.7,0.7,3.3,1.4,4.9,2.4c1.2,0.7,2.5,1.4,3.7,2.1
		c1.4,0.8,2.8,1.6,4,2.7c1.2,1.2,2.7,2,3.9,3.3c1.1,1.1,2.7,1.7,3.1,3.5c0.1,0.2,0.2,0.3,0.4,0.2C33.9,76.1,34.5,76.1,35.3,75.9z
		 M12.7,50.2c0.7,0.6,1.3,1.1,2,1.5c1.5,0.8,2.9,1.8,4.3,2.7c3.2,1.8,6.4,3.6,9.3,5.8c2.1,1.6,4.4,2.8,6.5,4.4
		c1.6,1.2,3.4,2.2,5,3.5c1.3,1,2.7,1.9,4.1,2.8c0.7,0.4,1.6,0.5,2,1.5c0.2-0.3,0.6-0.3,0.7-0.7c-1.4-1.3-3.2-1.9-4.7-3.1
		c-2-1.6-4.2-2.9-6.3-4.3c-2.1-1.3-4.1-2.7-6.1-4c-1.7-1-3.5-2-5.1-3.1c-1.2-0.8-2.2-1.7-3.4-2.5c-1.7-1.1-3.5-2.1-5.3-3.2
		C14.8,50.9,14.1,49.9,12.7,50.2z M32.3,76.3c-0.8-0.1-0.6-0.9-1.1-1.3c-0.6-0.4-1.2-0.9-1.8-1.5c-1.6-1.6-3.3-2.8-5-4.2
		c-2-1.7-4.4-2.7-6.6-4.1c-1.7-1.1-3.6-1.8-5.5-2.4c-0.2-0.1-0.4-0.5-0.6-0.1c-0.2,0.3,0,0.5,0.1,0.8c0,0.2,0.2,0.3,0.4,0.4
		c2.1,1.1,4.3,1.8,6.4,2.9c1.2,0.6,2.6,1.1,3.7,1.9c1.9,1.4,3.9,2.6,5.7,4.2c1,0.9,2.1,1.9,3,2.9C31.4,76.2,31.7,76.6,32.3,76.3z
		 M29.2,76.4c0.3,0,0.6,0,0.6-0.3c0-0.2,0-0.5-0.3-0.7c-1.2-0.9-2.2-2.1-3.5-2.9c-0.7-0.4-1.5-0.9-2.1-1.5c-0.9-0.9-2-1.5-3-2.1
		c-1.9-1.1-3.9-2-5.9-2.9c-0.7-0.3-1.5-0.5-2.3-0.7c-0.2-0.1-0.6-0.2-0.6,0.2c0,0.3,0,0.6,0.4,0.7c1.4,0.3,2.8,0.9,4.1,1.5
		c1.6,0.7,3.3,1.4,4.9,2.3c2,1.2,3.8,2.6,5.4,4.3c0.5,0.5,0.7,1.3,1.6,1.5C28.7,75.9,28.8,76.5,29.2,76.4z M57,11
		c0.3-0.6-0.1-0.8-0.4-0.9c-0.4-0.2-0.4,0.3-0.5,0.5c-0.1,0.1-0.2,0.1-0.3,0.2c-1,0.5-1.5,1.4-2,2.3c-0.5,0.9-0.8,1.8-1.4,2.7
		c-0.4,0.6-0.7,1.3-1.1,1.9c-0.1,0.1-0.2,0.3,0,0.5c0.1,0.1,0.3,0.1,0.3,0.1c0.3-0.5,1.1-0.5,1.4-1c0.9-1.8,2.5-3.1,3.6-4.7
		C56.8,12.1,56.9,11.6,57,11z M23.1,29.1c1.3-1.5,1.6-2.2,1.5-3.1c-0.2-0.8-0.1-1.6-0.2-2.4c-0.2-2.6-1.2-4.9-3.2-6.6
		c-0.2-0.1-0.3-0.5-0.6-0.2c-0.2,0.2-0.2,0.5,0,0.7c0.4,0.4,0.6,0.9,0.9,1.3c1.6,2.5,2.5,5.1,1.8,8.1C23.2,27.6,23.2,28.4,23.1,29.1
		z M68,19.5c0.1-0.7-0.2-1-0.7-0.9c-0.3,0.1-0.6,0.3-0.9,0.6c-0.5,0.6-0.4,1.5-0.9,2c-1.1,1.1-1.5,2.5-2.3,3.7
		c-0.1,0.1-0.3,0.3-0.1,0.5c0.4,0.3,0.8,0.5,1.2,0.7c0.2,0.1,0.4,0.1,0.4-0.1c0.2-1,0.8-1.9,1.2-2.8c0.5-1.2,0.9-2.4,1.9-3.3
		C68,19.7,68,19.5,68,19.5z M27.1,76.4c-0.5-1-1.1-1.9-1.9-2.6c-1.8-1.4-3.6-2.9-5.8-3.9c-2-0.9-4-1.9-6.1-2.5
		c-0.3-0.1-0.7-0.2-0.5,0.3c0.1,0.4,0.2,0.9,0.9,1c2.9,0.6,5.8,1.4,8.3,3.1c1.6,1.1,2.1,2.9,3.7,3.8C25.7,76.9,26.7,76.1,27.1,76.4z
		 M13.7,70c0.7,0.3,0.6,1.3,1.5,0.7c1.4,0.6,3.1,0.7,4.3,1.7c0.9,0.6,1.8,1.2,2.3,2.2c0.5,0.9,1.4,1.2,2.4,1.3
		C22.4,72.1,16.8,69.5,13.7,70z M16.8,18.5c0.3,0.9,1.1,1.3,1.6,2c0.6,0.9,0.8,1.9,1,2.8c0.3,1.2,0.7,2.3,0.5,3.6
		c-0.2,1-0.4,1.9-0.8,2.8c-0.1,0.2-0.2,0.4,0,0.4c0.2,0.1,0.4,0.1,0.6-0.1c0.7-1,1-2.2,1.1-3.5c0.2-2.6-0.6-5-1.9-7.2
		C18.2,18.3,17.7,18.1,16.8,18.5z M17.3,25.5c-0.2-0.9-0.2-1.8-0.6-2.7c-0.4-1.1-1.3-1.8-2.2-2.4c-0.1-0.1-0.1-0.5-0.5-0.2
		c-0.3,0.2-0.5,0.4-0.3,0.7c0.1,0.2,0.2,0.4,0.3,0.5c1.3,0.9,1.8,2.3,2.2,3.8c0.4,1.5,0.5,3.1-0.2,4.6c-0.1,0.2-0.3,0.4,0,0.5
		c0.2,0.1,0.5,0,0.5-0.2c0.2-0.7,0.7-1.2,0.9-1.9C17.5,27.3,17,26.4,17.3,25.5z M21.2,29.8c0.6-0.3,0.8-0.7,0.9-1.2
		c0.3-1.8,0.8-3.5,0.4-5.4c-0.5-2.1-1.6-3.9-3-5.6c-0.2-0.2-0.4-0.4-0.6-0.2c-0.3,0.2,0,0.4,0.1,0.6c0.4,0.6,0.8,1.2,1.2,1.9
		c1.2,2.5,1.8,5,1.4,7.8C21.4,28.4,21,29,21.2,29.8z M43.5,13.1c0.6-1.4,1.7-2.7,2.6-3.9c1-1.3,1.5-2.8,2.5-4
		c0.1-0.1,0.3-0.3-0.1-0.5c-0.2-0.1-0.5-0.2-0.6,0.1c-0.3,0.6-0.8,1.1-1.3,1.6c-1.4,1.4-2.2,3.4-3.5,4.9
		C42.5,12.1,42.6,12.4,43.5,13.1z M57.3,22.1c0.2,0,0.2-0.1,0.5-0.4c1.2-1.1,1-2.9,2.1-4.1c0.8-0.9,1.1-2.1,2-2.9
		c0.2-0.2,0.1-0.4-0.1-0.5c-0.3-0.1-0.5-0.6-0.7-0.3c-0.4,0.6-1.1,1-1.1,1.9c0,0.5-0.3,0.8-0.5,1.2c-1,1.2-1.8,2.6-2.7,3.9
		c-0.2,0.2-0.4,0.6-0.3,0.8C56.6,21.9,57,22,57.3,22.1z M55.3,21c0.3,0,0.3-0.2,0.4-0.3c0.9-1.1,1.5-2.5,2.5-3.6
		c0.9-1.1,1.2-2.5,2-3.7c0.1-0.2,0.2-0.4-0.1-0.6c-0.2-0.1-0.3,0-0.5,0.2c-1.2,1.8-2.5,3.5-3.6,5.3c-0.4,0.7-0.9,1.3-1,2.2
		C54.8,20.9,55.1,20.9,55.3,21z M69.3,20.8c0-0.1,0-0.4-0.3-0.5c-0.4-0.2-0.5,0.2-0.6,0.3c-0.2,0.1-0.3,0.4-0.4,0.6
		c-0.4,0.9-0.7,1.9-1.3,2.7c-0.5,0.8-0.5,1.7-1,2.4c-0.1,0.1,0,0.3,0.1,0.4c0.7,0.5,1.2,0.4,1.5-0.5c0.1-0.2,0.1-0.3,0.2-0.5
		C68.3,24.2,68.9,22.6,69.3,20.8z M52.6,19.2c1.1,0.9,1,0.8,1.8-0.4c0.4-0.6,0.8-1.2,1.2-1.7c1-1.5,2.1-2.8,3-4.4
		c0.3-0.5,0.2-0.8-0.2-1C56.5,14.3,54.5,16.7,52.6,19.2z M15.6,27.8c-0.1-0.2-0.2-0.4-0.2-0.6c-0.1-2.2-1.1-4.1-2.5-5.7
		c-0.1-0.1-0.2-0.3-0.4-0.2c-0.2,0.1-0.3,0.2-0.3,0.5c0,0.3,0.1,0.5,0.3,0.7c0.5,0.6,1.2,1.2,1.5,1.9c0.7,1.7,0.6,3.6,0,5.4
		c-0.1,0.2-0.2,0.4,0.1,0.5c0.2,0.1,0.5,0.2,0.6,0C15.1,29.5,15.4,28.7,15.6,27.8z M48.5,16.4c0.8-1.7,1.9-3.2,3-4.6
		c0.7-1,1.4-2,2.2-2.9c0.3-0.3,0.3-0.7,0-0.9c-0.2-0.2-0.5-0.4-0.7-0.1c-0.5,0.9-1.3,1.5-1.7,2.4c-0.8,1.6-1.7,3.2-2.9,4.5
		C47.8,15.2,47.7,15.8,48.5,16.4z M49.9,17.3c0.2,0,0.3-0.2,0.4-0.3c0.6-0.4,0.5-1.3,1.2-1.7c0.5-0.3,0.6-0.9,0.9-1.3
		c0.5-1.1,0.9-2.2,1.9-2.9c0.4-0.3,0.7-0.8,1.1-1.2c0.4-0.4,0.1-0.6-0.1-0.8c-0.3-0.3-0.4,0-0.6,0.2c-0.6,0.4-0.9,1-1.3,1.6
		c-0.6,0.7-1.2,1.6-1.7,2.4c-0.6,1.2-1.4,2.3-2.1,3.4c-0.1,0.2-0.2,0.3-0.1,0.5C49.6,17.1,49.6,17.3,49.9,17.3z M45.1,14
		c0.2-0.1,0.4-0.2,0.5-0.4c0.5-0.7,0.7-1.6,1.4-2.2c1.2-1.1,1.8-2.7,2.8-4.1c0.3-0.5,0.2-1,0.4-1.6c0.1-0.2-0.2-0.4-0.5-0.2
		c-0.1,0.2-0.3,0.3-0.4,0.5c-1.2,1.8-2.3,3.7-3.5,5.5c-0.4,0.6-0.4,1.3-0.9,1.8c-0.1,0.1-0.4,0.1-0.2,0.2C44.8,13.7,44.8,14,45.1,14
		z M46.7,14.9c0.1,0,0.2-0.1,0.2-0.2c0.4-0.6,1.1-1,1.4-1.6c0.9-1.5,1.8-3.1,2.9-4.5c0.3-0.4,0.5-0.9,0.8-1.4
		c0.4-0.6-0.2-0.6-0.4-0.8c-0.3-0.3-0.4,0-0.6,0.2c-0.4,0.7-0.8,1.5-1.2,2.2c-0.6,1.1-1.4,2-2.1,3.1c-0.4,0.7-1.1,1.3-1.3,2.1
		C46.3,14.6,46.4,14.8,46.7,14.9z M26.9,27.2c0.9-0.2,1.1-0.8,1.1-1.4c0-1.4-0.2-2.7-0.5-4c-0.5-1.9-1.3-3.7-2.2-5.4
		c-0.2-0.4-0.4-0.5-0.9-0.5c-0.2,0-0.3,0-0.4,0.2c-0.1,0.2,0,0.3,0.1,0.4c1.9,1.5,2.1,3.9,2.6,6C27.2,23.8,27,25.5,26.9,27.2z
		 M61.7,24.4c0,0.1,0,0.2,0.2,0.3c0.3,0.2,0.4-0.1,0.5-0.2c0.2-0.2,0.5-0.5,0.5-0.8c0.5-2.1,2.2-3.4,3-5.3c0.1-0.3,0.8-0.4,0.3-0.9
		c-0.4-0.4-0.8,0.1-1.1,0.3c-0.3,0.2-0.4,0.6-0.6,0.9c-0.2,0.4-0.5,0.7-0.7,1.1C63,21.2,62,22.5,61.7,24.4z M22.2,16.5
		c1.5,1.7,2.6,3.5,3,5.7c0.4,2.1,0.7,4.2-0.3,6.4c0.8-0.2,1.1-0.7,1.1-1.3c0-0.5,0.1-1.1,0.1-1.5c-0.2-1.9-0.1-3.7-0.7-5.5
		C24.8,18.5,24.1,17.1,22.2,16.5z M64.6,16.9c0-0.2,0-0.3-0.2-0.3c-0.2-0.1-0.3,0.1-0.5,0.2c-1.2,0.8-1.5,2.1-2.3,3.1
		c-0.8,0.9-1,2.1-1.6,3.1c-0.1,0.2-0.5,0.3-0.2,0.6c0.2,0.2,0.5,0.4,0.8,0.4c0.3,0,0.3-0.4,0.4-0.6c0.1-0.3,0-0.6,0.1-0.9
		c0.8-1.2,1.5-2.3,2.3-3.5C64,18.3,64,17.4,64.6,16.9z M63.5,15.8c0.1-0.4-0.2-0.5-0.4-0.7c-0.3-0.2-0.5,0.1-0.7,0.3
		c-1.9,2-2.4,4.8-4,7c-0.1,0.1-0.2,0.4,0.1,0.5c0.2,0.1,0.3-0.1,0.4-0.2c0.5-0.4,0.6-1,0.9-1.6c0.9-1.9,2.1-3.5,3.4-5.1
		C63.4,16,63.5,15.8,63.5,15.8z M18.4,28.5c0.7-1.7,0.4-3.5,0.1-5.2c-0.3-1.7-1.2-3.1-2.7-4c-0.1-0.1-0.2-0.2-0.4-0.1
		c-0.1,0.1-0.3,0.3-0.3,0.4c0,0.2,0.2,0.2,0.4,0.3c1,0.9,2.1,1.8,2.3,3.2C18.2,24.9,18.3,26.7,18.4,28.5z M29.8,22
		c-0.2,0.7,0.1,1.2,0.3,1.6c0.1,0.2,0,0.8,0.4,0.7c0.4-0.1,0.5-0.6,0.4-1c-0.1-0.3-0.2-0.5-0.3-0.7c-0.2-0.7-0.6-1.4-0.7-2.2
		c0-1.3-0.4-2.6-0.5-3.9c0-0.4-0.3-0.8-0.5-1.2c-0.1-0.2-0.2-0.2-0.4-0.2c-0.3,0.1-0.2,0.2-0.2,0.4c0.3,1.1,0.6,2.2,0.8,3.3
		C29.3,19.9,29.6,21,29.8,22z M47,4.7c0-0.2-0.1-0.3-0.2-0.4c-0.2-0.1-0.4-0.1-0.5,0.2c-0.2,0.4-0.4,0.9-0.8,1.2
		c-1.7,1.4-2.7,3.5-4.1,5.2c-0.2,0.3-0.4,0.7,0,0.9c0.7,0.4,0.1-0.4,0.3-0.4c0.1,0,0.1-0.1,0.1-0.1c1.1-0.4,1.3-1.6,1.9-2.4
		c0.9-1.3,2-2.5,3-3.7C46.8,4.9,46.9,4.8,47,4.7z M31.7,22.6c0.2-0.3,0.3-0.5,0.3-0.6c-0.2-1.2,0-2.5-0.4-3.7c-0.3-1-0.7-2-1-3
		c-0.1-0.2-0.1-0.4-0.4-0.3c-0.3,0.1-0.2,0.3-0.1,0.5c0.1,0.5,0.2,1,0.3,1.5C30.6,18.8,31.2,20.6,31.7,22.6z M13.5,26
		c0-0.1,0-0.2-0.1-0.4c-0.4-1.1-1.2-2-1.9-2.9c-0.2-0.2-0.3-0.2-0.4,0c-0.4,0.4-0.5,0.7,0.1,1.1c1,0.7,1.8,1.6,1.4,2.9
		c-0.1,0.3,0.1,0.6,0.3,0.8c0.1,0.1,0.2,0.2,0.4,0.1c0.1-0.1,0.2-0.2,0.2-0.4C13.3,27,13.3,26.5,13.5,26z M42.4,5.3
		c-1.5,0.7-1.9,2.4-3,3.4c-0.3,0.3-0.6,0.9-0.1,1.1c0.3,0.2,0.7-0.3,0.9-0.7c0.4-1.2,1.4-2,2-3C42.3,5.9,42.6,5.7,42.4,5.3z
		 M28.1,19.9c0.3-0.6,0-1.1-0.1-1.6c-0.1-1-0.3-1.9-0.8-2.7c-0.3-0.5-0.6-0.2-0.9-0.1c-0.3,0.1-0.1,0.4,0,0.6c0.6,0.7,0.7,1.5,1,2.3
		C27.4,18.9,27.7,19.4,28.1,19.9z M35,17.3c-0.1-0.3,0-0.6-0.2-0.6c-1.2-0.1-0.8-1.3-1.4-1.8c-0.1-0.1,0.2-0.5-0.3-0.4
		c-0.4,0.1-0.3,0.3-0.2,0.6c0.1,1.2,1,2.1,1.2,3.2c0,0.2,0.3,0.4,0.4,0.1C34.7,17.9,34.8,17.6,35,17.3z M11.7,27.9
		c0.1-1.2,0.2-2.5-1-3.2c-0.2-0.1-0.3-0.5-0.6-0.1c-0.2,0.3-0.5,0.7-0.2,0.9C11,25.9,11.3,26.9,11.7,27.9z M44.9,4.4
		c-0.8-0.1-1.4,0.1-1.5,1c-0.1,0.9-0.7,1.5-1.3,2.2C42,7.8,41.8,8,42,8.3C42.8,6.9,44.4,6.1,44.9,4.4z M34.2,14.2
		c0.1,0.3,0.1,0.5,0.2,0.8c0.1,0.3,0.3,0.6,0.6,0.7c0.5,0,0.2-0.5,0.4-0.7c0.1-0.2,0.1-0.5,0.2-0.8c0-0.2,0.2-0.5,0-0.7
		c-0.3-0.2-0.7,0.1-1,0.2C34.3,13.7,34.1,13.9,34.2,14.2z M32.9,20.5c0.6-0.5,1.1-0.9,0.4-1.6c-0.3-0.2-0.3-0.6-0.3-0.9
		c-0.1-0.6-0.4-1.1-0.7-1.5c0.1,0.6,0.2,1.3,0.4,1.9C32.7,19.1,32.8,19.7,32.9,20.5z M13.2,28c-0.9,0.2-0.4,1.2-0.9,1.6
		c-0.1,0.1,0.2,0.2,0.3,0.3c0.1,0.1,0.4,0.1,0.3-0.1C12.8,29.2,13.6,28.7,13.2,28z M17.7,72.5c-0.9-0.5-0.9-0.5-1.8-0.3
		C16.6,73,16.6,73,17.7,72.5z M9.5,26.5c0.2,0.6,0.3,1.1,0.5,1.5c0.1,0.2,0.2,0.4,0.4,0.2c0.2-0.1,0.2-0.2,0.2-0.4
		C10.4,27.3,10.3,26.8,9.5,26.5z M19.5,73.5c0,0.3,0.1,0.6,0.1,0.8c0,0.5,0.5,0.3,0.8,0.5c0.1,0.1,0.3,0.1,0.4-0.1
		c0.1-0.3-0.2-0.4-0.4-0.6C20.1,74,20,73.6,19.5,73.5z"/>
	<path d="M38.1,39.6c-0.4-1.8-0.1-3.5,0-5.1c0-0.6,0.4-1.2,1-1.2c0.6-0.1,0.9,0.5,1.2,1c0.6,1.4,1,2.9,0.8,4.7
		c0.9-1.2,1.5-2.2,2.3-3.1c0.5-0.6,1.1-0.8,1.8-0.5c0.7,0.3,0.5,0.9,0.4,1.4c-0.1,1-0.6,1.9-1,2.9c1.3-0.2,2.5-1,3.8-0.9
		c0.8,0,1.4,0.1,1.7,0.8c0.3,0.8-0.4,1.3-1,1.7c-0.9,0.5-1.9,0.8-2.9,1.2c-0.4,0.2-0.8,0.4-1.3,0.6c0.2,0.3,0.4,0.5,0.7,0.6
		c1.2,0.5,1.7,1.5,2.1,2.6c0.2,0.4,0.2,0.8-0.3,1.1c-0.5,0.3-1,0.7-1.6,0.2c-0.7-0.7-1.6-0.9-2.6-1.2c-0.2,0.9,0.1,1.6,0.2,2.4
		c0.1,1,0.1,1.9,0,2.9c-0.1,0.5-0.3,1-0.7,1c-0.5,0-1.2,0-1.5-0.7c-0.5-1.2-1-2.5-1.4-3.8c-0.1-0.2-0.1-0.4-0.3-0.6
		c-0.7,0.9-1.1,1.9-2,2.5c-0.4,0.3-0.8,1-1.3,0.5c-0.5-0.5-0.6-1.1-0.3-1.8c0.3-0.8,0.6-1.6,0.9-2.4c-1.1-0.5-2.3-0.2-3.3,0.2
		c-0.8,0.2-1.5-0.1-2.2-0.1c-0.4,0-0.8-0.6-0.5-1.2c0.5-1,1.4-1.4,2.4-1.6c1.2-0.3,2.3-1,3.6-0.7c0-0.1,0-0.2,0-0.3
		c-0.9-0.5-1.8-1-2.6-1.6c-0.8-0.5-1.1-1.2-0.7-1.8c0.4-0.6,1.6-1,2.3-0.6C36.6,38.9,37.3,39.4,38.1,39.6z M36.5,49.4
		c0,0.2-0.1,0.5,0.2,0.5c0.3,0,0.7-0.1,0.9-0.3c1.3-1.3,2.3-2.8,3.2-4.4c0.1-0.2,0.1-0.5,0-0.6c-0.6-0.1-0.8-0.7-1.3-0.9
		c-0.3-0.1-0.4-0.1-0.7,0.2c-0.8,1.1-1.2,2.3-1.6,3.5C37,48.1,36.5,48.6,36.5,49.4z M43.1,50.1c0.2-0.7-0.2-1.2-0.3-1.8
		c-0.1-0.8-0.1-1.7-0.3-2.5c-0.2-0.5-0.8-0.7-0.9-0.6c-0.5,0.4-1.2,1.1-1.1,1.6c0.2,0.9,0,1.9,0.7,2.7c0.2,0.2,0.3,0.4,0.2,0.7
		c-0.2,0.8,0.5,1.1,0.9,1.6c0.3,0.3,0.5,0.2,0.6-0.1C43.1,51.1,43.4,50.6,43.1,50.1z M45.1,36.4c0,0,0-0.2-0.2-0.3
		c-0.2-0.1-0.5,0-0.7,0.1c-1.6,1.2-2.4,3.1-3.5,4.8c-0.1,0.2,0.1,0.3,0.2,0.3c1.3,0.7,1.8,0.5,2.5-0.9c0.1-0.1,0.1-0.2,0.2-0.3
		C44.2,39.1,44.9,38,45.1,36.4z M38.3,43.1c-0.3,0-0.5,0.1-0.8,0.1c-1.5,0.3-3.2,0.4-4.6,1.2c-0.5,0.3-1.3,0.4-1.2,1
		c0.2,0.6,1.1,0.4,1.7,0.5c0.1,0,0.1,0,0.2,0c1-0.6,2.2-0.2,3.3-0.4c0.4-0.1,0.5-0.2,0.6-0.4C37.8,44.4,38.1,43.8,38.3,43.1z
		 M40.1,41c0.2-0.4,0.6-1,0.5-1.4c-0.2-1.5,0-3.1-0.7-4.6c-0.2-0.3-0.2-0.8-0.6-0.8c-0.4,0-0.6,0.5-0.7,0.9c-0.3,1.3-0.1,2.7,0.1,4
		C38.8,39.8,38.9,40.8,40.1,41z M46.5,47c0.4-0.2,0.9,0,0.6-0.7c-0.5-1.1-1.1-2-2.2-2.5c-1.4-0.7-1.6-0.8-2.6,0.3
		c-0.3,0.3-0.2,0.5,0.1,0.6c0.6,0.2,0.9,0.6,1.3,1C44.4,46.3,45.6,46.4,46.5,47z M48.6,39.4C48.6,39.4,48.6,39.4,48.6,39.4
		c-1.7,0.2-3.2,0.9-4.6,1.5c-0.4,0.2-0.7,0.9-0.5,1.3c0.2,0.5,0.7,0.2,1.1,0.1c0.8-0.3,1.6-0.7,2.4-0.8c0.8-0.1,1.4-0.5,2.1-0.9
		c0.3-0.2,0.5-0.4,0.4-0.7C49.3,39.6,49,39.4,48.6,39.4z M35.9,39.1c-0.5,0.3-1.2-0.1-1.3,0.5c-0.1,0.5,0.3,1,0.9,1.2
		c0.1,0,0.1,0,0.2,0.1c0.9,0.7,2.1,0.9,3,1.4c0.5,0.3,0.6-0.2,0.9-0.4c0.3-0.3,0-0.4-0.2-0.5c-0.4-0.4-0.9-0.7-1.3-1.1
		C37.4,39.6,36.4,39.8,35.9,39.1z"/>
	<path d="M44.2,59.4c0.1-3.4,2.6-4.8,5.5-3.9c0.8,0.2,1.7,1,2.1,1.9c0.7,1.9,0.8,3.9-0.2,5.8c-0.6,1.2-2.3,1.7-3.7,1.1
		c-1.3-0.6-2.4-1.3-3.1-2.6C44.3,60.9,44.2,60.1,44.2,59.4z M51.5,60.5c-0.1-0.8-0.2-1.6-0.5-2.3c-0.4-1.3-1.5-2-2.8-2.1
		c-1,0-2,0.3-2.6,1.3c-1.4,2.4,0.1,5.4,2.3,6.2c1.3,0.5,2.1,0.3,2.7-0.6C51.1,62.2,51.3,61.3,51.5,60.5z"/>
	<path d="M26.7,44.5c0,0.6,0.1,1.2,0,1.8c-0.4,2-2.6,2.9-4.5,1.8c-1.9-1.1-2.9-3-2.6-5.2c0.2-1.6,2.3-2.9,3.9-2.6
		c0.7,0.2,1.6,0.1,2,0.8C26.1,42.1,26.9,43.1,26.7,44.5z M22.8,41.2c-1.2,0.1-2.3,0.9-2.3,2.2c0,1.7,0.7,3.1,2.2,3.9
		c1.5,0.9,2.9,0.1,3.2-1.4c0.4-1.6-0.1-2.9-1.2-4.1C24.3,41.3,23.8,41.1,22.8,41.2z"/>
	<path d="M40.5,27.8c-2.1,0.1-3.5-1.1-4.3-2.7c-0.8-1.6,0.4-4.8,2.3-5.4c1-0.3,2-0.9,3.1-0.1c1.6,1.2,2.9,3.4,2.2,5.6
		c-0.3,1-0.6,1.8-1.6,2.4C41.5,27.9,41,27.6,40.5,27.8z M40.3,27.1c1-0.1,2-0.4,2.5-1.6c0.5-1.5,0.2-2.7-0.6-3.9
		c-0.4-0.7-0.9-1.4-1.7-1.4c-0.7-0.1-1.6,0.3-2.2,0.6c-1.1,0.7-1.7,2.1-1.6,3.4C36.9,25.6,38.5,27,40.3,27.1z"/>
	<path d="M61.7,38.9c-2.1,0.2-3.3-1.1-4.3-2.6c-0.9-1.3,0-4.2,1.4-5c0.1-0.1,0.2-0.2,0.3-0.2c1.4,0.3,2.9,0,3.9,1.3
		c0.6,0.8,0.7,1.7,0.7,2.6c0,0.9-0.1,1.8-0.6,2.6C62.7,38.4,62.4,38.9,61.7,38.9z M60.2,32.2c-0.6,0-1.2-0.1-1.7,0.5
		c-0.6,0.7-0.7,2.9-0.2,3.6c0.7,0.9,1.5,1.6,2.8,1.7c0.7,0,1-0.2,1.2-0.7c0.5-1.1,0.5-2.3,0.2-3.5C62.3,32.7,61.4,32.2,60.2,32.2z"
		/>
	<path d="M20.7,52c0,0.1-0.3,0.2-0.5,0c-0.7-0.7-1.7-0.8-2.5-1.3c-0.4-0.3-0.4-0.5-0.3-0.8c0.3-0.5,0.5,0,0.7,0.1
		c0.7,0.4,1.3,0.8,2,1.1C20.6,51.3,20.6,51.5,20.7,52z"/>
	<path d="M43.3,15.1c1.1,0.8,2.1,1.5,3.2,2.2c0.1,0.1,0.5,0.1,0.4,0.4c-0.2,0.3-0.4,0-0.6-0.1c-0.9-0.4-1.8-0.9-2.7-1.4
		C43,16,43,15.6,43.3,15.1z"/>
	<path d="M30.3,57.7c-0.1,0.3-0.3,0.4-0.5,0.3c-0.9-0.4-1.8-0.7-2.5-1.3c-0.2-0.2-0.3-0.5-0.2-0.7c0.1-0.2,0.5-0.2,0.6-0.1
		c0.7,0.6,1.4,1.4,2.4,1.7C30.2,57.5,30.3,57.6,30.3,57.7z"/>
	<path d="M57.6,25.9c-0.2-0.1-0.4-0.3-0.7-0.4c-0.7-0.5-1.3-0.9-2-1.4c-0.2-0.2-0.4-0.4-0.3-0.6c0.1-0.2,0.4-0.1,0.6,0
		c0.9,0.6,1.7,1.1,2.6,1.7c0.2,0.1,0.3,0.2,0.2,0.4C57.9,25.9,57.8,26,57.6,25.9z"/>
	<path d="M35.4,61c-1.3-0.2-2.2-1-3.3-1.6c-0.2-0.1-0.3-0.2-0.1-0.5c0.1-0.2,0.3-0.2,0.6-0.2c0.5,0.1,0.8,0.5,1.1,0.7
		C34.2,60,34.9,60.3,35.4,61z"/>
	<path d="M22.6,53c1,0.4,1.8,1.1,2.8,1.5c0.2,0.1,0.4,0.4,0.3,0.6c-0.1,0.3-0.5,0.1-0.6,0c-0.6-0.4-1.3-0.7-2-1
		C22.6,53.9,22.5,53.6,22.6,53z"/>
	<path d="M46.2,67.9c0.2,0,2.5,1.3,2.6,1.5c0,0.1,0,0.2-0.1,0.3c-0.2,0.2-0.4,0.2-0.6,0.1c-0.8-0.4-1.5-0.8-2.3-1.3
		c-0.2-0.1-0.2-0.3-0.1-0.4C45.9,68,45.9,67.8,46.2,67.9z"/>
	<path d="M37.3,62.1c0.2,0.1,0.5,0.2,0.8,0.3c0.6,0.3,1.1,0.6,1.7,1c0.2,0.1,0.5,0.2,0.3,0.6c-0.2,0.3-0.4,0.1-0.6,0
		c-0.8-0.4-1.5-0.8-2.3-1.2c-0.3-0.1-0.3-0.3-0.2-0.5C36.9,62.2,37.1,62.1,37.3,62.1z"/>
	<path d="M61.5,26.7c0.3,0.5,0.8,0.5,1.2,0.8c0.4,0.3,0.8,0.7,1.3,1c0.1,0.1,0.4,0.1,0.3,0.4c-0.1,0.2-0.3,0.2-0.5,0.1
		c-0.9-0.4-1.7-0.8-2.5-1.4c-0.1-0.1-0.2-0.3-0.2-0.5C61.1,26.9,61.3,26.8,61.5,26.7z"/>
	<path d="M52.1,21.7c-0.9-0.4-1.7-0.8-2.4-1.3c-0.3-0.2-0.6-0.5-0.4-0.8c0.2-0.4,0.6-0.1,0.8,0.1C50.9,20.2,51.6,20.8,52.1,21.7z"/>
	<path d="M44.5,66.5c-0.1,0.3-0.1,0.7-0.7,0.5c-0.5-0.2-1.1-0.5-1.5-0.9c-0.2-0.2-0.3-0.3-0.1-0.5c0.2-0.1,0.4-0.3,0.6-0.2
		c0.5,0.4,0.9,0.9,1.6,0.8C44.4,66.2,44.5,66.4,44.5,66.5z"/>
	<path d="M46.7,59.4c0-0.6,0.9-1.6,1.5-1.7c1.4-0.1,2.3,0.5,2.4,1.6c0.1,1.5-0.7,2.7-1.7,2.7C47.6,62.1,46.8,61.1,46.7,59.4z"/>
	<path d="M21.1,44.2c0-1.1,1.1-2.4,1.9-2.4c1.1,0,2.4,1.5,2.3,2.8c0,1-0.9,1.9-1.8,1.9C22.3,46.5,21.1,45.3,21.1,44.2z"/>
	<path d="M42,23.6c0,1-0.7,1.8-1.6,1.8c-1,0-2-1.1-2-2.3c0-0.9,0.6-1.8,1.3-1.8C40.8,21.3,41.9,22.4,42,23.6z"/>
	<path d="M62.2,34.9c0,0.9-0.8,1.8-1.6,1.8c-1.1,0-2.3-1.2-2.3-2.1c0-0.5,1.3-1.4,1.9-1.4C61.2,33.1,62.3,34,62.2,34.9z"/>
</g>
</svg>
