<?xml version="1.0" encoding="utf-8"?>
<!-- Generator: Adobe Illustrator 19.1.0, SVG Export Plug-In . SVG Version: 6.00 Build 0)  -->
<svg version="1.1" id="Layer_1" xmlns="http://www.w3.org/2000/svg" xmlns:xlink="http://www.w3.org/1999/xlink" x="0px" y="0px"
	 width="80px" height="80px" viewBox="0 0 80 80" enable-background="new 0 0 80 80" xml:space="preserve">
<g>
	<path d="M59.3,31c0.4-1.4,0.9-2.6,1.4-3.8c0.8-2.3,1.3-4.8,2.9-6.8c0.6-0.7,1.3-1.3,2.1-1.7c0.6-0.4,1.2,0.4,1.9,0.6
		c1.4,0.4,2.5,1.4,3.5,2.4c0.4,0.5,0.8,1.2,0.9,1.9c0.4,1.9,0.9,3.7,1.2,5.6c0.1,0.8-0.2,1.7-0.3,2.6c-0.4,2.4-0.6,4.9-1.2,7.3
		c-0.8,2.9-1.7,5.7-2.5,8.6c-0.2,0.8-0.5,1.5-0.7,2.3c-0.6,2.5,0.8,4.6,1.5,6.8c0.7,2.4,2,4.7,1,7.3c-0.5,1.3-1.4,2.3-2.8,2.8
		c-1.8,0.7-3.8,1.1-5.4,2c-1.9,1.1-4.1,1.8-6,3c-1,0.6-2.3,0.8-3.4,1.3c-1.2,0.5-2.5,1-3.8,1.5c-0.8,0.3-1.6,0.7-2.4,1
		c-0.8,0.3-1.6,0.6-2.4,1c-0.6,0.3-1.2,0.2-1.8-0.1c-1.8-0.9-2.7-2.5-3.6-4.2c-0.4-0.8-0.8-1.6-1.7-2c-1.2-0.6-1.9-1.7-2.6-2.7
		c-1.4-1.9-2.9-3.6-4.4-5.4c-0.7-0.9-1.5-1.8-2.5-2.6c-0.5-0.3-0.9-0.9-1.2-1.3c-1.4-1.7-2.9-3.3-4.4-4.8c-1.7-1.7-3.1-3.6-4.8-5.4
		c-1.1-1.2-1.7-2.8-2.6-4.2c-1.1-1.9-1.8-3.9-2.9-5.8c-0.5-1-0.5-2.1-0.8-3.1c-0.5-1.6-1-3.2-1.2-4.9c-0.2-1.4-0.8-2.8-0.5-4.3
		c0-0.1-0.1-0.2-0.1-0.3c-0.7-1.4,0-2.8,0-4.2c0-1.5,0.5-2.9,1-4.2c1-2.8,1.9-5.7,3.5-8.3c0.5-0.9,1.5-1.3,2.2-1.9
		c2-1.6,4-3.2,6.4-3.9c2.2-0.6,4.4-1.3,6.8-1.2c1.9,0.1,3.5,0.6,5.1,1.5c0.3,0.2,0.6,0.3,1.1,0.2c0.2-0.1,0.8-0.3,0.6,0.5
		c-0.1,0.2,0.2,0.3,0.3,0.3c1.9,0.4,3.4,1.7,4.9,2.8c1,0.7,1.9,1.4,2.8,2.2c1.7,1.5,3.1,3.3,4.3,5.1c1.1,1.6,2.2,3.1,3.3,4.7
		c1.4,2.1,2.7,4.3,4.1,6.5c1,1.5,2.1,2.9,2.6,4.6C58.6,30.3,58.8,30.7,59.3,31z M36.6,49.2c1.1,0.1,1.5-0.9,2.5-1.4
		c-0.9-0.2-1.5-0.1-2.2-0.2c-2-0.3-3.9-0.5-5.9-0.7c-1.7-0.2-3.5-0.4-5.2-0.5c-1-0.1-2-0.3-3-0.1c-1,0.2-1.9,0.2-2.8-0.1
		c-0.9-0.3-1.8-0.5-2.8-0.4c0.4,0.6,0.7,1.5,1.1,1.5c0.9-0.1,1.7,0.3,2.5,0.4c2.4,0.3,4.8,0.8,7.3,0.9c2.3,0.1,4.7,0.2,7,0.2
		C35.6,48.7,36.2,48.7,36.6,49.2c0,0.3-0.3,0.4-0.5,0.3c-1.4-0.4-2.8-0.3-4.2-0.2c-1.5,0-3-0.5-4.5-0.3c-2.6,0.3-5.1-0.5-7.7-0.8
		c-0.2,0-0.4-0.2-0.5,0c-0.2,0.3,0.1,0.3,0.3,0.5c1.1,1.1,2.5,0.9,3.8,1.2c1.1,0.2,2.3,0.2,3.3,0.4c2.1,0.5,4.1,0.8,6.2,0.9
		c1.5,0.1,2.5-0.6,3.6-1.4C36.8,49.6,36.6,49.4,36.6,49.2z M56.3,34.2c-0.9-0.5-1.8-0.1-2.7-0.3c-3.7-0.9-7.6-1.2-11.4-1.5
		c-1.1-0.1-2.4-0.4-3,1c-0.4,0.9-1.1,1.1-1.9,0.8c-1.7-0.6-3.6-0.6-5.3-0.5c-1.2,0.1-2.4-0.3-3.6-0.1c-0.5,0.1-1.1,0.1-1.6,0
		c-1.3-0.4-2.6-0.3-3.9-0.3c-2.4,0.1-4.8-0.4-7.1-0.5c-1.4-0.1-2.7,0.1-4.1-0.2c0.4,0.6,1,0.8,1.6,0.9c1.8,0.2,3.6,0,5.4,0.4
		c1.6,0.3,3.2,0.2,4.7,0.4c2.1,0.4,4.3,0.4,6.5,0.6c1.9,0.2,3.8,0.4,5.7,0.6c1.7,0.2,3.4,0.5,5.1,0.5c3.2,0.1,6.4,0.1,9.6,0.4
		c1,0.1,2-0.4,3,0.2c0.4,0.2,0.5-0.5,0.9-0.7c0,0-0.1-0.4-0.3-0.3c-0.8,0.2-1.4-0.3-2.2-0.4c-2.4-0.4-4.7-0.4-7.1-0.6
		c-0.3,0-0.6,0-0.7-0.3c2-0.3,3.9,0.1,5.8,0.1c1.7,0,3.4,0,5,0.4C55.3,35.2,55.8,34.9,56.3,34.2z M28.3,56.5
		c2.4-0.2,4.4-0.9,6.1-2.3c1.4-1.1,3-2.1,4.5-3.1c1.5-1,3.1-2,4.5-3.2c1.7-1.5,3.6-2.9,5.3-4.5c0.7-0.7,1.4-1.3,2.2-1.9
		c1.5-1,2.8-2.3,4.3-3.3c0.2-0.1,0.3-0.4,0.5-0.5c0.4-0.5,0.7-1,1.2-1.3c0.8-0.6,1.3-1.6,1.1-2.6c-1.3,0.8-2.2,2.1-3.5,2.9
		c-1.9,1.3-3.8,2.8-5.6,4.2c-2,1.6-4,3.2-6.1,4.7c-1.7,1.2-3.3,2.5-5,3.8c-2.3,1.7-4.6,3.3-6.9,5C30.2,55,29.3,55.6,28.3,56.5z
		 M44.5,43.4c-0.6-0.1-1.2-0.1-1.7-0.2c-2.6-0.2-5.3,0.1-7.9-0.4c-1.5-0.3-3.1-0.6-4.6-0.7c-2.5-0.2-5-0.6-7.4-0.8
		c-2.4-0.2-4.7-1.1-7.2-1.2c-0.3,0-0.7-0.1-1.1-0.1c-0.6,0.1-0.5,0.3-0.3,0.7c0.5,1.5,1.8,1.7,3,1.8c2.6,0.3,5.2,0.8,7.8,1
		c0.9,0.1,1.7,0.2,2.6,0.3c2.2,0.2,4.4,0.5,6.6,0.7c2,0.2,4,0.2,6,0.3C41.9,45,43.5,45.1,44.5,43.4z M52.4,37.4
		c-1.2,0.1-2.1-0.3-3.1-0.3c-3-0.1-5.9-0.3-8.9-0.4c-1.9-0.1-3.8-0.5-5.7-0.5c-1.9,0-3.7-0.3-5.5-0.5c-2.5-0.3-5.1-0.4-7.6-0.7
		c-0.8-0.1-1.7-0.1-2.6-0.2c-2-0.4-4.1-0.4-6.1-0.5c-0.4,0-0.7,0.1-0.8,0.5c-0.1,0.5,0.4,0.3,0.6,0.5c0.4,0.3,0.8,0.1,1.2,0.1
		c1.8,0,3.5,0.5,5.3,0.8c2.4,0.3,4.8,0.6,7.2,0.8c4.4,0.4,8.9,0.5,13.3,0.8c1.7,0.1,3.5,0.2,5.2,0.4c1,0.1,1.9,0.5,3,0.4
		c0.9-0.1,1.9-0.2,2.9-0.2C51.5,38.4,51.8,38,52.4,37.4z M14.2,36.4c-0.3-0.2-0.7,0.2-1.2,0.1c-0.3-0.1-0.3,0.2-0.3,0.4
		c0,0.2,0.1,0.5,0.4,0.3c0.2-0.1,0.3-0.1,0.4,0c0.8,0.7,1.9,0.8,2.8,0.8c3,0,5.8,0.6,8.8,0.8c3.1,0.3,6.1,0.8,9.2,1.1
		c0.7,0.1,1.4-0.1,2.1,0c2.9,0.5,5.8,0.2,8.7,0.5c0.8,0.1,1.7-0.3,2.2,0.1c0.8,0.6,1.1,0,1.6-0.3c0.2-0.2,0.6-0.3,0.5-0.6
		c-0.1-0.3-0.5-0.3-0.8-0.3c-2.6-0.1-5.1-0.7-7.6-0.7c-2.3,0-4.6-0.3-7-0.5c-2-0.1-4-0.2-6.1-0.2c-1.3,0-2.6-0.4-3.9-0.4
		c-2.6,0-5.2-0.8-7.8-0.8C15.7,36.7,15.1,36.3,14.2,36.4z M10.8,27.6c0.1-0.1,0.2-0.1,0.3-0.2c2.6-1.6,4.8-3.8,7.5-5.3
		c2.4-1.4,4.7-2.9,7-4.6c3.2-2.4,6.5-4.7,9.7-7.1c1.3-1,2.9-1.8,4.1-3c0.2-0.2,0.7-0.1,0.6-0.5c0-0.2-0.5-0.3-0.7-0.5
		c-0.2-0.2-0.4,0-0.6,0.1c-0.5,0.3-0.8,0.7-1.3,1c-2,1.2-4.1,2.4-6,3.9c-2.7,2.1-5.6,3.8-8.4,5.8c-2.4,1.7-4.8,3.3-7.2,5
		c-1.9,1.4-3.7,2.7-5.2,4.5c-0.2,0.3-0.2,0.5-0.2,0.7C10.5,27.5,10.6,27.6,10.8,27.6z M46.6,41.8c-0.9-0.8-2-0.7-3.1-0.8
		c-4.2-0.2-8.4-0.3-12.6-0.8c-2.6-0.3-5.2-0.7-7.8-0.9c-3.1-0.3-6.2-0.5-9.2-0.8c-0.2,0-0.4-0.1-0.4,0.2c0,0.2,0.1,0.5,0.2,0.4
		c0.5-0.4,0.9,0.1,1.2,0.2c1,0.4,2.1,0.2,3.1,0.5c3.2,0.9,6.5,1.2,9.8,1.7c1.9,0.2,3.8,0.4,5.7,0.7c2.5,0.4,4.9,0.6,7.4,0.5
		c1,0,2,0.1,3,0.1C44.8,42.6,45.9,42.9,46.6,41.8z M60.6,52c0-0.1-0.1-0.2-0.1-0.2c-1,0.3-2,0.6-3,0.8c-2.7,0.5-5.4,0.9-8.2,1.3
		c-4.4,0.5-8.8,1.6-13.2,2c-1.8,0.2-3.5,0.8-5.3,1.2c-0.5,0.1-1-0.1-1.5,0.4c1.4,0.3,2.6,0.9,3.9,1.2c0-0.4-0.7-1,0.4-0.8
		c0.5,0.1,1.1-0.1,1.7-0.2c1.3-0.2,2.6-0.5,4-0.6c2.4-0.3,4.8-0.7,7.2-1.1c3-0.5,6-1.2,9-1.6C57.5,53.9,58.9,52.7,60.6,52z
		 M56.7,37.8c-7.3,6-14.5,12.1-22.3,17.3c0.5,0.1,0.9,0.1,1.2,0c0.9-0.3,2,0.1,2.8-0.8c1-1.1,2.2-1.9,3.4-2.7c2.4-1.6,4.7-3.4,7-5.2
		c1.8-1.3,3.3-2.9,5.1-4.3C55.1,41.1,56.9,40.1,56.7,37.8z M41.6,45.7c-8.7-0.5-17.2-1.5-25.7-2.3c0.5,1.2,0.6,1.2,1.7,1.4
		c1.5,0.3,2.9,1,4.3,0.8c2.7-0.4,5.3,0.1,7.8,0.4c3.2,0.4,6.3,0.9,9.6,0.9C40.4,46.9,41,46.5,41.6,45.7z M35.8,26.6
		c-0.1,0.4,0,0.8,0.6,0.5C36.7,27,37,27,37.3,27c0.5,0,0.5-0.1,0.6-0.6c0.6-2.3,0.5-4.8,0.9-7.1c0.5-2.8,0.5-5.7,1-8.5
		c0-0.3,0.1-0.7-0.3-0.6c-0.6,0.2-1.3,0.5-1.5,1.2c-0.3,1.2-0.5,2.4-0.8,3.6c-0.5,2.3-0.6,4.7-0.9,7C36.1,23.6,36,25.1,35.8,26.6z
		 M14.2,28.9c-0.6-0.1-1.3,0.1-1.9,0.2c-0.3,0-0.4,0.3-0.5,0.5c0,0.1,0,0.3,0.1,0.3c0.5,0,0.8,0.4,1.3,0.3c0.9,0,1.9,0,2.8,0.2
		c2.4,0.6,4.8,0.6,7.2,0.8c3.2,0.3,6.5,0.2,9.8,0.5c0.3,0,0.8,0.1,0.8-0.5c0-0.4,0.1-0.8-0.7-1c-2.2-0.4-4.4-0.5-6.6-0.7
		c-1.7-0.2-3.4-0.1-5.1-0.2C19,29.3,16.6,29.3,14.2,28.9z M56.5,31.2c-0.2-0.7-0.9-1.2-1.2-1.9c-1.4-2.6-3.5-4.7-5.1-7.2
		c-1.6-2.3-3.4-4.5-5.4-6.5c-1.4-1.4-2.4-3.2-3.6-4.8c-0.1-0.2-0.2-0.7-0.6-0.4c-0.3,0.2-0.3,0.6-0.1,0.9c0.3,0.5,0.8,1,1.1,1.6
		c1.2,2.2,2.8,4.1,4.4,6.1c1.6,2.1,3.3,4,4.8,6.1c0.5,0.8,1.3,1.3,1.7,2.2c0.4,1,0.9,1.8,1.6,2.6C54.6,30.8,55.3,31.6,56.5,31.2z
		 M36.6,4.9c-0.6,0.4-0.6-0.6-1.1-0.2c-1.4,1.2-3.1,2-4.7,3c-2,1.2-3.8,2.5-5.6,4c-3.5,2.9-7.2,5.4-10.8,8.1c-1.3,1-2.6,2.1-4,3.1
		c-0.3,0.2-0.3,0.5-0.2,0.7c0.1,0.2,0.4,0.2,0.6,0c0.9-0.8,1.9-1.6,3-2.3c3.1-1.9,5.8-4.3,8.9-6.3c2.2-1.5,4.3-3.1,6.5-4.6
		c1.6-1.1,3.2-2,4.7-3.2C34.8,6.5,35.9,6.2,36.6,4.9z M53.4,31c-0.3-0.4-0.5-0.8-0.7-1.2c-1.2-2.7-3.1-4.9-4.9-7.3
		c-2.3-3.1-4.8-6-7-9.2c-0.1-0.2-0.4-0.6-0.6-0.3c-0.2,0.2-0.2,0.7,0.1,0.8c0.4,0.2,0.5,0.5,0.6,0.8c0.6,1.5,1.4,2.8,2.3,4
		c1.3,1.8,2.5,3.6,3.8,5.4c1.4,2.1,2.7,4.2,4.4,6.2c0.6,0.6,1,0.8,1.6,0.7C53.2,30.9,53.3,30.9,53.4,31z M41.7,8.7
		c-0.3,0.7-0.2,1.2,0.1,1.6c0.9,1.5,1.8,3,3,4.3c1.2,1.3,2.4,2.5,3.5,3.9c1.6,2.1,3.1,4.3,4.7,6.4c0.9,1.2,1.9,2.4,2.6,3.7
		c0.5,0.9,1.2,1.6,1.7,2.5c0.1,0.2,0.3,0.3,0.5,0.3c0.2,0,0.2-0.2,0.1-0.4c-0.6-0.9-0.7-2-1.4-2.9c-1.3-1.8-2-4.1-3.8-5.5
		c-1.2-0.9-1.7-2.4-2.7-3.5c-1.3-1.6-2.7-3-3.9-4.7c-0.5-0.6-1.1-1.2-1.5-1.9C44,11.1,42.6,10.1,41.7,8.7z M37,11.8
		c-0.3,0.4-0.6,0.8-1,0.9c-0.5,0.1-0.5,0.5-0.6,0.8c-1,4.7-1.8,9.4-2.2,14.2c-0.1,0.6,0.1,1.1,0.2,1.6c0.1,0.4,0.4,0.4,0.5,0.1
		C34.2,28.6,35,28,35,27c0.2-1.6,0.4-3.3,0.6-4.9c0.4-2.5,0.5-5.1,1.2-7.6C37.1,13.7,37.2,12.8,37,11.8z M56.3,70.8
		c-1.5-1-3.3-1.3-4.8-2.1c-2.3-1.2-4.8-2.1-7.3-2.9c-1.4-0.5-2.9-1.3-4.2,0.4c1.7,0.7,3.5,1,5.2,1.7c2.4,1,4.8,2,7.1,3
		C53.5,71.4,54.9,71.7,56.3,70.8z M52.8,72c-0.2-0.1-0.3-0.2-0.4-0.3c-4.1-2-8.5-3.5-12.9-4.8c-0.7-0.2-1.1,0.4-1.5,0.8
		c-0.2,0.2,0,0.2,0.2,0.3c0.9,0.6,1.9,0.8,2.9,1.2c2.8,1.1,5.6,2.2,8.4,3.1C50.7,72.7,51.7,73,52.8,72z M58.7,34.8
		c-0.4,1-0.8,2-1.1,3c-0.8,2.6-1.9,5-2.7,7.5c-0.4,1.3-0.9,2.5-1.2,3.8c-0.2,1-0.7,1.9-0.8,2.9c0,0.2-0.1,0.5,0.2,0.5
		c0.3,0,0.9-0.1,0.8-0.3c-0.3-1,0.6-1.5,0.9-2.3c0.6-2,1.5-3.8,2.2-5.7c0.6-1.7,1-3.5,1.8-5.2C59.5,37.5,59.6,36.2,58.7,34.8z
		 M10.4,25.6c1.2-1,2.4-1.9,3.6-2.8c3.1-2.4,6.2-4.7,9.5-6.8c2.5-1.6,5-3.3,7.4-5c2-1.5,4.1-2.8,6.2-4.3c0.2-0.1,0.5-0.2,0.3-0.6
		c-0.2-0.3-0.4-0.2-0.6,0c-0.5,0.3-1.1,0.6-1.6,1C33.8,8.2,32.4,9.2,31,10c-2,1.2-3.9,2.6-5.9,3.9c-2.6,1.8-5.1,3.7-7.6,5.5
		c-1.7,1.3-3.6,2.4-5.2,3.9c-0.5,0.5-0.7,1.2-1.6,1.3C10.2,24.7,10.1,25.1,10.4,25.6z M30.3,2.6c-0.7,0.6-1.6,0.8-2.4,1.3
		c-1.8,1.2-3.5,2.4-5.1,3.8c-1.7,1.5-3.6,2.8-5.4,4.1c-1.9,1.5-3.7,3.1-5.4,4.8c-0.2,0.2-0.2,0.3-0.1,0.5c0.2,0.2,0.3,0,0.4-0.1
		c1-0.8,1.9-1.7,2.9-2.4c2.5-1.7,4.8-3.7,7.3-5.3C24.1,8.3,25.4,7,27,6c1.2-0.8,2.5-1.5,3.6-2.5c0.2-0.2,0.4-0.4,0.3-0.6
		C30.9,2.6,30.6,2.7,30.3,2.6z M42.7,61.7C38,60,33.2,59.1,28.3,58c-0.1,0.2,0,0.3,0.1,0.4c0.8,1.4,2.3,1.6,3.6,2.2
		c0.5,0.2,1,0.5,1.6,0.5c1.8,0.1,3.6,0.7,5.2,1.4C40.7,63.2,41.1,63.2,42.7,61.7z M55.2,42.1c-5,4.4-10.3,8.4-15.7,12.4
		c1.5,0.2,2.5-0.4,3.4-1.2c1.4-1.1,2.8-2.2,4.2-3.2c1.8-1.3,3.6-2.4,5.2-3.9C53.6,45.2,55.1,44.1,55.2,42.1z M10.5,21.8
		c8.3-5.6,15.8-12.2,24.1-17.6C34.3,4,34,3.8,33.7,3.9c-1,0.6-2.1,1.3-3,2c-1.2,0.8-2.3,1.7-3.4,2.6c-2.2,1.8-4.7,3.1-6.9,4.7
		c-1,0.8-1.8,1.8-2.9,2.6c-1.5,1.2-3.2,2.1-4.6,3.5c-0.6,0.6-1.1,1.4-2,1.5C10.2,21,10.4,21.4,10.5,21.8z M43.5,64
		c0.8,0.1,1.6,0.3,2.4,0.4c1.4,0.2,2.6,1,3.9,1.1c2.2,0.2,4.1,1.3,6.1,2c1.4,0.5,2.9,0.9,4.3,1.2c0.3,0.1,0.6-0.1,0.7-0.4
		c0.1-0.3-0.2-0.4-0.4-0.5c-0.1-0.1-0.3-0.2-0.4-0.2c-4-1.4-7.9-2.9-11.9-4.2c-1.7-0.5-3.2-0.8-4.7,0.3C43.6,63.8,43.6,63.8,43.5,64
		z M39.9,15.6c-0.1,0.6,0,1,0.4,1.7c0.4,0.6,0.7,1.3,1.1,2c0.5,0.9,1.2,1.5,1.6,2.5c0.6,1.4,1.6,2.6,2.4,3.8
		c1.1,1.7,2.5,3.2,3.4,5.1c0.1,0.2,1.5,0.5,1.6,0.3c0.1-0.4,0-0.8-0.3-1.1c-0.5-0.5-0.8-1-1.1-1.6c-1.4-2.7-3.5-5-5.1-7.6
		c-0.9-1.5-2.2-2.9-3-4.5C40.6,15.8,40.4,15.6,39.9,15.6z M11.1,30.5c-0.1,1.3,0.7,1.4,1.7,1.5c1.5,0.1,3,0.2,4.5,0.3
		c1.9,0.1,3.9,0.6,5.8,0.5c2-0.1,4,0.2,6,0.3c1.7,0,3.4,0.2,5,0.3c0.3,0,0.7,0.1,0.8-0.2c0.1-0.3-0.4-0.5-0.6-0.8
		c-0.1-0.2-0.3,0-0.4,0c-1-0.3-2,0-3.1-0.2c-1.2-0.2-2.5-0.1-3.8-0.3c-1-0.1-1.9,0.3-2.9,0.2c-2.8-0.5-5.7-0.5-8.5-0.9
		C14.2,30.9,12.6,30.9,11.1,30.5z M53.6,62.3c1.3-0.1,2.6-0.4,3.9-0.5c1.8-0.2,3.5-0.6,5.3-0.9c0.5-0.1,0.6-0.5,0.7-0.8
		c0.1-0.5-0.4-0.2-0.6-0.3c-0.3-0.2-0.5-0.1-0.8-0.1c-3.5,0.5-7.1,0.7-10.6,1.3c-1.3,0.2-2.6,0.4-3.9,0.6c-0.3,0-0.4,0.2-0.6,0.4
		c-0.1,0.1,0,0.3,0.1,0.3c0.8,0.1,1.6,0.9,2.4,0.5C50.9,62.4,52.3,62.6,53.6,62.3z M11.1,20c0.1-0.1,0.2-0.2,0.4-0.3
		c0.5-0.4,0.8-1,1.3-1.3c2.6-1.5,4.8-3.7,7.3-5.4c2.1-1.5,4.3-2.8,6.3-4.5c1.7-1.4,3.6-2.7,5.4-4c0.3-0.3,0.6-0.6,0.9-0.9
		c0.2-0.2-0.1-0.4-0.2-0.4c-0.4,0.5-1.2,0.3-1.5,1c-0.2,0.5-0.7,0.8-1.3,1.1c-1,0.5-2.1,0.9-2.8,1.7c-1.1,1.1-2.4,2-3.6,2.7
		c-1.7,1-3.2,2.4-4.9,3.5c-1.9,1.2-3.6,2.7-5.4,4.2c-0.6,0.5-1.2,1-1.9,1.5c-0.3,0.2-0.4,0.5-0.3,0.9C10.9,19.8,11,19.8,11.1,20z
		 M66.9,51.6c-0.6,1.5-0.9,3-1.3,4.4c-1,3.5-2.6,6.8-3,10.5c0,0.3-0.3,0.7,0.1,0.8c0.4,0.1,1-0.2,1-0.4c0.1-1,0.7-1.7,0.9-2.6
		c1-2.9,1.5-5.8,2.2-8.7C67.1,54.4,67.8,53.1,66.9,51.6z M59.7,38.6c-0.1,0.2-0.2,0.3-0.3,0.5c-0.9,2.4-1.8,4.7-2.5,7.2
		c-0.5,1.7-1.2,3.4-1.7,5.2c-0.1,0.3-0.3,0.7,0.2,0.7c0.4,0,1.1,0.2,1.2-0.4c0.2-1.8,1.3-3.3,1.8-5.1c0.6-1.8,1.2-3.6,1.8-5.5
		C60.4,40.3,60.3,39.4,59.7,38.6z M34.6,13.6C33.5,14.1,33,15,32.8,16c-0.3,1.6-0.5,3.2-0.7,4.8c-0.3,2.7-0.5,5.4-0.8,8
		c-0.1,0.4,0.1,0.6,0.5,0.6c0.3,0,0.4-0.2,0.4-0.5c-0.1-0.7,0.3-1.2,0.3-1.9c0.2-1.5,0.4-3.1,0.7-4.6c0.4-2.3,0.8-4.6,1.3-6.9
		C34.5,15,34.7,14.4,34.6,13.6z M39.4,18.4c0.4,1.1,0.7,2.1,1.1,3.1c0.6,1.5,1.6,2.7,2.4,4.1c0.9,1.6,2,3.2,3,4.8
		c0.1,0.1,0.1,0.3,0.3,0.3c0.5,0,1,0.1,1.6,0.1C47.4,29.6,40.3,18.8,39.4,18.4z M53.8,55.3c-6.4,1-12.8,1.8-19.3,3.1
		c1,0.6,2,0.6,2.8,0.9c0.1,0,0.4,0,0.4,0c0.8-0.8,1.9-0.6,2.8-0.8c1.6-0.3,3.2-0.5,4.7-0.9c2-0.5,4-1.1,6-1.3
		C52.2,56.3,53.2,56.1,53.8,55.3z M49.6,73.2c-4-1.7-8-3.3-12.2-4.4c0.7,0.8,1.6,1.4,2.3,2.3c0.2,0.2,0.7,0.5,1.2,0.6
		c1.4,0.2,2.6,0.8,3.9,1.3C46.3,73.6,47.8,74.4,49.6,73.2z M11.9,15.4c1.8-1.1,3.2-2.5,4.9-3.6c1-0.7,2-1.5,2.9-2.3
		c2.7-2.2,5.4-4.3,8.2-6.4C28,3,28.3,3,28.1,2.7c-0.1-0.2-0.4-0.1-0.5,0c-0.8,0.6-1.8,0.8-2.5,1.6c-0.5,0.5-1.2,0.9-1.9,1.4
		c-1.9,1.4-3.8,2.8-5.7,4.2c-1.4,1.1-2.7,2.4-4.2,3.4C12.3,13.8,12.3,14.6,11.9,15.4z M32.1,15.5c-1.1,0.3-1.5,1-1.7,2.1
		c-0.6,3.5-0.7,7-0.9,10.6c0,0.3,0.1,0.6,0.2,0.9c0,0.2,0.2,0.2,0.4,0.3c0.2,0,0.2-0.1,0.3-0.3c0.2-1.3,0.6-2.6,0.7-3.8
		c0.1-2,0.6-4,0.7-6.1C31.8,17.9,32.1,16.7,32.1,15.5z M66.9,48.9c0-0.3,0.1-0.6,0-0.9c-0.1-0.9-0.5-1.8-0.7-2.7
		c-0.7-2.7-1.9-5.2-2.9-7.8c-0.6-1.7-1.6-3.3-2-5.1c-0.1-0.4-0.3-0.6-0.7-0.4c-0.4,0.1-0.5,0.5-0.4,0.8c0.1,0.2,0.3,0.4,0.4,0.6
		c0.2,1.6,1,2.9,1.6,4.3c1.2,2.8,2.4,5.5,3.3,8.4C65.8,47,66.4,48.3,66.9,48.9z M59,69.4c-5-2.1-10.1-3.7-15.5-4.7
		c0.1,0.4,0.4,0.4,0.6,0.5c0.8,0.2,1.6,0.4,2.4,0.7c3.3,1.2,6.5,2.8,9.9,4C57.7,70.3,58.2,69.7,59,69.4z M49.1,60.7
		c1.7-0.5,3.3-0.3,4.8-0.7c0.8-0.2,1.8-0.3,2.6-0.4c2-0.3,4-0.4,6-0.8c0.5-0.1,1.5,0,1.7-1.1c-1.2,0-2.4,0-3.5,0.3
		c-1.4,0.3-2.9,0.5-4.3,0.5C53.8,58.4,51.4,58.9,49.1,60.7z M32.9,51.9c-0.2,0-0.5,0-0.7-0.1c-2.5-0.4-5-1-7.6-1
		c-0.9,0-1.8-0.3-2.7-0.4c-0.2,0-0.8-0.1-0.5,0.3c0.3,0.6,0.8,1.1,1.4,1.2c2.2,0.4,4.4,0.9,6.6,0.9C30.7,53,32.1,53.5,32.9,51.9z
		 M62.2,32.5c1.6,5.4,4.4,10.3,5.7,15.8c0-0.5,0.6-0.9,0.4-1.4c-0.3-1-0.5-2.1-0.7-3.2c-0.3-1.4-0.8-2.8-1.4-4.1
		c-0.9-1.9-1.8-3.9-2.7-5.8C63.2,33.3,63,32.7,62.2,32.5z M25.1,3.3c0-0.2-0.1-0.4-0.2-0.3c-0.8,0.8-2,0.6-2.9,1.3
		c-2.5,1.9-4.8,3.9-7.4,5.6c-0.6,0.4-0.9,1-1.3,1.6c-0.1,0.2-0.3,0.5-0.1,0.7c0.2,0.2,0.4-0.1,0.6-0.2c1.5-1.2,2.9-2.4,4.4-3.6
		c2-1.5,4-2.9,6-4.4C24.6,3.8,24.9,3.5,25.1,3.3z M43.8,54c0.4,0,0.8-0.1,1.2-0.1c0.6,0,0.6-0.6,1-0.8c2-0.8,3.7-2.1,5.5-3.3
		c1.5-1,2.2-2.2,2.2-3.7C50.6,48.9,46.8,50.9,43.8,54z M61,29.9c1.1-0.3,2.1-0.4,3.2-0.6c2.2-0.3,4.3-1,6.6-1.2c0.3,0,0.7-0.2,1-0.5
		c0.3-0.2,0.3-0.5-0.1-0.5c-0.7-0.1-1.5-0.3-2.2-0.1c-2.4,0.5-4.8,0.6-7.2,1.2C61.1,28.6,60.9,28.8,61,29.9z M56.3,33
		c0.1,0,0.2,0,0.3,0c0.3,0,0.8,0.1,0.8-0.4c0-0.5-0.5-0.5-0.8-0.4c-0.4,0.1-0.8,0.1-1.1-0.1c-1.2-0.5-2.4-0.3-3.6-0.4
		c-1.7-0.2-3.4,0.1-5-0.3c-1.9-0.4-3.8,0-5.7-0.7c-0.1-0.1-0.3,0-0.5,0c-0.5,0-0.4,0.4-0.4,0.7c-0.1,0.4,0.1,0.6,0.5,0.5
		c0.6-0.2,1.3,0.1,1.9,0c2.3-0.1,4.5,0.2,6.7,0.5C51.7,32.7,54,33.3,56.3,33z M54.2,57.7c0,0.1,0.1,0.2,0.1,0.3c0.2,0,0.4,0,0.6,0
		c3.2-0.1,6.3-0.9,9.5-1.2c0.6,0,0.5-0.8,0.6-1.2c0.1-0.4-0.4-0.3-0.7-0.3c-0.2,0-0.4,0.1-0.6,0.1c-2,0.5-4.1,0.6-6.2,0.9
		C56.2,56.5,55.3,57.3,54.2,57.7z M44.8,30.4c-0.6-0.5-0.7-1.2-1-1.7c-1.3-2.2-2.6-4.4-3.9-6.6c-0.2-0.3-0.2-0.8-0.5-0.7
		c-0.3,0.1-0.3,0.6-0.3,0.9c0,0.1-0.1,0.3,0,0.4c0.6,1.5,0.9,3.1,1.9,4.4c0.5,0.7,1,1.4,1.4,2.1C42.9,30.1,43.6,30.5,44.8,30.4z
		 M27.7,18.5C27,19,26.2,19.1,26,19.8c-0.2,0.8-0.4,1.7-0.4,2.5c-0.1,2.1-0.2,4.1-0.3,6.2c0,0.2-0.1,0.4,0.3,0.4
		c0.3,0,0.7,0.2,0.7-0.3c-0.1-1,0.4-1.8,0.5-2.7c0.2-1.4,0.1-2.7,0.5-4.1C27.5,20.8,27.5,19.7,27.7,18.5z M27.4,27.6
		c0,0.4,0,0.7,0,1.1c0,0.3,0.2,0.4,0.4,0.4c0.2,0,0.5,0,0.5-0.2c-0.2-0.5,0.3-0.8,0.3-1.3c0-1.3,0.1-2.6,0.4-4c0.4-2,0.2-4,0.7-6
		c0.1-0.2,0.1-0.6-0.3-0.4c-0.3,0.2-0.8,0.3-0.9,0.9C28,21.3,27.4,24.4,27.4,27.6z M67.9,54.8c-0.4,0.5-0.5,1-0.7,1.5
		c-0.3,1.4-0.5,2.7-0.9,4c-0.6,1.9-0.9,3.9-1.7,5.8c-0.1,0.2-0.2,0.5,0.2,0.5c0.3,0,0.7-0.1,0.7-0.4c0-1,0.6-1.8,1-2.7
		c0.7-1.6,1.1-3.3,1.5-4.9C68.3,57.5,68.8,56.1,67.9,54.8z M51.2,63.4c1,0.2,1.7,1.1,3.1,0.6c1.4-0.5,3.1-0.5,4.6-0.8
		c1.2-0.2,2.4-0.3,3.6-0.7c0.3-0.1,0.5-0.3,0.4-0.6c-0.1-0.4-0.4-0.2-0.6-0.2c-0.5,0-1.1,0-1.6,0.1C57.6,62.4,54.4,62.9,51.2,63.4z
		 M60.7,42c-0.1,0.2-0.1,0.3-0.1,0.4c-1,2.9-1.9,5.8-2.9,8.7c-0.1,0.2-0.2,0.6,0.1,0.6c0.3,0.1,0.7-0.1,0.7-0.4
		c0.1-0.6,0.6-1.1,0.9-1.7c0.7-1.4,1.1-2.9,1.7-4.3C61.6,44.1,61.4,43.1,60.7,42z M68.9,44.9c0.3-0.3,0.4-0.6,0.6-0.8
		c0.2-0.2,0-0.7-0.1-0.7c-0.9,0.3-0.7-0.5-0.8-0.8c-0.9-3.2-1.9-6.2-3.5-9.1c-0.3-0.5-0.6-0.9-1-1.3C64,32,63.8,31.9,63.6,32
		c-0.2,0.1,0,0.3,0,0.5c0.2,0.8,0.8,1.4,1,2.1C66,38.1,68,41.2,68.9,44.9z M25,21.7c-0.1-0.4,0.2-1-0.3-1c-0.4,0-0.9,0.3-0.9,0.9
		c0,0.2-0.1,0.5-0.2,0.7c-0.4,1.9-0.5,3.8-0.6,5.7c0,0.4-0.3,0.8,0.4,1c0.7,0.1,0.8-0.2,0.9-0.7C24.8,26,24.6,23.7,25,21.7z
		 M69.5,39.2c-0.2-0.6-0.5-1.4-0.7-2.1c-0.2-0.7-0.8,0.6-0.9-0.2c-0.1-0.4,0.7-0.3,0.4-0.9c-0.7-1.5-1.6-2.8-2.3-4.2
		c-0.1-0.2-0.2-0.3-0.4-0.2c-0.2,0.1-0.4,0.3-0.3,0.5c0.3,0.5,0.4,1.1,0.7,1.6c0.7,1.2,1.2,2.5,1.7,3.8c0.5,1.5,1.2,2.9,1.6,4.4
		c0,0.2,0.4,0.6,0.5,0.3c0.2-0.4,0.5-1.3,0.2-1.4C69.1,40.3,69.3,39.9,69.5,39.2z M59.6,51.2c1.6,0,2-1.2,2.4-2.3
		c0.1-0.2,0.2-0.4,0.3-0.6c0.5-1,0.8-2,0-3.1c-0.3-0.4-0.3-0.4-0.5,0c-0.1,0.2-0.2,0.4-0.3,0.6c-0.6,1.6-0.8,3.3-1.8,4.7
		C59.6,50.7,59.6,51,59.6,51.2z M62.1,30.7c0.3,0.4,0.7,0,1,0.1c1.4,0.5,2.7-0.1,4.1-0.2c1.5-0.1,3-0.7,4.5-0.9
		c0.6,0,0.4-0.4,0.4-0.7c0-0.5-0.2-0.3-0.5-0.3c-2.5,0.3-4.9,0.7-7.3,1.5C63.5,30.5,62.8,30.4,62.1,30.7z M62.5,27.3
		c1.4-0.2,2.7-0.5,4.1-0.5c1.5,0,2.9-0.8,4.4-0.5c0.5,0.1,0.7-0.3,0.4-0.8c-0.2-0.4-0.5-0.2-0.8-0.2c-2.7,0.3-5.4,0.7-8,1
		c-0.5,0.1-0.7,0.3-0.7,0.6C61.9,27.2,62.3,27.2,62.5,27.3z M22.9,21.8c-0.5,0.1-0.7,0.4-0.9,0.7c-0.5,1.2-0.7,2.5-0.8,3.8
		c0,0.7-0.4,1.4-0.1,2.1c0.1,0.3,0.2,0.4,0.5,0.4c0.2,0,0.4,0,0.5-0.3c0.4-1.3,0.3-2.8,0.6-4.1C22.9,23.5,22.9,22.6,22.9,21.8z
		 M70.5,39.4c0.1-0.4,0.4-0.9,0.3-1.1c-0.6-1-0.5-2.2-1-3.2c-0.6-1.2-1.3-2.3-2-3.4c-0.3-0.4-0.6-0.4-1-0.3
		C67.9,34.1,69.4,36.6,70.5,39.4z M55.3,64.9c0.3,0.2,0.4,0.3,0.5,0.4c1.3,0.7,2.5,0.1,3.7-0.2c0.7-0.2,1.4-0.5,2.2-0.5
		c0.4,0,0.6-0.5,0.6-0.8c0-0.4-0.4-0.2-0.6-0.2c-0.6,0-1.2,0.1-1.8,0.2C58.5,64.1,57,64.4,55.3,64.9z M69,57.7
		c-0.5,1.2-0.7,2.3-1,3.4c-0.4,1.4-0.8,2.9-1.6,4.2c-0.1,0.2-0.4,0.5,0,0.7c0.4,0.2,0.5-0.2,0.6-0.4c0.4-0.7,1-1.2,1.2-2.1
		c0.3-1.2,0.6-2.5,1.1-3.7C69.7,59,69.5,58.5,69,57.7z M39.3,59.9c0.3,0.2,0.5,0.2,0.8,0.1c1.4-0.3,2.9-0.3,4.2-0.7
		c1-0.2,1.9-0.4,2.9-0.6c1-0.2,1.9-0.6,2.6-1.4c-1.8,0.4-3.5,0.8-5.3,1.2C42.9,59,41,59,39.3,59.9z M69,23.9c-0.6,0-1.1,0-1.7,0.1
		c-1.6,0.3-3.1,0.5-4.7,0.8c-0.2,0-0.4,0.1-0.4,0.4c0,0.2,0.2,0.2,0.4,0.2c0.8-0.2,1.7-0.1,2.5-0.2c1.8-0.2,3.7-0.4,5.5-0.6
		c0.2,0,0.6,0,0.6-0.3c0-0.3-0.3-0.5-0.6-0.5C70.1,23.8,69.5,24,69,23.9z M32.6,62.7c0.3,0.6,0.4,1.5,1,1.5c1.1-0.1,2,0.4,2.9,0.7
		c0.9,0.3,1.3-0.3,2.2-0.8C36.5,63.6,34.5,63.2,32.6,62.7z M58.8,55.3c1.7,0.1,3.1-0.4,4.6-0.7c0.5-0.1,1.1-0.4,1.6-0.6
		c0.3-0.1,0.5-0.3,0.4-0.6c-0.1-0.3-0.4-0.2-0.6-0.2C62.8,53.6,60.7,53.9,58.8,55.3z M46.7,74.6c-0.4-0.5-1-0.2-1.4-0.5
		c-1.2-0.9-2.8-0.9-4.1-1.5c-0.1-0.1-0.3-0.1-0.4,0c-0.1,0.1,0,0.3,0,0.4c0.2,0.4,0.5,0.7,1.1,0.8c1.3,0.3,2.4,0.9,3.7,1.2
		C46.1,75.1,46.3,75,46.7,74.6z M71.2,36.5c0-1.1,0.1-2.1-0.3-3.1c-0.3-0.7-0.9-1.2-1.1-1.9c-0.2-0.6-0.5-0.6-1-0.4
		c-0.6,0.3-0.1,0.6,0,0.8C69.7,33.4,70.4,34.9,71.2,36.5z M19,27.4c0,0.3,0,0.3,0,0.4c0,0.4,0.1,0.7,0.5,0.8c0.5,0,0.2-0.4,0.4-0.6
		c0.6-0.7,0.3-1.6,0.6-2.4c0.2-0.6,0.3-1.3,0.4-2c0-0.2,0.1-0.6-0.3-0.4c-0.4,0.3-1,0.5-1.1,1.1C19.4,25.4,19.2,26.5,19,27.4z
		 M47.8,53.1c0,0.1,0,0.1,0,0.2c1.2-0.1,2.5-0.3,3.7-0.4c0.1,0,0.2-0.1,0.2-0.3c-0.2-0.9,0.3-1.7,0.9-2.6c-1,0.6-1.8,1-2.6,1.5
		C49.3,52.1,48.6,52.6,47.8,53.1z M17.5,28.4c0.4,0.2,0.5,0.2,0.6-0.3c0.2-0.7,0.2-1.5,0.4-2.2c0.1-0.4,0.3-1,0-1.2
		c-0.4-0.1-0.9,0.3-1.2,0.7c-0.2,0.3-0.4,0.8-0.4,1.2c0,0.4,0,0.7-0.1,1.1C16.8,28.3,16.8,28.7,17.5,28.4z M30.4,53.9
		c-0.1-0.1-0.2-0.2-0.3-0.2c-1.9-0.2-3.8-0.5-5.7-0.4c-0.3,0-0.5-0.7-0.7-0.1c-0.1,0.3,0.4,0.5,0.6,0.8c0.1,0.1,0.3,0.1,0.4,0.1
		c0.7,0,1.4-0.2,2.1,0.3c0.3,0.2,0.6,0,0.9-0.1c0.5-0.2,1.1-0.4,1.4-0.1C29.7,54.7,30,54.2,30.4,53.9z M39.7,26.8
		c-0.2,1.2,0.4,2.1,0.5,3.1c0,0.3,1.5,0.5,1.7,0.4C42,30.1,42,30,42,30C41.1,29,40.9,27.6,39.7,26.8z M66.8,21.9
		c0.6,0.1,1.2-0.1,1.8-0.2c0.2,0,0.6,0.2,0.5-0.4C69,20.9,68.8,21,68.5,21c-1.4-0.1-2.8,0.5-4.2,0.5c-0.2,0-0.6,0-0.6,0.3
		c0,0.4,0.4,0.3,0.6,0.3C65.2,22.2,66,21.7,66.8,21.9z M48.6,16.1c-1.8-3.3-3.6-5.4-4.9-6C45.4,12.2,46.9,14.3,48.6,16.1z
		 M70.4,22.9c-0.1-0.5-0.5-0.5-0.9-0.5c-1.2-0.1-2.3,0.4-3.5,0.3c-0.2,0-0.6,0.2-0.5,0.5c0.1,0.3,0.4,0.3,0.7,0.2
		c0.5-0.2,1.1-0.3,1.7-0.3C68.8,23.2,69.6,23.2,70.4,22.9z M63.3,47.7c-0.3,1-0.6,1.8-0.9,2.6c-0.2,0.5,0.1,0.5,0.4,0.4
		c0.9-0.1,1.1-0.9,1.3-1.5C64.3,48.7,63.8,48.2,63.3,47.7z M28.6,55.2c-1.1-0.1-2.2-0.2-3.3-0.4c0.3,0.8,1.1,1.2,1.5,1.8
		c0.1,0.1,0.3,0.1,0.3,0C27.3,55.9,28.2,55.8,28.6,55.2z M58.9,66.3c0.9,0.4,1.7,0.7,2.4,1c0.2,0.1,0.3,0.1,0.4-0.1
		c0.3-0.6,0-1.1-0.6-1.2C60.4,65.8,59.7,65.9,58.9,66.3z M68.6,64.7c1.4-1.1,1.8-2.8,1.2-4.1C69.6,62,69,63.2,68.6,64.7z M16.4,26.1
		c-1.1,0.4-1.3,0.9-1.2,1.8c0.2,0.8,0.7,0.5,1.1,0.5C16.2,27.6,16.3,26.9,16.4,26.1z M64.7,20.6c1.1,0.1,2,0.1,3-0.3
		C66.1,19.4,65.8,19.4,64.7,20.6z M42.4,60.6c1.3,0.8,1.7,0.7,3-0.6C44.3,60.3,43.4,60.4,42.4,60.6z M71.5,33c0.1,0,0.1,0,0.2,0
		c0-0.4,0-0.8,0.1-1.2c0.2-1.1,0.2-1.1-1-1.1c-0.1,0-0.1,0.1-0.2,0.1C70.9,31.6,71.2,32.3,71.5,33z M39.6,63.6
		c-1.5-0.8-3.7-1.3-4.5-1.2C36.5,62.9,38,63.3,39.6,63.6z M44.4,75.5c-0.8-0.4-1.5-0.7-2.4-0.8C42.5,75.4,43.7,75.9,44.4,75.5z
		 M65.3,23.3c-0.9-0.6-1.6,0-2.3,0.1C63.7,23.6,64.5,23.9,65.3,23.3z M64.4,52.5c1.5-0.2,1.5-0.2,1.6-0.9
		C65.5,51.8,64.9,51.9,64.4,52.5z"/>
	<path d="M40.4,34.2c1-0.1,1.9,0.2,2.8,0C42.7,34.6,41.4,34.6,40.4,34.2z"/>
</g>
</svg>
