<?xml version="1.0" encoding="utf-8"?>
<!-- Generator: Adobe Illustrator 19.1.0, SVG Export Plug-In . SVG Version: 6.00 Build 0)  -->
<svg version="1.1" id="Layer_1" xmlns="http://www.w3.org/2000/svg" xmlns:xlink="http://www.w3.org/1999/xlink" x="0px" y="0px"
	 width="80px" height="80px" viewBox="0 0 80 80" enable-background="new 0 0 80 80" xml:space="preserve">
<g>
	<path d="M32.6,22.1c-1,0.1-1.8-0.3-2.6-0.5c-0.8-0.2-1.7-0.6-2.5-0.9c-1.9-0.7-3.6-1.8-5.1-3.2c-0.7-0.6-1.1-1.5-1.3-2.4
		c-0.1-0.6-0.1-1.2-0.2-1.8c0-0.2,0-0.6,0.2-0.7c0.8-0.5,1.2-1.4,2.2-1.7c1.1-0.3,2.2-1,3.3-1.4c1.3-0.6,2.7-0.3,4-0.4
		c3-0.2,5.8,0.6,8.7,1.2c1.7,0.4,3.4,0.9,5,1.3c1.8,0.5,3.6,0.8,5.4,1.3c1.2,0.3,2.4,0.4,3.7,0.4c1,0,2.1-0.3,2.9-0.9
		c1.7-1.3,3.6-1.9,5.6-2.6c2-0.7,5.2,0.2,6,1.9c1.5,3,3.1,5.9,4.5,8.9c0.6,1.3,1,2.7,1.5,4c0.6,1.7,1.2,3.5,2.4,4.9
		c0.1,0.1,0.3,0.3,0.2,0.5c-0.3,1.2,0.8,2,0.8,3.1c0,0,0,0.1,0,0.1c1,1.2,0.9,2.7,1.3,4.2c0.2,1-0.3,1.9-0.9,2.6
		c-0.6,0.8-1.6,1.4-2.5,1.7c-1.1,0.4-1.8,1-2.7,1.6c-1.8,1.1-2.9,2.9-4.2,4.4c-1.2,1.4-2.5,2.6-3.9,3.8c-1.3,1-2.3,2.3-3.5,3.4
		c-1.8,1.6-2.9,3.9-5.1,5.1c-1.1,0.7-2,1.9-3.1,2.4c-1.2,0.5-1.8,1.6-3.1,1.9c-0.5,0.1-0.7,0.6-1,0.9c-2.6,1.9-5.3,3.4-8.4,4.4
		c-2.8,1-5.6,1.4-8.5,1.7c-0.3,0-0.5,0.1-0.7,0.3c-0.2,0.2-0.5,0.2-0.6,0.1c-0.6-0.6-1.3-0.2-1.9-0.2c-1.8,0-3.6-0.2-5.4-0.3
		c-2.2-0.1-4.2-0.7-6.2-1.3c-1.1-0.3-2.1-0.9-3-1.5c-1.9-1.2-3.5-2.7-5.1-4.2c-2-1.9-3.5-4.2-4.5-6.7c-0.3-0.8,0-1.6-0.2-2.4
		C3.3,53,3.5,51.1,4,49.3c0.4-1.4,0.8-2.8,1.3-4.1c0.9-2,2.1-3.9,3.5-5.5c1.4-1.7,2.8-3.4,4.5-4.9c1.6-1.4,3.2-2.9,4.9-4.1
		c1.1-0.7,2.1-1.5,3.2-2.2c3.4-2.2,7.2-3.9,10.6-6C32.2,22.3,32.5,22.4,32.6,22.1z M25.2,11c0.4,0,0.9-0.2,1.3-0.1
		c0.8,0.2,1-0.1,0.8-0.9C26.7,10.5,25.7,10.1,25.2,11c-0.5,0-1.1,0-1.4,0.4c-0.3,0.4,0.1,0.7,0.3,1.2C24.5,12,24.4,11.2,25.2,11z
		 M25.2,62c0-0.4,0-0.9,0.6-1c0.3-0.1,0.3-0.4,0.3-0.7c0-0.4-0.3-0.2-0.5-0.4c-0.4-0.4-1.3-0.2-1.5-0.9c-0.4-0.6,0.4-0.6,0.5-0.9
		c0.4-0.6,0.3-1.4-0.3-1.6c-0.4-0.1-0.9-0.2-1.4-0.3c-0.4-0.1-0.5,0.1-0.3,0.4c0.3,0.7,0.7,1.4,1,2.1c0.1,0.3,0.3,0.3,0.5,0.2
		c-0.2,0.3,0,0.6,0.1,0.8C24.6,60.6,24.9,61.3,25.2,62c0.3,0.3,0.6,0.8,0.7,1.2c0.2,0.8,0.5,1,1.3,0.7c0.3-0.1,0.7-0.1,0.7-0.6
		c0-0.4-0.1-0.7-0.5-0.9C26.6,62.3,26,61.8,25.2,62z M48.7,20.1c-0.9-0.9-1.3-2.1-2-3.2c-0.4-0.6-0.8-0.7-1.3-0.3
		c-0.4,0.3-1.1,0.2-1.3,0.6c-0.3,0.5,0.5,0.8,0.6,1.3c0.1,0.3,0.3,0.6,0.5,0.9c0.2,0.3,0.3,0.6,0,0.7c-0.3,0.2-0.5-0.1-0.6-0.3
		c-0.3-0.6-0.6-1.3-0.9-2c-0.1-0.2-0.3-0.6-0.5-0.4c-0.5,0.5-1.3,0.4-1.8,0.9c0,0,0.1,0.2,0.2,0.3c0.5,0.9,1.1,1.8,1.6,2.7
		c0.5,0.8,0.9,1.7,1.3,2.5c-0.7-0.5-1-1.3-1.5-2c-0.7-1-1.3-2.1-2.3-2.9c-0.5-0.4-0.8,0.1-1.1,0.2c-0.4,0.1-0.1,0.4-0.1,0.7
		c0.1,0.7,0.9,1.2,0.9,1.9c-0.8-0.2-1.3-0.8-1.7-2.1c-1.8,0.7-1.9,0.8-0.8,2.4c0,0,0,0,0.1,0.1c0.5,0.7,1,1.5,1.5,2.2
		c-0.1,0.1-0.2,0.1-0.2,0.2c-0.8-0.9-1.7-1.7-2.4-2.7c-0.5-0.8-0.9-0.1-1.2,0c-0.4,0.1-0.7,0.4-0.3,1c0.6,0.9,1,1.8,1.5,2.7
		c-0.1,0.1-0.1,0.1-0.2,0.2c-0.6-1.3-1.9-1.9-2.3-3.3c-0.3,0.4-1,0.3-1.1,0.7c-0.1,0.4,0.4,0.8,0.6,1.3c0.2,0.3,0.3,0.7,0.6,1
		c0.2,0.2,0,0.4-0.1,0.6c-0.4-0.9-1.5-1.4-1.5-2.6c0-0.2-0.3-0.3-0.4-0.2c-0.2,0.2-0.5,0.3-0.8,0.4c-0.4,0.3-0.7,0.5-0.2,1
		c0.6,0.8,1.1,1.8,1.6,2.7c-0.8-0.7-1.4-1.5-2.1-2.3c-0.3-0.4-0.8-0.7-1.3-0.3c-0.4,0.3,0,0.6,0.1,0.9c0.1,0.4,0.4,0.7,0.6,1.1
		c0.2,0.4,0.5,0.7,0.5,1.2c-0.8-0.6-1.2-1.5-1.7-2.2c-0.1-0.2-0.2-0.8-0.7-0.4c-0.4,0.3-0.7,0.5-0.3,1.1c0.3,0.4,0.5,0.8,0.8,1.2
		c0.6,1.1,0.8,2.5,1.6,3.4c1.2,1.5,1.7,3.3,2.8,4.9c1,1.3,1.6,3,2.3,4.5c2.2,4.2,4.8,8.1,7.1,12.2c1.9,3.2,3.9,6.4,5.7,9.6
		c0.2,0.3,0.4,0.7,0.7,0.6c0.5-0.1,0-0.5,0.1-0.8c0.1-0.2-0.1-0.5,0.3-0.6c0.3-0.1,0.3,0.2,0.4,0.4c0.1,0.3,0.3,0.5,0.6,0.3
		c0.4-0.3,1.1-0.3,0.9-0.9c-0.2-0.8-0.1-1.7-0.8-2.3c-0.3-0.3-0.6-0.8-0.8-1.3c-0.1-0.4-0.3-0.8,0.1-0.9c0.4-0.1,0.5,0.3,0.6,0.6
		c0.3,0.8,0.5,1.6,1.1,2.2c0.5,0.4,0.6,0.9,0.6,1.6c0.6-0.4,1.1-0.9,1.6-1.3c0.4-0.3,0.3-0.6,0.1-0.8c-0.6-0.7-0.7-1.8-1.4-2.5
		c-0.2-0.2-0.4-0.6-0.4-1c0-0.2-0.2-0.5,0.1-0.6c0.3-0.1,0.5,0.1,0.6,0.3c0.3,1.1,1.2,2,1.7,3c0.3,0.6,0.7,0.7,1.2,0.1
		c0.2-0.3,0.6-0.3,0.8-0.6c-0.9-0.6-1.1-1.7-0.6-2.6c0.5,0.7,1,1.2,1.2,2.1c0.6-0.7,1.5-1.2,0.6-2.2c-0.1-0.1-0.1-0.2-0.1-0.3
		c-0.1-0.3-0.2-0.7,0.1-0.8c0.4-0.2,0.5,0.3,0.6,0.5c0.5,0.9,0.5,0.9,1.2,0.1c1.2-1.3,2.5-2.5,3.7-3.7c0.7-0.7,1.9-1,1.5-2.4
		c-0.1-0.2,0-0.4,0.3-0.5c0.4-0.1,0.2,0.3,0.3,0.4c0.3,0.2,0.6,0.5,0.9-0.1c0.2-0.3,0.1-2-0.2-2.3c-0.8-0.7-1-1.6-1.5-2.4
		c-0.2-0.4-0.6-0.9-0.4-1.4c0.3,0,0.4,0.2,0.5,0.4c0.6,1.4,1.5,2.5,2.1,3.8c0.1,0.3,0.2,0.9,0.8,0.5c0.4-0.3,0.8-0.7,0.2-1.2
		c-0.4-0.3-0.3-0.8-0.6-1.2C67,44.4,67,44,67.4,43.9c0.3-0.1,0.3,0.3,0.4,0.5c0.2,0.4,0.4,1,0.8,1.2c0.4,0.1,0.6-0.5,0.9-0.8
		c0.3-0.2,0.3-0.6,0.7-0.8c0.2-0.1,0.3-0.6,0.2-0.8c-0.5-0.7-0.5-1.7-1.1-2.4c-0.9-1-1.4-2.3-2-3.4c-0.7-1.4-1.7-2.7-2.2-4.2
		c-0.4-1.2-1.2-2.2-1.9-3.2c-1.4-2.1-2.5-4.4-3.8-6.5c-1.5-2.3-2.6-4.8-3.6-7.3c-0.3-0.7-0.8-1.3-1.4-1.8c-0.5-0.5-1.1-0.3-1.4-0.1
		c-0.3,0.2,0.2,0.6,0.4,0.9c0.2,0.4,0.6,0.7,0.4,1.4c-0.5-0.7-0.8-1.4-1.2-2c-0.4-0.6-1-0.5-1.4-0.2c-0.5,0.3,0,0.7,0.2,1
		c0.5,0.8,0.9,1.7,1.4,2.5c-0.7-0.8-1.4-1.7-1.9-2.6c-0.5-0.9-1-0.3-1.4-0.1c-0.7,0.2-0.2,0.7-0.1,0.9c0.7,0.9,0.9,2.1,1.7,3
		c0.1,0.1,0.4,0.4,0.1,0.5c-0.3,0.2-0.3-0.1-0.5-0.3c-0.7-1.1-1.4-2.2-2.1-3.3c-0.3-0.4-0.5-0.5-1-0.2c-0.7,0.4-0.4,0.8-0.1,1.2
		C47.9,17.9,48.3,19,48.7,20.1z M23.9,66.4c0.1,0.2,0.2,0.3,0.3,0.5c0.4,1,0.7,2,0.9,3c0.1,0.5,0.5,0.5,0.9,0.4
		c0.4,0,0.2-0.3,0.1-0.5c-0.5-1.6-0.9-3.3-1.6-4.8c-1.1-2.7-2.5-5.2-3.9-7.7c-1.4-2.5-2.2-5.3-3.7-7.8c-1.5-2.8-3.1-5.5-4.8-8.2
		c-0.4-0.7-0.7-1.4-1.3-2c-0.2-0.2-0.4-0.6-0.8-0.1c-0.2,0.3-0.6,0.4-0.2,0.9c0.6,0.7,1.1,1.5,1.7,2.2c-0.8-0.3-1-1.1-1.7-1.6
		c-0.3-0.2-0.4-0.8-0.9-0.3c-0.3,0.3-0.6,0.6-0.1,1.1c0.5,0.5,0.8,1.2,0.9,1.9c-0.6-0.3-0.9-0.9-1.2-1.4c-0.1-0.2-0.2-0.4-0.5-0.3
		c-0.5,0.2-1,1.4-0.7,2c0.4,0.7,0.8,1.5,1,2.4C8,45.5,7.6,44.6,6.8,44c-0.2,0.3-0.3,0.6-0.4,0.9c-0.2,0.5-0.5,0.9,0.1,1.6
		c0.7,0.7,1.3,1.6,1.4,2.7c-0.8-0.8-1.2-1.9-2.2-2.6c-0.2,0.5-0.5,0.8-0.5,1.3c-0.1,0.9,0.3,1.5,0.8,2.2c0.3,0.5,0.7,1.1,0.8,1.7
		c-0.6-0.7-1.1-1.5-2.1-2.2c0.1,0.7-0.1,1.3-0.3,1.8c-0.1,0.4,0,0.8,0.4,1.2c0.9,0.9,1.5,2.1,2.1,3.3C6.9,56,7,56.2,6.7,56.2
		c-0.5-0.7-1-1.4-1.6-2.2c-0.1-0.1-0.2-0.3-0.4-0.2c-0.2,0.1-0.2,0.3-0.2,0.4c0.3,1.4,0.2,3,1,4.3c1.4,2.4,3.3,4.4,5.3,6.3
		c0.1,0.1,0.2,0.2,0.3,0c0.1-0.3-0.5-0.9,0-1c0.5-0.2,0.5,0.5,0.7,0.8C12,64.8,12,64.9,12,65c0.5,1.4,1.6,2.2,3,2.9
		c-0.1-1-0.9-1.7-0.4-2.6c0.5,0.8,0.9,1.5,1.1,2.3c0.2,0.6,0.6,1,1.1,1.2c0.2,0.1,0.5,0.1,0.7,0c0.2-0.2,0-0.4-0.1-0.6
		c-0.2-0.4-0.5-0.8,0-1.3c0.8,1,0.7,2.8,2.5,2.8c-0.4-1.3-1.4-2.4-1.6-4.1c0.7,0.5,0.7,1.1,0.9,1.5c0.8,1.3,0.8,3.4,3.1,3
		c0,0,0.1,0,0.1-0.1c0-0.3-0.2-0.5-0.3-0.7c-0.1-0.2-0.2-0.6,0.1-0.7c0.3-0.1,0.4,0.3,0.4,0.5c0.2,0.9,0.6,1.4,1.6,1.1
		C24.8,68.8,23.6,67.8,23.9,66.4z M46.1,63.3c-0.3,0.5,0,0.9,0,1.3c0,0.2,0,0.5,0.2,0.5c0.3,0,0.6,0,0.8-0.2c0.3-0.4,0.5-0.9,1-1.1
		c0.2-0.1,0.1-0.4,0-0.6c-0.7-1.3-1.4-2.6-2.2-3.8c-1.6-2.7-3.2-5.3-4.8-8.1c-0.9-1.6-1.8-3.2-2.8-4.7c-1.4-2.1-2.6-4.2-3.8-6.4
		c-0.9-1.7-1.8-3.3-2.7-5c-1.2-2.5-2.7-4.8-3.8-7.3c-0.3-0.6-0.8-1.1-0.8-1.9c-1.2,0.4-1.4,0.8-0.9,1.6c0.1,0.2,0.2,0.3,0.3,0.4
		c1.6,2.9,3.2,5.9,4.9,8.8c2.1,3.7,4.1,7.4,6.2,11.1c1.7,3.1,3.5,6.2,5.4,9.2c1.2,1.9,2.6,3.7,3.6,5.8c0.2,0.5,0.4,0.9,0.2,1.5
		C46.4,64.3,46.6,63.5,46.1,63.3z M27.5,70.4c0.8,0,0.9-0.2,0.6-0.9c-0.5-1.2-1-2.3-1.6-3.5c-0.6-1.2-0.8-2.5-1.5-3.6
		c-0.5-0.9-1-1.9-1.4-2.8c-1.3-2.7-2.4-5.5-4-8.1c-1-1.5-1.7-3.2-2.6-4.8c-1.2-2.1-2-4.4-3.3-6.4c-0.5-0.7-0.7-1.6-1.5-2.2
		c-0.2-0.1-0.5-0.5-0.7-0.2c-0.2,0.3,0,0.6,0.1,0.8c1,1.6,2,3.2,3.1,4.8c1.6,2.6,2.9,5.3,4,8.1c0.5,1.2,0.8,2.5,1.5,3.6
		c1.6,2.6,2.7,5.5,4.2,8.2c1.2,2,1.4,4.3,2.4,6.4C27,70.3,27.1,70.5,27.5,70.4z M28,31.3c-0.5-0.6-0.5-1.5-1.3-2.1
		c0.2,0.6-0.1,0.9-0.3,1.2c-0.2,0.5-0.4,1.1,0.1,1.5c0.8,0.7,1.7,1.3,1.8,2.6c0.9-0.8,0.3-1.4,0-2c-0.3-0.6-0.9-1.1-1.3-1.6
		c0,0,0.1-0.1,0.1-0.1C27.4,31,27.7,31.1,28,31.3z M58.4,12.1c1.1,0.3,1.5,0.7,1.5,1.8c0,0.2-0.1,0.4,0,0.5c0.2,0.1,0.4,0,0.6-0.2
		c0.2-0.2,0.5-0.2,0.6-0.4c0.2-0.3,0.6-0.5,0.5-1C61.1,11.9,59.1,11.5,58.4,12.1z M42.7,63.2c0.8,1,1.7,1.8,1.2,3.1
		c-0.1,0.3,0.3,0.3,0.3,0.3c0.1-0.4,1.3,0,0.6-0.9c-0.1-0.2,0-0.4,0.2-0.5c0.3-0.3,0.2-0.7,0-1C44.5,63.2,43.9,63,42.7,63.2z
		 M36.2,64.7c1.4-0.2,1.8-1.5,1.2-2.1c-0.4-0.4-1-0.8-1.6-0.9c-0.2,0-0.6-0.2-0.7,0.2c-0.1,0.3,0.2,0.4,0.5,0.4
		c0.2,0,0.3,0.2,0.3,0.4C36.2,63.4,36.3,64,36.2,64.7z M30.9,55.7c0.6-0.3,1-0.6,0.8-1.3c-0.2-0.8-0.6-1.4-1.5-1.4
		c-0.2,0-0.6-0.3-0.7,0.2c-0.1,0.3-0.2,0.7,0.2,0.9C30.3,54.4,30.5,55.1,30.9,55.7z M20.6,33.6c0,0.2-0.1,0.4,0.2,0.5
		c0.2,0.1,0.3-0.1,0.4-0.3c0.2-0.4,0.3-0.8,0.6-1.2c0.2-0.3,0.5-0.6,0.3-1c-0.2-0.4-0.7-0.5-1.1-0.5c-0.3,0-0.8,0.2-1-0.2
		c-0.3-0.6-0.5-0.1-0.8,0c-0.1,0-0.4,0.1-0.3,0.4c0.2,0.3,0.5,0.4,0.8,0.3c0.9-0.1,1.3,0.4,1.1,1.3C20.8,33,20.7,33.3,20.6,33.6z
		 M21.9,29.2c0.6,0.1,1.1,0.3,1.7,0.4c0.4,0.1,0.6,0.2,0.8,0.5c0.5,0.6,0.3,1.1,0.1,1.6c-0.1,0.2-0.2,0.3,0.1,0.4
		c0.1,0,0.2,0.1,0.3-0.1c0.3-1,0.3-2-0.3-2.9C23.8,28,22.7,28,21.9,29.2z M33.9,45.7c0-0.8-0.6-1.4-0.7-2.2c0,0-0.2-0.1-0.3-0.1
		c-0.5,0-1,0-1.5-0.2c-0.3-0.1-0.6,0.1-0.6,0.4C30.7,44,31,43.9,31.2,44c0.9,0.4,1.8,0.7,2,1.8c0,0.1-0.1,0.5,0.3,0.4
		C33.9,46.2,34,46,33.9,45.7z M30.6,42.3c0-0.9-1.7-2.3-2.5-2.2c-0.2,0-0.4,0.2-0.4,0.4c0,0.3,0.1,0.5,0.4,0.5
		c0.9,0.1,1.2,0.8,1.6,1.5c0.1,0.2,0.2,0.6,0.4,0.5C30.4,42.9,30.6,42.6,30.6,42.3z M25.1,40.9c0-1.2-0.7-2-1.8-2
		c-0.2,0-0.5-0.1-0.6,0.3c-0.1,0.3,0.1,0.4,0.3,0.6c0.5,0.3,1,0.8,1.2,1.4c0.1,0.3,0.3,0.6,0.6,0.5C25.2,41.6,25.1,41.2,25.1,40.9z
		 M66.9,25c0.7-0.5,0.5-1.2,0.7-1.7c0.1-0.5,0-0.9-0.4-1.2c-0.4-0.3-1-0.3-1.5-0.2c-0.2,0-0.3,0.3-0.1,0.4
		C66.5,22.8,66.6,23.9,66.9,25z M27.4,36.2c0.6,0.1,1,0.3,1.1,0.8c0.1,0.6,0.5,1.1,0.1,1.8c-0.1,0.2-0.1,0.4,0.2,0.6
		c0.1,0,0.2,0,0.2,0c0.9-0.5,1.1-1.5,0.5-2.4C28.9,36.1,28.2,35.8,27.4,36.2z M33.2,68.7c0-0.5-1-1.6-1.5-1.7c-0.1,0-0.3,0-0.3,0.1
		c-0.2,0.2,0,0.3,0.1,0.4c0.7,0.7,0.6,1.4,0,2.2c-0.1,0.1-0.3,0.2-0.2,0.4c0.1,0.1,0.3,0.1,0.4,0.1C32.3,70.2,33.2,69.2,33.2,68.7z
		 M25.6,36.5c-0.4-0.1-0.6,0.1-0.7,0.5c-0.1,0.5,0.4,0.2,0.6,0.3c0.7,0.2,1.3,0.4,1.5,1.1c0.1,0.2,0.1,0.6,0.5,0.5
		c0.4-0.1,0.4-0.4,0.3-0.8C27.5,37,27.1,36.6,25.6,36.5z M63.9,13.8c0.7,0.8,1.1,1.5,0.8,2.5c0,0.2-0.1,0.4,0.1,0.4
		c0.2,0.1,0.3,0,0.5-0.2c0.5-0.5,0.9-1.2,0.7-1.9c-0.2-0.7-0.9-0.6-1.4-0.7C64.4,13.8,64.2,13.8,63.9,13.8z M60.4,11.2
		c0.9,0.7,0.9,0.7,1.7,2c0.2,0.3,0.3,0.2,0.4,0.1c0.3-0.3,0.9-0.4,0.8-1.1c-0.2-0.6-0.5-1-1.2-1C61.5,11.2,61,11.3,60.4,11.2z
		 M25.9,32.6c-0.1,0.4,0.3,0.5,0.3,0.8c0,0.6,0.2,1.3,0.1,1.9c-0.1,0.4,0.2,0.4,0.3,0.5c0.2,0.1,0.4,0.1,0.5-0.1
		C27.9,34.3,27.4,33.2,25.9,32.6z M24,27.8c0.9,0.3,1.4,1,1.6,1.7c0.1,0.2,0.1,0.4,0.4,0.4c0.2,0,0.2-0.2,0.3-0.4
		c0-0.2,0.1-0.4,0.1-0.7C26,27,25.8,26.8,24,27.8z M66.6,34.2c0.4-0.4,0.3-0.8,0.4-1.2c0.3-1.1,0-1.4-1-1.6
		c-0.7-0.1-0.7,0.2-0.5,0.7C65.6,32.8,66,33.5,66.6,34.2z M61.1,18c1.2-0.5,1.6-1.3,1.1-2.3c-0.2-0.5-0.6-0.5-1.1-0.4
		c-0.2,0.1-0.6,0.1-0.4,0.4C61.4,16.4,60.9,17.2,61.1,18z M67.6,33.5c1.1-0.9,1-1.5,0-3c-0.3-0.5-1.3-0.5-2.4,0
		c0.7,0.3,1.4,0.4,2,0.8C67.9,31.8,67.8,32.5,67.6,33.5z M22.5,33.1c0.4,0,0.4-0.3,0.6-0.4c0.5-0.4,0.8-0.9,0.7-1.5
		c-0.1-0.7-0.8-0.8-1.4-0.9c-0.3,0-0.6-0.2-0.8-0.1c-0.4,0.1-1-0.5-1,0.1c0,0.5,0.7,0.3,1,0.3c0.6-0.1,1,0.3,1.3,0.7
		c0.2,0.3,0.2,0.8-0.1,1.2C22.5,32.5,22.4,32.8,22.5,33.1z M47.2,13.1c-0.5,0-1,0.1-1,0.5c0,0.6,0.4,1.3,1.1,1.3
		c0.3,0,1-0.1,1.1-0.5C48.5,13.6,48,13.1,47.2,13.1z M72.4,24.8c0-0.8-0.8-1.4-1.6-1.3c-0.2,0.1-0.5,0.1-0.6,0.4
		c-0.1,0.3,0.3,0.3,0.5,0.4c0.5,0.1,0.6,0.5,0.6,1c0,0.3-0.3,0.8,0.1,0.8c0.4,0,0.6-0.5,0.8-0.8C72.4,25.2,72.4,24.9,72.4,24.8z
		 M42.6,61.4c1.1-0.9,1.1-1.2,0.5-2.4c-0.2-0.3-0.2-0.7-0.7-0.5c-0.4,0.2-0.5,0.5-0.4,0.9C42.2,60.2,42.4,60.8,42.6,61.4z
		 M46.1,14.6c-0.4-0.6-0.6-1.1-0.3-1.7c0.1-0.1,0.1-0.4-0.1-0.4c-0.3,0-0.8-0.5-1-0.1c-0.2,0.4-1,0.6-0.5,1.5
		C44.8,14.8,45.4,14.2,46.1,14.6z M65.9,24.3c0-0.9-0.5-1.5-1.2-1.3c-0.2,0.1-0.6,0.1-0.3,0.5c0.4,0.6,0.4,1.2,0.4,1.9
		c0,0.3,0.3,0.5,0.4,0.2C65.3,25.2,66,25,65.9,24.3z M55.2,13.9c0.7,0.6,0.9,1.3,1.1,2c0.1,0.3,0.3,0.6,0.6,0.3
		c0.4-0.4,0.6-0.9,0.4-1.5c-0.2-0.5-0.6-0.8-1.1-0.8C55.9,13.8,55.7,13.9,55.2,13.9z M59,18.4c0-0.6-0.5-1-1-1.4
		c-0.1-0.1-0.4-0.3-0.7,0c-0.2,0.2-0.1,0.4,0,0.7c0.2,0.4,0.3,0.9,0.6,1.2c0.1,0.2,0,0.7,0.5,0.6C58.9,19.3,59,19,59,18.4z M65.6,18
		c0.3,0.8,0.7,1.4,0.5,2.3c0.5-0.4,0.8-0.6,1.1-0.8c0.8-0.7,0.7-1.1-0.3-1.5C66.4,17.9,66,17.9,65.6,18z M33.5,16.1
		c-0.2,0-0.4,0-0.5,0.1c-0.5,0.4-0.3,2.1,0.3,2.3c0.3,0.1,0.3-0.1,0.4-0.3c0.1-0.4,0.1-0.9,0.4-1.2C34.7,16.2,33.9,16.3,33.5,16.1z
		 M62.8,26.9c0.1,0,0.1,0,0.2,0.1c0-0.4,0.4-0.4,0.6-0.6c0.8-0.7,0.5-2.2-0.5-2.6c-0.2-0.1-0.6-0.1-0.4,0.2c0.5,0.8,0.4,1.6-0.1,2.4
		C62.6,26.4,62.7,26.7,62.8,26.9z M41.6,11.8c0-0.2-0.1-0.3-0.3-0.4c-0.3-0.1-0.7-0.3-1-0.3c-0.5-0.1-1,0.1-1.1,0.6
		c-0.1,0.5,0.5,0.3,0.7,0.4c0.3,0.2,0.5,0.3,0.8,0.4C41.3,12.9,41.5,12.5,41.6,11.8z M19.8,36c-0.2,0.2-0.6-0.4-0.8,0.2
		c-0.2,0.6,0.4,0.3,0.5,0.5c0.2,0.3,0.6,0.4,0.8,0.7c0.1,0.2,0.2,0.6,0.6,0.3c0.3-0.2,0.5-0.4,0.4-0.8C21.2,36,20.5,36.1,19.8,36z
		 M12.4,36.8c0.7,0.3,1.4,0.3,1.9,1c0.1,0.2,0.4,0.3,0.6,0c0.2-0.2,0.5-0.6,0.1-0.8c-0.4-0.2-0.4-1.4-1.3-0.6
		C13.5,36.5,12.7,36,12.4,36.8z M25.8,42.7c-0.2,0-0.6,0-0.7,0.3c-0.1,0.3,0.4,0.4,0.6,0.4c0.7,0,0.6,0.6,1,1c0.1,0.1,0,0.5,0.4,0.4
		c0.3-0.1,0.4-0.3,0.4-0.5C27.7,43.1,27.3,42.7,25.8,42.7z M58.2,15.5c0.7-0.5,1.2-1.2,0.9-1.9c-0.3-0.9-1.4-0.4-2.1-0.6
		C57.9,13.6,58,14.6,58.2,15.5z M62.4,14.5c0.5,0.9,0.5,0.9,0.6,2.1c0,0.2-0.2,0.6,0.2,0.6c0.4,0,0.6-0.2,0.8-0.5
		C64.5,15.6,63.8,14.6,62.4,14.5z M16.3,41.8c0.5-0.5,1.2-0.7,1-1.4c-0.2-0.9-2-1.6-3-1.2C16,39.2,16.2,40.4,16.3,41.8z M30.1,39.8
		c0.7,0.7,0.7,0.7,1.4,2.3c0.1,0.3,0.2,0.5,0.6,0.5c0.3,0,0.4-0.2,0.4-0.5C32.5,41.1,31.2,39.8,30.1,39.8z M33.6,69.9
		c0.5-0.2,0.9-0.2,1.3-0.3c0.2,0,0.5-0.1,0.6-0.4c0.1-0.7-1-1.8-1.8-1.7C34.4,68.3,34.1,69.1,33.6,69.9z M32.6,57.8
		c0-0.7-0.3-1.1-0.9-1.3c-0.4-0.1-0.8,0.6-1.3,0.3c-0.1,0-0.1,0.3,0.2,0.4c0.4,0.1,0.7,0.5,1,0.8c0.2,0.2,0.2,0.6,0.6,0.4
		C32.5,58.4,32.7,58.1,32.6,57.8z M18.7,46.4c0.5,0.3,1.1,0.5,1.2,1.1c0,0.2,0.1,0.5,0.3,0.5c0.2,0,0.3-0.2,0.5-0.4
		c0.6-0.7,0.4-1.2-0.4-1.5C19.8,46,19.3,46,18.7,46.4z M20.9,45.3c0.9,0.5,1.2,1.2,0.8,2.2c-0.2,0.4,0.2,0.3,0.3,0.2
		c0.5-0.3,0.9-0.6,0.9-1.2c0-0.6-0.3-1.1-1-1.2C21.6,45.2,21.3,45.3,20.9,45.3z M70.6,21.1c-0.1-0.4-0.1-0.8-0.3-1
		c-0.4-0.7-1.1-0.3-1.4,0c-0.5,0.3,0.2,0.5,0.3,0.7c0.2,0.4,0.6,0.6,0.5,1.1c0,0.2,0.1,0.3,0.2,0.4c0.1,0,0.2-0.1,0.2-0.1
		C70.3,21.7,70.4,21.4,70.6,21.1z M21,53.1c0.4,0.8,0.7,1.6,1.1,2.3c0.1,0.1,0.2,0.4,0.4,0.2c0.2-0.4,0.8-0.8,0.4-1.4
		C22.4,53.7,21.9,53.2,21,53.1z M27.8,13.2c-1.9,0.1-2.1,0.4-1.3,2c0.1,0.2,0,0.4,0.1,0.5c0.1,0.3,0.4,0.2,0.5,0.2
		c0.2,0,0.2-0.2,0.1-0.3C26.6,14.6,27.3,14,27.8,13.2z M44.5,60.2c0,0.7-0.8,1.1-0.8,1.6c0.1,0.7,1.1,0.4,1.5,0.8c0,0,0.1,0,0.1,0
		C45.7,61.6,45.2,60.9,44.5,60.2z M19.4,41.7c1,0.1,1.9,0.3,2.1,1.5c0,0.2,0.2,0.4,0.4,0.1c0.4-0.6,0-1.7-0.7-2
		C20.5,40.9,20,41.3,19.4,41.7z M24.8,55.2c1,0.1,1.7,0.8,2.2,1.5c0.2,0.3,0.3,0.3,0.6,0.2c0.3-0.1,0.3-0.3,0.3-0.5
		c0-0.8-0.4-1.1-1.1-1.2C26.1,55.1,25.4,55.2,24.8,55.2z M61.1,22.5c0.9-0.3,1.5-0.9,1.4-1.4c-0.3-0.9-1-1.2-2.1-0.9
		C61.2,20.8,61.7,21.4,61.1,22.5z M62.3,19.2c0.6,0.9,1.2,1.8,0.9,2.8c1-0.4,1.1-1.1,0.8-1.9C63.7,19.5,63.1,19.2,62.3,19.2z
		 M34.1,66.4c1.1,0.5,1.6,1.2,2,2c0.2,0.5,0.4,0.3,0.6,0c0.2-0.3,0.2-0.8,0-0.9C36.1,66.9,35.5,65.9,34.1,66.4z M32.8,47.1
		c1.3,0.7,1.3,0.7,2,2.1c0.1,0.3,0.4,0.3,0.6,0.3c0.3-0.1,0.2-0.3,0.2-0.5C35.5,47.6,34.7,47,32.8,47.1z M29.2,57.7
		c-0.1,0.5,1,0.5,0.4,1.2c-0.3,0.3-0.7,0.9-0.3,1.3c0.4,0.4,0.7-0.4,1.1-0.6c0.5-0.2,0.6-0.7,0.3-1C30.3,58,29.8,57.7,29.2,57.7z
		 M37.4,69.1c0.5,0,0.8,0,0.8-0.5c0-0.3-0.3-0.5,0.1-0.7c0.3-0.1,0.6-0.2,0.5-0.6c0-0.1-0.1-0.2-0.2-0.3c-0.6-0.7-1.3-1.1-2.1-1.2
		C37.6,66.7,38.3,67.6,37.4,69.1z M68.2,29.9c0.2,1.1,1,1.9,0.8,3.3C70.2,31.6,69.8,30.6,68.2,29.9z M66.1,29
		c0.6-0.4,1.3-0.6,1.6-1.3c0.1-0.3,0.1-0.6-0.2-0.7c-0.3-0.1-0.6-0.4-0.9-0.2c-0.3,0.1-0.2,0.4-0.1,0.7C66.6,28,66.2,28.4,66.1,29z
		 M36.9,12c0.9-0.1,1.9-0.8,1.7-1.1c-0.3-0.4-1-0.6-1.5-0.6c-0.3,0-0.5,0.6-0.4,1C36.8,11.5,36.6,12,36.9,12z M38.3,65
		c-0.1,0.1-0.3,0.1-0.3,0.2c-0.1,0.2,0,0.3,0.1,0.4c0.7,0.4,1.6,0.7,1.7,1.7c0,0.2,0.4,0.1,0.5-0.1c0.3-0.4,0.2-0.8-0.1-1.2
		C39.7,65.3,38.8,65.6,38.3,65z M22.1,52.5c0.7,0.4,1.2,0.9,1.5,1.5c0.2,0.4,0.5,0.4,0.7,0.1c0.3-0.4-0.1-1.3-0.6-1.5
		C23.3,52.4,22.8,52.4,22.1,52.5z M73.1,37c0.9,0.3,1.2,0.8,0.9,1.6c-0.1,0.2,0.1,0.4,0.3,0.3c0.3-0.1,0.7-0.2,0.9-0.6
		c0.1-0.4,0-0.7-0.3-1C74.4,36.8,73.8,36.7,73.1,37z M28.9,16.6c0-0.7-0.1-1.4,0.3-1.9c0.2-0.3,0-0.5-0.3-0.6
		c-0.3-0.1-0.5,0-0.7,0.2c-0.2,0.3-0.4,0.5-0.3,0.9C28.1,15.8,28.4,16.1,28.9,16.6z M17.3,32.3c1.1,0.2,1.4,0.2,2,0.8
		c0.3,0.3,0.6,0.2,0.7,0c0.2-0.2,0.2-0.6,0-0.8C19.6,31.8,17.9,31.8,17.3,32.3z M32.7,59.6c-0.4,0-0.8,0.4-0.7,0.5
		c0.4,0.4,0.6,1.1,1.2,1.2c0.3,0,0.8-0.1,0.8-0.7C33.9,59.8,33.1,59.9,32.7,59.6z M26.9,18.7C26.9,18.6,26.9,18.7,26.9,18.7
		c0,0.4-0.1,0.7,0.3,0.8c0.4,0.1,0.4-0.3,0.5-0.5c0.2-0.4,0.2-0.9,0.6-1.3c0.2-0.2,0-0.4-0.3-0.4C27.3,17.2,26.9,17.6,26.9,18.7z
		 M32.3,46.1c0-0.8-1.7-1.9-2.4-1.5c-0.2,0.1-0.3,0.2-0.3,0.4c0,0.2,0.2,0.2,0.3,0.2c0.8,0.1,1.5,0.2,1.8,1.1
		c0.1,0.2,0.2,0.2,0.4,0.1C32.3,46.4,32.3,46.3,32.3,46.1z M30.2,51.9C30.3,51.9,30.3,51.9,30.2,51.9c0.1,0.1,0.1,0.1,0.2,0
		c1-1.3,0.9-1.8-0.4-2.2c-0.2-0.1-0.3-0.3-0.5-0.1c-0.2,0.2,0,0.4,0.1,0.6C29.8,50.7,30.3,51.2,30.2,51.9z M20.7,49
		c-0.2,0.1-0.4,0.1-0.5,0.2c-0.1,0.2,0.1,0.4,0.3,0.5c0.5,0.3,1.1,0.5,1.4,1c0.2,0.3,0.3,0.6,0.6,0.3c0.3-0.2,0.3-0.6,0-0.9
		C22,49.7,21.4,49.3,20.7,49z M23.2,48c0.1,0.1,0.1,0.2,0.2,0.2c0.7,0.2,1.4,0.3,1.6,1.2c0,0.1,0.2,0.1,0.4,0.1
		c0.6-0.2,0.7-0.8,0.1-1.2C24.8,47.7,24.1,47.7,23.2,48z M64,10.5c1.1,0.5,1.5,1.1,0.8,2.1c0.4-0.1,0.8-0.1,1.1-0.2
		c0.3-0.1,0.6-0.2,0.6-0.5c0-0.3-0.2-0.5-0.4-0.6C65.5,11,65.1,10.4,64,10.5z M27.8,12.2c-0.9-0.8-1.7-0.7-2.4-0.3
		c-0.7,0.3-0.4,0.9-0.2,1.6C25.9,12.6,26.7,12.3,27.8,12.2z M35.8,13.8c-0.2-0.3-0.4-0.1-0.6,0c-0.8,0.1-1.2,0.7-0.9,1.5
		c0.2,0.4,0.5,0.3,0.8,0.4c0.4,0.1,0.2-0.3,0.3-0.4C35.5,14.7,35.6,14.2,35.8,13.8z M30.7,48.5c1.3,0,2.2,0.5,3,1.3
		c0.4-0.5,0.2-0.9-0.2-1.3C33.1,48.1,31.5,48,30.7,48.5z M22.5,34.3c-0.1,0.8,0.7,1,0.8,1.7c0,0.2,0.1,0.6,0.4,0.4
		c0.2-0.1,0.4-0.3,0.4-0.6C24.2,34.8,23.5,34.2,22.5,34.3z M40.2,55.7c0.4,0.4,0.7,0.9,0.8,1.4c0.1,0.3,0.2,0.8,0.7,0.6
		c0.7-0.2,0.5-0.7,0.3-1.1C41.6,56,41.1,55.6,40.2,55.7z M67.5,35.6c0.1,0.9,0.5,1.5,1,2.1c-0.3-0.7,1.1-0.6,0.5-1.4
		C68.6,35.6,68.2,35.6,67.5,35.6z M72.4,28c0.2,0.4,0.3,0.7,0.4,1.1c0,0.2-0.1,0.6,0.2,0.7c0.3,0.1,0.6-0.2,0.8-0.4
		c0.3-0.4,0.4-0.8-0.1-1.2C73.3,28,72.9,27.9,72.4,28z M35.6,53.8c1.1-0.6,1.2-0.7,0.8-1.5c-0.4-0.8-1-1.1-1.8-0.9
		C35.7,52.1,35.8,52.3,35.6,53.8z M29.6,13.4c0.2-0.6,0.1-1.3,0.7-1.8c0.2-0.1,0.2-0.4,0-0.6c-0.2-0.2-0.4-0.1-0.6,0
		C28.7,11.4,28.6,12.4,29.6,13.4z M39.1,62.5c-0.2-0.6-0.4-1.4-1.2-1.7c-0.4-0.2-0.6,0.1-0.8,0.3c-0.2,0.2,0.2,0.4,0.3,0.5
		c0.5,0.2,0.9,0.5,1,1.1c0,0.3-0.1,0.7,0.3,0.7C39.1,63.3,39,62.9,39.1,62.5z M35.4,63.9c0-0.3-0.2-0.4-0.3-0.6
		c-0.3-0.5-1.1-0.4-1.2-1.1c0-0.1-0.6,0-0.8,0.3c-0.2,0.3,0,0.5,0.2,0.5c0.7,0.1,1.1,0.6,1.4,1.1c0.1,0.1,0.1,0.5,0.4,0.4
		C35.3,64.4,35.4,64.2,35.4,63.9z M59.7,22.7c0.2-0.3,0.3-0.5,0.5-0.6c1-0.6,0.1-0.9-0.2-1.2c-0.2-0.2-0.5-0.2-0.8-0.2
		c-0.3,0-0.7,0-0.3,0.6C59.2,21.8,59.5,22.2,59.7,22.7z M31.6,19c-0.6-0.1-1.1,0-1.4,0.5c-0.3,0.4,0,0.8,0.1,1.1
		c0,0.1,0.5,0.3,0.7,0.2c0.4-0.1,0.2-0.5,0.3-0.8C31.3,19.7,31.5,19.4,31.6,19z M27.8,54.5c1,0.2,0.8,1.1,1,1.7
		c0.1,0.2-0.1,0.5,0.3,0.4c0.4-0.1,0.8-0.3,0.7-0.9C29.5,54.7,28.9,54.4,27.8,54.5z M42,14.2c-0.4,0-0.8,0-1.1,0.4
		c-0.1,0.1-0.1,0.5,0.1,0.4c0.8-0.4,1.4,0.3,2.1,0.4c0.2,0,0.4,0,0.5-0.2c0.2-0.3-0.1-0.4-0.2-0.5C43,14.4,42.6,14.2,42,14.2z
		 M60.3,23.8c0.5,0.8,0.9,1.5,1.4,2.1C62.8,24.7,62.8,24.7,60.3,23.8z M32.7,66.1c0.4-0.5,1.5-0.5,1.3-1.3c-0.1-0.4-0.5-1.2-1.4-1
		C33,64.9,33,64.9,32.7,66.1z M19.3,50.2c0.3,0.5,0.6,1,0.9,1.5c0.2,0.4,0.4,0.7,0.9,0.3c0.5-0.3,0.2-0.7,0-1
		C20.6,50.5,20,50.3,19.3,50.2z M15.9,43.7c0.4,0.8,0.7,1.4,1,2.1c0.2,0.4,0.4,0.3,0.6,0c0.3-0.4,0.3-0.7,0-1.1
		C17.2,44.2,16.6,44,15.9,43.7z M27.5,67.1c0.1,0.7,0.4,1.2,0.7,1.7c0.2,0.3,0.3,0.2,0.5,0c0.5-0.5,0.5-1-0.1-1.3
		C28.3,67.2,28,67.2,27.5,67.1z M64,29.8c0.9-1,0.5-1.7-1.6-2.2C63.2,28.3,63.4,29.2,64,29.8z M32.7,54.4c0.7-0.2,0.9-0.7,0.6-1.3
		c-0.3-0.7-1-0.6-1.7-0.6C32.2,53,32.4,53.7,32.7,54.4z M30.6,63.9c0.4,0.8,0.5,1.5,0.4,2.4c0.5-0.4,1.1-0.6,1-1.3
		C32,64.4,31.3,64.1,30.6,63.9z M68.5,28.2c0.3-0.6,1.1-1.1,0.5-2c-0.4-0.6-1-0.4-1.5-0.3C68.4,26.4,68.5,27.2,68.5,28.2z M17.5,47
		c0.5,0.8,0.8,1.4,1.2,2.1c0.4-0.3,0.7-0.6,0.6-1.1C19.1,47.3,18.4,47.1,17.5,47z M26,19.1c-0.4-0.7-0.1-1.1,0-1.6
		c0-0.2,0.2-0.4,0-0.6c-0.2-0.2-0.5-0.1-0.7,0c-0.5,0.2-0.7,0.7-0.5,1.1C25.2,18.4,25.4,18.8,26,19.1z M15.5,42.5
		c0.2-1,0.2-1.7-0.4-2.2c-0.3-0.2-0.6-0.3-0.8-0.1c-0.3,0.2,0,0.5,0.1,0.6C14.7,41.4,15,41.8,15.5,42.5z M30.5,69.7
		c0.4-0.5,1-1.1,0.2-1.7c-0.2-0.2-0.6-0.3-0.8,0C29.4,68.8,29.8,69.3,30.5,69.7z M23.5,13.8c-0.5-0.1-0.9,0.4-0.9,0.7
		c0,0.4,0.2,0.9-0.1,1.3c0,0,0.1,0.2,0.2,0.2c0.2,0.1,0.2-0.2,0.2-0.3c0.1-0.5,0.3-1,0.9-1.2c0.2-0.1,0.7,0.1,0.6-0.3
		C24.3,13.8,23.9,13.9,23.5,13.8z M69.6,34.6c-0.4,0-0.9,0.1-0.8,0.4c0.2,0.5,0.6,1,1.1,1.2c0.4,0.1,0.5-0.6,0.6-0.9
		C70.6,34.5,69.9,34.8,69.6,34.6z M29.9,48c0.2-0.4,0.4-0.5,0.6-0.7c0.3-0.3,0.3-0.7-0.1-0.9c-0.6-0.3-1.2-0.7-2-0.5
		C29.2,46.4,29.9,46.8,29.9,48z M38.1,12.6c-0.4,0.1-0.9,0.3-1,0.7c0,0.6,0.5,0.8,1,0.8c0.6,0,0.5-0.7,0.6-1.1
		C38.8,12.6,38.3,12.8,38.1,12.6z M32.4,15.5c-0.7-0.1-1,0.2-1.2,0.7c-0.2,0.5-0.3,1,0,1.5c0.1,0.1,0.2,0.2,0.4,0.2
		c0.2,0,0.2-0.2,0.2-0.3C31.8,16.8,32,16.2,32.4,15.5z M28.2,44.9c0.9-0.4,1.1-0.9,0.8-1.7c-0.3-0.7-0.7-1.3-1.8-1.2
		C28.4,42.5,28.6,43.2,28.2,44.9z M32.7,56c0.4,0.6,0.9,1.1,0.9,2c0.4-0.5,1.2-0.6,0.6-1.4C33.8,56,33.5,55.4,32.7,56z M27.5,50.6
		c0.6,0.5,1,1.1,1.1,2.1c0.5-0.5,0.9-0.8,0.5-1.4C28.7,50.7,28.3,50.1,27.5,50.6z M70.5,31.7c0.5-0.7,1-1.2,0.5-1.9
		c-0.2-0.2-0.3-0.4-0.7-0.3C70,29.6,70,29.9,70,30.2C70.2,30.7,70.3,31.1,70.5,31.7z M24.9,35.5c0.4-0.5,0.3-1,0.4-1.4
		c0.1-0.5-0.8-1.1-1.3-0.9c-0.2,0.1-0.3,0.2-0.1,0.4C24.6,34,24.7,34.7,24.9,35.5z M18.3,40.8c0.6-0.6,0.2-1.1,0-1.5
		c-0.4-0.7-1.2-1.1-2-0.9C17.3,38.9,18,39.6,18.3,40.8z M26.6,40c0-0.9-0.4-1.4-1.1-1.8c-0.2-0.1-0.3-0.2-0.5,0
		c-0.1,0.2,0,0.3,0.1,0.5c0.4,0.4,0.9,0.8,1,1.3c0.1,0.2-0.2,0.5,0.2,0.5C26.6,40.5,26.6,40.1,26.6,40z M43.7,12.1
		c-0.5-0.4-0.7,0.3-1.1,0.3c-0.4,0-0.6,0.3-0.6,0.7c0,0.3,0.3,0.4,0.5,0.4c0.3,0,0.7,0.2,0.8-0.4C43.4,12.7,43.6,12.4,43.7,12.1z
		 M32.2,14c-0.1,0.5,0.4,0.6,0.7,0.6c0.6,0,0.5-0.7,0.6-1c0.2-0.4-0.4-0.4-0.6-0.4C32.5,13.1,32.2,13.4,32.2,14z M59.7,18.6
		c0.5-0.6,0.8-1.3,0.6-1.9c-0.1-0.4-0.8-0.1-1.3-0.2C59.2,17.3,59.5,17.9,59.7,18.6z M72.9,31.8c0.9,0.3,2,0.3,2.5,1.5
		C75.8,31.7,75.2,31.4,72.9,31.8z M40.9,64c1.1,0.4,1.5,1.3,2,2.2c0.6-0.8-0.1-1.4-0.5-1.9C42,63.7,41.4,63.8,40.9,64z M41.4,67.3
		c0.7-0.6,0.4-1,0.2-1.5c-0.3-0.6-0.7-1.2-1.3-1.5c-0.2-0.1-0.3,0.1-0.4,0.2c-0.1,0.2,0,0.3,0.2,0.3C41.1,65.3,41.5,66.1,41.4,67.3z
		 M40.7,13.4c-1-0.3-1.6,0.1-1.5,0.8c0.1,0.5,0.3,0.9,0.4,1.4C39.8,14.8,40.2,14.1,40.7,13.4z M23.9,17.4c0.2-0.5,0.5-0.8,0.8-1.2
		c0.1-0.1,0.6-0.1,0.4-0.4c-0.1-0.4-0.6-0.3-0.9-0.4c-0.3-0.1-0.3,0.1-0.5,0.3C23.3,16.3,23.9,16.8,23.9,17.4z M67.6,21
		c0.4,0.8,1,1.3,0.7,2.1c-0.1,0.2-0.2,0.5,0.1,0.5c0.3,0.1,0.5-0.1,0.6-0.4C69.3,22.3,68.8,21.5,67.6,21z M32.3,12.1
		c-0.4-0.4-1-0.4-1.3-0.1c-0.4,0.4-0.4,1-0.2,1.5c0,0.1,0.1,0.2,0.3,0.2c0.1,0,0.2-0.1,0.2-0.2C31.4,12.8,31.9,12.5,32.3,12.1z
		 M66.8,15.6c0.2-0.5,1.2-0.5,0.8-1.4c-0.3-0.6-0.6-0.8-1.3-0.8C67.1,14.1,66.6,14.9,66.8,15.6z M39.2,60.4c0,0.5,0.4,0.8,0.5,1.1
		c0.1,0.4,0.3,0.7,0.4,1.1c0,0.1,0.1,0.2,0.2,0.2c0.1-0.1,0.3-0.1,0.3-0.3C40.8,61.8,40,60.6,39.2,60.4z M43.3,16.4
		c-0.4-0.3-0.8-0.5-1.2-0.6c-0.3,0-0.6-0.1-0.8,0.3c-0.1,0.3,0,0.5,0.2,0.7c0.2,0.3,0.6,0.3,0.8,0.1C42.5,16.7,42.9,16.7,43.3,16.4z
		 M17.3,33c-0.1,0-0.2,0.1-0.2,0.2c0,0.3,0.1,0.5,0.3,0.6c0.4,0.1,0.7,0.3,0.9,0.7c0.1,0.2,0,0.5,0.4,0.4c0.3-0.1,0.4-0.4,0.3-0.7
		C18.6,33.5,17.9,33.4,17.3,33z M71.7,39.3c0.1-0.5,0.5-1-0.1-1.4c-0.6-0.5-1,0-1.7,0.1C70.6,38.5,71.4,38.5,71.7,39.3z M27.2,64.8
		c-0.4,0-0.6,0.2-0.5,0.5c0.1,0.3,0,0.8,0.5,0.7c0.4-0.1,1.1,0.1,1.1-0.4C28.4,64.9,27.7,64.9,27.2,64.8z M31.1,10.2
		c0.1,0,0.4,0,0.5-0.2c0-0.4-0.3-0.3-0.5-0.3c-0.7,0.1-1.3-0.1-2,0.1c-0.7,0.2-0.4,0.9-0.8,1.1c-0.1,0,0.2,0.2,0.3,0.1
		C29.1,9.8,30.1,9.9,31.1,10.2z M38.1,51.8c0.1-0.8,0.2-1.5-0.5-2c-0.2-0.1-0.4-0.2-0.6,0c-0.1,0.2-0.2,0.5-0.1,0.6
		C37.6,50.6,37.5,51.4,38.1,51.8z M21.2,40.2c1.4,0.3,1.8,1.3,1.9,2.6c0.2-0.4,0.8-0.6,0.4-1.2C22.8,40.9,22.3,40.1,21.2,40.2z
		 M36.5,17.9c-0.4-0.3-0.8-0.4-1.2-0.5c-0.5-0.1-0.6,0.3-0.7,0.7c-0.1,0.3-0.2,0.6,0.2,0.7c0.4,0.2,0.4-0.2,0.6-0.4
		C35.6,18.1,36,17.9,36.5,17.9z M28.7,64.5c0.9,0.4,0.7,1.1,0.5,1.8c0.4-0.3,1.2-0.1,1-0.9C30,64.8,29.5,64.4,28.7,64.5z M38.1,15
		c-0.5-0.1-0.8-0.3-1.1-0.4c-0.8-0.1-1.1,0.1-1.1,0.9c0,0.2,0.1,0.3,0.3,0.4c0.2,0.1,0.3,0,0.4-0.1C36.8,15.1,37.4,15.3,38.1,15z
		 M32.1,20.6C32,21,32.2,21,32.5,21.1c0.3,0.1,0.4-0.1,0.5-0.3c0-0.2,0.1-0.4,0.2-0.5c0.1-0.2,0.5-0.5,0-0.7c-0.4-0.1-0.8-0.1-1,0.4
		C32.2,20.2,32.2,20.4,32.1,20.6z M19.6,39.6c0.2-1.3-0.2-2-1.3-2.1c-0.1,0-0.3-0.1-0.4,0.1c-0.1,0.2,0.1,0.2,0.2,0.3
		C18.8,38.2,19.2,38.8,19.6,39.6z M71.7,33.3c0.5,0.4,0.5,0.9,0.6,1.4c0,0.2,0,0.5,0.3,0.4c0.2,0,0.4-0.1,0.4-0.5
		C73.1,33.8,72.7,33.3,71.7,33.3z M14.1,35.5c0.6,0.5,1,0.8,1.5,1.2c0.2-0.4,0.5-0.8,0.2-1.1C15.4,35.2,14.8,35.3,14.1,35.5z
		 M75.8,30.7c-0.3-0.6-0.2-1.4-0.8-1.4c-0.6-0.1-0.5,0.8-0.9,1.1C74.6,30.7,75.1,30.7,75.8,30.7z M24.5,51.9c1,0.2,0.5,1.3,1,1.8
		c0.4-0.5,0.7-0.9,0.5-1.4C25.7,51.8,25.1,51.9,24.5,51.9z M75.1,34.9c0.4,0.4,0.9,0.5,1.1,0.9c0.3,0.4,0.6,0,0.8-0.1
		c0.3-0.3-0.1-0.5-0.2-0.6C76.3,34.8,75.8,34.7,75.1,34.9z M24.5,44c0.5,0.6,0.7,1.3,0.5,2.1c0.3-0.5,1.1-0.7,0.8-1.4
		C25.6,44.3,25.3,43.8,24.5,44z M17.3,43.2c0.3,0.7,1,0.9,1.2,1.5c0.1,0.2,0.3,0.2,0.4,0c0.2-0.5,0.5-0.9-0.3-1.1
		C18.2,43.5,17.8,43.4,17.3,43.2z M19,42.8c0.4,0.2,0.9,0.4,0.9,0.9c0,0.2-0.2,0.6,0.3,0.5c0.5-0.1,0.5-0.4,0.5-0.7
		C20.6,42.7,20.3,42.6,19,42.8z M28.9,61.2c0.5,0.3,0.7,0.7,0.9,1.1c0.1,0.2,0.2,0.4,0.5,0.3c0.3-0.1,0.4-0.3,0.3-0.6
		C30.4,61.2,29.8,61.1,28.9,61.2z M67.5,17c0.2,0.3,0.5,0.5,0.7,0.7c0.1,0.2,0,0.5,0.4,0.5c0.2,0,0.4-0.2,0.5-0.4
		c0.1-0.3,0-0.5-0.2-0.7C68.4,16.7,68,16.8,67.5,17z M30.7,38.1c0.4-1.5-0.6-2.2-1.3-3.1c-0.1-0.1-0.3-0.2-0.4,0
		c-0.2,0.2,0,0.4,0.1,0.4C30.2,36,30.2,37.1,30.7,38.1z M29.3,18.4c-0.5,0-1,1-0.7,1.6c0.1,0.2,0.1,0.4,0.4,0.3
		c0.2,0,0.2-0.2,0.2-0.4c0-0.4,0.1-0.8,0.4-1.1C29.8,18.5,29.5,18.4,29.3,18.4z M36.5,12.8c-0.5-0.5-0.9-1-1.6-0.8
		c-0.3,0.1-0.4,0.3-0.4,0.5c0,0.1,0,0.3,0.2,0.2C35.2,12.6,35.7,13.1,36.5,12.8z M21.8,13.8c0.6-0.1,0.7-0.9,1.3-0.9
		c0.3,0,0.2-0.6,0-0.9c-0.2-0.2-0.4-0.1-0.6,0.2C22.2,12.7,21.8,13.2,21.8,13.8z M69.4,25.1c0.3,0.6,0.5,1.2,0.8,1.9
		C70.8,25.3,70.7,25.1,69.4,25.1z M39.5,16.7c-0.5-0.6-1.2-0.7-1.9-0.6c-0.4,0.1-0.2,0.5-0.4,0.7c-0.1,0.1,0,0.3,0.2,0.3
		c0.3,0.1,0.3-0.2,0.4-0.4c0.3-0.4,0.6-0.3,1-0.2C39,16.7,39.2,17,39.5,16.7z M70.8,39.6c0-0.6-0.5-0.4-0.8-0.6
		c-0.2-0.1-0.6,0-0.5,0.3c0.1,0.4,0.1,0.9,0.6,1C70.6,40.3,70.6,39.8,70.8,39.6z M34.4,55.3c0.4,0.3,0.6,0.8,0.9,1.1
		c0.1,0.1,0.3,0.8,0.7,0.3c0.3-0.3,0.1-0.6-0.2-0.9C35.4,55.5,35,55.3,34.4,55.3z M74,35c0.3-0.4,0.5-0.8,0.5-1.3
		c0-0.4-0.2-0.7-0.6-0.6c-0.4,0-0.3,0.5-0.3,0.7C73.7,34.2,73.9,34.5,74,35z M27.5,61.8c0.5,0.5,1,0.8,0.9,1.4
		c0,0.2,0.2,0.3,0.4,0.2c0.3-0.1,0.4-0.3,0.3-0.6C28.9,62.2,28.5,61.8,27.5,61.8z M75.7,39c0.9-0.7,1-1.3,0.6-1.9
		c-0.1-0.1-0.2-0.3-0.3-0.2c-0.1,0-0.2,0.2-0.2,0.3C76,37.8,75.6,38.3,75.7,39z M27.5,59.3c-0.3-0.2-0.5-0.6-1-0.5
		c-0.2,0-0.6,0.1-0.5,0.3c0.2,0.4,0.6,0.7,1,0.9C27.2,60,27.4,59.6,27.5,59.3z M31.1,14.6c-1.2,0.1-1.6,0.9-1,2.2
		C30.3,16,30.5,15.3,31.1,14.6z M28.1,47.5c0.4,0.6,0,1.2,0.2,1.8C29.3,48.7,29.3,48.7,28.1,47.5z M73.2,25.7
		c-0.7,1.3-0.7,1.3,0.7,1.5C73.6,26.2,73.6,26.2,73.2,25.7z M22.4,37.5c0.4-1.3-0.6-2.6-1.8-2.3C21.9,35.4,22,36.4,22.4,37.5z
		 M37.7,19C37,19,36.5,18.6,36,19.1c-0.2,0.2,0.1,0.5,0.1,0.7C36.7,19.8,37.1,19.5,37.7,19z M71.4,20.7c0.1,0.8-0.6,1.8,0.8,2.2
		C71.9,22.1,71.9,21.3,71.4,20.7z M17.6,35.5c0.1-0.4-0.1-0.7-0.5-0.7c-0.3,0-0.3,0.1-0.3,0.4c0,1.1,0,1.3,0.3,1.2
		C17.6,36.3,17.4,35.8,17.6,35.5z M39.3,54.6c0.4-0.7,0.3-1.2-0.2-1.6c-0.3-0.2-0.5-0.1-0.7,0.1c-0.3,0.3,0,0.5,0.2,0.5
		C39.1,53.7,39.2,54.1,39.3,54.6z M26.8,49.3c0.4-0.3,0.7-0.7,0.5-1.1c-0.3-0.4-0.5-1-1.4-0.9C26.7,47.8,26.7,48.6,26.8,49.3z
		 M38.2,59c0.2-0.2,0.5-0.5,0.5-0.7c0-0.5-0.5-0.5-0.8-0.6c-0.3-0.1-0.5,0.2-0.6,0.4C37.5,58.4,37.8,58.7,38.2,59z M32,51.6
		c0.4-0.5,1-0.7,0.8-1.2c-0.1-0.4-0.4-0.7-1-0.5C32,50.3,32,50.8,32,51.6z M35.2,58.5c0.5,0.2,0.8,0.5,1,1c0.1,0.3,0.2,0.4,0.5,0.2
		c0.3-0.2,0.3-0.5,0.1-0.7C36.4,58.8,36,58.2,35.2,58.5z M38.8,56.7c0.3,0.5,0.8,0.8,1,1.3c0,0.1,0.2,0.2,0.3,0.2
		c0.1,0,0.2-0.1,0.2-0.3C40.3,57.3,39.5,56.7,38.8,56.7z M63.4,11c0.1,0.3,0.1,0.6,0.2,0.9c0.1,0.2,0.1,0.4,0.3,0.5
		c0.3,0,0.3-0.2,0.4-0.4c0.1-0.2,0.2-0.5,0-0.6C64.1,11.2,63.9,10.9,63.4,11z M41.5,61.8c0.2-1.5-0.4-2.5-1.4-2.2
		C41,60.2,41,60.2,41.5,61.8z M22.4,49c0.6,0.4,1.3,0.7,1.2,1.7c0.4-0.3,0.7-0.6,0.5-1C23.8,49.1,23.1,49,22.4,49z M65.3,29
		c0.2-0.5,0.3-0.9,0.4-1.3c-0.4-0.2-0.8-0.1-1.2,0C64.8,28.1,65,28.5,65.3,29z M34.2,10.3c-1.4-0.6-1.4-0.6-2.1,0.6
		C32.9,10.7,33.4,9.8,34.2,10.3z M72.4,38.8c0.1,0.2-0.1,0.6,0.3,0.4c0.4-0.1,0.5-0.6,0.6-0.9c0.1-0.3-0.3-0.5-0.6-0.4
		c-0.6,0.1-0.1,0.5-0.2,0.7C72.5,38.6,72.5,38.7,72.4,38.8z M35.9,47.2c0.3,0.5,0.5,1.1,0.7,1.7C37.1,48.2,36.9,47.6,35.9,47.2z
		 M37.4,56.8c-0.4-0.6,0.6-0.6,0.3-1.1c-0.2-0.4-0.6-0.6-1.3-0.4C37.2,55.7,37,56.3,37.4,56.8z M71,36.3c0.9-0.4,0.9-0.8,0.2-1.9
		C71.1,35,71.1,35.6,71,36.3z M27,51.7c0,0.4,0,0.7-0.1,1c0,0.2-0.1,0.4,0.2,0.4c0.3,0,0.5-0.1,0.5-0.4C27.7,52.3,27.4,52,27,51.7z
		 M40.1,17.9c-0.7-0.2-1-0.6-1.5-0.3c-0.2,0.1-0.1,0.4,0.1,0.6C39,18.5,39.5,18.3,40.1,17.9z M33.9,21.5c0.2-0.5,0.5-0.4,0.7-0.5
		c0.2-0.1,0.5,0.1,0.6-0.3c0-0.1-0.1-0.2-0.2-0.3c-0.2-0.2-0.4-0.2-0.7-0.1C33.7,20.6,33.9,21,33.9,21.5z M36,11.5
		c0.1-0.6,0.2-1.1-0.3-1.2c-0.2-0.1-0.5,0.1-0.5,0.4C35.1,11.3,35.7,11,36,11.5z M45.9,15.4c-0.4-0.2-0.8-0.2-1.2-0.1
		c-0.3,0.1-0.4,0.3-0.3,0.6c0.1,0.3,0.3,0.1,0.5,0C45.2,15.8,45.6,15.7,45.9,15.4z M34.4,54c0.6-1.2,0.4-1.6-0.8-1.7
		C34.3,52.7,34.2,53.3,34.4,54z M34.5,42.8c-0.1-0.7-0.3-1.1-0.8-1.4c-0.2-0.1-0.2,0.1-0.2,0.3C33.4,42.4,34,42.4,34.5,42.8z
		 M72,42.2c-0.2-0.4-0.5-0.5-0.9-0.6c-0.2,0-0.4-0.1-0.4,0.2c0.1,0.4,0.7,0.4,0.7,0.8C71.6,42.5,71.8,42.3,72,42.2z M23.9,46.2
		c0.3-0.8,0.3-1.4-0.6-1.6C23.1,45.2,23.8,45.5,23.9,46.2z M31.3,62.7c1-0.7,1-1.1,0-1.5C31.5,61.8,31.5,62.3,31.3,62.7z M34.2,44.3
		c0.2,0.6,0.5,1.1,0.7,1.7C35.1,45.3,34.9,44.7,34.2,44.3z M65.2,20.4c-0.1-0.5,0.2-1.1-0.4-1.5C64.3,19.5,64.7,20,65.2,20.4z
		 M50,13.9c-0.4-0.1-0.6-0.6-1-0.3c-0.2,0.1-0.1,0.5,0,0.6C49.4,14.5,49.7,14.1,50,13.9z"/>
	<path d="M47.9,43.4c-1.1-1.7-2.8-2.9-3.5-4.8c-0.1-0.2-0.3-0.3-0.1-0.5c0.3-0.2,0.5,0,0.6,0.2c0.6,1.6,1.9,2.8,2.7,4.2
		c0.2,0.3,0.3,0.5,0.5,0.8C48.1,43.3,48,43.3,47.9,43.4z"/>
	<path d="M44,37.5c-0.9-1.3-1.8-2.6-2.7-4c0,0-0.1-0.1-0.1-0.2c-0.1-0.3-0.3-0.7,0.1-0.9c0.3-0.1,0.6,0.2,0.7,0.6
		c0.3,1,0.9,1.7,1.3,2.6C43.7,36.3,44.1,36.8,44,37.5z"/>
	<path d="M36.3,28.5c0.4,0,0.5,0.3,0.5,0.5c0.5,1.3,1.1,2.5,2,3.5c0.1,0.1,0.3,0.3,0.1,0.5c-0.2,0.3-0.4,0-0.5-0.2
		c-0.9-1-1.7-2.1-2.3-3.4C36.1,29.1,36,28.8,36.3,28.5z"/>
	<path d="M52.3,50.1c-1.2-1.2-2.2-2.4-2.9-3.9c-0.1-0.3-0.1-0.5,0.2-0.7c0.4-0.2,0.4,0.1,0.4,0.4c0.5,1.3,1.3,2.4,2.1,3.5
		C52.3,49.5,52.5,49.7,52.3,50.1z"/>
	<path d="M39.5,39.9c-1.1-1-1.9-2.3-2.6-3.6c-0.1-0.3,0-0.5,0.2-0.6c0.2-0.1,0.4,0.1,0.5,0.3c0.4,1.2,1.3,2.2,1.9,3.3
		C39.5,39.4,39.6,39.6,39.5,39.9z"/>
	<path d="M52.6,36.5c0.9,1.6,1.8,3.1,2.7,4.8C53.9,40.5,52.2,37.6,52.6,36.5z"/>
	<path d="M56.7,43.4c0.2,0.2,0.5,0.3,0.6,0.5c0.6,1,1.2,1.9,1.7,2.9c0.1,0.1,0.3,0.4,0,0.6c-0.3,0.2-0.3-0.2-0.4-0.3
		c-0.7-0.9-1.3-1.9-2-2.8C56.4,44,56.4,43.7,56.7,43.4z"/>
	<path d="M54.7,49.5c-0.8-1.4-1.7-2.4-2.6-3.5c-0.1-0.2-0.2-0.4-0.3-0.5c-0.1-0.3-0.5-0.8-0.1-1c0.5-0.2,0.6,0.4,0.7,0.7
		c0.6,1.3,1.6,2.3,2.2,3.5C54.6,48.9,54.6,49.1,54.7,49.5z"/>
	<path d="M43.2,39.8c1.2,1.2,1.8,2.8,2.5,4.3C44.8,42.7,43.3,41.7,43.2,39.8z"/>
	<path d="M45,24.6c1.2,1.2,1.9,2.8,2.6,4.3C46.4,27.7,45.4,26.3,45,24.6z"/>
	<path d="M51.7,35c-0.1,0.1-0.1,0.2-0.2,0.2c-0.1,0-0.2,0-0.3,0c-0.6-1.3-1.9-2.2-2.4-3.5c-0.1-0.3-0.2-0.7,0.1-0.8
		c0.3-0.1,0.4,0.2,0.5,0.5c0.5,1.2,1.3,2.2,1.9,3.3C51.5,34.7,51.6,34.8,51.7,35z"/>
	<path d="M50.6,42.8c-0.1,0.1-0.1,0.2-0.2,0.2c-0.1,0-0.2,0-0.2-0.1c-0.6-1.3-1.9-2.1-2.3-3.5c-0.1-0.2-0.4-0.5,0-0.7
		c0.4-0.2,0.4,0.3,0.5,0.5c0.5,1,1.1,1.9,1.8,2.8C50.4,42.3,50.5,42.6,50.6,42.8z"/>
	<path d="M60.6,32.2c-1.2-0.9-2-2.1-2.5-3.5c-0.1-0.2-0.1-0.5,0.2-0.6c0.3-0.1,0.3,0.2,0.4,0.4C59.2,29.7,59.9,30.9,60.6,32.2z"/>
	<path d="M54.9,54.5c-0.1-0.1-0.2-0.1-0.3-0.2c-0.6-0.9-1.4-1.7-1.6-2.8c0-0.2-0.1-0.4,0.1-0.5c0.1-0.1,0.3,0,0.4,0.1
		c0.8,0.8,1,2,1.8,2.8C55.4,54.1,55.2,54.4,54.9,54.5z"/>
	<path d="M55.2,49.8c0.7,0.3,0.7,0.8,0.9,1.2c0.5,0.8,0.9,1.6,1.4,2.3c0.1,0.2,0.2,0.4,0,0.5c-0.1,0-0.3,0-0.3-0.1
		C56.3,52.6,55.3,51.5,55.2,49.8z"/>
	<path d="M57.5,22.9c-0.7,0-0.4-0.7-0.7-1c-0.7-1-1.3-2-1.9-3c-0.1-0.2-0.3-0.3-0.1-0.4c0.1-0.1,0.3,0,0.4,0.1
		C55.9,19,57.4,22,57.5,22.9z"/>
	<path d="M42.8,45.4c-0.6,0-0.7-0.6-1-0.9c-0.5-0.6-0.9-1.3-1.4-2c-0.1-0.2-0.2-0.4,0.1-0.6c0.1,0,0.2,0,0.3,0.1
		C41.2,42.1,42.8,44.9,42.8,45.4z"/>
	<path d="M61.6,33.6c1.2,1.3,1.6,2.8,2.4,4.2C63.1,37.4,61.5,34.5,61.6,33.6z"/>
	<path d="M59.2,37c0,0.1-0.1,0.2-0.2,0.2c-0.1,0.1-0.2-0.1-0.3-0.2c-0.9-0.9-1.3-2.1-1.8-3.3c-0.1-0.1,0-0.3,0.2-0.4
		c0.1-0.1,0.2,0,0.3,0.1c0.7,1.1,1.1,2.3,1.8,3.3C59.2,36.9,59.2,36.9,59.2,37z"/>
	<path d="M55.2,26c0.1,0.1,0.2,0.2,0.3,0.3c0.6,1,1.2,2,1.9,3c0.1,0.2,0.4,0.5,0,0.7c-0.4,0.2-0.3-0.2-0.5-0.4
		c-0.6-0.9-1.2-1.8-1.8-2.6c-0.2-0.2-0.2-0.5-0.2-0.8C55,26.1,55.1,26.1,55.2,26z"/>
	<path d="M47.2,52.6c0.3,0,0.5,0.3,0.6,0.4c0.4,0.9,1.1,1.7,1.6,2.6c0.1,0.2,0.3,0.4,0,0.5c-0.2,0.1-0.3-0.2-0.4-0.3
		c-0.7-0.8-1.5-1.6-1.9-2.6C46.9,53,46.8,52.7,47.2,52.6z"/>
	<path d="M56.2,31.7c0,0.3-0.1,0.4-0.3,0.2c-0.9-1-1.8-2.1-2.2-3.4c0-0.1,0-0.2,0.1-0.3c0.2-0.1,0.2,0,0.3,0.2
		c0.7,1,1.2,2.1,2.1,3.1C56.2,31.6,56.2,31.7,56.2,31.7z"/>
	<path d="M45.8,21.3c0.5,0.7,1.1,1.4,1.6,2.1c0.1,0.2,0.3,0.4,0.5,0.6c0.2,0.1,0.4,0.3,0.2,0.6c-0.2,0.2-0.4,0.1-0.6-0.1
		c-0.9-0.9-1.6-1.9-2-3.1C45.6,21.4,45.7,21.4,45.8,21.3z"/>
	<path d="M42.8,30.8c-1-0.9-1.6-1.9-2.3-3c-0.1-0.2-0.2-0.4,0-0.5c0.3-0.1,0.6,0,0.7,0.3c0.4,0.8,0.9,1.5,1.3,2.2
		C42.7,30.1,43,30.3,42.8,30.8z"/>
	<path d="M37.9,27.3c0.2,0,0.3,0.2,0.4,0.3c0.4,0.9,0.9,1.8,1.6,2.6c0.1,0.1,0.2,0.3,0,0.5c-0.1,0.1-0.3,0-0.4-0.1
		c-0.8-0.8-1.5-1.7-1.9-2.8C37.5,27.6,37.7,27.4,37.9,27.3z"/>
	<path d="M60.2,49.6c0-0.1-0.1-0.4,0.1-0.4c0.2-0.1,0.3,0.1,0.4,0.3c0.4,0.6,0.5,1.2,1,1.8c0.2,0.2,0.3,0.6-0.1,0.7
		c-0.3,0.1-0.8,0.2-0.9-0.4C60.6,50.8,60.1,50.3,60.2,49.6z"/>
	<path d="M63.3,49.9c-0.1,0.3-0.1,0.5-0.3,0.6c-0.3,0.1-0.3-0.2-0.4-0.4c-0.4-1-0.8-2-1.2-3c-0.1-0.2-0.2-0.6,0.1-0.7
		c0.4-0.1,0.3,0.3,0.4,0.5c0.2,1,0.7,1.9,1.3,2.7C63.2,49.7,63.2,49.9,63.3,49.9z"/>
	<path d="M49.4,27c0.4,0,0.5,0.4,0.7,0.6c0.7,0.8,1.1,1.7,1.9,2.4c0.2,0.2,0.3,0.4,0.2,0.6c-0.2,0.2-0.5,0-0.6-0.1
		c-0.2-0.1-0.3-0.4-0.4-0.6c-0.5-0.8-0.9-1.7-1.6-2.4C49.3,27.4,49.2,27.2,49.4,27z"/>
	<path d="M44,47.4c1,1,1.2,2.3,2.1,3.1c0.1,0.1-0.1,0.3-0.1,0.5c-0.1,0.2-0.3,0.1-0.4,0C44.9,50,44,49,44,47.4z"/>
	<path d="M49.3,50.3c-0.5-1.3-1.5-2.1-2.2-3.1c-0.2-0.3-0.4-0.8-0.1-1c0.4-0.2,0.6,0.3,0.8,0.6c0.5,0.8,1,1.7,1.5,2.5
		C49.3,49.5,49.5,49.8,49.3,50.3z"/>
	<path d="M47.9,34.5c0.8,0.9,1.9,1.5,2.1,2.8c0,0.1,0.1,0.3-0.1,0.4c-0.1,0-0.3,0-0.3-0.1C48.8,36.6,48.2,35.6,47.9,34.5z"/>
	<path d="M51.8,20.4c1,0.9,1.4,2.2,2.1,3.2c0.1,0.1,0.2,0.3,0,0.4c-0.1,0.1-0.3,0.1-0.3,0C52.9,22.8,51.8,21.8,51.8,20.4z"/>
	<path d="M60.9,29c-1.1-1-1.7-2.2-2.5-3.4c-0.1-0.2-0.2-0.4,0-0.5c0.2-0.1,0.4,0,0.5,0.2c0.4,0.7,0.7,1.3,1.1,2
		C60.4,27.9,60.7,28.4,60.9,29z"/>
	<path d="M50.6,38.9c0.7-0.1,0.7,0.4,0.9,0.7c0.7,0.8,1.1,1.8,1.9,2.6c0.2,0.2,0.2,0.4,0.1,0.6c-0.2,0.2-0.3-0.1-0.5-0.3
		C51.9,41.5,51.4,40.2,50.6,38.9z"/>
	<path d="M33.6,33.7c-0.8-1.3-1.6-2.5-2.5-3.8c-0.1-0.2-0.2-0.3,0-0.5c0.2-0.1,0.3,0.1,0.4,0.2c0.9,0.9,1.2,2.1,1.9,3.2
		c0.1,0.2,0.2,0.5,0.4,0.7C33.7,33.6,33.6,33.7,33.6,33.7z"/>
	<path d="M33.7,29.4c0.7,1,1.3,2,1.9,3c0.1,0.1,0.3,0.3,0,0.5c-0.1,0.1-0.3,0.1-0.4-0.1c-0.6-0.8-1.2-1.7-1.7-2.6
		C33.3,29.9,33.4,29.7,33.7,29.4z"/>
	<path d="M38.7,44.1c-0.6-0.8-1.3-1.7-1.8-2.6c-0.1-0.2-0.5-0.7,0.1-0.9c0.5-0.2,0.5,0.3,0.6,0.6c0.4,0.9,0.9,1.8,1.3,2.7
		C38.8,44.1,38.8,44.1,38.7,44.1z"/>
	<path d="M56.3,23.4c0.7,1.3,1.5,2.7,2.2,4c-0.1,0-0.2,0.1-0.2,0.1c-0.8-1.3-2.1-2.3-2.2-4C56.2,23.5,56.3,23.5,56.3,23.4z"/>
	<path d="M45.5,55.1c-0.9-1-1.5-2.1-2.1-3.3c-0.1-0.2,0-0.3,0.1-0.4c0.1-0.1,0.2-0.1,0.3,0.1c0.7,1.2,1.3,2.3,2,3.5
		C45.6,55,45.5,55.1,45.5,55.1z"/>
	<path d="M57.1,38.9c0.7,0.9,1.3,2,2.1,2.7c0.1,0.1,0.3,0.4,0.1,0.6c-0.1,0.2-0.5,0.2-0.6,0C58,41.2,57.2,40.2,57.1,38.9z"/>
	<path d="M67.1,39.8c-0.1,0.1-0.1,0.2-0.2,0.3c-0.1,0.1-0.2,0-0.3-0.1c-0.7-0.9-1.2-2-1.7-3c0-0.1,0-0.2,0.1-0.3c0,0,0.2,0,0.2,0
		C65.9,37.7,66.5,38.7,67.1,39.8z"/>
	<path d="M63.1,44.5c1,0.6,1.3,1.5,1.6,2.5c0,0.1,0,0.3-0.2,0.4c-0.1,0.1-0.2,0-0.2,0C63.8,46.4,63,45.7,63.1,44.5z"/>
	<path d="M58.2,31.7c0.9,0.9,1.3,2.1,1.9,3.2c0.1,0.1,0,0.2-0.1,0.3c-0.1,0-0.2,0-0.3,0C59.1,34,58.1,33,58.2,31.7z"/>
	<path d="M55.1,22.1c-0.9-0.9-1.2-2.1-2-3.1c-0.1-0.1-0.1-0.2,0-0.3c0.1-0.1,0.3-0.1,0.4,0C54.3,19.8,55,20.8,55.1,22.1z"/>
	<path d="M42,38.1c-0.8-0.9-1.4-1.6-2-2.4c-0.1-0.2-0.2-0.6,0.1-0.8c0.4-0.2,0.4,0.2,0.5,0.4C41.1,36.2,41.8,36.9,42,38.1z"/>
	<path d="M48.8,60c0,0.2,0,0.4-0.2,0.4c-0.1,0-0.2-0.1-0.3-0.2c-0.6-0.8-1.1-1.7-1.5-2.6c-0.1-0.1-0.1-0.3,0.1-0.4
		c0.1,0,0.2,0,0.2,0C47.7,58.1,48.2,59.1,48.8,60z"/>
	<path d="M52.1,25.7c-1-0.8-1.6-1.8-2.1-2.9c-0.1-0.1-0.1-0.3,0.1-0.4c0.1,0,0.2,0,0.2,0C51,23.5,51.8,24.5,52.1,25.7z"/>
	<path d="M63.9,34.3c-0.7-1.2-1.9-2-2-3.5C62.8,31.9,63.5,33,63.9,34.3z"/>
	<path d="M60.8,37c1,1.2,1.6,2.4,2.1,3.6C61.9,39.7,61,38.7,60.8,37z"/>
	<path d="M46.1,35.5c0,0.1-0.1,0.2-0.2,0.2c-0.1,0.1-0.2,0-0.3-0.1c-0.6-0.7-1.3-1.3-1.7-2.2c-0.1-0.2-0.1-0.4,0.1-0.5
		c0.2-0.1,0.4-0.1,0.5,0.1c0.5,0.8,0.9,1.7,1.6,2.4C46.1,35.4,46.1,35.4,46.1,35.5z"/>
	<path d="M34.5,35.8c1.5,0.5,1.2,2.2,1.9,3.2C35.8,37.9,34.7,37,34.5,35.8z"/>
	<path d="M54.2,33.6c0.6,0.8,1.1,1.5,1.6,2.1c0.1,0.2,0.3,0.4,0,0.6c-0.3,0.2-0.3-0.1-0.5-0.2C54.7,35.4,54.1,34.8,54.2,33.6z"/>
	<path d="M44.5,28.8c0.5,1.1,1.5,1.9,2.1,3.1C45.6,31.5,44.4,29.9,44.5,28.8z"/>
	<path d="M41.2,23.1c0.7,1,1.6,1.9,1.8,3.2C42,25.5,41.6,24.3,41.2,23.1z"/>
	<path d="M60.7,39.9c0.8,1.2,1.7,1.9,1.6,3.2C61.9,42.1,60.5,41.5,60.7,39.9z"/>
	<path d="M58,50.8c0.8,0.8,1.4,1.7,1.9,2.7c0,0.1,0.1,0.2,0,0.3c-0.1,0-0.3,0-0.3,0C58.9,52.8,58.2,51.9,58,50.8z"/>
	<path d="M40.1,45.7c0.8,1.1,1.2,2.2,2,3.1c0.1,0.1,0.1,0.2,0,0.3c-0.1,0.1-0.2,0.1-0.3,0C41.1,48,40.1,47.2,40.1,45.7z"/>
	<path d="M68,41.7c0.8,0.7,0.9,1.6,1.3,2.3c0.1,0.2,0,0.4-0.3,0.4c-0.1,0-0.4,0.1-0.4-0.1C68.7,43.4,67.7,42.8,68,41.7z"/>
	<path d="M66.2,42.5c-0.4-0.8-0.9-1.6-1.3-2.4c-0.1-0.2-0.3-0.6,0.1-0.7c0.3-0.1,0.4,0.2,0.5,0.4c0.3,0.7,0.5,1.4,0.9,2
		C66.4,42,66.5,42.3,66.2,42.5z"/>
	<path d="M56.4,47.6c-0.9-0.7-1.1-1.7-1.4-2.7C55.7,45.7,56.2,46.5,56.4,47.6z"/>
	<path d="M51.5,52.9c0,0.4-0.2,0.5-0.3,0.3c-0.3-0.5-0.9-0.6-1.1-1.1c-0.1-0.2-0.2-0.4,0.1-0.6c0.2-0.1,0.5-0.1,0.6,0.1
		C51,52.1,51.3,52.5,51.5,52.9z"/>
	<path d="M14.4,50.8c-0.8-0.6-1-1.5-1.4-2.2c-0.5-0.7-0.9-1.4-1.4-2c-0.1-0.1-0.4-0.3-0.2-0.5c0.2-0.3,0.5,0,0.6,0.2
		c0.3,0.4,0.5,0.8,0.7,1.2C13.3,48.5,14.1,49.4,14.4,50.8z"/>
	<path d="M8.3,54.1c0.1,0.1,0.2,0.2,0.3,0.4c0.8,1,1.2,2.2,1.8,3.3c0.1,0.1,0.1,0.3,0,0.4c-0.2,0.1-0.3,0-0.3-0.2
		c-0.6-1.2-1.2-2.3-2-3.4C7.9,54.3,8,54.1,8.3,54.1z"/>
	<path d="M12.6,51.8c-0.4,0.2-0.5-0.1-0.6-0.3c-0.6-0.9-1.3-1.7-1.9-2.6c-0.2-0.3-0.7-0.6-0.3-0.9c0.3-0.2,0.5,0.3,0.7,0.6
		C11.2,49.5,11.9,50.6,12.6,51.8z"/>
	<path d="M16.9,65.1c0,0.2,0,0.3-0.2,0.3c-0.2,0-0.2-0.1-0.2-0.2c-0.5-0.9-0.9-1.8-1.3-2.8C15.1,62.2,15,62,15.2,62
		c0.1,0,0.4,0,0.4,0.1C16.1,63.1,16.5,64.1,16.9,65.1z"/>
	<path d="M20.5,59.7c0.8,1.5,1.6,3,2.4,4.5C22.1,63.8,20.4,60.5,20.5,59.7z"/>
	<path d="M14.6,59.9c-0.1,0-0.1,0.1-0.2,0.1c-0.1,0-0.2-0.1-0.2-0.1c-0.7-1.1-1.3-2.2-2-3.2c-0.1-0.1-0.2-0.3,0-0.4
		c0.1-0.1,0.3-0.1,0.4,0.1c0.8,1.1,1.3,2.3,2,3.5C14.5,59.8,14.5,59.9,14.6,59.9z"/>
	<path d="M15.4,57.8c-0.9-1-1.2-2.2-1.7-3.3c-0.1-0.1-0.2-0.5,0.1-0.6c0.2-0.1,0.4,0.1,0.4,0.3c0.3,1.2,0.9,2.2,1.4,3.3
		C15.5,57.6,15.5,57.7,15.4,57.8z"/>
	<path d="M18.1,63.6c-1.1-0.9-1.4-2.2-2.1-3.3c-0.1-0.1,0-0.3,0.1-0.5c0.1-0.1,0.2,0,0.3,0.1C17,61.1,17.6,62.4,18.1,63.6z"/>
	<path d="M13.3,63.7c-0.9-0.8-1.3-1.9-1.7-3c0-0.1,0.1-0.2,0.2-0.3c0.2-0.1,0.3,0.1,0.3,0.2c0.5,1,1,1.9,1.5,2.9
		C13.5,63.5,13.4,63.6,13.3,63.7z"/>
	<path d="M19.3,61.8c-0.6-1.2-1.2-2.5-1.8-3.7c-0.1-0.2,0-0.4,0.2-0.5c0.2-0.1,0.3,0.1,0.3,0.2c0.4,1.3,1.2,2.5,1.6,3.8
		C19.5,61.7,19.4,61.7,19.3,61.8z"/>
	<path d="M10,62c-0.7-0.8-1.5-1.6-1.8-2.6c-0.1-0.2-0.2-0.4,0-0.6c0.3-0.2,0.4,0.2,0.4,0.3C9.2,60,9.7,61,10,62z"/>
	<path d="M15,48.2c0.9,1.4,1.7,2.7,2.6,4.1c-0.1,0-0.1,0.1-0.2,0.1c-0.9-1.3-2-2.5-2.6-4C14.9,48.3,14.9,48.2,15,48.2z"/>
	<path d="M17,55.6c-0.7-1-1.5-1.8-1.9-2.9c-0.1-0.3-0.2-0.6,0.1-0.7c0.3-0.1,0.3,0.3,0.4,0.5C15.9,53.5,16.6,54.5,17,55.6z"/>
	<path d="M11,54.3c-1-0.8-1.3-1.9-2-2.8c-0.1-0.2-0.2-0.4,0-0.5c0.1-0.1,0.3,0,0.4,0.1c0.2,0.2,0.3,0.4,0.4,0.6
		C10.3,52.6,10.7,53.4,11,54.3z"/>
	<path d="M20.2,63.6c0.5,0.2,0.6,0.4,0.7,0.7c0.2,0.6,0.5,1.3,0.8,1.8c0.1,0.2,0.1,0.4,0,0.5c-0.1,0.1-0.3,0-0.3-0.1
		C21,65.6,20.2,64.8,20.2,63.6z"/>
	<path d="M19.8,57.7c-1.1-0.9-1.6-2.1-1.8-3.5C18.9,55.2,18.8,56.7,19.8,57.7z"/>
	<path d="M14.8,47.1c-0.9-0.6-1.5-1.5-2.1-2.3c-0.1-0.1-0.2-0.3,0-0.4c0.1-0.1,0.3-0.1,0.4,0.1C13.7,45.3,14.3,46.2,14.8,47.1z"/>
</g>
</svg>
