<?xml version="1.0" encoding="utf-8"?>
<!-- Generator: Adobe Illustrator 19.1.0, SVG Export Plug-In . SVG Version: 6.00 Build 0)  -->
<svg version="1.1" id="Layer_1" xmlns="http://www.w3.org/2000/svg" xmlns:xlink="http://www.w3.org/1999/xlink" x="0px" y="0px"
	 width="80px" height="80px" viewBox="0 0 80 80" enable-background="new 0 0 80 80" xml:space="preserve">
<g>
	<path d="M26.7,36c-0.9,0.7-1.6,1.4-2.4,1.9c-2.1,1.3-4.4,2.4-7,2.5c-2.6,0-3.9-1.1-4.5-3.9c-0.2-0.8-0.4-1.6-0.1-2.4
		c0.5-1.4,0.6-3,1.4-4.3c0.8-1.2,1.7-2.4,2.6-3.6c1.2-1.4,2.6-2.7,3.9-4.1c1-1.1,2.3-1.8,3.5-2.5c1.5-1,3.3-1.5,4.6-2.8
		c0.5-0.6,1-1.1,1.3-1.9c0.4-1.2,1.1-2.2,1.6-3.3c0.2-0.6,0.6-1.1,1.1-1.6c-0.1,0-0.1-0.1-0.2-0.1c-0.1,0.1-0.3,0.2-0.5,0.4
		c0-0.1,0-0.1,0-0.2c0.5-2,1.3-3.8,2-5.7c0.4-1,2.2-1.9,3.3-1.5c1.9,0.6,3.8,0.6,5.7,1.2c1.7,0.5,3.4,0.9,5.1,1.3c1,0.2,2,0.1,3,0.2
		c2,0.3,3.9,0.7,5.9,1c1,0.2,2.1,0.1,3.1,0.2c2,0.3,3.6,1.8,3.7,3.7c0,0.5,0.2,1.1-0.1,1.6c0.8,0.4,0.3,1.1,0.4,1.7
		c0.3,1.3,0.3,2.6,0.3,3.9c0,0.8,0.1,1.5,0.3,2.3c0.5,2.1,1.2,4.1,1.5,6.2c0.3,2.2,1,4.3,1,6.6c0,0.8,0.3,1.7,0.4,2.5
		c0.2,1.7,0.5,3.4,0.4,5.1c0,0.7,0.2,1.5,0.3,2.3c0,0.2,0.3,0.5-0.1,0.7c0,0-0.1,0.2-0.1,0.2c1,1,0.6,2.3,0.6,3.5
		c0.1,1.6,0.1,3.1-0.1,4.7c-0.1,1.2-0.3,2.3-0.8,3.3c-0.8,1.7-1.2,3.6-1.9,5.3c-0.5,1.1-0.7,2.3-1.4,3.3c-0.8,1.3-1.5,2.5-2.3,3.8
		c-0.7,1.2-1.7,2.3-2.7,3.2c-1.1,1-2,2.3-3.4,3.1c-1.2,0.6-2.4,1.4-3.7,1.9c-1.6,0.7-3.3,1.3-5,1.8c-1.1,0.3-2.2,0.5-3.3,0.4
		c-0.6,0-1.3,0-1.9,0c-1.7,0.2-3.2,0-4.6-1c-0.6-0.5-1.6-0.5-2.3-1c-2.2-1.6-4-3.6-5.1-6.2c-0.6-1.5-1.3-3-2.2-4.4
		c-0.8-1.3-1.2-2.8-1.6-4.3c-0.4-1.4-0.7-2.7-0.9-4.1C26,55.4,26,54.1,26,52.9c0-1.5-0.1-3,0.1-4.4c0.2-2,0.2-4,0.2-6
		C26.3,40.3,26.8,38.3,26.7,36z M51.9,25.9c-0.1,0.6,0.3,1.4-0.3,1.9c0,0,0,0.2,0,0.2c0.4,1.6-0.2,3.2-0.3,4.7
		c-0.1,1.7-0.4,3.4-0.5,5.1c-0.1,1.5-0.2,3-0.3,4.5c-0.1,1.2-0.2,2.5-0.3,3.7c-0.2,2.2-0.2,4.5-0.4,6.7c-0.2,2.4-0.5,4.7-0.8,7.1
		c-0.3,2.5-0.2,5-0.5,7.5c-0.3,2.1-0.4,4.2-0.9,6.2c-0.2,0.7-0.4,1.4-0.3,2.2c0.1,0.2-0.1,0.7,0.4,0.7c0.4,0,0.6-0.3,0.6-0.7
		c0.1-1,0.3-2.1,0.4-3.1c0.2-1.5,0.2-3,0.3-4.5c0.2-2.3,0.5-4.7,0.7-7c0.2-2.9,0.5-5.8,0.7-8.7c0.1-1.2,0.5-2.5,0.5-3.7
		c0-2,0.4-4,0.6-6c0.3-2.8,0.6-5.5,0.8-8.3c0.2-2.5,0.3-5,0.8-7.5c0.2-1.2,0.5-2.4,0.3-3.7c-0.2-0.8,0-1.8,0.2-2.6
		c0.3-1.1,0.3-2.2,0.5-3.3c0-0.3-0.1-0.7-0.5-0.7c-0.5,0-0.2,0.5-0.4,0.6c-0.1,0.1,0,0.3-0.1,0.5c-0.2,0.6,0.2,1.4-0.4,1.9
		c-0.1,0-0.2,0.1-0.2,0.1c-0.2-0.7-0.2-1.3,0.1-2c0.4-1.1,0.2-1.4-1-1.5c-0.7-0.1-1.5-0.2-2.2-0.3c-0.4-0.1-0.5,0.1-0.6,0.5
		c-0.4,1.9-0.5,3.8-0.8,5.6c-0.7,3.8-1.1,7.6-1.6,11.4c-0.1,1-0.1,1.9-0.3,2.9c-0.2,1.2-0.4,2.3-0.5,3.5c-0.5,3.1-0.4,6.2-0.8,9.3
		c-0.2,1.9,0,3.9-0.1,5.8c-0.1,1.3-0.1,2.6-0.1,3.8c-0.1,2.3-0.3,4.7-0.8,6.9c-0.3,1.6-0.2,3.2-0.5,4.8c-0.3,1.8-0.4,3.7-0.5,5.5
		c0,0.5-0.1,1,0.7,0.8c0.4-0.1,1,0,1.5,0c1.7-0.1,1.6,0.1,1.7-1.5c0.2-2.3,0.6-4.5,0.8-6.8c0.3-2.4,0.5-4.8,0.7-7.3
		c0.1-2.2,0.2-4.5,0.7-6.6c0.5-2.4,0.1-4.7,0.5-7.1c0.2-1.3,0.1-2.6,0.2-3.9c0.3-2.7,0.3-5.5,0.7-8.2c0.2-1.3,0.5-2.5,0.5-3.8
		c0-1.6,0.4-3.1,0.5-4.7c0-0.4-0.1-0.9,0.5-1.2C51.8,25.9,51.9,25.9,51.9,25.9z M35.7,48.4c0-0.6,0.1-1.1,0.3-1.6
		c0.3-1.3-0.1-2.6,0.4-3.8c0.3-0.8,0.1-1.5,0.2-2.3c0.2-1.5,0-3.1,0.3-4.6c0.3-1.6,0.5-3.2,0.5-4.7c0-3.1,1-6,1.2-9
		c0.2-2.2,0.9-4.4,1.1-6.7c0-0.4,0.2-1-0.1-1.1c-0.4-0.1-0.8-0.3-1.2-0.4c-1.8-0.1-3.5-0.5-5.2-1.1c-0.6-0.2-1.5-0.1-1.5,0.4
		c0,0.8-1.6,1-0.9,2.1c0,0-0.2,0.3-0.3,0.4c-0.3,0.3-0.3,0.5,0.1,0.7c0.2,0.1,0.2,0.1,0.3,0.3c0.4,1.2,0.6,2.5,0.6,3.8
		c0.1,2.1,0,4.1-0.4,6.2c-0.3,1.5-0.4,3.2-1.1,4.6c-0.6,1.2-1.1,2.5-2,3.5c-0.2,0.2-0.5,0.3-0.6,0.7c-0.2,1.8-0.4,3.6-0.6,5.5
		c-0.1,1.2,0,2.5-0.1,3.7c-0.2,3.8-0.3,7.5,0,11.3c0.2,3.1,1.2,5.9,2.4,8.6c1,2.1,1.9,4.1,3,6.1c0.4,0.8,0.9,1.5,1.6,2.2
		c0.3-2,0.6-3.9,1-5.8c0.1-0.9-0.3-1.7-0.1-2.6c0.1-0.4,0.3-0.8,0.2-1.2c-0.5-1.4,0-2.7,0-4.1c0.1-2.7,0.3-5.4,0.4-8.2
		c0-0.5,0-0.5,0.6-0.6c-0.1,1.7-0.2,3.5-0.3,5.2c-0.1,1.9-0.3,3.8-0.2,5.7c0.1,1.7,0,3.4,0,5.1c0,1.9-0.5,3.8-0.7,5.8
		c-0.1,0.7,0,1.3,0.7,1.7c0.2-1.3,0.1-2.5,0.3-3.7c0.3-1.5,0.3-3.1,0.5-4.6c0.1-0.9-0.1-1.8,0-2.7c0.2-0.9,0.3-1.9,0-2.8
		c-0.1-0.2-0.2-0.5,0-0.7c0.4-0.6,0.5-1.3,0.4-2.1c-0.1-0.9-0.1-1.7,0.2-2.5c0.1-0.3,0.1-0.7,0-1C37,53.4,37,52.7,37.3,52
		c0.2-0.5,0.3-1,0-1.6c-0.2-0.4-0.7-0.9-0.5-1.4c0.5-1,1.1-1.9,1-3.1c0-0.7,0.3-1.4,0-2.2c-0.2-0.7-0.2-1.4,0.3-2
		c0.4-0.5,0.5-1.1,0.2-1.7c-0.3-0.5-0.2-1.1,0.1-1.6c0.1-0.2,0.2-0.5,0.2-0.7c0.1-1.3,0-2.7,0.4-3.9c0.3-0.9,0-1.7,0.2-2.6
		c0.2-0.9,0.5-1.9,0.7-2.8c0.5-2.6,0.7-5.3,1.1-7.9c0.3-1.5,0.4-3.2,0.2-4.8c0-0.3,0.3-0.7-0.3-0.7c-0.5,0-0.5,0.4-0.5,0.7
		c-0.1,0.5,0,1.1-0.1,1.6c-0.5,3.1-1,6.3-1.6,9.4c-0.4,2-0.4,4.1-0.7,6.1c-0.4,2.8-0.4,5.6-0.8,8.4c-0.3,2.1-0.3,4.3-0.7,6.4
		C36.4,47.9,36.3,48.3,35.7,48.4z M56.6,72.3c0.3-0.2,0.6-0.4,0.8-0.6c1.5-1.4,3-2.8,4.2-4.5c0.8-1.3,1.5-2.7,2.4-3.8
		c0.4-0.5,1-0.9,0.8-1.7c0-0.1,0.1-0.2,0.1-0.2c0.7-2,1.6-4.1,2.3-6.1c0.4-1.1,1-2,1.1-3.2c0.2-1.7,0.1-3.4,0.1-5
		c-0.1-2.5-0.6-5-0.7-7.5c0-2.2-0.3-4.3-0.5-6.5c-0.2-2.3-0.8-4.6-1.3-6.8c-0.1-0.3,0-0.6-0.2-0.9c-0.9-1.9-1-4-1.7-6
		c0,0,0-0.1,0-0.2c0.1-0.4-0.1-0.9-0.4-1c-0.5-0.2-1.1-0.3-1.6-0.4c-0.7-0.1-0.8,0.2-0.8,0.8c-0.2,1.4,0.2,2.9-0.1,4.3
		c-0.1,0.3-0.1,0.6-0.1,0.9c0.1,2-0.2,4-0.3,5.9c-0.1,2.1-0.4,4.2-0.5,6.3c-0.1,2.8-0.4,5.6-0.4,8.3c0,1.8-0.1,3.7-0.2,5.5
		c0,2.3-0.1,4.6-0.3,6.9c-0.3,2.5-0.6,4.9-0.9,7.4c-0.2,1.3-0.4,2.7-0.7,3.9C57.1,69.4,56.7,70.8,56.6,72.3z M60.5,17.7
		c-1.5-0.2-1.2-0.3-1.3,1.1c-0.1,0.7,0,1.4-0.1,2c-0.5,2.5-0.5,5.1-0.7,7.6c-0.1,1.4,0,2.8-0.2,4.2c-0.3,1.6-0.4,3.3-0.4,4.9
		c0.1,3.4-0.5,6.7-0.7,10c-0.1,1.5-0.1,3-0.4,4.5c-0.3,1.6-0.3,3.4-0.5,5.1c-0.2,1.6-0.4,3.3-0.5,4.9c-0.1,2.3-0.4,4.6-0.7,6.8
		c-0.2,1.2-0.6,2.4-0.7,3.7c0,0.3-0.2,0.7,0.2,0.8c0.3,0.1,0.5-0.2,0.8-0.4c0.6-0.5,0.4-1.2,0.6-1.8c0.4-1.2,0.7-2.3,0.9-3.5
		c0.2-1.7,0.6-3.3,0.9-5c0.5-2.3,0.6-4.7,0.9-7.1c0.2-1.6,0.2-3.4,0.1-5c-0.1-1,0.4-2,0.2-2.9c-0.4-1.5,0.2-3,0.1-4.5
		c-0.1-1.7,0.1-3.4,0.3-5.1c0.1-1.3,0.1-2.6,0.2-3.8c0.1-1.3,0.3-2.6,0.4-3.8c0-3,0.5-5.9,0.4-8.9C60.3,20.2,60.5,18.9,60.5,17.7z
		 M48.2,15.8c-0.3-0.1-0.7-0.2-0.8,0.2c-0.1,0.3-0.2,0.6-0.2,0.9c0,1.2-0.1,2.5-0.3,3.7c-0.5,3.2-1.3,6.4-1.6,9.6
		c-0.2,2-0.5,4-0.8,5.9c-0.4,2.4-0.8,4.8-1.1,7.3c-0.4,3.1-0.7,6.3-0.5,9.4c0.2,2.7,0,5.5-0.2,8.2c-0.2,2.1-0.6,4.2-0.6,6.3
		c0,1.5-0.1,3-0.2,4.5c-0.1,1.6-0.5,3.3-0.4,4.9c0,0.1,0,0.2,0.1,0.3c0.2,0,0.3,0,0.3-0.2c0.4-1.9,0.5-3.8,0.7-5.8
		c0.1-1.8,0.2-3.7,0.5-5.5c0.6-2.7,0.8-5.4,0.8-8.1c0.1-1.7-0.1-3.4,0-5c0.2-2.7,0.3-5.4,0.5-8c0.1-1.9,0.4-3.9,0.7-5.8
		c0.2-1.3,0.3-2.7,0.5-4.1c0.4-2,0.5-4,0.7-6.1c0.2-2.2,0.6-4.3,1-6.4c0.3-1.7,0.2-3.6,0.7-5.3C48.3,16.6,48.1,16.1,48.2,15.8z
		 M28.1,22c-0.7,1-0.9,1.9-0.6,2.8c0.1,0.3-0.1,0.5-0.2,0.6c-0.5,0.3-0.5,0.7-0.6,1.2c-0.8,2.9-0.4,5.8-0.6,8.7
		C27.3,31,27.3,26.4,28.1,22z M50.4,13.7c0.1-0.5,0.1-1,0.2-1.5c0.1-1.1,0-2.1,0.3-3.2c0.2-0.6,0.2-1.4,0-2.2
		c-0.1-0.3,0-0.6-0.5-0.6c-0.3,0-0.5,0.1-0.5,0.5c-0.1,0.7-0.1,1.3-0.2,2c-0.3,1.3-0.4,2.5-0.6,3.8c0,0.4-0.1,0.9,0.2,1
		C49.6,13.8,50,14.1,50.4,13.7z M60.3,7.7c0.4,0.6-0.1,1.3,0,1.9c0.2,1.6-0.5,3-0.6,4.6c0,0.3-0.2,0.7,0.3,0.9
		c0.4,0.1,0.8,0.2,0.9-0.5c0.2-1.7,0.5-3.5,0.6-5.2C61.5,8.4,61.4,7.8,60.3,7.7z M27.8,32c1.3-3.8,1.3-7.7,1.5-11.6
		C28.6,24.2,27.8,28,27.8,32z M38.2,3.9c-0.1,0-0.2,0-0.3,0c-0.2,0.1-0.3,0.3-0.2,0.5c0.2,0.4,0,0.7-0.2,1.1
		c-1.1,1.6-1.1,3.5-1.4,5.3c-0.1,0.5,0.3,0.6,0.6,0.7c0.4,0.1,0.4-0.2,0.5-0.5c0.2-1,0.4-2,0.6-3c0.1-0.7,0.3-1.4,0.4-2.1
		c0.1-0.6-0.1-1.1,0.1-1.7C38.3,4.1,38.2,4,38.2,3.9z M42.7,4.8c-0.1-0.2-0.3-0.1-0.5-0.1C42,4.7,41.9,4.9,42,5c0,0.2,0.1,0.4,0,0.6
		c-0.5,1.8-0.7,3.6-1,5.4c-0.1,0.4-0.5,1.2,0.3,1.3c0.6,0.1,0.4-0.8,0.5-1.2c0.4-2,1-3.9,0.9-6C42.7,5.1,42.9,4.9,42.7,4.8z
		 M42.3,60.6c-0.3,0.1-0.5,0.3-0.5,0.5c0.2,1-0.7,1.3-1.1,2c-0.7,1-0.9,2.2-1.1,3.4c0,0.2-0.4,0.6,0,0.7c0.3,0.2,0.5-0.2,0.7-0.4
		c0.1-0.1,0.2-0.3,0.3-0.5c0.4-0.8,0.5-1.8,1-2.5C42.3,62.8,42.1,61.7,42.3,60.6z M42.5,37.5c-1,0.1-1.3-0.6-1.3-1.3
		c-0.1-0.7-0.5-0.9-0.9-1.3c-0.3-0.3-0.5-0.3-0.7,0.2c-0.5,1.5,0.5,2.5,1.2,3.6c0.1,0.2,0.5,0.3,0.6,0
		C41.6,38.3,42.3,38.2,42.5,37.5z M37.7,11.8c0.4-0.3,1.1-0.1,1-0.9c0-0.8,0.3-1.6,0.5-2.3c0.3-1.1,0.5-2.2,0-3.6
		C38.4,7.3,38.1,9.5,37.7,11.8z M54.4,14.1c0-0.2,0.1-0.3,0.1-0.5c0.1-2-0.3-4.1,0.2-6.1c0-0.2-0.1-0.4-0.1-0.6
		c-0.1-0.3-0.3-0.2-0.5-0.2c-0.2,0-0.2,0.1-0.2,0.3c0.1,0.9-0.1,1.8-0.1,2.7c0,1.3,0.1,2.7-0.1,4c0,0.2-0.1,0.4,0.2,0.5
		C54.1,14.2,54.2,14.4,54.4,14.1z M39.9,50.3c1.3-0.2,2-1.2,2.1-2.3c0-0.6-0.1-1.3,0.6-1.7c0.2-0.1,0.3-0.5,0-0.8
		C40.9,46.7,40.3,48.4,39.9,50.3z M46.8,16.2c-0.9,0.8-1.4,1.8-2,2.6c-0.4,0.5-0.1,1.2-0.4,1.7c-0.1,0.2,0.1,0.3,0.4,0.3
		c0.3-0.1,0.4-0.3,0.6-0.4C46.5,19.3,46.8,17.9,46.8,16.2z M62.6,14.9c0-0.1,0.1-0.2,0.1-0.3c-0.1-1.4,0.2-2.8,0-4.2
		c0-0.2,0.1-0.5-0.2-0.6c-0.3,0-0.4,0.3-0.4,0.6c-0.2,1.4-0.4,2.8-0.6,4.1c0,0.2-0.1,0.5,0.2,0.5C62,15.1,62.3,15.2,62.6,14.9z
		 M26.7,22.4c0.8-0.7,0.6-1.6,0.7-2.4c0.1-0.3-0.3-0.3-0.5-0.2c-0.7,0.2-1.7,1.7-1.7,2.5c0,0.3-0.1,0.8,0.2,0.9
		c0.3,0.2,0.5-0.3,0.7-0.4C26.4,22.7,26.5,22.5,26.7,22.4z M42.6,56.3c-0.5,0.7-0.3,1.3-0.8,1.8c-0.9,0.8-1.5,2-2,3.1
		c-0.1,0.3-0.7,0.7-0.2,0.9c0.3,0.2,0.9-0.2,1.1-0.4c0.7-0.9,1.5-1.8,1.2-3.1c0-0.2,0.1-0.4,0.2-0.4C42.7,57.8,42.6,57.2,42.6,56.3z
		 M48.4,13.3c0-0.1,0-0.2,0-0.3c0.3-1,0.2-2,0.4-2.9c0.1-1.1,0.3-2.2,0.4-3.4c0-0.2,0.1-0.5-0.2-0.5c-0.2,0-0.4,0.2-0.4,0.5
		c0.1,0.3,0.1,0.5,0,0.8c-0.5,1.4-0.4,2.9-0.7,4.4c-0.1,0.4-0.1,0.7-0.1,1.1c0,0.2,0,0.3,0.3,0.4C48.1,13.4,48.3,13.5,48.4,13.3z
		 M35.5,10.6c0-0.2,0.1-0.4,0.1-0.6c0.1-1.6,0.4-3.1,1-4.5c0.1-0.4,0.1-0.7,0.2-1.1c0-0.1,0.1-0.3-0.1-0.3c-0.2,0-0.3,0.1-0.3,0.2
		c-0.3,0.6-0.6,1.2-0.8,1.9c-0.3,1.3-0.3,2.8-0.8,4.1c-0.1,0.2-0.1,0.4,0.2,0.5C35.1,10.7,35.3,10.8,35.5,10.6z M41.6,35.2
		c0.1-0.4,0.1-0.6,0.3-0.8c0.6-0.6,0.3-1.1-0.1-1.7c-0.2-0.4-0.6-0.5-0.9-0.7c-0.5-0.4-0.9-0.2-0.9,0.4c0,0.4,0,0.7,0.2,1.1
		C40.4,34.2,41.3,34.4,41.6,35.2z M53.7,62.6C53.7,62.6,53.7,62.6,53.7,62.6c0.4-0.5,0.7-1,1-1.5c0.2-0.4,0.2-0.9-0.1-1.1
		c-0.3-0.3-0.7,0.1-0.9,0.4c-0.3,0.3-0.6,0.7-0.9,1c-0.2,0.2-0.8,0-0.6,0.6c0.1,0.3,0.1,0.7,0.2,1.1c0.1,0.3,0.5,0.3,0.7,0.1
		C53.4,63,53.6,62.8,53.7,62.6z M40.9,5.9c-0.4,0.7-0.6,1.1-0.7,1.6c-0.2,1.3-0.4,2.5-0.7,3.7c-0.1,0.4-0.1,0.6,0.3,0.8
		c0.6,0.2,0.6-0.3,0.6-0.6C40.5,9.7,41,7.9,40.9,5.9z M50.6,63.8c-0.2,0.8-0.4,1.7,0,2.3c0.3,0.5,0.8,0.9,1,1.5
		c0.1,0.2,0.4,0.5,0.4,0.1c0.1-0.4,0.3-0.8,0.2-1.4C52.2,65.1,51.5,64.5,50.6,63.8z M26.7,23.5c-1.1,0.7-1.8,1.5-2.3,2.4
		c-0.2,0.3-0.6,0.9-0.2,1.2c0.3,0.2,0.9-0.1,1.3-0.4C26.5,26,26.4,24.8,26.7,23.5z M37.3,62.9c0,1.2-0.3,2.2,0.3,3.2
		c0.2,0.3,0.5,0.8,0.8,0.6c0.5-0.2,0.8-0.9,0.6-1.4C38.7,64.5,38.3,63.6,37.3,62.9z M57.7,22.5c0.5-0.5,0.6-1,0.8-1.6
		c0-0.2-0.1-0.4-0.3-0.5c-0.2-0.1-0.3,0-0.4,0.1c-0.5,0.5-1,0.9-1.2,1.6c-0.2,0.5-0.4,1.2-1.2,1c-0.1,0-0.3,0-0.3,0.2
		c0,0.2,0.1,0.4,0.3,0.6c0,0.1,0.2,0.1,0.3,0C56.4,23.5,57.2,23.1,57.7,22.5z M42.2,28.7c0.1-0.4,0.2-0.7,0.4-1
		c0.5-0.8,0.2-1.3-0.4-1.9c-0.4-0.4-1.1-0.2-1.1,0.4C41.1,27.1,40.9,28.1,42.2,28.7z M40.6,41.7c0.4,0.4,0.7,0.6,1.1,0.1
		c0.4-0.6-0.1-0.7-0.4-1c-0.2-0.2-0.4-0.2-0.5-0.5c-0.1-0.6-0.4-0.9-1-1.2c-0.2-0.1-0.3-0.4-0.6-0.2c-0.2,0.2-0.1,0.4-0.1,0.7
		C39.4,40.5,40,41.1,40.6,41.7z M44.3,18.5c0-0.3,0.4-0.5,0.2-0.8c-0.6-0.6-0.6-1.5-1.2-2c-0.1-0.1-0.1-0.4-0.3-0.4
		c-0.2,0-0.3,0.2-0.4,0.4c-0.3,0.8,0.3,2.5,1.1,2.9C44,18.8,44.2,18.7,44.3,18.5z M15.6,32.5c-0.7,1.4,0.6,1.9,1.2,2.8
		c0.1,0.2,0.3,0.1,0.4-0.1c0.8-0.7,0.7-1.8-0.3-2.2C16.4,32.9,16,32.6,15.6,32.5z M35,5.1c-0.5,0.3-0.6,0.9-0.8,1.4
		c-0.3,1-0.7,1.9-1,2.9c-0.2,0.6,0.4,0.7,0.7,0.9c0.2,0.1,0.4-0.1,0.4-0.3C34.5,8.3,34.6,6.7,35,5.1z M22.2,30.3
		c0.2,0.3,0.5,0,0.7-0.1c0.6-0.3,0.5-2.2-0.1-2.5c-0.3-0.1-0.7-0.7-1-0.2C21.4,28.1,21.8,30,22.2,30.3z M46.1,22.9
		c0.3-0.5,0.2-1.1,0.3-1.6c0-0.2-0.1-0.2-0.3-0.2c-0.7,0.2-1.4,1.3-1.4,2.2c0,0.2-0.1,0.3-0.3,0.4c-0.5,0.1-0.4,0.5-0.2,0.8
		c0.2,0.3,0.5,0,0.7-0.1C45.5,24,45.4,23.1,46.1,22.9z M19,34c-0.4,0.4-0.7,0.7-0.6,1.2c0,0.3-0.3,0.6,0.1,0.8
		c0.4,0.1,0.5-0.2,0.8-0.3c0.8-0.6,0.7-1.6,1.3-2.3c0.1-0.1,0.1-0.3,0-0.4c-0.1-0.2-0.3-0.1-0.4,0.1C19.8,33.4,19.3,33.6,19,34z
		 M54.6,18.4c-0.2,0.8,0,1.5-0.1,2.2c-0.1,0.5,0.3,1,0.4,1.5c0.1,0.2,0.2,0.3,0.4,0.2c0.5-0.3,0.9-2.2,0.4-2.5
		C55.2,19.5,55,19,54.6,18.4z M56.2,33.7c1-0.3,0.9,0.3,0.8,0.8c-0.1,0.6-0.2,1.3-0.6,1.8c-0.3,0.3-0.4,0.7,0.2,0.8
		c0.2,0,0.4,0.1,0.6,0.1c0.2-1,0.1-1.9,0.2-2.8c0.1-0.8,0.7-1.7,0.1-2.8C57.3,32.6,56.5,32.9,56.2,33.7z M51.4,53.4
		c-0.4,0.7-0.3,1.5-0.3,2.3c0,0.5,0.4,1,0.9,1c0.4,0,0.6-0.5,0.7-1c0.1-0.5,0-1-0.5-1.3C51.8,54.2,51.6,53.9,51.4,53.4z M50.4,70.2
		c0.6,0.5,0.8,0.4,1-0.4c0.2-0.9-0.3-1.9-1.1-2.4c-0.2-0.1-0.3,0-0.4,0.2C49.6,68.3,49.9,69.8,50.4,70.2z M39.4,63.1
		c-0.8-0.5-0.8-0.5-0.5-1.4c0.2-0.6-0.3-1.5-0.9-1.8c-0.4-0.2-0.5-0.1-0.5,0.3c-0.2,1.2,0.3,2,1,2.8C38.7,63.2,39,63.4,39.4,63.1z
		 M56.4,18.2c-0.2,0.2-0.4,0.3-0.5,0.5c-0.4,0.6,0.3,0.9,0.5,1.2c0.3,0.4,0.3-0.2,0.5-0.3c0.6-0.3,0.7-1,1.1-1.5
		c0.1-0.1,0.3-0.4,0.2-0.6c-0.2-0.2-0.5-0.2-0.7-0.2C57,17.4,56.8,17.9,56.4,18.2z M18.5,32.9c1-0.2,2.1-1.3,2.2-2.2
		c0-0.3,0-0.6-0.4-0.7c-0.5-0.1-1.8,1.1-1.6,1.5C18.9,32.1,18.7,32.5,18.5,32.9z M39.2,55.4c-0.2-0.6,0.4-1.3,0-2
		c-0.2-0.4-0.5-1.1-1.1-0.9c-0.6,0.1-0.2,0.7-0.2,1.1c0,0.2,0,0.4-0.1,0.6c-0.1,0.7,0.6,0.9,0.9,1.4C38.9,55.8,39.1,55.7,39.2,55.4z
		 M42.6,41.8c-0.4,0.5-0.8,0.9-1.2,1.4c-0.3,0.5-0.6,1-0.5,1.6c0,0.3,0.1,0.6,0.6,0.3C42.3,44.7,43,42.8,42.6,41.8z M38.4,56.4
		c-0.2-0.1-0.3-0.4-0.5-0.3c-0.3,0.1-0.2,0.5-0.2,0.7c0,0.8,0.1,1.6,0.7,2.2c0.4,0.5,0.6,0.3,0.8-0.2C39.4,58,39.1,57,38.4,56.4z
		 M20.9,27.1c-0.4,0.3-0.8,0.5-1.2,0.7c-0.5,0.3-0.8,0.7-1,1.2c-0.1,0.2-0.1,0.5,0.1,0.6c0.2,0.2,0.4,0,0.6,0
		C20.5,29.2,21.1,28.4,20.9,27.1z M52,60.7c0.7-1.3-0.1-2.3-0.7-3.3c-0.1-0.1-0.3-0.2-0.4-0.3c-0.1,0.1-0.2,0.2-0.1,0.3
		C50.9,58.6,50.7,59.9,52,60.7z M38,67.9c-0.2-0.1-0.4-0.5-0.7-0.4c-0.3,0.1-0.1,0.5-0.1,0.7c-0.1,0.8,0.3,1.4,0.8,1.9
		c0.1,0.2,0.3,0.4,0.6,0.2c0.2-0.1,0.5-0.5,0.4-0.6C38.4,69.2,38.7,68.3,38,67.9z M39.6,42.1c-0.3-0.3-0.6-0.2-0.6,0.2
		c-0.1,0.7-0.1,1.4,0.1,2c0.1,0.3,0.3,0.4,0.6,0.5c0.2,0,0.4-0.2,0.5-0.4C40.5,43.3,40.4,42.7,39.6,42.1z M22.4,26.7
		c0.3,0.1,0.5,0.6,0.8,0.1c0.5-0.7,0.4-2-0.1-2.6c-0.2-0.2-0.4-0.2-0.7-0.1c-0.4,0.2-0.2,0.3,0,0.6c0.1,0.2,0.2,0.5,0,0.6
		C21.6,25.9,22.3,26.3,22.4,26.7z M21.6,23.8c-1.1,0.4-1.8,1.3-2.2,2.3c-0.1,0.2-0.1,0.5,0.3,0.6c0.6,0.1,1.7-0.8,1.7-1.4
		C21.4,24.7,21.4,24.2,21.6,23.8z M52.8,8c0,0.1-0.1,0.1-0.1,0.2c-0.1,1.8-0.2,3.5-0.3,5.3c0,0.4,0.3,0.3,0.4,0.4
		c0.3,0.1,0.3-0.1,0.3-0.4c0-1.4,0-2.8,0-4.3C53.1,8.9,53.3,8.4,52.8,8z M54.5,41.8c0,0.2-0.2,0.3-0.2,0.4c-0.3,0.4,0,0.8,0.1,1.1
		c0,0.2,0.2,0.2,0.4,0.1c0.5-0.2,1.5-1.5,1.5-2c0-0.3,0-0.7-0.7-0.4C55.1,41.2,54.9,41.6,54.5,41.8z M42.3,36.7
		c0.8-0.4,1.2-0.9,1.4-1.7c0.1-0.3,0-0.6,0.4-0.7c0.4-0.2,0.3-0.6,0.4-0.9c0-0.1,0.1-0.3-0.1-0.4c-0.2-0.1-0.3,0-0.4,0.1
		c-0.4,0.4-0.9,0.8-1.3,1.2c-0.2,0.2-0.4,0.7-0.3,0.7C43.2,35.8,42.3,36.2,42.3,36.7z M53,48c-0.3-0.2-1,0-1,0.4
		c0,0.5,0,1.1,0.2,1.6c0.1,0.3,1.1,0.6,1.2,0.4C53.6,50.1,53.3,48.2,53,48z M25.4,32.3c-0.3,0.1-0.3,0.3-0.3,0.5
		c0.1,0.4,0,0.6-0.5,0.8c-0.7,0.3-1.1,1-1.4,1.8c-0.1,0.2-0.1,0.5,0.3,0.5c0.2,0,1.7-1.2,1.7-1.5C25.3,33.7,25.7,33,25.4,32.3z
		 M47.3,8.9c-0.3,0.6-0.8,0.9-1.2,1.3c-0.4,0.4-0.6,0.9-0.8,1.4c-0.1,0.3,0,0.4,0.2,0.6c0.3,0.2,0.4,0,0.5-0.2
		c0.4-0.4,0.4-1.1,0.9-1.3C47.9,10.3,47.4,9.6,47.3,8.9z M40.1,57.8c1.7-0.7,2.3-1.8,1.6-3.1C40.8,55.6,39.9,56.5,40.1,57.8z
		 M15,36.4c-0.3-0.6-0.7-0.2-1-0.1c-0.4,0.1-0.2,0.5-0.1,0.8c0.2,0.4,0.5,0.8,0.7,1.2c0.1,0.2,0.3,0.5,0.6,0.4
		c0.3-0.1,0.4-0.4,0.4-0.7C15.6,37.4,15.2,36.9,15,36.4z M24.1,21.3c-0.2,0-0.3-0.5-0.6-0.2c-0.5,0.5-0.1,2.7,0.5,3
		c0.2,0.1,0.5,0.1,0.7,0c0.2-0.1,0.2-0.3,0-0.4c-0.5-0.5-0.4-1.1-0.3-1.7C24.5,21.8,24.4,21.5,24.1,21.3z M54.1,41.1
		c0.3-0.3,0.2-2.2-0.2-2.4C53.5,38.5,53,38.5,53,39c-0.1,0.6,0,1.2,0.1,1.8C53.1,41.1,53.9,41.3,54.1,41.1z M54.2,47.7
		c-0.1,0.1-0.3,0.3-0.5,0.4c0.4,0.4,0,1.1,0.5,1.4c0.5,0.2,0.6-0.5,0.9-0.7c0.1-0.1,0.2-0.2,0.2-0.3c0.2-0.5,0.6-1.1,0.1-1.5
		C55.1,46.7,54.6,47.3,54.2,47.7C54.3,47.7,54.3,47.7,54.2,47.7z M17.6,32.3c0.4-0.6,0.2-1.1-0.2-1.6c-0.4-0.3-0.6-0.6-0.9-1
		c-0.1-0.1-0.1-0.4-0.4-0.3c-0.2,0.1-0.1,0.3-0.2,0.4c-0.1,0.4-0.1,0.8,0.1,1c0.3,0.3-0.1,0.9,0.1,0.8C16.9,31.3,17,32.1,17.6,32.3z
		 M51.7,13.9c0.2-0.5,0-1,0.1-1.4c0.1-1.1,0.4-2.2,0.2-3.3C52,9,52,8.8,51.8,8.8c-0.2,0-0.2,0.1-0.3,0.3c-0.3,1.5-0.2,3-0.3,4.5
		c0,0.2,0,0.3,0.2,0.4C51.6,13.9,51.7,13.9,51.7,13.9z M52.9,65.9c0.8-0.5,1.4-1.1,1.9-1.9c0.2-0.3,0.3-0.7,0.1-0.9
		c-0.3-0.2-0.6,0-0.8,0.3c-0.1,0.2-0.4,0.3-0.5,0.4C53.1,64.5,52.4,65,52.9,65.9z M45.6,24.8c-1,1-1.8,2-2.3,3.1
		c-0.1,0.2-0.2,0.4,0,0.6c0.2,0.1,0.4-0.1,0.6-0.2c0.1,0,0.2-0.2,0.3-0.4c0.7-0.8,0.7-2,1.4-2.8C45.7,25.2,45.7,25.1,45.6,24.8z
		 M43.3,25.1c0-0.5-0.1-0.9,0-1.4c0.2-0.6-0.2-1-0.6-1.3c-0.2-0.1-0.4-0.3-0.6-0.2c-0.1,0.1-0.3,0.4-0.2,0.6
		C42.1,23.7,42,24.8,43.3,25.1z M55,33.6c1-0.5,1.3-0.8,1.6-1.5c0.3-0.6-0.1-0.8-0.6-0.8c-0.8,0-1.3,0.8-1.2,1.5
		C55,33,55,33.3,55,33.6z M43.1,21.5c0.4,0.4,0.7,0.7,1,0.3c0.3-0.4-0.2-0.4-0.3-0.6c-0.2-0.3-0.5-0.5-0.4-0.8
		c0.2-0.6-0.1-0.9-0.4-1.3c-0.2-0.2-0.2-0.5-0.6-0.3c-0.3,0.1-0.4,0.4-0.3,0.6C42.4,20.2,42.7,21,43.1,21.5z M38.4,48.9
		c-0.2,0.6-0.1,1.2-0.1,1.8c-0.1,0.7,0.7,1.1,1.1,1.2c0.4,0.1,1.3-0.1,1.3-1.1C38.7,51.7,39.3,49.6,38.4,48.9z M53.5,47.1
		c1.1-0.6,1.7-1.6,2.3-2.5c0.1-0.1,0.3-0.3,0.1-0.5c-0.2-0.2-0.4-0.1-0.6,0C54.4,44.8,53.6,45.6,53.5,47.1z M21.7,33.5
		c0.2,0.1,0.4,0.3,0.5,0c0.2-0.4,0.3-0.8,0.3-1.2c0-0.7-0.5-1-1.1-1c-0.5,0-0.4,0.5-0.5,0.8C20.7,32.9,21.5,33,21.7,33.5z
		 M39.4,45.6c-0.2,0-0.5-0.4-0.6,0.1c-0.2,0.7-0.1,1.5,0.3,2.1c0.3,0.4,0.6,0.5,0.8-0.1C40.2,47.1,40.1,46.2,39.4,45.6z M52.7,71.3
		c0.5-0.3,0.6-0.9,0.9-1.3c0.1-0.2,0-0.5-0.2-0.7c-0.3-0.2-0.4,0.1-0.5,0.2c-0.4,0.3-0.8,0.7-1,1.2c-0.2,0.4-0.4,1.1,0,1.3
		C52.3,72.2,52.4,71.5,52.7,71.3z M41,67.9c-1,0.6-1.4,1.5-1.6,2.5c-0.1,0.4,0.1,0.5,0.4,0.3C40.8,70.3,41.3,69.1,41,67.9z
		 M53.1,59.5c0.2-0.5,0.7-0.6,1-0.9c0.3-0.3,0.5-0.7,0.7-1.1c0.1-0.2,0.2-0.5,0-0.6c-0.2-0.1-0.5-0.1-0.7,0
		c-0.6,0.4-0.7,1.3-1.3,1.6C52.6,58.5,52.9,59.1,53.1,59.5z M25.9,27.4c-1.4,0.5-1.9,1.7-2.3,2.9c0,0.1,0,0.2,0,0.3
		c0.1,0.1,0.3,0.1,0.3,0c0.1-0.6,1.2-0.5,0.9-1.4c0,0,0.1-0.2,0.2-0.2C25.9,28.7,25.8,28.1,25.9,27.4z M59.1,10.9
		c0.1-0.3,0.5-0.7-0.2-0.9c-0.6-0.2-1.6,0.5-1.7,1.1c-0.1,0.3,0,0.5,0.2,0.7c0.2,0.2,0.5,0.1,0.7-0.1C58.4,11.4,58.8,11.2,59.1,10.9
		z M16.8,27.5c-0.4,0.5-0.2,1.2,0.5,1.8c0.2,0.2,0.3,0.3,0.6,0c0.4-0.5,0.5-1.7,0-2C17.4,27.1,17,27,16.8,27.5z M41.3,71.3
		c-1.2,0.8-2.1,1.7-2.2,3.2c0.7,0,1.4-0.6,1.6-1.5C40.9,72.4,40.9,71.8,41.3,71.3z M56.1,11c-0.3-0.1-0.4-0.5-0.8-0.3
		c-0.2,0.1-0.2,0.3-0.1,0.5c0.3,0.5,0.4,1.1,0.4,1.6c0,0.4,0.4,0.5,0.7,0.6c0.3,0,0.4-0.3,0.5-0.6C56.9,12,56.3,11.6,56.1,11z
		 M45,28.8c-1,0.7-1.3,1.8-2,2.6c-0.2,0.2-0.1,0.6,0.2,0.7c0.2,0.1,0.5-0.1,0.7-0.3C44.5,31,44.9,30,45,28.8z M44.1,10.6
		c0.2,0.1,0.4,0.5,0.7,0.3c0.1-0.1,0.3-0.4,0.3-0.5c-0.2-0.4-0.5-0.7-0.5-1.2c-0.5,0-0.4-0.6-0.7-0.8c-0.3-0.2-0.5-0.2-0.5,0.2
		C43.5,9.3,43.3,10.1,44.1,10.6z M53.1,51.9c-0.2-0.1-0.4-0.1-0.5-0.2c-0.2-0.1-0.3-0.5-0.6-0.3c-0.2,0.2-0.1,0.5-0.1,0.7
		c-0.1,0.8,0.8,0.9,1,1.4c0.1,0.1,0.1,0.3,0.3,0.3c0.2,0,0.3-0.2,0.3-0.4C53.6,52.9,53.2,52.4,53.1,51.9z M20.9,38.1
		c0.4,0.4,1.4,0.2,1.7-0.2c0.2-0.2,0.2-0.4,0-0.5c-0.6-0.3-1.1-1-1.7-0.6C20.3,37.2,20.5,37.8,20.9,38.1z M56.8,26.1
		c0.1-0.4,1-0.8,0.3-1.4c-0.4-0.4-0.9,0-1.4,0.2c-0.1,0.1-0.1,1.6,0.1,1.7C56.4,26.9,56.4,26.3,56.8,26.1z M51,73.4
		c0.5-0.6,0.3-1.7-0.2-2c-0.3-0.2-0.6-0.2-0.7,0.2c-0.2,0.6-0.2,1.2,0.1,1.8C50.3,73.5,50.7,73.9,51,73.4z M53.9,27.9
		c-0.1,0.5-0.1,1-0.2,1.4c0,0.5,0,1,0.4,1.4c0.1,0.2,0.3,0.3,0.5,0.1C55.1,30.2,54.7,28.4,53.9,27.9z M19.5,38.4
		c0.6-0.4,0.4-1.2,0.7-1.8c0.1-0.3-0.3-0.2-0.5-0.1c-0.8,0.5-1.1,1.3-1.3,2.1c-0.1,0.3,0.2,0.5,0.5,0.4
		C19.2,38.8,19.3,38.6,19.5,38.4z M21.9,34.5c-0.3,0.2-0.5-0.7-1-0.1c-0.4,0.5-0.2,1.1,0.1,1.4c0.3,0.3,1,0.5,1.2,0.2
		C22.7,35.5,22.4,34.9,21.9,34.5z M54,37.3c0.4-0.5,0.1-2.3-0.5-2.7c-0.2-0.1-0.4,0-0.3,0.1c0.3,0.8-0.2,1.5-0.1,2.2
		c0,0.2,0,0.5,0.3,0.7C53.7,37.8,53.7,37.3,54,37.3z M55.4,30.2c0.8-0.4,1.1-1,1.4-1.7c0.2-0.5-0.1-0.6-0.5-0.6
		c-0.9,0-1.2,0.6-0.9,1.4C55.4,29.6,55.3,29.8,55.4,30.2z M53.1,56.7c0.9-0.6,1.6-1.2,1.7-2.3c0-0.2,0-0.5-0.3-0.6
		c-0.3-0.1-0.4,0.2-0.5,0.4c-0.1,0.4-0.3,0.6-0.6,0.7c-0.3,0-0.2,0.2-0.2,0.4C53.2,55.7,53.2,56.1,53.1,56.7z M52.6,42
		c-0.4,1,0.1,1.9,0.2,2.7c0,0.3,0.3,0.1,0.5,0c0.6-0.3,0.7-1.6,0.1-1.9C53.1,42.6,53,42.3,52.6,42z M57.1,7.3
		c0.3,0.4,0.1,0.8,0.3,1.2c0.1,0.3-0.1,0.8,0.2,0.8c0.4,0,0.9-0.1,1.1-0.5c0.2-0.4,0.6-0.8,0.3-1.2C58.6,7.3,58.3,7.9,58,8
		C57.8,7.7,57.7,7.3,57.1,7.3z M42.4,49.8c-0.1,0-0.2-0.1-0.3-0.1c-0.5,0.8-1,1.6-1.5,2.4c-0.2,0.3-0.3,0.6,0.1,0.8
		c0.4,0.2,0.6,0,0.8-0.4C42,51.7,41.9,50.7,42.4,49.8z M54.3,23.6c-0.5,1,0.1,2-0.1,3c0,0.2-0.1,0.7,0.4,0.7c0.4,0,0.5-0.3,0.5-0.7
		C55.1,25.5,54.5,24.6,54.3,23.6z M16.7,36.2c-0.3-0.2-0.5-0.4-0.7-0.3c-0.2,0.1-0.1,0.4-0.1,0.5c0.1,0.4,0.3,0.8,0.4,1.3
		c0.2,0.4,0.6,0.5,0.9,0.4c0.4-0.1,0.2-0.6,0.1-0.9C17.3,36.9,16.9,36.5,16.7,36.2z M25.4,30.2c-0.8,1.1-2.2,1.6-2.4,3.2
		c0.9-0.1,1.4-0.6,1.6-1.4c0.1-0.3,0-0.6,0.4-0.7C25.7,31.1,25.4,30.6,25.4,30.2z M54.7,37.4c1-0.7,1.3-1.6,1.6-2.4
		c0-0.1,0-0.4-0.3-0.4c-0.4,0-1.3,0.9-1.2,1.3C54.9,36.3,54.9,36.7,54.7,37.4z M57.6,27.9c0.3,0.7-0.5,0.9-0.5,1.4
		c-0.1,0.5-0.8,0.7-0.7,1.1c0.1,0.3,0.8,0.1,1.2,0.6C57.8,29.9,57.9,28.9,57.6,27.9z M53.4,66.7c-0.4,0.6-0.7,1.3-1.2,1.8
		c-0.1,0.1-0.1,0.3,0,0.4c0.1,0.1,0.3,0.1,0.4,0c0.5-0.6,1.3-1,1.6-1.7c0.1-0.3,0.3-0.7,0-0.9C53.7,66,53.6,66.6,53.4,66.7z
		 M53.9,51.3c-0.3,0.2-0.4,0.4-0.2,0.7c0.2,0.2,0.1,0.7,0.5,0.7c0.3,0,0.4-0.3,0.6-0.6c0.1-0.2,0.2-0.3,0.3-0.5
		c0.2-0.3,0.4-0.8,0.1-1c-0.3-0.3-0.7-0.1-0.9,0.4C54.3,51.1,54,51.2,53.9,51.3z M42.9,38.1c-0.5,0.4-0.4,1-0.7,1.5
		c-0.1,0.2-0.4,0.5,0,0.7c0.3,0.2,0.7,0,0.8-0.3c0.2-0.6,0.4-1.1,0.6-1.7c0.1-0.2,0-0.5-0.2-0.5C43.1,37.7,43,38,42.9,38.1z
		 M58.3,14.5c0.3-0.4,0.5-1,0.1-1.1c-0.5-0.2-1,0.2-1.4,0.6c-0.3,0.2-0.3,0.6,0,0.8C57.5,14.9,58,14.9,58.3,14.5z M52.4,74.1
		c0.3-0.4,0.6-0.7,0.9-1c0.2-0.3,0.3-0.6-0.1-0.8c-0.3-0.2-0.5,0.1-0.6,0.3c-0.2,0.3-0.4,0.6-0.4,1c-0.1,0.7-0.4,1.1-1.1,1.2
		c-0.1,0-0.3,0.1-0.3,0.2c0,0.2,0.2,0.2,0.4,0.2C51.8,75.2,51.9,74.4,52.4,74.1z M14.4,33.3c-0.2,0-0.5-0.2-0.7,0.1
		c-0.1,0.2-0.2,1.7-0.1,1.8c0.3,0.1,0.6,0.3,0.9,0.1C14.8,35,14.7,33.5,14.4,33.3z M51.4,61.3c-0.1-0.1-0.3-0.1-0.4,0
		c-0.4,0.4-0.4,1.6,0,1.9c0.3,0.3,0.7,0.2,0.9,0C52.1,63.1,51.7,61.5,51.4,61.3z M41.1,29.2c0.2,0.6,0.1,1.1,0.3,1.5
		c0.2,0.3,0.4,0.8,0.7,0.6c0.2-0.2,0.6-0.6,0.4-1.2C42.3,29.6,41.8,29.5,41.1,29.2z M56.5,10c0.3-1.6,0.3-1.7-1-2.5
		C55,8.6,56.1,9.1,56.5,10z M44.3,12.9c0-0.2,0-0.3-0.1-0.4c-0.2-0.2-0.4-0.3-0.5-0.5c-0.2-0.3-0.2-1-0.8-0.8
		c-0.5,0.2,0,0.8-0.1,1.2c0,0.3,0,0.5,0.3,0.5C43.6,12.9,43.9,12.9,44.3,12.9z M44.6,7.6c0.3,0.1,0.4,0.6,0.7,0.3
		c0.3-0.2,0-0.5-0.1-0.7c0-0.2-0.1-0.4-0.2-0.5c-0.2-0.3-0.3-0.9-0.8-0.7c-0.3,0.2-0.3,0.9,0,1.3C44.3,7.4,44.5,7.5,44.6,7.6z
		 M55,40.1c0.7-0.4,1-1.2,1.4-1.9c0-0.1,0.1-0.2,0-0.3c-0.1-0.2-0.2,0-0.4,0C55.2,38.2,54.8,39.1,55,40.1z M27.8,21.1
		c0.3,0.1,0.5-0.1,0.5-0.2c0.3-0.8,0.5-1.6,0.7-2.4c0.1-0.2,0.1-0.4-0.2-0.5c-0.3,0-0.4,0.2-0.5,0.4C28.2,19.3,28,20.2,27.8,21.1z
		 M45.7,9.4c0.8-0.9,1.5-1.8,2.2-2.6C46.5,7,45.9,7.9,45.7,9.4z M53.9,31.8c-0.2,0-0.3-0.1-0.4,0c-0.2,0-0.2,0.2-0.2,0.4
		c0,0.6,0.5,1.2,0.4,1.8c0,0.1,0.2,0.2,0.3,0.3c0.2,0,0.2-0.2,0.3-0.3C54.9,33,53.5,32.6,53.9,31.8z M38.1,73.1
		c0.1-0.3,0.2-0.5,0.3-0.8c0-0.6-0.4-0.9-0.7-1.2c-0.1-0.1-0.3-0.1-0.4,0c-0.3,0.4,0,0.7,0.1,1.1C37.4,72.6,37.6,72.8,38.1,73.1z
		 M41,75.1c-0.3,0.1-0.5,0.2-0.7,0.3c-0.5,0.2-0.5,0.7-0.5,1.1c0,0.2,0.5,0.4,0.8,0.4c0.4-0.1,0.3-0.5,0.4-0.8
		C41,75.7,40.9,75.5,41,75.1z M56.7,44.3c0,0-0.2,0.1-0.3,0.2c-0.3,0.4-0.6,0.9-0.7,1.4c-0.1,0.4,0.3,0.5,0.5,0.6
		c0.3,0.1,0.3-0.2,0.4-0.4c0.1-0.4,0.1-0.8,0.2-1.2C56.9,44.7,56.9,44.6,56.7,44.3z M57,38.6c-0.9,0.7-0.9,0.9-0.1,2.3
		C57.3,40,57.3,39.8,57,38.6z M37.4,74.1c-0.2-0.2-0.4-0.4-0.7-0.2c-0.4,0.2-0.1,0.6-0.2,1c-0.1,0.3,0.3,0.2,0.5,0.2
		c0.4-0.1,0.7-0.2,0.5,0.4c-0.1,0.3,0.2,0.2,0.4,0.2c0.2,0,0.1-0.3,0.1-0.3C37.8,74.9,37.6,74.5,37.4,74.1z M39.8,55.5
		c0,0,0.1,0,0.1,0.1c0.3-0.4,0.6-0.7,0.9-1.1c0.1-0.2,0.3-0.4,0.1-0.6c-0.1-0.1-0.4-0.2-0.6-0.1c-0.2,0-0.4,0.1-0.4,0.4
		C39.9,54.7,39.9,55.1,39.8,55.5z M57,41.4c-1,1.2-1,1.5,0,2.3C56.9,42.9,57.2,42.2,57,41.4z M52.7,45.7c-0.2-0.1-0.4-0.5-0.6-0.2
		c-0.3,0.5,0.1,1,0.2,1.5c0.1,0.3,0.3,0,0.4-0.1C53,46.5,53.3,46.1,52.7,45.7z M22.9,21.7c-0.2,0.1-0.3,0.1-0.4,0.1
		c-0.2,0.2-0.8,0.4-0.6,0.6c0.2,0.3,0.4,0.6,0.6,0.9c0.1,0.1,0.5,0.1,0.4-0.3C22.8,22.6,22.9,22.2,22.9,21.7z M55.7,54
		c0.4-0.9,0.3-1.8,0.3-2.6C55.8,52.2,54.7,52.9,55.7,54z M56.5,48.2c-0.1,0-0.1-0.1-0.2-0.1c-0.3,0.5-0.8,1-0.8,1.4
		c0,0.4,0.6,0.8,0.6,1.4C56.2,50,56.2,49.1,56.5,48.2z M16,39.4c0.5-0.5,1,0.2,1.5,0.1c0.1,0,0.3-0.1,0.3-0.3c0-0.2-0.2-0.4-0.4-0.3
		c-0.4,0.1-0.6,0-0.9-0.2c-0.3-0.2-0.4,0.2-0.5,0.3C15.8,39.1,15.8,39.2,16,39.4z M57.1,27.2c0.2,0,0.5,0.2,0.6,0.1
		c0.3-0.2,0.2-0.5,0.3-0.8c0.1-0.3,0.1-0.7-0.2-0.7c-0.3-0.1-0.2,0.3-0.3,0.5c-0.1,0.2-0.2,0.3-0.3,0.5C57,26.9,56.9,27,57.1,27.2z
		 M55.7,54.4c-0.5,0.3-0.2,0.9-0.6,1.2c-0.7,0.6-0.3,0.8,0.4,0.9C55.5,55.8,55.9,55.1,55.7,54.4z M55.6,57.5
		c-0.5,0.4-0.6,0.9-0.9,1.4c-0.2,0.3,0.1,0.4,0.3,0.3C55.8,58.9,55.5,58.2,55.6,57.5z M25.9,19.2c-0.4,0.5-0.7,0.9-1.2,1
		c-0.3,0.1-0.3,0.4-0.1,0.7c0.1,0.1,0.2,0.2,0.3,0.1C25.3,20.5,25.8,20.1,25.9,19.2z M19.3,24.9c-0.5,0.4-1.1,0.7-1.4,1.4
		c0.4-0.2,0.7,0.4,0.8,0.1C18.8,25.9,19.4,25.6,19.3,24.9z M46.1,15.5c-0.3,0-0.7,0-1,0c-0.2,0-0.3,0.2-0.3,0.4
		c-0.1,0.2,0.1,0.3,0.2,0.4c0.2,0.2,0.3,0,0.5-0.1C45.7,16,45.9,15.8,46.1,15.5z M55.8,17.7c0-0.2,0.5-0.3,0-0.6
		c-0.2-0.1-0.6-0.4-0.8-0.1c-0.3,0.3,0.1,0.6,0.2,0.8C55.5,18.1,55.6,18,55.8,17.7z M40.4,29.4c-0.4,0.4-0.3,0.8-0.3,1.2
		c0,0.1-0.2,0.3,0,0.4c0.2,0.1,0.5-0.1,0.5-0.3C40.6,30.3,40.6,29.8,40.4,29.4z M58.1,22.9c-0.2,0.3-0.8,0.5-0.5,1
		c0.1,0.1,0.2,0.2,0.4,0.1C58.4,23.6,58.1,23.2,58.1,22.9z M42.3,16.9c-0.2,0.1-0.4-0.1-0.5,0.1c-0.2,0.4-0.1,0.7,0,1
		c0.1,0.2,0.3,0,0.3-0.1C42.3,17.7,42.1,17.3,42.3,16.9z"/>
	<path d="M52.9,19.7c0.1,1.1-0.1,2.1-0.3,3.2c-0.2,0.8-0.4,1.6-0.3,2.4c0,0.3-0.2,0.4-0.3,0.6c-0.1,0-0.1,0-0.2,0
		c-0.4-0.7,0.1-1.4,0.1-2.2c0.1-1.3,0.2-2.7,0.8-3.9C52.7,19.8,52.8,19.7,52.9,19.7z"/>
	<path d="M36.3,48.6c0.1,0.9,0.1,0.9-0.1,1.5c-0.4-0.1-0.6-0.5-0.5-0.9C35.7,48.8,35.8,48.5,36.3,48.6z"/>
</g>
</svg>
