<?xml version="1.0" encoding="utf-8"?>
<!-- Generator: Adobe Illustrator 19.1.0, SVG Export Plug-In . SVG Version: 6.00 Build 0)  -->
<svg version="1.1" id="Layer_1" xmlns="http://www.w3.org/2000/svg" xmlns:xlink="http://www.w3.org/1999/xlink" x="0px" y="0px"
	 width="80px" height="80px" viewBox="0 0 80 80" enable-background="new 0 0 80 80" xml:space="preserve">
<g>
	<path d="M45,25.6c-0.3-0.7-0.9-1.2-1.4-1.6c-0.9-0.9-1.1-2.1-1.8-3c-0.4-0.5-0.3-1.2-0.5-1.8c-0.4-1.1-0.8-2.2-0.6-3.4
		c0.2-1.6,0.7-2.4,2.5-2.9c1.9-0.6,3.6-0.4,5.3,0.2c1.7,0.7,3.3,1.6,4.7,2.9c1.9,1.8,3.7,3.6,5.4,5.5c1.5,1.7,3,3.3,4.5,4.9
		c1,1,2,2,3.1,2.9c1,0.8,2.2,1.3,3.6,1.2c0.4,0,0.9,0.3,1.4,0.4c1.6,0.4,3.3,0.5,4.7,1.3c1,0.6,2,1.2,2.7,2.3c0.2,0.4,0.4,0.9,0,1.4
		c-0.2,0.2-0.3,0.4-0.2,0.6c0.6,1.2,0.3,2.5,0,3.7c-0.5,2-0.4,4-0.4,6c0,2.2-0.2,4.4-0.7,6.5c-0.3,1.1-0.3,2.2-0.5,3.3
		c-0.4,1.8-0.7,3.6-1.1,5.4c-0.2,1-2.5,2.7-3.6,2.5c-0.7-0.1-1.3,0.4-2.1,0.3c-2.2-0.1-4.4-0.4-6.6-0.3c-2.4,0.2-4.9,0.3-7.3,0.8
		c-2.1,0.4-4.2,0.8-6.4,1.1c-2.6,0.3-5.2,0.8-7.8,1.1c-3.3,0.4-6.5,0.4-9.9,0.3c-3-0.1-5.7-0.9-8.5-1.7c-2.3-0.7-4.5-1.5-6.6-2.6
		c-1.8-0.9-3.5-2.2-5.1-3.5c-1.1-1-2.2-2.1-3.5-2.9c-0.4-0.3-0.7-0.7-0.9-1.1c-0.4-0.7-1-1.3-1.4-2c-0.9-1.5-1.7-3-2.1-4.8
		c-0.1-0.8-0.6-1.5-0.7-2.4c-0.3-2.2-0.3-4.4,0.3-6.7c0.7-2.4,2-4.4,3.5-6.3C8,31.7,9,30,10.8,29c1.4-0.7,2.7-1.6,4.1-2.1
		c1.3-0.5,2.8-0.7,4.2-1.1c1.7-0.5,3.4-0.7,5.1-1.3c1-0.4,2-0.2,3-0.3c3.6-0.2,7.2,0.5,10.8,0.8c1.6,0.1,3.1,0.3,4.7,0.3
		C43.5,25.4,44.1,25.9,45,25.6z M52.2,48.7c1.6,0.7,3.2,0.4,4.8,0.2c-1.1-0.4-2.2-0.3-3.4-0.5C53.2,48.4,52.7,48.4,52.2,48.7
		c-0.1-0.2-0.2-0.3-0.5-0.4c-2.2-0.1-4.4-0.2-6.5-0.4c-2-0.1-4.1-0.3-6.1-0.3c-0.2,0-0.6-0.5-0.7,0.1c-0.1,0.6,0.3,0.6,0.7,0.6
		c0.7,0.1,1.5,0,2.2,0.1c1.4,0.3,2.8,0.5,4.2,0.4c0.7,0,1.5,0,2.2,0.1c1.1,0.2,2.2,0.1,3.3,0.2C51.5,49.3,51.7,48.6,52.2,48.7z
		 M60.4,47.1c0.2-1.6,0.4-3.1,0.5-4.7c0.1-1.6,0.5-3.2,0.5-4.9c0-0.4,0-0.6-0.4-0.6c-0.8,0-1.6-0.4-2.4-0.4c-1.8,0-3.4-0.7-5-1.4
		c-2-1-3.9-1.9-5.6-3.3c-2-1.6-4-3.2-5.5-5.4C42.2,26.2,42,26,41.7,26c-0.8,0-1.6-0.2-2.4-0.2c-2.1,0.1-4.2-0.5-6.4-0.6
		c-2.5-0.2-4.9-0.4-7.3-0.1c-1,0.1-2.1,0.2-3.1,0.8c0.9,1.3,1.6,2.6,2.2,4c0.6,1.4,0.9,3,1.6,4.4C28,38,28.3,42,28.9,45.9
		c0,0.2,0,0.5,0,0.7c-0.2,0.9-0.3,1.8-0.5,2.7c-0.3,1.6-0.6,3.3-1.2,4.7c-1.1,2.4-2,4.9-3.9,6.8c-0.7,0.7-1.2,1.7-2.1,2.2
		c-0.3,0.2-0.2,0.5-0.4,0.7c0.2,0.2,0.4,0.4,0.7,0.5c1.7,0.6,3.5,1,5.2,1.5c3.3,1,6.6,0.8,10,0.9c1.5,0.1,3.1-0.3,4.6-0.4
		c2.9-0.3,5.8-0.9,8.8-1.1c2.7-0.3,5.3-1.1,8-1.5c0.2,0,0.5,0,0.5-0.3c0-0.9,0.4-1.7,0.4-2.6c0.1-3,0.4-5.9,0.8-8.9
		c0-0.3,0.1-0.7-0.2-0.9c-0.3-0.2-0.6,0-0.9,0.1c-1.4,0.6-2.6,1.4-4.2,1.3c-1.6-0.1-3,0.6-4.6,0.9c-1.2,0.3-2.2,0.9-3.1,1.7
		c-0.2,0.2-0.6,0.5-0.3,0.9c0.2,0.3,0.5,0.5,1,0.5c0.5,0,0.6-0.2,0.7-0.6c0.1-0.7,0.6-1,1.1-1.1c0.8-0.2,1.7,0.6,2.1,1.6
		c0.2,0.5-0.3,2.1-0.8,2.5c-0.8,0.5-1.6,1-2.6,1.1c-2.8,0.3-5.1-1.9-4.9-4.7c0.2-1.9,1.5-3,3-3.9c0.7-0.4,1.6-0.6,2.3-1.2
		c-0.6-0.2-1-0.2-1.4-0.2c-1.6,0.1-3.1,0-4.7-0.2c-1.9-0.2-3.9-0.7-5.8,0.3c-1.7,0.8-3.2-0.8-3.3-2.2c-0.1-1,0.4-1.6,1.4-2.1
		c0.9-0.4,2.4-0.2,2.9,0.5c0.2,0.3,0.5,0.5,0.9,0.5c2.2,0.2,4.5,0.4,6.7,0.6c1.1,0.1,2.3,0.1,3.4,0.3c0.5,0.1,1,0.4,1.6-0.1
		c-3.2-0.3-5.8-1.6-7.8-4c-1.5-1.8-1.8-4.4,0.6-5.7c1.6-0.9,4.2-0.6,4.9,1.1c0.3,0.6,0.4,1.1,0,1.6c-0.4,0.4-1,0.2-1.5-0.1
		c-1.1-0.7-1.2-0.6-1.7,0.6c-0.4,0.9,0.3,1.2,0.7,1.5c1.2,0.9,2.7,1.3,4,2c2.7,1.3,5.6,1.5,8.5,2.1C58.7,46.5,59.7,46,60.4,47.1z
		 M16.3,57.8c0.3,1.4,0.1,1.8-0.9,1.9c-0.3,0-0.5-0.1-0.7-0.2c-0.2-0.1-0.4-0.2-0.4,0.1c-0.1,0.3-0.4,0.6-0.1,1
		c0.3,0.3,0.7,0.7,1.1,0.5c2.2-0.7,3.9-2.2,4.9-4.2c1.3-2.6,2.2-5.4,2.8-8.4c0.5-2.5,0.4-5,0.1-7.5c-0.4-2.5-1-5-2.1-7.4
		c-0.6-1.4-1.3-2.7-2.1-4c-0.5-0.8-1.1-1.5-1.8-2.2c-0.3-0.3-0.9-0.2-1.2,0.1c-0.4,0.3,0.2,0.4,0.3,0.5c0.7,0.6,1,1.3,0.6,2.2
		c-0.1,0.3-0.1,0.4,0.2,0.6c0.4,0.3,1,0.5,1.1,1.1c0.2,1.1,0.6,2.1,1.5,2.8c0.2,0.1,0.3,0.4,0.4,0.6c0.5,1,0.4,1.6-0.5,2.3
		c0.5,0.5,0.9,1,1.4,1.5c0.4,0.4,0.4,0.9,0.3,1.4c-0.2,0.8-0.1,1.2,0.2,1.8c0,0,0,0,0,0.1c0.4,0.8,0.3,1.3-0.5,1.8
		c-0.2,0.1-0.4,0.5-0.2,0.9c0.5,0.8,0.6,1.7,0.6,2.7c0,0.5-0.2,0.8-0.5,0.9c-0.6,0.2-0.4,0.5-0.3,0.9c0.3,1-0.1,1.9-1.1,2.2
		c-0.8,0.2-0.8,0.5-0.4,1.1c0.8,1.3,0.8,1.7-0.5,2.3c-0.9,0.4-0.8,0.8-0.6,1.5c0.2,0.5-0.1,1-0.4,1.3C17.2,58.3,16.8,58.2,16.3,57.8
		z M19.8,63.5c-0.3-0.8,0.2-1.1,0.8-1.5c0.4-0.3,0.8-0.5,1.1-0.8c1.3-1.6,2.6-3.2,3.5-5.1c0.9-1.8,1.5-3.7,2.1-5.7
		c0.8-2.8,0.5-5.7,0.1-8.5c-0.2-1.5-0.6-3-1-4.5c-0.4-1.3-0.8-2.6-1.2-3.8c-0.3-0.9-0.7-1.7-1.1-2.6c-0.6-1.6-1.2-3.2-2.7-4.3
		c-0.5-0.4-0.7-0.4-1.2-0.2c0.3,0.5,0.6,0.9,0.8,1.3c1.4,2.8,2.9,5.5,3.9,8.5c0.6,1.8,1.1,3.7,1.4,5.6c0.4,2.7,0.6,5.3-0.1,8
		c-0.3,1.2-0.7,2.5-1,3.7c-0.3,1.2-0.8,2.3-1.4,3.3c-1.3,1.9-2.7,3.6-4.3,5.2c-1,0.9-0.9,1,0.4,1.4C19.7,63.5,19.8,63.5,19.8,63.5z
		 M16.6,62.1c0.3,0.2,0.5,0.8,1,0c0.3-0.6,1-1,1.5-1.4c1.8-1.4,3.1-3.3,4.2-5.2c0.5-0.8,0.7-1.7,1-2.6c0.8-2.1,1.4-4.3,1.4-6.6
		c0-3.1-0.6-6.1-1.5-9.1c-1-3.3-2.6-6.4-4.3-9.3c-0.2-0.4-0.7-0.7-1-1c-0.2-0.2-0.4-0.1-0.6,0c-0.2,0.2-0.1,0.3,0,0.4
		c0.2,0.4,0.4,0.8,0.7,1.2c2.1,2.8,3.2,6.1,4.2,9.4c0.4,1.5,0.5,3.1,0.7,4.7c0.5,3.5-0.1,6.8-1.1,10c-0.2,0.6-0.5,1.1-0.7,1.7
		c-0.4,1.2-0.6,2.5-1.4,3.7C19.7,59.7,18.1,60.8,16.6,62.1z M66.1,34.1c-1,0.1-1.4,0.5-1.4,1.6c0,1.6-0.2,3.2-0.5,4.8
		c-0.2,1.1-0.5,2.3-0.5,3.5c0,1.7-0.4,3.4-0.7,5.1c-0.6,3.1-1.2,6.3-1.2,9.5c0,1.1-0.2,2.1-0.1,3.2c0,0.5-0.3,1.1-0.1,1.4
		c0.2,0.5,0.9-0.1,1.4,0.1c0,0,0,0,0,0C63.9,53.4,64.8,43.7,66.1,34.1z M63.7,36.7c-0.4,0.5-1.4-0.1-1.4,1c0,1.9-0.5,3.7-0.7,5.5
		c-0.2,2-0.3,4-0.6,5.9c-0.5,3.2-0.8,6.3-1,9.5c-0.1,1.5,0,3-0.3,4.4c-0.1,0.4,0.1,0.4,0.4,0.4c0.3,0,0.7,0,0.6-0.3
		c-0.2-0.9,0.2-1.8,0.2-2.6c0-1.5,0.4-2.9,0.4-4.3c0-2,0.4-3.9,0.8-5.9c0.5-2.3,0.8-4.7,1-7C63.2,41.1,63.9,39,63.7,36.7z
		 M58.1,50.1c-3.1-0.4-6,0-9,1c-0.9,0.3-1.7,0.7-2.5,1.1c-0.7,0.4-1.5,0.8-1.9,1.7c-0.8,1.5-0.8,2.8,0.2,4c0.8,1,2.9,1.5,4.1,0.9
		c0.5-0.3,1.1-0.6,1.4-1.2c0.3-0.6-0.1-1-0.3-1.4c-0.1-0.1-0.4-0.2-0.6-0.2c-0.3,0-0.2,0.3-0.2,0.5c0,0.5-0.3,0.8-0.7,1.1
		c-0.7,0.4-1.3-0.1-1.9-0.3c-0.7-0.2-1.2-1.8-0.8-2.2c1.7-2.2,4.3-2.8,6.8-3.4C54.3,51.2,56.4,51.3,58.1,50.1z M43.9,26.5
		c0,0.2,0,0.3,0,0.4c0.9,1.4,2.3,2.5,3.5,3.6c2.1,1.7,4.4,3,6.9,4.2c2.2,1,4.6,1.2,6.9,1.4c0.7,0.1,1.5,0.1,2.1-0.4
		c0.3-0.2,0.5-0.5,0.5-0.9c-0.1-0.5-0.5-0.2-0.7-0.2c-1.7,0.1-3.3-0.4-4.9-0.2c-0.1,0-0.3,0-0.4-0.1c-0.7-0.4-1.5-0.6-2.2-0.7
		c-3.3-0.6-6-2.5-8.7-4.3C45.7,28.4,45.1,27.3,43.9,26.5z M66.6,36.2c-0.4,7.3-2.1,14.2-1.9,21.4c0.4-0.3,0.6-0.6,0.9-0.8
		c0.2-0.1,0.5-0.3,0.2-0.7c-0.7-0.9-0.6-1.3,0.4-1.8c0.2-0.1,0.4-0.2,0.6-0.3c-1.7-1.9-1-2.7,0.7-3.2c-0.2-0.2-0.5-0.4-0.7-0.6
		c-1-1-1.1-1.5,0-2.2c0.4-0.2,0.4-0.4,0.1-0.8c-0.2-0.3-0.4-0.5-0.5-0.8c-0.2-0.6-0.3-1.2,0.3-1.5c0.6-0.3,0.5-0.5,0-0.9
		c-0.7-0.7-0.7-1.4,0.1-2c0.4-0.3,0.3-0.5,0.1-0.9c-0.5-0.7-0.6-1.5,0.1-2.2c0.6-0.6,0.8-1.1,0-1.7C66.9,37.1,66.9,36.7,66.6,36.2z
		 M57.5,47.3c-0.3-0.1-0.4-0.1-0.5-0.2c-2.3-0.5-4.6-0.7-6.7-1.6c-2-0.8-3.9-1.5-5.7-2.6c-0.8-0.5-1-1.3-0.9-2.2
		c0.2-1.2,1.2-1.6,2-2.2c-0.1-0.2-0.4-0.1-0.6-0.1c-1.7-0.3-3.1,1.1-2.9,2.8c0.1,1,0.7,1.6,1.4,2.2c1.4,1.2,2.8,2.2,4.5,2.7
		c2.3,0.6,4.6,0.9,6.9,1.4C55.8,47.6,56.6,47.8,57.5,47.3z M66.5,31.9c-0.7,0.2-1.4,0.4-2,0.2c-0.1,0-0.2,0.1-0.3,0.2
		c-0.6,0.8-1.4,0.6-2.2,0.4c-0.8-0.3-1.7-0.2-2.4-0.7c-0.1-0.1-0.3,0-0.4,0c-1.4,0.8-2.2,0.7-3.1-0.7c-0.3-0.4-0.6-0.7-1-0.4
		c-0.9,0.7-1.4,0.2-2.1-0.3c-0.5-0.4-0.9-1.2-1.6-0.9c-1.3,0.4-2.2,0-3-1c-0.1-0.1-0.2-0.3-0.4-0.1c-0.2,0.2,0,0.3,0.1,0.4
		c0.7,0.6,1.3,1.3,2.1,1.6c1.5,0.6,2.9,1.5,4.5,2c2.1,0.6,4.2,1,6.3,1.2C62.8,33.9,65.1,34.1,66.5,31.9z M8.4,38.2
		c0.9,0.3,1.1,1,1.2,1.7c0,0.2,0,0.5,0.2,0.4c0.5-0.1,1.1,0,1.5-0.3c0.3-0.3,0.6-0.6,0.5-1.2c-0.1-0.7-0.4-1.3-1.1-1.5
		C9.8,37.1,9.1,37.4,8.4,38.2z M9.4,51c0.2,0.8,0.1,1.4-0.1,2c-0.2,0.5,0.7,1.6,1.1,1.6c0.2,0,0.3-0.2,0.2-0.3
		c-0.1-0.6,0.1-1.3-0.4-1.7c-0.2-0.2-0.4-0.5-0.4-0.8c0-0.2-0.1-0.5,0.2-0.6c0.3-0.1,0.6-0.1,0.7,0.3c0.2,0.4,0.6,0.5,0.8,0.9
		c0.1,0.2,0.3,0.4,0.7,0.3c0.3-0.1,0.4-0.4,0.4-0.7c0-0.9-0.3-1.6-1.2-2C11.3,51.1,10.4,51.1,9.4,51z M18.4,44.7
		c0.3,0.7,0.2,1.1-0.2,1.5c-0.3,0.3-0.8,0.4-1.5,0.6c0.3,0.2,0.5,0.4,0.6,0.4c0.9-0.4,1.4,0.6,2.2,0.6c0.2,0,0.5,0.1,0.8,0.1
		c0.2,0,0.4-0.1,0.5-0.3c0.4-1.1-0.4-2.4-1.5-2.6C18.9,45,18.8,44.8,18.4,44.7z M16.4,50.8c0.2-0.5,0.5-0.9,1-0.2
		c0.5,0.6,1.1,0.8,1.9,0.4c0.5-0.3,0.7-0.7,0.6-1.2c-0.1-0.6-1.1-1.3-1.7-1.3c-0.2,0-0.3,0.1-0.3,0.3c-0.1,0.7-0.6,1-1.2,1.1
		c-0.2,0.1-0.6,0-0.7,0.3C15.8,50.4,16.1,50.6,16.4,50.8z M14.9,53.1c0.4,1,0.7,1.9,0.7,3c0,0.5,0.7,0.7,1.1,0.8
		c0.2,0.1,0.4,0.1,0.5-0.1c0.1-0.4,0-0.8-0.3-1.1c-0.4-0.5-0.7-1-1.1-1.5c-0.1-0.2-0.4-0.5-0.2-0.7c0.2-0.2,0.6-0.2,0.9,0
		c0.2,0.1,0.3,0.3,0.5,0.5c0.4,0.6,1.2,0.6,1.5,0.2c0.4-0.5-0.1-0.8-0.2-1.2c-0.1-0.2-0.3-0.2-0.4,0c-0.2,0.9-0.6,0.7-1,0.1
		c-0.1-0.2-0.3-0.1-0.5-0.1C15.9,53.1,15.5,53.1,14.9,53.1z M19,43.8c0.4,0,0.6,0.1,0.8,0.1c0.4,0.1,0.8-0.1,1-0.4
		c0.2-0.3,0-0.6-0.2-0.9c-0.4-0.6-1-1-1.6-0.9c-0.6,0.2-1,0.9-1.6,1.2c0,0,0.1,0.2,0.1,0.3C17.8,44.2,18.5,43.9,19,43.8z M60.8,26.2
		c-0.2-0.4-0.1-1-0.4-1.4c-0.2-0.3-0.3-0.3-0.5,0c-0.8,1.1-0.8,1.1-2.1,0.5c-0.2-0.1-0.5-0.3-0.6-0.1c-0.1,0.2-0.1,0.4,0,0.7
		c0.5,0.8,2,1.4,2.9,1.2C60.7,27,60.6,26.6,60.8,26.2z M12.1,47.1c0-0.6-1.3-2.2-2-2.4c-0.3-0.1-0.8-0.5-1-0.1
		c-0.3,0.3,0.2,0.6,0.3,1c0,0.1,0.1,0.2,0.2,0.3c0.1,1.2,1.1,1.3,1.9,1.6C11.7,47.6,12.2,47.6,12.1,47.1z M16.9,39
		c0.4,0.4,1.1,0.5,1.3,1.1c0.3,0.8,1,0.6,1.6,0.5c0.4,0,0.7-0.4,0.4-0.9c-0.3-0.7-0.9-1.1-1.6-1.4C17.9,37.9,17.4,38.6,16.9,39z
		 M72.2,54.3c-0.5-0.5-0.7-1.1-1.4-1.3c-0.6-0.2-1.2-0.1-1.5,0.3c-0.6,0.6,0.4,1,0.4,1.6c0,0.4,0.6,0.5,1,0.4c0.2,0,0.3-0.1,0.3-0.2
		C71.2,54.6,71.7,54.5,72.2,54.3z M9.4,36.4c0.5,0.2,0.6-0.3,0.9-0.1c0.8,0.4,1.3-0.3,1.9-0.6c0.4-0.3,0.8-0.7,0.3-1.2
		c-0.4-0.5-0.9-0.5-1.4-0.2C10.1,34.6,10,35.7,9.4,36.4z M67.1,59.8c0.2-0.1,0.5,0.1,0.5-0.2c0.1-0.6,0.5-1,1.1-1.2
		c0.1,0,0.2-0.1,0.1-0.3c0-0.1-0.2-0.1-0.2-0.1c-0.8,0.7-1.2-0.1-1.7-0.5c-0.5-0.3-1.3,0-1.4,0.5C65.4,58.7,66.3,59.8,67.1,59.8z
		 M15.8,34.7c0.9,0.5,1.6,1.1,2,2.1c0.2,0.5,0.8,0.3,1.1,0.2c0.4-0.1,0.5-0.5,0.5-0.9c-0.1-0.7-1.3-1.6-1.9-1.4
		C16.9,34.8,16.4,34.8,15.8,34.7z M15.2,38.7c0.7-0.4,1.7-0.2,1.8-1.2c0-0.5,0.1-1.1-0.5-1.4c-0.7-0.3-1.5-0.2-2.3,0.1
		C15.1,36.8,15.5,37.6,15.2,38.7z M72.2,49.4c0,0.9,0.4,1.5,1,1.8c0.4,0.2,1,0,1.4-0.4c0.3-0.3,0.2-0.5,0.1-0.8
		c-0.3-0.8-1-0.7-1.6-1C72.4,48.6,72.3,48.9,72.2,49.4z M70.2,32.4c-0.5,0-0.9-0.1-1.2,0c-0.6,0.1-1.2,0.5-0.9,1.1
		c0.3,0.7,0.8,1.4,1.7,1.5c0.4,0.1,0.5-0.2,0.8-0.3c0.2-0.2-0.1-0.4-0.1-0.5C70,33.7,69.8,33.1,70.2,32.4z M9.4,41.5
		c0.3,0.6,1,1,1,1.8c0,0.2,0.2,0.1,0.4,0.2c0.5,0,0.9,0.1,1.4,0.1c0.6-0.1,0.8-0.5,0.4-0.9C11.7,41.7,10.7,41.3,9.4,41.5z
		 M13.9,45.4c0.4-0.1,0.9-0.1,0.9-0.6c-0.1-0.6-0.2-1.2-0.9-1.4c-0.1,0-0.3,0-0.3,0.1c-0.2,0.8-0.9,0.8-1.6,0.8
		c-0.3,0-0.6,0-0.6,0.4c0.1,0.4,0.4,0.9,0.8,0.8C12.9,45.3,13.4,45.2,13.9,45.4z M16.7,45.8c0.7,0,1.1-0.5,0.7-1.1
		c-0.4-0.7-0.8-1.3-1.6-1.4c-0.3,0-0.7-0.1-0.7-0.6c0-0.2,0-0.3-0.2-0.3c-0.1,0-0.3,0.1-0.4,0.2c-0.1,0.1,0,0.2,0.1,0.3
		c0.6,0.6,1,1.4,1.1,2.1C16,45.7,16.4,45.6,16.7,45.8z M15.3,39.9c0.8,0.9,0.8,0.9,0.8,1.5c0,0.3-0.2,0.6,0.3,0.7
		c0.5,0.1,0.9,0.1,1.3-0.2c0.3-0.2,0.5-0.5,0.4-0.8C17.7,40.2,16.2,39.5,15.3,39.9z M68.5,41.1c0.6-0.1,1.3-0.3,1.4-0.9
		c0.1-0.5-0.8-1.3-1.3-1.2c-0.6,0-1.1,0.2-1.2,0.9C67.4,40.5,68,41.1,68.5,41.1z M15.8,48.9c0.4,0.1,0.8,0,0.9-0.3
		c0.1-0.3,0-0.6-0.2-1c-0.4-0.7-1.2-0.9-1.8-1.4c-0.1-0.1-0.6,0-0.7,0.1c-0.2,0.2,0,0.4,0.2,0.5c0.5,0.4,0.7,1,0.9,1.6
		C15.3,48.9,15.5,49,15.8,48.9z M11.5,53.6c0.1,0.3,0.2,0.6,0.2,0.6c0.7-0.1,0.9,0.5,1.4,0.8c0.4,0.3,1,0.8,1.5,0.5
		c0.5-0.3-0.1-0.9-0.1-1.4c0-0.5-0.3-0.7-0.6-1c-0.2-0.1-0.3-0.1-0.4,0C13,54,12.4,54,11.5,53.6z M17.5,32.9c0-0.8-0.9-1.4-1.8-1.3
		c-0.4,0.1-0.9,0.4-1.3,0c-0.2-0.1-0.4-0.3-0.5,0C13.7,32,14,31.9,14.2,32c0.8,0.2,1.3,0.8,1.7,1.4c0.1,0.2,0,0.6,0.5,0.4
		C16.8,33.5,17.3,33.5,17.5,32.9z M8.2,36.5c0.1-0.1,0.2-0.1,0.2-0.1c0.3-0.5,0.6-0.9,0.8-1.5c0.2-0.6-0.1-0.9-0.7-0.7
		c-0.7,0.2-1.3,0.6-1.9,0.9c-0.2,0.1-0.2,0.5-0.2,0.5C7.1,35.8,7.7,36,8.2,36.5z M13.2,50.3c0.5,1.5,1.1,2,2.4,1.9
		c0.2,0,0.5,0,0.4-0.5c-0.4-1.1-0.9-1.5-2.1-1.4C13.6,50.3,13.4,50.3,13.2,50.3z M73.9,47.8c0.7,0,0.8-0.3,0.6-0.9
		c-0.2-0.4-0.4-0.7-0.5-1.1c0-0.3-0.4-0.5-0.7-0.5c-0.3,0-0.7,0-0.9,0.3C72.1,46.4,73,47.8,73.9,47.8z M3.9,45.6
		c-0.1,1,1,1.3,1.1,2.1c0.1,0.7,0.8,0.9,1.3,1.4c0.3,0.3,0.4,0,0.4-0.3c0.1-1-0.5-2-1.5-2.4C4.8,46.2,4.3,46.1,3.9,45.6z M44.7,16
		c0.1,0.6,0.6,0.9,1,1.3c0.5,0.6,1.3,0.3,1.4-0.5c0.1-0.6-0.1-1.1-0.5-1.5c-0.2-0.2-0.4-0.4-0.6,0C45.8,15.9,45.2,15.7,44.7,16z
		 M50.1,14.9c0.1-0.2-0.1-0.3-0.2-0.3c-0.2,0-0.6-0.3-0.6,0c0,0.5-0.7,0.8-0.3,1.4c0.5,0.7,1.2,1.1,2,1.3c0.3,0.1,0.6-0.1,0.5-0.3
		c-0.1-0.5-0.2-1.2-0.8-1.3C50,15.6,49.5,15.7,50.1,14.9z M12.9,29c0.8,0.5,0.8,0.5,1.5,1.7c0,0.1,0.1,0.2,0.2,0.1
		c0.4-0.2,1-0.3,1.2-0.8c0.2-0.4,0-0.9-0.3-1.2C15.1,28.5,13.2,28.7,12.9,29z M70,42.9c-0.1-0.3-0.3-0.5-0.5-0.6
		c-0.3-0.1-0.6-0.1-0.9-0.2c-0.6-0.2-0.9,0.3-1.1,0.6c-0.3,0.3,0.1,0.6,0.3,0.9c0.6,0.6,1,1,1.5-0.1c0.1-0.2,0.3-0.3,0.5-0.5
		C69.8,43,69.9,42.9,70,42.9z M69.3,37.9c0.6,0.1,0.7-0.4,0.8-0.7c0.2-0.4-1.1-1.4-1.7-1.4c-0.4,0-0.8,0.1-0.7,0.7
		C67.8,37.2,68.7,37.9,69.3,37.9z M45.1,23c0.3-0.9,0.1-1.6-0.4-2.2c-0.3-0.3-0.6-1-1-0.1c-0.1,0.3-0.5,0.3-0.9,0.4
		c0.5,0.3,0.2,1.3,1.2,0.9c0.1,0,0.3,0.2,0.4,0.4C44.6,22.6,44.8,22.9,45.1,23z M67.3,54.8c-0.9,0-1.1,0.3-0.8,1.1
		c0.2,0.7,0.8,0.6,1.3,0.8c0.2,0.1,0.4,0.3,0.6,0.1c0.2-0.4,0.4-0.7,0.7-1c0,0-0.1-0.2-0.1-0.2C68.3,55.4,67.8,55,67.3,54.8z
		 M70,45.7c-0.8,0.4-1.1-0.2-1.7-0.2c-0.3,0-0.7-0.2-0.9,0.2c-0.4,0.7,0.3,1.1,0.5,1.6c0.1,0.3,0.5,0.4,0.8,0.5c0,0,0.1-0.1,0.1-0.1
		C68.9,46.9,69.6,46.5,70,45.7z M71,49c0.2,0,1.3-1.1,1.2-1.2c-0.4-0.7-1.1-0.7-1.7-0.9c-0.5-0.1-0.6,0.4-0.7,0.7
		C69.7,47.9,70.7,49,71,49z M15.1,41.3c-0.8-1.2-2-1.5-3-0.8c-0.4,0.3-0.4,0.4,0,0.7C13,42,14,41.4,15.1,41.3z M75.6,33.5
		c-0.6,0.3-0.9,0.1-1.2,0c-0.5-0.1-1-0.1-1.2,0.4c-0.2,0.4,0.1,0.8,0.4,1.1c0.3,0.3,0.7,0.5,1.1,0.6c0.3,0.1,0.6,0,0.4-0.4
		C74.8,34.6,75.1,34.2,75.6,33.5z M48,16.5c-0.1,0.7-0.3,1.2-0.6,1.7c-0.2,0.4,0.1,0.6,0.3,0.8c0.2,0.2,0.6,0.7,0.9,0.4
		c0.2-0.2,0.7-0.2,0.7-0.7C49.1,17.9,48.8,17.1,48,16.5z M70.4,38.9c0,0.1-0.1,0.2-0.1,0.3c0.1,0.5,0.4,0.8,0.9,1
		c0.1,0,0.4,0.1,0.4-0.1c0-0.7,0.5-1.1,1-1.4c0.2-0.1,0.2-0.2,0.1-0.4c-0.1-0.2-0.2-0.1-0.3,0c-0.3,0.3-0.6,0.1-0.9,0
		C70.8,37.8,70.4,38.1,70.4,38.9z M77.6,38.1c0.2-1.1-0.7-0.8-1.1-0.8c-0.5-0.1-0.9,0.3-0.9,0.8c-0.1,0.4,0.9,1.2,1.5,1.1
		C77.9,39.2,77.2,38.3,77.6,38.1z M10.4,55.9c0.6,0.6,1.2,1.1,1.8,1.3c0.4,0.1,0.9,0.2,1.1-0.1c0.2-0.3-0.1-0.6-0.3-0.9
		c-0.3-0.5-0.9-0.6-1.4-0.8c-0.3-0.2-0.4,0.3-0.7,0.4C10.9,55.9,10.7,55.8,10.4,55.9z M75,40.1c-0.4-0.5-1-0.7-1.5-0.8
		c-0.3-0.1-0.8,0.2-0.9,0.7c-0.1,0.5,0.9,1.4,1.5,1.4C74.9,41.2,74.5,40.4,75,40.1z M46.6,21.2c0.2-0.1,0.4-0.4,0.4-0.6
		c-0.1-0.8-0.5-1.5-1.1-2.2c-0.1-0.1-0.4-0.4-0.5,0c-0.4,0.8,0.1,2.2,1,2.6C46.5,21.1,46.6,21.2,46.6,21.2z M10.2,30.5
		c0.3,0.1,0.6,0.2,0.8,0.4c0.3,0.1,0.5,0.3,0.7,0.5c0.5,0.5,1.3,0.4,1.5-0.3c0.1-0.3,0.2-0.8-0.2-1c-0.3-0.2-0.7-0.5-1,0.2
		c-0.2,0.4-0.6,0.4-0.9,0.1C10.8,30,10.6,30.1,10.2,30.5z M73.2,57.1c0.2-0.3,0.8-0.4,0.9-0.8c0.1-0.5-0.8-1.4-1.3-1.3
		c-0.4,0.1-0.9,0.1-1,0.6C71.8,55.9,72.9,57.1,73.2,57.1z M72.8,44.4c0-0.2-0.3-0.4-0.4-0.3c-0.6,0.5-1.1,0.1-1.6-0.2
		c-0.4-0.2-1.1,0.2-1,0.5c0.2,0.4,0.4,0.9,0.7,1.2c0.3,0.3,0.7,0.5,0.9-0.2c0.1-0.4,0.4-0.6,0.9-0.6C72.5,44.7,72.8,44.7,72.8,44.4z
		 M48.5,22.3c0.7,0.2,0.9-0.2,0.9-0.8c0-0.5-0.8-1.3-1.3-1.2c-0.7,0.2-0.4,1-0.5,1.5C47.4,22.2,48,22.4,48.5,22.3z M72,32.5
		c-0.5,0.1-1-0.1-1.2,0.6c-0.1,0.7,0.5,1.1,0.9,1.3c0.7,0.3,0.3-0.6,0.6-0.8c0,0,0-0.2,0-0.2c0.3-0.3,1-0.5,0.8-0.8
		C73,32.1,72.4,32.8,72,32.5z M8.7,51.5c-0.2-0.4-0.4-1-0.7-1.4c-0.4-0.4-0.7,0-1.1,0.2c-0.2,0.1-0.4,0.1-0.2,0.4
		c0.3,0.4,0.5,0.8,0.8,1.2c0.2,0.3,0.6,0.3,0.9,0.3C8.6,52.3,8.7,51.9,8.7,51.5z M54.5,18.4c-0.2,0.3-0.2,0.6-0.5,0.8
		c-0.6,0.4-0.3,0.7,0,1c0.2,0.1,0.4,0.2,0.6,0.4c0.3,0.2,0.9,0.4,0.9,0.2c0-0.5,0.5-1.1,0-1.4C55.1,19.1,54.9,18.7,54.5,18.4z
		 M68.1,51.7c-0.5-0.1-0.9,0-1.2,0.4c-0.4,0.6,0.2,0.8,0.4,1.2c0.1,0.2,0.2,0.5,0.5,0.5c0.3,0,0.4-0.3,0.4-0.6
		c0-0.4,0.4-0.6,0.6-0.8c0.1-0.1,0.3-0.2,0.2-0.4c-0.1-0.2-0.2-0.3-0.5-0.3C68.4,51.8,68.3,51.8,68.1,51.7z M71.4,51.9
		c0.3,0.1,0.6-0.2,0.8-0.4c0.3-0.3-0.1-0.5-0.2-0.7c-0.5-0.6-1.2-0.5-1.9-0.6c-0.2,0-0.3,0.2-0.2,0.5C69.9,51.3,70.6,51.9,71.4,51.9
		z M11.6,48.4c0.7,0.7,1.5,1.3,2.3,0.8c0.7-0.5,0.3-1.5-0.8-2.1C13.1,48.1,12.5,48.4,11.6,48.4z M76.9,46.8c0-0.8-0.6-1.5-1.2-1.4
		c-0.4,0-0.7,0.2-0.8,0.7c0,0.6,0.7,1.4,1.2,1.4C76.6,47.4,77.1,47.4,76.9,46.8z M70,56.4c-0.3,0.1-0.6,0.2-0.7,0.5
		c-0.2,0.5,0.1,0.9,0.4,1.2c0.2,0.3,0.6,0.2,0.8,0c0.4-0.4,1.2-0.6,1.2-1.1C71.4,56.2,70.4,56.8,70,56.4z M10.8,32.4
		c0.1-0.3-0.1-0.7-0.4-0.6c-0.5,0.1-1.1,0-1.5,0.4c-0.3,0.2-0.8,0.5-0.7,0.8c0.2,0.4,0.7,0.2,1,0.1c0.2,0,0.4,0,0.5,0.1
		C10.5,33.3,10.8,33,10.8,32.4z M53,24.3c0.2-0.7-0.6-0.6-1-0.8c-0.4-0.3-0.3,0.3-0.4,0.5c-0.1,0.1-0.2,0.4-0.3,0.5
		c-0.4,0.5-0.2,0.7,0.3,0.9C52.3,25.7,53,25.2,53,24.3z M68,48.6c-0.3,0.2-0.7,0-0.9,0.3c-0.2,0.4,0.2,0.6,0.3,0.8
		c0.1,0.1,0.2,0.3,0.4,0.4c0.4,0.4,0.9,1.1,1.1-0.2c0-0.1,0.2-0.3,0.3-0.4c0.2-0.2,0.2-0.3-0.1-0.5C68.9,48.9,68.5,48.7,68,48.6z
		 M13.8,32.8c-0.3,0.2-0.8,0-0.9,0.3c-0.2,0.4,0.4,0.3,0.5,0.5c0.2,0.2,0.3,0.5,0.3,0.8c0,0.2,0.2,0.5,0.4,0.3
		c0.4-0.3,1.2-0.3,1-0.9C14.9,33.4,14.5,32.8,13.8,32.8z M10.4,50.1c-0.3-2-0.8-2.4-2.4-2.3c-0.2,0-0.4-0.1-0.4,0.2
		c0,0.2,0.1,0.3,0.4,0.3c0.3,0,0.7-0.1,0.8,0.3C9,49.6,9.7,49.8,10.4,50.1z M57,27.8c-0.1-0.3,0-1-0.6-0.8c-0.5,0.1-0.9,0-1.3-0.2
		c-0.1-0.1-0.2-0.2-0.4-0.1c-0.1,0.1-0.1,0.3,0,0.4c0.2,0.8,0.9,1.2,1.6,1.5C56.6,28.6,57,28.4,57,27.8z M13.4,38.6
		c0.6,0.1,0.9-0.1,0.9-0.7c0-0.6-0.8-0.9-2-0.9c-0.2,0-0.4,0-0.4,0.2C12,37.6,13,38.6,13.4,38.6z M52.2,19.8
		c0.2,0.7-0.1,1.2-0.4,1.7c-0.2,0.3-0.1,0.6,0.2,0.8c0.4,0.5,0.8,0.1,1.2,0c0.2,0,0.1-0.4,0-0.6C53.1,21,52.7,20.4,52.2,19.8z
		 M53.5,18.1c-0.2-0.5-0.2-1.1-0.7-1.4c-0.1-0.1-0.2-0.3-0.4-0.2c-0.2,0.1-0.2,0.3-0.1,0.5c0.1,0.4-0.1,0.6-0.3,0.9
		c-0.1,0.2-0.6,0.2-0.3,0.5c0.3,0.3,0.7,0.7,1.2,0.5C53.2,18.7,53.5,18.5,53.5,18.1z M3.8,42.7c0.4-0.5,0.8-0.6,1.4-0.3
		c0.3,0.1,0.6,0.2,0.9,0.2c0.2,0,0.5-0.1,0.3-0.4c-0.3-0.5-1.8-1.3-2.3-1C3.4,41.5,3.8,42.1,3.8,42.7z M68,61.3
		c-0.6,0-1.1-0.3-1.5-0.5c-0.5-0.2-1,0.1-1.3,0.4c-0.1,0.1,0.1,0.5,0.4,0.5c0.5,0,1,0.4,1.5,0.5C67.7,62.4,67.5,61.5,68,61.3z
		 M73.1,42.3c-0.1,0-0.5,0-0.4,0.4c0.1,0.7,0.5,1.2,1.1,1.6c0.2,0.1,0.5,0.2,0.6-0.1C74.8,43.2,74.3,42.4,73.1,42.3z M54.1,21.4
		c-0.1,0.5-0.2,1-0.3,1.5c-0.1,0.5,0.7,1.2,1.2,1.2c0.2,0,0.3-0.2,0.3-0.4c0.1-0.6,0-1.1-0.4-1.5C54.6,22,54.4,21.7,54.1,21.4z
		 M73.2,53.9c0.5,0,0.9-0.1,1-0.6c0-0.4-0.7-1-1.3-1c-0.4,0-0.7,0.1-0.7,0.6C72.2,53.5,72.7,53.8,73.2,53.9z M54.5,25.1
		c0.3,0.5,0.7,0.8,1.1,1c0.1,0.1,0.4,0.3,0.4,0c0.1-0.5,0.6-0.9,0.3-1.4c-0.1-0.3-0.2-0.6,0-0.8c0.2-0.2,0.3-0.4,0.1-0.6
		c0,0-0.2-0.1-0.2,0c-0.2,0.1-0.3,0.4-0.3,0.6C55.9,24.6,55.4,25,54.5,25.1z M60.1,28.9c-0.1,0.6,0,1.3-0.8,1.5
		c-0.3,0.1-0.2,0.3,0,0.5c0.3,0.2,0.6,0.3,0.9,0.4c0.2,0.1,1.2-0.6,1.1-0.6C60.8,30.2,60.5,29.5,60.1,28.9z M8.5,46.3
		c0-0.7-0.7-1.5-1.4-1.6c-0.2,0-0.3,0-0.3,0.2c0.1,0.5,0,1.1,0.5,1.5c0.3,0.2,0.7,0.2,1,0.2C8.5,46.7,8.4,46.4,8.5,46.3z M61.6,29.4
		c0.4,0.3,0.6,0.5,0.8,0.5c0.5,0.1,1.1,0.2,1.5-0.2c0.4-0.4,0-0.9-0.2-1.3c-0.2-0.3-0.4-0.4-0.7,0C62.7,28.8,62.5,29.3,61.6,29.4z
		 M76.8,49.5c0-0.5-0.7-1.1-1.3-1.2c-0.2,0-0.5,0-0.5,0.4c0,0.5,0.8,1.3,1.3,1.4C76.9,50.3,76.6,49.7,76.8,49.5z M75,37.1
		c-0.2-0.4-0.6-0.7-0.9-0.6c-0.4,0.1-1.1,0-1,0.6c0.1,0.5,0.5,1.1,1.1,1.1C74.9,38.3,74.4,37.3,75,37.1z M3.7,43
		c0.2,1.3,0.2,1.3,0.5,1.5c0.4,0.3,0.8,0.6,1.2,0.9c0.2,0.1,0.4,0.2,0.6,0c0.2-0.2,0-0.3-0.1-0.5C5.3,44,4.5,43.6,3.7,43z
		 M69.5,60.9c0.2,0,1.3-1,1.2-1.1c-0.3-0.4-0.7-0.6-1.2-0.5c-0.3,0.1-1-0.1-0.9,0.5C68.7,60.1,69,60.7,69.5,60.9z M70.6,61.5
		c-0.1,0.1-0.1,0.3,0,0.4c0.3,0.3,1,0.3,1,0.3c0-0.6,1-0.7,0.8-1.5c0-0.1-0.1-0.1-0.1-0.1C72,60.3,70.7,61.1,70.6,61.5z M76.2,52.2
		c-0.1-0.5-0.2-0.9-0.7-1c-0.5,0-0.7,0.3-0.7,0.8c0,0.7,0.5,1.1,1,1.2C76.2,53.2,76,52.5,76.2,52.2z M7.1,41.7
		c0.3,0.4,0.8,0.5,0.5,1.2c-0.2,0.3,0.2,0.6,0.5,0.7c0.4,0.1,0.8,0.1,1-0.3c0.2-0.3,0-0.6-0.2-0.8C8.5,41.9,7.9,41.7,7.1,41.7z
		 M43.3,16.1c0.1-0.7-0.4-1.3-0.8-1.8c0-0.1-0.1-0.1-0.2-0.1c-0.1,0-0.2,0.1-0.2,0.2c0.3,0.6-0.1,1.1,0.1,1.7
		c0.1,0.4,0.5,0.7,0.9,0.7C43.6,16.8,43.4,16.4,43.3,16.1z M60.1,28.1c0.4,0.1,0.7,0.3,1,0.4c0.5,0,1,0,1.2-0.5
		c0.2-0.4,0.1-0.8-0.1-1.1c-0.2-0.3-0.5-0.2-0.5,0C61.7,27.8,60.8,27.7,60.1,28.1z M76,44.3c0.5,0,0.8,0.1,0.9-0.5
		c0.1-0.7-0.3-1-0.9-1c-0.3,0-0.9,0-0.9,0.4C75.2,43.8,75.5,44.4,76,44.3z M65.4,31.2c0.5,0.1,0.8-0.1,0.8-0.6c0-0.6-0.6-0.8-1-0.9
		c-0.5-0.1-0.7,0.7-0.8,1C64.3,31.3,65,31.1,65.4,31.2z M51.3,20.1c0.1-0.4-0.1-0.8-0.4-0.9c-0.3-0.1-0.5-0.8-0.8-0.3
		c-0.3,0.4-0.5,0.9,0.1,1.3c0.2,0.1,0.4,0.3,0.6,0.4C51.2,20.8,51.4,20.7,51.3,20.1z M71.5,36.9c0.7,0.1,0.6-0.5,0.9-0.7
		c-0.4-0.3-0.7-0.7-1.1-0.8c-0.4-0.1-0.9,0.3-0.8,0.7C70.6,36.7,71.1,37,71.5,36.9z M77,41.2c0-0.5-0.2-0.8-0.8-0.8
		c-0.4,0-0.7,0.2-0.7,0.6c0,0.7,0.5,0.9,1,0.9C77.1,42,76.9,41.5,77,41.2z M71,41.2c-0.3,0-0.8,0-0.8,0.3c0,0.7,0.6,1.2,1.2,1.3
		c0.7,0.2,0.4-0.7,0.5-1C72,41.1,71.1,41.7,71,41.2z M75.7,54.7c0.1-0.2,0.2-0.4-0.1-0.4c-0.2,0-0.5-0.5-0.7-0.2
		c-0.2,0.3-0.3,0.7-0.4,1.1c0,0.3,0.1,0.8,0.6,0.9c0.5,0.1,0.3-0.5,0.5-0.7C75.7,55.2,75.7,55,75.7,54.7z M50.2,21.8
		C50,22.2,50,22.7,49.7,23c-0.2,0.2-0.2,0.4,0,0.5c0.3,0.2,0.5,0.5,0.9,0.4c0.2-0.1,0.3-0.2,0.3-0.5C51,22.7,50.7,22.3,50.2,21.8z
		 M76.5,34.3c-0.2,0.2-0.7-0.1-0.6,0.5c0.2,0.6,0.4,1.1,1.1,1.2c0.4,0,0.4-0.3,0.4-0.5C77.3,34.9,77,34.5,76.5,34.3z M67.8,63.1
		c0.7,0.5,1.3,0.1,1.9,0c0.1,0,0.5-0.1,0.4-0.5c-0.1-0.4-0.5-0.4-0.8-0.5C69,62,68.7,62,68.7,62.4C68.6,62.9,68.4,63.2,67.8,63.1z
		 M58,27.7c-0.1,0.5-0.3,0.8-0.4,1.2c-0.1,0.5,0.3,0.6,0.6,0.9c0.1,0.1,0.5,0.2,0.6-0.1c0.1-0.3,0.2-0.7,0-1
		C58.6,28.4,58.4,28.1,58,27.7z M6.9,40.5c0.4-0.1,0.8-0.1,1.1-0.2c0.3-0.1,0.6-0.4,0.4-0.7c-0.2-0.4-0.7-0.7-1.2-0.6
		c-0.5,0.1-0.1,0.4-0.1,0.6C7.3,40,6.9,40.2,6.9,40.5z M49,26.8c0.4-0.4,0.1-1.1,0.7-1.4c0.2-0.1,0.1-0.2,0-0.3
		c-0.1-0.1-0.3-0.2-0.3,0c-0.3,1-0.9,0.9-1.6,0.4c-0.1-0.1-0.4-0.1-0.5,0c-0.1,0.2,0.1,0.3,0.2,0.4C47.9,26.5,48.6,26.4,49,26.8z
		 M50.2,28.7c0.3,0,0.6,0,0.5-0.3c-0.1-0.6-0.7-0.8-1.2-1c-0.2-0.1-0.6,0.1-0.6,0.4C49.1,28.4,49.6,28.7,50.2,28.7z M6.5,36.8
		c-0.6-0.2-0.8,0.7-1.4,0.8c-0.1,0-0.1,0.3,0,0.4c0.1,0.1,0.2,0.2,0.3,0.1c0.5-0.3,1.1-0.2,1.5-0.6C7,37.4,7.1,37.2,7,37
		C6.9,36.8,6.8,36.7,6.5,36.8z M57.2,22.7c0.3,0.1,0.5,0.1,0.5-0.3c-0.1-0.6-0.4-0.9-1-0.9c-0.4,0-0.8,0.1-0.7,0.3
		C56.1,22.3,56.7,22.6,57.2,22.7z M57.6,23.8c0,0.5,0.5,0.6,0.8,0.9c0.2,0.2,0.5,0,0.6-0.1c0.3-0.3-0.1-0.7,0.1-1.1
		c0.1-0.2-0.2-0.3-0.3-0.3c-0.2-0.1-0.2,0.1-0.2,0.1C58.4,23.7,57.9,23.6,57.6,23.8z M48.1,14.6c-0.4-0.9-1.5-1.5-2.3-1.3
		c-0.2,0-0.4,0-0.3,0.3c0,0.2,0.2,0.2,0.3,0.2c0.6-0.3,0.9,0.1,1.2,0.5C47.3,14.5,47.6,14.7,48.1,14.6z M42.8,19.2
		c0.1-0.8-0.5-1.9-1-2.3C41.6,18,42,18.8,42.8,19.2z M14.2,56.6c0,0.3,0,0.7,0,1c0,0.4,0.2,0.7,0.6,0.8c0.2,0,0.3,0.2,0.5,0
		c0.2-0.2,0-0.3,0-0.5C15.2,57.5,14.6,57.2,14.2,56.6z M64.4,61.7C64,62.3,63.8,63,64,63.1c0.1,0.1,1.3,0,1.3-0.1
		C65.3,62.4,64.7,62.1,64.4,61.7z M64.5,60.7c0.3-0.2,0.4-0.4,0.7-0.5c0.4-0.1,0.4-0.3,0.2-0.6c-0.2-0.3-0.4-0.6-0.7-0.9
		c-0.3,0.3-0.2,0.7-0.3,1.1C64.4,60,64.3,60.3,64.5,60.7z M47.4,23.1c0.2,0.5,0,1.1,0.5,1.4c0.2,0.2,0.5,0.4,0.7,0.2
		c0.3-0.2,0-0.5,0-0.7C48.5,23.5,48,23.3,47.4,23.1z M75.1,58.1c0-0.4,0.1-0.9-0.5-0.8c-0.7,0.1-0.4,0.7-0.5,1
		c-0.2,0.4,0.4,0.4,0.6,0.4C75.2,58.8,75.1,58.4,75.1,58.1z M66.8,36c0.4-0.2,0.5-0.6,0.8-0.8c0.3-0.1,0.2-0.5,0-0.7
		c-0.1-0.2-0.3-0.5-0.5-0.5c-0.3,0.1-0.2,0.4-0.2,0.7C67,35.1,66.6,35.5,66.8,36z M5.5,51.1c0.7,0.8,0.7,2,1.6,2.6
		c0.3-0.2,0.4-0.6,0.1-0.7C6.5,52.5,6.2,51.6,5.5,51.1z M46.5,23.4c0.1-0.2,0-0.4-0.2-0.5c-0.2,0-0.3,0.2-0.3,0.4
		c0,0.2,0,0.4-0.2,0.6c-0.2,0.1-0.5,0.3-0.2,0.6c0.2,0.2,0.5,0.5,0.8,0.4c0.4-0.2,0-0.4-0.1-0.6C46.3,23.9,46.3,23.6,46.5,23.4z
		 M71.6,58.2c0.3,0.3,0.4,0.5,0.3,0.8c-0.2,0.5,0.2,0.4,0.5,0.4c0.4-0.1,0.6-0.4,0.5-0.8C72.6,58,72.2,58,71.6,58.2z M58.4,31.4
		c-0.3-0.5-0.7-0.7-1.2-0.9c-0.2-0.1-0.4-0.2-0.5,0c-0.1,0.2,0,0.4,0.2,0.5C57.3,31.4,57.8,31.6,58.4,31.4z M53.8,26.3
		c0-0.3-0.1-0.7-0.4-0.6c-0.3,0.1-0.7,0.4-0.8,0.7c-0.1,0.3,0.4,0.4,0.7,0.5C53.7,26.9,53.8,26.6,53.8,26.3z M74,60.7
		c0.3,0.2,0.6,0,0.5-0.4c-0.1-0.5-0.7-0.5-1.1-0.6c-0.2,0-0.4,0.2-0.2,0.3C73.4,60.3,73.3,60.9,74,60.7z M44.6,18.4
		c-0.1-0.4,0-0.9-0.4-1.1c-0.2-0.1-0.5,0.4-0.4,0.7c0,0.4,0.2,0.8,0.6,0.8C44.7,19,44.6,18.7,44.6,18.4z M5.4,39.9
		c0.3,0,0.5-0.1,0.4-0.4c0-0.3-0.3-0.6-0.5-0.5c-0.4,0.2-1.1,0.1-1,0.6C4.5,40.3,5.2,39.3,5.4,39.9z M62.4,30.8
		c0.1,0.3,0.1,0.5-0.1,0.7c-0.2,0.2,0,0.4,0.3,0.4c0.2,0,0.6,0.2,0.7-0.2C63.4,31.2,62.9,31,62.4,30.8z M45.1,14.7
		c-0.3-0.3-0.5-0.8-1-1c-0.1,0-0.3-0.1-0.4,0c-0.1,0.1-0.1,0.3,0.1,0.4C44.2,14.5,44.5,14.9,45.1,14.7z M52.9,28.5
		c0.1-0.2,0.2-0.4,0.2-0.5c-0.2-0.4-0.7-0.4-1-0.7c0-0.1-0.3,0.1-0.2,0.2C52.1,27.9,52.4,28.2,52.9,28.5z M67.6,31.6
		c0.2,0.1-0.4,0.5,0.2,0.4c0.3,0,0.6-0.2,0.6-0.5c0-0.3-0.3-0.3-0.5-0.3C67.6,31.2,67.5,31.3,67.6,31.6z M72,62.7
		c0.6,0.1,0.9-0.2,1.2-0.3c0.2-0.1,0.4-0.2,0.3-0.4c-0.1-0.2-0.4-0.2-0.5,0C72.8,62.2,72.4,62.3,72,62.7z"/>
	<path d="M28.6,27.1c0.8,0,1.4,0.6,1.5,1.6c0,0.5-0.7,1.4-1.3,1.4c-0.7,0-1.6-0.8-1.7-1.5C27,27.6,27.5,27.2,28.6,27.1z M29.2,28.7
		c0-0.6-0.5-0.3-0.8-0.5c-0.3-0.1-0.4,0.1-0.4,0.3c0,0.4,0.3,0.6,0.7,0.7C29,29.3,29.2,29,29.2,28.7z"/>
	<path d="M27,62.3c0,0.9-0.5,1.7-1.1,1.7c-0.7,0-1.2-0.7-1.1-1.7c0-0.7,0.9-1.7,1.6-1.5C27,61,26.8,61.9,27,62.3z"/>
	<path d="M28.6,62c0-1.1,0.5-1.6,1.4-1.5c0.4,0,0.6,0.2,0.7,0.5c0.3,0.6-0.1,1.9-0.6,2.3c-0.3,0.2-0.5,0.3-0.9,0.1
		C28.8,63,28.5,62.6,28.6,62z"/>
	<path d="M27.8,60.2c-0.8,0-1.1-0.3-1.1-1.2c0-0.9,0.6-1.7,1.3-1.7c0.5,0,1,0.6,1,1.5C29,59.6,28.5,60.2,27.8,60.2z"/>
	<path d="M30.1,32.3c0-0.3-0.2-0.7,0.3-0.8c0.5,0,0.5,0.4,0.5,0.8c0,0.7-0.1,1.4-0.8,1.8c-0.6,0.3-1.6-0.4-1.9-1.1
		c-0.3-0.7,0.1-1.6,0.8-2c0.4-0.2,0.8-0.2,1,0.2c0.2,0.4-0.1,0.6-0.4,0.8c-0.3,0.2-0.7,0.2-0.6,0.7c0.1,0.4,0.3,0.7,0.7,0.6
		C30.2,33.1,30.1,32.6,30.1,32.3z"/>
	<path d="M31.8,29.3c0-0.6,0.7-1.4,1.3-1.4c0.6,0,1.1,0.7,1.2,1.7c0,0.6-0.5,1.3-1,1.3C32.5,30.9,31.8,30.1,31.8,29.3z M33.5,29.4
		c-0.1-0.2-0.1-0.5-0.5-0.5c-0.2,0-0.4,0.3-0.4,0.5c0,0.3,0.2,0.5,0.5,0.5C33.4,29.9,33.5,29.7,33.5,29.4z"/>
</g>
</svg>
