<?xml version="1.0" encoding="iso-8859-1"?>
<!-- Generator: Adobe Illustrator 16.0.4, SVG Export Plug-In . SVG Version: 6.00 Build 0)  -->
<!DOCTYPE svg PUBLIC "-//W3C//DTD SVG 1.1//EN" "http://www.w3.org/Graphics/SVG/1.1/DTD/svg11.dtd">
<svg version="1.1" id="Capa_1" xmlns="http://www.w3.org/2000/svg" xmlns:xlink="http://www.w3.org/1999/xlink" x="0px" y="0px"
	 width="44.237px" height="44.237px" viewBox="0 0 44.237 44.237" style="enable-background:new 0 0 44.237 44.237;"
	 xml:space="preserve">
<g>
	<path d="M22.118,44.237C9.922,44.237,0,34.315,0,22.119S9.922,0,22.118,0c12.196,0,22.119,9.922,22.119,22.119
		S34.314,44.237,22.118,44.237z M22.118,1.5C10.75,1.5,1.5,10.75,1.5,22.119s9.25,20.619,20.618,20.619
		c11.369,0,20.619-9.25,20.619-20.619S33.487,1.5,22.118,1.5z"/>
	<path d="M18.674,27.842c-0.192,0-0.384-0.073-0.53-0.219l-4.333-4.327c-0.293-0.293-0.293-0.768-0.001-1.061
		c0.293-0.294,0.769-0.293,1.061-0.001l3.803,3.798l10.693-10.693c0.293-0.293,0.768-0.293,1.061,0s0.293,0.768,0,1.061
		L19.204,27.623C19.058,27.769,18.866,27.842,18.674,27.842z"/>
</g>
<g>
</g>
<g>
</g>
<g>
</g>
<g>
</g>
<g>
</g>
<g>
</g>
<g>
</g>
<g>
</g>
<g>
</g>
<g>
</g>
<g>
</g>
<g>
</g>
<g>
</g>
<g>
</g>
<g>
</g>
</svg>
