<?xml version="1.0" encoding="iso-8859-1"?>
<!-- Generator: Adobe Illustrator 16.0.4, SVG Export Plug-In . SVG Version: 6.00 Build 0)  -->
<!DOCTYPE svg PUBLIC "-//W3C//DTD SVG 1.1//EN" "http://www.w3.org/Graphics/SVG/1.1/DTD/svg11.dtd">
<svg version="1.1" id="Capa_1" xmlns="http://www.w3.org/2000/svg" xmlns:xlink="http://www.w3.org/1999/xlink" x="0px" y="0px"
	 width="44.238px" height="44.237px" viewBox="0 0 44.238 44.237" style="enable-background:new 0 0 44.238 44.237;"
	 xml:space="preserve">
<g>
	<path d="M22.119,44.237C9.923,44.237,0,34.315,0,22.119S9.923,0,22.119,0s22.119,9.922,22.119,22.119S34.315,44.237,22.119,44.237z
		 M22.119,1.5C10.75,1.5,1.5,10.75,1.5,22.119s9.25,20.619,20.619,20.619s20.619-9.25,20.619-20.619S33.488,1.5,22.119,1.5z"/>
	<path d="M33.747,22.869H22.119c-0.199,0-0.39-0.079-0.53-0.22l-8.222-8.222c-0.293-0.293-0.293-0.768,0-1.061s0.768-0.293,1.061,0
		l8.002,8.002h11.317c0.414,0,0.75,0.336,0.75,0.75S34.161,22.869,33.747,22.869z"/>
</g>
<g>
</g>
<g>
</g>
<g>
</g>
<g>
</g>
<g>
</g>
<g>
</g>
<g>
</g>
<g>
</g>
<g>
</g>
<g>
</g>
<g>
</g>
<g>
</g>
<g>
</g>
<g>
</g>
<g>
</g>
</svg>
