<?xml version="1.0" encoding="iso-8859-1"?>
<!-- Generator: Adobe Illustrator 16.0.4, SVG Export Plug-In . SVG Version: 6.00 Build 0)  -->
<!DOCTYPE svg PUBLIC "-//W3C//DTD SVG 1.1//EN" "http://www.w3.org/Graphics/SVG/1.1/DTD/svg11.dtd">
<svg version="1.1" id="Capa_1" xmlns="http://www.w3.org/2000/svg" xmlns:xlink="http://www.w3.org/1999/xlink" x="0px" y="0px"
	 width="44.236px" height="44.237px" viewBox="0 0 44.236 44.237" style="enable-background:new 0 0 44.236 44.237;"
	 xml:space="preserve">
<g>
	<path d="M22.118,44.237C9.922,44.237,0,34.315,0,22.119S9.922,0,22.118,0s22.118,9.922,22.118,22.119S34.314,44.237,22.118,44.237z
		 M22.118,1.5C10.75,1.5,1.5,10.75,1.5,22.119s9.25,20.619,20.618,20.619s20.618-9.25,20.618-20.619S33.487,1.5,22.118,1.5z"/>
	<path d="M22.118,30.6c-4.676,0-8.48-3.805-8.48-8.481s3.804-8.481,8.48-8.481c4.677,0,8.481,3.805,8.481,8.481
		c0,0.414-0.336,0.75-0.75,0.75s-0.75-0.336-0.75-0.75c0-3.849-3.132-6.981-6.981-6.981c-3.849,0-6.98,3.132-6.98,6.981
		s3.131,6.981,6.98,6.981c0.414,0,0.75,0.336,0.75,0.75S22.532,30.6,22.118,30.6z"/>
	<g>
		<line x1="26.516" y1="19.932" x2="29.849" y2="23.259"/>
		<path d="M29.849,24.009c-0.192,0-0.383-0.073-0.53-0.219l-3.333-3.327c-0.293-0.292-0.293-0.768-0.001-1.061
			c0.292-0.294,0.767-0.294,1.061-0.001l3.333,3.327c0.293,0.292,0.293,0.768,0.001,1.061
			C30.233,23.936,30.042,24.009,29.849,24.009z"/>
	</g>
	<g>
		<line x1="33.183" y1="19.932" x2="29.849" y2="23.259"/>
		<path d="M29.849,24.009c-0.192,0-0.384-0.073-0.531-0.22c-0.292-0.293-0.292-0.768,0.001-1.061l3.333-3.327
			c0.293-0.292,0.768-0.292,1.061,0.001c0.292,0.293,0.292,0.768-0.001,1.061l-3.333,3.327
			C30.232,23.936,30.041,24.009,29.849,24.009z"/>
	</g>
</g>
<g>
</g>
<g>
</g>
<g>
</g>
<g>
</g>
<g>
</g>
<g>
</g>
<g>
</g>
<g>
</g>
<g>
</g>
<g>
</g>
<g>
</g>
<g>
</g>
<g>
</g>
<g>
</g>
<g>
</g>
</svg>
