<?xml version="1.0" encoding="iso-8859-1"?>
<!-- Generator: Adobe Illustrator 16.0.4, SVG Export Plug-In . SVG Version: 6.00 Build 0)  -->
<!DOCTYPE svg PUBLIC "-//W3C//DTD SVG 1.1//EN" "http://www.w3.org/Graphics/SVG/1.1/DTD/svg11.dtd">
<svg version="1.1" id="Capa_1" xmlns="http://www.w3.org/2000/svg" xmlns:xlink="http://www.w3.org/1999/xlink" x="0px" y="0px"
	 width="44.236px" height="44.237px" viewBox="0 0 44.236 44.237" style="enable-background:new 0 0 44.236 44.237;"
	 xml:space="preserve">
<g>
	<path d="M22.118,44.237C9.922,44.237,0,34.315,0,22.119S9.922,0,22.118,0s22.118,9.923,22.118,22.119S34.314,44.237,22.118,44.237z
		 M22.118,1.5C10.75,1.5,1.5,10.75,1.5,22.119s9.25,20.618,20.618,20.618s20.618-9.249,20.618-20.618S33.487,1.5,22.118,1.5z"/>
	<g>
		<circle cx="22.118" cy="22.438" r="1.41"/>
		<path d="M22.118,24.098c-0.916,0-1.66-0.745-1.66-1.66s0.745-1.66,1.66-1.66s1.66,0.745,1.66,1.66S23.034,24.098,22.118,24.098z
			 M22.118,21.277c-0.64,0-1.16,0.521-1.16,1.16s0.521,1.16,1.16,1.16s1.16-0.521,1.16-1.16S22.758,21.277,22.118,21.277z"/>
	</g>
	<g>
		<path d="M22.118,32.42c-0.6,0-1.208-0.06-1.86-0.182c-0.446-0.062-0.83-0.444-0.898-0.926l-0.357-1.837
			c-0.461-0.208-0.896-0.46-1.287-0.744l-1.798,0.623c-0.087,0.04-0.233,0.07-0.381,0.07c-0.317,0-0.622-0.146-0.837-0.398
			c-0.836-0.953-1.482-2.075-1.862-3.234c-0.183-0.418-0.023-0.974,0.403-1.257l1.358-1.185c-0.023-0.231-0.035-0.48-0.035-0.753
			c0-0.271,0.011-0.52,0.035-0.75l-1.435-1.245c-0.35-0.226-0.51-0.78-0.303-1.262c0.356-1.098,1.003-2.219,1.847-3.181
			c0.299-0.355,0.822-0.488,1.261-0.298l1.746,0.603c0.39-0.284,0.825-0.537,1.287-0.745l0.364-1.874
			c0.063-0.447,0.449-0.83,0.932-0.894c1.125-0.234,2.465-0.243,3.693,0.009c0.432,0.055,0.817,0.438,0.886,0.921l0.358,1.838
			c0.447,0.204,0.875,0.453,1.282,0.746l1.803-0.624c0.087-0.04,0.233-0.07,0.381-0.07c0.318,0,0.624,0.146,0.838,0.401
			c0.834,0.949,1.481,2.07,1.861,3.23c0.183,0.419,0.023,0.974-0.403,1.258l-1.359,1.185c0.023,0.232,0.035,0.48,0.035,0.752
			s-0.011,0.52-0.035,0.751l1.435,1.245c0.35,0.225,0.51,0.78,0.303,1.261c-0.356,1.097-1.002,2.219-1.847,3.181
			c-0.303,0.357-0.825,0.487-1.261,0.299l-1.751-0.604c-0.406,0.293-0.835,0.542-1.281,0.746l-0.364,1.874
			c-0.062,0.444-0.446,0.827-0.927,0.895C23.327,32.36,22.718,32.42,22.118,32.42z M20.789,30.809c0.96,0.152,1.738,0.146,2.66,0
			l0.39-2.012c0.049-0.254,0.225-0.464,0.466-0.557c0.57-0.221,1.111-0.535,1.607-0.935c0.201-0.162,0.472-0.207,0.716-0.125
			l1.938,0.672c0.581-0.706,1.034-1.491,1.33-2.301l-1.549-1.337c-0.201-0.174-0.294-0.442-0.246-0.703
			c0.048-0.259,0.071-0.558,0.071-0.914s-0.023-0.654-0.071-0.913c-0.049-0.261,0.045-0.529,0.246-0.703l1.547-1.342
			c-0.313-0.838-0.763-1.611-1.329-2.297l-1.938,0.673c-0.244,0.083-0.516,0.036-0.717-0.125c-0.495-0.4-1.035-0.715-1.606-0.936
			c-0.241-0.093-0.417-0.303-0.466-0.557l-0.391-2.014c-0.926-0.156-1.792-0.148-2.659,0l-0.39,2.014
			c-0.049,0.254-0.225,0.464-0.466,0.557c-0.598,0.231-1.149,0.552-1.595,0.926c-0.202,0.17-0.478,0.22-0.728,0.135l-1.938-0.672
			c-0.581,0.707-1.034,1.491-1.33,2.301l1.549,1.337c0.201,0.175,0.294,0.442,0.246,0.705c-0.048,0.255-0.071,0.553-0.071,0.911
			s0.023,0.657,0.071,0.912c0.049,0.263-0.044,0.53-0.246,0.705l-1.547,1.342c0.313,0.837,0.763,1.61,1.329,2.297l1.938-0.673
			c0.251-0.085,0.526-0.034,0.728,0.134c0.446,0.375,0.998,0.694,1.595,0.926c0.241,0.093,0.417,0.303,0.466,0.557L20.789,30.809z"
			/>
	</g>
</g>
<g>
</g>
<g>
</g>
<g>
</g>
<g>
</g>
<g>
</g>
<g>
</g>
<g>
</g>
<g>
</g>
<g>
</g>
<g>
</g>
<g>
</g>
<g>
</g>
<g>
</g>
<g>
</g>
<g>
</g>
</svg>
