<?xml version="1.0" encoding="iso-8859-1"?>
<!-- Generator: Adobe Illustrator 16.0.4, SVG Export Plug-In . SVG Version: 6.00 Build 0)  -->
<!DOCTYPE svg PUBLIC "-//W3C//DTD SVG 1.1//EN" "http://www.w3.org/Graphics/SVG/1.1/DTD/svg11.dtd">
<svg version="1.1" id="Capa_1" xmlns="http://www.w3.org/2000/svg" xmlns:xlink="http://www.w3.org/1999/xlink" x="0px" y="0px"
	 width="44.236px" height="44.236px" viewBox="0 0 44.236 44.236" style="enable-background:new 0 0 44.236 44.236;"
	 xml:space="preserve">
<g>
	<path d="M22.118,44.236C9.922,44.236,0,34.314,0,22.118S9.922,0,22.118,0s22.118,9.922,22.118,22.118S34.314,44.236,22.118,44.236z
		 M22.118,1.5C10.749,1.5,1.5,10.749,1.5,22.118s9.249,20.618,20.618,20.618s20.618-9.249,20.618-20.618S33.487,1.5,22.118,1.5z"/>
	<path style="stroke:#272425;stroke-width:1.5;stroke-linecap:round;stroke-linejoin:round;stroke-miterlimit:10;" d="M22.35,26.184
		"/>
	<g>
		<line x1="22.35" y1="12.578" x2="22.35" y2="24.206"/>
		<path d="M22.35,24.956c-0.414,0-0.75-0.336-0.75-0.75V12.578c0-0.414,0.336-0.75,0.75-0.75s0.75,0.336,0.75,0.75v11.628
			C23.1,24.62,22.764,24.956,22.35,24.956z"/>
	</g>
	<g>
		<circle cx="22.35" cy="29.631" r="1.41"/>
		<path d="M22.35,31.291c-0.915,0-1.66-0.745-1.66-1.66s0.745-1.66,1.66-1.66s1.66,0.745,1.66,1.66S23.265,31.291,22.35,31.291z
			 M22.35,28.471c-0.64,0-1.16,0.521-1.16,1.16s0.521,1.16,1.16,1.16s1.16-0.521,1.16-1.16S22.989,28.471,22.35,28.471z"/>
	</g>
</g>
<g>
</g>
<g>
</g>
<g>
</g>
<g>
</g>
<g>
</g>
<g>
</g>
<g>
</g>
<g>
</g>
<g>
</g>
<g>
</g>
<g>
</g>
<g>
</g>
<g>
</g>
<g>
</g>
<g>
</g>
</svg>
