<?xml version="1.0" encoding="iso-8859-1"?>
<!-- Generator: Adobe Illustrator 16.0.4, SVG Export Plug-In . SVG Version: 6.00 Build 0)  -->
<!DOCTYPE svg PUBLIC "-//W3C//DTD SVG 1.1//EN" "http://www.w3.org/Graphics/SVG/1.1/DTD/svg11.dtd">
<svg version="1.1" id="Capa_1" xmlns="http://www.w3.org/2000/svg" xmlns:xlink="http://www.w3.org/1999/xlink" x="0px" y="0px"
	 width="44.238px" height="44.238px" viewBox="0 0 44.238 44.238" style="enable-background:new 0 0 44.238 44.238;"
	 xml:space="preserve">
<g>
	<path d="M22.119,44.238C9.923,44.238,0,34.315,0,22.119S9.923,0,22.119,0s22.119,9.923,22.119,22.119S34.315,44.238,22.119,44.238z
		 M22.119,1.5C10.75,1.5,1.5,10.75,1.5,22.119s9.25,20.619,20.619,20.619s20.619-9.25,20.619-20.619S33.488,1.5,22.119,1.5z"/>
	<path d="M26.842,29.832h-0.027c-0.601-0.031-0.904-0.26-1.106-0.41l-3.558-1.956l-3.361,1.925
		c-0.239,0.186-0.544,0.402-1.092,0.433c-0.002,0-0.004,0-0.006,0c-0.533,0-1.032-0.27-1.283-0.654
		c-0.237-0.344-0.271-0.68-0.273-0.901c0-0.342,0.511-2.131,0.516-2.148l0.317-1.931l-1.39-1.113c0,0.001,0,0.001,0,0.001
		c0.001,0-1.714-1.337-1.913-1.569c-0.174-0.215-0.385-0.534-0.392-1.025c-0.012-0.331,0.116-0.699,0.344-0.97
		c0.15-0.185,0.351-0.336,0.587-0.44c0.312-0.132,2.087-0.408,2.562-0.46l1.923-0.322l1.124-2.331
		c0.187-0.471,0.917-1.993,1.032-2.165c0.288-0.428,0.745-0.681,1.255-0.693c0.548,0.014,1.004,0.266,1.292,0.691
		c0.124,0.182,0.951,1.921,1.158,2.421l1,2.077l2.023,0.338c0.461,0.05,2.081,0.32,2.214,0.355c0.233,0.069,0.552,0.193,0.834,0.528
		c0.229,0.271,0.356,0.64,0.345,0.986c-0.008,0.543-0.289,0.885-0.381,0.997c-0.193,0.23-1.482,1.235-1.548,1.278l-1.699,1.368
		l0.463,1.428c0.054,0.16,0.528,2.403,0.528,2.707c0,0.354-0.097,0.66-0.297,0.939C27.75,29.636,27.228,29.832,26.842,29.832z
		 M22.727,26.07l3.882,2.151c0.111,0.083,0.135,0.102,0.201,0.108c-0.007-0.265-0.378-2.089-0.439-2.315l-0.575-1.777l-0.012-0.201
		c-0.023-0.284,0.146-0.721,0.465-0.943l1.907-1.531c0.194-0.139,1.165-0.92,1.306-1.058c-0.008-0.053-0.012-0.058-0.081-0.078
		c-0.168-0.035-1.774-0.291-1.962-0.309l-2.245-0.371l0.001-0.001c-0.204-0.027-0.396-0.109-0.554-0.23
		c-0.173-0.13-0.312-0.312-0.385-0.499l-1.083-2.275c-0.074-0.188-0.901-1.933-1.018-2.133c-0.144,0.194-0.846,1.683-0.926,1.896
		l-1.204,2.512c-0.072,0.188-0.212,0.371-0.389,0.503c-0.166,0.13-0.383,0.217-0.587,0.235l-2.136,0.35
		c-0.208,0.017-1.888,0.288-2.139,0.362c0.019,0.022,0.019,0.027,0.064,0.084c0.117,0.104,1.483,1.201,1.658,1.327l1.535,1.229
		c0.319,0.227,0.503,0.681,0.478,1.027l-0.039,0.242l-0.34,2.077c-0.091,0.332-0.449,1.664-0.48,1.877
		c0.093-0.009,0.101-0.015,0.232-0.117l0.135-0.096l3.554-2.035C21.881,25.856,22.397,25.854,22.727,26.07z"/>
</g>
<g>
</g>
<g>
</g>
<g>
</g>
<g>
</g>
<g>
</g>
<g>
</g>
<g>
</g>
<g>
</g>
<g>
</g>
<g>
</g>
<g>
</g>
<g>
</g>
<g>
</g>
<g>
</g>
<g>
</g>
</svg>
