<?xml version="1.0" encoding="iso-8859-1"?>
<!-- Generator: Adobe Illustrator 16.0.4, SVG Export Plug-In . SVG Version: 6.00 Build 0)  -->
<!DOCTYPE svg PUBLIC "-//W3C//DTD SVG 1.1//EN" "http://www.w3.org/Graphics/SVG/1.1/DTD/svg11.dtd">
<svg version="1.1" id="Capa_1" xmlns="http://www.w3.org/2000/svg" xmlns:xlink="http://www.w3.org/1999/xlink" x="0px" y="0px"
	 width="44.237px" height="44.238px" viewBox="0 0 44.237 44.238" style="enable-background:new 0 0 44.237 44.238;"
	 xml:space="preserve">
<g>
	<path d="M22.118,44.238C9.922,44.238,0,34.315,0,22.119S9.922,0,22.118,0s22.119,9.923,22.119,22.119S34.314,44.238,22.118,44.238z
		 M22.118,1.5C10.75,1.5,1.5,10.75,1.5,22.119s9.25,20.619,20.618,20.619c11.37,0,20.619-9.25,20.619-20.619S33.488,1.5,22.118,1.5z
		"/>
	<path d="M16.195,29.652c-2.536,0-4.599-2.062-4.599-4.599c0-1.686,0.909-3.209,2.355-4.015c0.06-3.568,2.981-6.453,6.564-6.453
		c2.241,0,4.332,1.168,5.526,3.033c0.426-0.186,0.885-0.281,1.358-0.281c1.893,0,3.433,1.54,3.433,3.433
		c0,0.156-0.011,0.312-0.031,0.465c1.147,0.88,1.841,2.26,1.841,3.719c0,2.544-2.07,4.646-4.615,4.687l-11.621,0.002
		C16.333,29.648,16.265,29.652,16.195,29.652z M20.515,16.086c-2.793,0-5.065,2.271-5.065,5.064c0,0.068,0.005,0.136,0.01,0.204
		c0,0.002,0.006,0.1,0.006,0.102c0.019,0.318-0.166,0.614-0.461,0.736c-1.16,0.481-1.909,1.604-1.909,2.861
		c0,1.709,1.39,3.099,3.099,3.099l0.111-0.005l11.631-0.005c1.796-0.029,3.204-1.459,3.204-3.188c0-1.117-0.6-2.166-1.564-2.739
		c-0.3-0.178-0.438-0.538-0.332-0.871c0.058-0.183,0.087-0.375,0.087-0.573c0-1.065-0.867-1.933-1.933-1.933
		c-0.429,0-0.837,0.141-1.182,0.407c-0.18,0.139-0.41,0.191-0.633,0.137c-0.221-0.053-0.405-0.202-0.503-0.407
		C24.246,17.22,22.453,16.086,20.515,16.086z"/>
</g>
<g>
</g>
<g>
</g>
<g>
</g>
<g>
</g>
<g>
</g>
<g>
</g>
<g>
</g>
<g>
</g>
<g>
</g>
<g>
</g>
<g>
</g>
<g>
</g>
<g>
</g>
<g>
</g>
<g>
</g>
</svg>
