<?xml version="1.0" encoding="utf-8"?>
<!-- Generator: Adobe Illustrator 16.0.4, SVG Export Plug-In . SVG Version: 6.00 Build 0)  -->
<!DOCTYPE svg PUBLIC "-//W3C//DTD SVG 1.1//EN" "http://www.w3.org/Graphics/SVG/1.1/DTD/svg11.dtd">
<svg version="1.1" id="Capa_1" xmlns="http://www.w3.org/2000/svg" xmlns:xlink="http://www.w3.org/1999/xlink" x="0px" y="0px"
	 width="99.004px" height="99px" viewBox="0 0 99.004 99" enable-background="new 0 0 99.004 99" xml:space="preserve">
<g>
	<path d="M49.502,0C22.207,0,0,22.207,0,49.502C0,76.795,22.207,99,49.502,99s49.502-22.203,49.502-49.498
		C99.004,22.205,76.797,0,49.502,0z M49.502,95.647c-25.444,0-46.145-20.702-46.145-46.146S24.058,3.356,49.502,3.356
		c25.443,0,46.146,20.701,46.146,46.145C95.646,74.945,74.945,95.647,49.502,95.647z"/>
	<circle cx="31.471" cy="49.205" r="3.715"/>
	<path d="M50.309,45.776c-2.048,0-3.716,1.67-3.716,3.718c0,2.045,1.668,3.713,3.716,3.713c2.051,0,3.715-1.663,3.715-3.713
		C54.023,47.444,52.355,45.776,50.309,45.776z"/>
	<circle cx="69.146" cy="49.491" r="3.716"/>
</g>
</svg>
