<?xml version="1.0" encoding="iso-8859-1"?>
<!-- Generator: Adobe Illustrator 16.0.4, SVG Export Plug-In . SVG Version: 6.00 Build 0)  -->
<!DOCTYPE svg PUBLIC "-//W3C//DTD SVG 1.1//EN" "http://www.w3.org/Graphics/SVG/1.1/DTD/svg11.dtd">
<svg version="1.1" id="Capa_1" xmlns="http://www.w3.org/2000/svg" xmlns:xlink="http://www.w3.org/1999/xlink" x="0px" y="0px"
	 width="44.238px" height="44.238px" viewBox="0 0 44.238 44.238" style="enable-background:new 0 0 44.238 44.238;"
	 xml:space="preserve">
<g>
	<path d="M22.119,44.238C9.923,44.238,0,34.315,0,22.119S9.923,0,22.119,0s22.119,9.923,22.119,22.119S34.315,44.238,22.119,44.238z
		 M22.119,1.5C10.75,1.5,1.5,10.75,1.5,22.119s9.25,20.619,20.619,20.619s20.619-9.25,20.619-20.619S33.488,1.5,22.119,1.5z"/>
	<path style="stroke:#272425;stroke-width:1.5;stroke-linecap:round;stroke-linejoin:round;stroke-miterlimit:10;" d="M22.35,26.184
		"/>
	<path d="M22.58,32.809c-0.078,0-0.155-0.012-0.23-0.036c-0.254,0.083-0.541,0.026-0.746-0.17
		c-7.438-7.052-6.841-13.064-6.812-13.317c-0.005-4.084,3.388-7.477,7.558-7.477s7.562,3.393,7.562,7.562
		c0.024,0.167,0.622,6.18-6.816,13.231C22.951,32.74,22.766,32.809,22.58,32.809z M22.35,13.309c-3.343,0-6.062,2.72-6.062,6.062
		c-0.01,0.135-0.487,5.495,6.062,11.869c6.55-6.374,6.072-11.732,6.067-11.787C28.412,16.028,25.692,13.309,22.35,13.309z"/>
	<g>
		<circle cx="22.119" cy="19.742" r="1.41"/>
		<path d="M22.119,21.402c-0.915,0-1.66-0.745-1.66-1.66s0.745-1.66,1.66-1.66s1.66,0.745,1.66,1.66S23.034,21.402,22.119,21.402z
			 M22.119,18.582c-0.64,0-1.16,0.521-1.16,1.16s0.521,1.16,1.16,1.16s1.16-0.521,1.16-1.16S22.759,18.582,22.119,18.582z"/>
	</g>
</g>
<g>
</g>
<g>
</g>
<g>
</g>
<g>
</g>
<g>
</g>
<g>
</g>
<g>
</g>
<g>
</g>
<g>
</g>
<g>
</g>
<g>
</g>
<g>
</g>
<g>
</g>
<g>
</g>
<g>
</g>
</svg>
