<?xml version="1.0" encoding="iso-8859-1"?>
<!-- Generator: Adobe Illustrator 18.0.0, SVG Export Plug-In . SVG Version: 6.00 Build 0)  -->
<!DOCTYPE svg PUBLIC "-//W3C//DTD SVG 1.1//EN" "http://www.w3.org/Graphics/SVG/1.1/DTD/svg11.dtd">
<svg version="1.1" id="Capa_1" xmlns="http://www.w3.org/2000/svg" xmlns:xlink="http://www.w3.org/1999/xlink" x="0px" y="0px"
	 viewBox="0 0 474.435 474.435" style="enable-background:new 0 0 474.435 474.435;" xml:space="preserve">
<path d="M453.156,413.226l-99.862-108.305l83.689-0.304c1.189-0.004,2.264-0.711,2.739-1.801c0.475-1.09,0.262-2.358-0.544-3.233
	L335.606,187.254l67.022-0.243c1.189-0.004,2.264-0.711,2.739-1.801c0.475-1.09,0.262-2.358-0.544-3.233L237.923,0.966
	C237.355,0.35,236.555,0,235.717,0c-0.003,0-0.007,0-0.011,0c-0.842,0.003-1.644,0.359-2.209,0.982L67.916,183.201
	c-0.8,0.88-1.004,2.15-0.521,3.236c0.482,1.083,1.556,1.781,2.741,1.781c0.003,0,0.007,0,0.011,0l67.022-0.243L34.415,301.053
	c-0.8,0.88-1.004,2.15-0.521,3.236c0.482,1.083,1.556,1.781,2.741,1.781c0.003,0,0.007,0,0.011,0l83.69-0.304L21.263,414.794
	c-0.711,0.782-0.958,1.881-0.649,2.893c0.309,1.011,1.126,1.786,2.153,2.038c52.899,13.016,106.913,21.035,161.191,24.095v23.056
	c0,1.436,1.018,2.671,2.428,2.945c15.529,3.019,33.106,4.614,50.832,4.614c17.725,0,35.302-1.595,50.831-4.614
	c1.41-0.274,2.428-1.509,2.428-2.945v-23.424c54.322-3.447,108.35-11.87,161.212-25.285c1.025-0.26,1.837-1.04,2.138-2.054
	C454.128,415.101,453.873,414.003,453.156,413.226z M65.573,374.954c9.008-1.219,17.532-4.813,24.711-10.443
	c7.936-6.215,17.846-9.638,27.905-9.638c10.066,0,19.98,3.423,27.916,9.638c8.986,7.038,20.21,10.914,31.604,10.914
	c11.395,0,22.619-3.876,31.605-10.914c7.936-6.215,17.846-9.638,27.905-9.638s19.969,3.423,27.905,9.638
	c8.986,7.038,20.21,10.914,31.604,10.914c11.394,0,22.618-3.876,31.604-10.914c7.936-6.215,17.846-9.638,27.905-9.638
	s19.97,3.423,27.905,9.638c7.453,5.837,16.304,9.468,25.665,10.555l22.185,24.06c-5.162,1.987-10.701,3.042-16.245,3.042
	c-10.059,0-19.969-3.423-27.905-9.638c-8.986-7.038-20.21-10.914-31.604-10.914c-11.394,0-22.618,3.876-31.604,10.914
	c-7.936,6.215-17.847,9.638-27.905,9.638c-10.06,0-19.97-3.423-27.905-9.638c-8.986-7.038-20.21-10.914-31.604-10.914
	c-11.395,0-22.619,3.876-31.604,10.914c-7.936,6.215-17.847,9.638-27.906,9.638s-19.969-3.423-27.905-9.638
	c-8.986-7.038-20.214-10.914-31.615-10.914c-11.394,0-22.618,3.876-31.606,10.915c-12.422,9.742-28.664,12.24-43.27,6.919
	L65.573,374.954z M105.575,231.666c4.081-1.197,8.319-1.81,12.615-1.81c10.066,0,19.98,3.422,27.916,9.637
	c8.987,7.038,20.211,10.914,31.604,10.914c11.394,0,22.618-3.876,31.605-10.914c7.936-6.215,17.846-9.637,27.905-9.637
	c10.059,0,19.97,3.422,27.905,9.637c8.986,7.038,20.21,10.914,31.604,10.914c11.394,0,22.618-3.876,31.604-10.914
	c7.936-6.215,17.846-9.637,27.905-9.637c4.074,0,8.1,0.551,11.984,1.625l41.774,45.306c-8.04-1.04-15.746-4.237-22.152-9.262
	c-8.974-7.039-20.198-10.916-31.606-10.916c-11.408,0-22.632,3.876-31.606,10.916c-7.922,6.214-17.832,9.636-27.903,9.636
	c-10.072,0-19.982-3.422-27.903-9.636c-8.974-7.039-20.199-10.916-31.606-10.916c-11.408,0-22.633,3.876-31.606,10.916
	c-7.922,6.214-17.832,9.636-27.904,9.636s-19.981-3.422-27.903-9.636c-8.974-7.039-20.202-10.916-31.617-10.916
	c-11.408,0-22.632,3.876-31.607,10.916c-6.372,5.001-13.994,8.167-21.977,9.226L105.575,231.666z M339.314,119.781
	c-5.286,1.84-10.21,4.524-14.679,8.031c-7.936,6.215-17.846,9.638-27.905,9.638s-19.97-3.423-27.905-9.638
	c-8.986-7.038-20.21-10.914-31.604-10.914c-11.395,0-22.619,3.876-31.604,10.914c-7.936,6.215-17.847,9.638-27.906,9.638
	s-19.969-3.423-27.904-9.637c-4.794-3.759-10.1-6.566-15.814-8.405l15.583-17.149c8.367,5.523,18.034,8.437,28.135,8.437
	c11.408,0,22.633-3.876,31.607-10.915c7.922-6.214,17.832-9.636,27.903-9.636c10.071,0,19.981,3.422,27.903,9.636
	c8.973,7.039,20.198,10.915,31.606,10.915c9.643,0,18.942-2.676,27.062-7.748L339.314,119.781z M235.734,7.443l83.916,91.011
	c-6.934,4.093-14.789,6.241-22.919,6.241c-10.072,0-19.982-3.422-27.903-9.636c-8.974-7.039-20.199-10.916-31.606-10.916
	c-11.408,0-22.633,3.876-31.606,10.916c-7.922,6.214-17.832,9.636-27.904,9.636c-8.6,0-16.846-2.391-24.047-6.935L235.734,7.443z
	 M146.713,183.731c-0.482-1.083-1.556-1.781-2.741-1.781c-0.003,0-0.007,0-0.011,0l-67.022,0.243l52.56-57.841
	c6.059,1.552,11.643,4.289,16.608,8.182c8.987,7.038,20.211,10.914,31.604,10.914c11.394,0,22.618-3.876,31.605-10.914
	c7.936-6.215,17.846-9.637,27.905-9.637c10.059,0,19.97,3.422,27.905,9.637c8.986,7.038,20.21,10.914,31.604,10.914
	c11.394,0,22.618-3.876,31.607-10.916c4.647-3.646,9.847-6.284,15.471-7.879l51.986,56.381l-67.022,0.243
	c-1.189,0.004-2.264,0.711-2.739,1.801c-0.475,1.09-0.262,2.358,0.544,3.233l34.863,37.81c-1.722-0.175-3.457-0.268-5.2-0.268
	c-11.394,0-22.618,3.876-31.604,10.914c-7.936,6.215-17.846,9.638-27.905,9.638s-19.97-3.423-27.905-9.638
	c-8.986-7.038-20.21-10.914-31.604-10.914c-11.395,0-22.619,3.876-31.604,10.914c-7.936,6.215-17.847,9.638-27.906,9.638
	s-19.969-3.423-27.905-9.638c-8.986-7.038-20.214-10.914-31.615-10.914c-1.952,0-3.894,0.111-5.819,0.331l33.821-37.219
	C146.991,186.087,147.196,184.818,146.713,183.731z M129.88,301.523c-0.483-1.087-1.607-1.794-2.752-1.781l-83.69,0.304
	l15.359-16.902c11.396-0.018,22.531-3.866,31.49-10.898c7.922-6.214,17.832-9.636,27.903-9.636c10.079,0,19.992,3.422,27.914,9.636
	c8.974,7.039,20.198,10.915,31.606,10.915s22.633-3.876,31.607-10.915c7.922-6.214,17.832-9.636,27.903-9.636
	c10.071,0,19.981,3.422,27.903,9.636c8.973,7.039,20.198,10.915,31.606,10.915c11.408,0,22.633-3.876,31.606-10.915
	c7.922-6.214,17.832-9.636,27.903-9.636c10.072,0,19.981,3.422,27.903,9.636c8.974,7.039,20.198,10.915,31.606,10.915
	c0.041,0,0.082-0.003,0.123-0.003l14.277,15.484l-83.689,0.304c-1.189,0.004-2.264,0.711-2.739,1.801
	c-0.475,1.09-0.262,2.358,0.544,3.233l58.611,63.567c-5.421-1.608-10.517-4.223-15.032-7.758
	c-8.986-7.038-20.21-10.914-31.604-10.914c-11.394,0-22.618,3.876-31.604,10.914c-7.936,6.215-17.846,9.637-27.905,9.637
	c-10.06,0-19.97-3.422-27.905-9.637c-8.987-7.038-20.211-10.914-31.604-10.914c-11.394,0-22.618,3.876-31.604,10.914
	c-7.936,6.215-17.846,9.637-27.906,9.637c-10.059,0-19.97-3.422-27.905-9.637c-8.986-7.038-20.214-10.914-31.615-10.914
	c-11.394,0-22.618,3.876-31.606,10.915c-4.213,3.303-8.951,5.806-13.986,7.435l56.761-62.464
	C130.158,303.879,130.363,302.61,129.88,301.523z M284.476,464.388c-14.553,2.65-30.832,4.047-47.259,4.047
	s-32.707-1.396-47.259-4.047v-20.253c14.699,0.729,29.414,1.115,44.131,1.115c16.804,0,33.608-0.499,50.387-1.45V464.388z
	 M29.102,415.089l9.886-10.88c6.384,2.673,13.089,4.001,19.759,4.001c11.211,0,22.308-3.719,31.537-10.957
	c7.936-6.215,17.846-9.637,27.905-9.637c10.066,0,19.98,3.422,27.916,9.637c8.987,7.038,20.211,10.914,31.604,10.914
	c11.394,0,22.618-3.876,31.605-10.914c7.936-6.215,17.846-9.637,27.905-9.637c10.059,0,19.97,3.422,27.905,9.637
	c8.986,7.038,20.21,10.914,31.604,10.914c11.394,0,22.618-3.876,31.604-10.914c7.936-6.215,17.846-9.637,27.905-9.637
	c10.06,0,19.97,3.422,27.905,9.637c8.987,7.038,20.211,10.914,31.604,10.914c7.066,0,14.13-1.503,20.582-4.338l8.988,9.748
	C309.177,447.285,165.487,447.806,29.102,415.089z"/>
<g>
</g>
<g>
</g>
<g>
</g>
<g>
</g>
<g>
</g>
<g>
</g>
<g>
</g>
<g>
</g>
<g>
</g>
<g>
</g>
<g>
</g>
<g>
</g>
<g>
</g>
<g>
</g>
<g>
</g>
</svg>
