<?xml version="1.0" encoding="iso-8859-1"?>
<!-- Generator: Adobe Illustrator 18.0.0, SVG Export Plug-In . SVG Version: 6.00 Build 0)  -->
<!DOCTYPE svg PUBLIC "-//W3C//DTD SVG 1.1//EN" "http://www.w3.org/Graphics/SVG/1.1/DTD/svg11.dtd">
<svg version="1.1" id="Capa_1" xmlns="http://www.w3.org/2000/svg" xmlns:xlink="http://www.w3.org/1999/xlink" x="0px" y="0px"
	 viewBox="0 0 476.529 476.529" style="enable-background:new 0 0 476.529 476.529;" xml:space="preserve">
<g>
	<path d="M375.878,451.448c-16.687-39.508-35.768-78.871-56.749-117.078c9.866,0.673,19.797,1.482,29.647,2.402v2.842
		c-6.482,1.656-11.296,7.527-11.296,14.518c0,8.271,6.729,15,15,15s15-6.729,15-15c0-7.489-5.521-13.695-12.704-14.805v-2.43
		c0.47-0.224,0.886-0.566,1.189-1.012c0.617-0.907,0.689-2.078,0.189-3.055c-19.241-37.562-40.698-74.875-63.816-110.985
		c10.585,0.441,21.26,1.017,31.81,1.716c1.107,0.083,2.182-0.479,2.762-1.436c0.581-0.956,0.582-2.156,0.002-3.113
		c-15.592-25.719-32.315-51.359-49.763-76.295c8.582,0.243,17.192,0.592,25.763,0.995v4.716c-4.332,1.294-7.5,5.311-7.5,10.058
		c0,5.79,4.71,10.5,10.5,10.5s10.5-4.71,10.5-10.5c0-4.747-3.168-8.763-7.5-10.058v-4.438c0.54,0.028,1.087,0.047,1.626,0.076
		c1.125,0.062,2.201-0.524,2.763-1.51c0.563-0.984,0.521-2.202-0.106-3.146c-21.548-32.437-44.865-64.555-69.33-95.561l6.565,3.856
		c1.028,0.604,2.316,0.541,3.283-0.16c0.965-0.701,1.423-1.907,1.166-3.072l-3.036-13.778l10.555-9.362
		c0.893-0.791,1.231-2.036,0.863-3.171c-0.369-1.135-1.375-1.943-2.563-2.059l-14.042-1.37l-5.642-12.932
		C240.537,0.707,239.458,0,238.265,0s-2.272,0.707-2.75,1.801l-5.642,12.932l-14.042,1.37c-1.188,0.115-2.193,0.924-2.563,2.059
		c-0.368,1.135-0.029,2.38,0.863,3.171l10.555,9.362l-3.037,13.778c-0.257,1.165,0.201,2.371,1.166,3.072
		c0.524,0.381,1.143,0.573,1.764,0.573c0.523,0,1.049-0.137,1.52-0.413l6.566-3.857c-24.466,31.006-47.783,63.124-69.33,95.562
		c-0.627,0.944-0.669,2.162-0.106,3.146c0.562,0.985,1.644,1.571,2.763,1.51c11.059-0.581,22.263-1.033,33.389-1.349
		c-17.447,24.936-34.171,50.576-49.763,76.295c-0.58,0.957-0.579,2.157,0.002,3.113c0.312,0.514,0.768,0.909,1.293,1.157v6.126
		c-5.853,1.186-10.273,6.37-10.273,12.567c0,7.07,5.752,12.823,12.822,12.823s12.823-5.753,12.823-12.823
		c0-5.873-3.975-10.825-9.372-12.338v-6.348c9.073-0.569,18.202-1.065,27.278-1.444c-23.118,36.11-44.575,73.424-63.816,110.985
		c-0.5,0.977-0.428,2.147,0.189,3.055s1.692,1.4,2.771,1.3c11.27-1.096,22.703-2.04,34.066-2.815
		c-20.981,38.207-40.062,77.57-56.749,117.078c-0.331,0.783-0.313,1.669,0.047,2.439c0.36,0.77,1.03,1.351,1.844,1.598
		c46.126,14.029,92.019,21.044,137.366,21.044c45.358,0,90.173-7.02,134.119-21.057c0.803-0.256,1.461-0.839,1.813-1.604
		C376.192,453.103,376.206,452.225,375.878,451.448z M310.412,158.486c0,2.481-2.019,4.5-4.5,4.5s-4.5-2.019-4.5-4.5
		s2.019-4.5,4.5-4.5S310.412,156.005,310.412,158.486z M361.48,354.133c0,4.963-4.037,9-9,9s-9-4.037-9-9s4.037-9,9-9
		S361.48,349.17,361.48,354.133z M229.985,27.375l-6.729-5.969l8.952-0.874c1.083-0.105,2.023-0.789,2.459-1.786l3.597-8.244
		l3.597,8.244c0.436,0.997,1.376,1.681,2.459,1.786l8.952,0.874l-6.729,5.969c-0.814,0.722-1.174,1.827-0.939,2.89l1.936,8.784
		l-7.756-4.556c-0.938-0.551-2.102-0.551-3.039,0l-7.757,4.556l1.937-8.784C231.159,29.202,230.8,28.097,229.985,27.375z
		 M207.911,138.151c-0.533-0.999-1.599-1.619-2.719-1.587c-11.14,0.267-22.399,0.673-33.552,1.21
		c20.793-31.015,43.179-61.713,66.624-91.364c23.444,29.651,45.829,60.35,66.624,91.364c-11.152-0.537-22.411-0.943-33.552-1.21
		c-1.143-0.036-2.186,0.588-2.719,1.587c-0.533,1.001-0.457,2.217,0.197,3.143c14.083,19.946,27.705,40.379,40.673,60.963
		c-41.986,2.876-71.308-8.077-88.721-18.005c-15.412-8.788-24.384-18.28-27.558-21.995c4.777-7.035,9.61-14.031,14.505-20.963
		C208.368,140.368,208.444,139.152,207.911,138.151z M160.284,241.976c0,3.763-3.061,6.823-6.823,6.823
		c-3.762,0-6.822-3.061-6.822-6.823s3.061-6.823,6.822-6.823C157.224,235.152,160.284,238.213,160.284,241.976z M192.439,217.138
		c-0.553-0.972-1.604-1.532-2.719-1.515c-10.603,0.395-21.333,0.926-31.978,1.583c10.227-16.708,20.932-33.363,31.985-49.799
		c4.134,4.628,13.139,13.492,27.763,21.883c16.187,9.286,42.198,19.441,78.528,19.441c5.455,0,11.154-0.243,17.074-0.738
		c1.912,3.069,3.811,6.14,5.692,9.213c-10.645-0.657-21.375-1.188-31.978-1.583c-1.112-0.02-2.166,0.543-2.719,1.515
		c-0.554,0.973-0.52,2.172,0.088,3.111c17.467,27.027,34.003,54.756,49.379,82.782c-39.676,4.534-93.631,5.104-134.075-15.701
		c-20.549-10.571-29.621-22.692-32.218-26.707c8.12-13.595,16.49-27.071,25.088-40.374
		C192.959,219.31,192.993,218.11,192.439,217.138z M165.214,329.412c-0.585-0.926-1.615-1.451-2.726-1.391
		c-11.392,0.725-22.892,1.622-34.266,2.673c11.191-21.617,23.132-43.127,35.676-64.367c4.27,5.815,13.906,16.484,32.287,26.053
		c28.142,14.649,62.479,19.215,94.348,19.215c16.423,0,32.169-1.218,46.094-2.889c3.967,7.315,7.877,14.643,11.679,21.988
		c-11.396-1.053-22.896-1.95-34.266-2.673c-1.105-0.065-2.14,0.464-2.726,1.391c-0.587,0.927-0.62,2.1-0.088,3.059
		c16.237,29.27,31.356,59.25,45.138,89.476c-69.207,3.533-120.158-15.845-150.916-32.943
		c-28.714-15.962-45.574-32.889-50.261-37.929c3.322-6.229,6.689-12.434,10.112-18.604
		C165.834,331.512,165.801,330.339,165.214,329.412z M107.483,450.706c13.46-31.627,28.459-63.14,44.732-94.023
		c6.351,6.615,22.895,22.278,50.06,37.42c28.962,16.144,75.376,34.278,137.71,34.278c6.187,0,12.542-0.189,19.04-0.566
		c3.433,7.633,6.781,15.279,10.038,22.932C284.35,477.128,196.369,477.112,107.483,450.706z"/>
	<path d="M189.545,259.44c-0.368,1.134-0.029,2.38,0.863,3.171l9.146,8.112l-2.632,11.938c-0.257,1.165,0.201,2.371,1.166,3.072
		c0.524,0.381,1.143,0.573,1.764,0.573c0.523,0,1.049-0.137,1.52-0.413l10.541-6.191l10.541,6.191
		c1.028,0.604,2.316,0.541,3.283-0.16c0.965-0.701,1.423-1.907,1.166-3.072l-2.631-11.938l9.146-8.112
		c0.892-0.792,1.23-2.037,0.862-3.171c-0.369-1.135-1.375-1.943-2.563-2.059l-12.166-1.187l-4.889-11.206
		c-0.478-1.093-1.557-1.8-2.75-1.8s-2.272,0.707-2.75,1.8l-4.889,11.206l-12.166,1.187
		C190.92,257.497,189.914,258.306,189.545,259.44z M206.609,261.995c1.083-0.105,2.023-0.788,2.459-1.785l2.844-6.519l2.844,6.519
		c0.436,0.997,1.376,1.68,2.459,1.785l7.076,0.69l-5.319,4.719c-0.813,0.722-1.173,1.827-0.938,2.89l1.53,6.944l-6.132-3.602
		c-0.469-0.275-0.994-0.413-1.52-0.413s-1.051,0.138-1.52,0.413l-6.131,3.602l1.53-6.944c0.234-1.063-0.125-2.168-0.939-2.89
		l-5.319-4.719L206.609,261.995z"/>
	<path d="M251.5,118.453l-1.648,7.479c-0.257,1.165,0.201,2.371,1.166,3.072c0.967,0.702,2.255,0.765,3.283,0.16l6.603-3.879
		l6.604,3.879c0.471,0.276,0.996,0.413,1.52,0.413c0.621,0,1.239-0.192,1.764-0.573c0.965-0.701,1.423-1.907,1.166-3.072
		l-1.648-7.479l5.729-5.081c0.893-0.791,1.231-2.036,0.863-3.171c-0.369-1.135-1.375-1.943-2.563-2.059l-7.622-0.744l-3.063-7.02
		c-0.478-1.093-1.558-1.8-2.75-1.8c-1.193,0-2.272,0.707-2.75,1.801l-3.062,7.019l-7.622,0.744
		c-1.188,0.115-2.193,0.924-2.563,2.059c-0.368,1.135-0.029,2.38,0.863,3.171L251.5,118.453z M257.428,113.198
		c1.083-0.105,2.023-0.789,2.459-1.786l1.017-2.331l1.018,2.332c0.436,0.997,1.376,1.68,2.459,1.785l2.531,0.248l-1.902,1.688
		c-0.814,0.722-1.174,1.827-0.939,2.89l0.548,2.485l-2.194-1.289c-0.469-0.275-0.994-0.413-1.52-0.413s-1.051,0.138-1.52,0.413
		l-2.193,1.288l0.548-2.484c0.234-1.063-0.125-2.168-0.939-2.89l-1.902-1.688L257.428,113.198z"/>
	<path d="M291.691,391.004l-2.918,13.239c-0.257,1.165,0.201,2.371,1.166,3.072c0.967,0.702,2.255,0.766,3.283,0.16l11.689-6.866
		l11.689,6.866c0.471,0.276,0.996,0.413,1.52,0.413c0.621,0,1.239-0.192,1.764-0.573c0.965-0.701,1.423-1.907,1.166-3.072
		l-2.918-13.239l10.143-8.996c0.892-0.791,1.23-2.037,0.862-3.171c-0.369-1.135-1.375-1.943-2.563-2.059l-13.492-1.316
		l-5.421-12.426c-0.478-1.094-1.557-1.801-2.75-1.801s-2.272,0.707-2.75,1.801l-5.421,12.426l-13.492,1.316
		c-1.188,0.115-2.193,0.924-2.563,2.059c-0.368,1.134-0.029,2.38,0.862,3.171L291.691,391.004z M299.077,381.262
		c1.083-0.105,2.023-0.789,2.459-1.786l3.376-7.738l3.376,7.738c0.436,0.997,1.376,1.681,2.459,1.786l8.402,0.82l-6.316,5.603
		c-0.813,0.722-1.173,1.827-0.938,2.89l1.817,8.245l-7.28-4.276c-0.469-0.275-0.994-0.413-1.52-0.413s-1.051,0.138-1.52,0.413
		l-7.28,4.276l1.817-8.245c0.234-1.063-0.125-2.168-0.938-2.89l-6.316-5.603L299.077,381.262z"/>
	<path d="M232.812,427.596l-10.073-0.983l-4.047-9.276c-0.478-1.094-1.557-1.801-2.75-1.801s-2.272,0.707-2.75,1.801l-4.047,9.276
		l-10.072,0.983c-1.188,0.115-2.193,0.924-2.563,2.059c-0.368,1.135-0.029,2.38,0.863,3.171l7.571,6.716l-2.179,9.884
		c-0.257,1.165,0.201,2.371,1.166,3.072c0.967,0.703,2.255,0.765,3.283,0.16l8.727-5.126l8.727,5.126
		c0.471,0.276,0.996,0.413,1.52,0.413c0.621,0,1.239-0.192,1.764-0.573c0.965-0.701,1.423-1.907,1.166-3.072l-2.178-9.884
		l7.571-6.716c0.893-0.791,1.231-2.036,0.863-3.171C235.006,428.52,234,427.711,232.812,427.596z M221.642,436.222
		c-0.814,0.722-1.174,1.827-0.939,2.89l1.077,4.89l-4.317-2.536c-0.469-0.275-0.994-0.413-1.52-0.413s-1.051,0.138-1.52,0.413
		l-4.316,2.536l1.077-4.89c0.234-1.063-0.125-2.168-0.939-2.89l-3.745-3.322l4.982-0.487c1.083-0.105,2.023-0.789,2.459-1.786
		l2.002-4.589l2.002,4.589c0.436,0.997,1.376,1.681,2.459,1.786l4.983,0.487L221.642,436.222z"/>
	<path d="M218.912,122.708c8.271,0,15-6.729,15-15s-6.729-15-15-15s-15,6.729-15,15S210.641,122.708,218.912,122.708z
		 M218.912,98.708c4.963,0,9,4.037,9,9s-4.037,9-9,9s-9-4.037-9-9S213.949,98.708,218.912,98.708z"/>
	<path d="M255.768,170.902c-6.065,0-11,4.935-11,11s4.935,11,11,11s11-4.935,11-11S261.834,170.902,255.768,170.902z
		 M255.768,186.902c-2.757,0-5-2.243-5-5s2.243-5,5-5s5,2.243,5,5S258.525,186.902,255.768,186.902z"/>
	<path d="M172.615,310.977c0-6.065-4.935-11-11-11s-11,4.935-11,11s4.935,11,11,11S172.615,317.042,172.615,310.977z
		 M161.615,315.977c-2.757,0-5-2.243-5-5s2.243-5,5-5s5,2.243,5,5S164.372,315.977,161.615,315.977z"/>
	<path d="M280.615,282.977c6.065,0,11-4.935,11-11s-4.935-11-11-11s-11,4.935-11,11S274.55,282.977,280.615,282.977z
		 M280.615,266.977c2.757,0,5,2.243,5,5s-2.243,5-5,5s-5-2.243-5-5S277.858,266.977,280.615,266.977z"/>
	<path d="M262.912,342.708c8.271,0,15-6.729,15-15s-6.729-15-15-15s-15,6.729-15,15S254.641,342.708,262.912,342.708z
		 M262.912,318.708c4.963,0,9,4.037,9,9s-4.037,9-9,9s-9-4.037-9-9S257.949,318.708,262.912,318.708z"/>
	<path d="M173.574,395.171c-8.271,0-15,6.729-15,15s6.729,15,15,15s15-6.729,15-15S181.846,395.171,173.574,395.171z
		 M173.574,419.171c-4.963,0-9-4.037-9-9s4.037-9,9-9s9,4.037,9,9S178.537,419.171,173.574,419.171z"/>
</g>
<g>
</g>
<g>
</g>
<g>
</g>
<g>
</g>
<g>
</g>
<g>
</g>
<g>
</g>
<g>
</g>
<g>
</g>
<g>
</g>
<g>
</g>
<g>
</g>
<g>
</g>
<g>
</g>
<g>
</g>
</svg>
