<?xml version="1.0" encoding="iso-8859-1"?>
<!-- Generator: Adobe Illustrator 18.0.0, SVG Export Plug-In . SVG Version: 6.00 Build 0)  -->
<!DOCTYPE svg PUBLIC "-//W3C//DTD SVG 1.1//EN" "http://www.w3.org/Graphics/SVG/1.1/DTD/svg11.dtd">
<svg version="1.1" id="Capa_1" xmlns="http://www.w3.org/2000/svg" xmlns:xlink="http://www.w3.org/1999/xlink" x="0px" y="0px"
	 viewBox="0 0 472.812 472.812" style="enable-background:new 0 0 472.812 472.812;" xml:space="preserve">
<path d="M384.668,437.09c-34.892-35.628-61.95-73.884-84.881-120.069h33.986c1.034,0,1.995-0.532,2.543-1.408
	s0.607-1.973,0.155-2.903c-14.987-30.85-26.815-62.276-38.253-92.668c-2.86-7.6-5.803-15.42-8.778-23.183h29.305
	c0.989,0,1.915-0.487,2.474-1.303c0.56-0.815,0.681-1.854,0.325-2.777c-9.321-24.162-20.803-52.497-35.754-81.035h28.256
	c1.055,0,2.033-0.554,2.574-1.459c0.542-0.905,0.568-2.029,0.069-2.958c-21.253-39.624-46.813-74.436-78.14-106.425
	c-0.787-0.803-1.958-1.101-3.032-0.766c-1.074,0.333-1.872,1.239-2.066,2.347c-5.506,31.4-19.918,65.643-44.059,104.684
	c-0.572,0.925-0.599,2.088-0.069,3.038c0.53,0.951,1.533,1.54,2.621,1.54h27.831c-17.826,28.233-38.878,56.318-57.308,80.286
	c-0.696,0.906-0.818,2.129-0.313,3.154c0.505,1.025,1.549,1.674,2.691,1.674h27.573c-5.792,7.502-11.67,15.054-17.388,22.4
	c-23.736,30.497-48.281,62.031-69.058,93.094c-0.616,0.92-0.674,2.105-0.152,3.082c0.521,0.977,1.539,1.586,2.646,1.586h33.212
	c-30.692,46.687-47.998,85.455-54.345,121.65c-0.153,0.873,0.088,1.769,0.658,2.448c0.57,0.678,1.411,1.07,2.297,1.07h121.299
	v27.623c0,1.657,1.343,3,3,3h43.639c1.657,0,3-1.343,3-3v-27.623h121.299c1.208,0,2.298-0.724,2.766-1.837
	S385.513,437.953,384.668,437.09z M255.226,466.812h-37.639v-24.623h37.639V466.812z M93.894,436.189
	c6.921-35.559,24.745-73.972,55.867-120.5c0.616-0.92,0.674-2.105,0.152-3.082c-0.521-0.977-1.539-1.586-2.646-1.586h-33.16
	c19.971-29.378,43.178-59.195,65.658-88.076c6.953-8.933,14.142-18.169,21.13-27.257c0.696-0.906,0.818-2.129,0.313-3.154
	c-0.505-1.025-1.548-1.674-2.691-1.674h-27.588c18.613-24.314,39.428-52.426,56.81-80.537c0.572-0.925,0.599-2.088,0.069-3.038
	c-0.53-0.951-1.533-1.54-2.621-1.54h-27.892c21.466-35.498,34.919-67.178,40.973-96.505c27.957,29.235,51.164,60.898,70.735,96.505
	h-28.2c-1.055,0-2.033,0.554-2.574,1.459c-0.542,0.905-0.568,2.029-0.069,2.958c15.096,28.144,26.747,56.358,36.206,80.696h-29.293
	c-0.989,0-1.915,0.487-2.474,1.303c-0.56,0.815-0.681,1.854-0.325,2.777c3.498,9.069,6.971,18.295,10.329,27.217
	c10.956,29.109,22.268,59.166,36.399,88.865h-34.03c-1.034,0-1.995,0.532-2.543,1.408c-0.548,0.876-0.607,1.973-0.155,2.903
	c22.594,46.507,49.13,85.088,83.184,120.857H93.894z"/>
<g>
</g>
<g>
</g>
<g>
</g>
<g>
</g>
<g>
</g>
<g>
</g>
<g>
</g>
<g>
</g>
<g>
</g>
<g>
</g>
<g>
</g>
<g>
</g>
<g>
</g>
<g>
</g>
<g>
</g>
</svg>
