<?xml version="1.0" encoding="iso-8859-1"?>
<!-- Generator: Adobe Illustrator 18.0.0, SVG Export Plug-In . SVG Version: 6.00 Build 0)  -->
<!DOCTYPE svg PUBLIC "-//W3C//DTD SVG 1.1//EN" "http://www.w3.org/Graphics/SVG/1.1/DTD/svg11.dtd">
<svg version="1.1" id="Capa_1" xmlns="http://www.w3.org/2000/svg" xmlns:xlink="http://www.w3.org/1999/xlink" x="0px" y="0px"
	 viewBox="0 0 468.361 468.361" style="enable-background:new 0 0 468.361 468.361;" xml:space="preserve">
<g>
	<path d="M237.368,196.696c-1.34-0.974-3.216-0.679-4.191,0.662c-8.635,11.873-21.799,18.69-39.201,20.327
		c14.709-15.536,21.245-42.696,21.553-44.005c0.379-1.612-0.62-3.227-2.232-3.606c-1.61-0.38-3.228,0.619-3.608,2.231
		c-0.081,0.344-8.321,34.539-25.919,46.271c-1.1,0.733-1.59,2.1-1.207,3.365c0.383,1.266,1.549,2.131,2.871,2.131
		c23.711,0,41.407-7.8,52.596-23.185C239.004,199.547,238.708,197.671,237.368,196.696z"/>
	<path d="M306.726,294.611c1.329-0.07,2.453-1.008,2.761-2.303c0.308-1.295-0.275-2.638-1.431-3.298
		c-17.851-10.2-22.438-32.684-22.494-32.97c-0.313-1.626-1.893-2.694-3.512-2.376c-1.627,0.313-2.692,1.885-2.379,3.512
		c0.17,0.886,3.796,18.945,17.619,31.395c-13.851-0.942-24.255-5.944-28.613-14.038c-0.786-1.459-2.606-2.003-4.064-1.219
		c-1.458,0.786-2.004,2.605-1.219,4.064c2.299,4.269,5.875,7.826,10.46,10.594c-0.045,1.667,0.009,4.155,0.514,6.615
		c-13.066-2.795-19.327-16.896-19.396-17.054c-0.653-1.52-2.415-2.221-3.937-1.57c-1.523,0.652-2.229,2.416-1.576,3.939
		c0.37,0.864,9.302,21.164,29.472,21.164c1.136,0,2.175-0.642,2.683-1.658s0.399-2.232-0.283-3.142
		c-0.821-1.094-1.249-3.198-1.412-5.33c6.308,2.47,13.873,3.797,22.328,3.797C303.716,294.73,305.209,294.69,306.726,294.611z"/>
	<path d="M205.524,368.195c-1.326-0.994-3.206-0.726-4.2,0.6c-5.419,7.225-11.028,13.479-21.592,17.623
		c-0.092,0.031-0.182,0.064-0.27,0.104c-6.041,2.331-13.684,3.983-23.819,4.738c21.291-23.491,26.693-42.011,26.929-42.845
		c0.449-1.593-0.478-3.246-2.069-3.697c-1.59-0.451-3.249,0.474-3.705,2.064c-0.059,0.206-6.177,20.918-30.609,45.75
		c-0.859,0.873-1.101,2.181-0.611,3.304c0.478,1.096,1.559,1.8,2.749,1.8c0.029,0,0.059,0,0.089-0.001
		c9.446-0.278,17.189-1.218,23.664-2.679c-4.245,4.417-10.379,9.569-17.394,11.673c-1.289,0.387-2.163,1.584-2.138,2.93
		s0.944,2.51,2.247,2.847c6.315,1.638,12.303,2.349,17.81,2.349c12.781,0,22.953-3.836,28.501-8.829
		c1.231-1.108,1.332-3.005,0.223-4.237c-1.109-1.232-3.006-1.332-4.237-0.223c-5.45,4.905-17.188,8.579-31.813,6.835
		c9.056-5.598,15.477-13.97,17.357-16.591c11.492-4.664,17.714-11.615,23.488-19.314C207.118,371.07,206.85,369.189,205.524,368.195
		z"/>
	<path d="M249.913,138.125c0.077,0.006,0.154,0.009,0.231,0.009c1.132,0,2.178-0.641,2.687-1.667
		c0.543-1.096,0.367-2.412-0.445-3.326c-7.666-8.624-9.745-16.356-9.786-16.511c-0.405-1.603-2.036-2.575-3.636-2.175
		c-1.607,0.402-2.585,2.031-2.183,3.638c0.072,0.289,1.472,5.713,6.232,12.754c-3.853-0.998-8.089-2.633-10.607-5.15
		c-1.171-1.172-3.071-1.172-4.242,0c-1.172,1.171-1.172,3.071,0,4.242C235.139,136.915,249.313,138.079,249.913,138.125z"/>
	<path d="M400.339,420.856c-0.274-0.816-0.886-1.476-1.68-1.81c-21.048-8.862-40.79-38.222-47.96-49.817
		c11.433,0.478,36.803,0.711,46.974-5.87c0.831-0.538,1.343-1.45,1.369-2.439s-0.437-1.928-1.238-2.508
		c-22.528-16.333-45.324-38.671-54-47.434c7.708-1.912,22.875-5.829,37.189-10.43c1.218-0.391,2.053-1.512,2.082-2.791
		c0.028-1.278-0.758-2.435-1.958-2.878c-13.711-5.079-37.34-21.033-49.541-29.601c5.502-0.438,13.478-1.667,24.588-4.607
		c1.362-0.36,2.29-1.62,2.229-3.028c-0.06-1.408-1.092-2.584-2.48-2.827c-22.282-3.899-46.561-31.883-55.13-42.579
		c5.223-0.556,14.33-1.421,27.23-2.282c1.449-0.097,2.622-1.218,2.782-2.662c0.161-1.444-0.736-2.795-2.129-3.208
		c-14.375-4.259-32.307-28.142-39.454-38.372c3.885-0.354,9.106-1.534,14.135-4.887c1.01-0.673,1.515-1.888,1.279-3.078
		c-0.235-1.19-1.165-2.122-2.354-2.36c-10.247-2.049-19.175-9.778-24.585-15.501c6.695,1.142,16.073,2.067,23.922,0.323
		c1.201-0.267,2.117-1.24,2.312-2.455s-0.373-2.425-1.431-3.053c-17.193-10.208-35.502-30.965-43.251-40.278
		c6.667-0.243,17.101-0.938,23.07-2.927c1.131-0.377,1.932-1.389,2.039-2.577c0.107-1.188-0.5-2.327-1.545-2.9
		c-16.923-9.28-32.072-35.986-37.735-46.896c3.117,0.079,7.141-0.149,11.025-1.313c1.084-0.325,1.893-1.233,2.091-2.348
		s-0.248-2.246-1.154-2.925c-6.663-4.998-16.805-23.962-20.151-30.848C236.377,0.656,235.329,0,234.181,0
		c-1.149,0-2.197,0.656-2.699,1.689C228.138,8.574,218,27.536,211.331,32.537c-0.906,0.679-1.352,1.811-1.154,2.925
		s1.007,2.023,2.091,2.348c3.884,1.165,7.905,1.394,11.025,1.313c-5.663,10.909-20.812,37.615-37.735,46.896
		c-1.046,0.573-1.653,1.712-1.545,2.9c0.107,1.188,0.908,2.199,2.039,2.577c5.97,1.99,16.403,2.685,23.07,2.927
		c-7.749,9.313-26.058,30.07-43.251,40.278c-1.058,0.628-1.625,1.838-1.431,3.053s1.111,2.188,2.312,2.455
		c7.855,1.745,17.239,0.817,23.936-0.325c-5.4,5.722-14.322,13.449-24.599,15.504c-1.19,0.238-2.119,1.169-2.354,2.36
		c-0.235,1.19,0.269,2.405,1.279,3.078c5.03,3.353,10.251,4.533,14.137,4.887c-7.144,10.229-25.068,34.109-39.455,38.372
		c-1.393,0.413-2.29,1.764-2.129,3.208c0.16,1.444,1.333,2.565,2.782,2.662c12.903,0.86,22.01,1.727,27.232,2.282
		c-8.564,10.695-32.829,38.676-55.132,42.579c-1.388,0.243-2.42,1.419-2.48,2.827c-0.061,1.408,0.867,2.668,2.229,3.028
		c11.111,2.941,19.086,4.169,24.588,4.608c-12.199,8.567-35.826,24.521-49.542,29.601c-1.199,0.444-1.985,1.6-1.958,2.878
		c0.028,1.279,0.864,2.399,2.082,2.791c14.314,4.601,29.482,8.518,37.19,10.43c-8.675,8.762-31.464,31.094-54.001,47.434
		c-0.801,0.581-1.264,1.519-1.238,2.508c0.026,0.989,0.539,1.901,1.369,2.439c10.172,6.582,35.543,6.349,46.974,5.87
		c-7.17,11.596-26.912,40.955-47.96,49.817c-0.794,0.334-1.406,0.994-1.68,1.81c-0.274,0.817-0.184,1.712,0.248,2.458
		c3.377,5.834,13.111,11.099,26.707,14.446c16.754,4.123,41.276,5.524,59.861-2.525c-6.759,18.267-12.041,22.345-12.282,22.522
		c-1.129,0.725-1.643,2.117-1.246,3.407c0.406,1.319,1.66,2.192,3.037,2.113c1.433-0.081,31.853-1.897,51.045-10.268
		c-2.403,6.019-6.207,10.283-6.255,10.335c-0.878,0.966-1.031,2.388-0.378,3.518c0.543,0.941,1.542,1.5,2.598,1.5
		c0.211,0,0.425-0.022,0.638-0.068c0.445-0.097,11.029-2.418,22.097-6.568c12.955-4.858,27.225-4.858,40.18,0
		c11.068,4.15,21.652,6.472,22.097,6.568c1.273,0.274,2.578-0.301,3.231-1.429c0.653-1.127,0.503-2.55-0.371-3.517
		c-0.05-0.056-3.855-4.321-6.258-10.339c19.193,8.371,49.612,10.187,51.045,10.268c1.366,0.089,2.631-0.793,3.037-2.113
		c0.397-1.29-0.117-2.682-1.246-3.407c-0.241-0.177-5.523-4.255-12.282-22.522c18.585,8.051,43.106,6.649,59.861,2.525
		c13.595-3.347,23.329-8.612,26.707-14.446C400.523,422.568,400.613,421.673,400.339,420.856z M371.95,431.933
		c-19.132,4.71-45.682,4.885-61.983-5.307c-0.931-0.582-2.108-0.738-3.089-0.244c-1.357,0.684-1.966,2.225-1.516,3.612
		c4.484,13.826,8.665,21.961,11.799,26.683c-11.766-1.192-35.028-4.408-47.185-11.949c-0.711-0.441-1.563-0.639-2.374-0.436
		c-1.569,0.393-2.489,1.862-2.277,3.347c0.709,4.969,2.657,9.42,4.604,12.833c-3.83-1.063-8.673-2.537-13.552-4.367
		c-7.157-2.684-14.677-4.025-22.196-4.025c-7.52,0-15.04,1.342-22.197,4.025c-4.874,1.828-9.719,3.302-13.551,4.366
		c1.929-3.385,3.861-7.79,4.585-12.707c0.135-0.918-0.103-1.888-0.733-2.571c-1.011-1.097-2.607-1.273-3.809-0.523
		c-12.123,7.576-35.478,10.808-47.276,12.004c3.122-4.705,7.284-12.798,11.749-26.532c0.339-1.042,0.181-2.232-0.546-3.052
		c-1.001-1.13-2.633-1.336-3.861-0.56c-16.286,10.287-42.94,10.125-62.132,5.401c-9.354-2.302-16.86-5.622-20.751-9.063
		c10.855-5.629,22.294-16.215,34.059-31.531c9.641-12.551,15.772-23.497,16.028-23.957c0.537-0.964,0.501-2.146-0.093-3.076
		c-0.595-0.93-1.654-1.453-2.753-1.376c-9.161,0.69-32.763,1.316-44.737-2.683c24.361-18.372,47.968-42.255,53.276-47.715
		c3.335,0.557,11.572,1.839,21.413,2.666c0.086,0.007,0.17,0.011,0.255,0.011c1.627,0,2.996-1.315,2.997-3.007
		c0-1.589-1.332-2.862-2.916-2.997c-8.907-0.755-16.615-1.916-20.17-2.496c-1.277-0.208-2.537-0.462-3.794-0.765
		c-4.793-1.158-18.274-4.497-32.374-8.734c20.463-10.056,49.88-31.637,51.281-32.667c1.143-0.841,1.522-2.363,0.935-3.655
		c-0.588-1.292-2.017-1.989-3.403-1.681c-0.07,0.015-6.03,1.257-21.365-1.85c26.111-11.433,50.19-44.152,51.336-45.725
		c0.623-0.855,0.75-1.975,0.334-2.947c-0.416-0.973-1.313-1.654-2.362-1.794c-0.367-0.049-7.663-1.011-22.165-2.149
		c17.648-12.186,35.04-39.086,35.906-40.438c0.637-0.993,0.633-2.266-0.01-3.255c-0.643-0.989-1.805-1.507-2.971-1.33
		c-0.059,0.009-4.276,0.621-9.462-0.867c15.117-6.526,25.654-21.3,26.163-22.023c0.73-1.038,0.729-2.422-0.004-3.458
		c-0.733-1.037-2.036-1.501-3.259-1.157c-0.138,0.039-11.148,3.074-21.788,2.963c21.02-15.225,40.746-40.601,41.666-41.79
		c0.699-0.905,0.823-2.13,0.319-3.157c-0.504-1.027-1.549-1.678-2.693-1.678c-0.149,0-11.764-0.021-20.73-1.32
		c20.203-15.524,35.799-48.763,36.516-50.307c0.472-1.016,0.338-2.211-0.348-3.098c-0.685-0.887-1.81-1.318-2.91-1.117
		c-0.054,0.009-3.911,0.691-8.51,0.316c5.632-6.613,11.525-17.109,14.854-23.424c3.327,6.313,9.219,16.806,14.85,23.419
		c-4.586,0.373-8.456-0.303-8.506-0.312c-1.101-0.199-2.225,0.23-2.91,1.117c-0.686,0.887-0.819,2.082-0.348,3.098
		c0.717,1.543,16.313,34.783,36.516,50.307c-8.966,1.299-20.581,1.32-20.73,1.32c-1.144,0-2.188,0.651-2.693,1.678
		s-0.38,2.251,0.319,3.157c0.919,1.189,20.644,26.563,41.662,41.788c-10.623,0.097-21.648-2.922-21.786-2.961
		c-1.22-0.342-2.526,0.123-3.257,1.159c-0.732,1.036-0.733,2.42-0.004,3.457c0.509,0.723,11.037,15.485,26.144,22.015
		c-5.16,1.465-9.392,0.882-9.443,0.875c-1.17-0.18-2.329,0.341-2.971,1.33c-0.643,0.989-0.647,2.262-0.01,3.255
		c0.866,1.351,18.258,28.252,35.906,40.438c-8.999,0.706-15.223,1.345-18.738,1.739c-2.391,0.268-4.789,0.436-7.193,0.51
		l-15.633,0.481c-1.61,0.05-3.018,1.29-3.071,2.899c-0.057,1.716,1.318,3.104,2.996,3.104c0.031,0,0.063,0,0.094-0.001l18.307-0.564
		c4.852,6.403,26.785,34.113,50.381,44.445c-15.333,3.105-21.289,1.867-21.328,1.858c-1.388-0.345-2.832,0.337-3.442,1.634
		c-0.61,1.297-0.217,2.844,0.937,3.693c1.4,1.03,30.818,22.612,51.281,32.667c-17.483,5.253-34.027,9.13-34.216,9.174
		c-1.048,0.245-1.885,1.032-2.193,2.063c-0.308,1.031-0.04,2.148,0.702,2.927c0.278,0.292,26.865,28.11,54.395,48.873
		c-14.436,5.656-59.03,4.45-81.312-3.96c-1.561-0.589-3.392,0.138-3.973,1.702c-0.62,1.669,0.327,3.476,2.007,3.942
		c15.939,4.427,31.556,6.306,36.481,6.824c1.964,3.367,7.457,12.45,15.241,22.584c11.765,15.316,23.204,25.902,34.059,31.531
		C388.81,426.311,381.303,429.631,371.95,431.933z"/>
</g>
<g>
</g>
<g>
</g>
<g>
</g>
<g>
</g>
<g>
</g>
<g>
</g>
<g>
</g>
<g>
</g>
<g>
</g>
<g>
</g>
<g>
</g>
<g>
</g>
<g>
</g>
<g>
</g>
<g>
</g>
</svg>
