<?xml version="1.0" encoding="iso-8859-1"?>
<!-- Generator: Adobe Illustrator 18.0.0, SVG Export Plug-In . SVG Version: 6.00 Build 0)  -->
<!DOCTYPE svg PUBLIC "-//W3C//DTD SVG 1.1//EN" "http://www.w3.org/Graphics/SVG/1.1/DTD/svg11.dtd">
<svg version="1.1" id="Capa_1" xmlns="http://www.w3.org/2000/svg" xmlns:xlink="http://www.w3.org/1999/xlink" x="0px" y="0px"
	 viewBox="0 0 473.677 473.677" style="enable-background:new 0 0 473.677 473.677;" xml:space="preserve">
<path d="M406.168,341.389c-1.623-0.529-49.768-16.831-102.297-62.877c0.591-0.556,1.167-1.125,1.721-1.711
	c7.497,2.657,14.834,3.723,21.781,3.723c27.344-0.002,48.642-16.503,49.771-17.395c0.721-0.569,1.141-1.437,1.141-2.354v-0.398
	c0-1.383-0.935-2.546-2.207-2.895c-1.411-0.464-39.748-13.557-81.82-49.794c4.37-2.364,8.168-5.236,11.334-8.587
	c7.495,2.654,14.829,3.719,21.775,3.719c27.346-0.002,48.646-16.498,49.775-17.39c0.721-0.568,1.142-1.437,1.142-2.354v-0.411
	c0-1.383-0.936-2.547-2.208-2.895c-1.436-0.472-40.632-13.858-83.26-51.041c2.76-1.76,5.286-3.785,7.485-6.08
	c6.889,2.42,13.627,3.392,20.013,3.392c25.3-0.002,45.004-15.262,46.048-16.087c0.721-0.568,1.142-1.437,1.142-2.354l-0.005-0.374
	c0-0.799-0.318-1.563-0.884-2.127c-0.368-0.365-0.819-0.626-1.31-0.763c-1.689-0.543-73.467-24.654-125.97-103.005
	C238.778,0.499,237.844,0,236.843,0c-1,0-1.935,0.499-2.492,1.33c-52.506,78.355-124.289,102.465-125.969,103.005
	c-0.488,0.137-0.938,0.396-1.305,0.759c-0.566,0.561-0.886,1.323-0.889,2.119l-0.005,0.386c0,0.918,0.42,1.786,1.141,2.354
	c1.308,1.033,31.875,24.703,66.061,12.695c2.197,2.294,4.717,4.322,7.475,6.081c-43.219,37.698-82.897,50.934-83.285,51.052
	l0.001,0.003c-1.254,0.375-2.173,1.574-2.173,2.943c-0.005,0.113-0.01,0.228-0.01,0.347c0,0.918,0.42,1.786,1.141,2.354
	c1.416,1.117,34.546,26.778,71.564,13.671c3.154,3.336,6.951,6.206,11.328,8.581c-42.659,36.747-81.468,49.696-81.851,49.813
	l0.001,0.003c-1.254,0.373-2.173,1.567-2.173,2.937c-0.005,0.115-0.01,0.23-0.01,0.341c0,0.918,0.42,1.785,1.141,2.354
	c1.416,1.118,34.55,26.781,71.564,13.672c0.551,0.583,1.125,1.149,1.715,1.704C116.961,324.839,68.564,341.055,67.5,341.396
	c-1.259,0.354-2.186,1.518-2.193,2.889l-0.004,0.108c-0.006,0.129-0.011,0.258-0.011,0.393c0,0.918,0.42,1.786,1.141,2.354
	c1.366,1.078,27.125,21.033,60.193,21.031c8.516,0,17.519-1.323,26.711-4.634c11.575,12.424,30.308,19.074,48.816,19.073
	c5.217,0,10.413-0.536,15.428-1.613v89.679c0,1.657,1.343,3,3,3h32.514c1.657,0,3-1.343,3-3v-89.688
	c22.814,4.901,49.425-1.526,64.261-17.45c44.875,16.167,85.172-15.042,86.889-16.397c0.721-0.568,1.142-1.437,1.142-2.354v-0.501
	C408.386,342.899,407.445,341.732,406.168,341.389z M176.534,117.186c-0.582-0.685-1.424-1.057-2.286-1.057
	c-0.366,0-0.735,0.066-1.09,0.205c-24.708,9.645-48.436-2.326-57.856-8.197c7.844-3.102,22.403-9.746,39.321-20.536
	c22.528-14.366,54.782-39.658,82.22-79.272c27.438,39.614,59.692,64.906,82.221,79.272c16.918,10.79,31.478,17.435,39.321,20.535
	c-9.422,5.873-33.149,17.842-57.856,8.198c-1.195-0.467-2.548-0.123-3.377,0.852c-12.958,15.245-41.445,18.586-58.618,6.878
	c-1.02-0.695-2.361-0.695-3.38,0C217.979,135.773,189.491,132.43,176.534,117.186z M171.252,193.634
	c-0.829-0.975-2.184-1.318-3.376-0.852c-27.264,10.637-53.405-2.865-63.378-9.158c13.483-5.26,47.209-21.079,81.979-51.844
	c7.333,3.396,15.751,5.176,24.115,5.176c9.369,0,18.662-2.218,26.251-6.846c14.364,8.758,34.819,8.875,50.367,1.677
	c34.767,30.76,68.498,46.577,81.983,51.837c-9.953,6.299-36.059,19.821-63.379,9.157c-1.196-0.466-2.549-0.122-3.377,0.852
	c-3.689,4.341-8.791,8.002-14.757,10.588c-16.04,6.984-36.251,5.715-49.152-3.084c-1.02-0.695-2.362-0.696-3.381,0.001
	c-12.894,8.803-33.106,10.068-49.147,3.085C179.936,201.575,174.974,198.013,171.252,193.634z M167.875,270.481
	c-27.251,10.643-53.384-2.853-63.366-9.15c13.35-5.209,46.507-20.762,80.879-50.887c7.287,2.89,15.131,4.33,22.844,4.33
	c10.359,0,20.467-2.565,28.607-7.583c14.209,8.751,34.38,10.017,51.446,3.249c34.369,30.124,67.529,45.677,80.888,50.89
	c-9.981,6.299-36.116,19.792-63.357,9.153c-1.195-0.47-2.55-0.123-3.378,0.851c-3.74,4.401-8.704,7.963-14.757,10.588
	c-16.04,6.983-36.249,5.713-49.152-3.085c-1.02-0.695-2.362-0.696-3.381,0.001c-12.896,8.802-33.106,10.07-49.147,3.086
	c-6.064-2.648-11.026-6.211-14.747-10.59C170.422,270.357,169.065,270.015,167.875,270.481z M250.095,467.677h-26.514v-88.263
	c4.706-1.483,9.179-3.484,13.258-6.038c4.078,2.552,8.551,4.55,13.256,6.033V467.677z M320.574,357.212
	c-1.195-0.467-2.549-0.121-3.377,0.853c-17.392,20.471-55.623,24.966-78.669,9.25c-1.02-0.695-2.361-0.696-3.381,0.001
	c-23.034,15.719-61.257,11.224-78.652-9.251c-0.829-0.975-2.184-1.318-3.376-0.853c-34.466,13.444-67.429-4.505-78.797-11.88
	c15.252-5.788,56.964-24.879,100.211-62.992c2.735,1.933,5.757,3.637,9.069,5.083c7.778,3.386,16.285,5.05,24.628,5.05
	c10.36,0,20.467-2.565,28.609-7.584c14.707,9.057,35.808,10.122,53.232,2.535c3.313-1.436,6.339-3.138,9.081-5.076
	c43.244,38.108,84.96,57.197,100.215,62.984C388.023,352.712,355.101,370.685,320.574,357.212z"/>
<g>
</g>
<g>
</g>
<g>
</g>
<g>
</g>
<g>
</g>
<g>
</g>
<g>
</g>
<g>
</g>
<g>
</g>
<g>
</g>
<g>
</g>
<g>
</g>
<g>
</g>
<g>
</g>
<g>
</g>
</svg>
