<?xml version="1.0" encoding="iso-8859-1"?>
<!-- Generator: Adobe Illustrator 18.0.0, SVG Export Plug-In . SVG Version: 6.00 Build 0)  -->
<!DOCTYPE svg PUBLIC "-//W3C//DTD SVG 1.1//EN" "http://www.w3.org/Graphics/SVG/1.1/DTD/svg11.dtd">
<svg version="1.1" id="Capa_1" xmlns="http://www.w3.org/2000/svg" xmlns:xlink="http://www.w3.org/1999/xlink" x="0px" y="0px"
	 viewBox="0 0 475.232 475.232" style="enable-background:new 0 0 475.232 475.232;" xml:space="preserve">
<path d="M359.858,264.142c1.654-6.317-0.434-12.855-5.45-17.063c-11.8-9.899-23.227-20.349-34.037-31.116
	c2.852-0.465,5.702-0.947,8.55-1.461c6.37-1.149,11.376-5.746,13.064-11.998c1.706-6.322-0.334-12.892-5.326-17.145
	c-11.201-9.546-21.996-19.656-32.155-30.107c2.853-0.431,5.705-0.883,8.554-1.369c6.477-1.106,11.597-5.72,13.362-12.041
	c1.744-6.242-0.212-12.754-5.105-16.996c-10.714-9.288-20.954-19.144-30.502-29.355c2.868-0.395,5.733-0.815,8.596-1.275
	c6.469-1.039,11.618-5.583,13.44-11.857c1.816-6.255-0.092-12.828-4.979-17.154c-18.856-16.688-35.684-35.146-50.012-54.861
	C253.079,3.771,245.703,0,237.619,0c-0.001,0-0.001,0-0.001,0c-8.084,0-15.462,3.771-20.239,10.344
	c-14.328,19.715-31.155,38.173-50.012,54.861c-4.888,4.326-6.796,10.898-4.979,17.154c1.822,6.275,6.972,10.819,13.44,11.857
	c2.864,0.46,5.732,0.88,8.601,1.275c-9.553,10.216-19.792,20.073-30.501,29.355c-4.894,4.242-6.85,10.754-5.106,16.996
	c1.766,6.32,6.887,10.934,13.362,12.041c2.846,0.487,5.695,0.937,8.545,1.368c-10.159,10.452-20.954,20.562-32.157,30.108
	c-4.991,4.253-7.031,10.823-5.325,17.145c1.688,6.252,6.694,10.849,13.064,11.998c2.848,0.514,5.698,0.995,8.55,1.461
	c-10.809,10.766-22.236,21.215-34.036,31.115c-5.017,4.208-7.105,10.747-5.45,17.064c1.353,5.166,4.965,9.23,9.757,11.196v5.982
	c-5.432,1.348-9.475,6.252-9.475,12.094c0,6.878,5.596,12.475,12.475,12.475s12.475-5.596,12.475-12.475
	c0-5.843-4.043-10.746-9.475-12.094v-4.509c8.515,1.56,17.043,2.936,25.582,4.12v5.652c-5.432,1.349-9.475,6.252-9.475,12.095
	c0,6.878,5.596,12.475,12.475,12.475s12.475-5.596,12.475-12.475c0-5.843-4.043-10.746-9.475-12.095v-4.848
	c7.818,1.003,15.645,1.84,23.477,2.528v6.531c-5.432,1.349-9.475,6.252-9.475,12.095c0,6.878,5.596,12.475,12.475,12.475
	s12.475-5.596,12.475-12.475c0-5.843-4.043-10.746-9.475-12.095v-6.034c8.522,0.661,17.051,1.142,25.582,1.43v7.761
	c-5.432,1.349-9.475,6.252-9.475,12.095c0,5.682,3.822,10.479,9.027,11.979v151.75c0,1.32,0.863,2.485,2.126,2.87
	c5.56,1.692,11.841,2.586,18.165,2.586s12.605-0.895,18.164-2.586c1.263-0.385,2.126-1.55,2.126-2.87v-151.75
	c5.205-1.501,9.027-6.298,9.027-11.979c0-5.843-4.043-10.746-9.475-12.095v-7.762c8.531-0.289,17.059-0.769,25.582-1.43v6.034
	c-5.432,1.349-9.475,6.252-9.475,12.095c0,6.878,5.596,12.475,12.475,12.475s12.475-5.596,12.475-12.475
	c0-5.843-4.043-10.746-9.475-12.095v-6.531c7.832-0.688,15.659-1.525,23.477-2.527v4.848c-5.432,1.349-9.475,6.252-9.475,12.095
	c0,6.878,5.596,12.475,12.475,12.475s12.475-5.596,12.475-12.475c0-5.843-4.043-10.746-9.475-12.095v-5.652
	c8.539-1.184,17.067-2.56,25.581-4.119v4.508c-5.431,1.349-9.474,6.252-9.474,12.094c0,6.878,5.596,12.475,12.474,12.475
	c6.879,0,12.475-5.596,12.475-12.475c0-5.843-4.043-10.746-9.475-12.094v-5.981C354.892,273.373,358.504,269.309,359.858,264.142z
	 M166.189,298.678c0,3.57-2.904,6.475-6.475,6.475s-6.475-2.904-6.475-6.475s2.904-6.475,6.475-6.475
	S166.189,295.107,166.189,298.678z M195.665,302.889c0,3.57-2.904,6.475-6.475,6.475s-6.475-2.904-6.475-6.475
	s2.904-6.475,6.475-6.475S195.665,299.318,195.665,302.889z M292.516,302.889c0,3.57-2.904,6.475-6.475,6.475
	s-6.475-2.904-6.475-6.475s2.904-6.475,6.475-6.475S292.516,299.318,292.516,302.889z M321.992,298.678
	c0,3.57-2.904,6.475-6.475,6.475s-6.475-2.904-6.475-6.475s2.904-6.475,6.475-6.475S321.992,295.107,321.992,298.678z
	 M168.15,80.686c-1.18-4.066,0.014-8.173,3.194-10.988c19.183-16.976,36.305-35.759,50.889-55.827
	C225.868,8.869,231.477,6,237.618,6c6.142,0,11.749,2.869,15.385,7.871c14.584,20.068,31.706,38.851,50.889,55.827
	c3.181,2.814,4.374,6.922,3.194,10.988c-1.187,4.085-4.413,6.929-8.63,7.606c-40.369,6.481-81.306,6.481-121.677,0
	C172.563,87.614,169.336,84.771,168.15,80.686z M154.601,140.228c-1.13-4.045,0.087-8.1,3.257-10.847
	c11.965-10.372,23.348-21.454,33.866-32.95c15.259,1.812,30.576,2.723,45.894,2.723c15.32,0,30.64-0.911,45.901-2.723
	c10.512,11.49,21.894,22.572,33.866,32.95c3.17,2.747,4.387,6.802,3.257,10.848c-1.135,4.063-4.428,7.029-8.594,7.741
	c-49.39,8.44-99.47,8.441-148.852,0C159.029,147.256,155.736,144.291,154.601,140.228z M139.04,200.94
	c-1.096-4.06,0.216-8.281,3.424-11.015c12.465-10.621,24.429-21.936,35.592-33.641c19.796,2.662,39.677,4.015,59.56,4.015
	c19.881,0,39.763-1.353,59.56-4.014c11.163,11.704,23.126,23.019,35.591,33.64c3.209,2.734,4.521,6.955,3.425,11.015
	c-1.094,4.05-4.21,6.913-8.336,7.657c-59.88,10.798-120.602,10.798-180.48,0C143.25,207.853,140.134,204.991,139.04,200.94z
	 M121.179,262.622c-1.077-4.112,0.232-8.205,3.502-10.948c13.063-10.958,25.669-22.584,37.503-34.568
	c25.064,3.723,50.247,5.59,75.432,5.59c25.185,0,50.369-1.867,75.433-5.59c11.835,11.984,24.441,23.611,37.504,34.568
	c3.27,2.743,4.578,6.835,3.502,10.947c-1.075,4.104-4.215,7.023-8.399,7.809c-71.686,13.465-144.386,13.464-216.077,0
	C125.393,269.644,122.254,266.725,121.179,262.622z M134.607,293.414c0,3.57-2.904,6.475-6.475,6.475s-6.475-2.904-6.475-6.475
	c0-3.57,2.904-6.474,6.475-6.474S134.607,289.844,134.607,293.414z M214.298,306.047c0-3.57,2.904-6.475,6.475-6.475
	c3.569,0,6.474,2.904,6.474,6.475s-2.904,6.475-6.474,6.475C217.202,312.521,214.298,309.617,214.298,306.047z M260.934,306.047
	c0,3.57-2.904,6.475-6.475,6.475c-3.57,0-6.475-2.904-6.475-6.475s2.904-6.475,6.475-6.475
	C258.03,299.572,260.934,302.477,260.934,306.047z M251.459,293.952c-5.432,1.349-9.475,6.252-9.475,12.095
	c0,6.004,4.264,11.028,9.922,12.21V467.5c-8.911,2.272-19.67,2.273-28.581,0V318.257c5.657-1.182,9.921-6.206,9.921-12.21
	c0-5.843-4.043-10.746-9.474-12.095v-7.587c4.615,0.109,9.231,0.164,13.847,0.164c4.613,0,9.227-0.056,13.84-0.165V293.952z
	 M353.573,293.414c0,3.57-2.904,6.475-6.475,6.475c-3.569,0-6.474-2.904-6.474-6.475c0-3.57,2.904-6.474,6.474-6.474
	C350.669,286.94,353.573,289.844,353.573,293.414z"/>
<g>
</g>
<g>
</g>
<g>
</g>
<g>
</g>
<g>
</g>
<g>
</g>
<g>
</g>
<g>
</g>
<g>
</g>
<g>
</g>
<g>
</g>
<g>
</g>
<g>
</g>
<g>
</g>
<g>
</g>
</svg>
