<?xml version="1.0" encoding="iso-8859-1"?>
<!-- Generator: Adobe Illustrator 18.0.0, SVG Export Plug-In . SVG Version: 6.00 Build 0)  -->
<!DOCTYPE svg PUBLIC "-//W3C//DTD SVG 1.1//EN" "http://www.w3.org/Graphics/SVG/1.1/DTD/svg11.dtd">
<svg version="1.1" id="Capa_1" xmlns="http://www.w3.org/2000/svg" xmlns:xlink="http://www.w3.org/1999/xlink" x="0px" y="0px"
	 viewBox="0 0 482.975 482.975" style="enable-background:new 0 0 482.975 482.975;" xml:space="preserve">
<g>
	<path d="M446.003,438.15c-7-2.965-16.921-11.207-28.751-23.858c0.76-1.637,1.196-3.454,1.196-5.375
		c0-5.854-3.945-10.794-9.313-12.328c5.955-0.97,13.073-2.619,19.013-5.413c0.9-0.423,1.532-1.265,1.688-2.248
		c0.154-0.983-0.188-1.978-0.914-2.658c-17.163-16.063-35.447-41.571-42.508-51.785l13.268-0.515
		c1.387-0.054,2.556-1.051,2.826-2.413c0.271-1.361-0.428-2.73-1.688-3.31c-4.771-2.196-10.76-7.106-17.816-14.599
		c1.067-1.871,1.685-4.029,1.685-6.332c0-7.074-5.755-12.83-12.829-12.83c-1.512,0-2.958,0.277-4.306,0.759
		c-4.135-5.405-7.576-10.243-9.732-13.349l14.399-3.327c1.053-0.243,1.893-1.032,2.2-2.067c0.309-1.035,0.036-2.155-0.711-2.934
		l-25.531-26.581c2.869-2.355,4.703-5.926,4.703-9.918c0-7.075-5.756-12.83-12.83-12.83c-3.806,0-7.22,1.675-9.571,4.316
		l-4.232-4.406c5.237-0.045,12.421-0.375,18.583-1.612c1.2-0.241,2.134-1.188,2.358-2.391c0.225-1.204-0.305-2.423-1.338-3.081
		c-8.425-5.364-19.364-15.502-31.729-29.386c1.946-2.25,3.133-5.174,3.133-8.375c0-7.075-5.756-12.83-12.83-12.83
		c-2.399,0-4.638,0.674-6.561,1.825c-1.373-1.731-2.596-3.297-3.618-4.62H307.6c1.254,0,2.376-0.78,2.813-1.956
		s0.096-2.499-0.854-3.317c-19.215-16.548-37.022-35.699-44.65-44.153l17.106-1.608c1.265-0.119,2.317-1.021,2.628-2.253
		c0.311-1.232-0.188-2.526-1.245-3.23c-24.332-16.217-33.932-38.182-37.313-48.684l13.616,7.998c1.028,0.604,2.316,0.541,3.283-0.16
		c0.965-0.701,1.423-1.908,1.166-3.073l-4.559-20.687l15.847-14.056c0.893-0.792,1.231-2.037,0.863-3.171
		c-0.369-1.134-1.375-1.943-2.563-2.059l-21.082-2.057L244.185,1.8c-0.478-1.093-1.557-1.8-2.75-1.8c-1.193,0-2.272,0.707-2.75,1.8
		l-8.471,19.415l-21.083,2.057c-1.187,0.116-2.193,0.924-2.562,2.059c-0.369,1.135-0.03,2.38,0.862,3.171l15.847,14.056
		l-4.559,20.687c-0.257,1.165,0.201,2.372,1.167,3.073c0.523,0.38,1.143,0.573,1.764,0.573c0.523,0,1.048-0.137,1.519-0.413
		l13.756-8.08c-3.36,10.472-12.951,32.509-37.338,48.767c-1.057,0.705-1.556,1.999-1.245,3.23c0.311,1.231,1.363,2.134,2.628,2.253
		l17.097,1.608c-1.912,2.12-4.464,4.913-7.517,8.168c-1.384-5.59-6.429-9.751-12.441-9.751c-7.074,0-12.83,5.755-12.83,12.83
		c0,6.133,4.328,11.269,10.089,12.528c-6.705,6.637-14.208,13.718-21.942,20.378c-0.951,0.819-1.292,2.142-0.855,3.317
		s1.559,1.956,2.813,1.956h13.351c-4.914,6.354-14.269,18.087-24.708,29.325c-2.043-1.374-4.499-2.177-7.14-2.177
		c-7.075,0-12.83,5.755-12.83,12.83c0,2.49,0.724,4.809,1.957,6.779c-3.176,2.66-6.161,4.89-8.893,6.63
		c-1.032,0.658-1.561,1.877-1.336,3.081c0.225,1.203,1.158,2.149,2.359,2.39c6.168,1.237,13.354,1.567,18.591,1.612l-47.471,49.419
		c-0.748,0.778-1.02,1.899-0.712,2.934c0.308,1.035,1.148,1.824,2.201,2.067l8.385,1.936c-2.475,2.34-4.03,5.644-4.03,9.312
		c0,1.649,0.324,3.221,0.893,4.67c-13.748,18.044-25.739,30.019-33.85,33.76c-1.259,0.581-1.957,1.95-1.685,3.311
		c0.271,1.36,1.439,2.357,2.826,2.411l13.271,0.515c-3.503,5.072-9.768,13.912-17.26,23.458c-1.903-1.118-4.111-1.771-6.473-1.771
		c-7.074,0-12.83,5.755-12.83,12.83c0,3.124,1.125,5.988,2.987,8.215c-3.058,3.306-6.059,6.354-8.938,9.056
		c-0.725,0.681-1.066,1.676-0.91,2.657c0.155,0.982,0.787,1.823,1.687,2.246c8.371,3.934,19.085,5.604,25.576,6.293
		c-8.277,10.122-29.367,34.725-43.432,40.678c-1.314,0.556-2.054,1.961-1.771,3.359s1.513,2.403,2.94,2.403
		c24.148,0,61-8.492,79.132-13.076l-13.708,13.708c-0.878,0.877-1.125,2.206-0.62,3.34c0.483,1.087,1.56,1.781,2.74,1.781
		c0.051,0,0.103-0.001,0.155-0.004c2.06-0.106,45.628-2.514,81.652-17.755c-5.096,5.646-9.137,9.698-9.201,9.761
		c-0.836,0.836-1.103,2.086-0.681,3.19c0.421,1.105,1.453,1.859,2.633,1.926c0.4,0.021,9.942,0.535,22.471-1.099
		c5.296-0.691,10.261-1.65,14.9-2.861l-0.319,37.126c-0.007,0.8,0.306,1.57,0.87,2.138c0.563,0.568,1.33,0.888,2.13,0.888h41.672
		c1.646,0,2.985-1.328,3-2.974l0.32-37.197c4.659,1.221,9.648,2.186,14.972,2.881c12.526,1.634,22.07,1.122,22.47,1.099
		c1.181-0.066,2.213-0.821,2.634-1.926c0.422-1.105,0.155-2.354-0.682-3.19c-0.063-0.063-4.104-4.114-9.201-9.762
		c36.025,15.241,79.604,17.65,81.664,17.756c1.237,0.064,2.39-0.643,2.895-1.778c0.505-1.134,0.258-2.462-0.62-3.34l-13.713-13.706
		c18.134,4.584,54.98,13.075,79.127,13.075c1.427,0,2.656-1.005,2.94-2.403C448.057,440.111,447.317,438.706,446.003,438.15z
		 M412.449,408.917c0,3.766-3.063,6.83-6.83,6.83c-3.766,0-6.829-3.064-6.829-6.83s3.063-6.83,6.829-6.83
		C409.385,402.088,412.449,405.152,412.449,408.917z M378.688,307.317c0,3.766-3.063,6.83-6.829,6.83c-3.767,0-6.83-3.064-6.83-6.83
		c0-3.766,3.063-6.83,6.83-6.83C375.624,300.488,378.688,303.552,378.688,307.317z M340.051,230.241c3.767,0,6.83,3.064,6.83,6.83
		c0,3.766-3.063,6.83-6.83,6.83c-3.766,0-6.829-3.064-6.829-6.83C333.222,233.305,336.285,230.241,340.051,230.241z M326.187,239.14
		c0,3.766-3.063,6.83-6.83,6.83c-3.766,0-6.829-3.064-6.829-6.83c0-3.766,3.063-6.83,6.829-6.83
		C323.123,232.31,326.187,235.374,326.187,239.14z M311.254,179.307c0,3.766-3.063,6.83-6.83,6.83c-3.766,0-6.829-3.064-6.829-6.83
		c0-3.766,3.063-6.83,6.829-6.83C308.191,172.477,311.254,175.541,311.254,179.307z M212.32,132.832c3.766,0,6.83,3.064,6.83,6.83
		s-3.064,6.83-6.83,6.83s-6.83-3.064-6.83-6.83S208.555,132.832,212.32,132.832z M228.383,145.574c3.766,0,6.83,3.064,6.83,6.83
		c0,3.766-3.064,6.83-6.83,6.83c-3.766,0-6.83-3.064-6.83-6.83C221.553,148.638,224.617,145.574,228.383,145.574z M245.519,157.295
		c3.766,0,6.829,3.064,6.829,6.83c0,3.766-3.063,6.83-6.829,6.83c-3.766,0-6.83-3.064-6.83-6.83
		C238.689,160.359,241.753,157.295,245.519,157.295z M264.593,164.285c3.766,0,6.829,3.064,6.829,6.83s-3.063,6.83-6.829,6.83
		c-3.767,0-6.83-3.064-6.83-6.83S260.827,164.285,264.593,164.285z M284.179,168.753c3.767,0,6.83,3.064,6.83,6.83
		c0,3.766-3.063,6.83-6.83,6.83c-3.766,0-6.829-3.064-6.829-6.83C277.35,171.817,280.413,168.753,284.179,168.753z M228.579,39.239
		l-12.021-10.663l15.993-1.561c1.083-0.105,2.023-0.789,2.458-1.786l6.426-14.728l6.426,14.728c0.436,0.997,1.376,1.681,2.459,1.786
		l15.992,1.561l-12.021,10.663c-0.814,0.722-1.174,1.828-0.939,2.89l3.458,15.692l-13.855-8.138c-0.938-0.55-2.101-0.551-3.039,0
		l-13.855,8.138l3.458-15.692C229.752,41.067,229.393,39.961,228.579,39.239z M227.028,110.705
		c-0.418-1.042-1.384-1.764-2.503-1.869l-15.056-1.416c19.066-14.93,28.022-32.666,32.022-43.646
		c3.998,10.98,12.951,28.715,32.022,43.645l-15.064,1.417c-1.118,0.105-2.084,0.826-2.503,1.869
		c-0.418,1.042-0.22,2.232,0.516,3.081c0.213,0.247,19.95,22.981,43.193,43.896h-12.17c-1.657,0-3,1.343-3,3
		c0,0.835,0.342,1.589,0.892,2.133c-0.395-0.037-0.794-0.061-1.199-0.061c-3.036,0-5.826,1.066-8.025,2.836
		c-2.07-4.312-6.466-7.304-11.561-7.304c-2.514,0-4.854,0.738-6.836,1.992c-1.639-5.2-6.504-8.982-12.238-8.982
		c-1.519,0-2.97,0.279-4.324,0.766c-0.184-6.915-5.854-12.487-12.813-12.487c-1.125,0-2.21,0.16-3.25,0.433
		c0.003-0.116,0.018-0.229,0.018-0.346c0-6.344-4.634-11.614-10.692-12.637c7.337-7.805,11.953-13.121,12.055-13.24
		C227.248,112.936,227.447,111.747,227.028,110.705z M191.281,125.501c0-3.766,3.064-6.83,6.83-6.83c3.766,0,6.83,3.064,6.83,6.83
		c0,3.766-3.064,6.83-6.83,6.83C194.345,132.332,191.281,129.268,191.281,125.501z M194.809,157.682h-11.48
		c5.768-5.19,11.318-10.492,16.408-15.534c1.161,5.888,6.36,10.344,12.583,10.344c1.125,0,2.21-0.16,3.25-0.433
		c-0.003,0.116-0.018,0.229-0.018,0.346c0,7.074,5.755,12.83,12.83,12.83c1.519,0,2.97-0.279,4.324-0.766
		c0.184,6.915,5.854,12.487,12.813,12.487c2.514,0,4.854-0.738,6.836-1.992c1.639,5.199,6.505,8.981,12.238,8.981
		c3.036,0,5.826-1.066,8.025-2.835c2.07,4.313,6.466,7.305,11.561,7.305c3.378,0,6.447-1.322,8.741-3.465
		c2.093,4.249,6.456,7.188,11.504,7.188c1.695,0,3.311-0.338,4.794-0.938c10.21,11.508,19.304,20.38,27.139,26.474
		c-8.57,0.777-17.002,0.373-17.11,0.368c-1.245-0.068-2.37,0.633-2.88,1.751c-0.51,1.119-0.286,2.436,0.565,3.323l3.103,3.23
		c-0.226-0.012-0.449-0.034-0.678-0.034c-4.352,0-8.199,2.183-10.519,5.507c-2.321-3.324-6.168-5.507-10.52-5.507
		c-4.069,0-7.693,1.91-10.045,4.873c-2.339-3.158-6.08-5.218-10.303-5.218c-3.991,0-7.56,1.832-9.915,4.699
		c-2.107-4.209-6.45-7.113-11.468-7.113c-3.413,0-6.511,1.348-8.812,3.529c-1.909-4.693-6.512-8.013-11.883-8.013
		c-3.413,0-6.51,1.348-8.811,3.529c-1.909-4.693-6.513-8.013-11.883-8.013c-3.303,0-6.309,1.265-8.585,3.323
		c-1.601-5.262-6.495-9.103-12.274-9.103c-2.491,0-4.81,0.725-6.78,1.958c-1.149-5.903-6.354-10.375-12.588-10.375
		c-1.943,0-3.779,0.447-5.431,1.223c-0.241-1.491-0.729-2.898-1.438-4.171c14.61-15.681,27.189-32.411,28.903-34.71
		c0.5-0.536,0.807-1.256,0.807-2.047C197.809,159.025,196.466,157.682,194.809,157.682z M305.148,239.14
		c0,3.766-3.063,6.83-6.83,6.83c-3.766,0-6.829-3.064-6.829-6.83c0-3.766,3.063-6.83,6.829-6.83
		C302.084,232.31,305.148,235.374,305.148,239.14z M284.798,238.795c0,3.766-3.063,6.83-6.829,6.83c-3.767,0-6.83-3.064-6.83-6.83
		c0-3.766,3.063-6.83,6.83-6.83C281.735,231.965,284.798,235.029,284.798,238.795z M263.414,236.381c0,3.766-3.063,6.83-6.829,6.83
		c-3.767,0-6.83-3.064-6.83-6.83s3.063-6.83,6.83-6.83C260.351,229.551,263.414,232.615,263.414,236.381z M242.72,231.897
		c0,3.766-3.064,6.83-6.83,6.83s-6.83-3.064-6.83-6.83c0-3.766,3.064-6.83,6.83-6.83S242.72,228.131,242.72,231.897z
		 M222.026,227.414c0,3.766-3.064,6.83-6.83,6.83c-3.766,0-6.83-3.064-6.83-6.83c0-3.766,3.064-6.83,6.83-6.83
		C218.962,220.583,222.026,223.647,222.026,227.414z M174.97,206.386c3.766,0,6.83,3.064,6.83,6.83c0,3.766-3.064,6.83-6.83,6.83
		s-6.83-3.064-6.83-6.83C168.14,209.45,171.204,206.386,174.97,206.386z M194.338,214.803c3.766,0,6.83,3.064,6.83,6.83
		c0,3.766-3.064,6.83-6.83,6.83s-6.83-3.064-6.83-6.83C187.508,217.867,190.572,214.803,194.338,214.803z M156.889,196.83
		c3.766,0,6.83,3.064,6.83,6.83c0,3.766-3.064,6.83-6.83,6.83c-3.766,0-6.83-3.064-6.83-6.83
		C150.058,199.894,153.122,196.83,156.889,196.83z M146.616,217.671c1.202-0.935,2.441-1.956,3.695-3.016
		c1.926,1.157,4.172,1.835,6.578,1.835c1.943,0,3.779-0.447,5.431-1.223c0.157,0.973,0.415,1.912,0.779,2.799
		C160.992,218.142,153.864,218.329,146.616,217.671z M117.255,273.915l48.798-50.8c0.121-0.125,0.225-0.261,0.32-0.402
		c2.278,2.064,5.288,3.334,8.596,3.334c2.491,0,4.81-0.725,6.78-1.958c1.149,5.903,6.354,10.375,12.588,10.375
		c3.303,0,6.308-1.265,8.585-3.323c1.601,5.262,6.495,9.103,12.274,9.103c3.413,0,6.51-1.348,8.811-3.529
		c1.909,4.693,6.513,8.013,11.883,8.013c3.413,0,6.511-1.348,8.812-3.529c1.91,4.693,6.513,8.012,11.883,8.012
		c3.99,0,7.56-1.832,9.915-4.698c2.107,4.209,6.45,7.113,11.469,7.113c4.069,0,7.693-1.91,10.045-4.873
		c2.339,3.158,6.08,5.218,10.303,5.218c4.352,0,8.199-2.183,10.52-5.506c2.321,3.323,6.167,5.506,10.519,5.506
		c4.737,0,8.873-2.587,11.095-6.416c2.352,2.659,5.778,4.347,9.599,4.347c0.815,0,1.609-0.085,2.382-0.23l23.288,24.245
		l-13.527,3.125c-0.959,0.221-1.747,0.898-2.111,1.812c-0.364,0.913-0.258,1.947,0.284,2.767c0.054,0.081,5.071,7.641,12.155,16.927
		c-0.901,0.959-1.654,2.055-2.229,3.255c-2.348-2.578-5.72-4.209-9.474-4.209c-4.642,0-8.704,2.486-10.957,6.189
		c-2.345-2.527-5.682-4.12-9.393-4.12c-4.936,0-9.223,2.806-11.368,6.903c-2.353-2.941-5.965-4.833-10.016-4.833
		c-4.482,0-8.429,2.314-10.724,5.807c-2.354-2.907-5.947-4.772-9.97-4.772c-4.068,0-7.693,1.91-10.046,4.873
		c-2.339-3.158-6.081-5.218-10.304-5.218c-3.739,0-7.099,1.618-9.446,4.178c-2.317-3.353-6.183-5.558-10.558-5.558
		c-3.815,0-7.236,1.683-9.588,4.334c-2.33-3.244-6.126-5.369-10.417-5.369c-3.514,0-6.701,1.422-9.02,3.719
		c-2.158-4.054-6.424-6.823-11.329-6.823c-3.402,0-6.49,1.34-8.789,3.508c-2.07-4.311-6.467-7.302-11.561-7.302
		c-3.229,0-6.176,1.209-8.433,3.185c-2.066-4.323-6.469-7.324-11.571-7.324c-3.026,0-5.806,1.059-8.002,2.818
		c-1.826-4.862-6.51-8.337-12.002-8.337c-2.688,0-5.183,0.834-7.247,2.253c-1.72-5.059-6.507-8.714-12.14-8.714
		c-0.13,0-0.256,0.016-0.384,0.019L117.255,273.915z M357.649,310.421c0,3.766-3.063,6.83-6.829,6.83c-3.767,0-6.83-3.064-6.83-6.83
		c0-3.766,3.063-6.83,6.83-6.83C354.585,303.592,357.649,306.656,357.649,310.421z M337.3,312.491c0,3.766-3.063,6.83-6.83,6.83
		s-6.83-3.064-6.83-6.83c0-3.766,3.063-6.83,6.83-6.83S337.3,308.725,337.3,312.491z M315.916,314.561c0,3.766-3.063,6.83-6.83,6.83
		s-6.83-3.064-6.83-6.83c0-3.766,3.063-6.83,6.83-6.83S315.916,310.794,315.916,314.561z M295.222,315.595
		c0,3.766-3.063,6.83-6.83,6.83s-6.83-3.064-6.83-6.83s3.063-6.83,6.83-6.83S295.222,311.83,295.222,315.595z M274.872,315.25
		c0,3.766-3.063,6.83-6.83,6.83c-3.766,0-6.829-3.064-6.829-6.83c0-3.766,3.063-6.83,6.829-6.83
		C271.809,308.42,274.872,311.484,274.872,315.25z M254.868,313.871c0,3.766-3.063,6.83-6.83,6.83c-3.766,0-6.83-3.064-6.83-6.83
		s3.064-6.83,6.83-6.83C251.805,307.041,254.868,310.105,254.868,313.871z M234.864,312.836c0,3.766-3.064,6.83-6.83,6.83
		s-6.83-3.064-6.83-6.83s3.064-6.83,6.83-6.83S234.864,309.07,234.864,312.836z M214.514,309.732c0,3.766-3.064,6.83-6.83,6.83
		c-3.766,0-6.83-3.064-6.83-6.83c0-3.766,3.064-6.83,6.83-6.83C211.451,302.902,214.514,305.966,214.514,309.732z M194.165,305.938
		c0,3.766-3.064,6.83-6.83,6.83c-3.766,0-6.83-3.064-6.83-6.83c0-3.766,3.064-6.83,6.83-6.83
		C191.101,299.108,194.165,302.172,194.165,305.938z M174.161,301.799c0,3.766-3.064,6.83-6.83,6.83c-3.766,0-6.83-3.064-6.83-6.83
		c0-3.766,3.064-6.83,6.83-6.83C171.097,294.969,174.161,298.033,174.161,301.799z M121.11,289.819c0-3.766,3.064-6.83,6.83-6.83
		c3.766,0,6.83,3.064,6.83,6.83c0,3.766-3.064,6.83-6.83,6.83C124.174,296.649,121.11,293.585,121.11,289.819z M147.327,289.45
		c3.766,0,6.83,3.064,6.83,6.83c0,3.766-3.064,6.83-6.83,6.83s-6.83-3.064-6.83-6.83C140.497,292.514,143.561,289.45,147.327,289.45
		z M104.755,330.329c-0.495-0.963-1.47-1.585-2.553-1.627l-9.178-0.356c9.06-7.162,18.828-18.625,26.629-28.747
		c2.238,1.899,5.128,3.052,8.286,3.052c2.688,0,5.183-0.834,7.247-2.253c1.72,5.059,6.507,8.714,12.14,8.714
		c3.026,0,5.806-1.059,8.003-2.818c1.826,4.862,6.51,8.337,12.002,8.337c3.23,0,6.176-1.209,8.434-3.185
		c2.066,4.323,6.469,7.324,11.571,7.324c3.402,0,6.49-1.34,8.789-3.508c2.07,4.311,6.467,7.302,11.561,7.302
		c3.514,0,6.701-1.422,9.02-3.719c2.158,4.054,6.424,6.823,11.329,6.823c3.815,0,7.236-1.683,9.588-4.334
		c2.33,3.244,6.126,5.369,10.417,5.369c3.739,0,7.099-1.618,9.446-4.178c2.317,3.353,6.183,5.558,10.558,5.558
		c4.069,0,7.694-1.91,10.046-4.873c2.339,3.158,6.081,5.218,10.304,5.218c4.482,0,8.429-2.314,10.724-5.807
		c2.354,2.907,5.947,4.772,9.97,4.772c4.936,0,9.223-2.806,11.368-6.903c2.353,2.941,5.965,4.833,10.016,4.833
		c4.642,0,8.704-2.486,10.957-6.189c2.345,2.527,5.682,4.12,9.393,4.12c5.098,0,9.497-2.996,11.565-7.313
		c2.348,2.578,5.72,4.209,9.474,4.209c2.597,0,5.012-0.781,7.034-2.113c3.959,4.181,7.65,7.628,11.046,10.31l-9.166,0.356
		c-1.082,0.042-2.058,0.664-2.553,1.627c-0.494,0.963-0.432,2.119,0.165,3.023c0.928,1.405,21.899,33.04,43.087,54.069
		c-11.107,3.902-24.741,4.505-24.896,4.511c-1.121,0.046-2.124,0.714-2.598,1.732c-0.474,1.018-0.34,2.214,0.348,3.102
		c0.047,0.062,0.893,1.151,2.355,2.965c-0.707,0.688-1.331,1.458-1.865,2.292c-2.314-3.372-6.193-5.59-10.582-5.59
		c-3.916,0-7.422,1.768-9.777,4.542c-2.315-3.364-6.189-5.577-10.573-5.577s-8.257,2.213-10.572,5.577
		c-2.355-2.774-5.861-4.542-9.777-4.542c-4.113,0-7.77,1.953-10.12,4.971c-2.179-3.986-6.411-6.696-11.264-6.696
		c-4.023,0-7.616,1.865-9.971,4.772c-2.295-3.493-6.241-5.807-10.724-5.807c-4.068,0-7.693,1.909-10.045,4.872
		c-2.245-3.737-6.326-6.251-10.994-6.251c-3.812,0-7.231,1.68-9.583,4.328c-2.112-4.196-6.447-7.088-11.456-7.088
		c-4.051,0-7.664,1.892-10.017,4.834c-2.145-4.097-6.431-6.903-11.368-6.903c-4.051,0-7.663,1.892-10.016,4.834
		c-2.145-4.097-6.432-6.904-11.368-6.904c-3.821,0-7.247,1.688-9.6,4.347c-2.222-3.829-6.358-6.416-11.094-6.416
		c-3.286,0-6.277,1.252-8.549,3.291c-2.112-4.194-6.448-7.085-11.455-7.085c-3.241,0-6.197,1.218-8.458,3.208
		c-1.904-4.705-6.512-8.036-11.891-8.036c-4.056,0-7.671,1.897-10.024,4.844c-2.006-4.474-6.493-7.603-11.705-7.603
		c-3.29,0-6.285,1.255-8.558,3.298c-1.965-4.571-6.509-7.782-11.792-7.782c-3.462,0-6.603,1.384-8.913,3.621
		c-1.969-4.56-6.507-7.761-11.781-7.761c-2.824,0-5.429,0.928-7.551,2.48c-0.34-1.318-0.88-2.553-1.594-3.672
		c11.896-15.114,20.851-28.638,20.943-28.778C105.186,332.448,105.25,331.292,104.755,330.329z M391.065,409.262
		c0,3.766-3.063,6.83-6.83,6.83s-6.83-3.064-6.83-6.83c0-3.766,3.063-6.83,6.83-6.83S391.065,405.497,391.065,409.262z
		 M370.715,408.228c0,3.766-3.063,6.83-6.83,6.83c-3.766,0-6.829-3.064-6.829-6.83s3.063-6.83,6.829-6.83
		C367.652,401.398,370.715,404.462,370.715,408.228z M350.366,409.262c0,3.766-3.063,6.83-6.829,6.83c-3.767,0-6.83-3.064-6.83-6.83
		c0-3.766,3.063-6.83,6.83-6.83C347.302,402.433,350.366,405.497,350.366,409.262z M328.982,407.538c0,3.766-3.063,6.83-6.829,6.83
		c-3.767,0-6.83-3.064-6.83-6.83c0-3.766,3.063-6.83,6.83-6.83C325.918,400.708,328.982,403.772,328.982,407.538z M308.287,406.503
		c0,3.766-3.063,6.83-6.829,6.83c-3.767,0-6.83-3.064-6.83-6.83c0-3.766,3.063-6.83,6.83-6.83
		C305.224,399.673,308.287,402.737,308.287,406.503z M287.248,405.124c0,3.766-3.063,6.83-6.829,6.83c-3.767,0-6.83-3.064-6.83-6.83
		s3.063-6.83,6.83-6.83C284.185,398.294,287.248,401.358,287.248,405.124z M266.209,402.364c0,3.766-3.063,6.83-6.829,6.83
		c-3.767,0-6.83-3.064-6.83-6.83s3.063-6.83,6.83-6.83C263.146,395.535,266.209,398.599,266.209,402.364z M244.826,400.295
		c0,3.766-3.064,6.83-6.83,6.83s-6.83-3.064-6.83-6.83s3.064-6.83,6.83-6.83S244.826,396.529,244.826,400.295z M223.442,398.226
		c0,3.766-3.064,6.83-6.83,6.83c-3.766,0-6.83-3.064-6.83-6.83c0-3.766,3.064-6.83,6.83-6.83
		C220.378,391.396,223.442,394.459,223.442,398.226z M202.747,396.156c0,3.766-3.064,6.83-6.83,6.83s-6.83-3.064-6.83-6.83
		c0-3.766,3.064-6.83,6.83-6.83S202.747,392.39,202.747,396.156z M182.743,392.362c0,3.766-3.064,6.83-6.83,6.83
		s-6.83-3.064-6.83-6.83c0-3.766,3.064-6.83,6.83-6.83S182.743,388.596,182.743,392.362z M162.394,387.533
		c0,3.766-3.064,6.83-6.83,6.83c-3.766,0-6.83-3.064-6.83-6.83c0-3.766,3.064-6.83,6.83-6.83
		C159.33,380.704,162.394,383.768,162.394,387.533z M140.665,384.774c0,3.766-3.064,6.83-6.83,6.83c-3.766,0-6.83-3.064-6.83-6.83
		c0-3.766,3.064-6.83,6.83-6.83C137.601,377.944,140.665,381.008,140.665,384.774z M120.316,380.291c0,3.766-3.064,6.83-6.83,6.83
		c-3.766,0-6.83-3.064-6.83-6.83s3.064-6.83,6.83-6.83C117.252,373.461,120.316,376.525,120.316,380.291z M99.621,376.151
		c0,3.766-3.064,6.83-6.83,6.83s-6.83-3.064-6.83-6.83c0-3.766,3.064-6.83,6.83-6.83S99.621,372.385,99.621,376.151z
		 M72.831,362.173c3.766,0,6.83,3.064,6.83,6.83c0,3.766-3.064,6.83-6.83,6.83c-3.766,0-6.83-3.064-6.83-6.83
		C66.002,365.237,69.066,362.173,72.831,362.173z M258.993,476.975h-35.671l0.309-35.93c6.801-2.26,12.775-5.144,17.861-8.649
		c5.073,3.497,11.03,6.377,17.811,8.634L258.993,476.975z M356.539,422.222c-1.318-0.366-2.71,0.201-3.396,1.378
		c-0.688,1.177-0.494,2.67,0.47,3.634l15.78,15.772c-16.738-1.66-56.031-7.051-84.048-22.677c-1.249-0.697-2.823-0.413-3.75,0.682
		c-0.927,1.094-0.949,2.691-0.055,3.812c4.927,6.164,10.258,12.032,14,16.009c-11.768-0.283-36.102-2.422-52.249-14.529
		c-1.066-0.799-2.532-0.8-3.599,0c-16.13,12.088-40.48,14.236-52.256,14.525c3.742-3.976,9.07-9.843,13.996-16.004
		c0.896-1.12,0.873-2.718-0.054-3.812c-0.927-1.094-2.498-1.38-3.751-0.682c-28.016,15.625-67.305,21.017-84.041,22.677
		l15.773-15.773c0.964-0.964,1.157-2.457,0.47-3.634c-0.688-1.178-2.084-1.744-3.395-1.377c-0.5,0.139-44.708,12.362-76.717,15.135
		c17.785-13.388,37.924-39.279,38.94-40.591c0.687-0.888,0.821-2.085,0.347-3.103c-0.474-1.018-1.477-1.686-2.598-1.731
		c-0.154-0.006-13.778-0.601-24.907-4.512c2.074-2.06,4.193-4.27,6.336-6.6c1.536,0.652,3.224,1.013,4.995,1.013
		c2.824,0,5.43-0.928,7.551-2.48c1.428,5.528,6.442,9.628,12.409,9.628c3.462,0,6.603-1.385,8.913-3.622
		c1.97,4.56,6.507,7.761,11.781,7.761c3.29,0,6.284-1.255,8.558-3.298c1.964,4.571,6.509,7.782,11.792,7.782
		c4.055,0,7.671-1.897,10.023-4.844c2.006,4.474,6.493,7.603,11.706,7.603c3.241,0,6.197-1.218,8.458-3.208
		c1.904,4.705,6.512,8.036,11.891,8.036c3.286,0,6.277-1.252,8.549-3.291c2.112,4.194,6.448,7.085,11.455,7.085
		c3.821,0,7.247-1.688,9.599-4.347c2.222,3.829,6.358,6.416,11.095,6.416c4.051,0,7.663-1.892,10.016-4.834
		c2.145,4.097,6.432,6.903,11.368,6.903c4.051,0,7.663-1.892,10.016-4.834c2.145,4.097,6.432,6.903,11.368,6.903
		c3.812,0,7.23-1.68,9.582-4.328c2.112,4.196,6.448,7.088,11.457,7.088c4.068,0,7.692-1.909,10.044-4.872
		c2.245,3.737,6.327,6.252,10.995,6.252c4.023,0,7.616-1.865,9.97-4.772c2.295,3.493,6.242,5.807,10.724,5.807
		c4.113,0,7.77-1.953,10.119-4.971c2.179,3.986,6.411,6.696,11.265,6.696c4.384,0,8.257-2.213,10.572-5.577
		c2.355,2.774,5.861,4.542,9.777,4.542s7.422-1.768,9.777-4.542c2.315,3.364,6.189,5.577,10.573,5.577
		c4.536,0,8.52-2.372,10.802-5.935c2.314,3.372,6.192,5.59,10.582,5.59c2.962,0,5.686-1.019,7.86-2.711
		c7.373,7.838,13.984,13.974,19.759,18.32C401.23,434.58,357.038,422.361,356.539,422.222z"/>
	<path d="M188.833,186.789c-0.003,1.193,0.701,2.274,1.792,2.755l12.249,5.384l1.262,13.321c0.113,1.188,0.918,2.196,2.052,2.567
		c0.307,0.101,0.623,0.149,0.935,0.149c0.841,0,1.66-0.354,2.239-1.003l8.906-9.986l13.059,2.916
		c1.165,0.262,2.373-0.195,3.076-1.158c0.704-0.963,0.77-2.252,0.168-3.282l-6.745-11.556l6.808-11.519
		c0.607-1.027,0.548-2.316-0.15-3.283c-0.699-0.967-1.904-1.425-3.07-1.175l-13.074,2.843l-8.851-10.034
		c-0.79-0.895-2.035-1.24-3.169-0.871c-1.136,0.365-1.947,1.369-2.066,2.556l-1.336,13.313l-12.278,5.317
		C189.546,184.518,188.836,185.596,188.833,186.789z M206.92,183.533c0.999-0.432,1.685-1.371,1.793-2.454l0.825-8.225l5.468,6.199
		c0.72,0.816,1.825,1.177,2.888,0.947l8.078-1.757l-4.206,7.117c-0.554,0.937-0.557,2.099-0.008,3.039l4.167,7.139l-8.068-1.801
		c-1.062-0.239-2.169,0.119-2.893,0.931l-5.502,6.169l-0.78-8.229c-0.103-1.083-0.784-2.025-1.779-2.463l-7.567-3.327
		L206.92,183.533z"/>
	<path d="M246.592,279.005l-4.171,12.714c-0.372,1.133-0.037,2.38,0.854,3.174c0.889,0.793,2.166,0.985,3.25,0.487l12.157-5.59
		l10.803,7.895c0.525,0.383,1.146,0.578,1.771,0.578c0.521,0,1.043-0.135,1.512-0.409c1.031-0.601,1.606-1.756,1.468-2.94
		l-1.561-13.289l10.848-7.834c0.967-0.699,1.428-1.904,1.175-3.069c-0.254-1.166-1.174-2.071-2.344-2.305l-13.12-2.623l-4.1-12.737
		c-0.365-1.136-1.369-1.947-2.556-2.066c-1.186-0.12-2.332,0.477-2.916,1.517l-6.55,11.667l-13.38-0.038
		c-1.145-0.014-2.274,0.701-2.754,1.792c-0.48,1.092-0.268,2.365,0.541,3.242L246.592,279.005z M254.857,270.179
		c0.003,0,0.006,0,0.009,0c1.085,0,2.085-0.585,2.616-1.532l4.046-7.208l2.533,7.869c0.333,1.036,1.2,1.81,2.268,2.023l8.106,1.62
		l-6.702,4.84c-0.882,0.637-1.35,1.702-1.223,2.782l0.964,8.21l-6.674-4.878c-0.523-0.382-1.145-0.578-1.771-0.578
		c-0.426,0-0.854,0.09-1.253,0.274l-7.512,3.454l2.577-7.855c0.339-1.034,0.092-2.17-0.646-2.969l-5.605-6.076L254.857,270.179z"/>
	<path d="M131.598,344.274l-2.812,13.082c-0.25,1.167,0.213,2.37,1.182,3.066c0.521,0.375,1.135,0.564,1.751,0.564
		c0.529,0,1.059-0.14,1.533-0.421l11.502-6.836l11.573,6.717c1.032,0.599,2.321,0.529,3.282-0.177
		c0.961-0.707,1.413-1.915,1.15-3.079l-2.947-13.052l9.964-8.931c0.888-0.796,1.22-2.043,0.846-3.176s-1.384-1.936-2.572-2.045
		l-13.324-1.23l-5.415-12.236c-0.48-1.086-1.556-1.786-2.743-1.786c-0.005,0-0.01,0-0.016,0c-1.193,0.006-2.269,0.719-2.74,1.814
		l-5.287,12.292l-13.31,1.368c-1.187,0.122-2.188,0.936-2.551,2.072c-0.363,1.136-0.018,2.38,0.879,3.167L131.598,344.274z
		 M138.891,334.629c1.082-0.111,2.02-0.8,2.449-1.799l3.267-7.594l3.345,7.56c0.44,0.995,1.384,1.673,2.467,1.773l8.231,0.76
		l-6.156,5.518c-0.81,0.726-1.164,1.833-0.924,2.895l1.821,8.064l-7.15-4.15c-0.941-0.545-2.104-0.54-3.039,0.016l-7.106,4.224
		l1.737-8.082c0.229-1.063-0.137-2.167-0.954-2.885l-6.212-5.453L138.891,334.629z"/>
	<path d="M311.725,377.625l13.338-1.066l7.427,11.13c0.563,0.843,1.504,1.335,2.494,1.335c0.176,0,0.353-0.015,0.529-0.047
		c1.174-0.21,2.112-1.096,2.39-2.256l3.108-13.014l12.88-3.624c1.148-0.323,1.996-1.296,2.159-2.478s-0.39-2.348-1.407-2.97
		l-11.417-6.978l0.534-13.37c0.047-1.192-0.616-2.299-1.689-2.819c-1.073-0.52-2.354-0.355-3.26,0.421l-10.164,8.702l-12.551-4.639
		c-1.119-0.414-2.377-0.125-3.203,0.735c-0.827,0.86-1.065,2.128-0.607,3.23l5.137,12.356l-8.291,10.502
		c-0.739,0.937-0.854,2.222-0.291,3.274C309.403,377.103,310.547,377.725,311.725,377.625z M323.639,361.598l-3.174-7.634
		l7.754,2.866c1.02,0.377,2.164,0.173,2.991-0.535l6.279-5.376l-0.33,8.26c-0.043,1.087,0.506,2.112,1.434,2.679l7.054,4.311
		l-7.957,2.239c-1.047,0.294-1.853,1.133-2.105,2.191l-1.92,8.041l-4.589-6.876c-0.559-0.838-1.497-1.335-2.494-1.335
		c-0.08,0-0.16,0.003-0.24,0.01l-8.24,0.658l5.122-6.488C323.897,363.754,324.056,362.602,323.639,361.598z"/>
</g>
<g>
</g>
<g>
</g>
<g>
</g>
<g>
</g>
<g>
</g>
<g>
</g>
<g>
</g>
<g>
</g>
<g>
</g>
<g>
</g>
<g>
</g>
<g>
</g>
<g>
</g>
<g>
</g>
<g>
</g>
</svg>
