<?xml version="1.0" encoding="iso-8859-1"?>
<!-- Generator: Adobe Illustrator 18.0.0, SVG Export Plug-In . SVG Version: 6.00 Build 0)  -->
<!DOCTYPE svg PUBLIC "-//W3C//DTD SVG 1.1//EN" "http://www.w3.org/Graphics/SVG/1.1/DTD/svg11.dtd">
<svg version="1.1" id="Capa_1" xmlns="http://www.w3.org/2000/svg" xmlns:xlink="http://www.w3.org/1999/xlink" x="0px" y="0px"
	 viewBox="0 0 482.303 482.303" style="enable-background:new 0 0 482.303 482.303;" xml:space="preserve">
<path d="M392.324,445.022l-70.883-122.773h34.257c1.072,0,2.062-0.572,2.598-1.5c0.536-0.928,0.536-2.072,0-3l-67.944-117.682
	h29.042c1.072,0,2.062-0.571,2.598-1.5c0.536-0.928,0.536-2.071,0-3l-47.369-82.046h28.605c1.072,0,2.062-0.572,2.598-1.5
	c0.536-0.928,0.536-2.072,0-3L243.75,1.5c-0.536-0.928-1.526-1.5-2.598-1.5s-2.062,0.572-2.598,1.5l-62.078,107.521
	c-0.536,0.928-0.536,2.072,0,3c0.536,0.928,1.526,1.5,2.598,1.5h28.605l-47.369,82.046c-0.536,0.929-0.536,2.072,0,3
	c0.536,0.929,1.526,1.5,2.598,1.5h29.042l-67.944,117.682c-0.536,0.928-0.536,2.072,0,3c0.536,0.928,1.526,1.5,2.598,1.5h34.257
	L89.978,445.022c-0.536,0.928-0.536,2.072,0,3c0.536,0.928,1.526,1.5,2.598,1.5h123.383v29.78c0,1.657,1.343,3,3,3h44.373
	c1.657,0,3-1.343,3-3v-29.78h123.394c1.072,0,2.062-0.572,2.598-1.5C392.86,447.095,392.86,445.95,392.324,445.022z
	 M260.332,476.303h-38.373v-26.78h38.373V476.303z M97.773,443.522l70.883-122.773c0.536-0.928,0.536-2.072,0-3
	c-0.536-0.928-1.526-1.5-2.598-1.5H131.8l67.944-117.682c0.536-0.928,0.536-2.071,0-3c-0.536-0.928-1.526-1.5-2.598-1.5h-29.042
	l47.369-82.046c0.536-0.928,0.536-2.072,0-3c-0.536-0.928-1.526-1.5-2.598-1.5H184.27L241.152,9l56.881,98.521h-28.605
	c-1.072,0-2.062,0.572-2.598,1.5c-0.536,0.928-0.536,2.072,0,3l47.369,82.046h-29.042c-1.072,0-2.062,0.572-2.598,1.5
	c-0.536,0.929-0.536,2.072,0,3l67.944,117.682h-34.257c-1.072,0-2.062,0.572-2.598,1.5c-0.536,0.928-0.536,2.072,0,3l70.883,122.773
	H97.773z"/>
<g>
</g>
<g>
</g>
<g>
</g>
<g>
</g>
<g>
</g>
<g>
</g>
<g>
</g>
<g>
</g>
<g>
</g>
<g>
</g>
<g>
</g>
<g>
</g>
<g>
</g>
<g>
</g>
<g>
</g>
</svg>
