<?xml version="1.0" encoding="iso-8859-1"?>
<!-- Generator: Adobe Illustrator 18.0.0, SVG Export Plug-In . SVG Version: 6.00 Build 0)  -->
<!DOCTYPE svg PUBLIC "-//W3C//DTD SVG 1.1//EN" "http://www.w3.org/Graphics/SVG/1.1/DTD/svg11.dtd">
<svg version="1.1" id="Capa_1" xmlns="http://www.w3.org/2000/svg" xmlns:xlink="http://www.w3.org/1999/xlink" x="0px" y="0px"
	 viewBox="0 0 449.534 449.534" style="enable-background:new 0 0 449.534 449.534;" xml:space="preserve">
<path d="M337.736,449.534c-0.009,0-0.019,0-0.028,0L111.77,447.45c-1.61-0.015-2.921-1.298-2.971-2.907
	c-0.05-1.609,1.179-2.971,2.785-3.085l133.999-9.572l-127.791,0.389c-0.003,0-0.006,0-0.009,0c-1.609,0-2.932-1.269-2.998-2.877
	c-0.066-1.611,1.154-2.986,2.762-3.113l141.499-11.16l-136.956-0.867c-1.615-0.01-2.931-1.296-2.979-2.91
	c-0.048-1.614,1.189-2.977,2.8-3.083l105.84-7.005l-101.358,0.357c-0.004,0-0.007,0-0.011,0c-1.611,0-2.936-1.273-2.998-2.884
	c-0.063-1.615,1.166-2.989,2.777-3.107l132.543-9.766l-128.21-2.298c-1.582-0.028-2.87-1.28-2.943-2.861
	c-0.073-1.581,1.094-2.946,2.667-3.121l120.796-13.372l-117.439,2.564c-1.604,0.023-2.979-1.227-3.062-2.848
	c-0.082-1.621,1.14-3.013,2.758-3.143l142.282-11.341l-135.66-10.201c-1.599-0.121-2.82-1.476-2.773-3.079
	c0.046-1.602,1.344-2.885,2.947-2.913l105.115-1.814l-101.591-7.585c-1.589-0.119-2.808-1.459-2.776-3.052
	c0.032-1.593,1.304-2.883,2.896-2.938l109.334-3.749l-105.14-8.28c-1.582-0.125-2.793-1.459-2.764-3.046
	c0.029-1.586,1.29-2.876,2.875-2.942l97.331-4.045l-92.077-5.991c-1.59-0.104-2.822-1.433-2.805-3.026
	c0.018-1.594,1.278-2.896,2.871-2.964l93.218-4.031l-90.771-6.705c-1.571-0.116-2.785-1.428-2.779-3.004s1.23-2.878,2.803-2.981
	l82.787-5.447l-79.108-3.638c-1.527-0.07-2.757-1.278-2.856-2.803c-0.099-1.526,0.965-2.881,2.471-3.148l88.036-15.58l-82.728,1.887
	c-1.602,0.058-2.945-1.188-3.061-2.783c-0.115-1.595,1.041-3,2.628-3.194l93.457-11.429l-88.321-9.637
	c-1.541-0.168-2.699-1.481-2.674-3.031s1.226-2.825,2.771-2.943l62.584-4.791l-59.734-3.111c-1.562-0.082-2.799-1.35-2.843-2.914
	c-0.043-1.563,1.123-2.898,2.678-3.065l56.315-6.057l-51.895-1.155c-1.598-0.036-2.888-1.318-2.932-2.916
	c-0.044-1.598,1.172-2.95,2.766-3.074l59.017-4.605l-54.441-4.59c-1.52-0.128-2.702-1.376-2.747-2.901s1.061-2.84,2.571-3.058
	l62.262-8.968l-59.094-6.015c-1.52-0.154-2.681-1.426-2.696-2.954s1.119-2.823,2.635-3.008l43.769-5.366l-38.409-1.789
	c-1.546-0.072-2.783-1.308-2.857-2.854s1.04-2.894,2.572-3.113l50.858-7.269l-46.274-5.615c-1.538-0.187-2.681-1.513-2.638-3.062
	c0.043-1.548,1.259-2.809,2.804-2.91l39.893-2.593l-38.122-7.425c-1.372-0.268-2.377-1.447-2.424-2.843
	c-0.047-1.397,0.876-2.642,2.227-3.001l34.629-9.21l-29.779-0.864c-1.52-0.044-2.767-1.219-2.901-2.733s0.886-2.891,2.375-3.202
	l34.914-7.295l-28.614-8.517c-1.315-0.392-2.197-1.626-2.142-2.998c0.056-1.371,1.035-2.53,2.378-2.813l22.476-4.744l-18.969-3.961
	c-1.378-0.288-2.371-1.495-2.387-2.903c-0.016-1.408,0.95-2.637,2.322-2.956l17.135-3.977l-13.996-3.287
	c-1.248-0.293-2.172-1.347-2.299-2.623c-0.127-1.276,0.57-2.491,1.736-3.025l14.319-6.559l-10.238-2.199
	c-1.194-0.257-2.114-1.212-2.325-2.416c-0.211-1.204,0.33-2.415,1.366-3.062l10.626-6.637l-6.626-2.547
	c-1.546-0.595-2.318-2.33-1.724-3.877c0.594-1.546,2.328-2.32,3.877-1.724l12.241,4.706c1.062,0.408,1.801,1.382,1.91,2.514
	c0.108,1.132-0.433,2.229-1.397,2.831l-9.448,5.9l11.832,2.542c1.264,0.271,2.212,1.322,2.353,2.607
	c0.14,1.285-0.558,2.515-1.733,3.054l-14.573,6.675l17.982,4.223c1.357,0.318,2.316,1.53,2.314,2.924s-0.964,2.603-2.322,2.918
	L223.972,44.9l19.633,4.1c1.389,0.29,2.385,1.514,2.387,2.933c0.001,1.419-0.992,2.646-2.38,2.938l-24.898,5.255l28.663,8.532
	c1.316,0.392,2.199,1.628,2.142,3s-1.04,2.531-2.384,2.812l-21.65,4.524l24.986,0.725c1.489,0.043,2.721,1.173,2.893,2.653
	s-0.769,2.862-2.209,3.245l-41.956,11.159l48.09,9.366c1.48,0.289,2.516,1.631,2.42,3.136c-0.096,1.505-1.294,2.705-2.8,2.803
	l-30.879,2.007l36.824,4.468c1.494,0.181,2.623,1.441,2.639,2.946c0.016,1.505-1.086,2.789-2.576,3.001l-41.92,5.992l42.188,1.965
	c1.557,0.072,2.799,1.326,2.858,2.883c0.059,1.558-1.085,2.901-2.633,3.091l-52.479,6.434l56.781,5.779
	c1.508,0.153,2.664,1.407,2.696,2.922c0.031,1.515-1.072,2.816-2.572,3.032l-60.403,8.7l65.064,5.486
	c1.557,0.131,2.753,1.436,2.748,2.999c-0.005,1.563-1.208,2.86-2.767,2.981l-36.167,2.822l38.322,0.853
	c1.581,0.035,2.863,1.292,2.931,2.872c0.067,1.58-1.104,2.941-2.677,3.11l-64.954,6.986l68.762,3.581
	c1.58,0.083,2.824,1.377,2.844,2.959c0.019,1.582-1.193,2.907-2.771,3.028l-76.871,5.884l81.962,8.943
	c1.515,0.166,2.665,1.439,2.675,2.963s-1.124,2.813-2.636,2.998l-59.013,7.217l61.411-1.401c1.577-0.017,2.899,1.142,3.054,2.703
	s-0.918,2.977-2.462,3.25l-100.131,17.72l105.735,4.864c1.59,0.073,2.847,1.375,2.862,2.967s-1.215,2.919-2.803,3.023l-93.478,6.15
	l99.035,7.315c1.584,0.117,2.803,1.449,2.778,3.038c-0.024,1.588-1.283,2.883-2.87,2.951l-89.067,3.851l92.947,6.048
	c1.591,0.104,2.824,1.434,2.805,3.029c-0.019,1.595-1.282,2.896-2.875,2.962l-103.717,4.311l108.35,8.533
	c1.586,0.125,2.799,1.466,2.764,3.057c-0.035,1.591-1.306,2.877-2.896,2.932l-107.348,3.681l111.795,8.347
	c1.599,0.12,2.821,1.475,2.775,3.078s-1.344,2.886-2.947,2.914l-105.491,1.821l109.517,8.235c1.563,0.118,2.771,1.418,2.775,2.985
	s-1.2,2.873-2.762,2.998l-77.289,6.161l81.325-1.775c1.6-0.036,2.953,1.2,3.059,2.801s-1.068,3.003-2.664,3.18L177.343,378.4
	l147.009,2.635c1.604,0.029,2.9,1.313,2.945,2.916c0.044,1.603-1.179,2.958-2.779,3.075l-112.504,8.29l111.579-0.393
	c0.004,0,0.007,0,0.011,0c1.616,0,2.942,1.28,2.998,2.896c0.057,1.62-1.183,2.991-2.8,3.098l-118.858,7.866l124.656,0.789
	c1.607,0.01,2.921,1.285,2.979,2.892c0.058,1.606-1.16,2.973-2.762,3.099l-132.779,10.472l136.387-0.416c0.003,0,0.006,0,0.009,0
	c1.613,0,2.938,1.276,2.998,2.889c0.06,1.616-1.171,2.988-2.784,3.104l-147.36,10.526l151.475,1.396
	c1.657,0.016,2.987,1.371,2.972,3.028C340.72,448.209,339.38,449.534,337.736,449.534z"/>
<g>
</g>
<g>
</g>
<g>
</g>
<g>
</g>
<g>
</g>
<g>
</g>
<g>
</g>
<g>
</g>
<g>
</g>
<g>
</g>
<g>
</g>
<g>
</g>
<g>
</g>
<g>
</g>
<g>
</g>
</svg>
