<?xml version="1.0" encoding="iso-8859-1"?>
<!-- Generator: Adobe Illustrator 18.0.0, SVG Export Plug-In . SVG Version: 6.00 Build 0)  -->
<!DOCTYPE svg PUBLIC "-//W3C//DTD SVG 1.1//EN" "http://www.w3.org/Graphics/SVG/1.1/DTD/svg11.dtd">
<svg version="1.1" id="Capa_1" xmlns="http://www.w3.org/2000/svg" xmlns:xlink="http://www.w3.org/1999/xlink" x="0px" y="0px"
	 viewBox="0 0 439.54 439.54" style="enable-background:new 0 0 439.54 439.54;" xml:space="preserve">
<path d="M380.45,344.935c14.883-10.456,22.8-22.357,22.8-34.842c0-15.441-12.1-29.99-34.527-42.013
	c6.417-6.84,9.771-14.19,9.771-21.795c0-14.938-12.908-28.895-36.643-39.927c6.743-6.296,10.459-13.26,10.459-20.629
	c0-12.53-10.737-23.892-28.864-32.782c5.56-5.308,8.617-11.168,8.617-17.362c0-11.662-10.83-22.139-28.819-29.982
	c4.913-4.505,7.63-9.512,7.63-14.819c0-11.145-11.957-20.97-31.143-27.587c5.334-3.99,8.334-8.634,8.334-13.676
	c0-9.194-9.948-17.067-25.924-22.049c2.439-2.354,3.847-5.059,3.847-8.107C265.987,6.786,242.174,0,219.77,0
	s-46.217,6.786-46.217,19.363c0,3.048,1.408,5.753,3.847,8.107c-15.976,4.982-25.924,12.855-25.924,22.049
	c0,5.042,2.999,9.686,8.333,13.676c-19.187,6.618-31.144,16.443-31.144,27.588c0,5.308,2.717,10.315,7.63,14.82
	c-17.989,7.843-28.819,18.32-28.819,29.982c0,6.194,3.057,12.053,8.617,17.362c-18.127,8.89-28.864,20.252-28.864,32.782
	c0,7.368,3.715,14.333,10.459,20.629c-23.735,11.032-36.644,24.989-36.644,39.927c0,7.605,3.354,14.955,9.771,21.795
	c-22.427,12.023-34.526,26.572-34.526,42.013c0,12.485,7.917,24.386,22.8,34.842c-8.948,8.292-13.644,17.339-13.644,26.735
	c0,18.664,18.509,35.95,52.117,48.676c32.689,12.378,76.091,19.194,122.207,19.194s89.517-6.816,122.207-19.194
	c33.608-12.726,52.117-30.012,52.117-48.676C394.094,362.273,389.398,353.227,380.45,344.935z M397.25,310.093
	c0,10.673-7.618,21.31-21.582,30.799c-8.492-6.595-19.797-12.637-33.691-17.898c-22.086-8.363-49.065-14.182-78.463-17.081
	c25.208-2.756,48.33-7.898,67.431-15.13c14.052-5.321,25.201-11.524,33.167-18.326C385.388,283.504,397.25,296.771,397.25,310.093z
	 M110.718,285.172c-12.173-4.609-22.067-9.923-29.342-15.636c3.71-1.719,7.657-3.376,11.838-4.959
	c33.757-12.782,78.702-19.821,126.556-19.821s92.799,7.039,126.556,19.821c4.181,1.583,8.127,3.24,11.838,4.959
	c-7.275,5.713-17.169,11.027-29.343,15.636c-29.081,11.011-67.81,17.075-109.051,17.075S139.8,296.183,110.718,285.172z
	 M339.852,328.605c12.342,4.673,22.561,10.01,30.371,15.745c-6.807,4.032-14.807,7.816-23.897,11.258
	c-33.757,12.782-78.702,19.821-126.556,19.821s-92.799-7.039-126.556-19.821c-9.09-3.442-17.091-7.226-23.898-11.258
	c7.81-5.736,18.029-11.072,30.371-15.745c32.027-12.127,74.674-18.806,120.082-18.806S307.825,316.479,339.852,328.605z
	 M179.553,19.363c0-5.58,15.3-13.363,40.217-13.363s40.217,7.783,40.217,13.363c0,1.916-1.804,4.092-5.182,6.123
	c-10.125-2.356-22.042-3.689-35.035-3.689s-24.91,1.333-35.035,3.689C181.357,23.455,179.553,21.279,179.553,19.363z
	 M244.517,29.674c-6.502,1.826-14.865,3.052-24.747,3.052c-9.894,0-18.264-1.229-24.769-3.059c7.727-1.226,16.11-1.871,24.769-1.871
	C228.759,27.797,237.075,28.487,244.517,29.674z M157.476,49.52c0-5.191,6.265-10.54,17.187-14.676
	c2.891-1.095,6.02-2.068,9.337-2.919c9.021,4.465,22.634,6.802,35.771,6.802c13.124,0,26.725-2.332,35.745-6.789
	c16.515,4.255,26.548,11.148,26.548,17.582c0,3.887-3.513,7.862-9.861,11.35c-14.736-4.076-32.762-6.446-52.432-6.446
	c-19.64,0-37.641,2.362-52.364,6.427C161.039,57.347,157.476,53.352,157.476,49.52z M263.261,64.779
	c-11.806,4.172-27.156,6.464-43.491,6.464c-17.554,0-32.552-2.621-43.437-6.476c12.355-2.704,27.02-4.343,43.437-4.343
	C236.211,60.424,250.895,62.068,263.261,64.779z M134.666,90.783c0-8.61,11.805-17.573,31.85-23.509
	c12.317,6.162,31.255,9.969,53.254,9.969c21.999,0,40.938-3.807,53.254-9.969c20.045,5.936,31.849,14.899,31.849,23.509
	c0,4.153-2.748,8.388-7.838,12.326c-19.989-7.418-47.055-11.907-77.266-11.907c-30.211,0-57.277,4.49-77.266,11.908
	C137.414,99.171,134.666,94.936,134.666,90.783z M290.601,107.245c-14.606,7.969-39.556,13.898-70.831,13.898
	s-56.225-5.929-70.832-13.898c18.961-6.207,43.92-10.042,70.832-10.042C246.681,97.202,271.64,101.038,290.601,107.245z
	 M113.477,135.585c0-9.805,10.814-18.892,28.276-25.761c15.826,10.463,44.545,17.319,78.017,17.319
	c33.471,0,62.19-6.856,78.016-17.319c17.462,6.869,28.276,15.956,28.276,25.761c0,5.175-3.014,10.15-8.425,14.705
	c-24.057-10.266-58.726-16.61-97.867-16.61c-39.142,0-73.811,6.343-97.868,16.61C116.491,145.735,113.477,140.76,113.477,135.585z
	 M311.789,154.487c-18.576,11.533-53.276,19.481-92.019,19.481c-38.743,0-73.443-7.948-92.02-19.481
	c23.278-9.053,56.194-14.807,92.02-14.807C255.595,139.68,288.51,145.435,311.789,154.487z M93.23,185.729
	c0-10.661,10.576-20.613,28.031-28.519c18.923,13.677,55.536,22.759,98.509,22.759s79.585-9.081,98.508-22.759
	c17.455,7.906,28.031,17.859,28.031,28.519c0,6.345-3.751,12.439-10.464,18.001c-1.594-0.66-3.222-1.309-4.9-1.944
	c-29.743-11.263-69.227-17.465-111.176-17.465s-81.433,6.202-111.176,17.465c-1.677,0.635-3.306,1.285-4.9,1.945
	C96.981,198.168,93.23,192.074,93.23,185.729z M330.11,207.897c-21.909,14.11-63.656,23.881-110.34,23.881
	c-46.685,0-88.432-9.771-110.341-23.881c0.43-0.167,0.854-0.335,1.289-0.5c29.082-11.012,67.811-17.076,109.052-17.076
	s79.97,6.064,109.051,17.076C329.256,207.561,329.68,207.73,330.11,207.897z M67.045,246.284c0-12.801,12.932-25.576,35.801-35.667
	c22.14,16.302,65.706,27.161,116.924,27.161s94.784-10.858,116.923-27.16c22.868,10.091,35.801,22.866,35.801,35.667
	c0,6.429-3.271,12.85-9.413,18.93c-4.524-2.179-9.398-4.267-14.63-6.248c-34.419-13.032-80.119-20.21-128.681-20.21
	s-94.262,7.178-128.681,20.21c-5.232,1.981-10.106,4.069-14.63,6.248C70.316,259.135,67.045,252.713,67.045,246.284z
	 M42.291,310.093c0-13.322,11.862-26.589,33.136-37.636c7.966,6.802,19.115,13.005,33.167,18.326
	c19.101,7.232,42.223,12.374,67.431,15.13c-29.398,2.899-56.377,8.718-78.463,17.081c-13.894,5.261-25.199,11.303-33.691,17.898
	C49.908,331.402,42.291,320.765,42.291,310.093z M339.852,414.734c-32.027,12.127-74.674,18.806-120.082,18.806
	s-88.055-6.679-120.082-18.806c-30.659-11.608-48.242-27.305-48.242-43.064c0-7.956,4.487-15.895,12.868-23.3
	c7.518,4.634,16.465,8.946,26.775,12.85c34.419,13.032,80.119,20.21,128.681,20.21s94.262-7.178,128.681-20.21
	c10.31-3.904,19.257-8.216,26.775-12.85c8.382,7.406,12.869,15.344,12.869,23.3C388.094,387.43,370.51,403.126,339.852,414.734z"/>
<g>
</g>
<g>
</g>
<g>
</g>
<g>
</g>
<g>
</g>
<g>
</g>
<g>
</g>
<g>
</g>
<g>
</g>
<g>
</g>
<g>
</g>
<g>
</g>
<g>
</g>
<g>
</g>
<g>
</g>
</svg>
