<?xml version="1.0" encoding="iso-8859-1"?>
<!-- Generator: Adobe Illustrator 18.0.0, SVG Export Plug-In . SVG Version: 6.00 Build 0)  -->
<!DOCTYPE svg PUBLIC "-//W3C//DTD SVG 1.1//EN" "http://www.w3.org/Graphics/SVG/1.1/DTD/svg11.dtd">
<svg version="1.1" id="Capa_1" xmlns="http://www.w3.org/2000/svg" xmlns:xlink="http://www.w3.org/1999/xlink" x="0px" y="0px"
	 viewBox="0 0 480.743 480.743" style="enable-background:new 0 0 480.743 480.743;" xml:space="preserve">
<path d="M364.104,415.555L243.252,2.158C242.878,0.879,241.705,0,240.372,0s-2.506,0.879-2.88,2.158L116.64,415.555
	c-0.226,0.771-0.132,1.601,0.26,2.303s1.049,1.217,1.823,1.431c33.235,9.153,67.264,14.468,101.423,15.976v38.065
	c0,1.098,0.6,2.108,1.563,2.634c5.843,3.187,12.253,4.78,18.662,4.78s12.819-1.593,18.662-4.78c0.964-0.526,1.563-1.536,1.563-2.634
	v-38.065c34.159-1.508,68.188-6.823,101.424-15.976c0.774-0.213,1.432-0.729,1.823-1.431S364.329,416.326,364.104,415.555z
	 M353.053,399.139c-11.714,8.797-24.103,16.928-36.872,24.179c-20.257,3.444-40.693,5.509-61.165,6.172
	c33.015-12.266,63.865-29.402,91.971-51.1L353.053,399.139z M212.885,107.716c15.882-9.78,31.085-20.921,45.281-33.157l6.14,21.002
	c-18.443,15.503-38.478,29.053-59.666,40.357L212.885,107.716z M202.303,143.913c22.688-11.621,44.14-25.754,63.841-42.064
	l10.931,37.393c-27.161,26.011-58.029,47.232-91.868,63.148L202.303,143.913z M182.976,210.023
	c35.364-15.993,67.626-37.614,95.991-64.31l6.198,21.201c-32.172,29.537-68.96,52.37-109.451,67.951L182.976,210.023z
	 M173.604,242.082c41.963-15.531,80.09-38.657,113.432-68.769l11.287,38.61c-39.492,37.62-87.61,65.529-139.573,80.969
	L173.604,242.082z M156.756,299.713c53.297-15.189,102.766-43.235,143.459-81.317l6.188,21.169
	c-44.158,40.343-97.942,68.514-155.948,81.701L156.756,299.713z M148.535,327.834c59.306-12.887,114.4-41.13,159.741-81.866
	l13.608,46.547c-52.968,46.89-117.72,75.945-187.647,84.229L148.535,327.834z M132.41,382.995
	c71.186-7.917,137.196-36.952,191.331-84.126l6.144,21.015c-28.256,24.006-59.927,43.195-94.18,57.026
	c-34.637,13.985-71.168,22.165-108.64,24.369L132.41,382.995z M240.372,13.691l15.942,54.534
	c-12.852,11.255-26.567,21.6-40.893,30.815L240.372,13.691z M125.278,407.39c38.873-2.051,76.771-10.42,112.672-24.917
	c34.026-13.739,65.546-32.677,93.773-56.296l13.455,46.024c-32.869,25.726-69.602,45.069-109.234,57.49
	c-37.907-0.371-75.778-5.491-112.688-15.389L125.278,407.39z M254.597,471.496c-9.025,4.325-19.426,4.325-28.451,0v-35.999
	c4.741,0.147,9.484,0.229,14.227,0.229c4.742,0,9.484-0.082,14.225-0.229V471.496z M333.255,420.076
	c7.388-4.666,14.604-9.611,21.595-14.79l2.636,9.017C349.452,416.458,341.371,418.373,333.255,420.076z"/>
<g>
</g>
<g>
</g>
<g>
</g>
<g>
</g>
<g>
</g>
<g>
</g>
<g>
</g>
<g>
</g>
<g>
</g>
<g>
</g>
<g>
</g>
<g>
</g>
<g>
</g>
<g>
</g>
<g>
</g>
</svg>
