<?xml version="1.0" encoding="iso-8859-1"?>
<!-- Generator: Adobe Illustrator 18.0.0, SVG Export Plug-In . SVG Version: 6.00 Build 0)  -->
<!DOCTYPE svg PUBLIC "-//W3C//DTD SVG 1.1//EN" "http://www.w3.org/Graphics/SVG/1.1/DTD/svg11.dtd">
<svg version="1.1" id="Capa_1" xmlns="http://www.w3.org/2000/svg" xmlns:xlink="http://www.w3.org/1999/xlink" x="0px" y="0px"
	 viewBox="0 0 474.153 474.153" style="enable-background:new 0 0 474.153 474.153;" xml:space="preserve">
<path d="M355.438,373.481c-0.905-1.387-2.767-1.778-4.152-0.871l-111.209,72.632V422.25l106.938-69.844
	c1.387-0.906,1.777-2.765,0.871-4.152s-2.767-1.778-4.152-0.871l-103.656,67.702v-22.992l99.385-64.913
	c1.387-0.906,1.777-2.765,0.871-4.152c-0.906-1.387-2.766-1.778-4.152-0.871l-96.104,62.771v-22.993l91.822-59.972
	c1.387-0.906,1.777-2.765,0.871-4.152s-2.767-1.778-4.152-0.871l-88.541,57.829v-22.992l84.27-55.031
	c1.387-0.906,1.777-2.765,0.871-4.152c-0.906-1.388-2.765-1.779-4.152-0.872l-80.988,52.889v-22.993l76.717-50.101
	c1.387-0.906,1.777-2.765,0.871-4.152c-0.905-1.388-2.767-1.778-4.152-0.872l-73.436,47.958v-22.992l69.153-45.16
	c1.387-0.906,1.777-2.765,0.871-4.152c-0.906-1.388-2.764-1.779-4.152-0.872l-65.872,43.017V241.3l61.601-40.229
	c1.387-0.906,1.777-2.765,0.871-4.152c-0.906-1.388-2.766-1.779-4.152-0.872l-58.319,38.087v-22.993l54.049-35.298
	c1.387-0.906,1.777-2.765,0.871-4.152s-2.767-1.777-4.152-0.871l-50.768,33.156v-22.992l46.485-30.357
	c1.387-0.906,1.777-2.765,0.871-4.152c-0.906-1.388-2.767-1.779-4.152-0.872l-43.204,28.215v-22.993l38.933-25.426
	c1.387-0.906,1.777-2.765,0.871-4.152c-0.905-1.388-2.767-1.778-4.152-0.871l-35.651,23.284v-22.982l31.38-20.495
	c1.387-0.906,1.777-2.765,0.871-4.152s-2.767-1.777-4.152-0.871l-28.099,18.353V90.518l23.827-15.566
	c1.387-0.906,1.777-2.765,0.871-4.152c-0.906-1.387-2.766-1.778-4.152-0.871l-20.546,13.422V60.36l16.265-10.625
	c1.387-0.906,1.777-2.765,0.871-4.152s-2.767-1.777-4.152-0.871l-12.983,8.481V30.201l8.712-5.693
	c1.388-0.906,1.777-2.765,0.871-4.152c-0.907-1.388-2.767-1.778-4.152-0.87l-5.431,3.548V3c0-1.657-1.343-3-3-3s-3,1.343-3,3v20.033
	l-5.429-3.548c-1.387-0.906-3.246-0.517-4.152,0.87c-0.906,1.387-0.517,3.246,0.87,4.152l8.711,5.693v22.992l-12.982-8.481
	c-1.388-0.906-3.247-0.516-4.152,0.871c-0.906,1.387-0.516,3.246,0.871,4.152l16.263,10.624v22.991l-20.545-13.422
	c-1.388-0.906-3.246-0.516-4.152,0.871c-0.906,1.387-0.516,3.246,0.871,4.152l23.826,15.565v22.992l-28.098-18.352
	c-1.387-0.905-3.247-0.515-4.152,0.871c-0.906,1.387-0.516,3.246,0.871,4.152l31.379,20.495v22.982l-35.65-23.283
	c-1.388-0.906-3.246-0.516-4.152,0.871c-0.906,1.387-0.516,3.247,0.871,4.152l38.932,25.426v22.993l-43.204-28.215
	c-1.386-0.906-3.246-0.515-4.152,0.871c-0.906,1.388-0.516,3.247,0.871,4.152l46.484,30.357v22.992l-50.766-33.155
	c-1.388-0.905-3.247-0.515-4.152,0.871c-0.906,1.387-0.516,3.247,0.871,4.152l54.047,35.298v22.993l-58.319-38.086
	c-1.387-0.906-3.246-0.516-4.152,0.872s-0.516,3.246,0.872,4.152l61.6,40.229v22.992l-65.872-43.017
	c-1.386-0.906-3.246-0.516-4.152,0.872c-0.906,1.387-0.516,3.246,0.872,4.152l69.152,45.159v22.992l-73.435-47.958
	c-1.386-0.905-3.246-0.515-4.152,0.871c-0.906,1.388-0.516,3.247,0.872,4.152l76.715,50.1v22.993l-80.988-52.889
	c-1.386-0.906-3.246-0.516-4.152,0.872c-0.906,1.387-0.516,3.246,0.872,4.152l84.268,55.031v22.992l-88.54-57.829
	c-1.388-0.905-3.247-0.515-4.152,0.871c-0.906,1.387-0.516,3.246,0.871,4.152l91.821,59.972v22.992l-96.103-62.771
	c-1.387-0.906-3.246-0.515-4.152,0.871c-0.906,1.387-0.516,3.246,0.871,4.152l99.384,64.913v22.992l-103.656-67.701
	c-1.388-0.906-3.247-0.516-4.152,0.871c-0.906,1.387-0.516,3.247,0.871,4.152l106.937,69.844v22.992L122.868,372.61
	c-1.387-0.905-3.246-0.515-4.152,0.871c-0.906,1.387-0.516,3.247,0.871,4.152l114.49,74.774v18.745c0,1.657,1.343,3,3,3s3-1.343,3-3
	v-18.745l114.49-74.774C355.953,376.728,356.344,374.869,355.438,373.481z"/>
<g>
</g>
<g>
</g>
<g>
</g>
<g>
</g>
<g>
</g>
<g>
</g>
<g>
</g>
<g>
</g>
<g>
</g>
<g>
</g>
<g>
</g>
<g>
</g>
<g>
</g>
<g>
</g>
<g>
</g>
</svg>
