<?xml version="1.0" encoding="iso-8859-1"?>
<!-- Generator: Adobe Illustrator 18.0.0, SVG Export Plug-In . SVG Version: 6.00 Build 0)  -->
<!DOCTYPE svg PUBLIC "-//W3C//DTD SVG 1.1//EN" "http://www.w3.org/Graphics/SVG/1.1/DTD/svg11.dtd">
<svg version="1.1" id="Capa_1" xmlns="http://www.w3.org/2000/svg" xmlns:xlink="http://www.w3.org/1999/xlink" x="0px" y="0px"
	 viewBox="0 0 464.479 464.479" style="enable-background:new 0 0 464.479 464.479;" xml:space="preserve">
<g>
	<path d="M132.154,100.322l179.088,18.974c0.106,0.011,0.211,0.017,0.316,0.017c1.023,0,1.984-0.523,2.538-1.4
		c0.61-0.968,0.616-2.198,0.017-3.172L244.383,1.428c-0.461-0.749-1.227-1.258-2.096-1.393c-0.87-0.134-1.753,0.118-2.418,0.693
		L130.51,95.067c-0.906,0.781-1.261,2.025-0.904,3.167S130.965,100.196,132.154,100.322z M241.119,7.573l64.685,105.113
		L139.675,95.085L241.119,7.573z"/>
	<path d="M126.452,212.409c0.084,0,0.169-0.004,0.254-0.011l197.083-16.694c1.078-0.091,2.023-0.756,2.474-1.74
		c0.451-0.983,0.336-2.134-0.298-3.01l-50.329-69.43c-0.516-0.712-1.317-1.161-2.193-1.23l-107.801-8.478
		c-1.31-0.096-2.514,0.646-3.009,1.849l-38.954,94.602c-0.398,0.968-0.264,2.072,0.354,2.916
		C124.6,211.957,125.501,212.409,126.452,212.409z M167.348,117.97l104.242,8.197l46.398,64.007l-186.89,15.831L167.348,117.97z"/>
	<path d="M101.352,296.64l252.292,7.867c0.032,0.002,0.063,0.002,0.094,0.002c1.112,0,2.137-0.617,2.656-1.606
		c0.534-1.018,0.439-2.25-0.243-3.175l-66.985-90.765c-0.606-0.822-1.59-1.274-2.608-1.213l-141.375,9.146
		c-0.986,0.064-1.878,0.609-2.383,1.459l-43.932,73.75c-0.544,0.912-0.564,2.045-0.054,2.977
		C99.325,296.014,100.29,296.606,101.352,296.64z M147.147,222.782l138.165-8.938l62.343,84.474l-241.025-7.517L147.147,222.782z"/>
	<path d="M382.39,413.765l-50.083-100.167c-0.491-0.981-1.479-1.617-2.576-1.656l-196.504-7.055
		c-1.193-0.054-2.312,0.635-2.823,1.723L82.057,409.557c-0.433,0.923-0.369,2.001,0.171,2.865s1.481,1.396,2.5,1.41l294.935,4.274
		c0.015,0,0.029,0,0.043,0c1.031,0,1.991-0.529,2.541-1.404C382.805,415.815,382.859,414.702,382.39,413.765z M89.464,407.899
		l45.529-96.945l192.744,6.92l47.081,94.161L89.464,407.899z"/>
	<path d="M271.551,423.237l-63.068-1.855c-1.448-0.044-2.725,0.96-3.024,2.381l-7.419,35.244c-0.184,0.871,0.029,1.779,0.582,2.478
		c0.552,0.698,1.385,1.116,2.275,1.14l70.487,1.854c0.027,0.001,0.053,0.001,0.079,0.001c0.781,0,1.532-0.305,2.093-0.851
		c0.58-0.565,0.907-1.34,0.907-2.149v-35.243C274.463,424.614,273.173,423.285,271.551,423.237z M268.463,458.399l-63.81-1.679
		l6.161-29.268l57.649,1.696V458.399z"/>
</g>
<g>
</g>
<g>
</g>
<g>
</g>
<g>
</g>
<g>
</g>
<g>
</g>
<g>
</g>
<g>
</g>
<g>
</g>
<g>
</g>
<g>
</g>
<g>
</g>
<g>
</g>
<g>
</g>
<g>
</g>
</svg>
