<?xml version="1.0" encoding="iso-8859-1"?>
<!-- Generator: Adobe Illustrator 18.0.0, SVG Export Plug-In . SVG Version: 6.00 Build 0)  -->
<!DOCTYPE svg PUBLIC "-//W3C//DTD SVG 1.1//EN" "http://www.w3.org/Graphics/SVG/1.1/DTD/svg11.dtd">
<svg version="1.1" id="Capa_1" xmlns="http://www.w3.org/2000/svg" xmlns:xlink="http://www.w3.org/1999/xlink" x="0px" y="0px"
	 viewBox="0 0 474.589 474.589" style="enable-background:new 0 0 474.589 474.589;" xml:space="preserve">
<g>
	<path d="M356.725,445.833l-5.558-2.003l1.147-3.158c0.221-0.608,0.239-1.271,0.053-1.89l-1.491-4.949
		c-0.037-0.123-0.082-0.242-0.134-0.359l-1.661-3.717l1.567-4.802c0.284-0.869,0.155-1.82-0.348-2.583l-2.992-4.535
		c-0.181-0.274-0.405-0.517-0.665-0.718l-2.785-2.161l3.195-4.388c0.472-0.648,0.665-1.459,0.535-2.251s-0.572-1.499-1.227-1.962
		l-4.448-3.149l-0.772-3.909c-0.083-0.421-0.255-0.819-0.505-1.167l-2.126-2.962l2.464-4.652c0.628-1.187,0.392-2.646-0.58-3.574
		l-3.015-2.879l1.237-4.096c0.42-1.392-0.218-2.886-1.516-3.543l-4.084-2.07l1.935-3.61c0.359-0.67,0.451-1.452,0.255-2.188
		l-1.325-4.991c-0.054-0.204-0.13-0.402-0.226-0.591l-2.392-4.7c-0.253-0.498-0.641-0.915-1.119-1.205l-4.244-2.572l0.732-3.628
		c0.176-0.872-0.044-1.776-0.6-2.47l-2.383-2.974l1.908-4.443c0.007-0.017,0.01-0.035,0.017-0.052
		c0.053-0.131,0.094-0.263,0.128-0.397c0.012-0.048,0.025-0.095,0.034-0.143c0.028-0.139,0.045-0.277,0.053-0.416
		c0.002-0.026,0.009-0.051,0.01-0.078l0.176-5.415c0.032-0.994-0.43-1.938-1.233-2.523l-4.375-3.183l-0.621-3.103l1.879-5.186
		c0.545-1.506-0.188-3.174-1.666-3.791l-5.5-2.295l0.463-2.794l3.115-5.873c0.608-1.147,0.41-2.556-0.492-3.49l-3.92-4.06
		l-2.39-3.312l0.61-4.388c0.052-0.371,0.034-0.748-0.054-1.111l-1.201-5.021c-0.057-0.237-0.142-0.467-0.254-0.684l-2.433-4.69
		c-0.17-0.329-0.4-0.623-0.677-0.867l-3.983-3.518l-1.045-3.311l1.202-4.748l2.338-5.852c0.309-0.771,0.283-1.636-0.07-2.388
		l-2.226-4.742c-0.299-0.636-0.812-1.147-1.448-1.444l-5.744-2.678l-0.454-2.924l1.408-5.204c0.153-0.567,0.137-1.167-0.047-1.725
		l-1.625-4.918c-0.122-0.367-0.313-0.707-0.563-1.001l-2.243-2.64l3.025-4.682c0.479-0.741,0.607-1.655,0.351-2.499l-1.501-4.949
		c-0.228-0.752-0.743-1.385-1.433-1.762l-4.909-2.681l0.062-3.58c0.002-0.136-0.004-0.273-0.021-0.408l-0.621-5.187
		c-0.033-0.275-0.104-0.545-0.211-0.801l-2.009-4.804c-0.103-0.247-0.239-0.479-0.403-0.689l-2.928-3.749l-0.549-4.367
		c-0.044-0.348-0.148-0.686-0.309-0.998l-1.739-3.38l2.264-4.836c0.505-1.078,0.325-2.353-0.459-3.248l-3.23-3.689l-0.692-3.879
		l0.489-5.11c0.081-0.847-0.201-1.688-0.776-2.314l-3.678-4.008l-2.176-3.883l-0.793-4.617c-0.091-0.531-0.323-1.027-0.672-1.437
		l-2.864-3.364l0.341-3.63l3.171-5.793c0.795-1.453,0.263-3.275-1.19-4.071l-5.231-2.867l-0.643-3.484l-0.176-5.014l0.082-5.308
		c0.006-0.374-0.058-0.745-0.189-1.095l-1.812-4.856c-0.158-0.423-0.41-0.806-0.736-1.119l-3.343-3.2l0.206-3.854l1.058-5.471
		c0.143-0.739,0.003-1.506-0.393-2.146l-2.751-4.454l-1.682-3.417l1.791-4.77c0.536-1.426-0.083-3.028-1.439-3.724l-4.494-2.305
		l1.115-3.466c0.176-0.549,0.191-1.137,0.042-1.694l-1.335-4.99c-0.157-0.587-0.488-1.112-0.951-1.507l-3.984-3.399l-0.955-4.064
		c-0.013-0.054-0.027-0.107-0.042-0.161l-2.884-9.902c-0.022-0.078-0.048-0.155-0.077-0.23l-0.755-1.997l10.039,5.897
		c0.471,0.276,0.996,0.413,1.519,0.413c0.621,0,1.24-0.192,1.764-0.573c0.965-0.701,1.423-1.908,1.167-3.073l-3.223-14.625
		l11.204-9.938c0.893-0.792,1.231-2.037,0.862-3.171c-0.369-1.134-1.375-1.943-2.562-2.059l-14.905-1.454L239.562,1.8
		c-0.477-1.093-1.557-1.8-2.75-1.8s-2.272,0.707-2.75,1.8l-5.989,13.726l-14.905,1.454c-1.188,0.116-2.193,0.924-2.562,2.059
		c-0.369,1.135-0.03,2.38,0.862,3.171l11.204,9.938l-3.223,14.625c-0.257,1.165,0.201,2.372,1.167,3.073
		c0.965,0.701,2.254,0.765,3.283,0.16l9.495-5.577l0.092,0.246l0.188,2.457l-0.853,3.16l-5.866,2.792
		c-0.724,0.345-1.279,0.964-1.543,1.721c-0.264,0.757-0.214,1.588,0.139,2.308l2.306,4.705l-4.833,7.629l-3.16,4.403
		c-0.26,0.362-0.436,0.777-0.515,1.216l-0.921,5.104c-0.032,0.174-0.047,0.35-0.048,0.527l-0.01,5.363c0,0.144,0.01,0.288,0.03,0.43
		l0.596,4.172l-2.971,3.229c-0.03,0.033-0.05,0.072-0.078,0.106c-0.082,0.098-0.157,0.199-0.225,0.304
		c-0.046,0.071-0.089,0.141-0.128,0.215c-0.056,0.105-0.103,0.212-0.145,0.322c-0.032,0.083-0.064,0.166-0.089,0.252
		c-0.031,0.107-0.051,0.214-0.069,0.323c-0.016,0.094-0.034,0.185-0.042,0.28c-0.008,0.11-0.003,0.219,0.001,0.329
		c0.003,0.077-0.008,0.152,0.001,0.229l0.595,5.388l0.065,4.257l-2.638,3.656c-0.427,0.592-0.624,1.32-0.553,2.047l0.478,4.89
		l-1.067,3.249l-5.181,3.07c-0.675,0.4-1.166,1.048-1.369,1.805l-1.336,4.99c-0.164,0.611-0.13,1.258,0.096,1.848l1.459,3.813
		l-3.572,2.489c-0.664,0.462-1.112,1.172-1.245,1.97s0.063,1.615,0.542,2.267l3.331,4.536l-2.552,2.264
		c-0.64,0.568-1.007,1.383-1.009,2.238l-0.008,4.416l-2.612,3.708c-0.155,0.22-0.28,0.46-0.371,0.714l-1.75,4.877
		c-0.042,0.119-0.078,0.24-0.105,0.364l-1.099,4.958l-0.017,0.067c-0.001,0.006-0.003,0.013-0.005,0.019l-1.241,4.925
		c-0.164,0.651-0.105,1.339,0.168,1.953l1.649,3.705l-3.798,2.305c-1.373,0.833-1.846,2.6-1.073,4.008l2.729,4.971l-1.25,2.55
		l-5.164,3.264c-1.355,0.856-1.797,2.628-1.003,4.021l2.466,4.328l-2.674,2.523c-0.377,0.355-0.655,0.802-0.808,1.297l-1.32,4.273
		l-3.488,3.753c-0.771,0.83-1.009,2.023-0.616,3.086l2.005,5.406l-0.151,3.515l-3.401,3.343c-0.125,0.123-0.238,0.256-0.34,0.398
		l-3.189,4.473c-0.106,0.148-0.198,0.307-0.275,0.472l-2.216,4.742c-0.391,0.836-0.375,1.805,0.042,2.627l2.513,4.952l-1.617,3.412
		c-0.038,0.08-0.072,0.161-0.103,0.243l-1.801,4.866c-0.244,0.658-0.249,1.381-0.015,2.043l1.74,4.913l-1.156,2.964l-4.669,3.343
		c-0.998,0.714-1.459,1.964-1.167,3.156l1.317,5.354l-0.184,4.491l-1.121,3.58l-4.615,3.255c-1.104,0.779-1.552,2.2-1.093,3.471
		l1.241,3.435l-4.554,2.232c-1.416,0.694-2.053,2.367-1.457,3.827l1.666,4.083l-3.035,2.65c-0.978,0.854-1.295,2.239-0.788,3.434
		l1.886,4.437l-2.397,2.99c-0.023,0.029-0.045,0.058-0.067,0.087l-3.303,4.442c-0.71,0.955-0.789,2.238-0.201,3.272l2.93,5.156
		l-0.958,2.554l-5.232,3.106c-1.16,0.688-1.718,2.067-1.363,3.369l1.36,4.986l-1.149,3.897l-2.181,4.51
		c-0.032,0.067-0.063,0.135-0.09,0.204l-1.905,4.825c-0.217,0.55-0.267,1.152-0.143,1.73l0.873,4.074l-3.117,3.005
		c-0.335,0.323-0.59,0.719-0.746,1.157l-1.729,4.876c-0.265,0.748-0.223,1.57,0.117,2.288l2.077,4.382l-2.503,2.801
		c-0.404,0.452-0.662,1.017-0.739,1.619l-0.514,4.021l-3.901,3.263c-1.113,0.931-1.401,2.525-0.682,3.787l3.214,5.641l-0.082,2.461
		l-6.303,2.369c-1.04,0.391-1.779,1.325-1.92,2.427l-0.6,4.687l-2.082,4.267c-0.269,0.55-0.362,1.17-0.268,1.776l0.857,5.508
		l0.562,4.563l-2.14,3.765c-0.13,0.229-0.23,0.476-0.296,0.731l-1.294,5.001c-0.109,0.422-0.125,0.863-0.047,1.292l0.735,4.013
		l-3.28,2.979c-0.705,0.64-1.063,1.576-0.968,2.523c0.054,0.535,0.25,1.037,0.557,1.46c-0.249,1.176,0.23,2.392,1.222,3.082
		c1.014,0.705,2.355,0.717,3.381,0.032l4.201-2.808l2.545,2.533c0.68,0.677,1.645,0.986,2.592,0.835l3.964-0.637l3.327,3.107
		c0.437,0.408,0.986,0.676,1.576,0.771l4.949,0.788l4.879,1.203c0.605,0.149,1.244,0.105,1.825-0.125l3.359-1.333l2.858,4.15
		c0.484,0.703,1.245,1.166,2.091,1.274c0.848,0.106,1.699-0.15,2.344-0.708l4.058-3.516l2.694,2.196
		c0.089,0.073,0.183,0.14,0.279,0.202l4.793,3.065c0.457,0.292,0.984,0.455,1.526,0.471l5.167,0.155
		c0.601,0.024,1.19-0.144,1.697-0.465l3.288-2.085l2.927,3.63c0.844,1.046,2.281,1.404,3.515,0.875l4.869-2.083l3.77-0.159
		l4.229,2.361c0.342,0.191,0.719,0.313,1.108,0.36l5.135,0.611c0.819,0.099,1.635-0.144,2.267-0.668l3.785-3.132l3.252,1.753
		c0.916,0.494,2.02,0.478,2.92-0.041l4.871-2.804l4.312-1.203l4.341,0.159l4.825,1.116c0.131,0.03,0.264,0.052,0.397,0.064
		l4.753,0.443l4.523,1.568l4.988,3.024c0.469,0.284,1.007,0.435,1.555,0.435c0.012,0,0.024,0,0.036,0l5.177-0.062
		c0.908-0.011,1.763-0.433,2.324-1.148l3.448-4.395l3.213,1.176c0.211,0.078,0.43,0.131,0.653,0.159l5.208,0.663
		c0.222,0.028,0.446,0.032,0.668,0.01l4.967-0.482l5.018,0.01c0.002,0,0.004,0,0.006,0c0.875,0,1.707-0.382,2.276-1.046l2.947-3.433
		l3.369,1.968c0.52,0.304,1.12,0.444,1.718,0.403l5.135-0.352c0.529-0.037,1.04-0.212,1.479-0.51l4.183-2.837l3.672-0.595
		l4.78,1.582c0.958,0.318,2.01,0.131,2.802-0.494l4.453-3.518l3.032-1.88l4.276,2.325c0.376,0.204,0.791,0.326,1.218,0.356
		l5.322,0.383c0.632,0.047,1.269-0.112,1.81-0.451l3.334-2.092l4.384,1.79c1.387,0.566,2.982,0.021,3.732-1.277l0.965-1.672
		c0.363,0.132,0.759,0.191,1.16,0.177c1.438-0.066,2.625-1.143,2.832-2.566l0.26-1.789l1.355-5.633
		C358.982,447.871,358.164,446.352,356.725,445.833z M227.973,28.829l-7.378-6.544l9.815-0.958c1.083-0.105,2.023-0.789,2.458-1.786
		l3.944-9.039l3.944,9.039c0.435,0.997,1.375,1.681,2.458,1.786l9.815,0.958l-7.378,6.544c-0.814,0.722-1.173,1.828-0.939,2.89
		l2.123,9.631l-8.504-4.995c-0.469-0.275-0.994-0.413-1.52-0.413s-1.05,0.138-1.52,0.413l-8.504,4.995l2.123-9.631
		C229.146,30.657,228.787,29.551,227.973,28.829z M350.604,451.349l-2.439,4.225l-3.385-1.382c-0.894-0.366-1.91-0.278-2.728,0.236
		l-3.807,2.388l-3.696-0.266l-5.238-2.848c-0.948-0.515-2.098-0.481-3.014,0.086l-4.659,2.889c-0.097,0.06-0.189,0.125-0.279,0.196
		l-3.319,2.622l-3.943-1.304c-0.458-0.152-0.945-0.191-1.422-0.113l-5.052,0.818c-0.432,0.07-0.843,0.233-1.205,0.479l-4.062,2.755
		l-3.406,0.233l-4.731-2.764c-1.25-0.731-2.846-0.463-3.79,0.637l-3.676,4.283l-3.784-0.008c-0.121-0.004-0.198,0.004-0.296,0.014
		l-4.779,0.464l-4.539-0.578l-4.942-1.809c-1.218-0.448-2.589-0.058-3.392,0.965l-3.906,4.979l-2.882,0.034l-4.526-2.744
		c-0.181-0.109-0.373-0.2-0.573-0.269l-5.167-1.791c-0.228-0.079-0.464-0.13-0.704-0.152l-4.913-0.458l-4.908-1.135
		c-0.186-0.043-0.375-0.068-0.566-0.075l-5.094-0.187c-0.309-0.013-0.618,0.026-0.916,0.108l-5.125,1.429
		c-0.242,0.067-0.474,0.165-0.691,0.29l-3.749,2.158l-3.56-1.919c-1.076-0.581-2.396-0.449-3.336,0.33l-4.352,3.601l-3.269-0.389
		l-4.451-2.485c-0.484-0.271-1.027-0.407-1.589-0.378l-5.167,0.217c-0.363,0.016-0.72,0.097-1.053,0.239l-3.284,1.405l-3.182-3.946
		c-0.956-1.188-2.654-1.468-3.942-0.65l-4.772,3.027l-3.418-0.103l-3.95-2.526l-4.515-3.68c-1.129-0.92-2.758-0.896-3.86,0.058
		l-3.43,2.971l-2.313-3.358c-0.794-1.153-2.281-1.604-3.578-1.086l-4.688,1.861l-4.069-1.002c-0.082-0.021-0.164-0.037-0.246-0.05
		l-4.167-0.663l-3.73-3.484c-0.677-0.632-1.607-0.914-2.524-0.77l-3.905,0.627l-3.204-3.188c-0.402-0.4-0.893-0.665-1.414-0.791
		l-0.903-4.934l1.028-3.976l2.434-4.282c0.318-0.561,0.448-1.209,0.369-1.849l-0.696-5.643l-0.726-4.671l1.886-3.865
		c0.144-0.294,0.238-0.61,0.279-0.935l0.434-3.385l6.316-2.374c0.296,0.644,0.807,1.191,1.503,1.5c1.52,0.66,3.29-0.03,3.96-1.55
		c-0.61,1.55,0.15,3.29,1.69,3.89c1.55,0.61,3.29-0.15,3.89-1.7c0,0,0.01-0.01,0.01-0.02c0,0.01-0.01,0.02-0.01,0.03
		c-0.54,1.56,0.29,3.27,1.86,3.81c0.32,0.11,0.65,0.16,0.98,0.16c1.24,0,2.4-0.77,2.83-2.02c0.54-1.56-0.29-3.27-1.85-3.81
		c-1.54-0.53-3.21,0.26-3.78,1.76c0.54-1.52-0.22-3.2-1.74-3.79c-1.5-0.59-3.2,0.11-3.84,1.58c0.59-1.49-0.11-3.19-1.59-3.84
		c-0.573-0.249-1.18-0.305-1.75-0.198l0.129-3.887c0.018-0.554-0.117-1.103-0.392-1.584l-2.393-4.2l2.88-2.409
		c0.58-0.485,0.956-1.171,1.051-1.921l0.545-4.263l3.209-3.592c0.804-0.899,0.991-2.194,0.474-3.284l-2.399-5.062l1.079-3.042
		l3.808-3.671c0.747-0.72,1.069-1.774,0.852-2.788l-1.032-4.819l1.531-3.877l2.24-4.631c0.071-0.147,0.13-0.3,0.177-0.458
		l1.46-4.949c0.157-0.534,0.163-1.101,0.017-1.638l-0.983-3.604l4.175-2.479c0.01-0.006,0.018-0.014,0.028-0.02
		c0.031-0.019,0.06-0.044,0.091-0.065c0.119-0.079,0.234-0.162,0.34-0.256c0.014-0.012,0.03-0.02,0.044-0.033
		c0.037-0.034,0.062-0.074,0.097-0.109c0.083-0.084,0.162-0.17,0.234-0.263c0.053-0.068,0.1-0.137,0.146-0.208
		c0.051-0.079,0.098-0.159,0.141-0.243c0.044-0.084,0.085-0.167,0.121-0.253c0.011-0.026,0.026-0.049,0.036-0.076l1.822-4.856
		c0.313-0.833,0.239-1.762-0.2-2.536l-2.657-4.676l2.062-2.773c0.315,1.038,1.168,1.876,2.308,2.093c1.63,0.3,3.19-0.77,3.5-2.4
		c-0.26,1.64,0.85,3.18,2.48,3.44c1.64,0.27,3.18-0.84,3.44-2.48c-0.22,1.64,0.93,3.15,2.58,3.37c1.64,0.22,3.15-0.93,3.37-2.57
		c-0.17,1.65,1.02,3.12,2.67,3.29s3.13-1.02,3.3-2.67c-0.12,1.65,1.12,3.09,2.77,3.21c0.08,0,0.15,0.01,0.22,0.01
		c1.56,0,2.88-1.21,2.99-2.79c0.12-1.65-1.12-3.09-2.77-3.21c-1.63-0.11-3.04,1.08-3.21,2.7c0.13-1.62-1.06-3.05-2.68-3.22
		c-1.62-0.16-3.07,0.99-3.28,2.6c0.17-1.61-0.97-3.08-2.59-3.29c-1.61-0.22-3.1,0.89-3.36,2.49c0.22-1.6-0.88-3.1-2.49-3.36
		c-1.61-0.26-3.13,0.81-3.43,2.41c0.26-1.6-0.8-3.13-2.41-3.43c-0.112-0.021-0.223-0.021-0.335-0.029l0.453-0.564
		c0.691-0.862,0.853-2.034,0.42-3.051l-1.737-4.085l3.01-2.627c0.965-0.843,1.289-2.206,0.805-3.393l-1.417-3.474l4.454-2.183
		c1.374-0.674,2.021-2.273,1.501-3.713l-1.377-3.812l3.576-2.522c0.539-0.38,0.937-0.926,1.134-1.555l1.543-4.928
		c0.079-0.251,0.124-0.511,0.135-0.774l0.217-5.312c0.011-0.282-0.017-0.565-0.084-0.839l-0.933-3.794l3.742-2.679
		c0.473-0.339,0.837-0.808,1.048-1.35l1.885-4.834c0.262-0.671,0.273-1.413,0.033-2.091l-0.601-1.697
		c1.505-0.572,2.309-2.232,1.789-3.773c0.58,1.55,2.3,2.35,3.85,1.77c1.56-0.58,2.35-2.31,1.77-3.86c0.62,1.54,2.37,2.28,3.91,1.66
		c1.52-0.62,2.26-2.35,1.67-3.87c0.552,1.208,1.807,1.87,3.062,1.729c0.378,0.161,0.778,0.251,1.178,0.251c0.85,0,1.7-0.36,2.3-1.07
		c0.44-0.528,0.658-1.164,0.685-1.804c0.712,0.242,1.515,0.223,2.246-0.126c1.49-0.7,2.13-2.47,1.45-3.96
		c0.76,1.46,2.55,2.03,4.02,1.28c1.47-0.75,2.06-2.56,1.31-4.03c0.79,1.45,2.62,1.98,4.07,1.19c1.45-0.8,1.99-2.62,1.19-4.08
		c0.84,1.43,2.68,1.91,4.11,1.07c1.42-0.84,1.9-2.68,1.06-4.1c0.89,1.4,2.74,1.82,4.14,0.94c1.4-0.88,1.83-2.74,0.94-4.14
		c-0.88-1.4-2.73-1.82-4.13-0.94c-1.38,0.87-1.81,2.67-0.99,4.06c-0.86-1.37-2.66-1.82-4.06-0.99c-1.41,0.82-1.89,2.61-1.11,4.03
		c-0.82-1.4-2.61-1.9-4.03-1.12c-1.43,0.78-1.97,2.56-1.23,4c-0.78-1.42-2.55-1.98-4-1.24c-1.44,0.74-2.03,2.47-1.36,3.93
		c-0.75-1.42-2.48-2.01-3.94-1.32c-1.047,0.495-1.662,1.512-1.708,2.588c-0.424-0.145-0.868-0.193-1.304-0.144
		c-0.404-0.171-0.841-0.257-1.287-0.239c0.263-1.037-0.027-2.182-0.87-2.956c-1.22-1.12-3.12-1.03-4.24,0.19
		c-1.12,1.23-1.03,3.12,0.19,4.24h0.01c0.57,0.53,1.3,0.79,2.02,0.79c0.038,0,0.076-0.01,0.115-0.012
		c-0.152,0.59-0.134,1.227,0.105,1.832c-0.67-1.46-2.36-2.15-3.86-1.54c-1.51,0.61-2.26,2.31-1.69,3.83c-0.6-1.51-2.3-2.26-3.82-1.7
		c-1.53,0.57-2.32,2.25-1.8,3.78c-0.343-0.925-1.108-1.583-2.002-1.835l0.473-1.278l2.19-4.623c0.397-0.839,0.384-1.814-0.036-2.642
		l-2.518-4.96l1.481-3.169l0.002-0.003c-0.267,0.953-0.063,2.017,0.649,2.812c0.59,0.66,1.41,0.99,2.24,1c0.71,0,1.42-0.26,2-0.77
		c1.23-1.1,1.33-3,0.23-4.23c-1.023-1.154-2.733-1.315-3.957-0.44l1.714-2.404l4.058-3.988c0.542-0.533,0.861-1.251,0.894-2.011
		l0.228-5.301c0.018-0.399-0.045-0.798-0.184-1.172l-1.574-4.242l2.697-2.902c0.307-0.331,0.536-0.726,0.669-1.157l1.289-4.173
		l3.815-3.6c1.007-0.95,1.233-2.465,0.548-3.667l-2.215-3.888l3.458-2.186c0.469-0.297,0.847-0.718,1.091-1.216l2.309-4.711
		c0.43-0.877,0.406-1.908-0.064-2.764l-2.096-3.818l3.601-2.186c1.291-0.783,1.798-2.404,1.184-3.784l-1.512-3.397
		c0.521,0.375,1.126,0.567,1.737,0.567c0.85,0,1.69-0.36,2.28-1.05c1.08-1.27,0.92-3.16-0.34-4.23
		c-1.07-0.909-2.597-0.929-3.69-0.145l0.244-0.969c0.003-0.012,0.006-0.023,0.009-0.034l0-0.001l1.077-4.856l1.549-4.316
		l2.924-4.151c0.355-0.504,0.546-1.105,0.547-1.722l0.008-4.018l3.591-3.186c0.013-0.012,0.023-0.027,0.036-0.039
		c0.101-0.092,0.189-0.192,0.274-0.294c0.035-0.042,0.072-0.082,0.105-0.126c0.081-0.109,0.151-0.224,0.215-0.342
		c0.025-0.046,0.052-0.091,0.075-0.138c0.058-0.12,0.105-0.242,0.146-0.368c0.017-0.051,0.034-0.1,0.048-0.152
		c0.034-0.126,0.059-0.254,0.076-0.384c0.007-0.053,0.014-0.106,0.018-0.16c0.011-0.13,0.012-0.259,0.006-0.39
		c-0.003-0.054-0.007-0.108-0.013-0.162c-0.013-0.13-0.034-0.258-0.065-0.386c-0.013-0.055-0.03-0.109-0.046-0.163
		c-0.038-0.126-0.081-0.249-0.136-0.371c-0.024-0.052-0.052-0.103-0.079-0.154c-0.044-0.084-0.077-0.171-0.13-0.252
		c0.99,1.33,2.87,1.61,4.2,0.62c1.33-0.99,1.6-2.87,0.62-4.2c-0.99-1.33-2.87-1.61-4.2-0.62c-1.3,0.97-1.59,2.78-0.69,4.1
		c-0.012-0.016-0.027-0.029-0.039-0.045l-3.125-4.256l2.975-2.072c1.131-0.788,1.58-2.246,1.087-3.534l-1.951-5.097l0.768-2.869
		l5.098-3.021c0.625-0.371,1.094-0.955,1.321-1.645l1.615-4.918c0.13-0.395,0.176-0.813,0.136-1.228l-0.429-4.39l2.557-3.543
		c0.378-0.524,0.577-1.156,0.567-1.801l-0.059-3.853c0.24,0.061,0.484,0.102,0.73,0.102c0.85,0,1.69-0.35,2.28-1.04
		c1.08-1.26,0.94-3.15-0.32-4.23c-0.898-0.776-2.128-0.912-3.152-0.466l-0.04-0.364l3.01-3.271c0.61-0.663,0.89-1.564,0.762-2.456
		l-0.766-5.367l0.009-4.881l0.754-4.177l2.815-3.922c0.033-0.046,0.065-0.094,0.096-0.143l5.779-9.124
		c0.558-0.881,0.618-1.988,0.159-2.924l-1.708-3.487l4.373-2.082c0.05-0.024,0.099-0.049,0.147-0.076l0.828,2.814l1.161,4.94
		c0.146,0.622,0.487,1.181,0.973,1.596l4.022,3.433l0.866,3.236l-1.624,5.05c-0.45,1.398,0.18,2.917,1.487,3.588l4.381,2.248
		l-1.307,3.481c-0.291,0.775-0.249,1.636,0.117,2.379l2.319,4.711c0.001,0.001,0.002,0.003,0.002,0.004
		c0.005,0.01,0.012,0.02,0.017,0.031c0.037,0.074,0.077,0.147,0.12,0.217l0.647,1.048c-1.273-0.148-2.544,0.518-3.088,1.753
		c-0.67,1.51,0.02,3.28,1.53,3.95c0.39,0.18,0.81,0.26,1.21,0.26c0.456,0,0.902-0.109,1.307-0.306l-0.27,1.398
		c-0.026,0.135-0.043,0.272-0.05,0.41l-0.29,5.436c-0.046,0.873,0.29,1.723,0.921,2.327l3.842,3.677l1.374,3.683l-0.007,0.464
		c-0.09,0.187-0.166,0.383-0.217,0.592c0.32-1.55-0.61-3.09-2.16-3.51c-1.53-0.41-3.11,0.45-3.61,1.93
		c0.42-1.51-0.39-3.11-1.89-3.64c-1.56-0.56-3.27,0.26-3.83,1.82c-0.55,1.56,0.26,3.28,1.82,3.83c1.56,0.56,3.28-0.26,3.84-1.82
		c-0.43,1.6,0.52,3.25,2.12,3.68c1.6,0.43,3.24-0.52,3.67-2.12c0.01-0.02,0.01-0.05,0.02-0.07c-0.01,0.02-0.01,0.05-0.01,0.07
		c-0.113,0.617-0.028,1.223,0.208,1.755l-0.028,1.838c-0.001,0.051,0,0.101,0.001,0.152l0.187,5.312
		c0.005,0.147,0.021,0.294,0.048,0.439l0.942,5.104c0.164,0.887,0.718,1.653,1.509,2.086l3.852,2.11l-2.028,3.706
		c-0.196,0.358-0.317,0.753-0.355,1.16l-0.518,5.508c-0.076,0.807,0.178,1.609,0.703,2.226l3.152,3.702l0.741,4.314
		c0.058,0.336,0.172,0.661,0.339,0.958l2.599,4.638c0.113,0.203,0.25,0.391,0.407,0.562l3.01,3.281l-0.401,4.188
		c-0.026,0.271-0.015,0.545,0.033,0.813l0.911,5.104c0.096,0.537,0.336,1.038,0.696,1.449l2.489,2.843l-2.058,4.396
		c-0.032,0.068-0.044,0.142-0.071,0.212c-0.037,0.096-0.07,0.191-0.097,0.288c-0.028,0.104-0.049,0.206-0.066,0.312
		c-0.017,0.111-0.027,0.22-0.032,0.331c-0.004,0.097-0.009,0.193-0.003,0.291c0.007,0.127,0.027,0.25,0.05,0.374
		c0.015,0.081,0.023,0.163,0.044,0.243c0.054,0.202,0.126,0.4,0.221,0.587c0.001,0.002,0.001,0.004,0.002,0.006l0.462,0.899
		c-1.257-0.455-2.705-0.036-3.499,1.121c-0.93,1.36-0.58,3.23,0.79,4.17c0.52,0.35,1.1,0.52,1.69,0.52c0.95,0,1.9-0.46,2.48-1.31
		c0.135-0.199,0.235-0.41,0.317-0.625l0.516,4.105c0.067,0.537,0.279,1.046,0.612,1.472l0.973,1.246
		c-0.248,0.447-0.395,0.957-0.389,1.502c-0.06-1.61-1.38-2.89-3-2.88c-1.6,0-2.91,1.26-2.99,2.84c0-0.688-0.242-1.317-0.635-1.825
		c0.381-0.201,0.729-0.479,1.005-0.844c1-1.32,0.73-3.2-0.59-4.2c-1.33-1-3.21-0.73-4.2,0.59c-0.835,1.102-0.78,2.589,0.032,3.634
		c-0.075,0.039-0.147,0.083-0.218,0.128c-0.713-0.29-1.5-0.295-2.206-0.023c-0.471-0.496-1.104-0.841-1.837-0.919
		c-1.6-0.17-3.03,0.94-3.29,2.5c0.17-1.58-0.92-3.03-2.5-3.29c-1.59-0.26-3.1,0.79-3.42,2.36c0.29-1.57-0.73-3.11-2.3-3.46
		c-1.58-0.35-3.15,0.62-3.55,2.17c0.37-1.56-0.56-3.15-2.11-3.58c-1.56-0.44-3.18,0.45-3.67,1.98c0.46-1.54-0.38-3.18-1.91-3.7
		c-1.57-0.53-3.28,0.31-3.81,1.88c-0.53,1.57,0.31,3.27,1.88,3.8c1.57,0.53,3.28-0.31,3.81-1.88c-0.45,1.6,0.49,3.25,2.08,3.7
		c1.6,0.44,3.25-0.49,3.7-2.09c-0.36,1.62,0.66,3.22,2.28,3.58c1.62,0.36,3.22-0.66,3.58-2.28c-0.27,1.63,0.84,3.18,2.47,3.45
		c1.64,0.26,3.18-0.84,3.45-2.48c-0.126,1.153,0.425,2.212,1.327,2.813c-0.463,0.165-0.897,0.433-1.247,0.827
		c-1.09,1.24-0.97,3.14,0.27,4.23c0.57,0.51,1.28,0.75,1.98,0.75c0.84,0,1.66-0.34,2.26-1.01c1.09-1.25,0.97-3.14-0.27-4.24
		c-0.103-0.09-0.217-0.159-0.328-0.233c0.023-0.008,0.045-0.019,0.068-0.028c0.084,0.089,0.163,0.181,0.26,0.261
		c0.56,0.46,1.23,0.68,1.9,0.68c0.564,0,1.116-0.176,1.601-0.484c0.305,0.126,0.631,0.215,0.979,0.234
		c1.66,0.08,3.07-1.19,3.16-2.84c0,1.66,1.34,3,3,2.99c1.66,0,3-1.34,3-3c0.09,1.65,1.5,2.92,3.16,2.83
		c0.034-0.002,0.066-0.013,0.099-0.016l1.028,2.457l0.547,4.568l-0.09,5.189c-0.02,1.116,0.582,2.15,1.562,2.685l5.425,2.963
		l0.742,2.444l-3.48,5.386c-0.718,1.111-0.624,2.562,0.233,3.57l3.307,3.893l1.16,3.508l-1.339,4.949
		c-0.109,0.405-0.133,0.829-0.068,1.244l0.797,5.136c0.153,0.989,0.79,1.836,1.697,2.259l2.707,1.262
		c-1.527-0.239-3.006,0.724-3.367,2.253c-0.39,1.61,0.61,3.23,2.22,3.62c0.23,0.05,0.47,0.08,0.7,0.08c1.35,0,2.58-0.93,2.91-2.3
		c0.27-1.122-0.136-2.234-0.94-2.944l1.98,0.923l1.21,2.579l-1.929,4.827c-0.049,0.123-0.09,0.249-0.123,0.377l-1.46,5.767
		c-0.137,0.541-0.121,1.108,0.047,1.64l1.553,4.918c0.164,0.52,0.467,0.985,0.875,1.345l4.188,3.699l2.006,3.867l0.984,4.114
		l-0.348,2.501c-1.115,0.369-1.955,1.371-2.054,2.599c0.09-1.61-1.12-3.02-2.75-3.15c-1.63-0.13-3.05,1.06-3.22,2.67
		c0.13-1.62-1.05-3.05-2.67-3.23c-1.61-0.17-3.05,0.96-3.29,2.54c0.15-1.59-0.99-3.03-2.59-3.25c-1.59-0.21-3.07,0.87-3.35,2.45
		c0.19-1.59-0.9-3.06-2.5-3.32c-0.155-0.025-0.309-0.028-0.461-0.029c-0.209-0.529-0.567-1.007-1.068-1.361
		c-1.249-0.879-2.933-0.651-3.94,0.462c-0.116-0.037-0.228-0.079-0.35-0.103c-1.6-0.31-3.14,0.72-3.49,2.3
		c0.31-1.59-0.71-3.15-2.29-3.5c-1.58-0.35-3.14,0.6-3.55,2.14c0.32-1.56-0.64-3.12-2.2-3.51c-1.57-0.4-3.15,0.51-3.61,2.04
		c0.37-1.55-0.54-3.14-2.09-3.58c-1.57-0.45-3.2,0.42-3.69,1.96c0.45-1.55-0.42-3.18-1.96-3.68c-1.54-0.49-3.17,0.31-3.73,1.8
		c0.46-1.52-0.35-3.16-1.86-3.69c-1.52-0.55-3.19,0.21-3.79,1.69c0.52-1.51-0.24-3.18-1.74-3.77c-1.51-0.59-3.22,0.13-3.85,1.61
		c0.59-1.5-0.11-3.21-1.6-3.86c-1.5-0.64-3.22,0.02-3.91,1.48c0.64-1.48,0-3.21-1.47-3.9c-1.47-0.7-3.21-0.1-3.95,1.34
		c0.69-1.46,0.11-3.21-1.34-3.95c-1.44-0.75-3.21-0.21-3.99,1.2c0.74-1.43,0.21-3.2-1.2-3.99c-1.45-0.81-3.28-0.3-4.09,1.15
		c-0.81,1.44-0.29,3.27,1.16,4.08c1.44,0.81,3.27,0.29,4.08-1.15c-0.76,1.47-0.18,3.28,1.3,4.04c1.47,0.76,3.28,0.18,4.04-1.29
		c-0.71,1.49-0.07,3.28,1.43,3.99s3.28,0.07,3.99-1.43c-0.65,1.52,0.04,3.28,1.57,3.94c1.52,0.66,3.28-0.04,3.94-1.56
		c-0.61,1.54,0.15,3.28,1.69,3.89c1.53,0.6,3.26-0.14,3.88-1.66c-0.53,1.55,0.28,3.24,1.83,3.8c1.55,0.55,3.25-0.25,3.82-1.78
		c-0.48,1.57,0.39,3.23,1.95,3.73c1.58,0.51,3.27-0.36,3.78-1.94c-0.46,1.59,0.46,3.26,2.05,3.71c1.58,0.46,3.23-0.45,3.7-2.02
		c-0.38,1.59,0.59,3.21,2.18,3.61c1.59,0.41,3.21-0.54,3.64-2.13c-0.34,1.61,0.68,3.19,2.28,3.54c1.62,0.36,3.22-0.65,3.58-2.27
		c-0.158,0.824,0.042,1.636,0.488,2.278c-0.122,0.109-0.242,0.221-0.348,0.353c-1.01,1.24-0.86,3.05,0.33,4.11
		c-1.22-1.01-3.03-0.91-4.12,0.27c-1.09,1.16-1.06,2.97,0.02,4.1c-1.14-1.08-2.94-1.09-4.1,0c-1.15,1.07-1.27,2.84-0.3,4.05
		c-1.07-1.12-2.84-1.24-4.06-0.25c-1.22,0.99-1.46,2.75-0.59,4.02c-0.98-1.19-2.73-1.44-4.02-0.54s-1.65,2.63-0.88,3.96
		c-0.9-1.25-2.63-1.62-3.97-0.81c-1.34,0.81-1.83,2.5-1.15,3.89c-0.82-1.31-2.51-1.79-3.91-1.07c-1.39,0.71-1.99,2.36-1.41,3.79
		c-0.74-1.35-2.39-1.94-3.83-1.32c-1.44,0.62-2.14,2.23-1.66,3.69c-0.64-1.4-2.26-2.09-3.74-1.56c-1.47,0.53-2.28,2.1-1.88,3.59
		c-0.56-1.44-2.13-2.24-3.64-1.8c-1.5,0.45-2.4,1.96-2.1,3.47c-0.48-1.46-2-2.34-3.53-1.99c-1.53,0.36-2.51,1.83-2.29,3.36
		c-0.4-1.5-1.88-2.46-3.42-2.19c-1.55,0.28-2.61,1.7-2.47,3.24c-0.31-1.52-1.75-2.56-3.31-2.36c-1.57,0.2-2.69,1.57-2.62,3.12
		c-0.24-1.53-1.63-2.64-3.2-2.51c-1.59,0.13-2.79,1.47-2.76,3.04c-0.16-1.56-1.51-2.75-3.1-2.69c-1.61,0.06-2.88,1.39-2.88,2.99
		c-0.06-1.6-1.38-2.88-3-2.89c-1.62,0-2.94,1.29-3,2.89c0-1.61-1.27-2.94-2.89-3c-1.65-0.06-3.04,1.23-3.11,2.88
		c-0.06,1.66,1.23,3.05,2.89,3.11c1.65,0.07,3.04-1.22,3.11-2.88c0,1.66,1.34,3,3,3.01c1.65,0,3-1.35,3-3
		c0.06,1.65,1.46,2.95,3.11,2.88c1.64-0.06,2.92-1.42,2.89-3.05c0.16,1.62,1.59,2.82,3.22,2.69c1.62-0.13,2.84-1.53,2.76-3.14
		c0.25,1.6,1.73,2.71,3.34,2.51c1.61-0.21,2.76-1.66,2.61-3.26c0.33,1.58,1.86,2.62,3.46,2.33c1.6-0.28,2.67-1.79,2.44-3.38
		c0.42,1.56,2,2.52,3.58,2.15c1.58-0.37,2.58-1.93,2.26-3.51c0.5,1.53,2.14,2.4,3.7,1.94c1.56-0.46,2.47-2.08,2.05-3.65
		c0.59,1.52,2.28,2.3,3.81,1.74c1.54-0.55,2.35-2.22,1.84-3.76c0.68,1.47,2.41,2.14,3.91,1.49c1.5-0.64,2.2-2.37,1.59-3.87
		c0.78,1.42,2.55,1.98,4.01,1.24c1.45-0.75,2.04-2.53,1.32-3.99c0.87,1.38,2.69,1.82,4.09,0.97c0,0.01,0,0.01,0,0.01
		c1.41-0.85,1.87-2.67,1.05-4.08c0.96,1.32,2.81,1.64,4.15,0.7c1.35-0.95,1.68-2.81,0.75-4.16c1.05,1.27,2.92,1.46,4.2,0.42
		c1.28-1.04,1.48-2.92,0.46-4.2c1.13,1.19,3.01,1.24,4.22,0.12c1.21-1.14,1.27-3.03,0.14-4.24c1.21,1.12,3.11,1.05,4.24-0.16
		c1.12-1.22,1.05-3.12-0.16-4.24c1.29,1.04,3.17,0.83,4.21-0.45c0.865-1.064,0.869-2.528,0.125-3.595
		c0.083-0.073,0.161-0.151,0.236-0.233c0.297,0.097,0.604,0.147,0.912,0.147c0.379,0.944,1.22,1.681,2.297,1.86
		c1.62,0.26,3.15-0.83,3.43-2.44c-0.19,1.63,0.95,3.11,2.58,3.33c1.63,0.22,3.13-0.91,3.37-2.53c-0.15,1.63,1.03,3.08,2.67,3.26
		c1.64,0.18,3.12-1.01,3.3-2.66c-0.14,1.65,1.1,3.09,2.75,3.23c1.65,0.13,3.1-1.1,3.23-2.75c-0.09,1.65,1.17,3.07,2.83,3.16
		c0.05,0,0.11,0.01,0.16,0.01c0.029,0,0.055-0.007,0.084-0.008l2.388,3.309c0.083,0.116,0.175,0.226,0.274,0.329l2.557,2.647
		l-2.324,4.382c-0.152,0.287-0.256,0.596-0.309,0.916l-0.932,5.622c-0.228,1.373,0.52,2.723,1.804,3.259l5.053,2.108l-1.19,3.285
		c-0.187,0.516-0.229,1.073-0.121,1.61l1.015,5.073c0.148,0.738,0.568,1.395,1.177,1.837l4.037,2.937l-0.106,3.261l-1.241,2.891
		c-0.607,0.2-1.159,0.583-1.545,1.152c-0.823,1.213-0.64,2.806,0.362,3.802c0.025,0.064,0.052,0.124,0.081,0.187
		c-1.304-0.721-2.959-0.384-3.863,0.852c-0.97,1.34-0.68,3.21,0.66,4.19c0.53,0.39,1.15,0.57,1.77,0.57c0.92,0,1.84-0.42,2.42-1.23
		c0.52-0.711,0.67-1.57,0.504-2.367l1.504,1.877l-0.872,4.32c-0.25,1.24,0.304,2.503,1.386,3.159l5.315,3.222l1.86,3.655l0.94,3.54
		l-2.827,5.272c-0.381,0.712-0.46,1.547-0.218,2.318c0.243,0.771,0.785,1.411,1.505,1.775l4.581,2.322l-1.043,3.454
		c-0.327,1.082-0.018,2.256,0.8,3.037l2.707,2.584l-1.824,3.445c-0.504-0.254-1.084-0.372-1.689-0.302
		c-1.63,0.18-2.8,1.63-2.65,3.26c-0.18-1.62-1.62-2.81-3.25-2.66c0-0.01,0-0.01,0-0.01c-1.63,0.15-2.84,1.58-2.72,3.2
		c-0.15-1.62-1.56-2.84-3.19-2.73c-1.64,0.11-2.88,1.51-2.8,3.14c-0.1-1.63-1.49-2.89-3.12-2.81c-1.64,0.07-2.91,1.43-2.87,3.06
		c-0.07-1.63-1.42-2.91-3.06-2.87c-1.62,0.03-2.91,1.33-2.94,2.94c-0.06-1.61-1.37-2.89-2.98-2.9c-0.01,0-0.01,0-0.01,0
		c-1.63,0-2.96,1.29-3.01,2.91c0.01-1.62-1.28-2.96-2.91-3.01c-1.63-0.04-2.99,1.22-3.08,2.84c0.04-1.62-1.21-2.99-2.84-3.08
		c-1.61-0.09-3,1.12-3.15,2.71c0.07-1.6-1.15-2.98-2.76-3.1c-1.62-0.13-3.05,1.06-3.22,2.67c0.13-1.61-1.05-3.05-2.68-3.22
		c-0.114-0.012-0.225-0.003-0.337-0.002c0.055-0.717-0.136-1.456-0.613-2.069c-1.02-1.31-2.9-1.54-4.21-0.52
		c-0.624,0.481-0.995,1.164-1.112,1.887c-0.938,0.002-1.787,0.435-2.341,1.136c-0.237,0.039-0.472,0.099-0.698,0.197
		c-0.304-1.102-1.223-1.982-2.419-2.17c-1.61-0.25-3.13,0.83-3.42,2.42c0.25-1.6-0.82-3.12-2.42-3.42s-3.14,0.74-3.48,2.33
		c0.3-1.6-0.73-3.15-2.32-3.48c-1.6-0.34-3.17,0.65-3.54,2.23c0.33-1.58-0.65-3.16-2.24-3.54c-1.61-0.39-3.23,0.6-3.61,2.21
		c-0.39,1.61,0.6,3.23,2.21,3.62c1.61,0.39,3.23-0.6,3.62-2.21c-0.35,1.62,0.69,3.21,2.31,3.56c1.62,0.34,3.21-0.69,3.56-2.32
		c-0.31,1.63,0.77,3.2,2.4,3.5c1.63,0.3,3.19-0.77,3.5-2.4c-0.193,1.206,0.368,2.359,1.335,2.985
		c-0.307,0.085-0.607,0.207-0.885,0.395c-1.37,0.92-1.74,2.79-0.81,4.16c0.58,0.86,1.53,1.33,2.49,1.33c0.58,0,1.16-0.17,1.67-0.52
		c1.38-0.92,1.74-2.79,0.81-4.16c-0.231-0.347-0.523-0.629-0.851-0.842c0.136-0.038,0.27-0.083,0.399-0.14
		c0.093,0.34,0.241,0.671,0.463,0.972c0.58,0.81,1.5,1.24,2.43,1.24c0.61,0,1.22-0.18,1.76-0.57
		c0.231-0.167,0.419-0.368,0.586-0.582c1.229-0.21,2.234-1.166,2.45-2.458c0.008,0,0.015-0.002,0.023-0.002
		c-0.123,1.61,1.054,3.036,2.671,3.202c1.65,0.17,3.12-1.02,3.29-2.67c-0.13,1.65,1.11,3.1,2.76,3.23c1.64,0.13,3.07-1.08,3.22-2.71
		c-0.06,1.63,1.2,3.02,2.84,3.11c1.65,0.09,3.07-1.18,3.16-2.83c-0.05,1.65,1.25,3.03,2.91,3.08c1.65,0.05,3.03-1.25,3.08-2.91
		c0,1.66,1.33,3.01,2.99,3.01h0.01c1.64,0,2.97-1.31,3-2.94c0.06,1.64,1.42,2.93,3.06,2.9c1.66-0.04,2.97-1.41,2.94-3.06
		c0-0.01,0-0.01,0-0.01c0.07,1.66,1.47,2.94,3.13,2.87c1.65-0.07,2.94-1.47,2.86-3.13c0.11,1.66,1.55,2.91,3.2,2.8
		c1.65-0.12,2.9-1.55,2.79-3.2c0.15,1.65,1.61,2.87,3.26,2.72s2.86-1.61,2.72-3.26c0.18,1.65,1.66,2.83,3.31,2.65
		c0.58-0.067,1.096-0.3,1.521-0.636l2.095,2.919l0.878,4.445c0.149,0.754,0.582,1.422,1.209,1.867l2.944,2.085l-3.118,4.283
		c-0.954,1.311-0.694,3.142,0.586,4.136l4.691,3.64l1.922,2.914l-1.477,4.526c-0.231,0.708-0.19,1.475,0.113,2.155l2.054,4.598
		l1.148,3.812l-1.834,5.048c-0.272,0.749-0.235,1.576,0.103,2.297c0.338,0.722,0.95,1.279,1.699,1.549l5.246,1.891
		C351.168,450.597,350.842,450.937,350.604,451.349z"/>
	<path d="M229.727,105.568c-0.89,1.4-0.47,3.26,0.93,4.14c0.5,0.32,1.05,0.47,1.6,0.47c1,0,1.97-0.5,2.54-1.4
		c0.88-1.4,0.47-3.25-0.93-4.14S230.608,104.167,229.727,105.568z"/>
	<path d="M225.527,106.208c0.53,0.39,1.16,0.58,1.77,0.58c0.92,0,1.83-0.42,2.42-1.22c0.98-1.33,0.7-3.21-0.64-4.2
		c-1.33-0.98-3.21-0.69-4.19,0.64C223.907,103.348,224.187,105.218,225.527,106.208z"/>
	<path d="M236.027,112.838c0.958,0.518,2.066,0.451,2.938-0.064c0.04,0.949,0.528,1.864,1.392,2.413
		c0.45,0.279,0.949,0.422,1.438,0.449c0.339,0.129,0.691,0.202,1.032,0.202c1.15,0,2.25-0.67,2.75-1.79
		c0.576-1.299,0.149-2.786-0.947-3.604c0.139,0.02,0.277,0.054,0.418,0.054c1.04,0,2.06-0.55,2.61-1.52
		c0.81-1.44,0.31-3.27-1.13-4.09s-3.27-0.31-4.09,1.13c-0.753,1.323-0.374,2.965,0.808,3.861c-0.064-0.009-0.128-0.02-0.191-0.024
		c-0.877-0.34-1.841-0.237-2.622,0.228c-0.042-1.028-0.6-2.01-1.575-2.535c-1.46-0.78-3.27-0.23-4.06,1.23
		C234.017,110.238,234.568,112.058,236.027,112.838z"/>
	<path d="M229.237,188.167c-1.51-0.69-3.29-0.04-3.98,1.47c-0.7,1.5-0.04,3.28,1.46,3.98h0.01c0.4,0.19,0.83,0.28,1.25,0.28
		c1.13,0,2.22-0.65,2.73-1.75C231.397,190.647,230.737,188.868,229.237,188.167z"/>
	<path d="M209.787,180.428c-0.92,1.38-0.55,3.24,0.83,4.16c0.51,0.35,1.09,0.51,1.66,0.51c0.97,0,1.92-0.47,2.5-1.33
		c0.92-1.38,0.55-3.24-0.83-4.16C212.568,178.688,210.707,179.058,209.787,180.428z"/>
	<path d="M215.827,187.878c0.48,0.29,1.01,0.42,1.53,0.42c1.02,0,2.02-0.52,2.58-1.46c0.85-1.43,0.38-3.27-1.04-4.11
		c-1.43-0.85-3.27-0.38-4.12,1.04C213.937,185.198,214.397,187.028,215.827,187.878z"/>
	<path d="M205.577,181.028c0.54,0.4,1.18,0.6,1.8,0.6c0.91,0,1.82-0.41,2.4-1.2c1-1.32,0.73-3.21-0.59-4.2
		c-1.33-0.99-3.21-0.73-4.2,0.6C203.987,178.147,204.257,180.028,205.577,181.028z"/>
	<path d="M225.247,189.638c0.78-1.47,0.21-3.28-1.25-4.06c-1.47-0.77-3.28-0.21-4.05,1.26c-0.78,1.47-0.21,3.28,1.25,4.05
		c0.45,0.24,0.93,0.35,1.4,0.35C223.667,191.238,224.717,190.658,225.247,189.638z"/>
	<path d="M234.608,190.478c-1.54-0.62-3.29,0.13-3.9,1.67c-0.62,1.54,0.13,3.29,1.67,3.9c0.37,0.15,0.74,0.22,1.11,0.22
		c1.19,0,2.32-0.72,2.79-1.89C236.897,192.838,236.147,191.088,234.608,190.478z"/>
	<path d="M198.597,260.917c0.55,0.42,1.19,0.62,1.83,0.62c0.9,0,1.79-0.4,2.38-1.16c1.01-1.31,0.77-3.2-0.54-4.21
		c-1.31-1.01-3.2-0.77-4.21,0.54C197.048,258.018,197.287,259.897,198.597,260.917z"/>
	<path d="M203.507,264.558c0.53,0.38,1.14,0.56,1.74,0.56c0.94,0,1.86-0.44,2.45-1.26c0.96-1.35,0.65-3.22-0.7-4.18
		s-3.23-0.65-4.19,0.7C201.847,261.728,202.167,263.598,203.507,264.558z"/>
	<path d="M216.838,266.158c-1.42-0.86-3.26-0.41-4.12,1c-0.87,1.42-0.42,3.26,1,4.12c0.49,0.3,1.03,0.44,1.56,0.44
		c1.01,0,2-0.51,2.56-1.44C218.697,268.858,218.247,267.018,216.838,266.158z"/>
	<path d="M189.017,244.558c-1.17-1.17-3.07-1.18-4.24-0.01s-1.18,3.07-0.01,4.25c0.59,0.58,1.36,0.88,2.13,0.88
		c0.76,0,1.53-0.29,2.12-0.88C190.187,247.628,190.187,245.728,189.017,244.558z"/>
	<path d="M208.557,268.018c0.51,0.33,1.08,0.49,1.64,0.49c0.98,0,1.94-0.47,2.51-1.35c0.91-1.38,0.53-3.24-0.85-4.15
		c-1.39-0.91-3.25-0.53-4.16,0.85C206.787,265.248,207.167,267.108,208.557,268.018z"/>
	<path d="M226.037,381.417c-1.53-0.55-3.22,0.23-3.81,1.74c0.55-1.53-0.21-3.22-1.73-3.82c-1.54-0.6-3.28,0.16-3.88,1.71
		c-0.61,1.54,0.16,3.28,1.7,3.88c1.54,0.61,3.28-0.16,3.89-1.7c-0.56,1.56,0.25,3.28,1.8,3.84c0.34,0.12,0.68,0.18,1.02,0.18
		c1.23,0,2.38-0.77,2.82-1.99C228.407,383.698,227.597,381.978,226.037,381.417z"/>
	<path d="M242.977,386.728c-1.58-0.42-3.19,0.49-3.66,2.04c0.43-1.56-0.47-3.19-2.03-3.65c-1.57-0.47-3.21,0.4-3.71,1.94
		c0.46-1.55-0.39-3.2-1.94-3.71c-1.57-0.52-3.27,0.34-3.79,1.91c-0.51,1.57,0.34,3.27,1.92,3.79c1.57,0.51,3.27-0.34,3.78-1.92
		c-0.47,1.59,0.43,3.26,2.02,3.74c1.59,0.47,3.26-0.43,3.73-2.02c-0.43,1.6,0.52,3.25,2.12,3.68c0.26,0.07,0.52,0.1,0.78,0.1
		c1.32,0,2.53-0.88,2.9-2.22C245.527,388.808,244.577,387.158,242.977,386.728z"/>
	<path d="M158.128,347.978c0.81,0,1.62-0.33,2.21-0.98c1.13-1.22,1.04-3.11-0.18-4.23s-3.12-1.04-4.24,0.18
		c-1.12,1.22-1.04,3.12,0.19,4.24C156.677,347.718,157.407,347.978,158.128,347.978z"/>
	<path d="M212.677,382.638c0.39,0.16,0.78,0.24,1.17,0.24c1.17,0,2.28-0.69,2.76-1.83c0.65-1.53-0.06-3.29-1.59-3.94
		c-1.53-0.64-3.29,0.07-3.93,1.6C210.437,380.238,211.157,381.998,212.677,382.638z"/>
	<path d="M184.548,364.758c-0.86,1.41-0.4,3.26,1.02,4.11c0.48,0.29,1.02,0.43,1.54,0.43c1.02,0,2.02-0.52,2.58-1.46
		c0.85-1.42,0.39-3.26-1.03-4.11C187.237,362.868,185.397,363.338,184.548,364.758z"/>
	<path d="M190.838,371.928c0.46,0.26,0.97,0.39,1.46,0.39c1.05,0,2.07-0.55,2.62-1.53c0.81-1.45,0.3-3.28-1.14-4.09
		c-1.45-0.81-3.28-0.3-4.09,1.14C188.878,369.288,189.387,371.118,190.838,371.928z"/>
	<path d="M207.108,380.188c0.41,0.19,0.83,0.27,1.25,0.27c1.13,0,2.22-0.65,2.73-1.75c0.69-1.51,0.02-3.29-1.49-3.98
		c-1.51-0.68-3.28-0.02-3.97,1.49C204.937,377.728,205.608,379.508,207.108,380.188z"/>
	<path d="M201.608,377.588c0.43,0.21,0.88,0.31,1.32,0.31c1.11,0,2.18-0.62,2.7-1.68c0.73-1.49,0.11-3.29-1.38-4.02
		c-1.49-0.72-3.28-0.11-4.01,1.38C199.507,375.068,200.128,376.858,201.608,377.588z"/>
	<path d="M196.187,374.838c0.44,0.23,0.92,0.34,1.39,0.34c1.08,0,2.12-0.58,2.66-1.6c0.77-1.47,0.2-3.28-1.26-4.05
		c-0.01,0-0.01,0-0.01,0c-1.46-0.77-3.28-0.21-4.05,1.26C194.147,372.248,194.717,374.068,196.187,374.838z"/>
	<path d="M180.397,365.658c0.5,0.32,1.06,0.47,1.61,0.47c0.99,0,1.96-0.48,2.53-1.38c0.89-1.39,0.49-3.25-0.91-4.14
		c-1.39-0.9-3.25-0.49-4.14,0.9C178.597,362.908,178.997,364.768,180.397,365.658z"/>
	<path d="M164.947,350.877c-1.02,1.3-0.79,3.19,0.52,4.21c0.54,0.43,1.2,0.64,1.84,0.64c0.89,0,1.78-0.4,2.37-1.15
		c1.02-1.31,0.79-3.19-0.52-4.22C167.858,349.338,165.967,349.568,164.947,350.877z"/>
	<path d="M160.717,351.228v0.01c0.56,0.47,1.25,0.7,1.93,0.7c0.85,0,1.7-0.36,2.29-1.07c1.07-1.26,0.91-3.16-0.36-4.22
		c-1.26-1.07-3.16-0.91-4.22,0.36C159.287,348.268,159.447,350.167,160.717,351.228z"/>
	<path d="M170.338,358.768c0.53,0.39,1.15,0.58,1.76,0.58c0.93,0,1.84-0.43,2.43-1.23c0.98-1.34,0.68-3.21-0.65-4.19
		c-1.34-0.98-3.22-0.69-4.2,0.65C168.707,355.917,168.997,357.788,170.338,358.768z"/>
	<path d="M175.318,362.288c0.51,0.36,1.1,0.53,1.69,0.53c0.95,0,1.89-0.46,2.48-1.31c0.93-1.37,0.58-3.23-0.79-4.17
		c-1.36-0.93-3.23-0.58-4.17,0.78C173.597,359.488,173.947,361.358,175.318,362.288z"/>
	<path d="M246.527,104.878c0.44,0.22,0.9,0.33,1.35,0.33c1.1,0,2.16-0.6,2.68-1.65c0.75-1.48,0.16-3.28-1.32-4.03
		s-3.28-0.16-4.03,1.32S245.048,104.128,246.527,104.878z"/>
	<path d="M229.017,125.188c-1.08,1.26-0.93,3.15,0.33,4.23c0.56,0.48,1.26,0.72,1.95,0.72c0.84,0,1.68-0.35,2.28-1.05
		c1.07-1.25,0.93-3.15-0.33-4.23C231.987,123.778,230.097,123.928,229.017,125.188z"/>
	<path d="M227.277,134.588c0.79,0,1.58-0.31,2.17-0.93c1.14-1.19,1.09-3.09-0.11-4.24c-1.2-1.14-3.09-1.1-4.24,0.11
		c-1.14,1.2-1.09,3.09,0.11,4.24C225.787,134.318,226.527,134.588,227.277,134.588z"/>
	<path d="M225.077,138.008c1.2-1.13,1.26-3.03,0.12-4.24c-1.13-1.21-3.03-1.26-4.23-0.13c-1.21,1.14-1.27,3.03-0.13,4.24
		c0.58,0.63,1.38,0.95,2.18,0.95C223.757,138.828,224.497,138.548,225.077,138.008z"/>
	<path d="M220.457,142.108c1.27-1.07,1.44-2.96,0.37-4.23c-1.06-1.27-2.95-1.43-4.22-0.37c-1.27,1.07-1.44,2.96-0.37,4.23
		c0.59,0.71,1.44,1.07,2.3,1.07C219.217,142.808,219.897,142.578,220.457,142.108z"/>
	<path d="M237.457,124.318c1.02-1.31,0.78-3.19-0.54-4.21c-1.31-1.01-3.19-0.77-4.2,0.54c-1.02,1.31-0.78,3.2,0.53,4.21
		c0.55,0.42,1.2,0.63,1.84,0.63C235.977,125.488,236.867,125.088,237.457,124.318z"/>
	<path d="M236.187,115.928c-0.95,1.36-0.62,3.23,0.74,4.18c0.52,0.37,1.12,0.54,1.71,0.54c0.95,0,1.88-0.45,2.46-1.28
		c0.95-1.36,0.62-3.23-0.74-4.18C238.997,114.238,237.128,114.568,236.187,115.928z"/>
	<path d="M230.707,236.858c0.6,0,1.21-0.19,1.74-0.57c1.35-0.96,1.66-2.84,0.69-4.18c1.01,1.31,2.89,1.56,4.21,0.56
		c1.31-1.01,1.56-2.89,0.56-4.21c-1.01-1.31-2.89-1.56-4.21-0.56c-1.29,0.99-1.55,2.83-0.61,4.14c-0.98-1.29-2.81-1.57-4.13-0.62
		c-1.35,0.96-1.66,2.84-0.69,4.19C228.847,236.417,229.767,236.858,230.707,236.858z"/>
	<path d="M242.128,228.888c1.28-1.05,1.48-2.94,0.43-4.22c-1.05-1.29-2.94-1.48-4.22-0.43c-1.29,1.05-1.48,2.94-0.43,4.22
		c0.59,0.73,1.45,1.1,2.33,1.1C240.897,229.558,241.568,229.338,242.128,228.888z"/>
	<path d="M246.787,224.958c1.25-1.09,1.39-2.98,0.3-4.23c-1.09-1.25-2.99-1.38-4.23-0.3c-1.26,1.09-1.39,2.99-0.3,4.24
		c0.59,0.68,1.43,1.03,2.26,1.03C245.517,225.698,246.217,225.458,246.787,224.958z"/>
	<path d="M253.617,217.528c0.76,0,1.53-0.29,2.11-0.86c1.18-1.17,1.19-3.07,0.02-4.25c-1.16-1.18-3.06-1.18-4.24-0.02
		c-1.18,1.17-1.19,3.07-0.02,4.24C252.077,217.238,252.847,217.528,253.617,217.528z"/>
	<path d="M225.777,240.278c0.57,0,1.15-0.17,1.67-0.51c1.37-0.92,1.74-2.79,0.81-4.16c-0.92-1.38-2.78-1.75-4.16-0.82
		c-1.37,0.92-1.74,2.79-0.81,4.16C223.858,239.808,224.807,240.278,225.777,240.278z"/>
	<path d="M251.327,220.888c1.21-1.13,1.28-3.03,0.16-4.24c-1.13-1.22-3.03-1.29-4.24-0.16c-1.22,1.12-1.29,3.02-0.16,4.24
		c0.59,0.63,1.39,0.96,2.2,0.96C250.017,221.688,250.747,221.417,251.327,220.888z"/>
	<path d="M257.818,213.238c0.79,0,1.59-0.32,2.18-0.94c1.14-1.21,1.08-3.1-0.12-4.24c-1.21-1.14-3.11-1.09-4.24,0.12
		c-1.14,1.2-1.09,3.1,0.12,4.24C256.338,212.968,257.077,213.238,257.818,213.238z"/>
	<path d="M289.917,272.698c0.35,0.13,0.7,0.2,1.06,0.2c1.21,0,2.35-0.74,2.8-1.94c0-0.01,0-0.01,0-0.01
		c0.59-1.54-0.19-3.28-1.74-3.86c-1.55-0.59-3.28,0.19-3.87,1.74C287.577,270.378,288.367,272.108,289.917,272.698z"/>
	<path d="M280.527,284.518c-0.86,1.41-0.41,3.26,1.01,4.12c0.48,0.29,1.02,0.44,1.55,0.44c1.02,0,2-0.52,2.57-1.44
		c0.86-1.42,0.41-3.27-1-4.13C283.237,282.647,281.397,283.098,280.527,284.518z"/>
	<path d="M287.447,278.178c0.4,0.18,0.82,0.27,1.23,0.27c1.14,0,2.24-0.66,2.74-1.77c0.68-1.51,0-3.29-1.51-3.97
		c-1.51-0.68-3.29,0-3.96,1.51C285.267,275.728,285.937,277.508,287.447,278.178z"/>
	<path d="M292.037,267.068c0.3,0.1,0.6,0.14,0.89,0.14c1.28,0,2.47-0.83,2.87-2.11c0.49-1.59-0.4-3.27-1.98-3.76
		c-1.58-0.49-3.26,0.4-3.75,1.98C289.568,264.897,290.457,266.578,292.037,267.068z"/>
	<path d="M288.707,282.248c0.77-1.47,0.2-3.29-1.26-4.06c-1.47-0.77-3.28-0.2-4.05,1.26c-0.77,1.47-0.21,3.28,1.26,4.06
		c0.44,0.23,0.92,0.34,1.39,0.34C287.128,283.848,288.167,283.268,288.707,282.248z"/>
	<path d="M157.207,415.798h-0.01c-1.58-0.48-3.25,0.43-3.73,2.02c-0.47,1.58,0.43,3.25,2.02,3.73c0.29,0.08,0.58,0.12,0.86,0.12
		c1.29,0,2.49-0.84,2.87-2.14C159.697,417.938,158.787,416.268,157.207,415.798z"/>
	<path d="M294.597,370.738c-1.15,1.2-1.1,3.1,0.09,4.25c0.58,0.55,1.33,0.83,2.08,0.83c0.79,0,1.58-0.31,2.17-0.93
		c1.14-1.2,1.1-3.1-0.1-4.24C297.637,369.498,295.737,369.538,294.597,370.738z"/>
	<path d="M253.147,403.758c-1.44,0.83-1.94,2.66-1.12,4.1c0.56,0.97,1.57,1.51,2.61,1.51c0.51,0,1.02-0.13,1.49-0.4
		c1.44-0.82,1.93-2.65,1.11-4.09C256.417,403.438,254.588,402.938,253.147,403.758z"/>
	<path d="M281.798,383.058c-1.24,1.09-1.36,2.99-0.26,4.23c0.59,0.67,1.42,1.02,2.25,1.02c0.7,0,1.41-0.25,1.98-0.75
		c1.24-1.1,1.36-2.99,0.26-4.24C284.937,382.078,283.037,381.958,281.798,383.058z"/>
	<path d="M258.197,400.748c-1.4,0.87-1.83,2.72-0.96,4.13c0.57,0.91,1.55,1.41,2.55,1.41c0.54,0,1.09-0.14,1.59-0.45
		c1.4-0.88,1.83-2.73,0.96-4.13C261.457,400.298,259.608,399.868,258.197,400.748z"/>
	<path d="M298.847,370.638c0.57,0.52,1.29,0.78,2.01,0.78c0.82,0,1.63-0.33,2.22-0.98c0-0.01,0-0.01,0-0.01
		c1.12-1.22,1.02-3.12-0.2-4.23c-1.23-1.12-3.13-1.02-4.24,0.2C297.527,367.627,297.617,369.528,298.847,370.638z"/>
	<path d="M304.838,366.908c0.84,0,1.68-0.35,2.27-1.04c1.09-1.26,0.94-3.15-0.31-4.23c-1.26-1.08-3.16-0.94-4.24,0.32
		c-1.07,1.25-0.93,3.15,0.32,4.23C303.447,366.667,304.147,366.908,304.838,366.908z"/>
	<path d="M247.987,406.578c-1.45,0.75-2.02,2.51-1.32,3.97c-0.73-1.44-2.48-2.05-3.95-1.36c-1.46,0.68-2.11,2.38-1.5,3.85
		c-0.69-1.43-2.38-2.1-3.87-1.48c-1.48,0.62-2.2,2.28-1.67,3.77c-0.63-1.45-2.28-2.18-3.79-1.63c-1.5,0.54-2.3,2.17-1.84,3.68
		c-0.56-1.48-2.18-2.28-3.71-1.81v0.01c-1.52,0.47-2.4,2.05-2.01,3.58c-0.49-1.49-2.07-2.37-3.61-1.97
		c-1.55,0.4-2.49,1.94-2.19,3.48c-0.41-1.52-1.94-2.47-3.5-2.14c-1.56,0.32-2.58,1.79-2.36,3.34c-0.35-1.52-1.83-2.54-3.39-2.29
		c-1.57,0.24-2.66,1.66-2.53,3.22c-0.27-1.54-1.69-2.63-3.26-2.46v-0.01c-1.58,0.17-2.75,1.53-2.69,3.09
		c-0.19-1.55-1.55-2.71-3.14-2.63c-1.59,0.09-2.83,1.4-2.84,2.97c-0.1-1.57-1.4-2.81-3-2.81c-1.62,0.01-2.95,1.3-2.99,2.91
		c0.03-1.61-1.23-2.97-2.85-3.05c-1.61-0.08-2.98,1.12-3.14,2.7c0.08-1.59-1.09-2.98-2.69-3.14c-1.6-0.16-3.04,0.97-3.27,2.54
		c0.16-1.58-0.95-3.03-2.54-3.27c-1.63-0.24-3.16,0.88-3.41,2.52s0.88,3.17,2.52,3.42c1.64,0.24,3.16-0.88,3.41-2.52
		c-0.16,1.65,1.04,3.12,2.69,3.28c1.65,0.17,3.12-1.03,3.28-2.68c-0.08,1.65,1.2,3.06,2.85,3.15c0-0.01,0-0.01,0-0.01
		c1.66,0.09,3.06-1.19,3.15-2.84c0,1.65,1.34,2.99,3,2.99c1.65,0,2.99-1.33,3-2.97c0.1,1.64,1.51,2.89,3.15,2.81
		c0-0.01,0-0.01,0-0.01c1.64-0.08,2.9-1.47,2.84-3.1c0.2,1.62,1.66,2.79,3.29,2.62c1.63-0.17,2.82-1.62,2.68-3.24
		c0.28,1.61,1.8,2.7,3.42,2.44c1.62-0.25,2.73-1.75,2.5-3.37c0.36,1.59,1.94,2.6,3.54,2.27c1.61-0.34,2.65-1.91,2.33-3.52
		c0.43,1.58,2.06,2.53,3.65,2.12c1.6-0.42,2.56-2.04,2.16-3.64c0.5,1.57,2.17,2.43,3.75,1.94c1.57-0.49,2.45-2.16,1.97-3.73
		c0.58,1.54,2.29,2.33,3.84,1.76c1.55-0.56,2.35-2.27,1.8-3.82c0.64,1.51,2.39,2.22,3.91,1.59c1.52-0.64,2.25-2.38,1.62-3.91
		c0.71,1.49,2.49,2.13,3.98,1.43c1.5-0.7,2.15-2.49,1.45-3.99c0.76,1.47,2.57,2.04,4.05,1.28c1.46-0.77,2.04-2.58,1.27-4.05
		C251.267,406.388,249.457,405.818,247.987,406.578z"/>
	<path d="M281.137,391.518c1.27-1.06,1.45-2.95,0.39-4.22c-1.06-1.28-2.95-1.45-4.22-0.4c-1.28,1.06-1.45,2.95-0.4,4.23
		c0.6,0.71,1.45,1.08,2.31,1.08C279.897,392.208,280.577,391.988,281.137,391.518z"/>
	<path d="M168.577,418.627c-1.58-0.32-3.12,0.67-3.5,2.22c0.31-1.57-0.66-3.12-2.22-3.51c-1.61-0.4-3.24,0.58-3.64,2.19
		c-0.4,1.61,0.58,3.23,2.19,3.64c1.61,0.4,3.23-0.58,3.64-2.19c-0.33,1.63,0.72,3.21,2.35,3.53c0.2,0.04,0.39,0.06,0.59,0.06
		c1.4,0,2.65-0.98,2.94-2.41C171.247,420.538,170.197,418.958,168.577,418.627z"/>
	<path d="M286.177,379.078c-1.21,1.13-1.27,3.03-0.14,4.24c0.59,0.63,1.39,0.95,2.19,0.95c0.73,0,1.47-0.27,2.05-0.81
		c1.21-1.13,1.27-3.03,0.14-4.24C289.287,378.008,287.387,377.938,286.177,379.078z"/>
	<path d="M310.597,356.968c0.55,0.42,1.2,0.63,1.84,0.63c0.89,0,1.78-0.41,2.37-1.17c1.01-1.31,0.77-3.2-0.54-4.21
		c-1.31-1.01-3.2-0.77-4.21,0.54C309.048,354.068,309.287,355.958,310.597,356.968z"/>
	<path d="M290.447,374.968c-1.18,1.17-1.19,3.07-0.03,4.24c0.59,0.6,1.36,0.89,2.14,0.89c0.76,0,1.52-0.29,2.11-0.87
		c1.17-1.16,1.18-3.06,0.02-4.24C293.517,373.808,291.617,373.798,290.447,374.968z"/>
	<path d="M308.697,362.298c0.87,0,1.73-0.37,2.32-1.1c1.05-1.28,0.86-3.17-0.43-4.22c-1.28-1.05-3.17-0.86-4.22,0.43
		c-1.04,1.28-0.85,3.17,0.43,4.22C307.358,362.078,308.027,362.298,308.697,362.298z"/>
	<path d="M234.812,168.303c0,6.221,5.062,11.283,11.283,11.283s11.283-5.062,11.283-11.283s-5.062-11.283-11.283-11.283
		S234.812,162.082,234.812,168.303z M246.095,163.021c2.913,0,5.283,2.37,5.283,5.283s-2.37,5.283-5.283,5.283
		s-5.283-2.37-5.283-5.283S243.182,163.021,246.095,163.021z"/>
	<path d="M270.425,273.285c6.222,0,11.283-5.062,11.283-11.283s-5.062-11.283-11.283-11.283c-6.221,0-11.283,5.062-11.283,11.283
		S264.204,273.285,270.425,273.285z M270.425,256.72c2.913,0,5.283,2.37,5.283,5.283s-2.37,5.283-5.283,5.283
		s-5.283-2.37-5.283-5.283S267.512,256.72,270.425,256.72z"/>
	<path d="M201.829,307.391c0-6.221-5.062-11.283-11.283-11.283c-6.222,0-11.283,5.062-11.283,11.283s5.062,11.283,11.283,11.283
		C196.768,318.673,201.829,313.612,201.829,307.391z M185.263,307.391c0-2.913,2.37-5.283,5.283-5.283s5.283,2.37,5.283,5.283
		s-2.37,5.283-5.283,5.283S185.263,310.304,185.263,307.391z"/>
	<path d="M289.423,336.274c6.221,0,11.283-5.062,11.283-11.283s-5.062-11.283-11.283-11.283s-11.283,5.062-11.283,11.283
		S283.201,336.274,289.423,336.274z M289.423,319.709c2.913,0,5.283,2.37,5.283,5.283s-2.37,5.283-5.283,5.283
		s-5.283-2.37-5.283-5.283S286.509,319.709,289.423,319.709z"/>
	<path d="M238.69,376.135c6.222,0,11.283-5.062,11.283-11.283s-5.062-11.283-11.283-11.283c-6.221,0-11.283,5.062-11.283,11.283
		S232.469,376.135,238.69,376.135z M238.69,359.57c2.913,0,5.283,2.37,5.283,5.283s-2.37,5.283-5.283,5.283s-5.283-2.37-5.283-5.283
		S235.777,359.57,238.69,359.57z"/>
	<path d="M210.486,435.199c-6.221,0-11.283,5.062-11.283,11.283s5.062,11.283,11.283,11.283s11.283-5.062,11.283-11.283
		S216.707,435.199,210.486,435.199z M210.486,451.765c-2.913,0-5.283-2.37-5.283-5.283s2.37-5.283,5.283-5.283
		s5.283,2.37,5.283,5.283S213.399,451.765,210.486,451.765z"/>
	<path d="M294.112,411.211c-6.221,0-11.283,5.062-11.283,11.283s5.062,11.283,11.283,11.283s11.283-5.062,11.283-11.283
		S300.333,411.211,294.112,411.211z M294.112,427.777c-2.913,0-5.283-2.37-5.283-5.283s2.37-5.283,5.283-5.283
		s5.283,2.37,5.283,5.283S297.025,427.777,294.112,427.777z"/>
	<path d="M177.117,380.151c-6.222,0-11.283,5.062-11.283,11.283s5.062,11.283,11.283,11.283c6.221,0,11.283-5.062,11.283-11.283
		S183.339,380.151,177.117,380.151z M177.117,396.716c-2.913,0-5.283-2.37-5.283-5.283s2.37-5.283,5.283-5.283
		s5.283,2.37,5.283,5.283S180.03,396.716,177.117,396.716z"/>
	<path d="M208.304,206.717c-6.221,0-11.283,5.062-11.283,11.283s5.062,11.283,11.283,11.283s11.283-5.062,11.283-11.283
		S214.526,206.717,208.304,206.717z M208.304,223.283c-2.913,0-5.283-2.37-5.283-5.283s2.37-5.283,5.283-5.283
		s5.283,2.37,5.283,5.283S211.217,223.283,208.304,223.283z"/>
</g>
<g>
</g>
<g>
</g>
<g>
</g>
<g>
</g>
<g>
</g>
<g>
</g>
<g>
</g>
<g>
</g>
<g>
</g>
<g>
</g>
<g>
</g>
<g>
</g>
<g>
</g>
<g>
</g>
<g>
</g>
</svg>
