<?xml version="1.0" encoding="iso-8859-1"?>
<!-- Generator: Adobe Illustrator 18.0.0, SVG Export Plug-In . SVG Version: 6.00 Build 0)  -->
<!DOCTYPE svg PUBLIC "-//W3C//DTD SVG 1.1//EN" "http://www.w3.org/Graphics/SVG/1.1/DTD/svg11.dtd">
<svg version="1.1" id="Capa_1" xmlns="http://www.w3.org/2000/svg" xmlns:xlink="http://www.w3.org/1999/xlink" x="0px" y="0px"
	 viewBox="0 0 474.583 474.583" style="enable-background:new 0 0 474.583 474.583;" xml:space="preserve">
<path d="M395.083,341.389c-57.479-22.107-75.953-54.314-83.95-72.314c10.552,2.152,26.355,1.687,35.816-6.197
	c10.876,4.035,24.143,0.456,30.85-7.985c3.69,2.83,9.358,4.074,15.059,3.033c8.227-1.503,13.816-7.286,14.953-15.47
	c2.818-20.292-14.543-24.365-38.573-30.002c-11.31-2.653-25.385-5.956-40.646-11.505c-18.993-6.906-33.423-18.656-42.891-34.923
	c-3.564-6.124-5.716-11.774-6.976-15.894c3.322,1.341,7.966,2.472,14.176,2.472c11.396,0,15.372-7.251,16.739-11.705
	c7.189,1.478,24.502,4.439,32.267,0.556c5.404-2.703,8.558-9.308,7.334-15.365c-1.1-5.446-6.385-14.808-29.424-16.311
	c-17.565-1.146-42.956-8.89-56.705-26.945c-7.901-10.375-10.497-22.452-7.716-35.894c3.618-17.487,2.24-30.552-4.095-38.833
	c-5.762-7.53-13.501-8.082-13.827-8.102c-0.121-0.007-0.242-0.007-0.363,0c-0.326,0.02-8.065,0.572-13.827,8.102
	c-6.335,8.28-7.713,21.345-4.095,38.833c2.78,13.442,0.185,25.519-7.717,35.895c-13.749,18.055-39.14,25.799-56.704,26.945
	c-23.039,1.502-28.324,10.864-29.425,16.311c-1.223,6.057,1.931,12.663,7.335,15.365c7.765,3.882,25.078,0.922,32.266-0.556
	c1.368,4.453,5.346,11.705,16.74,11.705c6.209,0,10.853-1.131,14.175-2.472c-1.26,4.12-3.411,9.77-6.976,15.893
	c-9.467,16.267-23.897,28.017-42.89,34.923c-15.262,5.55-29.337,8.852-40.646,11.505c-24.03,5.638-41.392,9.711-38.574,30.002
	c1.138,8.185,6.729,13.968,14.956,15.471c5.694,1.038,11.363-0.204,15.056-3.033c6.708,8.441,19.973,12.019,30.85,7.985
	c9.461,7.883,25.262,8.347,35.816,6.197c-7.997,18-26.473,50.208-83.95,72.314c-27.717,10.66-31.668,24.297-31.556,31.478
	c0.125,8.049,5.488,15.302,13.346,18.046c6.364,2.223,12.773,0.98,17.71-3.297c2.986,3.065,8.77,7.765,16.865,8.771
	c7.366,0.915,14.893-1.406,22.413-6.904c4.242,8.07,13.623,12.771,21.985,13.935c9.101,1.265,17.245-1.334,22.005-6.857
	c7.691,4.256,16.496,5.748,25.091,4.204c7.329-1.318,14.046-4.73,18.911-9.533c4.964,4.932,11.019,8.559,17.617,10.66v69.693
	c0,1.657,1.343,3,3,3h20.799c1.657,0,3-1.343,3-3v-69.689c6.602-2.1,12.66-5.729,17.626-10.663
	c4.866,4.802,11.582,8.215,18.911,9.533c8.916,1.602,18.063-0.064,25.956-4.697c9.355,5.171,18.501,6.765,26.551,4.613
	c6.443-1.725,11.93-5.708,16.03-11.601c7.703,5.79,15.413,8.243,22.958,7.308c8.095-1.007,13.878-5.706,16.864-8.771
	c4.938,4.277,11.345,5.521,17.711,3.297c7.857-2.745,13.221-9.997,13.346-18.047C426.751,365.687,422.799,352.05,395.083,341.389z
	 M181.683,146.604c-10.459,0-11.38-8.504-11.449-9.454c-0.053-0.884-0.492-1.7-1.202-2.229c-0.711-0.53-1.618-0.717-2.48-0.515
	c-9.085,2.138-25.589,4.483-31.19,1.682c-2.642-1.321-4.911-4.978-4.137-8.811c0.612-3.032,4.17-10.222,23.934-11.511
	c18.823-1.228,46.115-9.637,61.087-29.297c9-11.819,11.967-25.527,8.818-40.746c-3.183-15.385-2.184-27.09,2.892-33.847
	c3.667-4.884,8.337-5.733,9.332-5.861c1.035,0.134,5.687,0.994,9.342,5.861c5.075,6.757,6.074,18.462,2.892,33.847
	c-3.149,15.218-0.183,28.926,8.817,40.745c14.972,19.661,42.265,28.07,61.088,29.298c19.764,1.289,23.321,8.479,23.934,11.511
	c0.774,3.833-1.495,7.49-4.137,8.811c-5.595,2.798-22.104,0.454-31.192-1.682c-0.858-0.202-1.769-0.014-2.479,0.515
	c-0.71,0.529-1.15,1.345-1.202,2.229c-0.022,0.386-0.68,9.453-11.448,9.453c-11.946,0-16.506-4.74-16.52-4.753
	c-0.871-0.997-2.294-1.302-3.5-0.755c-0.426,0.194-1.412,1.228-1.586,1.424c-8.789,9.951-24.29,9.866-37.2-0.326
	c-1.012-0.799-2.418-0.861-3.498-0.158c-12.117,7.9-23.286,2.534-27.024,0.262c-0.757-0.46-1.656-1.075-1.845-1.165
	c-1.18-0.559-2.604-0.273-3.495,0.683C198.188,141.864,193.63,146.604,181.683,146.604z M149.178,264.054
	c-8.228-0.479-14.909-2.893-18.816-6.8c-0.892-0.892-2.244-1.13-3.39-0.597c-9.448,4.411-22.875,0.443-27.102-8.012
	c-0.5-0.999-1.514-1.638-2.63-1.658c-0.019,0-0.036,0-0.054,0c-1.097,0-2.107,0.599-2.634,1.563
	c-1.537,2.817-6.804,4.375-11.748,3.474c-3.313-0.605-9.029-2.76-10.09-10.394c-1.986-14.304,8.346-17.317,34.001-23.336
	c11.464-2.689,25.731-6.037,41.327-11.708c40.341-14.67,51.666-46.45,54.52-58.058c5.774,2.878,17.214,6.614,29.493-0.36
	c7.104,5.1,14.961,7.635,22.369,7.635c6.612,0,12.861-2.028,17.908-6.043c3.329,12.484,15.213,42.647,54.205,56.826
	c15.596,5.671,29.863,9.019,41.327,11.708c25.655,6.019,35.987,9.032,34,23.336c-1.06,7.633-6.775,9.788-10.088,10.393
	c-4.95,0.902-10.214-0.656-11.75-3.473c-0.534-0.98-1.57-1.611-2.688-1.563c-1.117,0.02-2.13,0.659-2.63,1.658
	c-4.226,8.453-17.646,12.423-27.102,8.011c-1.144-0.533-2.498-0.294-3.39,0.597c-3.906,3.907-10.589,6.321-18.815,6.8
	c-7.653,0.444-14.726-0.881-18.352-2.392c-1.084-0.452-2.322-0.224-3.18,0.565l-0.004-0.005c-0.743,0.677-18.523,16.435-47.953,2.39
	c-1.077-0.513-2.355-0.341-3.257,0.44c-9.252,8.017-25.818,11.704-41.973,1.871c-0.858-0.523-1.924-0.582-2.833-0.154
	c-20.932,9.813-36.495-3.964-37.147-4.556l-0.005,0.005c-0.858-0.781-2.092-1.009-3.17-0.557
	C163.904,263.174,156.819,264.497,149.178,264.054z M244.686,468.583h-14.799v-65.238c2.429,0.412,4.903,0.636,7.404,0.636
	c0.002,0,0.005,0,0.007,0c2.496,0,4.964-0.224,7.388-0.635V468.583z M411.315,385.249c-2.406,0.84-8.538,2.133-13.547-3.966
	c-0.594-0.722-1.496-1.128-2.424-1.094c-0.935,0.033-1.8,0.5-2.341,1.262c-0.056,0.078-5.646,7.816-15.025,8.982
	c-6.679,0.831-13.758-1.888-21.023-8.084c-0.684-0.583-1.591-0.828-2.475-0.67c-0.883,0.158-1.649,0.703-2.089,1.485
	c-3.42,6.095-8.335,10.148-14.212,11.721c-6.907,1.849-15.04,0.158-23.525-4.887c-0.982-0.585-2.214-0.56-3.172,0.066
	c-14.888,9.709-32.769,4.894-40.794-5.139c-0.557-0.696-1.395-1.108-2.285-1.125c-0.888-0.026-1.743,0.362-2.327,1.037l-0.258,0.296
	c-0.003,0.002-0.005,0.005-0.007,0.007c-7.18,8.16-17.573,12.841-28.514,12.842c-0.002,0-0.004,0-0.006,0
	c-10.939,0-21.333-4.679-28.514-12.834l-0.28-0.321c-0.57-0.654-1.396-1.028-2.261-1.028c-0.021,0-0.043,0-0.063,0
	c-0.89,0.019-1.724,0.431-2.279,1.125c-8.024,10.033-25.904,14.85-40.794,5.139c-0.683-0.445-1.516-0.593-2.312-0.411
	c-0.795,0.183-1.48,0.681-1.899,1.38c-3.642,6.068-11.581,7.307-17.8,6.442c-7.725-1.074-16.478-5.705-18.618-13.626
	c-0.269-0.993-1.026-1.779-2.009-2.083c-0.984-0.305-2.052-0.084-2.835,0.583c-7.24,6.176-14.294,8.899-20.96,8.092
	c-9.334-1.129-15.038-8.919-15.089-8.99c-0.541-0.762-1.406-1.229-2.341-1.262c-0.919-0.035-1.83,0.372-2.424,1.094
	c-5.009,6.1-11.142,4.807-13.546,3.966c-4.57-1.596-9.226-6.073-9.325-12.475c-0.148-9.556,9.951-18.954,27.711-25.785
	c62.328-23.972,80.543-59.628,88.301-77.822c6.251,4.226,20.795,11.492,38.987,3.69c7.437,4.217,14.938,5.988,21.938,5.988
	c9.438,0,17.966-3.222,24.187-8.015c25.039,11.205,42.583,2.926,49.553-1.683c7.752,18.188,25.957,53.86,88.309,77.842
	c17.76,6.831,27.86,16.229,27.712,25.784C420.541,379.176,415.884,383.653,411.315,385.249z"/>
<g>
</g>
<g>
</g>
<g>
</g>
<g>
</g>
<g>
</g>
<g>
</g>
<g>
</g>
<g>
</g>
<g>
</g>
<g>
</g>
<g>
</g>
<g>
</g>
<g>
</g>
<g>
</g>
<g>
</g>
</svg>
