<?xml version="1.0" encoding="iso-8859-1"?>
<!-- Generator: Adobe Illustrator 18.0.0, SVG Export Plug-In . SVG Version: 6.00 Build 0)  -->
<!DOCTYPE svg PUBLIC "-//W3C//DTD SVG 1.1//EN" "http://www.w3.org/Graphics/SVG/1.1/DTD/svg11.dtd">
<svg version="1.1" id="Capa_1" xmlns="http://www.w3.org/2000/svg" xmlns:xlink="http://www.w3.org/1999/xlink" x="0px" y="0px"
	 viewBox="0 0 467.728 467.728" style="enable-background:new 0 0 467.728 467.728;" xml:space="preserve">
<g>
	<path d="M187.933,207.4c6.394,0,11.596-5.202,11.596-11.596s-5.202-11.596-11.596-11.596s-11.596,5.202-11.596,11.596
		S181.539,207.4,187.933,207.4z M187.933,190.209c3.085,0,5.596,2.51,5.596,5.596s-2.51,5.596-5.596,5.596s-5.596-2.51-5.596-5.596
		S184.848,190.209,187.933,190.209z"/>
	<path d="M126.811,205.772c0-6.394-5.202-11.596-11.596-11.596s-11.596,5.202-11.596,11.596s5.202,11.596,11.596,11.596
		S126.811,212.166,126.811,205.772z M109.62,205.772c0-3.085,2.51-5.596,5.596-5.596s5.596,2.51,5.596,5.596
		s-2.51,5.596-5.596,5.596S109.62,208.857,109.62,205.772z"/>
	<path d="M170.147,288.728c-6.394,0-11.596,5.202-11.596,11.596s5.202,11.596,11.596,11.596s11.596-5.202,11.596-11.596
		S176.541,288.728,170.147,288.728z M170.147,305.92c-3.085,0-5.596-2.51-5.596-5.596s2.51-5.596,5.596-5.596
		c3.086,0,5.596,2.51,5.596,5.596S173.233,305.92,170.147,305.92z"/>
	<path d="M149.51,95.648c0-6.394-5.202-11.596-11.596-11.596s-11.596,5.202-11.596,11.596s5.202,11.596,11.596,11.596
		S149.51,102.042,149.51,95.648z M137.914,101.244c-3.085,0-5.596-2.51-5.596-5.596s2.51-5.596,5.596-5.596s5.596,2.51,5.596,5.596
		S141,101.244,137.914,101.244z"/>
	<path d="M230.543,338.369c-6.394,0-11.596,5.202-11.596,11.596s5.202,11.596,11.596,11.596s11.596-5.202,11.596-11.596
		S236.937,338.369,230.543,338.369z M230.543,355.56c-3.085,0-5.596-2.51-5.596-5.596s2.51-5.596,5.596-5.596
		s5.596,2.51,5.596,5.596S233.629,355.56,230.543,355.56z"/>
	<path d="M245.952,255.749c6.394,0,11.596-5.202,11.596-11.596s-5.202-11.596-11.596-11.596s-11.596,5.202-11.596,11.596
		S239.558,255.749,245.952,255.749z M245.952,238.557c3.085,0,5.596,2.51,5.596,5.596c0,3.085-2.51,5.596-5.596,5.596
		c-3.086,0-5.596-2.51-5.596-5.596C240.356,241.068,242.866,238.557,245.952,238.557z"/>
	<path d="M366.823,305.081c-6.394,0-11.596,5.202-11.596,11.596s5.202,11.596,11.596,11.596s11.596-5.202,11.596-11.596
		S373.217,305.081,366.823,305.081z M366.823,322.272c-3.085,0-5.596-2.51-5.596-5.596s2.51-5.596,5.596-5.596
		s5.596,2.51,5.596,5.596S369.909,322.272,366.823,322.272z"/>
	<path d="M219.289,79.043c6.394,0,11.596-5.202,11.596-11.596s-5.202-11.596-11.596-11.596s-11.596,5.202-11.596,11.596
		S212.895,79.043,219.289,79.043z M219.289,61.852c3.085,0,5.596,2.51,5.596,5.596s-2.51,5.596-5.596,5.596s-5.596-2.51-5.596-5.596
		S216.204,61.852,219.289,61.852z"/>
	<path d="M298.141,296.091c-6.394,0-11.596,5.202-11.596,11.596s5.202,11.596,11.596,11.596s11.596-5.202,11.596-11.596
		S304.535,296.091,298.141,296.091z M298.141,313.282c-3.085,0-5.596-2.51-5.596-5.596s2.51-5.596,5.596-5.596
		s5.596,2.51,5.596,5.596S301.227,313.282,298.141,313.282z"/>
	<path d="M284.908,218.752c6.394,0,11.596-5.202,11.596-11.596s-5.202-11.596-11.596-11.596s-11.596,5.202-11.596,11.596
		S278.514,218.752,284.908,218.752z M284.908,201.56c3.085,0,5.596,2.51,5.596,5.596c0,3.086-2.51,5.596-5.596,5.596
		s-5.596-2.51-5.596-5.596C279.313,204.07,281.823,201.56,284.908,201.56z"/>
	<path d="M355.542,215.459c6.394,0,11.596-5.202,11.596-11.596s-5.202-11.596-11.596-11.596s-11.596,5.202-11.596,11.596
		S349.148,215.459,355.542,215.459z M355.542,198.267c3.085,0,5.596,2.51,5.596,5.596c0,3.086-2.51,5.596-5.596,5.596
		c-3.086,0-5.596-2.51-5.596-5.596C349.946,200.777,352.456,198.267,355.542,198.267z"/>
	<path d="M257.233,139.712c6.394,0,11.596-5.202,11.596-11.596s-5.202-11.596-11.596-11.596s-11.596,5.202-11.596,11.596
		S250.839,139.712,257.233,139.712z M257.233,122.521c3.085,0,5.596,2.51,5.596,5.596s-2.51,5.596-5.596,5.596
		s-5.596-2.51-5.596-5.596S254.148,122.521,257.233,122.521z"/>
	<path d="M313.64,91.364c6.394,0,11.596-5.202,11.596-11.596s-5.202-11.596-11.596-11.596s-11.596,5.202-11.596,11.596
		S307.246,91.364,313.64,91.364z M313.64,74.172c3.085,0,5.596,2.51,5.596,5.596s-2.51,5.596-5.596,5.596s-5.596-2.51-5.596-5.596
		S310.554,74.172,313.64,74.172z"/>
	<path d="M99.294,300.246c-6.394,0-11.596,5.202-11.596,11.596s5.202,11.596,11.596,11.596s11.596-5.202,11.596-11.596
		S105.688,300.246,99.294,300.246z M99.294,317.437c-3.085,0-5.596-2.51-5.596-5.596s2.51-5.596,5.596-5.596s5.596,2.51,5.596,5.596
		S102.38,317.437,99.294,317.437z"/>
	<path d="M361.733,248.81c16.851-11.72,25.728-25.454,25.728-39.897c0-13.445-15.825-32.441-48.334-58.003
		c20.917-11.51,32.307-26.064,32.307-41.596c0-27.118-75.46-77.106-120.442-104.491c-10.564-6.431-23.69-6.433-34.257,0
		C171.755,32.208,96.294,82.197,96.294,109.315c0,15.532,11.39,30.086,32.307,41.596c-32.509,25.562-48.334,44.558-48.334,58.003
		c0,14.443,8.877,28.177,25.728,39.897c-28.471,23.807-42.329,41.833-42.329,55.043c0,21.569,18.016,41.645,50.729,56.531
		c26.881,12.231,61.167,19.839,98.207,21.949v64.129c0,11.726,9.54,21.266,21.266,21.266s21.266-9.54,21.266-21.266v-64.129
		c37.037-2.111,71.321-9.718,98.2-21.949c32.713-14.886,50.729-34.962,50.729-56.531
		C404.062,290.643,390.204,272.618,361.733,248.81z M102.294,109.315c0-17.404,43.948-54.55,117.562-99.366
		c4.32-2.63,9.165-3.945,14.008-3.945c4.844,0,9.688,1.315,14.008,3.945c73.614,44.815,117.562,81.961,117.562,99.366
		c0,15.113-13.374,29.522-37.657,40.574c-25.035,11.394-58.388,17.668-93.913,17.668s-68.878-6.274-93.913-17.668
		C115.668,138.837,102.294,124.428,102.294,109.315z M86.267,208.913c0-8.009,8.431-24.038,48.206-54.973
		c0.982,0.475,1.976,0.947,2.993,1.41c25.799,11.741,60.034,18.207,96.398,18.207s70.6-6.466,96.398-18.207
		c1.017-0.463,2.011-0.934,2.993-1.409c39.775,30.935,48.206,46.964,48.206,54.973c0,13.237-9.115,26.07-26.361,37.111
		c-27.78,17.795-73.103,28.418-121.236,28.418c-48.134,0-93.457-10.624-121.237-28.418C95.382,234.983,86.267,222.15,86.267,208.913
		z M249.133,446.462c0,8.418-6.848,15.266-15.266,15.266c-8.417,0-15.266-6.848-15.266-15.266v-63.84
		c5.046,0.205,10.136,0.314,15.263,0.314c5.129,0,10.221-0.109,15.269-0.314V446.462z M350.848,354.923
		c-31.197,14.196-72.743,22.014-116.984,22.014s-85.787-7.818-116.984-22.014c-30.447-13.854-47.214-31.991-47.214-51.069
		c0-7.856,7.289-23.171,41.596-51.615c28.832,17.685,74.417,28.205,122.602,28.205c48.185,0,93.77-10.52,122.602-28.205
		c34.308,28.445,41.596,43.76,41.596,51.616C398.062,322.932,381.295,341.069,350.848,354.923z"/>
</g>
<g>
</g>
<g>
</g>
<g>
</g>
<g>
</g>
<g>
</g>
<g>
</g>
<g>
</g>
<g>
</g>
<g>
</g>
<g>
</g>
<g>
</g>
<g>
</g>
<g>
</g>
<g>
</g>
<g>
</g>
</svg>
