<?xml version="1.0" encoding="iso-8859-1"?>
<!-- Generator: Adobe Illustrator 18.0.0, SVG Export Plug-In . SVG Version: 6.00 Build 0)  -->
<!DOCTYPE svg PUBLIC "-//W3C//DTD SVG 1.1//EN" "http://www.w3.org/Graphics/SVG/1.1/DTD/svg11.dtd">
<svg version="1.1" id="Capa_1" xmlns="http://www.w3.org/2000/svg" xmlns:xlink="http://www.w3.org/1999/xlink" x="0px" y="0px"
	 viewBox="0 0 470.273 470.273" style="enable-background:new 0 0 470.273 470.273;" xml:space="preserve">
<path d="M440.782,448.548l-84.03-116.617c0.983-0.379,1.963-0.768,2.938-1.177l40.349,17.489c0.386,0.167,0.791,0.248,1.192,0.248
	c0.888,0,1.755-0.395,2.338-1.119c0.847-1.052,0.887-2.54,0.097-3.635L327.38,237.886c3.421-0.963,6.8-2.11,10.117-3.491
	l32.961,14.286c0.386,0.167,0.791,0.248,1.192,0.248c0.888,0,1.755-0.395,2.338-1.119c0.847-1.052,0.887-2.54,0.097-3.635
	L297.24,137.537c4.31-0.814,8.554-2.054,12.656-3.735l23.747,10.302c1.238,0.538,2.685,0.181,3.531-0.871
	c0.847-1.052,0.887-2.54,0.097-3.635L237.57,1.246C237.007,0.464,236.101,0,235.136,0s-1.87,0.464-2.434,1.246l-99.702,138.352
	c-0.79,1.095-0.75,2.583,0.097,3.635c0.583,0.724,1.45,1.119,2.338,1.119c0.401,0,0.808-0.081,1.193-0.248l23.748-10.302
	c4.103,1.682,8.346,2.921,12.656,3.735L96.187,244.175c-0.79,1.095-0.75,2.583,0.097,3.635c0.847,1.053,2.292,1.407,3.53,0.872
	l32.96-14.286c3.318,1.381,6.697,2.527,10.117,3.49L66.608,343.737c-0.79,1.095-0.75,2.583,0.097,3.635s2.291,1.407,3.53,0.872
	l40.348-17.489c0.975,0.409,1.955,0.798,2.938,1.177l-84.03,116.617c-0.79,1.096-0.75,2.583,0.097,3.635s2.292,1.408,3.531,0.871
	l49.616-21.527c16.154,6.822,33.236,10.28,50.795,10.28c17.563,0,34.646-3.458,50.804-10.283c9.67,4.084,19.675,6.954,29.914,8.607
	v22.579c0,1.097,0.599,2.106,1.561,2.632c5.901,3.226,12.585,4.932,19.327,4.932c6.741,0,13.425-1.706,19.326-4.932
	c0.962-0.526,1.561-1.536,1.561-2.632v-22.578c10.24-1.653,20.245-4.522,29.917-8.608c16.157,6.825,33.241,10.283,50.803,10.283
	c17.56,0,34.642-3.458,50.795-10.28l49.617,21.527c0.386,0.167,0.792,0.248,1.193,0.248c0.888,0,1.755-0.395,2.338-1.119
	C441.532,451.131,441.572,449.644,440.782,448.548z M159.166,127.787l-14.924,6.474L235.136,8.131l90.894,126.129l-14.923-6.474
	c-0.762-0.331-1.628-0.331-2.388,0c-15.082,6.542-32.383,6.542-47.465,0c-0.76-0.33-1.626-0.33-2.388,0
	c-15.081,6.543-32.38,6.542-47.463,0c-0.76-0.33-1.627-0.33-2.387,0c-15.081,6.542-32.381,6.542-47.464,0
	C160.794,127.457,159.927,127.457,159.166,127.787z M210.211,133.795c15.916,6.529,33.936,6.529,49.852,0
	c9.683,3.973,20.145,5.513,30.438,4.652l7.744,10.747c-4.361,0.994-8.802,1.499-13.254,1.499c-8.199,0-16.188-1.656-23.745-4.921
	c-0.76-0.328-1.621-0.328-2.381,0c-7.557,3.265-15.54,4.921-23.729,4.921s-16.172-1.656-23.729-4.921
	c-0.76-0.328-1.622-0.328-2.38,0c-7.559,3.265-15.547,4.921-23.746,4.921c-4.451,0-8.893-0.505-13.254-1.499l7.744-10.746
	C190.066,139.308,200.528,137.768,210.211,133.795z M131.568,228.378l-24.144,10.465l60.826-84.408
	c5.577,1.495,11.296,2.257,17.031,2.257c8.593,0,16.975-1.652,24.936-4.913c7.959,3.26,16.336,4.913,24.919,4.913
	s16.96-1.652,24.919-4.912c7.96,3.26,16.342,4.912,24.936,4.912c5.736,0,11.454-0.762,17.031-2.257l60.826,84.408l-24.145-10.465
	c-0.762-0.33-1.624-0.33-2.386,0c-10.468,4.534-21.548,6.833-32.933,6.833c-11.368,0-22.448-2.299-32.934-6.833
	c-0.76-0.329-1.621-0.328-2.383,0c-10.469,4.534-21.549,6.833-32.933,6.833c-11.385,0-22.465-2.299-32.933-6.833
	c-0.761-0.329-1.622-0.331-2.383,0c-10.485,4.534-21.566,6.833-32.935,6.833c-11.384,0-22.464-2.299-32.933-6.833
	C133.192,228.049,132.33,228.048,131.568,228.378z M166.886,241.211c11.763,0,23.236-2.294,34.124-6.821
	c10.873,4.527,22.348,6.821,34.126,6.821s23.251-2.294,34.126-6.821c10.888,4.527,22.361,6.821,34.123,6.821
	c5.996,0,11.912-0.602,17.711-1.783l7.15,9.921c-2.638,0.833-5.353,1.553-8.125,2.129c-5.468,1.141-11.099,1.719-16.736,1.719
	c-11.368,0-22.448-2.299-32.934-6.833c-0.76-0.329-1.621-0.328-2.383,0c-10.469,4.534-21.549,6.833-32.933,6.833
	c-11.385,0-22.465-2.299-32.933-6.833c-0.761-0.329-1.622-0.33-2.383,0c-10.485,4.534-21.566,6.833-32.935,6.833
	c-8.501,0-16.846-1.295-24.866-3.841l7.155-9.928C154.975,240.609,160.891,241.211,166.886,241.211z M109.38,324.736l-31.533,13.668
	l60.505-83.957c9.173,3.139,18.758,4.75,28.535,4.75c11.763,0,23.236-2.294,34.124-6.821c10.873,4.527,22.348,6.821,34.126,6.821
	s23.251-2.294,34.126-6.821c10.888,4.527,22.361,6.821,34.123,6.821c6.049,0,12.092-0.621,17.959-1.845
	c3.627-0.754,7.171-1.734,10.581-2.898l60.501,83.951l-31.534-13.669c-0.762-0.33-1.626-0.33-2.386,0
	c-12.816,5.554-26.389,8.37-40.339,8.37c-13.94,0-27.507-2.816-40.323-8.37c-0.76-0.33-1.625-0.33-2.385,0
	c-12.817,5.554-26.384,8.37-40.323,8.37c-13.94,0-27.507-2.816-40.323-8.37c-0.76-0.33-1.625-0.33-2.385,0
	c-12.816,5.554-26.383,8.37-40.323,8.37c-13.95,0-27.522-2.816-40.34-8.37C111.006,324.406,110.141,324.406,109.38,324.736z
	 M152.105,339.105c14.334,0,28.294-2.811,41.516-8.356c13.222,5.545,27.182,8.356,41.516,8.356c14.333,0,28.293-2.811,41.516-8.356
	c13.222,5.545,27.182,8.356,41.516,8.356c11.184,0,22.136-1.716,32.686-5.098l6.596,9.155c-6.067,2.541-12.377,4.507-18.78,5.833
	c-6.733,1.391-13.632,2.096-20.503,2.096c-13.94,0-27.507-2.816-40.323-8.369c-0.76-0.33-1.625-0.33-2.385,0
	c-12.816,5.554-26.384,8.37-40.323,8.37c-13.94,0-27.507-2.816-40.323-8.369c-0.76-0.33-1.625-0.33-2.385,0
	c-12.816,5.553-26.383,8.369-40.323,8.369c-13.569,0-26.778-2.672-39.283-7.928l6.597-9.156
	C129.97,337.389,140.922,339.105,152.105,339.105z M250.022,460.878c-4.624,2.225-9.735,3.395-14.887,3.395
	c-5.152,0-10.264-1.169-14.888-3.395v-19.923c4.918,0.56,9.883,0.851,14.889,0.851c5.005,0,9.969-0.291,14.886-0.85V460.878z
	 M388.739,425.508c-0.762-0.331-1.627-0.331-2.389,0c-15.748,6.833-32.439,10.298-49.608,10.298
	c-17.168,0-33.859-3.465-49.608-10.298c-0.762-0.331-1.627-0.331-2.389,0c-15.749,6.833-32.44,10.298-49.608,10.298
	c-17.169,0-33.86-3.465-49.608-10.298c-0.762-0.331-1.627-0.331-2.389,0c-15.749,6.833-32.44,10.298-49.609,10.298
	c-17.168,0-33.859-3.465-49.608-10.298c-0.762-0.331-1.627-0.331-2.389,0L40.732,443.21l67.7-93.955
	c0.698-0.135,1.396-0.305,2.087-0.542c13.237,5.56,27.223,8.378,41.586,8.378c14.335,0,28.295-2.811,41.516-8.355
	c13.221,5.545,27.181,8.355,41.516,8.355c14.334,0,28.294-2.811,41.516-8.355c13.221,5.545,27.181,8.355,41.516,8.355
	c7.278,0,14.585-0.747,21.718-2.221c6.773-1.402,13.45-3.473,19.865-6.158c0.692,0.238,1.39,0.408,2.09,0.543l67.7,93.955
	L388.739,425.508z"/>
<g>
</g>
<g>
</g>
<g>
</g>
<g>
</g>
<g>
</g>
<g>
</g>
<g>
</g>
<g>
</g>
<g>
</g>
<g>
</g>
<g>
</g>
<g>
</g>
<g>
</g>
<g>
</g>
<g>
</g>
</svg>
