<?xml version="1.0" encoding="iso-8859-1"?>
<!-- Generator: Adobe Illustrator 18.0.0, SVG Export Plug-In . SVG Version: 6.00 Build 0)  -->
<!DOCTYPE svg PUBLIC "-//W3C//DTD SVG 1.1//EN" "http://www.w3.org/Graphics/SVG/1.1/DTD/svg11.dtd">
<svg version="1.1" id="Capa_1" xmlns="http://www.w3.org/2000/svg" xmlns:xlink="http://www.w3.org/1999/xlink" x="0px" y="0px"
	 viewBox="0 0 464.208 464.208" style="enable-background:new 0 0 464.208 464.208;" xml:space="preserve">
<path d="M390.499,285.5c6.983-7.359,10.521-15.174,10.521-23.279c0-15.774-13.864-30.751-39.162-42.472
	c7.477-6.877,11.269-14.28,11.269-22.059c0-13.067-10.65-25.053-30.868-34.831c6.159-5.792,9.288-12.031,9.288-18.596
	c0-12.08-10.878-23.28-30.762-31.84c5.375-4.9,8.187-10.324,8.187-15.89c0-11.627-12.076-22.153-33.393-29.358
	c7.366-5.332,9.098-10.722,9.098-14.607c0-9.542-10.063-17.885-27.86-23.331c2.747-2.54,4.332-5.48,4.332-8.802
	C281.149,7.162,255.879,0,232.103,0s-49.047,7.162-49.047,20.435c0,3.323,1.585,6.263,4.333,8.804
	c-17.796,5.448-27.858,13.79-27.858,23.33c0,3.882,1.733,9.27,9.102,14.606c-21.326,7.207-33.407,17.733-33.407,29.36
	c0,5.577,2.812,11.003,8.188,15.893c-19.886,8.558-30.764,19.758-30.764,31.837c0,6.574,3.129,12.814,9.289,18.601
	c-19.944,9.691-30.858,21.955-30.858,34.826c0,7.778,3.792,15.181,11.269,22.058c-25.304,11.719-39.172,26.696-39.172,42.472
	c0,8.1,3.543,15.915,10.532,23.279c-24.16,12.891-36.905,28.292-36.905,44.703c0,14.033,9.579,27.628,27.702,39.315
	c28.34,18.283,76.031,30.941,129.642,35.049v21.694c0,20.924,17.026,37.948,37.955,37.948c20.924,0,37.947-17.023,37.947-37.948
	v-21.694c53.616-4.108,101.312-16.766,129.651-35.049c18.123-11.687,27.702-25.282,27.702-39.315
	C427.404,313.791,414.659,298.39,390.499,285.5z M232.103,6c24.637,0,43.046,7.621,43.046,14.435S256.74,34.87,232.103,34.87
	c-24.638,0-43.047-7.621-43.047-14.435S207.465,6,232.103,6z M193.994,33.621c9.572,4.76,24.098,7.249,38.109,7.249
	c14.012,0,28.539-2.49,38.11-7.25c17.329,4.43,28.464,11.814,28.464,18.948c0,4.37-4.157,8.93-11.709,12.842
	c-12.653,6.573-33.166,10.497-54.87,10.497c-21.687,0-42.194-3.924-54.86-10.498c-7.549-3.916-11.707-8.476-11.707-12.841
	C165.531,45.437,176.665,38.053,193.994,33.621z M268.076,78.217c-0.324,8.263-7.128,14.89-15.469,14.89
	c-7.032,0-13.062-4.76-14.907-11.292C248.578,81.497,258.907,80.265,268.076,78.217z M141.225,96.534
	c0-9.557,12.823-18.959,34.359-25.257c13.582,6.705,33.849,10.563,55.981,10.624c2.005,9.842,10.744,17.206,21.042,17.206
	c11.855,0,21.5-9.645,21.5-21.5c0-0.302-0.026-0.6-0.038-0.901c5.414-1.511,10.31-3.331,14.557-5.429
	c21.529,6.295,34.347,15.698,34.347,25.256c0,6.088-5.319,11.135-9.779,14.295c-15.911,11.256-46.984,18.249-81.095,18.249
	c-34.118,0-65.187-6.992-81.086-18.25C146.547,107.676,141.225,102.638,141.225,96.534z M216.284,134.573
	c-2.079,6.179-7.91,10.534-14.677,10.534c-8.217,0-14.942-6.431-15.45-14.522C195.476,132.534,205.645,133.892,216.284,134.573z
	 M118.65,144.264c0-9.958,11.005-19.979,30.254-27.616c7.801,5.169,18.567,9.442,31.217,12.566
	c-0.002,0.131-0.015,0.263-0.015,0.393c0,11.855,9.645,21.5,21.5,21.5c9.958,0,18.452-6.805,20.821-16.218
	c3.192,0.124,6.419,0.188,9.67,0.188c34.368,0,65.992-7.035,83.205-18.429c19.243,7.639,30.244,17.659,30.244,27.616
	c0,5.813-3.577,11.527-10.633,16.986c-18.913,14.648-59.271,24.114-102.816,24.114c-43.53,0-83.888-9.465-102.818-24.116
	C122.226,155.799,118.65,150.084,118.65,144.264z M297.107,185.607c0,8.547-6.953,15.5-15.5,15.5
	c-7.192,0-13.313-4.945-15.019-11.683c10.824-1.247,21.056-3.075,30.427-5.42C297.07,184.534,297.107,185.068,297.107,185.607z
	 M97.081,197.69c0-10.948,10.635-21.782,29.992-30.612c20.678,15.01,60.624,24.285,105.026,24.285
	c9.768,0,19.319-0.451,28.498-1.311c2.059,9.774,10.739,17.054,21.011,17.054c11.855,0,21.5-9.645,21.5-21.5
	c0-1.067-0.078-2.126-0.233-3.169c13.993-3.986,25.753-9.187,34.251-15.359c19.363,8.833,30.002,19.667,30.002,30.612
	c0,7.039-4.271,13.931-12.692,20.486c-22.484,17.482-70.505,28.779-122.337,28.779c-51.825,0-99.841-11.296-122.324-28.778
	C101.351,211.622,97.081,204.729,97.081,197.69z M232.098,252.956c0.649,0,1.293-0.01,1.941-0.013
	c-0.681,7.923-7.336,14.165-15.432,14.165c-8.476,0-15.376-6.841-15.489-15.29C212.512,252.564,222.209,252.956,232.098,252.956z
	 M107.535,223.99c18.776,13.829,51.359,23.58,89.585,27.297c-0.002,0.108-0.013,0.212-0.013,0.32c0,11.855,9.645,21.5,21.5,21.5
	c11.431,0,20.78-8.974,21.436-20.244c49.618-1.049,93.554-11.88,116.629-28.874c24.743,10.87,38.348,24.41,38.348,38.23
	c0,7.451-3.903,14.793-11.601,21.823c-25.28,23.083-84.678,37.998-151.321,37.998c-66.647,0-126.04-14.915-151.309-37.998
	c-7.705-7.037-11.612-14.379-11.612-21.823C69.177,248.398,82.786,234.859,107.535,223.99z M323.107,318.607
	c0,8.547-6.953,15.5-15.5,15.5c-6.664,0-12.504-4.307-14.635-10.399c10.562-1.563,20.637-3.535,30.112-5.862
	C323.096,318.099,323.107,318.353,323.107,318.607z M107.544,306.987c8.771,3.694,18.604,6.967,29.277,9.769
	c-2.412,5.552-7.992,9.351-14.213,9.351c-8.547,0-15.5-6.953-15.5-15.5C107.107,309.37,107.262,308.162,107.544,306.987z
	 M264.05,426.26c0,17.616-14.331,31.948-31.947,31.948c-17.62,0-31.955-14.332-31.955-31.948v-21.273
	c10.479,0.673,21.161,1.021,31.95,1.021c10.79,0,21.472-0.349,31.952-1.021V426.26z M396.45,364.476
	c-33.974,21.917-96.949,35.533-164.352,35.533c-67.395,0-130.365-13.616-164.34-35.533c-16.325-10.528-24.954-22.379-24.954-34.273
	c0-14.231,12.598-28.515,35.524-40.353c6.251,5.361,14.233,10.282,23.656,14.678c-0.578,1.959-0.877,3.993-0.877,6.08
	c0,11.855,9.645,21.5,21.5,21.5c8.96,0,16.957-5.686,20.079-13.876c26.218,6.283,57.007,9.81,89.412,9.81
	c19.043,0,37.531-1.218,54.863-3.496c2.607,9.046,10.999,15.562,20.646,15.562c11.855,0,21.5-9.645,21.5-21.5
	c0-0.762-0.048-1.521-0.129-2.275c24.374-6.559,44.221-15.612,56.902-26.483c22.925,11.837,35.524,26.121,35.524,40.353
	C421.404,342.096,412.775,353.948,396.45,364.476z"/>
<g>
</g>
<g>
</g>
<g>
</g>
<g>
</g>
<g>
</g>
<g>
</g>
<g>
</g>
<g>
</g>
<g>
</g>
<g>
</g>
<g>
</g>
<g>
</g>
<g>
</g>
<g>
</g>
<g>
</g>
</svg>
