<?xml version="1.0" encoding="iso-8859-1"?>
<!-- Generator: Adobe Illustrator 18.0.0, SVG Export Plug-In . SVG Version: 6.00 Build 0)  -->
<!DOCTYPE svg PUBLIC "-//W3C//DTD SVG 1.1//EN" "http://www.w3.org/Graphics/SVG/1.1/DTD/svg11.dtd">
<svg version="1.1" id="Capa_1" xmlns="http://www.w3.org/2000/svg" xmlns:xlink="http://www.w3.org/1999/xlink" x="0px" y="0px"
	 viewBox="0 0 470.524 470.524" style="enable-background:new 0 0 470.524 470.524;" xml:space="preserve">
<path d="M392.635,373.67c-36.804-27.8-69.972-59.145-98.76-93.277l11.63,4.715c1.054,0.429,2.262,0.222,3.113-0.532
	c0.854-0.754,1.206-1.926,0.911-3.025l-5.481-20.441l26.544,18.803c0.982,0.695,2.285,0.737,3.309,0.105
	c1.024-0.631,1.572-1.813,1.392-3.003l-2.633-17.39c9.59,4.292,29.418,12.355,38.577,10.156c1.128-0.271,1.999-1.168,2.236-2.304
	s-0.202-2.307-1.129-3.007c-34.895-26.355-65.961-56.284-92.524-89.07l15.679,7.453c0.829,0.394,1.79,0.388,2.611-0.017
	c0.821-0.404,1.414-1.161,1.608-2.056l2.896-13.347c8.742,2.64,31.592,9.122,39.344,7.257c1.128-0.271,1.999-1.169,2.235-2.305
	c0.237-1.136-0.202-2.307-1.129-3.006c-28.089-21.212-52.997-45.367-74.174-71.882l12.173,5.785c0.829,0.394,1.79,0.388,2.611-0.017
	c0.822-0.404,1.414-1.161,1.608-2.056l2.061-9.5c7.53,2.258,23.9,6.783,29.836,5.358c1.129-0.271,2-1.168,2.236-2.304
	c0.237-1.136-0.202-2.307-1.128-3.007c-33.724-25.472-60.963-55.841-80.964-90.264C236.788,0.569,235.801,0,234.731,0
	c-1.068,0-2.057,0.569-2.594,1.493c-20.002,34.424-47.242,64.793-80.965,90.264c-0.926,0.7-1.365,1.871-1.128,3.007
	c0.236,1.136,1.107,2.033,2.236,2.304c4.416,1.064,18.66-3.407,27.549-6.464l-2.439,8.095c-0.354,1.172,0.041,2.442,0.997,3.207
	c0.956,0.767,2.283,0.873,3.347,0.272l22.542-12.694l0.787,2.281c-22.104,28.765-48.557,54.876-78.664,77.615
	c-0.927,0.7-1.366,1.87-1.129,3.006c0.236,1.136,1.107,2.034,2.235,2.305c5.859,1.408,25.781-5.039,37.068-8.978l-3.689,12.256
	c-0.353,1.172,0.042,2.441,0.998,3.207c0.957,0.766,2.282,0.872,3.348,0.272l30.316-17.076l0.86,2.49
	c-27.994,36.14-61.386,68.978-99.288,97.609c-0.926,0.699-1.365,1.87-1.128,3.006c0.236,1.136,1.107,2.033,2.235,2.305
	c6.986,1.677,24.66-5.493,34.905-10.086l-6.387,16.698c-0.458,1.197-0.105,2.552,0.878,3.374c0.981,0.822,2.378,0.929,3.475,0.266
	l28.184-17.025l-1.469,14.147c-0.13,1.258,0.543,2.463,1.683,3.012c1.138,0.549,2.501,0.325,3.403-0.562l20.927-20.549
	l-0.125,12.839c-30.36,37.421-65.951,71.662-105.812,101.776c-0.926,0.7-1.365,1.871-1.128,3.007
	c0.237,1.137,1.109,2.034,2.238,2.304c0.795,0.19,1.711,0.279,2.731,0.279c9.417-0.001,27.56-7.542,37.945-12.241l-7.69,20.113
	c-0.458,1.196-0.105,2.551,0.878,3.373c0.982,0.821,2.378,0.929,3.476,0.266l33.023-19.955l-1.77,17.078
	c-0.117,1.133,0.418,2.236,1.381,2.845c0.964,0.61,2.189,0.619,3.163,0.027l16.383-9.967l2.425,19.398
	c0.156,1.253,1.081,2.274,2.313,2.554c1.237,0.28,2.507-0.242,3.188-1.305l18.233-28.389l6.292,33.325
	c0.222,1.17,1.113,2.099,2.274,2.367c0.224,0.052,0.45,0.077,0.674,0.077c0.935,0,1.833-0.438,2.406-1.208l13.192-17.724v77.63
	c0,1.657,1.343,3,3,3h25.49c1.657,0,3-1.343,3-3v-84.3l3.925-11.549l19.913,28.208c0.72,1.019,1.997,1.487,3.199,1.175
	c1.207-0.311,2.097-1.336,2.233-2.575l2.358-21.285l29.198,22.145c0.965,0.732,2.274,0.811,3.322,0.203
	c1.046-0.609,1.624-1.789,1.464-2.989l-3.861-28.967l32.564,23.062c0.98,0.695,2.284,0.737,3.308,0.105
	c1.024-0.631,1.572-1.813,1.392-3.002l-3.134-20.717c10.637,4.804,34.026,14.488,44.638,11.943c1.129-0.271,1.999-1.168,2.236-2.304
	S393.561,374.37,392.635,373.67z M185.286,93.292l1.997-6.627c0.328-1.087,0.014-2.267-0.812-3.046
	c-0.827-0.78-2.021-1.026-3.088-0.638c-6.396,2.332-13.53,4.66-19.255,6.255c28.699-23.271,52.4-50.242,70.603-80.352
	c18.516,30.63,42.723,58.011,72.094,81.555c-6.427-1.238-14.717-3.488-20.815-5.417c-0.803-0.254-1.68-0.158-2.409,0.265
	s-1.248,1.134-1.427,1.959l-1.951,8.993l-17.44-8.289c-1.394-0.662-3.056-0.162-3.854,1.154l-5.236,8.634l-7.766-11.532
	c-0.553-0.82-1.474-1.316-2.463-1.324c-0.009,0-0.017,0-0.025,0c-0.979,0-1.898,0.479-2.46,1.283l-8.178,11.716l-5.406-11.294
	c-0.442-0.924-1.326-1.559-2.343-1.683c-0.121-0.015-0.243-0.022-0.363-0.022c-0.89,0-1.741,0.396-2.315,1.092l-9.136,11.084
	l-4.463-12.933c-0.29-0.841-0.939-1.51-1.771-1.826c-0.832-0.316-1.762-0.246-2.536,0.191L185.286,93.292z M168.778,172.563
	l3.252-10.804c0.327-1.087,0.013-2.267-0.813-3.046c-0.826-0.78-2.021-1.025-3.087-0.637c-10.171,3.708-21.394,7.296-29.328,9.281
	c25.854-20.571,48.875-43.665,68.601-68.811l1.908,5.531c0.354,1.026,1.235,1.781,2.303,1.974c1.076,0.196,2.158-0.207,2.849-1.044
	l9.55-11.586l5.598,11.694c0.461,0.962,1.398,1.608,2.462,1.695c0.082,0.006,0.163,0.01,0.245,0.01c0.975,0,1.896-0.475,2.459-1.283
	l8.618-12.347l7.941,11.793c0.559,0.829,1.491,1.324,2.488,1.324c0.023,0,0.047,0,0.071-0.001c1.022-0.024,1.963-0.568,2.494-1.443
	l4.637-7.645c20.315,26.12,44.157,50.043,71.027,71.243c-9.014-1.409-22.188-4.998-30.771-7.715
	c-0.804-0.253-1.679-0.159-2.409,0.265c-0.73,0.423-1.249,1.135-1.428,1.959l-2.787,12.842l-23.763-11.296
	c-1.346-0.638-2.997-0.134-3.824,1.105c-0.023,0.036-0.047,0.072-0.069,0.108l-7.526,12.408l-10.91-16.208
	c-0.552-0.821-1.474-1.316-2.463-1.325c-0.995-0.029-1.919,0.472-2.485,1.284l-11.546,16.549l-7.718-16.127
	c-0.442-0.924-1.325-1.559-2.343-1.683c-1.019-0.122-2.027,0.28-2.679,1.07l-12.937,15.7l-6.354-18.383
	c-0.291-0.84-0.939-1.509-1.771-1.824c-0.831-0.315-1.76-0.246-2.536,0.191L168.778,172.563z M164.641,269.484l1.23-11.851
	c0.117-1.132-0.416-2.233-1.377-2.843c-0.962-0.61-2.187-0.623-3.158-0.035l-25.87,15.627l5.912-15.457
	c0.439-1.149,0.133-2.45-0.772-3.282c-0.908-0.832-2.229-1.026-3.336-0.491c-8.05,3.895-19.17,8.581-27.459,11.102
	c33.538-26.427,63.392-56.193,88.93-88.638l3.73,10.796c0.354,1.026,1.235,1.78,2.304,1.973c1.069,0.192,2.157-0.207,2.848-1.045
	l13.349-16.2l7.909,16.527c0.461,0.963,1.398,1.608,2.462,1.695c0.082,0.006,0.163,0.01,0.245,0.01c0.975,0,1.896-0.476,2.459-1.284
	l11.986-17.18l11.086,16.469c0.558,0.829,1.491,1.325,2.488,1.325c0.023,0,0.047,0,0.071-0.001c1.022-0.024,1.963-0.568,2.494-1.443
	l7.708-12.707c26.087,33.322,56.71,63.833,91.198,90.822c-10.333-2.246-24.756-8.535-30.911-11.521
	c-1.002-0.487-2.191-0.378-3.088,0.283c-0.897,0.66-1.354,1.763-1.188,2.865l2.413,15.935l-27.573-19.532
	c-1.032-0.73-2.412-0.736-3.448-0.014c-1.038,0.722-1.512,2.018-1.184,3.239l6.074,22.651l-20.108-8.152
	c-1.32-0.536-2.83-0.07-3.62,1.112l-7.095,10.605l-17.822-25.254c-0.651-0.922-1.764-1.396-2.88-1.239
	c-1.116,0.161-2.049,0.935-2.411,2.003l-9.887,29.075l-18.133-26.331c-0.613-0.89-1.659-1.381-2.734-1.287
	c-1.077,0.095-2.02,0.762-2.467,1.746l-8.584,18.874l-2.811-21.529c-0.154-1.186-0.998-2.166-2.147-2.496
	c-1.148-0.328-2.383,0.055-3.144,0.977l-8.572,10.414l0.139-13.937c0.012-1.214-0.709-2.315-1.825-2.791
	c-1.118-0.476-2.41-0.23-3.276,0.62L164.641,269.484z M245.008,464.524h-19.49v-76.025l12.479,18.117
	c0.645,0.936,1.771,1.427,2.883,1.27c1.124-0.156,2.063-0.932,2.429-2.006l1.699-5V464.524z M344.397,359.255
	c-1.002-0.486-2.192-0.378-3.089,0.283c-0.897,0.66-1.354,1.763-1.188,2.865l2.916,19.277l-32.427-22.964
	c-0.974-0.69-2.264-0.735-3.285-0.12c-1.021,0.617-1.58,1.781-1.422,2.964l3.819,28.651l-27.673-20.988
	c-0.86-0.653-2.005-0.792-2.997-0.366c-0.992,0.426-1.679,1.353-1.797,2.426l-2.069,18.679l-18.748-26.558
	c-0.65-0.922-1.761-1.396-2.88-1.239c-1.117,0.162-2.049,0.936-2.412,2.004l-11.597,34.124l-13.852-20.109
	c-0.549-0.797-1.448-1.28-2.416-1.298c-0.018,0-0.036,0-0.055,0c-0.947,0-1.84,0.447-2.406,1.208l-15.224,20.453l-6.422-34.009
	c-0.229-1.208-1.169-2.153-2.375-2.388c-1.205-0.234-2.434,0.29-3.098,1.324l-17.832,27.766l-1.974-15.783
	c-0.126-1.01-0.756-1.887-1.672-2.329c-0.915-0.442-1.994-0.391-2.864,0.138l-15.177,9.233l1.768-17.055
	c0.117-1.132-0.416-2.233-1.378-2.842c-0.96-0.61-2.185-0.623-3.158-0.035l-30.709,18.556l7.222-18.887
	c0.439-1.148,0.133-2.449-0.772-3.281c-0.904-0.831-2.227-1.026-3.335-0.491c-9.377,4.534-23.757,10.65-33.736,13.398
	c36.242-28.351,68.818-60.141,96.997-94.63c0.733-0.1,1.421-0.465,1.912-1.062l9.574-11.63l3.274,25.082
	c0.173,1.328,1.206,2.381,2.53,2.579c1.326,0.198,2.621-0.506,3.175-1.725l10.735-23.604l18.514,26.884
	c0.564,0.82,1.492,1.298,2.47,1.298c0.137,0,0.274-0.009,0.413-0.028c1.123-0.156,2.063-0.932,2.428-2.006l9.914-29.155
	l16.944,24.009c0.563,0.797,1.477,1.27,2.451,1.27c0.013,0,0.025,0,0.037,0c0.988-0.013,1.907-0.511,2.456-1.332l8.164-12.204
	l0.067,0.027c28.81,35.521,62.266,68.188,99.551,97.205C369.701,370.632,351.818,362.857,344.397,359.255z"/>
<g>
</g>
<g>
</g>
<g>
</g>
<g>
</g>
<g>
</g>
<g>
</g>
<g>
</g>
<g>
</g>
<g>
</g>
<g>
</g>
<g>
</g>
<g>
</g>
<g>
</g>
<g>
</g>
<g>
</g>
</svg>
