<?xml version="1.0" encoding="iso-8859-1"?>
<!-- Generator: Adobe Illustrator 18.0.0, SVG Export Plug-In . SVG Version: 6.00 Build 0)  -->
<!DOCTYPE svg PUBLIC "-//W3C//DTD SVG 1.1//EN" "http://www.w3.org/Graphics/SVG/1.1/DTD/svg11.dtd">
<svg version="1.1" id="Capa_1" xmlns="http://www.w3.org/2000/svg" xmlns:xlink="http://www.w3.org/1999/xlink" x="0px" y="0px"
	 viewBox="0 0 485.931 485.931" style="enable-background:new 0 0 485.931 485.931;" xml:space="preserve">
<path d="M370.667,474.722c-13.002-53.136-29.948-105.002-50.408-154.294c9.232,4.734,18.028,10.329,26.231,16.689
	c1.044,0.81,2.496,0.84,3.572,0.078c1.078-0.764,1.53-2.142,1.113-3.396c-16.048-48.227-35.521-94.96-57.923-139.021
	c8.959,2.638,17.714,5.987,26.105,9.991c1.13,0.54,2.474,0.321,3.374-0.548c0.9-0.868,1.168-2.204,0.671-3.351
	c-13.545-31.296-28.683-61.829-45.042-90.854c9.445,1.852,18.755,4.451,27.755,7.75c1.148,0.422,2.437,0.103,3.257-0.804
	c0.821-0.907,1.008-2.221,0.475-3.322c-19.177-39.546-40.842-77.335-64.394-112.316C244.896,0.497,243.963,0,242.965,0
	s-1.931,0.497-2.489,1.325c-23.552,34.982-45.217,72.771-64.394,112.316c-0.534,1.101-0.346,2.415,0.475,3.322
	c0.821,0.907,2.11,1.227,3.257,0.804c8.999-3.299,18.309-5.898,27.755-7.75c-16.358,29.025-31.496,59.558-45.042,90.854
	c-0.497,1.147-0.229,2.483,0.671,3.351c0.901,0.869,2.245,1.086,3.374,0.548c8.391-4.002,17.146-7.352,26.105-9.99
	c-22.401,44.06-41.874,90.793-57.922,139.021c-0.417,1.253,0.035,2.632,1.113,3.396s2.528,0.732,3.572-0.078
	c8.203-6.36,16.999-11.955,26.231-16.689c-20.459,49.292-37.406,101.158-50.408,154.294c-0.33,1.35,0.31,2.75,1.546,3.383
	c1.237,0.635,2.747,0.334,3.649-0.722c25.268-29.585,60.051-48.757,97.929-54.585v60.133c0,1.657,1.343,3,3,3h43.15
	c1.657,0,3-1.343,3-3v-60.133c37.879,5.827,72.664,24.999,97.933,54.585c0.585,0.686,1.426,1.052,2.283,1.052
	c0.463,0,0.932-0.107,1.366-0.33C370.357,477.472,370.997,476.072,370.667,474.722z M261.539,479.931h-37.15v-57.944
	c6.131-0.709,12.33-1.08,18.577-1.08c6.245,0,12.444,0.371,18.573,1.079V479.931z M242.965,414.907
	c-44.965,0-87.699,18.009-119.004,49.79c13.188-51.451,30.092-101.607,50.309-149.25c0.483-1.138,0.218-2.457-0.667-3.32
	c-0.886-0.864-2.212-1.095-3.336-0.583c-9.352,4.252-18.329,9.343-26.788,15.185c16.109-46.971,35.48-92.432,57.643-135.264
	c0.542-1.048,0.419-2.318-0.314-3.243s-1.943-1.334-3.087-1.043c-9.066,2.296-17.972,5.297-26.567,8.948
	c13.532-30.599,28.579-60.401,44.785-88.692c0.575-1.003,0.522-2.246-0.135-3.197c-0.657-0.951-1.802-1.44-2.943-1.257
	c-9.547,1.531-19,3.802-28.191,6.769c17.568-35.54,37.151-69.587,58.296-101.356c21.146,31.768,40.729,65.815,58.297,101.356
	c-9.191-2.968-18.645-5.238-28.191-6.769c-1.142-0.184-2.286,0.306-2.942,1.257c-0.657,0.951-0.71,2.194-0.135,3.197
	c16.206,28.291,31.252,58.092,44.785,88.692c-8.595-3.651-17.501-6.651-26.567-8.947c-1.142-0.291-2.352,0.118-3.086,1.044
	c-0.734,0.925-0.857,2.194-0.314,3.243c22.164,42.832,41.535,88.292,57.643,135.263c-8.459-5.842-17.436-10.932-26.788-15.185
	c-1.125-0.512-2.451-0.281-3.336,0.583c-0.885,0.863-1.15,2.182-0.667,3.32c20.217,47.643,37.121,97.799,50.309,149.25
	C330.665,432.916,287.931,414.907,242.965,414.907z"/>
<g>
</g>
<g>
</g>
<g>
</g>
<g>
</g>
<g>
</g>
<g>
</g>
<g>
</g>
<g>
</g>
<g>
</g>
<g>
</g>
<g>
</g>
<g>
</g>
<g>
</g>
<g>
</g>
<g>
</g>
</svg>
