<?xml version="1.0" encoding="iso-8859-1"?>
<!-- Generator: Adobe Illustrator 18.0.0, SVG Export Plug-In . SVG Version: 6.00 Build 0)  -->
<!DOCTYPE svg PUBLIC "-//W3C//DTD SVG 1.1//EN" "http://www.w3.org/Graphics/SVG/1.1/DTD/svg11.dtd">
<svg version="1.1" id="Capa_1" xmlns="http://www.w3.org/2000/svg" xmlns:xlink="http://www.w3.org/1999/xlink" x="0px" y="0px"
	 viewBox="0 0 486.604 486.604" style="enable-background:new 0 0 486.604 486.604;" xml:space="preserve">
<g>
	<path d="M229.595,31.023l-3.079,13.97c-0.257,1.165,0.201,2.371,1.167,3.073c0.523,0.38,1.143,0.573,1.764,0.573
		c0.523,0,1.048-0.137,1.519-0.413l12.335-7.245l12.334,7.245c1.029,0.604,2.317,0.541,3.283-0.16
		c0.965-0.701,1.423-1.908,1.167-3.073l-3.078-13.97l10.702-9.493c0.893-0.792,1.231-2.037,0.862-3.171
		c-0.369-1.134-1.375-1.943-2.562-2.059l-14.238-1.389L246.05,1.8c-0.477-1.093-1.557-1.8-2.75-1.8s-2.272,0.707-2.75,1.8
		l-5.721,13.111l-14.238,1.389c-1.187,0.116-2.193,0.924-2.562,2.059c-0.369,1.135-0.03,2.38,0.862,3.171L229.595,31.023z
		 M237.167,20.712c1.083-0.105,2.023-0.789,2.458-1.786l3.676-8.424l3.676,8.424c0.435,0.997,1.375,1.681,2.458,1.786l9.148,0.893
		l-6.876,6.099c-0.814,0.722-1.173,1.828-0.939,2.89l1.978,8.976l-7.925-4.655c-0.938-0.551-2.1-0.551-3.039,0l-7.925,4.655
		l1.978-8.976c0.234-1.062-0.125-2.168-0.939-2.89l-6.876-6.099L237.167,20.712z"/>
	<path d="M351.962,455.743L246.201,46.893c-0.342-1.324-1.537-2.249-2.904-2.249s-2.562,0.925-2.904,2.249l-105.75,408.851
		c-0.296,1.147,0.11,2.362,1.039,3.099l1.85,1.47c1.091,0.868,2.638,0.869,3.73,0.002l12.976-10.292l12.986,10.292
		c1.092,0.866,2.636,0.865,3.728,0l12.976-10.292l12.976,10.292c1.091,0.866,2.636,0.866,3.728,0l12.986-10.292l10.186,8.078v21.292
		c0,1.097,0.599,2.106,1.561,2.632c5.479,2.995,11.682,4.578,17.939,4.578c6.258,0,12.461-1.583,17.939-4.578
		c0.962-0.526,1.561-1.536,1.561-2.632v-21.292l10.186-8.079l12.986,10.292c1.092,0.866,2.636,0.865,3.728,0l12.976-10.292
		l12.976,10.292c0.546,0.433,1.205,0.649,1.864,0.649c0.659,0,1.318-0.216,1.863-0.649l12.986-10.292l12.977,10.292
		c1.093,0.867,2.64,0.866,3.73-0.002l1.85-1.47C351.852,458.105,352.258,456.891,351.962,455.743z M154.846,401.565l12.378,9.81
		c1.092,0.866,2.636,0.865,3.728,0l12.976-10.292l12.976,10.292c1.091,0.866,2.636,0.866,3.728,0l12.986-10.292l12.977,10.292
		c0.546,0.433,1.205,0.649,1.864,0.649s1.318-0.216,1.864-0.649l12.976-10.292l12.986,10.292c1.092,0.866,2.636,0.865,3.728,0
		l12.976-10.292l12.986,10.292c1.092,0.866,2.636,0.865,3.728,0l12.976-10.292l12.976,10.292c1.091,0.866,2.636,0.866,3.728,0
		l12.371-9.806l2.502,9.672l-0.024-0.019c-1.09-0.863-2.633-0.864-3.725,0l-12.987,10.285l-12.978-10.284
		c-1.092-0.865-2.635-0.865-3.727,0l-12.977,10.284l-12.987-10.285c-1.091-0.864-2.634-0.863-3.726,0.001l-12.977,10.284
		l-12.987-10.285c-1.091-0.864-2.634-0.863-3.726,0.001l-12.977,10.284l-12.977-10.284c-1.091-0.864-2.634-0.865-3.726,0
		l-12.987,10.285l-12.978-10.284c-1.092-0.865-2.635-0.865-3.727,0l-12.977,10.284l-12.987-10.285
		c-1.091-0.864-2.635-0.864-3.726,0.001l-0.026,0.021L154.846,401.565z M161.853,374.492l5.372,4.254
		c0.545,0.432,1.204,0.648,1.862,0.648s1.317-0.216,1.863-0.649l12.977-10.283l12.977,10.283c1.092,0.865,2.635,0.866,3.726,0.001
		l12.987-10.285l12.978,10.284c1.092,0.865,2.635,0.865,3.727,0l12.977-10.284l12.987,10.285c1.091,0.865,2.634,0.864,3.726-0.001
		l12.977-10.284l12.987,10.285c1.092,0.865,2.635,0.864,3.726-0.001l12.977-10.283l12.977,10.283
		c1.092,0.865,2.635,0.866,3.726,0.001l5.369-4.251l1.859,7.187l-9.089,7.203l-12.977-10.292c-1.092-0.866-2.637-0.866-3.729,0
		l-12.976,10.292l-12.986-10.292c-1.092-0.866-2.636-0.865-3.728,0l-12.976,10.292l-12.986-10.292c-1.092-0.866-2.636-0.865-3.728,0
		l-12.976,10.292l-12.976-10.292c-1.091-0.866-2.636-0.866-3.728,0l-12.986,10.292l-12.977-10.292c-1.092-0.866-2.637-0.866-3.729,0
		l-12.976,10.292l-9.092-7.206L161.853,374.492z M165.353,360.957l1.874,1.481c0.545,0.431,1.203,0.646,1.86,0.646
		c0.659,0,1.317-0.216,1.863-0.649l12.977-10.284l12.977,10.284c1.092,0.865,2.635,0.865,3.726,0l12.987-10.285l12.978,10.284
		c1.092,0.865,2.635,0.865,3.727,0l12.977-10.284l12.987,10.285c1.091,0.865,2.634,0.864,3.726-0.001l12.977-10.284l12.987,10.285
		c1.092,0.865,2.635,0.864,3.726-0.001l12.977-10.284l12.977,10.284c1.092,0.865,2.634,0.865,3.726,0l1.867-1.479l1.859,7.186
		l-5.587,4.424l-12.978-10.284c-1.092-0.865-2.635-0.865-3.727,0l-12.977,10.284l-12.987-10.285
		c-1.091-0.864-2.634-0.864-3.726,0.001l-12.977,10.284l-12.987-10.285c-1.091-0.864-2.634-0.864-3.726,0.001l-12.977,10.283
		l-12.977-10.283c-1.091-0.865-2.634-0.865-3.726-0.001l-12.987,10.285l-12.978-10.284c-1.092-0.865-2.635-0.865-3.727,0
		l-12.977,10.284l-5.591-4.428L165.353,360.957z M169.021,346.769c0.681,0.015,1.366-0.197,1.93-0.644l12.976-10.292l12.976,10.292
		c1.091,0.866,2.636,0.866,3.728,0l12.986-10.292l12.977,10.292c1.092,0.866,2.637,0.866,3.729,0l12.976-10.292l12.986,10.292
		c1.092,0.866,2.636,0.865,3.728,0l12.976-10.292l12.986,10.292c0.546,0.433,1.205,0.649,1.863,0.649
		c0.659,0,1.318-0.216,1.864-0.649l12.976-10.292l12.976,10.292c0.562,0.446,1.245,0.658,1.924,0.645l2.027,7.835l-2.086,1.652
		l-12.978-10.284c-1.092-0.865-2.635-0.865-3.727,0l-12.977,10.284l-12.987-10.285c-1.091-0.864-2.634-0.864-3.726,0.001
		l-12.977,10.284l-12.987-10.285c-1.091-0.864-2.634-0.864-3.726,0.001l-12.977,10.284l-12.977-10.284
		c-1.091-0.865-2.634-0.865-3.726-0.001l-12.987,10.285l-12.978-10.284c-1.092-0.865-2.635-0.865-3.727,0l-12.979,10.285
		l-2.09-1.652L169.021,346.769z M184.413,287.279l12.49,9.906c1.091,0.866,2.636,0.866,3.728,0l12.986-10.292l12.977,10.292
		c1.092,0.866,2.637,0.866,3.729,0l12.976-10.292l12.986,10.292c1.092,0.866,2.636,0.865,3.728,0l12.976-10.292l12.986,10.292
		c0.546,0.433,1.205,0.649,1.863,0.649c0.659,0,1.318-0.216,1.864-0.649l12.488-9.904l2.567,9.923l-0.216-0.171
		c-1.092-0.864-2.634-0.865-3.726,0l-12.977,10.284l-12.987-10.285c-1.091-0.864-2.634-0.863-3.726,0.001l-12.977,10.284
		l-12.987-10.285c-1.091-0.864-2.634-0.863-3.726,0.001l-12.977,10.283l-12.977-10.283c-1.091-0.864-2.634-0.865-3.726-0.001
		l-12.987,10.285l-12.978-10.284c-1.092-0.865-2.635-0.865-3.727,0l-0.217,0.172L184.413,287.279z M187.913,273.746l8.99,7.129
		c1.092,0.866,2.636,0.866,3.728,0l12.986-10.292l12.977,10.292c1.092,0.866,2.637,0.866,3.729,0l12.976-10.292l12.986,10.292
		c1.092,0.866,2.636,0.865,3.728,0l12.976-10.292l12.986,10.292c0.546,0.433,1.205,0.649,1.863,0.649
		c0.659,0,1.318-0.216,1.864-0.649l8.988-7.126l1.857,7.177l-12.709,10.08l-12.986-10.292c-1.092-0.866-2.636-0.865-3.728,0
		l-12.976,10.292l-12.986-10.292c-1.092-0.866-2.636-0.865-3.728,0l-12.976,10.292l-12.976-10.292c-1.091-0.866-2.636-0.866-3.728,0
		l-12.986,10.292l-12.711-10.082L187.913,273.746z M191.414,260.205l5.491,4.35c1.091,0.864,2.635,0.865,3.725,0l12.987-10.285
		l12.978,10.284c1.092,0.865,2.635,0.865,3.727,0l12.977-10.284l12.987,10.285c1.091,0.865,2.634,0.864,3.726-0.001l12.977-10.284
		l12.987,10.285c0.545,0.432,1.204,0.648,1.862,0.648s1.317-0.216,1.863-0.648l5.487-4.347l1.859,7.186l-9.209,7.301l-12.986-10.293
		c-1.092-0.865-2.636-0.866-3.728,0l-12.976,10.292l-12.986-10.292c-1.092-0.865-2.636-0.866-3.728,0l-12.976,10.292l-12.976-10.292
		c-1.091-0.866-2.636-0.866-3.728,0l-12.986,10.292l-9.212-7.305L191.414,260.205z M194.914,246.667l1.989,1.577
		c1.091,0.866,2.636,0.866,3.727,0l12.986-10.292l12.977,10.292c1.092,0.866,2.637,0.866,3.729,0l12.976-10.292l12.986,10.292
		c0.546,0.433,1.205,0.649,1.863,0.649c0.659,0,1.318-0.216,1.864-0.649l12.976-10.292l12.986,10.292
		c1.092,0.865,2.638,0.865,3.729-0.002l1.982-1.574l1.859,7.187l-5.707,4.521l-12.987-10.285c-1.091-0.864-2.634-0.863-3.726,0.001
		l-12.977,10.284l-12.987-10.285c-1.091-0.864-2.634-0.863-3.726,0.001l-12.977,10.283l-12.977-10.283
		c-1.091-0.864-2.634-0.865-3.726-0.001l-12.987,10.285l-5.711-4.525L194.914,246.667z M198.56,232.568
		c0.727,0.051,1.468-0.154,2.071-0.632l12.986-10.292l12.977,10.292c1.092,0.866,2.637,0.866,3.729,0l12.976-10.292l12.986,10.292
		c1.092,0.865,2.636,0.866,3.728,0l12.976-10.292l12.986,10.292c0.546,0.433,1.205,0.649,1.863,0.649c0.067,0,0.133-0.012,0.2-0.016
		l2.003,7.745l-2.205,1.751l-12.985-10.292c-1.092-0.866-2.636-0.865-3.728,0l-12.976,10.292l-12.986-10.292
		c-1.092-0.866-2.636-0.865-3.728,0l-12.976,10.292l-12.976-10.292c-1.091-0.866-2.636-0.866-3.728,0l-12.986,10.293l-2.211-1.753
		L198.56,232.568z M213.976,172.988l12.617,10.007c1.092,0.866,2.637,0.866,3.729,0l12.976-10.292l12.986,10.292
		c0.546,0.433,1.205,0.649,1.863,0.649c0.659,0,1.318-0.216,1.864-0.649l12.615-10.005l2.633,10.177l-0.409-0.324
		c-1.092-0.864-2.634-0.865-3.726,0l-12.977,10.284l-12.987-10.285c-1.091-0.864-2.634-0.864-3.726,0.001l-12.977,10.283
		l-12.977-10.283c-1.092-0.865-2.635-0.865-3.727,0l-0.411,0.326L213.976,172.988z M217.477,159.449l9.116,7.226
		c1.092,0.865,2.635,0.865,3.727,0l12.977-10.284l12.987,10.285c0.545,0.432,1.204,0.648,1.862,0.648
		c0.659,0,1.317-0.216,1.863-0.649l9.114-7.223l1.858,7.182l-12.836,10.181l-12.986-10.292c-1.092-0.865-2.636-0.866-3.728,0
		l-12.976,10.292l-12.838-10.182L217.477,159.449z M220.977,145.917l5.617,4.448c1.092,0.865,2.634,0.865,3.726,0l12.977-10.284
		l12.987,10.285c0.545,0.432,1.204,0.648,1.862,0.648s1.318-0.216,1.864-0.649l5.612-4.45l1.858,7.184l-9.335,7.398l-12.987-10.285
		c-1.091-0.864-2.634-0.864-3.726,0.001l-12.977,10.283l-9.336-7.4L220.977,145.917z M224.479,132.38l2.115,1.676
		c0.546,0.432,1.205,0.648,1.863,0.648c0.659,0,1.318-0.216,1.864-0.649l12.976-10.292l12.986,10.292
		c1.092,0.866,2.636,0.865,3.729-0.001l2.109-1.674l1.858,7.182l-5.833,4.625l-12.987-10.284c-1.091-0.864-2.634-0.864-3.726,0.001
		l-12.977,10.284l-5.836-4.622L224.479,132.38z M228.104,118.365c0.773,0.092,1.574-0.109,2.218-0.62l12.976-10.292l12.986,10.292
		c0.546,0.433,1.205,0.649,1.863,0.649c0.117,0,0.233-0.015,0.35-0.029l1.981,7.659l-2.332,1.851l-12.985-10.292
		c-1.092-0.866-2.636-0.865-3.728,0l-12.977,10.292l-2.334-1.85L228.104,118.365z M238.35,78.75l4.947-3.918l4.944,3.916
		l2.814,10.886l-5.896-4.671c-1.091-0.864-2.634-0.865-3.726,0l-5.9,4.675L238.35,78.75z M233.043,99.267l10.254-8.125l10.261,8.128
		l2.817,10.891l-11.214-8.888c-1.092-0.866-2.636-0.865-3.728,0l-11.208,8.889L233.043,99.267z M208.852,192.798l4.765-3.776
		l12.977,10.283c1.092,0.865,2.635,0.865,3.727,0l12.977-10.284l12.987,10.285c0.545,0.432,1.204,0.648,1.862,0.648
		c0.659,0,1.317-0.216,1.863-0.649l12.977-10.283l4.761,3.772l2.816,10.887l-5.715-4.528c-1.091-0.864-2.634-0.865-3.726,0
		l-12.977,10.284l-12.987-10.285c-1.091-0.864-2.634-0.864-3.726,0.001l-12.977,10.283l-12.977-10.283
		c-1.091-0.865-2.634-0.865-3.726-0.001l-5.717,4.527L208.852,192.798z M203.539,213.311l10.077-7.98l12.978,10.284
		c1.092,0.865,2.635,0.865,3.727,0l12.977-10.284l12.987,10.285c0.545,0.432,1.204,0.648,1.862,0.648
		c0.659,0,1.317-0.216,1.863-0.649l12.977-10.283l10.068,7.977l2.817,10.891l-11.022-8.736c-1.092-0.865-2.636-0.866-3.728,0
		l-12.976,10.292l-12.986-10.292c-1.092-0.865-2.636-0.866-3.728,0l-12.976,10.292l-12.976-10.292c-1.091-0.866-2.636-0.866-3.728,0
		l-11.032,8.744L203.539,213.311z M179.357,306.834l4.57-3.622l12.977,10.283c1.092,0.865,2.635,0.866,3.726,0.001l12.987-10.285
		l12.978,10.284c1.092,0.865,2.635,0.865,3.727,0l12.977-10.284l12.987,10.285c1.091,0.865,2.634,0.864,3.726-0.001l12.977-10.284
		l12.987,10.285c0.545,0.432,1.204,0.648,1.862,0.648c0.659,0,1.317-0.216,1.863-0.649l12.977-10.283l4.569,3.619l2.817,10.892
		l-5.522-4.38c-1.091-0.866-2.635-0.866-3.728,0l-12.977,10.284l-12.987-10.285c-1.091-0.864-2.634-0.864-3.726,0.001
		l-12.977,10.284l-12.987-10.285c-1.091-0.864-2.634-0.864-3.726,0.001l-12.977,10.283l-12.977-10.283
		c-1.091-0.865-2.634-0.865-3.726-0.001l-12.987,10.285l-12.978-10.284c-1.092-0.865-2.635-0.865-3.727,0l-5.521,4.376
		L179.357,306.834z M174.039,327.36l9.888-7.838l12.977,10.283c1.092,0.865,2.635,0.866,3.726,0.001l12.987-10.285l12.978,10.284
		c1.092,0.865,2.635,0.865,3.727,0l12.977-10.284l12.987,10.285c1.091,0.865,2.634,0.864,3.726-0.001l12.977-10.284l12.987,10.285
		c0.545,0.432,1.204,0.648,1.862,0.648c0.659,0,1.317-0.216,1.863-0.649l12.976-10.282l9.88,7.836l2.815,10.885l-10.83-8.59
		c-1.092-0.866-2.637-0.866-3.729,0l-12.976,10.292l-12.986-10.292c-1.092-0.866-2.636-0.865-3.728,0l-12.976,10.292l-12.986-10.292
		c-1.092-0.866-2.636-0.865-3.728,0l-12.976,10.292l-12.976-10.292c-1.091-0.866-2.636-0.866-3.728,0l-12.986,10.292l-12.977-10.292
		c-1.092-0.866-2.637-0.866-3.729,0l-10.839,8.597L174.039,327.36z M167.224,395.065c1.091,0.865,2.636,0.866,3.728,0l12.976-10.292
		l12.976,10.292c1.091,0.866,2.636,0.866,3.728,0l12.986-10.292l12.977,10.292c1.092,0.866,2.637,0.866,3.729,0l12.976-10.292
		l12.986,10.292c1.092,0.865,2.636,0.866,3.728,0l12.976-10.292l12.986,10.292c1.092,0.865,2.636,0.866,3.728,0l12.976-10.292
		l12.976,10.292c0.546,0.433,1.205,0.649,1.864,0.649c0.659,0,1.317-0.216,1.863-0.649l8.87-7.03l1.857,7.181l-12.591,9.979
		l-12.977-10.292c-1.092-0.866-2.637-0.866-3.729,0l-12.976,10.292l-12.986-10.292c-1.092-0.865-2.636-0.866-3.728,0l-12.976,10.292
		l-12.986-10.292c-1.092-0.865-2.636-0.866-3.728,0l-12.976,10.292l-12.976-10.292c-1.091-0.866-2.636-0.866-3.728,0l-12.986,10.292
		l-12.977-10.292c-1.092-0.866-2.637-0.866-3.729,0l-12.976,10.292l-12.592-9.98l1.857-7.182L167.224,395.065z M149.849,420.88
		l4.389-3.478l12.987,10.285c1.092,0.865,2.635,0.864,3.726-0.001l12.977-10.284l12.977,10.284c1.092,0.865,2.635,0.866,3.726,0.001
		l12.987-10.285l12.978,10.284c1.092,0.865,2.635,0.865,3.727,0l12.977-10.284l12.987,10.285c1.091,0.865,2.634,0.864,3.726-0.001
		l12.977-10.284l12.987,10.285c1.092,0.865,2.635,0.864,3.726-0.001l12.977-10.284l12.977,10.284
		c0.546,0.433,1.205,0.649,1.863,0.649c0.658,0,1.317-0.216,1.862-0.648l12.987-10.285l4.377,3.468l2.816,10.887l-5.33-4.223
		c-1.091-0.865-2.634-0.865-3.726-0.001l-12.987,10.285l-12.978-10.284c-1.092-0.865-2.635-0.865-3.727,0l-12.977,10.284
		l-12.987-10.285c-1.091-0.864-2.634-0.864-3.726,0.001l-12.977,10.284l-12.987-10.285c-1.091-0.864-2.634-0.864-3.726,0.001
		l-12.977,10.283l-12.977-10.283c-1.091-0.865-2.634-0.865-3.726-0.001l-12.987,10.285l-12.978-10.284
		c-1.092-0.865-2.635-0.865-3.727,0l-12.977,10.284l-12.987-10.285c-1.09-0.864-2.633-0.864-3.725,0l-5.337,4.225L149.849,420.88z
		 M243.297,59.623l2.456,9.5l-0.593-0.47c-1.092-0.864-2.634-0.864-3.726,0l-0.594,0.471L243.297,59.623z M243.302,480.604
		c-4.668,0-9.3-1.049-13.5-3.046v-16.919c0.181-0.091,0.356-0.195,0.52-0.324l12.976-10.292l12.986,10.292
		c0.163,0.129,0.338,0.233,0.518,0.323v16.919C252.602,479.555,247.97,480.604,243.302,480.604z M334.231,443.844
		c-1.092-0.866-2.637-0.866-3.728,0l-12.986,10.292l-12.977-10.292c-1.092-0.866-2.637-0.866-3.729,0l-12.976,10.292l-12.986-10.292
		c-0.546-0.433-1.205-0.649-1.863-0.649c-0.659,0-1.318,0.216-1.864,0.649l-12.976,10.292l-12.986-10.292
		c-1.092-0.866-2.636-0.865-3.728,0l-12.976,10.292l-12.976-10.292c-1.091-0.866-2.636-0.866-3.728,0l-12.986,10.292l-12.977-10.292
		c-1.092-0.866-2.637-0.866-3.729,0l-12.976,10.292L156.1,443.843c-1.092-0.866-2.636-0.865-3.728,0l-10.639,8.438l2.818-10.903
		l9.686-7.668l12.988,10.285c1.092,0.865,2.635,0.864,3.726-0.001l12.977-10.283l12.977,10.283c1.092,0.865,2.635,0.866,3.726,0.001
		l12.987-10.285l12.978,10.284c1.092,0.865,2.635,0.865,3.727,0l12.977-10.284l12.987,10.285c1.091,0.865,2.634,0.864,3.726-0.001
		l12.977-10.284l12.987,10.285c0.545,0.432,1.204,0.648,1.862,0.648c0.659,0,1.317-0.216,1.863-0.649l12.977-10.283l12.977,10.283
		c1.092,0.865,2.635,0.866,3.726,0.001l12.987-10.285l9.684,7.674l2.818,10.896L334.231,443.844z"/>
</g>
<g>
</g>
<g>
</g>
<g>
</g>
<g>
</g>
<g>
</g>
<g>
</g>
<g>
</g>
<g>
</g>
<g>
</g>
<g>
</g>
<g>
</g>
<g>
</g>
<g>
</g>
<g>
</g>
<g>
</g>
</svg>
