<?xml version="1.0" encoding="iso-8859-1"?>
<!-- Generator: Adobe Illustrator 18.0.0, SVG Export Plug-In . SVG Version: 6.00 Build 0)  -->
<!DOCTYPE svg PUBLIC "-//W3C//DTD SVG 1.1//EN" "http://www.w3.org/Graphics/SVG/1.1/DTD/svg11.dtd">
<svg version="1.1" id="Capa_1" xmlns="http://www.w3.org/2000/svg" xmlns:xlink="http://www.w3.org/1999/xlink" x="0px" y="0px"
	 viewBox="0 0 487.209 487.209" style="enable-background:new 0 0 487.209 487.209;" xml:space="preserve">
<path d="M434.506,432.002c-19.986-15.102-39.264-31.221-57.407-47.955c10.595-2.029,21.145-4.296,31.635-6.814
	c1.129-0.271,2-1.168,2.236-2.305c0.237-1.136-0.203-2.308-1.129-3.007c-19.16-14.463-37.599-30.042-54.91-46.348
	c10.845-1.987,21.638-4.252,32.357-6.825c1.129-0.271,2-1.168,2.236-2.305c0.237-1.136-0.202-2.307-1.129-3.006
	c-18.529-13.989-36.207-29.111-52.654-44.987c11.031-1.918,22.003-4.173,32.891-6.787c1.129-0.271,2-1.168,2.236-2.305
	c0.237-1.136-0.203-2.307-1.129-3.007c-17.948-13.549-34.937-28.291-50.602-43.859c11.17-1.825,22.273-4.057,33.279-6.699
	c1.129-0.271,2-1.168,2.236-2.305c0.237-1.136-0.202-2.307-1.129-3.006c-17.427-13.163-33.797-27.604-48.763-42.962
	c11.272-1.709,22.473-3.886,33.56-6.547c1.129-0.271,2-1.168,2.236-2.305c0.237-1.136-0.202-2.307-1.129-3.006
	c-17.03-12.861-32.828-27.063-47.068-42.248c11.326-1.569,22.577-3.679,33.695-6.348c1.129-0.271,2-1.168,2.236-2.304
	c0.237-1.136-0.202-2.307-1.128-3.007C293.44,66.285,266.201,35.916,246.2,1.493C245.663,0.569,244.676,0,243.606,0
	c-1.068,0-2.057,0.569-2.594,1.493c-20,34.422-47.24,64.791-80.965,90.264c-0.926,0.7-1.365,1.871-1.128,3.007
	c0.236,1.136,1.107,2.033,2.236,2.304c11.12,2.67,22.373,4.78,33.701,6.349c-14.24,15.185-30.038,29.387-47.067,42.248
	c-0.927,0.7-1.366,1.871-1.129,3.006c0.236,1.136,1.107,2.034,2.236,2.305c11.083,2.661,22.28,4.837,33.55,6.546
	c-14.968,15.36-31.337,29.801-48.764,42.962c-0.927,0.7-1.366,1.871-1.129,3.006c0.236,1.136,1.107,2.034,2.236,2.305
	c11.006,2.642,22.109,4.874,33.279,6.699c-15.668,15.57-32.656,30.313-50.602,43.859c-0.926,0.7-1.366,1.871-1.129,3.007
	c0.236,1.136,1.107,2.034,2.236,2.305c10.885,2.613,21.856,4.867,32.885,6.785c-16.451,15.889-34.124,31.012-52.639,44.989
	c-0.927,0.699-1.366,1.87-1.129,3.006c0.236,1.136,1.107,2.034,2.236,2.305c10.716,2.573,21.504,4.837,32.342,6.823
	c-17.3,16.302-35.737,31.882-54.904,46.349c-0.926,0.699-1.366,1.87-1.129,3.007c0.236,1.136,1.107,2.034,2.236,2.305
	c10.49,2.518,21.041,4.785,31.636,6.814c-18.13,16.729-37.408,32.848-57.408,47.954c-0.926,0.7-1.365,1.871-1.128,3.006
	c0.236,1.136,1.107,2.034,2.236,2.305c46.06,11.059,93.094,18.064,140.376,20.949v21.738c0,1.436,1.018,2.671,2.428,2.945
	c14.357,2.791,30.606,4.265,46.989,4.265s32.632-1.475,46.988-4.265c1.41-0.274,2.428-1.509,2.428-2.945v-21.738
	c47.282-2.885,94.316-9.89,140.377-20.949c1.129-0.271,1.999-1.168,2.236-2.304C435.871,433.873,435.432,432.702,434.506,432.002z
	 M243.606,8.884c19.1,31.596,44.254,59.733,74.886,83.769c-49.132,10.839-100.639,10.839-149.772,0
	C199.353,68.616,224.508,40.479,243.606,8.884z M202.174,104.361c13.747,1.612,27.589,2.419,41.432,2.419
	c13.844,0,27.689-0.807,41.437-2.42c13.825,15.103,29.168,29.28,45.714,42.208c-57.163,12.753-117.144,12.753-174.297,0
	C173.006,133.64,188.348,119.463,202.174,104.361z M189.781,158.573c17.834,2.372,35.829,3.559,53.824,3.559
	c17.993,0,35.987-1.187,53.822-3.559c14.548,15.243,30.468,29.627,47.425,42.822c-66.385,14.959-136.113,14.96-202.496,0
	C159.312,188.202,175.231,173.818,189.781,158.573z M175.417,213.635c22.565,3.318,45.376,4.978,68.187,4.978
	c22.811,0,45.622-1.66,68.187-4.978c15.245,15.431,31.786,30.088,49.273,43.636c-76.984,17.493-157.928,17.493-234.92,0
	C143.628,243.725,160.169,229.068,175.417,213.635z M158.814,269.676c28.026,4.47,56.41,6.714,84.794,6.714
	c28.38,0,56.759-2.244,84.779-6.713c16.022,15.716,33.256,30.725,51.331,44.683c-89.202,20.421-183.027,20.42-272.22,0
	C125.559,300.414,142.788,285.404,158.814,269.676z M139.63,326.873c34.324,5.857,69.144,8.802,103.976,8.801
	c34.818-0.001,69.643-2.945,103.965-8.8c16.882,16.123,34.877,31.568,53.591,45.976c-103.227,23.78-211.888,23.78-315.116,0
	C104.767,358.438,122.759,342.993,139.63,326.873z M287.021,477.51c-13.38,2.423-28.33,3.699-43.416,3.699
	s-30.037-1.276-43.417-3.699v-18.915c14.459,0.775,28.938,1.184,43.417,1.184c14.479,0,28.957-0.409,43.416-1.184V477.51z
	 M243.604,453.779c-61.266,0-122.536-7.011-182.224-20.845c19.557-15.025,38.391-30.988,56.091-47.521
	c41.592,7.507,83.861,11.271,126.133,11.271s84.541-3.764,126.132-11.271c17.714,16.536,36.55,32.5,56.094,47.521
	C366.143,446.768,304.87,453.779,243.604,453.779z"/>
<g>
</g>
<g>
</g>
<g>
</g>
<g>
</g>
<g>
</g>
<g>
</g>
<g>
</g>
<g>
</g>
<g>
</g>
<g>
</g>
<g>
</g>
<g>
</g>
<g>
</g>
<g>
</g>
<g>
</g>
</svg>
