<?xml version="1.0" encoding="iso-8859-1"?>
<!-- Generator: Adobe Illustrator 18.0.0, SVG Export Plug-In . SVG Version: 6.00 Build 0)  -->
<!DOCTYPE svg PUBLIC "-//W3C//DTD SVG 1.1//EN" "http://www.w3.org/Graphics/SVG/1.1/DTD/svg11.dtd">
<svg version="1.1" id="Capa_1" xmlns="http://www.w3.org/2000/svg" xmlns:xlink="http://www.w3.org/1999/xlink" x="0px" y="0px"
	 viewBox="0 0 481.794 481.794" style="enable-background:new 0 0 481.794 481.794;" xml:space="preserve">
<path d="M340.86,433.062l-48.406-162.607l19.896,27.362c0.859,1.182,2.445,1.574,3.756,0.925c1.311-0.647,1.963-2.145,1.546-3.545
	L279.828,168.12l12.317,16.936c0.858,1.181,2.443,1.573,3.755,0.925c1.311-0.647,1.963-2.145,1.546-3.545L243.775,2.144
	C243.397,0.872,242.227,0,240.9,0s-2.497,0.872-2.875,2.144l-53.671,180.292c-0.416,1.396,0.23,2.888,1.533,3.539
	c1.302,0.652,2.885,0.273,3.751-0.896l12.165-16.397l-37.661,126.514c-0.416,1.396,0.23,2.888,1.533,3.539
	c1.303,0.652,2.884,0.273,3.751-0.896l19.646-26.479l-48.138,161.7c-0.416,1.396,0.23,2.888,1.533,3.539
	c1.303,0.653,2.885,0.273,3.751-0.896l51.227-69.047l5.467,97.066c0.08,1.423,1.15,2.594,2.562,2.8
	c0.146,0.021,0.291,0.032,0.436,0.032c1.247,0,2.386-0.779,2.82-1.981l12.021-33.303v43.147c0,1.097,0.599,2.106,1.561,2.632
	c5.676,3.103,12.104,4.743,18.588,4.743s12.912-1.64,18.588-4.743c0.962-0.526,1.561-1.536,1.561-2.632v-45.364l10.634,32.387
	c0.451,1.372,1.81,2.229,3.247,2.038c1.432-0.191,2.524-1.375,2.6-2.817l5.092-97.772l52.939,72.793
	c0.858,1.181,2.444,1.573,3.755,0.925C340.625,435.96,341.277,434.462,340.86,433.062z M240.9,13.515l45.801,153.855l-21.723-29.869
	c-0.747-1.027-2.058-1.472-3.279-1.111c-1.218,0.361-2.076,1.451-2.143,2.72l-2.617,50.255l-12.327-46.3
	c-0.347-1.299-1.514-2.209-2.858-2.228c-0.014,0-0.027,0-0.041,0c-1.327,0-2.499,0.873-2.877,2.149l-14.677,49.599l-2.89-51.308
	c-0.071-1.261-0.924-2.343-2.135-2.706c-0.284-0.085-0.573-0.126-0.86-0.126c-0.933,0-1.834,0.437-2.409,1.212l-20.904,28.178
	L240.9,13.515z M212.257,154.59l3.487-4.701l3.395,60.276c0.082,1.457,1.2,2.643,2.648,2.812c0.117,0.014,0.233,0.02,0.349,0.02
	c1.313,0,2.494-0.863,2.875-2.149l16.549-55.924l14.484,54.401c0.381,1.427,1.739,2.364,3.211,2.212
	c1.469-0.154,2.607-1.353,2.685-2.828l3.168-60.83l4.124,5.67l37.675,126.579l-33.771-46.443c-0.748-1.028-2.061-1.474-3.28-1.112
	c-1.218,0.361-2.076,1.451-2.143,2.72l-3.977,76.35l-18.823-70.678c-0.337-1.263-1.452-2.163-2.758-2.225
	c-1.292-0.061-2.501,0.729-2.955,1.955l-22.845,61.671l-3.607-64.082c-0.071-1.261-0.924-2.343-2.134-2.706
	c-1.212-0.36-2.517,0.072-3.271,1.086l-32.597,43.933L212.257,154.59z M255.047,472.585c-4.398,2.104-9.254,3.208-14.148,3.208
	s-9.75-1.105-14.148-3.208V414.65l15.483-42.894l12.813,39.025V472.585z M282.49,352.511c-0.747-1.027-2.06-1.473-3.279-1.111
	c-1.218,0.361-2.076,1.451-2.143,2.72l-4.696,90.189l-27.153-82.696c-0.399-1.216-1.526-2.045-2.807-2.063
	c-1.272-0.055-2.432,0.776-2.866,1.981l-31.47,87.182l-5.106-90.666c-0.071-1.261-0.924-2.343-2.135-2.706
	c-1.208-0.361-2.517,0.072-3.27,1.086l-46.024,62.035l47.986-161.19l7.697-10.374l3.95,70.176c0.08,1.419,1.144,2.587,2.549,2.798
	c1.403,0.208,2.766-0.592,3.26-1.925l24.563-66.31l21.296,79.962c0.354,1.325,1.552,2.228,2.897,2.228
	c0.104,0,0.208-0.005,0.313-0.016c1.469-0.154,2.607-1.353,2.685-2.828l4.527-86.919l8.591,11.814l48.259,162.117L282.49,352.511z"
	/>
<g>
</g>
<g>
</g>
<g>
</g>
<g>
</g>
<g>
</g>
<g>
</g>
<g>
</g>
<g>
</g>
<g>
</g>
<g>
</g>
<g>
</g>
<g>
</g>
<g>
</g>
<g>
</g>
<g>
</g>
</svg>
