<?xml version="1.0" encoding="iso-8859-1"?>
<!-- Generator: Adobe Illustrator 18.0.0, SVG Export Plug-In . SVG Version: 6.00 Build 0)  -->
<!DOCTYPE svg PUBLIC "-//W3C//DTD SVG 1.1//EN" "http://www.w3.org/Graphics/SVG/1.1/DTD/svg11.dtd">
<svg version="1.1" id="Capa_1" xmlns="http://www.w3.org/2000/svg" xmlns:xlink="http://www.w3.org/1999/xlink" x="0px" y="0px"
	 viewBox="0 0 465.126 465.126" style="enable-background:new 0 0 465.126 465.126;" xml:space="preserve">
<g>
	<path d="M401.443,420.874l-47.396-55.912c8.662-3.436,17.178-7.237,25.509-11.401c0.823-0.412,1.412-1.179,1.598-2.082
		c0.185-0.902-0.056-1.839-0.651-2.542l-45.863-54.105c9.531-3.563,18.875-7.619,27.972-12.166c0.824-0.412,1.413-1.179,1.598-2.082
		c0.186-0.902-0.055-1.839-0.65-2.542l-37.9-44.709c8.252-3.123,16.354-6.635,24.241-10.577c0.824-0.412,1.413-1.179,1.598-2.082
		c0.186-0.902-0.055-1.839-0.65-2.542l-116-136.861c-0.569-0.672-1.406-1.06-2.288-1.06s-1.719,0.388-2.288,1.06L114.272,218.132
		c-0.596,0.703-0.836,1.64-0.65,2.542c0.185,0.902,0.773,1.669,1.598,2.082c7.889,3.943,15.992,7.456,24.246,10.579l-37.899,44.707
		c-0.596,0.703-0.836,1.64-0.65,2.542c0.185,0.902,0.773,1.669,1.598,2.082c9.097,4.547,18.441,8.603,27.972,12.166l-45.862,54.105
		c-0.596,0.703-0.836,1.64-0.65,2.542c0.185,0.902,0.773,1.669,1.597,2.082c8.332,4.165,16.847,7.965,25.51,11.401l-47.396,55.911
		c-0.596,0.703-0.836,1.64-0.65,2.542c0.185,0.902,0.773,1.67,1.598,2.082c51.871,25.925,109.939,39.629,167.927,39.629
		c57.974,0,116.046-13.704,167.938-39.629c0.824-0.412,1.413-1.179,1.598-2.081C402.279,422.514,402.039,421.576,401.443,420.874z
		 M309.866,179.061c-24.797,9.229-50.783,13.915-77.312,13.915c-26.519,0-52.501-4.686-77.299-13.918l7.785-9.185
		c22.494,7.219,45.868,10.889,69.514,10.889c23.657,0,47.035-3.669,69.527-10.887L309.866,179.061z M232.559,87.851l65.321,77.068
		c-21.168,6.533-43.122,9.843-65.326,9.843c-22.193,0-44.143-3.311-65.314-9.846L232.559,87.851z M151.141,183.912
		c26.079,9.987,53.455,15.064,81.413,15.064c27.969,0,55.35-5.076,81.426-15.061l29.8,35.159
		c-34.535,16.61-72.903,25.374-111.222,25.374c-38.317,0-76.687-8.763-111.221-25.374L151.141,183.912z M232.559,250.448
		c29.573,0,59.167-5.123,87.094-14.921l6.138,7.241c-29.788,11.645-61.13,17.563-93.236,17.563
		c-32.098,0-63.435-5.917-93.221-17.561l6.138-7.241C173.396,245.325,202.988,250.448,232.559,250.448z M135.237,247.601
		c31.054,12.418,63.781,18.729,97.318,18.729c33.545,0,66.277-6.312,97.332-18.731l26.607,31.387
		c-38.476,18.578-81.241,28.381-123.938,28.381c-42.688,0-85.448-9.803-123.925-28.381L135.237,247.601z M232.555,313.368
		c32.603,0,65.244-5.603,96.063-16.36l6.143,7.247c-32.725,12.595-67.085,18.996-102.208,18.996
		c-35.12,0-69.474-6.402-102.191-18.997l6.142-7.246C167.323,307.764,199.959,313.368,232.555,313.368z M126.258,309.096
		c33.99,13.363,69.737,20.154,106.296,20.154c36.561,0,72.313-6.791,106.313-20.153l34.573,40.786
		c-43.706,21.191-92.324,32.375-140.871,32.375c-48.555,0-97.178-11.184-140.884-32.375L126.258,309.096z M232.569,388.258
		c39.321,0,78.688-7.209,115.549-21.012l6.006,7.085c-38.76,15.787-79.63,23.812-121.56,23.812
		c-41.934,0-82.805-8.024-121.564-23.81l6.008-7.087C153.871,381.049,193.242,388.258,232.569,388.258z M232.557,459.126
		c-55.786,0-111.647-12.888-161.813-37.303l36.175-42.674c40.019,16.573,82.275,24.995,125.646,24.995
		c43.366,0,85.621-8.422,125.642-24.997l36.176,42.676C344.196,446.238,288.331,459.126,232.557,459.126z"/>
	<path d="M209.357,55.642l-6.238,28.305c-0.257,1.165,0.201,2.371,1.166,3.073c0.967,0.702,2.255,0.765,3.283,0.16L232.559,72.5
		l24.992,14.679c0.471,0.276,0.996,0.413,1.52,0.413c0.621,0,1.24-0.192,1.764-0.573c0.965-0.702,1.423-1.908,1.166-3.073
		l-6.238-28.305l21.684-19.232c0.893-0.792,1.231-2.037,0.863-3.172c-0.369-1.134-1.375-1.943-2.563-2.059L246.9,28.365L235.309,1.8
		c-0.478-1.093-1.557-1.8-2.75-1.8s-2.272,0.707-2.75,1.8l-11.59,26.565l-28.847,2.814c-1.188,0.116-2.193,0.924-2.563,2.059
		c-0.368,1.135-0.029,2.38,0.863,3.172L209.357,55.642z M220.555,34.166c1.083-0.105,2.023-0.789,2.459-1.786l9.545-21.878
		l9.546,21.878c0.436,0.997,1.376,1.681,2.459,1.786l23.757,2.318l-17.857,15.838c-0.814,0.722-1.174,1.828-0.939,2.89l5.138,23.311
		l-20.583-12.089c-0.469-0.275-0.994-0.413-1.52-0.413s-1.051,0.138-1.52,0.413l-20.582,12.089l5.138-23.311
		c0.234-1.062-0.125-2.168-0.939-2.89l-17.857-15.838L220.555,34.166z"/>
</g>
<g>
</g>
<g>
</g>
<g>
</g>
<g>
</g>
<g>
</g>
<g>
</g>
<g>
</g>
<g>
</g>
<g>
</g>
<g>
</g>
<g>
</g>
<g>
</g>
<g>
</g>
<g>
</g>
<g>
</g>
</svg>
