<?xml version="1.0" encoding="iso-8859-1"?>
<!-- Generator: Adobe Illustrator 18.0.0, SVG Export Plug-In . SVG Version: 6.00 Build 0)  -->
<!DOCTYPE svg PUBLIC "-//W3C//DTD SVG 1.1//EN" "http://www.w3.org/Graphics/SVG/1.1/DTD/svg11.dtd">
<svg version="1.1" id="Capa_1" xmlns="http://www.w3.org/2000/svg" xmlns:xlink="http://www.w3.org/1999/xlink" x="0px" y="0px"
	 viewBox="0 0 473.487 473.487" style="enable-background:new 0 0 473.487 473.487;" xml:space="preserve">
<g>
	<path d="M398.717,425.816l-83.65-215.436c8.164-7.181,11.181-19.045,6.955-29.389L252.382,10.504
		C249.735,4.025,243.743,0,236.744,0h0c-6.999,0-12.991,4.025-15.638,10.504l-68.102,166.72c-2.7,6.61-2.593,13.845,0.303,20.372
		c1.555,3.505,3.806,6.546,6.592,8.992L74.77,425.816c-0.319,0.822-0.261,1.744,0.161,2.519c0.421,0.775,1.163,1.325,2.027,1.504
		c35.591,7.379,71.995,12.265,108.734,14.618v21.671c0,1.436,1.018,2.671,2.428,2.945c14.859,2.887,31.673,4.414,48.624,4.414
		c16.952,0,33.766-1.526,48.625-4.414c1.41-0.274,2.428-1.509,2.428-2.945v-21.671c36.734-2.353,73.138-7.24,108.734-14.618
		c0.863-0.179,1.604-0.729,2.026-1.504C398.977,427.561,399.037,426.639,398.717,425.816z M158.558,179.493L226.66,12.773
		C228.7,7.779,233.207,6,236.744,6c3.537,0,8.043,1.779,10.083,6.773l69.642,170.487c3.724,9.115,0.139,19.767-8.338,24.777
		c-6.54,3.866-14.579,3.719-20.975-0.386l-26.219-16.827c-7.872-5.052-16.742-7.51-25.549-7.51c-12.8,0-25.462,5.195-34.704,15.166
		c-7.758,8.37-19.705,11.265-30.433,7.373c-5.164-1.873-9.234-5.669-11.461-10.69C156.563,190.142,156.481,184.577,158.558,179.493z
		 M281.796,463.64c-13.881,2.52-29.398,3.847-45.052,3.847c-15.653,0-31.17-1.328-45.052-3.847v-18.833
		c14.977,0.846,30.004,1.286,45.052,1.286c15.047,0,30.074-0.44,45.052-1.287V463.64z M236.743,440.093
		c-52.395,0-104.553-5.186-155.094-15.417l83.333-214.608c1.033,0.539,2.106,1.019,3.223,1.424
		c13.003,4.715,27.479,1.208,36.879-8.936c13.621-14.696,35.746-17.509,52.612-6.685l26.219,16.827
		c4.297,2.757,9.162,4.141,14.036,4.141c4.119,0,8.24-0.999,12.03-2.983l81.856,210.818
		C341.287,434.908,289.129,440.093,236.743,440.093z"/>
	<path d="M204.393,247.024c-9.646,0-17.493,7.847-17.493,17.493s7.847,17.493,17.493,17.493s17.493-7.847,17.493-17.493
		S214.039,247.024,204.393,247.024z M204.393,276.01c-6.337,0-11.493-5.156-11.493-11.493s5.156-11.493,11.493-11.493
		s11.493,5.156,11.493,11.493S210.731,276.01,204.393,276.01z"/>
	<path d="M298.62,332.333c-9.646,0-17.493,7.847-17.493,17.493s7.848,17.493,17.493,17.493s17.493-7.847,17.493-17.493
		S308.265,332.333,298.62,332.333z M298.62,361.319c-6.337,0-11.493-5.156-11.493-11.493s5.156-11.493,11.493-11.493
		s11.493,5.156,11.493,11.493S304.957,361.319,298.62,361.319z"/>
	<path d="M183.585,373.218c-9.646,0-17.493,7.847-17.493,17.493s7.847,17.493,17.493,17.493s17.493-7.847,17.493-17.493
		S193.231,373.218,183.585,373.218z M183.585,402.204c-6.337,0-11.493-5.156-11.493-11.493s5.156-11.493,11.493-11.493
		s11.493,5.156,11.493,11.493S189.922,402.204,183.585,402.204z"/>
</g>
<g>
</g>
<g>
</g>
<g>
</g>
<g>
</g>
<g>
</g>
<g>
</g>
<g>
</g>
<g>
</g>
<g>
</g>
<g>
</g>
<g>
</g>
<g>
</g>
<g>
</g>
<g>
</g>
<g>
</g>
</svg>
