<?xml version="1.0" encoding="iso-8859-1"?>
<!-- Generator: Adobe Illustrator 18.0.0, SVG Export Plug-In . SVG Version: 6.00 Build 0)  -->
<!DOCTYPE svg PUBLIC "-//W3C//DTD SVG 1.1//EN" "http://www.w3.org/Graphics/SVG/1.1/DTD/svg11.dtd">
<svg version="1.1" id="Capa_1" xmlns="http://www.w3.org/2000/svg" xmlns:xlink="http://www.w3.org/1999/xlink" x="0px" y="0px"
	 viewBox="0 0 483.39 483.39" style="enable-background:new 0 0 483.39 483.39;" xml:space="preserve">
<path d="M427.536,422.407l-0.031-0.325c-0.966-10.227-10.062-17.837-20.289-16.947c-3.148,0.272-6.301,0.508-9.451,0.765
	c-25.574-37.257-49.944-75.491-72.522-113.746c15.832-0.838,31.639-1.906,47.405-3.221c5.405-0.451,10.301-2.993,13.784-7.157
	c3.49-4.172,5.131-9.453,4.62-14.862l-0.034-0.355c-1.034-10.955-10.813-19.125-21.761-18.207
	c-3.674,0.306-7.354,0.582-11.033,0.862c-20.969-26.909-41.343-54.66-60.644-82.583c13.67-0.628,27.317-1.472,40.923-2.561
	c5.405-0.433,10.306-2.962,13.8-7.124c3.507-4.178,5.156-9.47,4.644-14.896l-0.034-0.35c-1.031-10.92-10.793-19.097-21.752-18.214
	c-4.187,0.335-8.378,0.643-12.573,0.932C294.777,84.594,268.435,43.25,244.29,1.498C243.754,0.571,242.765,0,241.693,0
	c-1.071,0-2.061,0.571-2.597,1.499c-24.077,41.657-50.418,83-78.296,122.919c-4.193-0.29-8.384-0.597-12.57-0.932
	c-10.962-0.877-20.72,7.294-21.752,18.218l-0.033,0.342c-0.513,5.43,1.136,10.722,4.643,14.9c3.493,4.162,8.394,6.691,13.799,7.124
	c13.608,1.089,27.258,1.934,40.93,2.562c-19.332,27.952-39.708,55.704-60.654,82.583c-3.677-0.28-7.355-0.555-11.028-0.862
	c-10.974-0.912-20.726,7.253-21.762,18.209l-0.033,0.347c-0.512,5.415,1.128,10.695,4.619,14.867
	c3.484,4.164,8.379,6.706,13.784,7.157c15.765,1.315,31.572,2.384,47.403,3.221c-22.607,38.303-46.971,76.538-72.505,113.747
	c-3.155-0.257-6.313-0.493-9.466-0.766c-10.227-0.884-19.323,6.72-20.29,16.945l-0.031,0.32c-0.475,5.023,1.044,9.924,4.277,13.8
	c3.24,3.884,7.801,6.262,12.843,6.697c48.368,4.175,97.032,6.538,145.735,7.106v25.288c0,1.097,0.599,2.106,1.561,2.632
	c6.542,3.577,13.951,5.467,21.424,5.467s14.882-1.89,21.425-5.467c0.962-0.526,1.561-1.536,1.561-2.632v-25.288
	c48.703-0.568,97.366-2.93,145.734-7.105c5.043-0.435,9.604-2.813,12.844-6.697C426.491,432.325,428.01,427.424,427.536,422.407z
	 M241.694,8.978c22.912,39.34,47.757,78.273,73.909,115.892c-49.131,3.096-98.689,3.096-147.819,0
	C193.997,87.166,218.841,48.234,241.694,8.978z M135.683,153.088c-2.466-2.938-3.626-6.659-3.264-10.482l0.032-0.342
	c0.689-7.295,6.926-12.844,14.166-12.844c0.375,0,0.754,0.015,1.135,0.045c62.337,4.985,125.551,4.985,187.887,0
	c7.712-0.612,14.575,5.125,15.303,12.82l0.031,0.324c0.36,3.819-0.799,7.54-3.266,10.478c-2.452,2.921-5.892,4.697-9.683,5.001
	c-63.919,5.116-128.738,5.116-192.659,0C141.574,157.785,138.135,156.009,135.683,153.088z M241.695,167.926
	c16.279,0,32.557-0.327,48.807-0.979c1.529,2.222,3.07,4.442,4.613,6.662c-35.479,1.566-71.357,1.566-106.834,0
	c1.543-2.22,3.085-4.44,4.615-6.662C209.143,167.599,225.419,167.926,241.695,167.926z M184.211,179.442
	c19.077,0.902,38.279,1.362,57.483,1.362c19.206,0,38.411-0.46,57.49-1.363c16.648,23.755,34.038,47.324,51.867,70.308
	c-72.656,5.182-146.058,5.182-218.714,0C150.149,226.787,167.541,203.218,184.211,179.442z M101.56,277.925
	c-2.454-2.934-3.607-6.646-3.248-10.455l0.033-0.347c0.69-7.302,6.899-12.842,14.112-12.842c0.39,0,0.783,0.016,1.177,0.049
	c84.975,7.086,171.147,7.086,256.12,0c7.715-0.646,14.563,5.096,15.289,12.785l0.034,0.356c0.359,3.807-0.794,7.52-3.248,10.453
	c-2.447,2.925-5.886,4.711-9.681,5.027c-86.565,7.22-174.347,7.219-260.908,0C107.446,282.637,104.008,280.851,101.56,277.925z
	 M241.695,294.368c25.611,0,51.219-0.639,76.768-1.881c1.309,2.227,2.639,4.452,3.96,6.679c-53.593,2.769-107.857,2.768-161.461,0
	c1.321-2.226,2.651-4.452,3.96-6.679C190.473,293.729,216.083,294.368,241.695,294.368z M157.506,304.996
	c27.94,1.5,56.066,2.254,84.192,2.254s56.249-0.755,84.182-2.254c20.419,34.13,42.236,68.17,65.003,101.461
	c-99.079,7.699-199.283,7.699-298.363,0.001C115.255,373.206,137.066,339.165,157.506,304.996z M258.681,473.466
	c-5.267,2.572-11.103,3.924-16.985,3.924c-5.883,0-11.719-1.353-16.985-3.924v-23.411c5.662,0.049,11.323,0.091,16.985,0.091
	s11.324-0.042,16.985-0.091V473.466z M418.651,432.357c-2.208,2.646-5.315,4.266-8.752,4.563
	c-111.612,9.635-224.795,9.635-336.409,0c-3.437-0.297-6.544-1.917-8.751-4.563c-2.2-2.638-3.234-5.974-2.912-9.39l0.031-0.32
	c0.623-6.591,6.209-11.581,12.704-11.581c0.363,0,0.729,0.016,1.097,0.047c110.174,9.514,221.899,9.514,332.073,0
	c6.948-0.604,13.143,4.574,13.803,11.554l0.028,0.297C421.885,426.383,420.851,429.719,418.651,432.357z"/>
<g>
</g>
<g>
</g>
<g>
</g>
<g>
</g>
<g>
</g>
<g>
</g>
<g>
</g>
<g>
</g>
<g>
</g>
<g>
</g>
<g>
</g>
<g>
</g>
<g>
</g>
<g>
</g>
<g>
</g>
</svg>
