<?xml version="1.0" encoding="iso-8859-1"?>
<!-- Generator: Adobe Illustrator 18.0.0, SVG Export Plug-In . SVG Version: 6.00 Build 0)  -->
<!DOCTYPE svg PUBLIC "-//W3C//DTD SVG 1.1//EN" "http://www.w3.org/Graphics/SVG/1.1/DTD/svg11.dtd">
<svg version="1.1" id="Capa_1" xmlns="http://www.w3.org/2000/svg" xmlns:xlink="http://www.w3.org/1999/xlink" x="0px" y="0px"
	 viewBox="0 0 467.08 467.08" style="enable-background:new 0 0 467.08 467.08;" xml:space="preserve">
<g>
	<path d="M424.281,385.226l-53.959-63.654c9.975-3.952,19.821-8.349,29.324-13.099c0.824-0.412,1.413-1.179,1.598-2.082
		s-0.055-1.839-0.65-2.542l-52.226-61.612c10.937-4.081,21.721-8.77,32.111-13.963c0.824-0.412,1.413-1.179,1.598-2.082
		s-0.055-1.839-0.65-2.542l-43.199-50.959c9.473-3.578,18.831-7.669,27.872-12.188c0.824-0.412,1.413-1.179,1.598-2.082
		c0.185-0.902-0.055-1.839-0.65-2.542L235.825,1.06c-0.57-0.672-1.407-1.06-2.289-1.06s-1.719,0.388-2.289,1.06L100.027,155.881
		c-0.595,0.703-0.835,1.64-0.65,2.542c0.185,0.902,0.774,1.67,1.598,2.082c9.045,4.521,18.404,8.613,27.877,12.19l-43.198,50.957
		c-0.595,0.703-0.835,1.64-0.65,2.542s0.774,1.67,1.598,2.082c10.393,5.194,21.176,9.883,32.111,13.963L66.486,303.85
		c-0.595,0.703-0.835,1.64-0.65,2.542s0.774,1.67,1.598,2.082c9.503,4.75,19.349,9.147,29.324,13.099l-53.958,63.653
		c-0.595,0.703-0.835,1.64-0.65,2.542s0.774,1.669,1.598,2.082c58.624,29.3,124.251,44.788,189.788,44.788
		c65.521,0,131.152-15.487,189.799-44.788c0.824-0.412,1.413-1.179,1.598-2.081S424.877,385.929,424.281,385.226z M355.379,383.122
		c0,6.304-5.128,11.433-11.432,11.433c-6.304,0-11.433-5.128-11.433-11.433c0-0.12,0.014-0.237,0.018-0.356
		c7.373-0.36,14.937-0.861,22.681-1.508C355.313,381.866,355.379,382.486,355.379,383.122z M334.534,376.648
		c2.064-2.991,5.511-4.958,9.413-4.958c3.356,0,6.369,1.462,8.462,3.773C346.333,375.949,340.375,376.342,334.534,376.648z
		 M343.947,365.689c-7.444,0-13.796,4.699-16.29,11.279c-19.219,0.797-37.144,0.667-53.725-0.169
		c7.64-2.454,14.785-4.897,21.36-7.268c42.487-15.316,70.433-30.499,78.216-34.923l29.583,34.898
		c-15.188,2.333-29.799,4.113-43.787,5.379C356.359,369.417,350.581,365.689,343.947,365.689z M322.228,305.09
		c0,6.304-5.128,11.433-11.433,11.433c-6.036,0-10.982-4.706-11.392-10.641c7.443-0.031,15.057-0.328,22.818-0.928
		C322.221,304.999,322.228,305.044,322.228,305.09z M300.639,299.865c1.901-3.681,5.736-6.207,10.156-6.207
		c4.09,0,7.675,2.166,9.695,5.403C313.753,299.553,307.132,299.812,300.639,299.865z M310.795,287.658
		c-7.787,0-14.395,5.134-16.625,12.193c-16.433-0.207-31.975-1.691-46.376-3.972c11.787-2.757,22.409-5.676,31.78-8.544
		c41.08-12.576,65.995-26.187,73.319-30.477l26.954,31.799c-18.17,5.115-35.886,8.254-52.915,9.864
		C324.332,292.157,318.083,287.658,310.795,287.658z M342.286,238.073c-0.926,0.332-1.631,1.097-1.886,2.047
		c-0.255,0.951-0.027,1.966,0.609,2.717l7.935,9.361c-8.098,4.626-32.545,17.589-71.126,29.4
		c-12.815,3.923-27.995,7.938-45.329,11.496c-13.278-2.739-25.375-6.058-36.03-9.501c-39.522-12.772-66.972-29.407-75.391-34.853
		l4.012-4.733c12.487,0.972,24.391,1.42,35.716,1.42c53.459,0,94.004-9.854,121.933-20.28c25.538-0.242,53.723-3.01,83.783-9.808
		l7.851,9.261C363.957,229.644,353.185,234.17,342.286,238.073z M217.779,295.9c-38.846,6.851-87.032,10.992-142.879,7.303
		l42.257-49.851c7.967,5.204,36.266,22.611,77.25,35.883C201.579,291.557,209.405,293.82,217.779,295.9z M362.124,210.163
		c-22.415,4.883-43.738,7.5-63.645,8.503c26.004-11.715,41.071-23.771,46.57-28.645L362.124,210.163z M311.014,99.052l28.959,34.167
		c-31.888,4.223-59.661,2.713-82.826-1.385c3.722-1.434,7.412-2.973,11.058-4.628C292.5,116.179,305.912,104.229,311.014,99.052z
		 M233.536,7.64l73.575,86.808c-4.337,4.459-17.312,16.368-41.386,27.295c-6.525,2.961-13.196,5.545-19.953,7.8
		c-14.794-3.349-27.392-7.66-37.604-11.933c-1.868-0.782-3.681-1.572-5.443-2.368c1.371-2.489,2.156-5.345,2.156-8.382
		c0-9.612-7.82-17.432-17.433-17.432c-6.47,0-12.117,3.551-15.124,8.799c-4.413-3.044-7.596-5.556-9.508-7.148L233.536,7.64z
		 M197.267,112.686c-7.893-3.837-14.547-7.69-19.935-11.134c1.916-3.636,5.729-6.124,10.116-6.124
		c6.304,0,11.433,5.128,11.433,11.432C198.881,108.989,198.285,110.977,197.267,112.686z M192.57,117.066
		c-1.543,0.778-3.28,1.226-5.122,1.226c-5.958,0-10.859-4.582-11.38-10.407C180.739,110.785,186.246,113.915,192.57,117.066z
		 M187.448,124.292c4.342,0,8.308-1.606,11.363-4.241c2.173,0.998,4.419,1.992,6.757,2.974c8.208,3.447,17.908,6.922,29.014,9.926
		c-40.335,11.219-82.592,11.581-114.956,9.083l39.301-46.369c2.228,1.87,6.01,4.86,11.326,8.452
		c-0.142,0.895-0.237,1.806-0.237,2.741C170.016,116.472,177.836,124.292,187.448,124.292z M136.81,170.592
		c-0.253-0.95-0.956-1.715-1.88-2.049c-9.433-3.405-18.781-7.34-27.838-11.718l7.765-9.162c11.179,0.972,23.636,1.635,36.905,1.635
		c29.409,0,62.699-3.249,94.31-13.538c16.295,3.573,35.122,5.981,56.287,5.981c13.174,0,27.269-0.946,42.202-3.111l15.421,18.194
		c-9.056,4.377-18.403,8.312-27.838,11.718c-1.371,0.495-2.185,1.903-1.934,3.339c0.101,0.575,0.361,1.087,0.731,1.496
		l10.221,12.057c-5.36,4.736-21.569,17.768-49.784,29.8c-3.049,1.3-6.299,2.612-9.751,3.917
		c-36.478,0.248-67.412-4.702-90.45-10.261c-4.124-0.995-8.083-2.03-11.88-3.087c0-0.053,0.008-0.104,0.008-0.157
		c0-9.612-7.82-17.433-17.432-17.433c-5.762,0-10.865,2.822-14.041,7.144c-10.603-4.137-18.103-7.754-22.043-9.773l10.41-12.28
		C136.835,172.555,137.063,171.542,136.81,170.592z M150.78,202.93c6.328,2.336,13.56,4.772,21.631,7.147
		c-1.734,4.11-5.804,7.002-10.538,7.002c-6.304,0-11.433-5.128-11.433-11.432C150.44,204.709,150.566,203.803,150.78,202.93z
		 M153.761,197.601c2.073-2.09,4.943-3.387,8.112-3.387c5.756,0,10.519,4.281,11.305,9.824
		C166.015,201.901,159.52,199.713,153.761,197.601z M92.717,224.599l29.086-34.31c3.617,1.916,11.567,5.887,23.341,10.498
		c-0.45,1.545-0.703,3.172-0.703,4.86c0,9.612,7.82,17.432,17.433,17.432c7.471,0,13.841-4.733,16.316-11.352
		c3.631,1.002,7.409,1.986,11.341,2.938c19.812,4.795,45.362,9.148,75.201,10.238c-33.13,10.13-79.753,17.893-140.313,13.034
		C113.649,234.065,103.004,229.587,92.717,224.599z M84.242,309.765c11.027,0.561,21.751,0.829,32.152,0.829
		c45.135,0,84.196-4.907,116.107-11.38c18.315,3.709,38.81,6.296,60.9,6.622c0.395,9.265,8.034,16.686,17.394,16.686
		c9.612,0,17.433-7.82,17.433-17.433c0-0.221-0.025-0.436-0.033-0.655c17.978-1.741,36.705-5.155,55.916-10.749l9.421,11.114
		c-9.519,4.631-19.356,8.898-29.295,12.706c-1.351,0.517-2.14,1.925-1.876,3.347c0.109,0.589,0.386,1.112,0.776,1.522l6.423,7.577
		c-8.728,4.903-35.759,19.321-76.302,33.937c-10.624,3.83-22.716,7.851-36.081,11.795c-34.992-2.874-63.37-8.762-84.964-14.901
		c-41.737-11.864-66.253-26.687-73.897-31.767l5.638-6.651c0.385-0.408,0.659-0.927,0.767-1.512c0.263-1.422-0.526-2.83-1.876-3.347
		C96.581,315.105,90.37,312.505,84.242,309.765z M94.4,333.633c7.363,5.016,32.102,20.344,75.783,32.81
		c18.714,5.341,42.439,10.501,71.073,13.724c-41.921,11.249-94.339,20.945-153.224,22.33c-12.989-4.803-25.736-10.249-38.173-16.321
		L94.4,333.633z M233.534,428.637c-43.968,0-87.975-7.077-129.821-20.698c60.218-2.917,113.067-14.157,154.069-26.181
		c13.889,1.111,28.793,1.752,44.713,1.752c7.766,0,15.777-0.154,24.024-0.478c0,0.03-0.005,0.059-0.005,0.09
		c0,9.612,7.82,17.433,17.433,17.433s17.432-7.82,17.432-17.433c0-0.812-0.075-1.606-0.183-2.389
		c14.824-1.371,30.309-3.292,46.45-5.853l9.576,11.296C360.278,413.966,296.855,428.637,233.534,428.637z"/>
	<path d="M285.439,456.614c-15.973,2.924-33.856,4.466-51.899,4.466c-18.042,0-35.925-1.542-51.899-4.466v-24.977h-6v27.463
		c0,1.436,1.018,2.671,2.428,2.945c16.95,3.294,36.131,5.035,55.471,5.035c19.34,0,38.522-1.741,55.471-5.035
		c1.41-0.274,2.428-1.509,2.428-2.945v-27.463h-6V456.614z"/>
	<path d="M289.318,189.884c9.612,0,17.432-7.82,17.432-17.432s-7.82-17.433-17.432-17.433s-17.433,7.82-17.433,17.433
		S279.705,189.884,289.318,189.884z M289.318,161.019c6.304,0,11.432,5.128,11.432,11.433c0,6.304-5.128,11.432-11.432,11.432
		c-6.304,0-11.433-5.128-11.433-11.432C277.885,166.147,283.013,161.019,289.318,161.019z"/>
	<path d="M247.897,241.965c-9.612,0-17.432,7.82-17.432,17.432s7.82,17.433,17.432,17.433s17.433-7.82,17.433-17.433
		S257.509,241.965,247.897,241.965z M247.897,270.83c-6.304,0-11.432-5.128-11.432-11.433c0-6.304,5.128-11.432,11.432-11.432
		c6.304,0,11.433,5.128,11.433,11.432C259.33,265.701,254.201,270.83,247.897,270.83z"/>
	<path d="M253.24,85.225c9.612,0,17.432-7.82,17.432-17.433s-7.82-17.432-17.432-17.432s-17.433,7.82-17.433,17.432
		S243.628,85.225,253.24,85.225z M253.24,56.36c6.304,0,11.432,5.128,11.432,11.432c0,6.304-5.128,11.433-11.432,11.433
		c-6.304,0-11.433-5.128-11.433-11.433C241.807,61.489,246.936,56.36,253.24,56.36z"/>
	<path d="M187.256,356.164c9.612,0,17.432-7.82,17.432-17.433c0-9.612-7.82-17.432-17.432-17.432s-17.433,7.82-17.433,17.432
		C169.823,348.343,177.644,356.164,187.256,356.164z M187.256,327.299c6.304,0,11.432,5.128,11.432,11.432
		c0,6.304-5.128,11.433-11.432,11.433c-6.304,0-11.433-5.128-11.433-11.433C175.823,332.427,180.952,327.299,187.256,327.299z"/>
	<path d="M98.005,393.394c9.612,0,17.432-7.82,17.432-17.433s-7.82-17.432-17.432-17.432s-17.433,7.82-17.433,17.432
		S88.392,393.394,98.005,393.394z M98.005,364.529c6.304,0,11.432,5.128,11.432,11.432c0,6.304-5.128,11.433-11.432,11.433
		c-6.304,0-11.433-5.128-11.433-11.433C86.572,369.658,91.7,364.529,98.005,364.529z"/>
</g>
<g>
</g>
<g>
</g>
<g>
</g>
<g>
</g>
<g>
</g>
<g>
</g>
<g>
</g>
<g>
</g>
<g>
</g>
<g>
</g>
<g>
</g>
<g>
</g>
<g>
</g>
<g>
</g>
<g>
</g>
</svg>
