<?xml version="1.0" encoding="iso-8859-1"?>
<!-- Generator: Adobe Illustrator 18.0.0, SVG Export Plug-In . SVG Version: 6.00 Build 0)  -->
<!DOCTYPE svg PUBLIC "-//W3C//DTD SVG 1.1//EN" "http://www.w3.org/Graphics/SVG/1.1/DTD/svg11.dtd">
<svg version="1.1" id="Capa_1" xmlns="http://www.w3.org/2000/svg" xmlns:xlink="http://www.w3.org/1999/xlink" x="0px" y="0px"
	 viewBox="0 0 460.955 460.955" style="enable-background:new 0 0 460.955 460.955;" xml:space="preserve">
<path d="M396.451,420.994l-98.651-99.519l67.23,6.807c0.102,0.01,0.202,0.015,0.303,0.015c1.106,0,2.135-0.613,2.656-1.608
	c0.569-1.085,0.42-2.408-0.375-3.34L263.475,201.337l51.653-6.499c1.016-0.128,1.896-0.765,2.336-1.689s0.376-2.01-0.166-2.878
	l-47.047-75.22l36.259,6.447c0.176,0.031,0.352,0.046,0.526,0.046c1.003,0,1.955-0.504,2.515-1.366
	c0.656-1.011,0.645-2.316-0.03-3.314L231.399,1.321c-0.548-0.811-1.456-1.303-2.434-1.319c-0.973-0.035-1.902,0.444-2.478,1.235
	L161.031,91.25c-0.608,0.836-0.743,1.926-0.356,2.885c0.387,0.959,1.24,1.651,2.257,1.833l41.992,7.466L117.667,214.51
	c-0.751,0.957-0.851,2.272-0.252,3.331c0.537,0.949,1.539,1.522,2.61,1.522c0.125,0,0.25-0.008,0.375-0.023l48.395-6.089
	l-65.494,83.911c-0.672,0.861-0.823,2.019-0.394,3.024c0.429,1.004,1.37,1.696,2.457,1.807l49.206,4.982l-90.242,108.62
	c-0.737,0.888-0.9,2.12-0.419,3.168c0.481,1.049,1.521,1.729,2.675,1.748l113.557,1.939l-3.823,35.182
	c-0.092,0.847,0.181,1.693,0.75,2.328s1.381,0.997,2.233,0.997l74.819-0.001c1.448,0,2.69-1.035,2.951-2.46l6.333-34.623
	l130.867,2.235c0.017,0,0.034,0,0.051,0c1.2,0,2.287-0.716,2.759-1.822C397.559,423.161,397.31,421.861,396.451,420.994z
	 M228.824,8.225l71.753,106.123L168.704,90.9L228.824,8.225z M211.619,104.624l50.669,9.009l47.432,75.837l-182.826,23.005
	L211.619,104.624z M177.235,212.188l79.116-9.955L358.198,321.56l-67.064-6.79c-0.552-0.507-1.27-0.799-2.023-0.799h-0.016
	l0.002,0.593l-177.724-17.995L177.235,212.188z M251.617,454.954l-68.974,0.001l3.521-32.404l71.157,1.215L251.617,454.954z
	 M72.938,414.617l88.826-106.916l126.645,12.823l98.589,99.456L72.938,414.617z"/>
<g>
</g>
<g>
</g>
<g>
</g>
<g>
</g>
<g>
</g>
<g>
</g>
<g>
</g>
<g>
</g>
<g>
</g>
<g>
</g>
<g>
</g>
<g>
</g>
<g>
</g>
<g>
</g>
<g>
</g>
</svg>
