<?xml version="1.0" encoding="iso-8859-1"?>
<!-- Generator: Adobe Illustrator 18.0.0, SVG Export Plug-In . SVG Version: 6.00 Build 0)  -->
<!DOCTYPE svg PUBLIC "-//W3C//DTD SVG 1.1//EN" "http://www.w3.org/Graphics/SVG/1.1/DTD/svg11.dtd">
<svg version="1.1" id="Capa_1" xmlns="http://www.w3.org/2000/svg" xmlns:xlink="http://www.w3.org/1999/xlink" x="0px" y="0px"
	 viewBox="0 0 471.378 471.378" style="enable-background:new 0 0 471.378 471.378;" xml:space="preserve">
<g>
	<path d="M418.268,466.81l-47.141-76.89l15.507-3.967c0.923-0.236,1.68-0.897,2.037-1.781c0.358-0.883,0.274-1.884-0.226-2.697
		l-44.716-72.709l17.722-4.043c0.943-0.215,1.725-0.872,2.099-1.764c0.374-0.892,0.295-1.91-0.212-2.734l-43.632-70.839
		l18.723-4.075c0.951-0.207,1.743-0.862,2.124-1.758s0.303-1.921-0.208-2.749l-41.896-67.846l20.337-4.12
		c0.946-0.192,1.742-0.827,2.139-1.707s0.346-1.897-0.137-2.733L238.287,1.5c-0.536-0.928-1.526-1.5-2.598-1.5
		s-2.062,0.572-2.598,1.5l-82.501,142.896c-0.482,0.836-0.534,1.854-0.137,2.733s1.193,1.515,2.139,1.707l20.337,4.12
		l-41.896,67.846c-0.511,0.828-0.589,1.853-0.208,2.749s1.172,1.552,2.124,1.758l18.723,4.075l-43.632,70.839
		c-0.507,0.824-0.586,1.842-0.212,2.734c0.375,0.892,1.156,1.549,2.099,1.764l17.723,4.043l-44.717,72.709
		c-0.5,0.812-0.583,1.813-0.226,2.697c0.357,0.884,1.114,1.545,2.037,1.781l15.507,3.967l-47.14,76.89
		c-0.567,0.926-0.59,2.086-0.06,3.033c0.531,0.948,1.532,1.535,2.618,1.535H415.71c1.086,0,2.087-0.587,2.618-1.535
		C418.858,468.896,418.835,467.736,418.268,466.81z M61.026,465.378l46.465-75.789c0.498-0.812,0.581-1.813,0.223-2.695
		c-0.358-0.883-1.114-1.543-2.037-1.779l-15.501-3.965l44.776-72.806c0.507-0.824,0.585-1.841,0.211-2.733
		c-0.375-0.892-1.156-1.548-2.099-1.763l-17.72-4.043L159,228.927c0.51-0.828,0.587-1.853,0.207-2.748
		c-0.381-0.896-1.172-1.55-2.123-1.757l-18.718-4.073l41.931-67.901c0.515-0.834,0.59-1.869,0.2-2.769
		c-0.39-0.9-1.196-1.553-2.157-1.748l-20.467-4.146L235.689,9l77.817,134.784l-20.467,4.146c-0.961,0.195-1.767,0.848-2.157,1.748
		c-0.39,0.9-0.315,1.935,0.2,2.769l41.93,67.901l-18.718,4.073c-0.951,0.207-1.742,0.862-2.123,1.757
		c-0.381,0.895-0.304,1.919,0.207,2.748l43.655,70.877l-17.719,4.043c-0.943,0.215-1.724,0.872-2.099,1.763
		c-0.375,0.892-0.296,1.909,0.211,2.733l44.776,72.806l-15.501,3.965c-0.923,0.236-1.679,0.896-2.037,1.779
		c-0.358,0.882-0.275,1.883,0.223,2.695l46.465,75.789H61.026z"/>
	<path d="M221.202,118.902c0.36,0.14,0.74,0.21,1.1,0.21c1.2,0,2.33-0.72,2.79-1.89c0.61-1.55-0.14-3.29-1.68-3.9
		s-3.28,0.14-3.9,1.68C218.912,116.542,219.662,118.292,221.202,118.902z"/>
	<path d="M229.771,122.092c0.32,0.12,0.66,0.17,0.99,0.17c1.24,0,2.4-0.77,2.83-2.01c0.55-1.56-0.28-3.27-1.84-3.82
		c-1.57-0.55-3.28,0.28-3.82,1.84C227.382,119.832,228.202,121.542,229.771,122.092z"/>
	<path d="M212.771,115.352c0.39,0.18,0.81,0.26,1.22,0.26c1.15,0,2.24-0.66,2.74-1.78c0.67-1.51-0.01-3.28-1.52-3.96
		c-1.51-0.67-3.29,0.01-3.96,1.52C210.572,112.902,211.252,114.682,212.771,115.352z"/>
	<path d="M238.452,124.942c0.29,0.09,0.59,0.13,0.88,0.13c1.28,0,2.47-0.83,2.87-2.12c0.48-1.58-0.41-3.26-1.99-3.75
		c-1.59-0.48-3.27,0.41-3.75,1.99C235.972,122.782,236.872,124.462,238.452,124.942z"/>
	<path d="M188.492,102.462v-0.01c0.5,0.32,1.06,0.47,1.61,0.47c0.99,0,1.96-0.49,2.53-1.39c0.89-1.4,0.48-3.25-0.92-4.14
		c-1.4-0.89-3.25-0.48-4.14,0.92C186.682,99.712,187.102,101.563,188.492,102.462z"/>
	<path d="M196.392,107.162c0.46,0.26,0.97,0.38,1.46,0.38c1.05,0,2.07-0.55,2.62-1.53c0.81-1.45,0.3-3.28-1.15-4.08
		c-1.45-0.82-3.27-0.3-4.08,1.15C194.432,104.522,194.942,106.352,196.392,107.162z"/>
	<path d="M256.122,129.602h-0.01c0.22,0.05,0.44,0.08,0.66,0.08c1.37,0,2.61-0.95,2.93-2.35c0.36-1.62-0.66-3.22-2.28-3.58
		c-1.61-0.36-3.22,0.66-3.58,2.27C253.482,127.642,254.502,129.242,256.122,129.602z"/>
	<path d="M204.492,111.442c0.43,0.22,0.89,0.32,1.34,0.32c1.1,0,2.16-0.61,2.68-1.66c0.74-1.48,0.14-3.28-1.34-4.02
		c-1.48-0.74-3.29-0.14-4.02,1.34C202.412,108.902,203.012,110.712,204.492,111.442z"/>
	<path d="M301.342,135.352c0.04,0,0.07,0.01,0.11,0.01c1.61,0,2.94-1.28,2.99-2.9c0.06-1.65-1.23-3.04-2.89-3.1s-3.04,1.23-3.1,2.89
		C298.392,133.902,299.682,135.302,301.342,135.352z"/>
	<path d="M247.242,127.442c0.25,0.07,0.51,0.1,0.76,0.1c1.33,0,2.55-0.88,2.9-2.23c0.43-1.6-0.53-3.25-2.13-3.67
		c-1.6-0.42-3.24,0.53-3.67,2.14C244.682,125.382,245.642,127.022,247.242,127.442z"/>
	<path d="M283.132,134.052c0.11,0.02,0.22,0.02,0.33,0.02c1.51,0,2.81-1.14,2.98-2.68c0.17-1.64-1.02-3.12-2.66-3.3
		c-1.65-0.18-3.13,1.01-3.31,2.66C280.292,132.402,281.492,133.882,283.132,134.052z"/>
	<path d="M292.232,134.872c0.07,0,0.14,0.01,0.21,0.01c1.56,0,2.88-1.21,2.99-2.79c0.12-1.65-1.13-3.09-2.78-3.21
		c-1.65-0.11-3.09,1.13-3.2,2.78C289.332,133.312,290.572,134.752,292.232,134.872z"/>
	<path d="M265.062,131.432c0.19,0.03,0.37,0.05,0.55,0.05c1.42,0,2.68-1.02,2.95-2.46c0.3-1.63-0.78-3.2-2.41-3.5
		c-1.63-0.29-3.19,0.78-3.49,2.41C262.362,129.562,263.442,131.132,265.062,131.432z"/>
	<path d="M274.072,132.912c0.15,0.02,0.3,0.03,0.44,0.03c1.47,0,2.75-1.07,2.97-2.57c0.23-1.64-0.9-3.16-2.54-3.4
		c-1.64-0.24-3.16,0.9-3.4,2.54C271.302,131.152,272.442,132.672,274.072,132.912z"/>
	<path d="M155.932,259.432c0.07,0,0.14-0.01,0.21-0.01c1.65-0.12,2.9-1.55,2.78-3.2c-0.11-1.66-1.54-2.9-3.2-2.79
		c-1.65,0.12-2.9,1.55-2.78,3.2C153.052,258.222,154.372,259.432,155.932,259.432z"/>
	<path d="M164.792,258.652c0.1,0,0.21,0,0.32-0.02c1.65-0.17,2.84-1.65,2.67-3.29c-0.18-1.65-1.65-2.85-3.3-2.67
		c-1.65,0.17-2.84,1.65-2.67,3.3C161.972,257.512,163.271,258.652,164.792,258.652z"/>
	<path d="M199.042,246.442c-1.61,0.42-2.57,2.05-2.16,3.66c0.35,1.35,1.57,2.25,2.91,2.25c0.24,0,0.5-0.03,0.75-0.1
		c1.6-0.41,2.57-2.05,2.15-3.65C202.282,246.992,200.642,246.032,199.042,246.442z"/>
	<path d="M190.492,248.482c-1.62,0.35-2.64,1.95-2.29,3.57c0.31,1.4,1.55,2.36,2.93,2.36c0.21,0,0.43-0.02,0.64-0.07
		c1.62-0.36,2.65-1.95,2.29-3.57C193.712,249.152,192.112,248.122,190.492,248.482z"/>
	<path d="M306.732,191.332c0.79,0,1.57-0.31,2.16-0.92c1.15-1.19,1.12-3.09-0.07-4.24c-1.2-1.15-3.1-1.12-4.25,0.07
		c-1.15,1.2-1.11,3.09,0.08,4.24C305.232,191.052,305.982,191.332,306.732,191.332z"/>
	<path d="M147.052,259.892c0.03,0,0.06,0,0.1,0c0-0.01,0-0.01,0-0.01c1.66-0.05,2.95-1.44,2.9-3.1c-0.06-1.65-1.45-2.95-3.11-2.89
		c-1.65,0.06-2.95,1.44-2.89,3.1C144.102,258.612,145.442,259.892,147.052,259.892z"/>
	<path d="M277.372,213.342c0.59,0.81,1.51,1.24,2.43,1.24c0.61,0,1.23-0.19,1.76-0.58c1.34-0.98,1.64-2.86,0.66-4.19
		c-0.98-1.34-2.85-1.63-4.19-0.66C276.692,210.132,276.402,212.012,277.372,213.342z"/>
	<path d="M284.532,208.052c0.59,0.75,1.47,1.14,2.36,1.14c0.65,0,1.31-0.21,1.86-0.65c1.3-1.03,1.52-2.91,0.49-4.21
		c-1.03-1.3-2.92-1.52-4.22-0.49C283.732,204.862,283.512,206.752,284.532,208.052z"/>
	<path d="M265.032,224.512c0.54,0,1.08-0.14,1.58-0.45c1.4-0.87,1.84-2.72,0.97-4.13c-0.87-1.41-2.72-1.84-4.13-0.97
		c-1.41,0.87-1.85,2.72-0.97,4.13C263.042,224.012,264.021,224.512,265.032,224.512z"/>
	<path d="M182.402,256.142c0.18,0,0.36-0.01,0.54-0.04c1.63-0.3,2.71-1.86,2.42-3.49s-1.86-2.71-3.48-2.42
		c-1.64,0.29-2.72,1.86-2.43,3.49C179.722,255.132,180.982,256.142,182.402,256.142z"/>
	<path d="M173.622,257.562c0.14,0,0.28-0.01,0.43-0.03c1.64-0.23,2.78-1.75,2.54-3.39c-0.23-1.64-1.75-2.79-3.39-2.55
		c-1.64,0.23-2.78,1.75-2.55,3.39C170.872,256.482,172.152,257.562,173.622,257.562z"/>
	<path d="M300.382,197.582c0.74,0,1.48-0.27,2.06-0.82c-0.01,0-0.01,0-0.01,0c1.21-1.13,1.27-3.03,0.14-4.24
		c-1.13-1.2-3.03-1.27-4.24-0.13c-1.21,1.13-1.27,3.03-0.14,4.24C298.782,197.262,299.582,197.582,300.382,197.582z"/>
	<path d="M272.512,219.692c0.57,0,1.16-0.17,1.67-0.52c1.37-0.92,1.74-2.79,0.82-4.16c-0.93-1.37-2.79-1.74-4.17-0.81
		c-1.37,0.92-1.74,2.78-0.81,4.16C270.602,219.222,271.542,219.692,272.512,219.692z"/>
	<path d="M224.132,238.432c-1.54,0.59-2.32,2.33-1.73,3.88c0.46,1.19,1.6,1.93,2.81,1.93c0.35,0,0.72-0.07,1.07-0.2
		c1.55-0.6,2.32-2.33,1.73-3.88C227.422,238.622,225.682,237.842,224.132,238.432z"/>
	<path d="M258.852,228.662c1.44-0.82,1.95-2.65,1.13-4.09c-0.82-1.44-2.65-1.94-4.09-1.13c-1.44,0.82-1.95,2.65-1.13,4.1
		c0.55,0.97,1.57,1.51,2.61,1.51C257.882,229.052,258.382,228.932,258.852,228.662z"/>
	<path d="M232.282,235.142c-1.53,0.65-2.23,2.41-1.58,3.94c0.48,1.14,1.59,1.82,2.76,1.82c0.39,0,0.79-0.08,1.17-0.24
		c1.53-0.65,2.23-2.42,1.58-3.94C235.562,235.202,233.802,234.492,232.282,235.142z"/>
	<path d="M215.872,241.422c-1.57,0.53-2.41,2.24-1.87,3.8c0.42,1.25,1.59,2.04,2.84,2.04c0.32,0,0.64-0.05,0.96-0.16
		c1.57-0.54,2.41-2.24,1.88-3.81C219.142,241.722,217.442,240.882,215.872,241.422z"/>
	<path d="M250.932,232.962c1.47-0.76,2.04-2.57,1.28-4.04c-0.76-1.47-2.57-2.04-4.04-1.28c-1.47,0.76-2.05,2.57-1.28,4.04
		c0.53,1.03,1.58,1.62,2.66,1.62C250.021,233.302,250.492,233.192,250.932,232.962z"/>
	<path d="M241.582,237.252c0.42,0,0.86-0.09,1.27-0.28c0.01,0,0.01,0,0.01,0c1.49-0.71,2.13-2.5,1.43-4c-0.71-1.5-2.5-2.14-4-1.43
		c-1.5,0.71-2.14,2.49-1.43,3.99C239.372,236.622,240.452,237.252,241.582,237.252z"/>
	<path d="M293.762,203.522c0.69,0,1.38-0.24,1.95-0.72c1.26-1.08,1.4-2.98,0.32-4.23c-1.08-1.26-2.97-1.4-4.23-0.32
		c-1.26,1.08-1.4,2.97-0.32,4.23C292.072,203.172,292.912,203.522,293.762,203.522z"/>
	<path d="M207.502,244.092c-1.59,0.47-2.49,2.14-2.02,3.73c0.39,1.3,1.59,2.14,2.88,2.14c0.28,0,0.57-0.04,0.86-0.12
		c1.58-0.48,2.49-2.15,2.02-3.74C210.762,244.522,209.092,243.612,207.502,244.092z"/>
	<path d="M322.412,398.652c-1.65-0.17-3.13,1.02-3.3,2.67c-0.18,1.65,1.02,3.13,2.67,3.3c0.1,0.01,0.21,0.01,0.31,0.01
		c1.52,0,2.82-1.14,2.99-2.68C325.252,400.302,324.052,398.822,322.412,398.652z"/>
	<path d="M277.771,391.862c-1.62-0.33-3.2,0.73-3.53,2.35c-0.32,1.62,0.73,3.21,2.35,3.53c0.2,0.04,0.4,0.06,0.6,0.06
		c1.4,0,2.65-0.98,2.94-2.41C280.452,393.772,279.402,392.192,277.771,391.862z"/>
	<path d="M286.642,393.562c-1.62-0.3-3.19,0.78-3.48,2.41c-0.3,1.63,0.79,3.2,2.42,3.49c0.18,0.03,0.36,0.05,0.53,0.05
		c1.43,0,2.69-1.02,2.95-2.47C289.362,395.412,288.282,393.852,286.642,393.562z"/>
	<path d="M340.402,400.212c-1.65-0.11-3.08,1.14-3.19,2.79c-0.12,1.65,1.13,3.08,2.78,3.2c0.07,0,0.14,0.01,0.21,0.01
		c1.57,0,2.88-1.22,2.99-2.8C343.312,401.762,342.062,400.332,340.402,400.212z"/>
	<path d="M349.422,400.762c0-0.01,0-0.01,0-0.01c-1.65-0.08-3.06,1.19-3.15,2.85c-0.08,1.65,1.19,3.06,2.85,3.15
		c0.05,0,0.1,0,0.15,0c1.59,0,2.91-1.24,3-2.85C352.352,402.252,351.082,400.842,349.422,400.762z"/>
	<path d="M260.142,387.962c-1.61-0.4-3.23,0.59-3.62,2.21c-0.39,1.61,0.6,3.23,2.21,3.62c0.24,0.05,0.48,0.08,0.71,0.08
		c1.35,0,2.58-0.92,2.91-2.29C262.742,389.972,261.752,388.352,260.142,387.962z"/>
	<path d="M268.942,390.002c-1.62-0.36-3.22,0.66-3.58,2.27c-0.36,1.62,0.66,3.22,2.28,3.58c0.22,0.05,0.44,0.08,0.65,0.08
		c1.38,0,2.62-0.96,2.93-2.36C271.582,391.962,270.562,390.352,268.942,390.002z"/>
	<path d="M358.452,401.142c-1.65-0.06-3.04,1.24-3.1,2.89c-0.05,1.66,1.24,3.05,2.9,3.1c0.03,0,0.07,0.01,0.1,0.01
		c1.61,0,2.94-1.28,3-2.9C361.402,402.582,360.112,401.192,358.452,401.142z"/>
	<path d="M313.432,397.632c-1.65-0.21-3.14,0.96-3.34,2.61c-0.21,1.64,0.96,3.14,2.6,3.34c0.13,0.02,0.25,0.02,0.37,0.02
		c1.5,0,2.79-1.11,2.98-2.63C316.242,399.332,315.072,397.832,313.432,397.632z"/>
	<path d="M367.392,407.362c0.01,0,0.03,0.01,0.05,0.01c1.63,0,2.97-1.32,2.99-2.95c0.03-1.66-1.29-3.03-2.94-3.05
		c-1.66-0.03-3.03,1.29-3.05,2.95C364.412,405.972,365.732,407.342,367.392,407.362z"/>
	<path d="M304.482,396.442c-1.64-0.24-3.16,0.9-3.4,2.55c-0.23,1.63,0.91,3.15,2.55,3.39c0.14,0.02,0.29,0.03,0.43,0.03
		c1.47,0,2.75-1.08,2.96-2.58C307.262,398.192,306.122,396.672,304.482,396.442z"/>
	<path d="M331.402,399.512c-1.65-0.14-3.11,1.08-3.25,2.73c-0.14,1.65,1.08,3.11,2.73,3.25c0.09,0.01,0.17,0.01,0.26,0.01
		c1.54,0,2.85-1.18,2.99-2.74C334.271,401.112,333.052,399.662,331.402,399.512z"/>
	<path d="M295.552,395.082c-1.64-0.26-3.18,0.85-3.44,2.48c-0.27,1.64,0.84,3.18,2.48,3.44c0.16,0.03,0.32,0.04,0.48,0.04
		c1.45,0,2.72-1.04,2.96-2.52C298.292,396.892,297.182,395.352,295.552,395.082z"/>
	<path d="M147.372,345.972c-0.84,1.43-0.37,3.26,1.06,4.11c0.48,0.28,1.01,0.41,1.52,0.41c1.03,0,2.03-0.53,2.59-1.48
		c0.84-1.42,0.36-3.26-1.06-4.1C150.052,344.062,148.212,344.542,147.372,345.972z"/>
	<path d="M200.021,368.702c-1.54-0.62-3.28,0.12-3.91,1.66c-0.62,1.53,0.12,3.28,1.66,3.9c0.37,0.15,0.75,0.22,1.12,0.22
		c1.19,0,2.31-0.71,2.78-1.87C202.302,371.072,201.562,369.322,200.021,368.702z"/>
	<path d="M125.352,334.982c0.54,0.39,1.16,0.58,1.78,0.58c0.92,0,1.83-0.42,2.42-1.22c0.98-1.34,0.69-3.22-0.64-4.2
		c-1.34-0.98-3.21-0.69-4.2,0.64C123.732,332.122,124.021,334.002,125.352,334.982z"/>
	<path d="M251.392,385.742c-1.6-0.42-3.24,0.54-3.66,2.14c-0.43,1.6,0.53,3.24,2.13,3.66c0.26,0.07,0.51,0.1,0.77,0.1
		c1.33,0,2.54-0.89,2.9-2.23C253.952,387.802,252.992,386.162,251.392,385.742z"/>
	<path d="M132.892,340.282c0.51,0.35,1.1,0.52,1.68,0.52c0.96,0,1.9-0.47,2.48-1.32c0.93-1.37,0.57-3.24-0.8-4.17
		c-1.37-0.93-3.24-0.57-4.17,0.81C131.162,337.492,131.521,339.352,132.892,340.282z"/>
	<path d="M208.422,372.002c-1.55-0.59-3.28,0.19-3.87,1.74c-0.59,1.54,0.19,3.28,1.74,3.87c0.35,0.13,0.71,0.19,1.07,0.19
		c1.21,0,2.35-0.74,2.8-1.93C210.752,374.322,209.972,372.582,208.422,372.002z"/>
	<path d="M216.892,375.112c-1.56-0.56-3.27,0.26-3.83,1.82c-0.55,1.56,0.27,3.28,1.83,3.83c0.33,0.12,0.67,0.17,1,0.17
		c1.23,0,2.39-0.76,2.83-1.99C219.271,377.382,218.462,375.662,216.892,375.112z"/>
	<path d="M191.702,365.222c-1.52-0.66-3.29,0.04-3.95,1.57c-0.65,1.52,0.05,3.28,1.57,3.94c0.39,0.17,0.79,0.24,1.19,0.24
		c1.16,0.01,2.26-0.67,2.75-1.81C193.922,367.642,193.222,365.882,191.702,365.222z"/>
	<path d="M140.592,345.302c0.5,0.32,1.05,0.46,1.59,0.46c1,0,1.98-0.49,2.55-1.4c0.88-1.4,0.46-3.25-0.94-4.14
		c-1.41-0.88-3.26-0.46-4.14,0.95C138.771,342.572,139.192,344.422,140.592,345.302z"/>
	<path d="M225.432,378.032c-1.57-0.52-3.27,0.34-3.79,1.91c-0.52,1.57,0.33,3.27,1.91,3.79c0.31,0.1,0.63,0.15,0.94,0.15
		c1.26,0,2.43-0.79,2.85-2.05C227.862,380.252,227.002,378.562,225.432,378.032z"/>
	<path d="M242.692,383.352c-1.6-0.45-3.26,0.47-3.71,2.06c-0.46,1.59,0.46,3.26,2.06,3.71c0.27,0.08,0.55,0.12,0.82,0.12
		c1.31,0,2.51-0.86,2.89-2.18C245.202,385.472,244.282,383.812,242.692,383.352z"/>
	<path d="M234.032,380.782c-1.58-0.49-3.26,0.4-3.75,1.99c-0.49,1.58,0.4,3.26,1.98,3.75c0.3,0.09,0.6,0.13,0.89,0.13
		c1.28,0,2.47-0.83,2.86-2.12C236.502,382.952,235.612,381.272,234.032,380.782z"/>
	<path d="M180.952,367.002c0.41,0.19,0.83,0.28,1.25,0.28c1.14,0,2.22-0.65,2.73-1.75c0.69-1.51,0.03-3.29-1.47-3.98
		c-1.51-0.69-3.29-0.03-3.98,1.47C178.792,364.532,179.442,366.312,180.952,367.002z"/>
	<path d="M155.232,350.552c-0.8,1.45-0.28,3.27,1.17,4.07c0.46,0.26,0.96,0.38,1.45,0.38c1.06,0,2.08-0.56,2.63-1.55
		c0.8-1.45,0.28-3.28-1.17-4.08C157.862,348.572,156.032,349.102,155.232,350.552z"/>
	<path d="M163.212,354.912c-0.77,1.47-0.2,3.28,1.28,4.04c0.44,0.23,0.91,0.34,1.38,0.34c1.08,0,2.13-0.59,2.66-1.62
		c0.76-1.47,0.19-3.28-1.28-4.04C165.782,352.872,163.972,353.442,163.212,354.912z"/>
	<path d="M175.302,357.692c-1.48-0.73-3.28-0.11-4.01,1.38c-0.73,1.48-0.11,3.28,1.38,4.01c0.43,0.21,0.87,0.3,1.32,0.3
		c1.11,0,2.17-0.61,2.69-1.68C177.412,360.212,176.792,358.412,175.302,357.692z"/>
	<path d="M292.98,275.737c-19.083,0-34.607,15.524-34.607,34.607c0,19.082,15.524,34.606,34.607,34.606s34.607-15.524,34.607-34.606
		C327.587,291.261,312.063,275.737,292.98,275.737z M292.98,338.95c-15.774,0-28.607-12.833-28.607-28.606
		c0-15.774,12.833-28.607,28.607-28.607s28.607,12.833,28.607,28.607C321.587,326.117,308.754,338.95,292.98,338.95z"/>
	<path d="M152.899,384.102c-19.083,0-34.607,15.524-34.607,34.606c0,19.083,15.524,34.607,34.607,34.607
		s34.607-15.524,34.607-34.607C187.506,399.626,171.982,384.102,152.899,384.102z M152.899,447.315
		c-15.774,0-28.607-12.833-28.607-28.607c0-15.773,12.833-28.606,28.607-28.606s28.607,12.833,28.607,28.606
		C181.506,434.482,168.673,447.315,152.899,447.315z"/>
	<path d="M216.118,212.251c19.083,0,34.607-15.524,34.607-34.607s-15.524-34.607-34.607-34.607s-34.607,15.524-34.607,34.607
		S197.036,212.251,216.118,212.251z M216.118,149.038c15.774,0,28.607,12.833,28.607,28.607s-12.833,28.607-28.607,28.607
		s-28.607-12.833-28.607-28.607S200.344,149.038,216.118,149.038z"/>
</g>
<g>
</g>
<g>
</g>
<g>
</g>
<g>
</g>
<g>
</g>
<g>
</g>
<g>
</g>
<g>
</g>
<g>
</g>
<g>
</g>
<g>
</g>
<g>
</g>
<g>
</g>
<g>
</g>
<g>
</g>
</svg>
