<?xml version="1.0" encoding="utf-8"?>
<!-- Generator: Adobe Illustrator 16.0.0, SVG Export Plug-In . SVG Version: 6.00 Build 0)  -->
<!DOCTYPE svg PUBLIC "-//W3C//DTD SVG 1.1//EN" "http://www.w3.org/Graphics/SVG/1.1/DTD/svg11.dtd">
<svg version="1.1" id="Layer_1" xmlns="http://www.w3.org/2000/svg" xmlns:xlink="http://www.w3.org/1999/xlink" x="0px" y="0px"
	 width="48px" height="48px" viewBox="0 0 48 48" enable-background="new 0 0 48 48" xml:space="preserve">
<g>
	<path d="M10.518,16.054c0,1.492,1.099,2.703,2.453,2.703c0.019,0,0.037-0.001,0.055-0.002c-0.107,0.431-0.146,0.968-0.091,1.641
		c0.165,1.997,1.168,2.897,2.259,3.129c1.542,3.779,4.602,6.898,8.224,6.898c3.613,0,6.667-3.104,8.214-6.871
		c1.146-0.181,2.233-1.068,2.406-3.157c0.056-0.672,0.017-1.21-0.091-1.641c0.019,0.001,0.036,0.002,0.056,0.002
		c1.354,0,2.453-1.211,2.453-2.703c0-1.089-0.587-2.022-1.431-2.449c0.568-0.273,0.968-0.897,0.968-1.625
		c0-0.713-0.386-1.325-0.937-1.605c0.299-0.485,0.474-1.07,0.474-1.701c0-1.676-1.233-3.035-2.755-3.035
		c-0.035,0-0.066,0.01-0.102,0.011c-0.354-1.622-1.67-2.831-3.252-2.831c-0.913,0-1.74,0.406-2.346,1.059
		c-0.453-1.609-1.799-2.786-3.408-2.786c-0.062,0-0.301,0-0.361,0c-1.61,0-2.957,1.177-3.409,2.786
		c-0.605-0.653-1.432-1.059-2.345-1.059c-1.582,0-2.898,1.209-3.253,2.831c-0.034-0.001-0.066-0.011-0.102-0.011
		c-1.521,0-2.755,1.359-2.755,3.035c0,0.631,0.175,1.216,0.474,1.701c-0.551,0.281-0.937,0.892-0.937,1.605
		c0,0.728,0.399,1.351,0.969,1.625C11.104,14.032,10.518,14.965,10.518,16.054z M19.817,9.934c0.563,0.633,1.963,1.083,3.6,1.083
		c1.652,0,3.063-0.458,3.614-1.101c2.371,0.729,3.928,2.772,3.928,8.379c0,4.698-3.364,10.371-7.542,10.371
		s-7.543-5.673-7.543-10.371C15.874,12.738,17.479,10.679,19.817,9.934z"/>
	<path d="M31.59,30.113l-2.207-0.551c-0.009,0.008-0.022,0.017-0.03,0.025c-1.788,1.583-3.842,2.42-5.933,2.42
		c-2.093,0-4.143-0.836-5.933-2.418l-2.091,0.524c-4.184,1.048-7.118,4.808-7.118,9.123v5.664c0,1.116,0.9,2.017,2.016,2.017h5.36
		h15.276h5.748c1.113,0,2.043-0.901,2.043-2.017v-5.664C38.722,34.92,35.775,31.161,31.59,30.113z M24.345,36.141
		c0,0.474-0.385,0.858-0.858,0.858c-0.475,0-0.86-0.384-0.86-0.858c0-0.475,0.386-0.859,0.86-0.859
		C23.96,35.282,24.345,35.667,24.345,36.141z M24.345,40.295c0,0.475-0.385,0.859-0.858,0.859c-0.475,0-0.86-0.384-0.86-0.859
		c0-0.474,0.386-0.858,0.86-0.858C23.96,39.437,24.345,39.821,24.345,40.295z M10.274,44.899v-5.664c0-3.328,2.224-6.225,5.399-7.13
		v12.8L10.274,44.899z M36.672,44.93l-5.754-0.006V31.998l0.187,0.045c3.313,0.83,5.632,3.788,5.632,7.192v5.656
		C36.731,44.901,36.704,44.93,36.672,44.93z"/>
</g>
</svg>
