<?xml version="1.0" encoding="utf-8"?>
<!-- Generator: Adobe Illustrator 16.0.0, SVG Export Plug-In . SVG Version: 6.00 Build 0)  -->
<!DOCTYPE svg PUBLIC "-//W3C//DTD SVG 1.1//EN" "http://www.w3.org/Graphics/SVG/1.1/DTD/svg11.dtd">
<svg version="1.1" id="Layer_1" xmlns="http://www.w3.org/2000/svg" xmlns:xlink="http://www.w3.org/1999/xlink" x="0px" y="0px"
	 width="48px" height="48px" viewBox="0 0 48 48" enable-background="new 0 0 48 48" xml:space="preserve">
<g>
	<path d="M34.384,13.6c-0.137-3.598-0.918-5.976-2.093-7.6h0.003c-0.822-1.288-2.597-2.66-3.689-3.327
		c-7.179-4.38-11.069,1.221-11.517,1.918c-0.66,0.236-4.769,2.044-3.58,8.438c-0.013,0.212-0.023,0.429-0.032,0.65
		c-0.873,0.404-1.527,1.341-1.353,3.462c0.186,2.249,1.316,3.262,2.543,3.524c1.737,4.257,5.184,7.77,9.264,7.77
		c4.069,0,7.509-3.496,9.251-7.738c1.291-0.204,2.518-1.204,2.711-3.555C36.079,14.895,35.333,13.963,34.384,13.6z M23.932,26.457
		c-4.23,0-7.719-5.164-8.382-10.051c0.316-1.76,1.292-5.547,4.093-8.339c2.153,2.327,6.092,5.005,12.722,4.777
		c0.041,0.598,0.062,1.241,0.062,1.931C32.427,20.066,28.637,26.457,23.932,26.457z"/>
	<path d="M23.644,16.731c0-0.134-0.009-0.258-0.025-0.37h0.781c-0.016,0.112-0.024,0.236-0.024,0.37
		c0,2.107,2.091,2.104,3.097,2.104c1.005,0,3.097-0.003,3.097-2.11c0-2.107-2.092-2.111-3.097-2.111
		c-0.71,0-1.959,0.011-2.634,0.739H23.18c-0.674-0.728-1.924-0.739-2.633-0.739c-1.006,0-3.097,0.002-3.097,2.109
		c0,2.107,2.091,2.107,3.097,2.107C21.552,18.832,23.644,18.839,23.644,16.731z M27.472,15.607c1.792,0,2.107,0.361,2.107,1.118
		s-0.316,1.118-2.107,1.118c-1.792,0-2.107-0.36-2.107-1.118S25.68,15.607,27.472,15.607z M18.439,16.726
		c0-0.757,0.315-1.118,2.107-1.118c1.792,0,2.107,0.361,2.107,1.118s-0.316,1.118-2.107,1.118
		C18.755,17.843,18.439,17.483,18.439,16.726z"/>
	<path d="M33.096,28.087l-1.199-0.297l-7.941,18.063l-7.938-18.058l-1.154,0.293c-4.714,1.18-8.004,5.415-8.004,10.275v6.38
		C6.86,45.998,7.844,47,9.101,47h29.717c1.256,0,2.322-1.002,2.322-2.258v-6.38C41.139,33.502,37.81,29.267,33.096,28.087z
		 M29.64,40.559l2.236-2.417c0.527-0.573,1.432-0.579,1.959-0.006l2.236,2.423H29.64z"/>
	<path d="M24.035,42.549l2.652-6.735l-1.23-1.23c0.777-0.099,1.321-0.858,1.131-1.645l-0.544-2.268
		c-0.146-0.604-0.685-1.035-1.305-1.035h-1.458c-0.621,0-1.16,0.431-1.306,1.035l-0.544,2.265c-0.189,0.787,0.354,1.547,1.131,1.646
		l-1.23,1.231L24.035,42.549z"/>
</g>
</svg>
