<?xml version="1.0" encoding="utf-8"?>
<!-- Generator: Adobe Illustrator 16.0.0, SVG Export Plug-In . SVG Version: 6.00 Build 0)  -->
<!DOCTYPE svg PUBLIC "-//W3C//DTD SVG 1.1//EN" "http://www.w3.org/Graphics/SVG/1.1/DTD/svg11.dtd">
<svg version="1.1" id="Layer_1" xmlns="http://www.w3.org/2000/svg" xmlns:xlink="http://www.w3.org/1999/xlink" x="0px" y="0px"
	 width="48px" height="48px" viewBox="0 0 48 48" enable-background="new 0 0 48 48" xml:space="preserve">
<g>
	<path d="M33.525,27.243l-1.657-0.415l-4.973,5.347c-0.756,0.813-1.815,1.274-2.925,1.274c-1.109,0-2.17-0.462-2.925-1.276
		l-4.967-5.346l-1.643,0.415c-4.938,1.236-8.391,5.674-8.391,10.766v6.685c0,1.316,1.044,2.384,2.359,2.384h31.136
		c1.315,0,2.392-1.067,2.392-2.384v-6.685C41.933,32.917,38.464,28.479,33.525,27.243z"/>
	<path d="M23.173,14.367h1.632c0.2,1.372,1.397,2.444,2.844,2.444c1.586,0,2.874-1.286,2.874-2.873s-1.288-1.623-2.874-1.623
		c-1.356,0-2.492,0.029-2.795,1.041h-1.73c-0.302-1.011-1.438-1.041-2.795-1.041c-1.586,0-2.873,0.028-2.873,1.616
		s1.287,2.884,2.873,2.884C21.774,16.815,22.972,15.739,23.173,14.367z"/>
	<path d="M14.233,19.443c1.814,4.453,5.418,8.125,9.686,8.125c0.005,0,0.137,0,0.141,0c4.268,0,7.871-3.672,9.686-8.125
		c1.265-0.291,2.418-1.349,2.609-3.669c0.18-2.182-0.48-3.162-1.369-3.595C34.63,2.312,29.543,0.915,24.06,0.915
		c-0.023,0-0.047,0-0.07,0s-0.047,0-0.07,0c-5.482,0-10.57,1.397-10.926,11.264c-0.889,0.433-1.549,1.413-1.369,3.595
		C11.815,18.093,12.97,19.152,14.233,19.443z M23.997,25.508c-0.002,0-0.005,0-0.008,0c-0.002,0-0.006,0-0.008,0
		c-1.46-0.006-2.638-1.125-2.638-2.47c0-1.348,1.183-2.469,2.646-2.469s2.646,1.122,2.646,2.469
		C26.636,24.383,25.457,25.502,23.997,25.508z M23.987,5.173h0.002h0.002c8.412-2.109,8.933,5.899,8.887,9.075
		c-0.051,3.404-1.844,6.984-4.196,9.2c0.013-0.135,0.021-0.271,0.021-0.41c0-2.487-2.11-4.537-4.713-4.537s-4.713,2.05-4.713,4.537
		c0,0.139,0.008,0.275,0.021,0.41c-2.353-2.216-4.146-5.796-4.196-9.2C15.055,11.073,15.575,3.064,23.987,5.173z"/>
</g>
</svg>
