<?xml version="1.0" encoding="utf-8"?>
<!-- Generator: Adobe Illustrator 16.0.0, SVG Export Plug-In . SVG Version: 6.00 Build 0)  -->
<!DOCTYPE svg PUBLIC "-//W3C//DTD SVG 1.1//EN" "http://www.w3.org/Graphics/SVG/1.1/DTD/svg11.dtd">
<svg version="1.1" id="Layer_1" xmlns="http://www.w3.org/2000/svg" xmlns:xlink="http://www.w3.org/1999/xlink" x="0px" y="0px"
	 width="48px" height="48px" viewBox="0 0 48 48" enable-background="new 0 0 48 48" xml:space="preserve">
<g>
	<path d="M18.099,28.981v4.52c0,1.48,1.199,2.679,2.679,2.679h5.909c1.479,0,2.679-1.199,2.679-2.679V28.98
		c-1.654,1.226-3.564,1.965-5.635,1.965C21.661,30.945,19.753,30.207,18.099,28.981z"/>
	<path d="M32.617,28.517l0.008,7.663c0.695,0,1.259,0.563,1.259,1.259V47h4.339c1.224,0,2.217-1.016,2.217-2.242v-6.221
		C40.439,33.798,37.215,29.668,32.617,28.517z"/>
	<path d="M7.024,38.537v6.221C7.024,45.984,8.017,47,9.241,47h4.339v-9.556c0-0.698,0.565-1.264,1.264-1.264l0.001-7.663
		C10.248,29.668,7.024,33.798,7.024,38.537z"/>
	<path d="M35.397,18.325c0.175-2.131-0.508-3.036-1.398-3.41c-0.013-0.349,0.134-1.787,0.134-2.184
		c0-4.843-4.513-9.472-8.688-10.482c0.026-0.065,0.04-0.133,0.04-0.204c0-0.51-0.741-0.923-1.657-0.923S22.17,1.536,22.17,2.045
		c0,0.081,0.019,0.159,0.053,0.233c-3.917,1.068-8.698,5.655-8.698,10.452c0,0.293,0.018,0.584,0.044,0.87
		c-0.04,0.437-0.068,0.895-0.086,1.374c-0.824,0.408-1.433,1.326-1.267,3.351c0.177,2.127,1.22,3.121,2.373,3.412
		c1.67,4.226,5.049,7.665,9.153,7.665c4.093,0,7.467-3.422,9.14-7.633C34.093,21.525,35.214,20.54,35.397,18.325z M23.742,27.346
		c-4.555,0-8.223-6.198-8.223-11.33c0-0.335,0.007-0.657,0.018-0.969l1.33,1.307c0.583,0.573,1.499,0.619,2.139,0.11
		c0.995-0.792,2.782-1.327,4.822-1.327c2.039,0,3.827,0.535,4.822,1.327c0.638,0.508,1.556,0.462,2.138-0.109l1.165-1.144
		c0.007,0.261,0.011,0.529,0.011,0.805C31.964,21.148,28.296,27.346,23.742,27.346z"/>
</g>
</svg>
