<?xml version="1.0" encoding="iso-8859-1"?>
<!-- Generator: Adobe Illustrator 18.0.0, SVG Export Plug-In . SVG Version: 6.00 Build 0)  -->
<!DOCTYPE svg PUBLIC "-//W3C//DTD SVG 1.1//EN" "http://www.w3.org/Graphics/SVG/1.1/DTD/svg11.dtd">
<svg version="1.1" id="Capa_1" xmlns="http://www.w3.org/2000/svg" xmlns:xlink="http://www.w3.org/1999/xlink" x="0px" y="0px"
	 viewBox="0 0 314.189 314.189" style="enable-background:new 0 0 314.189 314.189;" xml:space="preserve">
<g>
	<path d="M77.767,75.34c0,2.259,0,4.051,0,4.051v215.677l32.528,19.121l125.799-73.915l0.327-223.143L206.643,0L77.767,75.34z
		 M102.767,292.651l-10-5.815V93.615l10,5.809V292.651z M98.848,79.727l70.273-41.145l11.525,6.716c0,0-67.193,39.195-70.334,41.149
		L98.848,79.727z M221.106,231.968l-103.339,60.845V99.476l103.791-60.751L221.106,231.968z M217.693,23.876l-6.17,3.896
		l-12.021-7.039l6.546-3.686L217.693,23.876z"/>
	<path d="M210.233,59.659l-81.056,47.366v89.219l81.056-47.3V59.659z M195.233,140.627l-51.056,29.596v-54.872l51.056-29.719
		V140.627z"/>
	<path d="M175.511,178.531c-14.679-0.81-22.282,18.172-23.105,33.78c-0.869,16.474,5.551,36.045,20.189,36.045
		c11.771,0,21.309-14.326,22.336-33.801C195.907,196.105,188.65,179.223,175.511,178.531z M179.954,213.765
		c-0.625,11.838-5.351,18.974-7.335,19.574c-1.91-0.808-5.857-8.402-5.233-20.236c0.625-11.836,5.35-18.973,7.334-19.574
		C176.63,194.335,180.578,201.929,179.954,213.765z"/>
</g>
<g>
</g>
<g>
</g>
<g>
</g>
<g>
</g>
<g>
</g>
<g>
</g>
<g>
</g>
<g>
</g>
<g>
</g>
<g>
</g>
<g>
</g>
<g>
</g>
<g>
</g>
<g>
</g>
<g>
</g>
</svg>
