<?xml version="1.0" encoding="iso-8859-1"?>
<!-- Generator: Adobe Illustrator 18.0.0, SVG Export Plug-In . SVG Version: 6.00 Build 0)  -->
<!DOCTYPE svg PUBLIC "-//W3C//DTD SVG 1.1//EN" "http://www.w3.org/Graphics/SVG/1.1/DTD/svg11.dtd">
<svg version="1.1" id="Capa_1" xmlns="http://www.w3.org/2000/svg" xmlns:xlink="http://www.w3.org/1999/xlink" x="0px" y="0px"
	 viewBox="0 0 280.87 280.87" style="enable-background:new 0 0 280.87 280.87;" xml:space="preserve">
<path d="M176.315,19.113v-0.646h-0.044C175.365,5.79,157.278,0,140.435,0s-34.93,5.79-35.836,18.467h-0.044v0.648
	c-20.617,5.78-32.691,16.222-32.691,28.655c0,9.233,0,190.451,0,199.851c0,24.364,41.465,33.249,68.571,33.249
	c35.913,0,68.571-12.532,68.571-33.249c0-9.424,0-190.663,0-199.851C209.006,35.355,196.925,24.897,176.315,19.113z M140.435,15
	c10.548,0,17.521,2.67,20.094,4.467c-2.573,1.797-9.546,4.466-20.094,4.466c-10.548,0-17.52-2.669-20.094-4.466
	C122.914,17.67,129.887,15,140.435,15z M104.609,34.791c1.102,12.521,19.082,18.239,35.826,18.239
	c16.742,0,34.721-5.718,35.826-18.236c11.587,3.922,17.745,9.195,17.745,12.977c0,7.266-21.366,18.25-53.571,18.25
	s-53.571-10.984-53.571-18.25C86.864,43.972,93.02,38.708,104.609,34.791z M140.435,265.87c-32.205,0-53.571-10.984-53.571-18.249
	V101.646c2.254,1.337,4.749,2.586,7.474,3.734c12.436,5.243,28.807,8.131,46.098,8.131c11.359,0,22.315-1.254,32.024-3.596v61.271
	c0,4.143,3.357,7.5,7.5,7.5c4.143,0,7.5-3.357,7.5-7.5v-66.22c2.359-1.035,4.555-2.14,6.547-3.32v145.976
	C194.006,254.886,172.64,265.87,140.435,265.87z M194.006,80.261c0,7.266-21.366,18.25-53.571,18.25s-53.571-10.984-53.571-18.25
	c0-6.566,0-7.004,0-11.106c14.789,8.771,36.243,11.866,53.571,11.866c17.294,0,38.767-3.089,53.571-11.866
	C194.006,73.259,194.006,73.695,194.006,80.261z"/>
<g>
</g>
<g>
</g>
<g>
</g>
<g>
</g>
<g>
</g>
<g>
</g>
<g>
</g>
<g>
</g>
<g>
</g>
<g>
</g>
<g>
</g>
<g>
</g>
<g>
</g>
<g>
</g>
<g>
</g>
</svg>
