<?xml version="1.0" encoding="iso-8859-1"?>
<!-- Generator: Adobe Illustrator 18.0.0, SVG Export Plug-In . SVG Version: 6.00 Build 0)  -->
<!DOCTYPE svg PUBLIC "-//W3C//DTD SVG 1.1//EN" "http://www.w3.org/Graphics/SVG/1.1/DTD/svg11.dtd">
<svg version="1.1" id="Capa_1" xmlns="http://www.w3.org/2000/svg" xmlns:xlink="http://www.w3.org/1999/xlink" x="0px" y="0px"
	 viewBox="0 0 309.959 309.959" style="enable-background:new 0 0 309.959 309.959;" xml:space="preserve">
<g>
	<g>
		<path d="M241.936,89.939V22.582L203.284,0L101.497,59.191l-0.001,0.001l-0.008,0.005l-33.465,64.608v163.468l39.41,22.686
			l134.502-78.363V112.277l-14.095,7.307V97.992L241.936,89.939z M203.274,17.357l16.269,9.487l-72.201,42.073l-8.863,5.165
			l-3.109-1.804l-13.285-7.708L203.274,17.357z M99.841,288.334l-16.817-9.717V138.443l16.817,9.576V288.334z M104.236,133.26
			L85.525,122.6l24.666-47.586l15.177,8.805l3.202,1.858l-14.19,27.747L104.236,133.26z M226.936,81.199l-14.095,8.129v56.453
			l14.095-8.272v85.466l-112.095,65.305V145.467l8.917-17.436v27.283l20.296-11.819v-40.438l-10.887,6.575l10.995-21.5l6.43-3.747
			v31.646l20.296-11.745V72.559l5.787-3.372v31.654l20.296-11.795V57.359l5.037-2.934v31.706l20.296-11.928V42.598l4.632-2.699
			V81.199z"/>
	</g>
	<polygon points="125.758,267.445 214.155,215.607 214.155,174.735 125.758,226.16 	"/>
</g>
<g>
</g>
<g>
</g>
<g>
</g>
<g>
</g>
<g>
</g>
<g>
</g>
<g>
</g>
<g>
</g>
<g>
</g>
<g>
</g>
<g>
</g>
<g>
</g>
<g>
</g>
<g>
</g>
<g>
</g>
</svg>
