<?xml version="1.0" encoding="iso-8859-1"?>
<!-- Generator: Adobe Illustrator 18.0.0, SVG Export Plug-In . SVG Version: 6.00 Build 0)  -->
<!DOCTYPE svg PUBLIC "-//W3C//DTD SVG 1.1//EN" "http://www.w3.org/Graphics/SVG/1.1/DTD/svg11.dtd">
<svg version="1.1" id="Capa_1" xmlns="http://www.w3.org/2000/svg" xmlns:xlink="http://www.w3.org/1999/xlink" x="0px" y="0px"
	 viewBox="0 0 238.615 238.615" style="enable-background:new 0 0 238.615 238.615;" xml:space="preserve">
<path d="M210.76,56.021c-4.179,0-8.147,1.515-11.711,4.366c-7.752-28.314-22.638-45.786-40.071-45.786c-0.53,0-72.449,0-72.449,0
	c-22.881,0-41.304,30.75-44.983,74.016c-2.229,0.179-4.539,0.321-6.174,0.321C15.206,88.938,0,117.973,0,156.477
	c0,38.503,15.206,67.538,35.371,67.538c34.355,0,70.713-0.078,70.713-0.078c2.059,0.175,3.752,0.125,5.619-1.006
	c14.767-8.936,34.673-20.763,53.924-32.199c20.782-12.346,40.411-24.007,49.897-29.861c0.17-0.105,0.335-0.217,0.496-0.334
	c10.923-8.009,22.595-26.182,22.595-53.166C238.615,78.096,226.64,56.021,210.76,56.021z M86.528,29.601
	c8.63,0,29.136,0.024,46.516,0.069c-10.173,13.367-17.221,34.688-19.167,60.174c-2.255-0.681-4.316-0.906-6.057-0.906
	c-0.697,0-41.24,0.049-51.24,0.033C59.862,53.173,74.187,29.601,86.528,29.601z M15,156.477c0-32.072,12.065-52.538,20.371-52.539
	l49.661,0.078c-7.782,12.186-12.583,30.828-12.583,52.461c0,21.929,4.937,40.774,12.908,52.946
	c-13.575-0.2-31.994-0.408-49.986-0.408C27.065,209.015,15,188.548,15,156.477z M207.375,148.272
	c-9.482,5.844-28.882,17.368-49.409,29.564c-18.331,10.89-37.254,22.132-51.811,30.921c-8.16-2.455-18.706-22.296-18.706-52.28
	c0-21.39,7.403-52.448,21.485-52.423c2.479,0.497,4.73,2.532,6.263,4.278c2.054,2.342,5.341,3.172,8.263,2.079
	c2.919-1.09,4.871-3.872,4.875-6.987c0.082-61.033,19.749-74.033,30.809-73.813c12.082,0.24,24.403,21.809,28.711,50.438
	c0.505,3.353,3.196,5.95,6.564,6.335c3.379,0.388,6.578-1.538,7.825-4.689c2.905-7.334,6.45-10.674,8.516-10.674
	c4.532,0,12.855,13.801,12.855,36.35C223.615,128.564,214.919,142.594,207.375,148.272z"/>
<g>
</g>
<g>
</g>
<g>
</g>
<g>
</g>
<g>
</g>
<g>
</g>
<g>
</g>
<g>
</g>
<g>
</g>
<g>
</g>
<g>
</g>
<g>
</g>
<g>
</g>
<g>
</g>
<g>
</g>
</svg>
