<?xml version="1.0" encoding="iso-8859-1"?>
<!-- Generator: Adobe Illustrator 18.0.0, SVG Export Plug-In . SVG Version: 6.00 Build 0)  -->
<!DOCTYPE svg PUBLIC "-//W3C//DTD SVG 1.1//EN" "http://www.w3.org/Graphics/SVG/1.1/DTD/svg11.dtd">
<svg version="1.1" id="Capa_1" xmlns="http://www.w3.org/2000/svg" xmlns:xlink="http://www.w3.org/1999/xlink" x="0px" y="0px"
	 viewBox="0 0 252.808 252.808" style="enable-background:new 0 0 252.808 252.808;" xml:space="preserve">
<g>
	<path d="M186.244,72.426c-20.759-14.53-37.672-16.595-51.896-17.389c-15.969-0.905-41.531,5.774-67.175,21.625L35.037,58.046
		L67.88,39.133L11.017,5.653C7.52,3.432,3.346,4.348,1.125,7.844c-2.223,3.496-1.023,7.813,2.473,10.034l35.327,20.623L6.427,57.176
		L54.361,85.32c-17.871,13.475-38.534,29.975-49.51,65.551l166.844,97.489l81.092-47.271
		C253.404,190.626,240.679,110.531,186.244,72.426z M133.512,70.014c13.244,0.739,26.585,2.421,44.13,14.701
		c10.855,7.6,21.218,18.961,28.582,29.078l-59.103,34.581c-9.556-13.067-21.165-24.614-34.135-33.692
		c-19.551-13.686-36.176-17.811-49.526-17.413C91.904,76.144,120.976,69.292,133.512,70.014z M23.574,144.213
		c0.994-1.93,19.26-59.033,80.812-17.242c41.755,28.35,54.248,74.602,58.234,98.016L23.574,144.213z M178.254,227.955
		c-3.181-22.698-10.963-46.902-23.106-67.339l24.927-14.828c6.752,10.351,22.931,38.915,23.817,67.122L178.254,227.955z
		 M218.322,204.467c-3.353-28.747-18.171-55.377-25.221-66.15l20.691-12.166c15.824,27.099,21.889,50.846,23.412,67.186
		L218.322,204.467z"/>
</g>
<g>
</g>
<g>
</g>
<g>
</g>
<g>
</g>
<g>
</g>
<g>
</g>
<g>
</g>
<g>
</g>
<g>
</g>
<g>
</g>
<g>
</g>
<g>
</g>
<g>
</g>
<g>
</g>
<g>
</g>
</svg>
