<?xml version="1.0" encoding="iso-8859-1"?>
<!-- Generator: Adobe Illustrator 16.0.0, SVG Export Plug-In . SVG Version: 6.00 Build 0)  -->
<!DOCTYPE svg PUBLIC "-//W3C//DTD SVG 1.1//EN" "http://www.w3.org/Graphics/SVG/1.1/DTD/svg11.dtd">
<svg version="1.1" id="Layer_1" xmlns="http://www.w3.org/2000/svg" xmlns:xlink="http://www.w3.org/1999/xlink" x="0px" y="0px"
	 width="792px" height="792px" viewBox="0 0 792 792" style="enable-background:new 0 0 792 792;" xml:space="preserve">
<path d="M263.786,0c0,0-165.01,96.039-173.786,101.484v352.882l269.955,157.636c0,0,156.569-91.344,168.236-98.187V154.414
	L263.786,0z M345.776,568.619L119.742,436.641v-298.25l226.035,131.941V568.619z M131.145,110.563L262.844,33.61l229.143,133.856
	l-131.674,76.905L131.145,110.563z M498.412,496.929l-122.894,71.768V269.959l122.931-71.85L498.412,496.929z M397.582,301.087
	c-4.159-7.084-1.79-16.195,5.292-20.355l51.842-30.451c7.078-4.166,16.191-1.794,20.355,5.29c4.159,7.084,1.792,16.195-5.29,20.355
	l-51.844,30.452c-2.6,1.526-5.473,2.173-8.274,2.03C404.831,308.161,400.216,305.568,397.582,301.087z M475.971,314.984
	c4.148,7.09,1.765,16.196-5.319,20.347l-51.889,30.374c-2.602,1.524-5.475,2.167-8.278,2.021c-4.83-0.252-9.442-2.852-12.069-7.339
	c-4.149-7.09-1.769-16.196,5.32-20.347l51.887-30.374C462.706,305.514,471.817,307.896,475.971,314.984z M463.691,470.034
	c-0.917,20.185-10.949,36.125-22.406,35.604c-11.456-0.521-20.001-17.306-19.083-37.49c0.917-20.185,10.948-36.125,22.405-35.604
	S464.608,449.85,463.691,470.034z"/>
<g>
</g>
<g>
</g>
<g>
</g>
<g>
</g>
<g>
</g>
<g>
</g>
<g>
</g>
<g>
</g>
<g>
</g>
<g>
</g>
<g>
</g>
<g>
</g>
<g>
</g>
<g>
</g>
<g>
</g>
</svg>
