<?xml version="1.0" encoding="iso-8859-1"?>
<!-- Generator: Adobe Illustrator 18.0.0, SVG Export Plug-In . SVG Version: 6.00 Build 0)  -->
<!DOCTYPE svg PUBLIC "-//W3C//DTD SVG 1.1//EN" "http://www.w3.org/Graphics/SVG/1.1/DTD/svg11.dtd">
<svg version="1.1" id="Capa_1" xmlns="http://www.w3.org/2000/svg" xmlns:xlink="http://www.w3.org/1999/xlink" x="0px" y="0px"
	 viewBox="0 0 316.434 316.434" style="enable-background:new 0 0 316.434 316.434;" xml:space="preserve">
<g>
	<path d="M170.457,48.316L69.972,107.308v86.48l100.484-58.847V48.316z M155.457,126.493l-70.484,41.008v-51.608l70.484-41.18
		V126.493z"/>
	<path d="M192.393,20.194L157.802,0L21.996,79.298L22.49,206.67l25.649,15.01v29.573l103.587,60.602
		c0.004,0.002,1.447,0.83,1.451,0.832c0.004,0.002,3.597,2.056,6.554,3.747l134.707-79.026v-39.211l-102.049-59.693L192.393,20.194z
		 M48.139,205.008l-10.685-6.452L37.022,95.881c9.635,5.613,6.91,4.026,11.117,6.478V205.008z M44.479,82.865l113.656-66.47
		l11.469,6.739L55.646,89.372C52.425,87.495,54.67,88.804,44.479,82.865z M177.389,35.545v102.949
		c-4.732,2.764-107.013,62.511-114.25,66.738V102.368L177.389,35.545z M152.233,294.856l-89.094-52.295v-12.134
		c56.239,32.416,33.995,20.445,89.094,52.205V294.856z M279.438,228.895l-112.205,65.687v-12.018
		c3.859-2.296,112.205-65.532,112.205-65.532V228.895z M273.55,203.406c0,0-108.33,62.902-113.877,66.201
		c-14.507-8.361-80.087-46.162-89.091-51.352l114.299-66.767L273.55,203.406z"/>
	<path d="M181.624,165.944l-78.297,45.919c-3.555,2.127-4.712,6.732-2.585,10.286c2.128,3.556,6.732,4.711,10.286,2.585
		l78.297-45.919c3.555-2.127,4.712-6.732,2.585-10.286C189.783,164.974,185.177,163.817,181.624,165.944z"/>
	<path d="M126.936,236.621c2.11,3.563,6.71,4.741,10.275,2.631l77.83-45.569c3.563-2.109,4.741-6.711,2.631-10.275
		c-2.11-3.563-6.712-4.74-10.275-2.63l-77.83,45.568C126.003,228.456,124.826,233.057,126.936,236.621z"/>
	<path d="M153.253,251.074c2.085,3.579,6.676,4.79,10.256,2.705l76.656-44.657c3.579-2.085,4.79-6.677,2.705-10.256
		c-2.086-3.579-6.677-4.788-10.256-2.705l-76.656,44.657C152.378,242.903,151.167,247.495,153.253,251.074z"/>
</g>
<g>
</g>
<g>
</g>
<g>
</g>
<g>
</g>
<g>
</g>
<g>
</g>
<g>
</g>
<g>
</g>
<g>
</g>
<g>
</g>
<g>
</g>
<g>
</g>
<g>
</g>
<g>
</g>
<g>
</g>
</svg>
