<?xml version="1.0" encoding="iso-8859-1"?>
<!-- Generator: Adobe Illustrator 18.0.0, SVG Export Plug-In . SVG Version: 6.00 Build 0)  -->
<!DOCTYPE svg PUBLIC "-//W3C//DTD SVG 1.1//EN" "http://www.w3.org/Graphics/SVG/1.1/DTD/svg11.dtd">
<svg version="1.1" id="Capa_1" xmlns="http://www.w3.org/2000/svg" xmlns:xlink="http://www.w3.org/1999/xlink" x="0px" y="0px"
	 viewBox="0 0 307.845 307.845" style="enable-background:new 0 0 307.845 307.845;" xml:space="preserve">
<g>
	<path d="M264.899,33.188L264.931,0L222.46,24.763v28.371l-27.536,15.98l0.065,31.586c0,11.847,5.256,28.418,20.069,36.133
		c6.254,3.257,12.225,5.708,17.869,7.353v41.892l-121.613,71.021v-52.815c6.292-0.76,12.455-2.816,18.052-6.194
		c23.463-14.161,35.865-34.738,35.865-59.507l-0.077-77.968L123.13,36.056V2.317L57.713,40.528v24.447L15.232,89.668v46.816
		c0,40.271,23.466,65.106,66.083,69.994v101.366l181.613-105.737v-56.713c2.036-0.73,4.012-1.684,5.887-2.863
		c14.77-9.293,23.588-25.26,23.588-42.711l0.21-50.398L264.899,33.188z M97.921,33.604l5.209-2.922v28.037l-5.209,3.043V33.604z
		 M77.713,45.482l5.208-2.922v27.853l-5.208,3.035V45.482z M57.713,81.613l-0.221,20.431l65.638-38.491V52.14l20.71,12.105
		l-77.263,45.07L38.314,92.902L57.713,81.613z M30.232,136.484v-32.353l30,17.567v37.495c0,11.43,4.374,22.279,11.906,30.538
		C44.325,183.332,30.232,165.469,30.232,136.484z M90.818,185.695c-9.613-5.427-15.586-15.582-15.586-26.501v-38.216l75-43.758
		v61.361c0,19.504-9.628,35.204-28.617,46.665C112.198,190.93,100.398,191.102,90.818,185.695z M237.46,32.758l12.471-7.287v22.428
		l-12.471,7.308V32.758z M222.732,69.054l-0.048,6.909l-5.914-3.494L222.732,69.054z M221.987,123.528
		c-11.66-6.072-11.997-21.131-11.997-22.828V85.885l12.471,7.369v23.678c0,2.489,0.321,4.93,0.906,7.284
		C222.905,123.984,222.454,123.771,221.987,123.528z M230.395,80.458l-3.881-2.231l38.413-22.475l-0.053-5.273l8.493,4.966
		L230.395,80.458z M277.403,99.82c0,12.264-6.196,23.484-16.576,30.016c-4.696,2.956-10.633,3.125-15.491,0.441
		c-4.857-2.683-7.875-7.796-7.875-13.346V93.064l39.942-23.278V99.82z"/>
</g>
<g>
</g>
<g>
</g>
<g>
</g>
<g>
</g>
<g>
</g>
<g>
</g>
<g>
</g>
<g>
</g>
<g>
</g>
<g>
</g>
<g>
</g>
<g>
</g>
<g>
</g>
<g>
</g>
<g>
</g>
</svg>
