<?xml version="1.0" encoding="iso-8859-1"?>
<!-- Generator: Adobe Illustrator 18.0.0, SVG Export Plug-In . SVG Version: 6.00 Build 0)  -->
<!DOCTYPE svg PUBLIC "-//W3C//DTD SVG 1.1//EN" "http://www.w3.org/Graphics/SVG/1.1/DTD/svg11.dtd">
<svg version="1.1" id="Capa_1" xmlns="http://www.w3.org/2000/svg" xmlns:xlink="http://www.w3.org/1999/xlink" x="0px" y="0px"
	 viewBox="0 0 312.357 312.357" style="enable-background:new 0 0 312.357 312.357;" xml:space="preserve">
<g>
	<path d="M191.347,0l-70.577,39.587v34.3l-47.591,27.819v51.6c0,51.347,39.604,75.927,74.442,77.219v66.833c0,8.284,6.716,15,15,15
		c8.284,0,15-6.716,15-15c0.002-64-0.035-69.223-0.035-69.223c7.567-0.594,15.023-2.905,21.733-6.955
		c26.076-15.738,39.859-38.401,39.859-65.538l-0.467-88.714l-47.365-24.49V0z M163.559,37.991l7.788-4.5v34.646l-7.788,4.555V37.991
		z M140.769,51.3l7.789-4.369v34.518l-7.789,4.556V51.3z M120.769,90.661l0.075,27.05l-22.876-13.478L120.769,90.661z
		 M88.179,153.306l0.035-38.515l35.965,20.989v42.815c0,13.58,5.511,26.371,14.894,35.591
		C105.299,207.708,88.179,187.271,88.179,153.306z M224.179,155.642c0,21.906-10.972,39.636-32.611,52.696
		c-10.666,6.438-24.029,6.632-34.876,0.511c-10.802-6.098-17.513-17.689-17.513-30.253v-42.352l84.884-49.509L224.179,155.642z
		 M217.429,73.063l-86.443,50.354l-8.834-4.941L191.347,77.9V59.339L217.429,73.063z"/>
</g>
<g>
</g>
<g>
</g>
<g>
</g>
<g>
</g>
<g>
</g>
<g>
</g>
<g>
</g>
<g>
</g>
<g>
</g>
<g>
</g>
<g>
</g>
<g>
</g>
<g>
</g>
<g>
</g>
<g>
</g>
</svg>
