<?xml version="1.0" encoding="iso-8859-1"?>
<!-- Generator: Adobe Illustrator 18.0.0, SVG Export Plug-In . SVG Version: 6.00 Build 0)  -->
<!DOCTYPE svg PUBLIC "-//W3C//DTD SVG 1.1//EN" "http://www.w3.org/Graphics/SVG/1.1/DTD/svg11.dtd">
<svg version="1.1" id="Capa_1" xmlns="http://www.w3.org/2000/svg" xmlns:xlink="http://www.w3.org/1999/xlink" x="0px" y="0px"
	 viewBox="0 0 303.562 303.562" style="enable-background:new 0 0 303.562 303.562;" xml:space="preserve">
<g>
	<path d="M239.512,33.753L181.724,0L64.135,68.631l-0.086,213.848l35.966,21.083l139.495-81.639L239.512,33.753z M92.44,223.771
		l-0.008,57.982l-13.379-7.858l0.09-188.002l13.313,7.817L92.44,223.771z M86.505,72.82l95.154-55.424l13.371,7.921l-95.06,55.409
		L86.505,72.82z M224.51,213.317L107.432,281.78l0.008-58.003l0.018-130.052l102.406-59.691l14.649,8.405L224.51,213.317z"/>
	<path d="M119.949,262.548l93.832-54.951V93.714l-93.832,54.883V262.548z M158.439,143.46l5.959-3.484v9.726l-5.959,3.489V143.46z
		 M158.439,170.572l29.734-17.409c3.575-2.094,4.776-6.688,2.684-10.262c-2.093-3.575-6.688-4.777-10.262-2.684l-1.197,0.701v-9.718
		l19.383-11.337v79.135l-19.383,11.351v-7.632l9.547-5.426c3.601-2.047,4.861-6.625,2.814-10.227
		c-2.046-3.6-6.624-4.86-10.226-2.814l-23.094,13.125V170.572z M158.439,214.629l5.959-3.387v7.892l-5.959,3.49V214.629z
		 M134.949,157.2l8.49-4.966v9.738v61.181v8.255l-8.49,4.972V157.2z"/>
</g>
<g>
</g>
<g>
</g>
<g>
</g>
<g>
</g>
<g>
</g>
<g>
</g>
<g>
</g>
<g>
</g>
<g>
</g>
<g>
</g>
<g>
</g>
<g>
</g>
<g>
</g>
<g>
</g>
<g>
</g>
</svg>
