<?xml version="1.0" encoding="iso-8859-1"?>
<!-- Generator: Adobe Illustrator 18.0.0, SVG Export Plug-In . SVG Version: 6.00 Build 0)  -->
<!DOCTYPE svg PUBLIC "-//W3C//DTD SVG 1.1//EN" "http://www.w3.org/Graphics/SVG/1.1/DTD/svg11.dtd">
<svg version="1.1" id="Capa_1" xmlns="http://www.w3.org/2000/svg" xmlns:xlink="http://www.w3.org/1999/xlink" x="0px" y="0px"
	 viewBox="0 0 286.629 286.629" style="enable-background:new 0 0 286.629 286.629;" xml:space="preserve">
<g>
	<polygon points="189.762,146.357 166.765,132.748 166.763,165.164 189.762,178.759 	"/>
	<g>
		<path d="M225.03,100.653V45.452c0-15.128-7.524-28.344-20.129-35.353c-1.715-0.953-3.481-1.753-5.28-2.426
			c-1.369-1.02-2.813-1.961-4.334-2.807c-12.551-6.978-27.673-6.424-40.477,1.479l-49.87,28.691
			c-0.073,0.042-0.146,0.086-0.217,0.13c-23.979,14.896-38.296,40.642-38.296,68.87v50.361l-23.62,13.849v82.941l60.228,35.439
			l39.201-22.805v-83.281L91.04,150.739v-41.47c0-22.966,11.625-43.914,31.105-56.061l49.862-28.688
			c0.073-0.042,0.145-0.086,0.217-0.13c6.36-3.951,13.544-5.07,20.087-3.314c5.142,4.648,8.104,11.482,8.104,19.145v46.203
			l-19.479-11.191l-36.538,23.689l-0.004,82.604l60.258,35.694l39.171-22.875v-82.757L225.03,100.653z M66.426,171.72v1.482
			l-1.267-0.75L66.426,171.72z M95.543,264.807l-37.737-22.183v-57.096l8.62,5.108v34.479l24.614,14.008v-33.902l4.503,2.669
			V264.807z M127.235,197.971v57.196l-16.691,9.709v-56.989l12.83-7.622L127.235,197.971z M119.927,184.864l-16.889,10.033
			l-11.998-7.11v-19.701L119.927,184.864z M197.131,195.359l-37.737-22.306l0.004-56.899l37.733,22.33V195.359z M166.122,102.704
			l15.294-9.938l39.934,23.086l-16.679,9.664L166.122,102.704z M228.823,185.67l-16.691,9.761v-56.9l16.691-9.672V185.67z"/>
	</g>
</g>
<g>
</g>
<g>
</g>
<g>
</g>
<g>
</g>
<g>
</g>
<g>
</g>
<g>
</g>
<g>
</g>
<g>
</g>
<g>
</g>
<g>
</g>
<g>
</g>
<g>
</g>
<g>
</g>
<g>
</g>
</svg>
