<?xml version="1.0" encoding="iso-8859-1"?>
<!-- Generator: Adobe Illustrator 18.0.0, SVG Export Plug-In . SVG Version: 6.00 Build 0)  -->
<!DOCTYPE svg PUBLIC "-//W3C//DTD SVG 1.1//EN" "http://www.w3.org/Graphics/SVG/1.1/DTD/svg11.dtd">
<svg version="1.1" id="Capa_1" xmlns="http://www.w3.org/2000/svg" xmlns:xlink="http://www.w3.org/1999/xlink" x="0px" y="0px"
	 viewBox="0 0 302.021 302.021" style="enable-background:new 0 0 302.021 302.021;" xml:space="preserve">
<g>
	<g>
		<path d="M54.334,94.491v187.136l34.218,20.394l159.135-93.784l-0.029-189.959L215.762,0L54.334,94.491z M80.986,279.164
			l-11.652-6.891V112.103l11.652,7.091V279.164z M74.783,99.19l36.443-21.265l14.358,8.066l-36.863,21.259L74.783,99.19z
			 M232.687,200.231l-36.226,21.362v-15.668l-65.2,38.231v15.141l-35.172,20.343V123.673l35.849-21.087v14.838l64.523-37.855V65.322
			l36.226-21.029V200.231z M230.13,25.502l-40.639,23.603l-14.406-8.525l40.286-23.704L230.13,25.502z"/>
	</g>
	<path d="M131.261,227.439l65.2-38.179V97.438l-65.2,38.782V227.439z M146.261,144.214l35.2-20.471v57.751l-35.2,20.627V144.214z"/>
	<polygon points="203.521,201.919 225.115,189.461 225.115,164.188 203.521,176.785 	"/>
	<polygon points="103.021,260.506 124.616,248.047 124.616,222.737 103.021,235.335 	"/>
	<polygon points="203.521,160.627 225.115,148.169 225.115,122.896 203.521,135.493 	"/>
	<polygon points="103.021,219.214 124.616,206.755 124.616,181.445 103.021,194.043 	"/>
	<polygon points="203.521,119.521 225.115,107.063 225.115,81.79 203.521,94.387 	"/>
	<polygon points="103.021,178.107 124.616,165.648 124.616,140.339 103.021,152.936 	"/>
	<polygon points="203.521,77.964 225.115,65.506 225.115,48.408 203.521,60.896 	"/>
	<polygon points="103.021,136.551 124.616,124.092 124.616,106.846 103.021,119.444 	"/>
</g>
<g>
</g>
<g>
</g>
<g>
</g>
<g>
</g>
<g>
</g>
<g>
</g>
<g>
</g>
<g>
</g>
<g>
</g>
<g>
</g>
<g>
</g>
<g>
</g>
<g>
</g>
<g>
</g>
<g>
</g>
</svg>
