<?xml version="1.0" encoding="iso-8859-1"?>
<!-- Generator: Adobe Illustrator 18.0.0, SVG Export Plug-In . SVG Version: 6.00 Build 0)  -->
<!DOCTYPE svg PUBLIC "-//W3C//DTD SVG 1.1//EN" "http://www.w3.org/Graphics/SVG/1.1/DTD/svg11.dtd">
<svg version="1.1" id="Capa_1" xmlns="http://www.w3.org/2000/svg" xmlns:xlink="http://www.w3.org/1999/xlink" x="0px" y="0px"
	 viewBox="0 0 316.863 316.863" style="enable-background:new 0 0 316.863 316.863;" xml:space="preserve">
<g>
	<path d="M192.868,26.708l-0.046,23.781l-1.249-0.598l-45.698,26.722l-0.053,26.389l-2.404-1.259l-45.652,26.647l0.057,29.321
		l-4.763-2.79l-45.513,26.592v117.82l30.061,17.529l191.709-112.381l-0.305-186.777L238.63,0L192.868,26.708z M69.944,296.26
		l-7.397-4.233v-92.804l7.397,4.354V296.26z M68.936,185.697l23.903-13.983l8.786,5.114l-23.914,13.985L68.936,185.697z
		 M85.242,295.662v-91.867l23.659-13.822l0.13,91.8L85.242,295.662z M120.22,170.78l-7.397-4.326v-20.336l7.397,4.384V170.78z
		 M127.986,137.709l-8.753-5.086l23.771-14.005l8.869,5.112L127.986,137.709z M135.518,266.291V150.689l23.655-13.83l0.135,115.507
		L135.518,266.291z M168.22,115.322l-7.397-4.359V94.41l7.397,4.285V115.322z M176.521,86.034l-9.176-5.394l23.947-13.885
		l9.137,5.313L176.521,86.034z M183.518,238.216V98.689l23.653-13.879l0.138,139.48L183.518,238.216z M215.22,62.734l-7.397-4.302
		V44.42l7.397,4.275V62.734z M254.309,196.834l-23.791,13.922V48.689l23.652-13.798L254.309,196.834z M246.915,21.703
		l-23.929,14.006l-8.743-5.104l23.834-14.002L246.915,21.703z"/>
</g>
<g>
</g>
<g>
</g>
<g>
</g>
<g>
</g>
<g>
</g>
<g>
</g>
<g>
</g>
<g>
</g>
<g>
</g>
<g>
</g>
<g>
</g>
<g>
</g>
<g>
</g>
<g>
</g>
<g>
</g>
</svg>
