<?xml version="1.0" encoding="iso-8859-1"?>
<!-- Generator: Adobe Illustrator 18.0.0, SVG Export Plug-In . SVG Version: 6.00 Build 0)  -->
<!DOCTYPE svg PUBLIC "-//W3C//DTD SVG 1.1//EN" "http://www.w3.org/Graphics/SVG/1.1/DTD/svg11.dtd">
<svg version="1.1" id="Capa_1" xmlns="http://www.w3.org/2000/svg" xmlns:xlink="http://www.w3.org/1999/xlink" x="0px" y="0px"
	 viewBox="0 0 299.163 299.163" style="enable-background:new 0 0 299.163 299.163;" xml:space="preserve">
<g>
	<path d="M265.99,172.441l-0.143-46.723l-22.182-12.244l-0.058-95.682L213.74,0l-42.193,25.263c-0.16,0.076-0.323,0.142-0.479,0.23
		c-2.351,1.332-3.804,3.824-3.804,6.526v2.25l-13.829-8.524L106.83,53.748v17.778l-14.3-8.912l-46.752,28.04v87.271l-12.605,7.754
		v46.742l12.605,7.788v40.305l30.282,18.648l46.204-28.692l-0.007-17.466l14.747,9.227l46.315-28.729l-0.001-6.077l14.35,9.103
		l46.078-28.842l-0.012-21.789L265.99,172.441z M250.887,143.478l0.132,20.47l-45.991,27.86l0.023-11.373l0.02-9.467
		L250.887,143.478z M228.668,116.282l-23.851,14.393l0.041-80.819l23.751-14.357L228.668,116.282z M213.804,17.482l7.758,4.694
		l-24.216,14.638l-7.931-4.756L213.804,17.482z M189.858,49.873l-0.015,27.809l-6.62-3.713l-0.059-25.867
		c0-0.091-0.015-0.181-0.019-0.271c-0.009-0.238-0.018-0.476-0.049-0.709c-0.017-0.124-0.05-0.244-0.072-0.367
		c-0.037-0.198-0.069-0.398-0.121-0.591c-0.036-0.131-0.087-0.257-0.129-0.385c-0.021-0.065-0.046-0.129-0.067-0.194L189.858,49.873
		z M168.194,61.397l0.032,14.289l-23.829,14.38l0.005-2.833l0.018-11.463l19.861-12.007L168.194,61.397z M153.37,43.393l7.803,4.722
		L136.91,62.781l-7.978-4.784L153.37,43.393z M121.83,71.229l7.589,4.551l-0.016,10.676l-0.006,3.597l-7.283-4.421l-0.001-0.636
		c0-0.063-0.011-0.124-0.013-0.186c-0.007-0.269-0.02-0.535-0.054-0.798c-0.017-0.122-0.049-0.239-0.071-0.359
		c-0.036-0.201-0.069-0.403-0.122-0.6c-0.006-0.023-0.016-0.046-0.023-0.069V71.229z M107.125,98.293l0.056,61.843l-23.848,14.392
		l0.038-61.875l20.819-12.585L107.125,98.293z M92.318,80.276l7.804,4.723L75.858,99.666l-7.979-4.784L92.318,80.276z
		 M60.778,108.114l7.593,4.553l-0.038,61.831l-7.555-4.585V108.114z M68.176,276.564l-7.397-4.576v-22.56l7.397,4.546V276.564z
		 M68.565,224.445l-0.023,12.148l-20.369-12.518v-20.83l20.41,12.517L68.565,224.445z M55.025,189.852l4.825-2.955l16.019,9.736
		l40.364-24.441l5.64,3.162l-45.74,27.442L55.025,189.852z M83.474,276.727v-22.487l23.406-14.18
		c0.06,0.567,0.188,1.118,0.369,1.649l0.017,20.299L83.474,276.727z M129.228,239.679l-6.984-4.32l-0.003-4.604l6.987-4.233V239.679
		z M129.525,208.803L83.542,236.66l0.041-20.84l45.818-27.49l0.124,19.447V208.803z M122.151,126.862l6.642,4.073l-0.026,13.082
		l-0.016,7.749l-6.581-4.045L122.151,126.862z M136.345,117.97l-14.21-8.713l-0.005-6.068l14.761,9.012l40.311-24.41l4.882,2.737
		L136.345,117.97z M143.774,140.509l0.02-9.515l45.816-27.49l0.131,20.469l-45.99,27.86L143.774,140.509z M144.525,239.842v-26.309
		c0.014-0.19,0.035-0.38,0.034-0.573l-0.034-5.275v-38.783l23.764-14.395l0.029,70.616L144.525,239.842z M189.662,213.711
		l-6.35-3.928l-0.002-4.564l6.352,3.903V213.711z M190.042,184.482l-0.004,1.683c-0.046,0.337-0.078,0.679-0.078,1.028v4.506
		l-6.656-4.091l-0.009-20.854l6.774,4.154L190.042,184.482z M197.62,157.944l-13.707-8.406l-0.626-0.384l-0.001-3.733l0.984-0.596
		l13.129,7.955l41.18-24.96l4.78,2.681L197.62,157.944z M204.96,213.874v-4.488l23.785-14.408l0.005,4.179L204.96,213.874z"/>
</g>
<g>
</g>
<g>
</g>
<g>
</g>
<g>
</g>
<g>
</g>
<g>
</g>
<g>
</g>
<g>
</g>
<g>
</g>
<g>
</g>
<g>
</g>
<g>
</g>
<g>
</g>
<g>
</g>
<g>
</g>
</svg>
