<?xml version="1.0" encoding="iso-8859-1"?>
<!-- Generator: Adobe Illustrator 18.0.0, SVG Export Plug-In . SVG Version: 6.00 Build 0)  -->
<!DOCTYPE svg PUBLIC "-//W3C//DTD SVG 1.1//EN" "http://www.w3.org/Graphics/SVG/1.1/DTD/svg11.dtd">
<svg version="1.1" id="Capa_1" xmlns="http://www.w3.org/2000/svg" xmlns:xlink="http://www.w3.org/1999/xlink" x="0px" y="0px"
	 viewBox="0 0 300.722 300.722" style="enable-background:new 0 0 300.722 300.722;" xml:space="preserve">
<g>
	<path d="M219.379,0L46.789,101.043l-0.071,178.391l37.046,21.288l168.945-99.403l1.295-181.543L219.379,0z M75.873,279.069
		l-14.155-8.254V118.821l14.322,8.32L75.873,279.069z M69.206,104.592l150.699-88.155l17.362,10.311L86.79,114.859L69.206,104.592z
		 M226.674,51.709l-59.001,112.066l-71.664-37.321L226.674,51.709z M90.873,138.591l51.526,26.735l-51.526,98.989V138.591z
		 M105.311,269.285l49.984-97.096l18.002,8.663l8.307-16.107l53.499,27.597L105.311,269.285z M188.501,151.414l50.191-97.121
		l-0.739,122.378L188.501,151.414z"/>
</g>
<g>
</g>
<g>
</g>
<g>
</g>
<g>
</g>
<g>
</g>
<g>
</g>
<g>
</g>
<g>
</g>
<g>
</g>
<g>
</g>
<g>
</g>
<g>
</g>
<g>
</g>
<g>
</g>
<g>
</g>
</svg>
