<?xml version="1.0" encoding="iso-8859-1"?>
<!-- Generator: Adobe Illustrator 18.0.0, SVG Export Plug-In . SVG Version: 6.00 Build 0)  -->
<!DOCTYPE svg PUBLIC "-//W3C//DTD SVG 1.1//EN" "http://www.w3.org/Graphics/SVG/1.1/DTD/svg11.dtd">
<svg version="1.1" id="Capa_1" xmlns="http://www.w3.org/2000/svg" xmlns:xlink="http://www.w3.org/1999/xlink" x="0px" y="0px"
	 viewBox="0 0 297.764 297.764" style="enable-background:new 0 0 297.764 297.764;" xml:space="preserve">
<g>
	<path d="M65.258,231.867l121.254-71.023V55.053L65.258,126.426V231.867z M81.344,135.34l89.082-52.039v68.638l-89.082,52.498
		V135.34z"/>
	<path d="M263.135,217.472c-12.56-6.842-26.011-7.276-34.999-2.054l-39.697-22.865l-36.554,21.52v-3.816l59-36.605L210.804,17.8
		L180.616,0L13.885,97.681v156.564l30.15,17.564l12.564-7.817l56.673,33.772l89.961-52.685l-37.099-22.365l22.473-13.207
		l30.157,17.688c-4.031,13.829,6.757,28.063,19.892,35.217c17.118,9.326,35.911,6.762,42.773-5.838
		C288.41,243.764,279.895,226.6,263.135,217.472z M40.885,253.474l-12-6.973V114.156l12,7.079V253.474z M36.21,101.515
		L181.26,16.381l12.195,7.193L47.838,108.339L36.21,101.515z M55.885,248.631V120.465l140-81.919v128.156L55.885,248.631z
		 M136.885,239.495l-9,5.221v-21.895l8.921-5.424L136.885,239.495z M112.885,231.587v15.501l-13.325-7.702L112.885,231.587z
		 M174.832,244.716l-61.146,36.163l-42.411-25.27l13.988-8.151l33.514,19.349l33.109-19.509v-16.712L174.832,244.716z
		 M268.258,249.398c-2.391,4.389-12.488,5.253-22.428-0.158c-9.95-5.421-14.673-14.392-12.297-18.755
		c2.391-4.389,12.484-5.255,22.428,0.158C265.912,236.064,270.634,245.035,268.258,249.398z"/>
</g>
<g>
</g>
<g>
</g>
<g>
</g>
<g>
</g>
<g>
</g>
<g>
</g>
<g>
</g>
<g>
</g>
<g>
</g>
<g>
</g>
<g>
</g>
<g>
</g>
<g>
</g>
<g>
</g>
<g>
</g>
</svg>
