<?xml version="1.0" encoding="iso-8859-1"?>
<!-- Generator: Adobe Illustrator 18.0.0, SVG Export Plug-In . SVG Version: 6.00 Build 0)  -->
<!DOCTYPE svg PUBLIC "-//W3C//DTD SVG 1.1//EN" "http://www.w3.org/Graphics/SVG/1.1/DTD/svg11.dtd">
<svg version="1.1" id="Capa_1" xmlns="http://www.w3.org/2000/svg" xmlns:xlink="http://www.w3.org/1999/xlink" x="0px" y="0px"
	 viewBox="0 0 295.877 295.877" style="enable-background:new 0 0 295.877 295.877;" xml:space="preserve">
<g>
	<path d="M100.812,235.304l121.253-70.861V57.059L100.812,127.92V235.304z M116.897,136.834l89.082-52.053l0.017,69.37l-89.099,52.1
		V136.834z"/>
	<path d="M246.439,179.771V16.902L217.483,0L49.438,98.056v158.483l32.784,19.143l13.522-7.901l48.097,28.096l91.688-53.586
		l-48.07-28.066L246.439,179.771z M76.457,254.439l-12.019-7.019V114.774l12,7.005L76.457,254.439z M71.763,101.684l145.444-84.947
		l11.646,6.802L83.406,108.48L71.763,101.684z M206.205,241.87l-62.327,36.421l-33.06-19.313l15.011-8.767l27.848,16.247
		l33.782-19.73l-0.02-15.811L206.205,241.87z M140.738,241.504l7.7-4.496l-0.016,8.983L140.738,241.504z M163.439,244.885v-16.637
		l9-5.256l-0.004,16.618L163.439,244.885z M91.438,252.307v-131.15l139.999-81.766l-0.034,131.183L91.438,252.307z"/>
</g>
<g>
</g>
<g>
</g>
<g>
</g>
<g>
</g>
<g>
</g>
<g>
</g>
<g>
</g>
<g>
</g>
<g>
</g>
<g>
</g>
<g>
</g>
<g>
</g>
<g>
</g>
<g>
</g>
<g>
</g>
</svg>
