<?xml version="1.0" encoding="iso-8859-1"?>
<!-- Generator: Adobe Illustrator 18.0.0, SVG Export Plug-In . SVG Version: 6.00 Build 0)  -->
<!DOCTYPE svg PUBLIC "-//W3C//DTD SVG 1.1//EN" "http://www.w3.org/Graphics/SVG/1.1/DTD/svg11.dtd">
<svg version="1.1" id="Capa_1" xmlns="http://www.w3.org/2000/svg" xmlns:xlink="http://www.w3.org/1999/xlink" x="0px" y="0px"
	 viewBox="0 0 275.218 275.218" style="enable-background:new 0 0 275.218 275.218;" xml:space="preserve">
<g>
	<path d="M213.635,41.89c-13.756-24.101-35.28-43.751-62.776-41.745C140.461,0.049,134.888,0,120.609,0
		C97.964,0,77.001,14.877,61.583,41.89c-14.663,25.689-22.738,59.683-22.738,95.719c0,36.036,8.075,70.03,22.738,95.719
		c15.419,27.014,36.382,41.891,59.026,41.891c14.644,0,20.35-0.037,30.802-0.109c27.257,1.703,48.567-17.852,62.225-41.78
		c14.663-25.689,22.738-59.683,22.738-95.72S228.298,67.578,213.635,41.89z M116.802,15.212
		c-14.53,12.606-24.799,30.907-31.486,48.856H67.419C76.541,42.153,93.285,17.731,116.802,15.212z M72.921,143.118H53.92
		c-0.097-3.938-0.159-8.707,0.189-16.094h18.991C72.755,134.838,72.832,139.179,72.921,143.118z M74.535,109.51H55.648
		c1.462-11.293,3.801-22.106,6.965-32.188h18.361C78.055,87.522,75.889,98.317,74.535,109.51z M74.61,225.892
		c-6.306-11.048-11.258-23.86-14.754-37.806h18.579c3.854,16.698,9.628,32.067,17.147,45.242
		c6.248,10.946,13.407,19.899,21.219,26.678C101.158,258.33,86.299,246.372,74.61,225.892z M200.609,225.893
		c-11.572,20.274-25.806,34.067-48.762,34.212c-16.026-1.243-31.287-13.275-43.237-34.212
		c-13.391-23.461-20.766-54.813-20.766-88.284c0-33.47,7.375-64.823,20.766-88.283c11.828-20.721,26.899-32.726,42.745-34.175
		c0.046,0,0.089,0.001,0.135,0.001c15.905,0.146,32.474,5.014,49.119,34.174c13.391,23.46,20.765,54.813,20.765,88.283
		S213.999,202.432,200.609,225.893z"/>
	<path d="M154.609,90.8c-16.163,0-28.352,20.123-28.352,46.809c0,26.686,12.188,46.809,28.352,46.809
		c16.164,0,28.353-20.124,28.353-46.809C182.961,110.923,170.773,90.8,154.609,90.8z M154.609,169.418
		c-5.444,0-13.352-12.392-13.352-31.809c0-19.417,7.907-31.809,13.352-31.809c5.444,0,13.353,12.392,13.353,31.809
		C167.961,157.026,160.053,169.418,154.609,169.418z"/>
	<ellipse cx="154.609" cy="137.609" rx="6.255" ry="18.83"/>
	<path d="M154.609,230.184c-12.953,0-26.085-14.592-34.271-38.08c-1.363-3.912-5.641-5.983-9.55-4.614
		c-3.912,1.363-5.978,5.639-4.614,9.55c10.663,30.597,28.316,48.145,48.436,48.145c4.143,0,7.5-3.357,7.5-7.5
		C162.109,233.541,158.751,230.184,154.609,230.184z"/>
	<path d="M154.609,32.083c-4.143,0-7.5,3.357-7.5,7.5s3.357,7.5,7.5,7.5c20.577,0,41.035,38.754,41.035,90.525
		c0,4.143,3.357,7.5,7.5,7.5c4.143,0,7.5-3.357,7.5-7.5C210.644,78.436,186.031,32.083,154.609,32.083z"/>
</g>
<g>
</g>
<g>
</g>
<g>
</g>
<g>
</g>
<g>
</g>
<g>
</g>
<g>
</g>
<g>
</g>
<g>
</g>
<g>
</g>
<g>
</g>
<g>
</g>
<g>
</g>
<g>
</g>
<g>
</g>
</svg>
