<?xml version="1.0" encoding="iso-8859-1"?>
<!-- Generator: Adobe Illustrator 16.0.0, SVG Export Plug-In . SVG Version: 6.00 Build 0)  -->
<!DOCTYPE svg PUBLIC "-//W3C//DTD SVG 1.1//EN" "http://www.w3.org/Graphics/SVG/1.1/DTD/svg11.dtd">
<svg version="1.1" id="Layer_1" xmlns="http://www.w3.org/2000/svg" xmlns:xlink="http://www.w3.org/1999/xlink" x="0px" y="0px"
	 width="792px" height="792px" viewBox="0 0 792 792" style="enable-background:new 0 0 792 792;" xml:space="preserve">
<path d="M619.417,38.989L553.078,0L90.348,267.107v0.021l-0.062,0.037L90,571.895l68.145,39.991l0.088-0.052l0.286,0.168
	l461.168-269.424L619.417,38.989z M143.183,567.478h-0.002l-22.485-13.164l0.289-251.53l22.199,13.054V567.478z M158.316,288.934
	l-22.082-12.877L552.951,35.492l20.645,12.115L158.316,288.934z M173.857,567.199V315.63L588.703,74.319l0.288,250.649
	L173.857,567.199z M266.436,484.193l246.256-143.338V147.022L266.436,289.57V484.193z M299.333,308.538l180.463-104.463v117.866
	L299.333,426.98V308.538z M236.869,395.632l19.076-11.116v34.481l-19.076,11.088v29.322l-33.344,20.697v-30.637l-18.645,10.841
	l0.197-34.483l18.448-10.755v-29.829l33.344-20.697V395.632z M557.49,237.186c-0.59,13.861-7.381,24.83-15.168,24.499
	c-7.787-0.331-13.622-11.837-13.032-25.698c0.59-13.862,7.381-24.83,15.168-24.499S558.08,223.324,557.49,237.186z M576.939,186.985
	c-0.59,13.862-7.382,24.83-15.17,24.499c-7.789-0.332-13.625-11.837-13.035-25.699s7.382-24.83,15.17-24.499
	C571.693,161.618,577.528,173.124,576.939,186.985z"/>
<g>
</g>
<g>
</g>
<g>
</g>
<g>
</g>
<g>
</g>
<g>
</g>
<g>
</g>
<g>
</g>
<g>
</g>
<g>
</g>
<g>
</g>
<g>
</g>
<g>
</g>
<g>
</g>
<g>
</g>
</svg>
