<?xml version="1.0" encoding="iso-8859-1"?>
<!-- Generator: Adobe Illustrator 18.0.0, SVG Export Plug-In . SVG Version: 6.00 Build 0)  -->
<!DOCTYPE svg PUBLIC "-//W3C//DTD SVG 1.1//EN" "http://www.w3.org/Graphics/SVG/1.1/DTD/svg11.dtd">
<svg version="1.1" id="Capa_1" xmlns="http://www.w3.org/2000/svg" xmlns:xlink="http://www.w3.org/1999/xlink" x="0px" y="0px"
	 viewBox="0 0 298.333 298.333" style="enable-background:new 0 0 298.333 298.333;" xml:space="preserve">
<g>
	<g>
		<path d="M0,169.654V257.5l39.434,23.021l111.14-64.957c1.087,4.77,3.085,9.154,6.013,13.014
			c7.106,9.366,18.609,14.362,32.789,14.362c1.948,0,3.947-0.094,5.991-0.284c15.625-1.454,32.377-8.436,47.17-19.657
			c3.011-2.283,5.864-4.697,8.564-7.21l23.46,13.808c1.194,0.703,2.504,1.037,3.797,1.037c2.569,0,5.072-1.322,6.471-3.697
			c2.101-3.569,0.91-8.166-2.66-10.268l-20.618-12.134c5.479-6.889,9.784-14.223,12.634-21.662
			c5.62-14.673,5.09-28.259-1.402-38.646l25.553-14.916V41.34L257.79,17.811L0,169.654z M226.553,53.584L244.481,64.1
			l-17.282,10.072l-17.906-10.438L226.553,53.584z M252.083,77.031v52.13c-5.207-1.485-10.94-2.071-17-1.771V86.939L252.083,77.031z
			 M194.467,72.454l17.839,10.397l-15.569,9.073l-17.871-10.296L194.467,72.454z M220.083,95.682v22.605l-15.5-10.955v-2.617
			L220.083,95.682z M163.996,90.375l17.802,10.256l-16.714,9.741L147.46,100.1L163.996,90.375z M31.833,258.741L15,248.896V186.79
			l10.451,6.116l6.382,3.734V258.741z M39.341,183.654l-8.96-5.242l-8.059-4.717l16.281-9.575l17.138,9.976L39.341,183.654z
			 M63.231,249.182l-16.398,9.572V196.65l16.398-9.558V249.182z M53.434,155.398l16.645-9.789l17.327,10.033l-16.765,9.771
			L53.434,155.398z M94.833,230.734l-16.602,9.69v-62.073l16.602-9.676V230.734z M84.928,136.876l15.813-9.3l17.394,10.158
			l-15.811,9.214L84.928,136.876z M125.583,212.783l-15.75,9.194v-62.044l15.75-9.179V212.783z M115.56,118.86l17.072-10.041
			l17.558,10.233l-17.169,10.005L115.56,118.86z M153.48,187.436c-0.898,2.343-1.619,4.654-2.204,6.935l-7.693-4.566v-22.562
			l6.249,3.663l9.082,5.322C156.755,179.908,154.928,183.658,153.48,187.436z M150.943,154.17l51.463-30.008l10.912,7.713
			c-9.436,3.34-19.043,8.494-28.192,15.435c-6.612,5.016-12.508,10.64-17.515,16.631L150.943,154.17z M260.175,177.508
			c-2.533,6.615-6.533,13.179-11.695,19.335l-30.844-18.152c-3.568-2.102-8.166-0.911-10.268,2.66
			c-2.101,3.569-0.91,8.166,2.66,10.268l27.49,16.179c-1.313,1.109-2.657,2.196-4.048,3.251
			c-12.593,9.554-26.619,15.475-39.494,16.673c-11.575,1.071-20.608-1.839-25.439-8.208c-4.832-6.371-5.205-15.857-1.048-26.712
			c4.624-12.076,14.106-23.987,26.701-33.54c14.575-11.056,30.976-16.913,44.127-16.913c9.003,0,16.483,2.746,20.81,8.449
			C263.959,157.168,264.331,166.654,260.175,177.508z M283.333,120.697l-16.25,9.486V68.29l16.25-9.471V120.697z M275.942,45.765
			l-16.588,9.667l-17.996-10.555l16.463-9.683L275.942,45.765z"/>
	</g>
</g>
<g>
</g>
<g>
</g>
<g>
</g>
<g>
</g>
<g>
</g>
<g>
</g>
<g>
</g>
<g>
</g>
<g>
</g>
<g>
</g>
<g>
</g>
<g>
</g>
<g>
</g>
<g>
</g>
<g>
</g>
</svg>
