<?xml version="1.0" encoding="iso-8859-1"?>
<!-- Generator: Adobe Illustrator 18.0.0, SVG Export Plug-In . SVG Version: 6.00 Build 0)  -->
<!DOCTYPE svg PUBLIC "-//W3C//DTD SVG 1.1//EN" "http://www.w3.org/Graphics/SVG/1.1/DTD/svg11.dtd">
<svg version="1.1" id="Capa_1" xmlns="http://www.w3.org/2000/svg" xmlns:xlink="http://www.w3.org/1999/xlink" x="0px" y="0px"
	 viewBox="0 0 313.433 313.433" style="enable-background:new 0 0 313.433 313.433;" xml:space="preserve">
<g>
	<path d="M190.967,0l-66.5,38.704v51.811l-26.626,16.653L97.758,293.66l33.759,19.773l84.158-49.142V72.596l-24.708-14.47V0z
		 M165.217,31.428l10.75-6.215v46.679l-10.75,6.097V31.428z M139.467,46.841l10.75-6.383l0.043,46.438l-10.793,6.26V46.841z
		 M125.1,107.779c0,0-0.014,3.038-0.064,6.429l-5.282-3.108L125.1,107.779z M123.675,292.733l-10.917-6.41V124.388l10.917,6.424
		V292.733z M200.675,255.95l-62,36.445V131.168l62.174-36.514L200.675,255.95z M199.418,79.185l-67.366,39.172l-3.51-2.085
		l62.336-36.302l0.016-5.748L199.418,79.185z"/>
</g>
<g>
</g>
<g>
</g>
<g>
</g>
<g>
</g>
<g>
</g>
<g>
</g>
<g>
</g>
<g>
</g>
<g>
</g>
<g>
</g>
<g>
</g>
<g>
</g>
<g>
</g>
<g>
</g>
<g>
</g>
</svg>
