<?xml version="1.0" encoding="iso-8859-1"?>
<!-- Generator: Adobe Illustrator 18.0.0, SVG Export Plug-In . SVG Version: 6.00 Build 0)  -->
<!DOCTYPE svg PUBLIC "-//W3C//DTD SVG 1.1//EN" "http://www.w3.org/Graphics/SVG/1.1/DTD/svg11.dtd">
<svg version="1.1" id="Capa_1" xmlns="http://www.w3.org/2000/svg" xmlns:xlink="http://www.w3.org/1999/xlink" x="0px" y="0px"
	 viewBox="0 0 296.363 296.363" style="enable-background:new 0 0 296.363 296.363;" xml:space="preserve">
<g>
	<g>
		<path d="M270.247,53.757L241.098,36.73l-0.012-21.749c0,0-20.79-12.132-25.638-14.981l-18.829,10.755l-1.954-1.142L26.116,108.052
			v144.009c4.913,3.025,75.825,44.303,75.825,44.303l168.306-98.286V53.757z M226.086,32.238v4.042l-11.801,7.002v-4.073
			L226.086,32.238z M215.563,17.21l3.245,1.905l-12.065,7.127l-3.477-2.008L215.563,17.21z M195.705,37.19l3.566,2.086l0.014,4.146
			l-3.58-2.08V37.19z M94.221,274.182l-53.115-31.029l0.011-116.042l53.105,31.006V274.182z M46.849,113.082l133.854-78.15
			L180.683,49.8l3.264,1.899L122.35,87.766c-3.547,2.14-4.687,6.75-2.546,10.296c1.408,2.335,3.887,3.626,6.428,3.626
			c1.32,0,2.656-0.349,3.868-1.08l68.793-40.176l7.938,4.619l26.978-15.764l15.802,9.531l-138.36,80.719l-9.47,5.619L46.849,113.082
			z M255.247,189.153l-146,85.263V158.179l9.653-5.74L255.247,72.9V189.153z"/>
	</g>
	<path d="M205.859,114.572c-6.724-3.699-14.507-3.15-21.912,1.543c-16.451,10.428-29.339,41.394-29.339,70.497
		c0,19.551,5.83,33.971,15.994,39.563c2.944,1.619,6.089,2.425,9.318,2.425c4.146,0,8.429-1.329,12.592-3.968
		c16.453-10.427,29.341-41.394,29.341-70.498C221.854,134.584,216.023,120.164,205.859,114.572z M183.947,211.118
		c-3.492,2.214-5.047,1.36-5.633,1.038c-2.453-1.35-5.022-5.697-6.488-12.706c2.175,0.875,4.68,0.577,7.348-1.113
		c8.33-5.28,15.083-22.079,15.083-37.523c0-13.222-4.951-21.154-11.603-19.853c3.132-5.261,6.555-9.237,9.858-11.332
		c1.813-1.148,3.104-1.472,4.007-1.472c0.84,0,1.346,0.278,1.628,0.434c3.711,2.042,7.706,10.906,7.706,25.543
		C205.854,179.534,194.309,204.551,183.947,211.118z"/>
	<path d="M53.01,243.043c4.143,0,7.5-3.357,7.5-7.5v-50.214c0-4.143-3.357-7.5-7.5-7.5s-7.5,3.357-7.5,7.5v50.214
		C45.51,239.686,48.867,243.043,53.01,243.043z"/>
	<ellipse cx="96.333" cy="114.024" rx="22.46" ry="11.662"/>
</g>
<g>
</g>
<g>
</g>
<g>
</g>
<g>
</g>
<g>
</g>
<g>
</g>
<g>
</g>
<g>
</g>
<g>
</g>
<g>
</g>
<g>
</g>
<g>
</g>
<g>
</g>
<g>
</g>
<g>
</g>
</svg>
