<?xml version="1.0" encoding="iso-8859-1"?>
<!-- Generator: Adobe Illustrator 18.0.0, SVG Export Plug-In . SVG Version: 6.00 Build 0)  -->
<!DOCTYPE svg PUBLIC "-//W3C//DTD SVG 1.1//EN" "http://www.w3.org/Graphics/SVG/1.1/DTD/svg11.dtd">
<svg version="1.1" id="Capa_1" xmlns="http://www.w3.org/2000/svg" xmlns:xlink="http://www.w3.org/1999/xlink" x="0px" y="0px"
	 viewBox="0 0 289.568 289.568" style="enable-background:new 0 0 289.568 289.568;" xml:space="preserve">
<g>
	<path d="M225.863,199.078V105.7l-64.11-37.446L161.779,0L68.141,54.444v38.552L4.03,133.563V233.71l85.423,49.765l44.459-26.386
		l56.23,32.479l95.396-55.869L225.863,199.078z M146.753,26.008l0.152,77.063l-63.754,37.396l-0.011-77.688L146.753,26.008z
		 M68.141,110.236l0.05,53.406l-42.123-24.634L68.141,110.236z M81.863,262.74L19.03,226.018v-74.359l62.833,36.554V262.74z
		 M70.269,164.907l91.637-53.421l-0.152-27.15l42.194,25.106c-2.235,1.308-112.904,66.08-114.381,66.944L70.269,164.907z
		 M96.863,261.431v-71.935l114-66.721v67.662l-17.061-10.179l-95.26,55.704l20.867,12.245L96.863,261.431z M189.087,272.485
		l-62.533-36.339l67.655-39.596l63.631,37.055L189.087,272.485z"/>
	<path d="M112.982,206.832l13.31-7.926c3.559-2.119,4.726-6.723,2.605-10.281c-2.118-3.56-6.724-4.726-10.281-2.605l-13.308,7.924
		c-3.56,2.119-4.727,6.723-2.607,10.281C104.82,207.782,109.421,208.951,112.982,206.832z"/>
	<polygon points="217.812,226.419 177.554,249.987 191.849,258.256 232.108,234.765 	"/>
	<polygon points="191.54,211.042 151.358,234.688 165.653,242.955 205.99,219.388 	"/>
</g>
<g>
</g>
<g>
</g>
<g>
</g>
<g>
</g>
<g>
</g>
<g>
</g>
<g>
</g>
<g>
</g>
<g>
</g>
<g>
</g>
<g>
</g>
<g>
</g>
<g>
</g>
<g>
</g>
<g>
</g>
</svg>
