<?xml version="1.0" encoding="iso-8859-1"?>
<!-- Generator: Adobe Illustrator 18.0.0, SVG Export Plug-In . SVG Version: 6.00 Build 0)  -->
<!DOCTYPE svg PUBLIC "-//W3C//DTD SVG 1.1//EN" "http://www.w3.org/Graphics/SVG/1.1/DTD/svg11.dtd">
<svg version="1.1" id="Capa_1" xmlns="http://www.w3.org/2000/svg" xmlns:xlink="http://www.w3.org/1999/xlink" x="0px" y="0px"
	 viewBox="0 0 296.645 296.645" style="enable-background:new 0 0 296.645 296.645;" xml:space="preserve">
<g>
	<path d="M80.333,95.11L31.036,66.194l67.365-39.282L53.088,0.998c-3.591-2.063-8.175-0.825-10.24,2.766
		c-2.063,3.591-0.825,8.176,2.766,10.24l23.883,13.75L2.63,66.873l63.102,36.766l-39.115,22.869l-0.292,92.65l132.707,77.487
		l134.984-78.849l-0.17-51.344L166.51,44.783L80.333,95.11z M151.598,274.228l-110.249-64.32v-61.523l6.524,6.247v40.357
		c0,4.143,3.358,7.5,7.5,7.5c4.143,0,7.5-3.357,7.5-7.5v-25.996l88.895,85.112L151.598,274.228z M166.63,270.621l0.132-20.708
		l29.778-17.457l1.041,2.825c2.268,5.124,5.313,9.136,9.055,11.797L166.63,270.621z M193.229,200.994l-21.887-27.073
		c0.962-14.037,9.848-15.784,11.895-15.999c0.263-0.009,0.328-0.025,0.612-0.068l24.138-3.645
		C200.171,166.625,194.611,183.761,193.229,200.994z M274.821,168.815l-15.698,9.172c0.005-0.413,0.017-0.825,0.017-1.237
		c0-11.534-2.05-21.236-5.809-28.376L274.821,168.815z M257.152,197.072l21.72-12.699l0.1,20.574l-29.94,17.602
		C252.612,214.869,255.416,206.142,257.152,197.072z M222.002,234.156c-3.748,2.375-5.487,1.414-6.142,1.055
		c-2.48-1.365-4.975-5.352-6.495-11.799c-0.014-0.516-0.079-1.03-0.201-1.539c2.275,1.109,4.942,0.888,7.796-0.92
		c8.33-5.28,15.083-22.079,15.083-37.523c0-13.738-5.346-21.766-12.39-19.657c3.251-5.528,6.855-9.716,10.378-11.949
		c1.906-1.208,3.293-1.553,4.282-1.553c0.954,0,1.539,0.321,1.86,0.498c3.965,2.182,7.966,11.062,7.966,25.981
		C244.139,202.696,232.692,227.381,222.002,234.156z M240.831,136.445c-3.162-1.184-6.512-1.463-9.907-0.867v-0.001l-49.025,7.401
		c-9.087,0.739-25.64,8.584-25.64,33.49c0,1.716,0.589,3.381,1.668,4.715l30.693,37.966l-32.09,18.749l-8.158-7.812l-82.334-78.831
		l118.069-68.947L240.831,136.445z M54.858,140.553l-8.914-8.535l118.066-68.896l8.886,8.465L54.858,140.553z"/>
</g>
<g>
</g>
<g>
</g>
<g>
</g>
<g>
</g>
<g>
</g>
<g>
</g>
<g>
</g>
<g>
</g>
<g>
</g>
<g>
</g>
<g>
</g>
<g>
</g>
<g>
</g>
<g>
</g>
<g>
</g>
</svg>
