<?xml version="1.0" encoding="iso-8859-1"?>
<!-- Generator: Adobe Illustrator 18.0.0, SVG Export Plug-In . SVG Version: 6.00 Build 0)  -->
<!DOCTYPE svg PUBLIC "-//W3C//DTD SVG 1.1//EN" "http://www.w3.org/Graphics/SVG/1.1/DTD/svg11.dtd">
<svg version="1.1" id="Capa_1" xmlns="http://www.w3.org/2000/svg" xmlns:xlink="http://www.w3.org/1999/xlink" x="0px" y="0px"
	 viewBox="0 0 308.629 308.629" style="enable-background:new 0 0 308.629 308.629;" xml:space="preserve">
<g>
	<path d="M276.301,65.597L201.142,21.69L162.44,44.349L88.332,1.027c-3.576-2.091-8.169-0.888-10.26,2.689
		c-2.091,3.576-0.887,8.17,2.689,10.26l66.829,39.066l-115.342,67.53v143.964l75.558,44.092l168.573-98.544L276.301,65.597z
		 M100.353,286.273L47.249,255.29V137.723l53.105,31.063V286.273z M53.004,125.134l109.058-63.632l23.479,13.726
		c1.191,0.696,2.492,1.026,3.778,1.026c2.577,0,5.087-1.33,6.481-3.716c2.091-3.576,0.887-8.17-2.689-10.26l-16.175-9.455
		l23.934-13.965l54.884,32.057l-147.842,86.332L53.004,125.134z M261.38,201.252l-146,85.256V169.609l146-85.305V201.252z"/>
	<path d="M208.182,218.682c2.944,1.619,6.089,2.425,9.318,2.425c4.146,0,8.429-1.329,12.592-3.968
		c16.453-10.427,29.341-41.394,29.341-70.498c0-19.55-5.83-33.97-15.994-39.562c-6.725-3.699-14.506-3.151-21.912,1.543
		c-16.451,10.428-29.339,41.394-29.339,70.497C192.188,198.67,198.018,213.09,208.182,218.682z M216.754,190.845
		c8.33-5.281,15.083-22.08,15.083-37.525c0-13.222-4.952-21.153-11.604-19.852c3.132-5.261,6.556-9.237,9.859-11.332
		c1.813-1.148,3.103-1.472,4.007-1.472c0.84,0,1.346,0.278,1.628,0.434c3.711,2.042,7.706,10.906,7.706,25.543
		c0,25.4-11.545,50.417-21.906,56.984c-3.492,2.213-5.047,1.36-5.633,1.038c-2.453-1.35-5.022-5.697-6.488-12.705
		C211.581,192.834,214.086,192.535,216.754,190.845z"/>
	<path d="M67.602,252.283c3.018,1.913,6.217,2.878,9.332,2.878c2.48,0,4.908-0.612,7.146-1.844
		c7.195-3.958,11.321-13.698,11.321-26.724c0-18.908-8.269-38.408-19.234-45.356c-5.42-3.436-11.428-3.812-16.479-1.034
		c-7.193,3.958-11.319,13.697-11.319,26.723C48.369,225.835,56.637,245.334,67.602,252.283z M67.136,194.488
		c0.124,0.061,0.28,0.145,0.467,0.264c5.569,3.529,11.799,17.896,11.799,31.842c0,7.738-1.902,11.402-2.769,12.438
		c-0.124-0.061-0.279-0.145-0.466-0.263c-5.569-3.53-11.799-17.898-11.799-31.844C64.369,199.188,66.271,195.524,67.136,194.488z"/>
	<polygon points="178.644,143.141 124.148,174.989 124.148,215.498 178.644,183.605 	"/>
	<path d="M132.625,223.161c-4.143,0-7.5,3.357-7.5,7.5v26.092c0,4.143,3.357,7.5,7.5,7.5c4.143,0,7.5-3.357,7.5-7.5v-26.092
		C140.125,226.518,136.767,223.161,132.625,223.161z"/>
	<path d="M153.625,210.827c-4.143,0-7.5,3.357-7.5,7.5v26.092c0,4.143,3.357,7.5,7.5,7.5c4.143,0,7.5-3.357,7.5-7.5v-26.092
		C161.125,214.184,157.767,210.827,153.625,210.827z"/>
	<path d="M167.125,206.161v26.092c0,4.143,3.357,7.5,7.5,7.5c4.143,0,7.5-3.357,7.5-7.5v-26.092c0-4.143-3.357-7.5-7.5-7.5
		C170.482,198.661,167.125,202.018,167.125,206.161z"/>
</g>
<g>
</g>
<g>
</g>
<g>
</g>
<g>
</g>
<g>
</g>
<g>
</g>
<g>
</g>
<g>
</g>
<g>
</g>
<g>
</g>
<g>
</g>
<g>
</g>
<g>
</g>
<g>
</g>
<g>
</g>
</svg>
