<?xml version="1.0" encoding="iso-8859-1"?>
<!-- Generator: Adobe Illustrator 16.0.0, SVG Export Plug-In . SVG Version: 6.00 Build 0)  -->
<!DOCTYPE svg PUBLIC "-//W3C//DTD SVG 1.1//EN" "http://www.w3.org/Graphics/SVG/1.1/DTD/svg11.dtd">
<svg version="1.1" id="Layer_1" xmlns="http://www.w3.org/2000/svg" xmlns:xlink="http://www.w3.org/1999/xlink" x="0px" y="0px"
	 width="792px" height="792px" viewBox="0 0 792 792" style="enable-background:new 0 0 792 792;" xml:space="preserve">
<path d="M355.505,100.522l-116.802,68.23l-68.361-40.441L330.75,34.515l181.692,106.212c-0.939,11.626,4.431,23.368,14.98,30.025
	l75.62,44.117c5.365,3.386,11.345,5.001,17.251,5.001c10.748,0,21.261-5.346,27.42-15.105c9.546-15.126,5.02-35.126-10.104-44.672
	l-75.619-44.117c-10.422-6.576-23.151-6.471-33.188-0.828L332.054,0L111.522,128.791l97.178,57.486L90,255.812V372.86
	l339.313,197.911l272.688-159.561V302.789L355.505,100.522z M306.687,462.758L120.361,353.885v-54.148l186.444,108.886
	L306.687,462.758z M127.692,268.827l230.167-134.515l192.142,112.221L319.896,381.074L127.692,268.827z M414.044,525.428
	l-76.912-44.888l0.039-54.185l76.873,44.837V525.428z M349.563,398.4l230.146-134.519l79.878,46.54L429.336,444.956L349.563,398.4z
	 M444.405,525.645V471.32l227.132-132.863l0.458,54.222L444.405,525.645z M461.36,409.276c-3.621,9.453-20.993,11.587-38.8,4.766
	c-17.808-6.821-29.308-20.014-25.687-29.468c3.621-9.453,20.992-11.587,38.8-4.766S464.981,399.823,461.36,409.276z"/>
<g>
</g>
<g>
</g>
<g>
</g>
<g>
</g>
<g>
</g>
<g>
</g>
<g>
</g>
<g>
</g>
<g>
</g>
<g>
</g>
<g>
</g>
<g>
</g>
<g>
</g>
<g>
</g>
<g>
</g>
</svg>
