<?xml version="1.0" encoding="iso-8859-1"?>
<!-- Generator: Adobe Illustrator 18.0.0, SVG Export Plug-In . SVG Version: 6.00 Build 0)  -->
<!DOCTYPE svg PUBLIC "-//W3C//DTD SVG 1.1//EN" "http://www.w3.org/Graphics/SVG/1.1/DTD/svg11.dtd">
<svg version="1.1" id="Capa_1" xmlns="http://www.w3.org/2000/svg" xmlns:xlink="http://www.w3.org/1999/xlink" x="0px" y="0px"
	 viewBox="0 0 293.274 293.274" style="enable-background:new 0 0 293.274 293.274;" xml:space="preserve">
<path d="M254.768,130.333c-7.396-19.261-21.846-38.561-40.848-54.674l20.516-40.337c11.422,0.522,20.145-9.639,18.24-20.657
	c-1.663-9.618-10.808-16.066-20.426-14.404c-10.031,1.734-16.735,11.667-14.073,21.901l-36.926,31.401
	c-25.345-13.49-52.369-20.358-76.507-19.368c-26.538,1.096-47.12,11.533-57.954,29.391C35.28,82.56,30.22,117.913,34.198,151.558
	c2.145,18.143,8.414,47.475,26.585,69.676c-9.146,3.272-20.208,9.774-21.832,23.208c-3.374,27.875,44.187,43.868,75.038,47.599
	c38.184,4.622,81.22-3.508,84.223-28.336c1.069-8.846-3.415-17.503-12.813-25.149c29.559-12.307,56.157-32.085,67.123-50.162
	C262.213,172.419,263.011,151.8,254.768,130.333z M215.751,162.042c-9.22,15.196-45.88,13.911-82.813-8.493
	c-36.633-22.224-55.094-54.187-45.79-69.522c7.674-12.648,33.4-13.279,61.057-2.36l-9.206,7.829
	c-15.34,13.044-14.641,36.903,1.367,49.047c15.623,11.852,38.181,6.674,47.07-10.806l7.966-15.662
	C214.267,130.519,222.62,150.718,215.751,162.042z M174.065,120.936c-4.654,9.155-16.465,11.857-24.634,5.655
	c-8.393-6.366-8.729-18.854-0.717-25.668l62.606-53.24L174.065,120.936z M183.321,261.904c-1.139,9.41-28.009,20.021-67.531,15.246
	c-39.653-4.797-63.094-21.422-61.948-30.907c0.263-2.167,1.059-8.663,19.104-12.877c2.502,2.019,5.159,3.911,7.984,5.655
	c-2.207,1.107-3.524,2.545-3.741,4.334c-0.871,7.202,16.949,15.281,39.804,18.045c22.854,2.765,42.088-0.833,42.959-8.034
	c0.236-1.951-0.951-3.812-3.247-5.544c3.69-0.838,7.43-1.837,11.205-2.98C177.925,250.474,183.909,257.03,183.321,261.904z
	 M239.698,180.614C214.76,221.719,66.345,295.682,49.094,149.796c-3.559-30.1,0.768-62.352,10.522-78.43
	c8.145-13.424,24.392-21.302,45.748-22.184c19.872-0.815,42.114,4.443,63.522,14.897l-7.9,6.719
	c-38.574-17.711-73.871-15.635-86.662,5.448c-14.742,24.302,7.587,63.891,50.835,90.127c40.586,24.622,87.831,29.142,103.417,3.448
	c11.323-18.665,1.133-46.762-25.962-71.579l-0.398,0.434l4.7-9.24C240.406,119.12,254.203,156.702,239.698,180.614z"/>
<g>
</g>
<g>
</g>
<g>
</g>
<g>
</g>
<g>
</g>
<g>
</g>
<g>
</g>
<g>
</g>
<g>
</g>
<g>
</g>
<g>
</g>
<g>
</g>
<g>
</g>
<g>
</g>
<g>
</g>
</svg>
