<?xml version="1.0" encoding="iso-8859-1"?>
<!-- Generator: Adobe Illustrator 18.0.0, SVG Export Plug-In . SVG Version: 6.00 Build 0)  -->
<!DOCTYPE svg PUBLIC "-//W3C//DTD SVG 1.1//EN" "http://www.w3.org/Graphics/SVG/1.1/DTD/svg11.dtd">
<svg version="1.1" id="Capa_1" xmlns="http://www.w3.org/2000/svg" xmlns:xlink="http://www.w3.org/1999/xlink" x="0px" y="0px"
	 viewBox="0 0 278.336 278.336" style="enable-background:new 0 0 278.336 278.336;" xml:space="preserve">
<g>
	<path d="M51.416,71.231v186.194l35.783,20.91c17.998-10.923,139.678-81.924,139.678-81.924l0.043-158.64
		C208.068,24.193,173.375,0,173.375,0L51.416,71.231z M79.799,257.183l-13.379-7.641l0.059-160.238l13.345,7.75L79.799,257.183z
		 M87.334,84.062l-14.574-8.51l6.787-3.999l14.422,8.422L87.334,84.062z M189.945,201.245l-73.214,42.676V193.38l73.214-42.861
		V201.245z M204.945,39.965l6.933,4.264l-0.001,144.115l-6.932,4.164v-67.403l-103.214,60.402v67.101l-6.933,4.181l0.024-159.723
		l6.81-4.168l0.197,68.215l103.115-60.52V39.965z M189.945,92.204l-74.556,43.902V84.398l74.556-43.59V92.204z M108.389,71.479
		L94.056,63.06l78.991-46.209l13.072,9.211L108.389,71.479z"/>
	<polygon points="182.553,52.031 168.784,60.031 168.784,93.862 182.553,85.862 	"/>
</g>
<g>
</g>
<g>
</g>
<g>
</g>
<g>
</g>
<g>
</g>
<g>
</g>
<g>
</g>
<g>
</g>
<g>
</g>
<g>
</g>
<g>
</g>
<g>
</g>
<g>
</g>
<g>
</g>
<g>
</g>
</svg>
