<?xml version="1.0" encoding="iso-8859-1"?>
<!-- Generator: Adobe Illustrator 18.0.0, SVG Export Plug-In . SVG Version: 6.00 Build 0)  -->
<!DOCTYPE svg PUBLIC "-//W3C//DTD SVG 1.1//EN" "http://www.w3.org/Graphics/SVG/1.1/DTD/svg11.dtd">
<svg version="1.1" id="Capa_1" xmlns="http://www.w3.org/2000/svg" xmlns:xlink="http://www.w3.org/1999/xlink" x="0px" y="0px"
	 viewBox="0 0 307.192 307.192" style="enable-background:new 0 0 307.192 307.192;" xml:space="preserve">
<g>
	<path d="M52.173,68.291L51.865,192.96l38.403,22.428l0.063,6.344l-62.767-36.461L0,201.416l95.198,55.702l21.044-12.23l0.09-14.238
		l102.419,59.844l88.279-51.587l0.162-124.886L140.552,16.699L52.173,68.291z M180.787,250.883L67.012,184.435V89.824
		l113.775,66.446V250.883z M209.03,267.377l-13.243-7.734V165.03l13.243,7.746V267.377z M224.168,270.656v-98.272l22.475-13.111
		c-11.483,12.079-19.784,35.158-19.784,57.023c0,17.414,5.272,30.302,14.465,35.359c2.726,1.499,5.634,2.245,8.614,2.245
		c1.16,0,2.332-0.115,3.508-0.341L224.168,270.656z M252.889,236.763c-2.528,1.604-3.525,1.053-3.854,0.871
		c-1.614-0.888-3.735-4.095-5.025-9.836c1.615,0.291,3.398-0.104,5.275-1.293c7.254-4.599,13.136-19.229,13.136-32.679
		c0-10.671-3.704-17.386-8.857-17.41c2.526-4.1,5.253-7.203,7.891-8.875c1.387-0.879,2.313-1.109,2.922-1.109
		c0.501,0,0.786,0.156,0.935,0.238c2.482,1.365,6.176,8.176,6.176,21.339C271.486,209.794,261.686,231.188,252.889,236.763z
		 M292.03,231.03l-24.825,14.514c11.74-11.929,20.281-35.356,20.281-57.534c0-17.413-5.271-30.301-14.464-35.357
		c-3.643-2.004-7.612-2.66-11.644-1.993l30.651-17.899V231.03z M286.415,119.074l-69.795,40.761l-17.505-10.211l69.794-40.769
		L286.415,119.074z M254.229,100.234l-69.738,40.849L70.537,74.533l69.691-40.828L254.229,100.234z"/>
</g>
<g>
</g>
<g>
</g>
<g>
</g>
<g>
</g>
<g>
</g>
<g>
</g>
<g>
</g>
<g>
</g>
<g>
</g>
<g>
</g>
<g>
</g>
<g>
</g>
<g>
</g>
<g>
</g>
<g>
</g>
</svg>
