<?xml version="1.0" encoding="iso-8859-1"?>
<!-- Generator: Adobe Illustrator 18.0.0, SVG Export Plug-In . SVG Version: 6.00 Build 0)  -->
<!DOCTYPE svg PUBLIC "-//W3C//DTD SVG 1.1//EN" "http://www.w3.org/Graphics/SVG/1.1/DTD/svg11.dtd">
<svg version="1.1" id="Capa_1" xmlns="http://www.w3.org/2000/svg" xmlns:xlink="http://www.w3.org/1999/xlink" x="0px" y="0px"
	 viewBox="0 0 284.207 284.207" style="enable-background:new 0 0 284.207 284.207;" xml:space="preserve">
<path d="M239.604,45.447c0-25.909-41.916-45.447-97.5-45.447s-97.5,19.538-97.5,45.447v47.882c0,6.217,2.419,12.064,6.854,17.365
	c-3.84,0.328-6.854,3.543-6.854,7.468v47.882c0,6.217,2.419,12.065,6.855,17.366c-3.84,0.328-6.855,3.543-6.855,7.468v47.881
	c0,25.91,41.916,45.448,97.5,45.448s97.5-19.538,97.5-45.448v-47.881c0-3.925-3.016-7.14-6.855-7.468
	c4.437-5.301,6.855-11.149,6.855-17.366v-47.882c0-3.925-3.015-7.14-6.855-7.468c4.436-5.301,6.855-11.148,6.855-17.365V45.447z
	 M224.604,166.044c0,14.373-35.282,30.447-82.5,30.447s-82.5-16.074-82.5-30.447v-22.977c16.976,12.546,46.94,20.543,82.5,20.543
	s65.524-7.997,82.5-20.543V166.044z M224.598,190.952c-0.121,14.354-35.358,30.373-82.494,30.373s-82.373-16.02-82.494-30.373
	c16.977,12.544,46.938,20.539,82.494,20.539S207.621,203.496,224.598,190.952z M142.104,123.776c-47.218,0-82.5-16.074-82.5-30.447
	V70.352c16.976,12.546,46.94,20.543,82.5,20.543s65.524-7.997,82.5-20.543v22.978C224.604,107.702,189.321,123.776,142.104,123.776z
	 M224.598,118.238c-0.123,14.354-35.359,30.372-82.494,30.372s-82.371-16.019-82.494-30.372
	c16.977,12.543,46.938,20.538,82.494,20.538S207.621,130.781,224.598,118.238z M142.104,15c47.218,0,82.5,16.075,82.5,30.447
	s-35.282,30.447-82.5,30.447s-82.5-16.075-82.5-30.447S94.886,15,142.104,15z M142.104,269.207c-47.218,0-82.5-16.075-82.5-30.448
	v-22.977c16.976,12.546,46.94,20.543,82.5,20.543s65.524-7.997,82.5-20.543v22.977C224.604,253.132,189.321,269.207,142.104,269.207
	z"/>
<g>
</g>
<g>
</g>
<g>
</g>
<g>
</g>
<g>
</g>
<g>
</g>
<g>
</g>
<g>
</g>
<g>
</g>
<g>
</g>
<g>
</g>
<g>
</g>
<g>
</g>
<g>
</g>
<g>
</g>
</svg>
