<?xml version="1.0" encoding="iso-8859-1"?>
<!-- Generator: Adobe Illustrator 18.0.0, SVG Export Plug-In . SVG Version: 6.00 Build 0)  -->
<!DOCTYPE svg PUBLIC "-//W3C//DTD SVG 1.1//EN" "http://www.w3.org/Graphics/SVG/1.1/DTD/svg11.dtd">
<svg version="1.1" id="Capa_1" xmlns="http://www.w3.org/2000/svg" xmlns:xlink="http://www.w3.org/1999/xlink" x="0px" y="0px"
	 viewBox="0 0 322.65 322.65" style="enable-background:new 0 0 322.65 322.65;" xml:space="preserve">
<path d="M211.113,235.131v-14.682l29.367-17.164v-42.246l-16.298-9.71l16.298-9.526V99.364l-16.298-9.516l16.298-9.527V37.865
	L175.481,0L80.936,55.353v42.387l16.229,9.492l-16.229,9.358v42.631l16.229,9.491l-16.229,9.557v42.433l28.68,16.751v18.553
	L70.162,278.76l75.636,43.891l106.691-62.011L211.113,235.131z M225.48,178.191v16.486l-72.186,42.197v-16.577l6.345-3.701
	L225.48,178.191z M209.307,160.025l8.779,5.113l-22.93,13.376l-49.36,28.792l-42.488-24.81l8.718-5.093l33.742,19.793
	L209.307,160.025z M103.307,121.016l8.719-5.093l33.689,19.786l63.593-37.165l8.779,5.114l-72.29,42.168L103.307,121.016z
	 M225.48,116.711v16.486l-72.186,42.197v-16.577L225.48,116.711z M225.48,71.716l-72.186,42.197V97.336l72.186-42.106V71.716z
	 M175.493,17.365l42.594,24.812l-72.29,42.168l-42.489-24.811L175.493,17.365z M95.936,89.136V72.6l42.358,24.734v16.575
	L95.936,89.136z M95.936,150.617v-16.536l42.358,24.734v16.575L95.936,150.617z M95.936,195.563l42.358,24.733v16.575
	l-42.358-24.773V195.563z M145.831,258.604l50.281-29.389v10.653l-71.497,41.769v-35.425L145.831,258.604z M109.616,273.32v10.991
	l-9.499-5.513L109.616,273.32z M145.791,305.305l-16.029-9.302l77.791-45.445l15.738,9.703L145.791,305.305z"/>
<g>
</g>
<g>
</g>
<g>
</g>
<g>
</g>
<g>
</g>
<g>
</g>
<g>
</g>
<g>
</g>
<g>
</g>
<g>
</g>
<g>
</g>
<g>
</g>
<g>
</g>
<g>
</g>
<g>
</g>
</svg>
