<?xml version="1.0" encoding="iso-8859-1"?>
<!-- Generator: Adobe Illustrator 16.0.0, SVG Export Plug-In . SVG Version: 6.00 Build 0)  -->
<!DOCTYPE svg PUBLIC "-//W3C//DTD SVG 1.1//EN" "http://www.w3.org/Graphics/SVG/1.1/DTD/svg11.dtd">
<svg version="1.1" id="Layer_1" xmlns="http://www.w3.org/2000/svg" xmlns:xlink="http://www.w3.org/1999/xlink" x="0px" y="0px"
	 width="792px" height="792px" viewBox="0 0 792 792" style="enable-background:new 0 0 792 792;" xml:space="preserve">
<path d="M384.217,0L90,171.804v405.943l58.142,34.251l286.69-167.874V29.544L384.217,0z M133.811,571.285l-14.949-8.729
	l-0.104-355.802l15.061,8.801L133.811,571.285z M130.729,180.437c12.799-7.876,238.562-138.968,252.052-147.269l17.646,10.329
	l-252.1,147.207L130.729,180.437z M162.607,570.301l-0.034-354.599l243.5-142.185v354.602h0.002L162.607,570.301z M177.973,224.026
	v268.874l212.969-123.653l-0.44-268.713L177.973,224.026z M206.73,443.344V239.835l155.113-90.113l0.314,203.463L206.73,443.344z
	 M316.206,454.407c-0.586,13.775-7.335,24.677-15.075,24.348c-7.74-0.33-13.539-11.764-12.953-25.54
	c0.586-13.775,7.335-24.676,15.075-24.347S316.792,440.632,316.206,454.407z"/>
<g>
</g>
<g>
</g>
<g>
</g>
<g>
</g>
<g>
</g>
<g>
</g>
<g>
</g>
<g>
</g>
<g>
</g>
<g>
</g>
<g>
</g>
<g>
</g>
<g>
</g>
<g>
</g>
<g>
</g>
</svg>
