<?xml version="1.0" encoding="iso-8859-1"?>
<!-- Generator: Adobe Illustrator 18.0.0, SVG Export Plug-In . SVG Version: 6.00 Build 0)  -->
<!DOCTYPE svg PUBLIC "-//W3C//DTD SVG 1.1//EN" "http://www.w3.org/Graphics/SVG/1.1/DTD/svg11.dtd">
<svg version="1.1" id="Capa_1" xmlns="http://www.w3.org/2000/svg" xmlns:xlink="http://www.w3.org/1999/xlink" x="0px" y="0px"
	 viewBox="0 0 289.901 289.901" style="enable-background:new 0 0 289.901 289.901;" xml:space="preserve">
<g>
	<path d="M47.451,63.173v176.698l85.665,50.03l109.335-63.815V50.04L156.024,0L47.451,63.173z M125.451,268.199l-63-36.924V80.49
		l63,37.086V268.199z M227.451,217.459l-87,50.622V117.614l87-50.323V217.459z M219.968,54.29l-86.984,50.314L69.809,67.416
		l86.232-50.08L219.968,54.29z"/>
	<path d="M169.725,222.006c2.944,1.619,6.089,2.425,9.318,2.425c4.146,0,8.429-1.329,12.592-3.968
		c16.452-10.427,29.34-41.394,29.34-70.498c0-19.55-5.829-33.969-15.993-39.561c-6.722-3.699-14.504-3.152-21.912,1.542
		c-16.451,10.429-29.339,41.395-29.339,70.497C153.731,201.994,159.561,216.414,169.725,222.006z M178.296,194.169
		c8.329-5.281,15.083-22.08,15.083-37.524c0-13.222-4.951-21.154-11.602-19.853c3.132-5.261,6.555-9.237,9.858-11.331
		c1.813-1.148,3.102-1.472,4.007-1.472c0.839,0,1.346,0.278,1.627,0.434c3.712,2.042,7.706,10.905,7.706,25.542
		c0,25.4-11.544,50.418-21.905,56.984c-3.492,2.213-5.047,1.36-5.633,1.038c-2.453-1.35-5.022-5.697-6.488-12.705
		C173.124,196.157,175.628,195.859,178.296,194.169z"/>
</g>
<g>
</g>
<g>
</g>
<g>
</g>
<g>
</g>
<g>
</g>
<g>
</g>
<g>
</g>
<g>
</g>
<g>
</g>
<g>
</g>
<g>
</g>
<g>
</g>
<g>
</g>
<g>
</g>
<g>
</g>
</svg>
