<?xml version="1.0" encoding="iso-8859-1"?>
<!-- Generator: Adobe Illustrator 18.0.0, SVG Export Plug-In . SVG Version: 6.00 Build 0)  -->
<!DOCTYPE svg PUBLIC "-//W3C//DTD SVG 1.1//EN" "http://www.w3.org/Graphics/SVG/1.1/DTD/svg11.dtd">
<svg version="1.1" id="Capa_1" xmlns="http://www.w3.org/2000/svg" xmlns:xlink="http://www.w3.org/1999/xlink" x="0px" y="0px"
	 viewBox="0 0 314.134 314.134" style="enable-background:new 0 0 314.134 314.134;" xml:space="preserve">
<g>
	<g>
		<path d="M108.517,103.6L71.123,81.947c-3.616-2.017-8.185-0.721-10.203,2.898c-2.017,3.617-0.72,8.186,2.898,10.203l29.494,17.249
			L0,166.312v37.343l107.974,63.492L312.913,147.11l1.221-37.733l-106.533-62.39L108.517,103.6z M100.497,245.288L15,195.069
			v-11.875c13.92,8.176,76.587,44.986,85.497,50.22V245.288z M297.913,138.68L115.497,245.045v-11.71L299.06,125.291L297.913,138.68
			z M107.929,220.382l-85.475-50.206L208.558,63.65l82.933,48.642L107.929,220.382z"/>
	</g>
	<path d="M51.665,174.021c2,3.631,6.564,4.947,10.187,2.949L86.157,163c3.628-1.999,4.948-6.56,2.949-10.188
		c-1.999-3.628-6.561-4.95-10.188-2.949l-24.305,13.971C50.985,165.833,49.665,170.393,51.665,174.021z"/>
	<path d="M127.098,187.667c2.062,3.589,6.644,4.832,10.239,2.769l102.684-59.372c3.592-2.064,4.831-6.648,2.769-10.239
		c-2.063-3.591-6.646-4.83-10.239-2.769l-102.684,59.372C126.274,179.492,125.035,184.076,127.098,187.667z"/>
	<path d="M111.928,147.939l26.011-15.413c3.527-2.171,4.628-6.791,2.457-10.318c-2.172-3.528-6.793-4.627-10.318-2.457
		l-26.011,15.413c-3.527,2.171-4.628,6.791-2.457,10.318C103.78,149.009,108.399,150.11,111.928,147.939z"/>
	<path d="M163.688,117.541l23.892-14.061c3.588-2.07,4.817-6.657,2.746-10.243c-2.07-3.591-6.658-4.817-10.244-2.747l-23.892,14.061
		c-3.588,2.07-4.817,6.657-2.746,10.244C155.514,118.382,160.101,119.613,163.688,117.541z"/>
	<path d="M111.745,176.586l25.368-14.635c3.588-2.069,4.818-6.656,2.748-10.244c-2.07-3.588-6.657-4.821-10.244-2.748
		l-25.368,14.635c-3.588,2.069-4.818,6.656-2.748,10.244C103.572,177.429,108.163,178.655,111.745,176.586z"/>
	<path d="M162.393,147.19l25.136-14.805c3.481-2.243,4.485-6.885,2.242-10.367c-2.244-3.482-6.885-4.484-10.367-2.242
		l-25.136,14.805c-3.481,2.243-4.485,6.885-2.242,10.367C154.267,148.427,158.907,149.435,162.393,147.19z"/>
</g>
<g>
	<path d="M201.25,115.405c-1.97-3.645-0.612-8.195,3.031-10.164l27.569-16.121c3.646-1.971,8.195-0.611,10.164,3.031
		c1.971,3.644,0.613,8.195-3.031,10.164l-27.569,16.121C207.782,120.401,203.225,119.058,201.25,115.405z"/>
</g>
<g>
</g>
<g>
</g>
<g>
</g>
<g>
</g>
<g>
</g>
<g>
</g>
<g>
</g>
<g>
</g>
<g>
</g>
<g>
</g>
<g>
</g>
<g>
</g>
<g>
</g>
<g>
</g>
<g>
</g>
</svg>
