<?xml version="1.0" encoding="iso-8859-1"?>
<!-- Generator: Adobe Illustrator 18.0.0, SVG Export Plug-In . SVG Version: 6.00 Build 0)  -->
<!DOCTYPE svg PUBLIC "-//W3C//DTD SVG 1.1//EN" "http://www.w3.org/Graphics/SVG/1.1/DTD/svg11.dtd">
<svg version="1.1" id="Capa_1" xmlns="http://www.w3.org/2000/svg" xmlns:xlink="http://www.w3.org/1999/xlink" x="0px" y="0px"
	 viewBox="0 0 301.499 301.499" style="enable-background:new 0 0 301.499 301.499;" xml:space="preserve">
<g>
	<path d="M301.499,45.752l-131.346-5.325c0,0-143.155,84.046-170.153,99.459v40.702l137.783,80.483L301,165.528v-43.055
		L235.299,84.26L301.499,45.752z M172.414,55.871l78.444,2.856l-141.613,82.605l-75.145-4.655L172.414,55.871z M130.145,239.315
		L15,172.187v-13.371c0,0,110.433,64.723,115.286,67.665L130.145,239.315z M286,157.173l-140.851,82.817l0.138-13.484L286,144.34
		V157.173z M283.595,128.885l-145.16,85.045L31.938,152.224l21.238,1.332l83.156,48.605l128.122-73.62L212.509,98l9.188-5.438
		L283.595,128.885z"/>
</g>
<g>
</g>
<g>
</g>
<g>
</g>
<g>
</g>
<g>
</g>
<g>
</g>
<g>
</g>
<g>
</g>
<g>
</g>
<g>
</g>
<g>
</g>
<g>
</g>
<g>
</g>
<g>
</g>
<g>
</g>
</svg>
