<?xml version="1.0" encoding="iso-8859-1"?>
<!-- Generator: Adobe Illustrator 18.0.0, SVG Export Plug-In . SVG Version: 6.00 Build 0)  -->
<!DOCTYPE svg PUBLIC "-//W3C//DTD SVG 1.1//EN" "http://www.w3.org/Graphics/SVG/1.1/DTD/svg11.dtd">
<svg version="1.1" id="Capa_1" xmlns="http://www.w3.org/2000/svg" xmlns:xlink="http://www.w3.org/1999/xlink" x="0px" y="0px"
	 viewBox="0 0 286.384 286.384" style="enable-background:new 0 0 286.384 286.384;" xml:space="preserve">
<g>
	<path d="M236.713,105.109l47.646-28.107l-32.241-20.906l23.475-13.843c3.546-2.141,4.686-6.75,2.545-10.297
		c-2.139-3.546-6.749-4.683-10.297-2.545l-43.86,26.147l32.292,20.939l-30.797,17.885l-66.847-63.827l-136.37,79.941
		c-0.003,0.002-0.006,0.004-0.009,0.006l-3.003,1.967l-0.177,49.647H15V10.913c0-4.143-3.358-7.5-7.5-7.5
		c-4.143,0-7.5,3.357-7.5,7.5v166.202h19.187l0.155,28.34l132.385,77.517l134.657-78.983l-0.479-51.842
		C283.389,149.698,236.713,105.109,236.713,105.109z M143.967,261.226L34.279,197.278l-0.092-20.163h1.267
		c4.142,0,7.5-3.357,7.5-7.5c0-4.143-3.358-7.5-7.5-7.5H34.07l-0.215-27.553l110.281,105.589L143.967,261.226z M38.313,118.063
		l117.845-69.139l114.81,109.515l-118.382,69.034C147.738,222.832,43.14,122.685,38.313,118.063z M158.967,261.688l0.163-20.592
		l112.105-65.508l0.106,20.135L158.967,261.688z"/>
	<path d="M82.171,112.869c-2.981-2.877-7.729-2.79-10.604,0.19c-2.877,2.98-2.791,7.729,0.189,10.604l24.276,23.421
		c2.979,2.876,7.728,2.791,10.604-0.189c2.877-2.981,2.791-7.729-0.19-10.605L82.171,112.869z"/>
	<path d="M106.999,100.087c-2.976-2.881-7.724-2.807-10.606,0.168c-2.881,2.976-2.806,7.725,0.169,10.605l23.213,22.487
		c2.976,2.882,7.723,2.807,10.605-0.168c2.882-2.975,2.807-7.724-0.169-10.605L106.999,100.087z"/>
	<path d="M129.916,86.809c-2.989-2.866-7.737-2.768-10.604,0.222c-2.867,2.989-2.768,7.737,0.222,10.604l23.326,22.371
		c2.99,2.866,7.736,2.768,10.605-0.222c2.867-2.99,2.768-7.737-0.222-10.605L129.916,86.809z"/>
	<path d="M176.617,95.641l-23.395-22.299c-2.998-2.856-7.746-2.743-10.605,0.255c-2.857,2.998-2.743,7.746,0.255,10.604
		l23.396,22.298c3,2.857,7.746,2.743,10.604-0.255C179.73,103.246,179.615,98.499,176.617,95.641z"/>
</g>
<g>
</g>
<g>
</g>
<g>
</g>
<g>
</g>
<g>
</g>
<g>
</g>
<g>
</g>
<g>
</g>
<g>
</g>
<g>
</g>
<g>
</g>
<g>
</g>
<g>
</g>
<g>
</g>
<g>
</g>
</svg>
