<?xml version="1.0" encoding="iso-8859-1"?>
<!-- Generator: Adobe Illustrator 18.0.0, SVG Export Plug-In . SVG Version: 6.00 Build 0)  -->
<!DOCTYPE svg PUBLIC "-//W3C//DTD SVG 1.1//EN" "http://www.w3.org/Graphics/SVG/1.1/DTD/svg11.dtd">
<svg version="1.1" id="Capa_1" xmlns="http://www.w3.org/2000/svg" xmlns:xlink="http://www.w3.org/1999/xlink" x="0px" y="0px"
	 viewBox="0 0 304.515 304.515" style="enable-background:new 0 0 304.515 304.515;" xml:space="preserve">
<g>
	<path d="M234.757,16.637C212.571,4.093,211.404,3.015,206.18,0L69.757,79.681V284.89l33.577,19.625l131.423-76.788V16.637z
		 M95.757,282.574l-11-6.347V96.711l11,6.431V282.574z M103.073,90.043l-11.288-6.595l113.872-66.496l11.282,6.587L103.073,90.043z
		 M219.757,218.26l-109,63.706V102.869l109-63.671V218.26z"/>
	<path d="M208.757,56.821l-87,50.796v128.49l87-50.9V56.821z M193.763,176.282l-57.006,33.294v-93.742l57-33.309L193.763,176.282z"
		/>
	<path d="M152.099,228.468l-25.758,15.067c-3.575,2.092-4.778,6.686-2.687,10.261c1.372,2.346,3.822,3.671,6.354,3.714
		c1.327,0.022,2.678-0.308,3.907-1.026l25.758-15.067c3.575-2.092,4.778-6.687,2.686-10.261
		C160.269,227.58,155.674,226.379,152.099,228.468z"/>
	<path d="M200.271,200.304l-25.763,15.062c-3.577,2.091-4.78,6.685-2.69,10.26c1.372,2.346,3.821,3.672,6.354,3.715
		c1.326,0.022,2.677-0.307,3.906-1.024l25.762-15.062c3.576-2.091,4.78-6.685,2.689-10.26
		C208.439,199.419,203.846,198.216,200.271,200.304z"/>
</g>
<g>
</g>
<g>
</g>
<g>
</g>
<g>
</g>
<g>
</g>
<g>
</g>
<g>
</g>
<g>
</g>
<g>
</g>
<g>
</g>
<g>
</g>
<g>
</g>
<g>
</g>
<g>
</g>
<g>
</g>
</svg>
