<?xml version="1.0" encoding="iso-8859-1"?>
<!-- Generator: Adobe Illustrator 18.0.0, SVG Export Plug-In . SVG Version: 6.00 Build 0)  -->
<!DOCTYPE svg PUBLIC "-//W3C//DTD SVG 1.1//EN" "http://www.w3.org/Graphics/SVG/1.1/DTD/svg11.dtd">
<svg version="1.1" id="Capa_1" xmlns="http://www.w3.org/2000/svg" xmlns:xlink="http://www.w3.org/1999/xlink" x="0px" y="0px"
	 viewBox="0 0 297.587 297.587" style="enable-background:new 0 0 297.587 297.587;" xml:space="preserve">
<g>
	<g>
		<path d="M0.425,151.025l-0.149,124.69l37.64,21.871l259.366-151.264l0.029-125.21L260.257,0L0.425,151.025z M30.283,275.927
			l-14.993-8.795l0.158-98.892l14.835,8.763V275.927z M282.284,137.7L45.283,275.791v-98.848L282.316,38.739L282.284,137.7z
			 M274.859,25.721L37.725,163.901l-14.887-8.749L260.287,17.326L274.859,25.721z"/>
	</g>
	<path d="M73.948,238.134l30.291-38.26c6.208-7.842,6.208-16.875,0-16.734l-30.291,0.686c-6.559,0.147-15.035,10.314-15.035,18.032
		v37.575C58.913,247.15,67.389,246.419,73.948,238.134z"/>
	<polygon points="258.84,90.678 125.675,167.923 125.675,185.264 258.84,108.019 	"/>
</g>
<g>
</g>
<g>
</g>
<g>
</g>
<g>
</g>
<g>
</g>
<g>
</g>
<g>
</g>
<g>
</g>
<g>
</g>
<g>
</g>
<g>
</g>
<g>
</g>
<g>
</g>
<g>
</g>
<g>
</g>
</svg>
